<svg width="16" height="18" viewBox="0 0 16 18" fill="none" xmlns="http://www.w3.org/2000/svg">
<path id="Arrow 1" d="M9 17C9 17.5523 8.55228 18 8 18C7.44772 18 7 17.5523 7 17L9 17ZM7.29289 0.292892C7.68342 -0.0976315 8.31658 -0.0976314 8.70711 0.292892L15.0711 6.65685C15.4616 7.04738 15.4616 7.68054 15.0711 8.07107C14.6805 8.46159 14.0474 8.46159 13.6569 8.07107L8 2.41421L2.34315 8.07107C1.95262 8.46159 1.31946 8.46159 0.928933 8.07107C0.538408 7.68054 0.538408 7.04738 0.928933 6.65685L7.29289 0.292892ZM7 17L7 1L9 1L9 17L7 17Z" fill="#FFFEFC"/>
</svg>
