<svg width="38" height="29" viewBox="0 0 38 29" fill="none" xmlns="http://www.w3.org/2000/svg">
<path d="M9 28.5C4.30558 28.5 0.5 24.6944 0.5 20L0.5 9C0.5 4.30558 4.30558 0.5 9 0.5L22.3697 0.5C26.0936 0.5 29.3839 2.92401 30.4877 6.48061L33.9015 17.4806C35.5991 22.9507 31.5109 28.5 25.7834 28.5L9 28.5Z" stroke="#847F7D"/>
<path d="M18 9C18 8.44772 17.5523 8 17 8C16.4477 8 16 8.44772 16 9L18 9ZM16.2929 21.7071C16.6834 22.0976 17.3166 22.0976 17.7071 21.7071L24.0711 15.3431C24.4616 14.9526 24.4616 14.3195 24.0711 13.9289C23.6805 13.5384 23.0474 13.5384 22.6569 13.9289L17 19.5858L11.3431 13.9289C10.9526 13.5384 10.3195 13.5384 9.92893 13.9289C9.53841 14.3195 9.53841 14.9526 9.92893 15.3431L16.2929 21.7071ZM16 9L16 21L18 21L18 9L16 9Z" fill="#FFFEFC"/>
</svg>
