<svg width="47" height="21" viewBox="0 0 47 21" fill="none" xmlns="http://www.w3.org/2000/svg">
<g id="Subtract">
<mask id="path-1-inside-1_807_1846" fill="white">
<path fill-rule="evenodd" clip-rule="evenodd" d="M2 0C0.895431 0 0 0.895432 0 2L0 18.1608C0 19.2654 0.895429 20.1608 2 20.1608H40.1971C40.6957 20.1608 41.1762 19.9746 41.5446 19.6388L45.8475 15.7155C46.2631 15.3366 46.5 14.8001 46.5 14.2376V10.0804V5.9232C46.5 5.36073 46.2631 4.82426 45.8475 4.44529L41.5446 0.522089C41.1762 0.186195 40.6957 0 40.1971 0L2 0ZM39.9965 13.007C41.6128 13.007 42.9231 11.6967 42.9231 10.0804C42.9231 8.46412 41.6128 7.15385 39.9965 7.15385C38.3802 7.15385 37.0699 8.46412 37.0699 10.0804C37.0699 11.6967 38.3802 13.007 39.9965 13.007Z"/>
</mask>
<path fill-rule="evenodd" clip-rule="evenodd" d="M2 0C0.895431 0 0 0.895432 0 2L0 18.1608C0 19.2654 0.895429 20.1608 2 20.1608H40.1971C40.6957 20.1608 41.1762 19.9746 41.5446 19.6388L45.8475 15.7155C46.2631 15.3366 46.5 14.8001 46.5 14.2376V10.0804V5.9232C46.5 5.36073 46.2631 4.82426 45.8475 4.44529L41.5446 0.522089C41.1762 0.186195 40.6957 0 40.1971 0L2 0ZM39.9965 13.007C41.6128 13.007 42.9231 11.6967 42.9231 10.0804C42.9231 8.46412 41.6128 7.15385 39.9965 7.15385C38.3802 7.15385 37.0699 8.46412 37.0699 10.0804C37.0699 11.6967 38.3802 13.007 39.9965 13.007Z" fill="#34312D"/>
<path d="M41.5446 19.6388L41.4099 19.491L41.5446 19.6388ZM45.8475 15.7155L45.7128 15.5678L45.8475 15.7155ZM45.8475 4.44529L45.9823 4.2975L45.8475 4.44529ZM41.5446 0.522089L41.6794 0.374298V0.374297L41.5446 0.522089ZM0.2 2C0.2 1.00589 1.00589 0.2 2 0.2V-0.2C0.784974 -0.2 -0.2 0.784975 -0.2 2H0.2ZM0.2 18.1608L0.2 2H-0.2L-0.2 18.1608H0.2ZM2 19.9608C1.00589 19.9608 0.2 19.155 0.2 18.1608H-0.2C-0.2 19.3759 0.784972 20.3608 2 20.3608L2 19.9608ZM40.1971 19.9608H2L2 20.3608H40.1971V19.9608ZM41.4099 19.491C41.0783 19.7933 40.6458 19.9608 40.1971 19.9608V20.3608C40.7455 20.3608 41.2742 20.156 41.6794 19.7865L41.4099 19.491ZM45.7128 15.5678L41.4099 19.491L41.6794 19.7865L45.9823 15.8633L45.7128 15.5678ZM46.3 14.2376C46.3 14.7439 46.0868 15.2267 45.7128 15.5678L45.9823 15.8633C46.4395 15.4465 46.7 14.8564 46.7 14.2376H46.3ZM46.3 10.0804V14.2376H46.7V10.0804H46.3ZM46.3 5.9232V10.0804H46.7V5.9232H46.3ZM45.7128 4.59308C46.0868 4.93415 46.3 5.41698 46.3 5.9232H46.7C46.7 5.30448 46.4395 4.71436 45.9823 4.2975L45.7128 4.59308ZM41.4099 0.66988L45.7128 4.59308L45.9823 4.2975L41.6794 0.374298L41.4099 0.66988ZM40.1971 0.2C40.6458 0.2 41.0783 0.367575 41.4099 0.66988L41.6794 0.374297C41.2742 0.00481424 40.7455 -0.2 40.1971 -0.2V0.2ZM2 0.2L40.1971 0.2V-0.2L2 -0.2V0.2ZM42.7231 10.0804C42.7231 11.5863 41.5023 12.807 39.9965 12.807V13.207C41.7233 13.207 43.1231 11.8072 43.1231 10.0804H42.7231ZM39.9965 7.35385C41.5023 7.35385 42.7231 8.57457 42.7231 10.0804H43.1231C43.1231 8.35366 41.7233 6.95385 39.9965 6.95385V7.35385ZM37.2699 10.0804C37.2699 8.57458 38.4907 7.35385 39.9965 7.35385V6.95385C38.2697 6.95385 36.8699 8.35366 36.8699 10.0804H37.2699ZM39.9965 12.807C38.4907 12.807 37.2699 11.5863 37.2699 10.0804H36.8699C36.8699 11.8072 38.2697 13.207 39.9965 13.207V12.807Z" fill="#4E4A45" mask="url(#path-1-inside-1_807_1846)"/>
</g>
</svg>
