<svg width="22" height="22" viewBox="0 0 22 22" fill="none" xmlns="http://www.w3.org/2000/svg">
<g id="copy (3) 1">
<path id="Vector" d="M17.0009 1.83334H8.66312C6.91843 1.83334 5.4987 3.25308 5.4987 4.99777V5.50001H4.99646C3.25176 5.50001 1.83203 6.91974 1.83203 8.66443V17.0022C1.83203 18.7469 3.25176 20.1667 4.99646 20.1667H13.3342C14.937 20.1667 16.2512 18.9642 16.4567 17.4167H17.0008C18.7456 17.4167 20.1654 15.9969 20.1654 14.2523V4.99777C20.1654 3.25308 18.7456 1.83334 17.0009 1.83334ZM18.332 14.2523C18.332 14.9862 17.7349 15.5833 17.0009 15.5833H16.4987V8.66443C16.4987 6.91974 15.079 5.50001 13.3343 5.50001H7.33203V4.99777C7.33203 4.26379 7.92915 3.66668 8.66312 3.66668H17.0008C17.7349 3.66668 18.332 4.26379 18.332 4.99777V14.2523Z" fill="#847F7D"/>
</g>
</svg>
