<svg width="63" height="63" viewBox="0 0 63 63" fill="none" xmlns="http://www.w3.org/2000/svg">
<g id="delivered 1" clip-path="url(#clip0_402_17707)">
<path id="Vector" d="M54.4252 2.84009C53.9532 2.6411 53.4096 2.8622 53.2106 3.33276C53.0101 3.80476 53.2312 4.34838 53.7023 4.54736C57.9897 6.35702 61.1673 10.6425 61.1673 15.8167C61.1673 27.0284 47.2068 32.3713 39.773 23.9244C35.5702 19.188 35.6182 11.8316 40.283 7.16692C43.0395 4.40894 46.767 3.23999 50.3834 3.66873C50.8914 3.72689 51.3524 3.3664 51.4129 2.85739C51.4735 2.34934 51.1101 1.8884 50.6021 1.82784C38.4603 0.384918 30.4325 14.0628 37.4115 23.9244C36.668 23.9244 18.8021 23.9244 17.9903 23.9244C17.1242 23.9244 16.4215 24.6285 16.4215 25.4932V37.4826L14.6806 40.9039C14.3508 41.5528 13.801 42.0368 13.1487 42.2843C13.1487 40.8544 12.0274 39.8623 10.7738 39.8623H7.19921C5.96633 39.8623 4.82334 40.8188 4.82334 42.3324H2.52535C1.1329 42.3324 0 43.4653 0 44.8587V45.981C0 46.4924 0.413841 46.9072 0.926697 46.9072C1.43811 46.9072 1.85339 46.4924 1.85339 45.981V44.8587C1.85339 44.4871 2.15476 44.1858 2.52535 44.1858H4.82334V57.0139H2.52535C2.15476 57.0139 1.85339 56.7125 1.85339 56.3419V49.6873C1.85339 49.1745 1.43811 48.7606 0.926697 48.7606C0.413841 48.7606 0 49.1745 0 49.6873V56.3419C0 57.7344 1.1329 58.8673 2.52535 58.8673H4.82334C4.82334 60.3818 5.96826 61.3383 7.19921 61.3383H10.7738C11.8625 61.3383 12.7815 60.602 13.0608 59.6012C14.2004 59.906 11.0612 59.7853 52.5396 59.7853C53.4946 59.7853 54.2719 59.0081 54.2719 58.0531V28.8602C65.7965 24.1435 65.97 7.72928 54.4252 2.84009ZM11.2953 50.5462C11.2953 51.5321 11.2953 51.8536 11.2953 51.8454V58.9625C11.2953 59.2456 11.0569 59.4854 10.7738 59.4854H7.19921C6.91658 59.4854 6.67674 59.2456 6.67674 58.9625C6.67674 58.1727 6.67674 43.0173 6.67674 42.2387C6.67674 41.9541 6.91658 41.7157 7.19921 41.7157H10.7738C11.0569 41.7157 11.2953 41.9541 11.2953 42.2387V50.5462ZM28.2287 25.7773H35.2952V33.0486L32.5483 30.8996C32.0854 30.5377 31.4346 30.5396 30.9751 30.8996L28.2287 33.0486V25.7773ZM28.0158 57.9271C13.303 57.9324 14.0192 58.0247 13.1487 57.6825V44.2151C14.5171 43.9132 15.651 43.0784 16.4215 41.5686C16.6262 41.1663 18.1533 38.1656 18.5243 37.4369C18.8315 36.8231 20.5666 38.3747 19.7485 39.981L18.8541 41.7393C18.2513 42.9245 19.1107 44.3266 20.4407 44.3266L32.0494 44.3228C32.6238 44.3228 33.1145 44.7938 33.1083 45.3422C33.102 45.8863 32.6531 46.3309 32.1071 46.3338H24.8632C24.3513 46.3338 23.9365 46.7486 23.9365 47.2605C23.9365 47.7724 24.3513 48.1872 24.8632 48.1872C24.868 48.1872 35.6774 48.1862 35.6798 48.1862C36.1465 48.1862 36.6334 48.615 36.7088 49.0312C36.8434 49.7032 36.4493 50.1954 35.7552 50.1954C35.7523 50.1954 34.3181 50.1963 24.7853 50.1963C24.2734 50.1963 23.8586 50.6111 23.8586 51.123C23.8586 51.6344 24.2734 52.0492 24.7853 52.0492C24.7906 52.0492 34.072 52.0492 34.0773 52.0497C34.967 52.0824 35.3601 53.1576 34.7483 53.7656C34.5589 53.956 34.307 54.0598 34.0388 54.0598C26.9353 54.0641 28.9059 54.0637 23.8951 54.0637C23.3832 54.0637 22.9684 54.4785 22.9684 54.9904C22.9684 55.5022 23.3832 55.917 23.8951 55.917C28.308 55.917 28.3325 55.8185 28.7271 56.2107C29.3549 56.8404 28.9088 57.9271 28.0158 57.9271ZM52.4185 57.9319H47.1034V40.1156C47.1034 39.6042 46.6881 39.1889 46.1767 39.1889C45.6639 39.1889 45.25 39.6042 45.25 40.1156V57.9319H30.6858C30.9425 57.2585 30.9386 56.5505 30.6978 55.9156L34.0388 55.9132C36.0965 55.9132 37.4779 53.8017 36.6593 51.9151C38.7189 51.2778 39.2198 48.7087 37.7317 47.2148C36.7309 46.2141 35.7326 46.3328 34.7776 46.3328C35.4937 44.4463 34.0484 42.4694 32.0494 42.4694L20.5604 42.4732L21.4005 40.8227C22.8098 38.0512 20.3748 34.9952 18.2749 35.4946V25.7773H26.3753V34.232C26.3753 34.9361 26.9487 35.509 27.6534 35.509C28.2244 35.509 28.1085 35.4951 31.762 32.6376C35.3654 35.4567 35.2866 35.509 35.8701 35.509C36.5752 35.509 37.1486 34.9361 37.1486 34.232V25.7773H38.9746C40.7429 27.5456 42.8987 28.7862 45.25 29.4173V36.4093C45.25 36.9207 45.6639 37.336 46.1767 37.336C46.6881 37.336 47.1034 36.9207 47.1034 36.4093V29.7854C48.8669 30.0138 50.6848 29.9099 52.4185 29.4706V57.9319Z" fill="#9D604D"/>
<path id="Vector_2" d="M42.8156 15.6487C42.4763 15.2651 41.8903 15.23 41.5077 15.5694C41.1242 15.9087 41.0891 16.4941 41.4284 16.8772L45.1607 21.0911C45.8798 21.9024 47.1453 21.901 47.8634 21.0949L56.4344 11.4756C56.7752 11.094 56.7411 10.5081 56.3589 10.1678C55.9768 9.82749 55.3914 9.86066 55.0506 10.2428L46.5137 19.8231L42.8156 15.6487Z" fill="#9D604D"/>
</g>
<defs>
<clipPath id="clip0_402_17707">
<rect width="63" height="63" fill="white"/>
</clipPath>
</defs>
</svg>
