<svg width="51" height="52" viewBox="0 0 51 52" fill="none" xmlns="http://www.w3.org/2000/svg">
<g id="tools 1" clip-path="url(#clip0_402_17712)">
<path id="Vector" d="M34.666 15.7573C34.1151 15.7573 33.668 16.2112 33.668 16.7726C33.668 17.3335 34.1151 17.7882 34.666 17.7882C35.2181 17.7882 35.6641 17.3335 35.6641 16.7726C35.6641 16.2112 35.2181 15.7573 34.666 15.7573Z" fill="#9D604D"/>
<path id="Vector_2" d="M16.5332 34.2102C15.9812 34.2102 15.5352 34.6653 15.5352 35.2258C15.5352 35.7876 15.9812 36.2415 16.5332 36.2415C17.0841 36.2415 17.5312 35.7876 17.5312 35.2258C17.5312 34.6653 17.0841 34.2102 16.5332 34.2102Z" fill="#9D604D"/>
<path id="Vector_3" d="M49.9089 6.24818C49.572 6.16844 49.218 6.27198 48.9748 6.52192L44.8372 10.7657H42.8536L40.67 8.46351V6.41679L44.7483 2.20472C44.9896 1.95557 45.0879 1.59733 45.0079 1.25654C44.9284 0.916143 44.682 0.641607 44.3561 0.529729C43.3315 0.178228 42.2594 9.63541e-05 41.169 9.63541e-05C37.9183 9.63541e-05 34.9651 1.54258 33.0665 4.232C31.2895 6.74964 30.7418 9.835 31.5266 12.7879L24.175 20.269L11.9271 7.77677V5.32499C11.9271 4.96833 11.7431 4.63746 11.4425 4.45417L4.38564 0.144902C3.99266 -0.0951186 3.49013 -0.0320387 3.16655 0.297643L0.343956 3.16956C0.0203721 3.49924 -0.0416157 4.01063 0.19386 4.41053L4.42775 11.5917C4.60786 11.8976 4.93262 12.0845 5.2831 12.0849L7.69166 12.0856L19.9407 24.5778L12.6172 32.0304C9.71542 31.2322 6.68192 31.7904 4.2067 33.5998C1.56539 35.5307 0.0507812 38.5352 0.0507812 41.8431C0.0507812 42.9523 0.225829 44.0437 0.571245 45.0859C0.681576 45.4196 0.954088 45.6715 1.29093 45.7509C1.62816 45.8306 1.98176 45.7271 2.22542 45.4771L6.36262 41.2337H8.35715L10.6296 43.5462V45.5759L6.4597 49.786C6.21409 50.0339 6.11233 50.3938 6.1907 50.7369C6.26867 51.0797 6.51623 51.357 6.8441 51.4693C7.86827 51.8208 8.94077 51.9989 10.0308 51.9989C13.2815 51.9989 16.2335 50.4572 18.1313 47.7694C19.9095 45.2506 20.458 42.164 19.6736 39.2112L25.5555 33.2257L26.9028 34.7151L26.2845 35.3439C25.8946 35.7406 25.8946 36.3837 26.2845 36.7804C26.6744 37.1768 27.3059 37.1768 27.6962 36.7804L28.256 36.2107L40.8976 50.1843C40.907 50.1946 40.9167 50.2045 40.9265 50.2145C43.2657 52.5948 47.0555 52.5956 49.3958 50.2141C51.7295 47.838 51.7295 43.9719 49.3958 41.5959C49.3857 41.5856 49.3752 41.5757 49.3646 41.5658L35.6115 28.726L36.1651 28.1627C36.555 27.7663 36.555 27.1233 36.1651 26.7265C35.7753 26.3298 35.1437 26.3298 34.7534 26.7265L34.1394 27.3518L32.6731 25.9823L38.5834 19.9679C39.4236 20.1964 40.2906 20.3122 41.169 20.3122C46.6723 20.3122 51.149 15.7562 51.149 10.1564C51.149 9.0467 50.974 7.9557 50.6286 6.91309C50.5182 6.57945 50.2457 6.32752 49.9089 6.24818ZM8.81212 10.3527C8.62498 10.1619 8.37119 10.0647 8.10608 10.0647L5.84879 10.0639L2.30651 4.04554L4.02697 2.29478L9.93102 5.90025V8.19731C9.93102 8.46629 10.0359 8.72416 10.2226 8.91459L22.7637 21.7055L21.352 23.1417L8.81212 10.3527ZM34.1987 30.1638L47.9986 43.0468C49.5401 44.6321 49.5354 47.1989 47.9841 48.7783C46.4294 50.3604 43.9124 50.3652 42.3514 48.7922L29.6685 34.773L34.1987 30.1638ZM32.7266 28.7891L28.3153 33.2773L26.9679 31.788L31.2603 27.4196L32.7266 28.7891ZM41.169 18.281C40.2961 18.281 39.4376 18.1385 38.6181 17.8577C38.2591 17.7351 37.8622 17.8295 37.594 18.102C32.5905 23.1937 21.8093 34.1644 17.8393 38.2047C17.5711 38.4776 17.4779 38.8815 17.5992 39.2473C18.4288 41.7542 18.0319 44.4282 16.5099 46.5844C14.9922 48.7343 12.6304 49.9677 10.0308 49.9677C9.73882 49.9677 9.44837 49.9514 9.16065 49.9201L12.3306 46.7193C12.5193 46.5288 12.6257 46.2694 12.6257 45.9984V43.1253C12.6257 42.8559 12.5205 42.5977 12.3333 42.4072L9.47605 39.4996C9.28892 39.3092 9.03512 39.2021 8.7704 39.2021H5.94703C5.68076 39.2021 5.42579 39.3104 5.23827 39.5024L2.09326 42.7282C2.06207 42.4354 2.04648 42.1398 2.04648 41.8427C2.04648 39.1969 3.25816 36.7939 5.37121 35.2494C7.48971 33.7006 10.1178 33.2963 12.5817 34.141C12.9407 34.2644 13.3376 34.1695 13.6058 33.8966C13.6608 33.8411 33.3464 13.8082 33.3605 13.794C33.6287 13.521 33.7215 13.1175 33.6006 12.7518C32.7706 10.2448 33.1667 7.57166 34.6876 5.41703C36.2065 3.26517 38.5686 2.03135 41.1686 2.03135C41.4696 2.03135 41.7686 2.04841 42.0649 2.08173L38.9608 5.2877C38.7768 5.47773 38.6739 5.73362 38.6739 6.00022V8.87333C38.6739 9.13676 38.7741 9.38948 38.9538 9.57872L41.7113 12.4863C41.8992 12.6847 42.1585 12.7966 42.4294 12.7966H45.2528C45.5187 12.7966 45.7736 12.6887 45.9612 12.4963L49.1062 9.27085C49.1373 9.56364 49.1529 9.8592 49.1529 10.1564C49.1529 14.6362 45.5713 18.281 41.169 18.281Z" fill="#9D604D"/>
<path id="Vector_4" d="M31.1368 18.9267L18.6476 31.6359C18.2581 32.0322 18.2581 32.6753 18.6476 33.0721C19.0374 33.4688 19.6694 33.4688 20.0593 33.0721L32.5484 20.3629C32.9383 19.9665 32.9383 19.3234 32.5484 18.9267C32.1586 18.53 31.5266 18.53 31.1368 18.9267Z" fill="#9D604D"/>
<path id="Vector_5" d="M43.7503 45.9063C44.1402 46.3018 44.7722 46.3018 45.162 45.9039C45.5511 45.5068 45.5499 44.8637 45.1597 44.4678L36.1637 35.3426C35.7734 34.9467 35.1411 34.9479 34.7524 35.345C34.3629 35.7425 34.3641 36.3852 34.7543 36.7811L43.7503 45.9063Z" fill="#9D604D"/>
</g>
<defs>
<clipPath id="clip0_402_17712">
<rect width="51" height="52" fill="white"/>
</clipPath>
</defs>
</svg>
