<svg width="57" height="57" viewBox="0 0 57 57" fill="none" xmlns="http://www.w3.org/2000/svg">
<g id="credit-card (1) 1">
<g id="g15">
<g id="g17">
<path id="path19" d="M43.2987 14.4871L19.2227 23.2498" stroke="#9D604D" stroke-width="2.5" stroke-miterlimit="10" stroke-linecap="round" stroke-linejoin="round"/>
</g>
<g id="g21">
<path id="path23" d="M14.1545 25.0956L3.82422 28.8552" stroke="#9D604D" stroke-width="2.5" stroke-miterlimit="10" stroke-linecap="round" stroke-linejoin="round"/>
</g>
<g id="g25">
<g id="Clip path group">
<mask id="mask0_402_17763" style="mask-type:luminance" maskUnits="userSpaceOnUse" x="0" y="0" width="57" height="57">
<g id="clipPath31">
<path id="path29" d="M0 7.62939e-06H57V57H0V7.62939e-06Z" fill="white"/>
</g>
</mask>
<g mask="url(#mask0_402_17763)">
<g id="g27">
<g id="g33">
<path id="path35" d="M41.4624 9.43237L1.98438 23.8013" stroke="#9D604D" stroke-width="2.5" stroke-miterlimit="10" stroke-linecap="round" stroke-linejoin="round"/>
</g>
<g id="g37">
<path id="path39" d="M7.71564 16.7647L1.87091 18.8922C1.05488 19.1895 0.634059 20.0924 0.931305 20.9085L9.5147 44.4946C9.81195 45.3106 10.7148 45.7314 11.532 45.4342L14.1539 44.4801" stroke="#9D604D" stroke-width="2.5" stroke-miterlimit="10" stroke-linecap="round" stroke-linejoin="round"/>
</g>
<g id="g41">
<path id="path43" d="M11.3789 15.4323L38.394 5.59968C39.21 5.30244 40.1129 5.72326 40.4101 6.5404L46.492 23.2498" stroke="#9D604D" stroke-width="2.5" stroke-miterlimit="10" stroke-linecap="round" stroke-linejoin="round"/>
</g>
<g id="g45">
<path id="path47" d="M43.428 51.4956H15.7257C14.8567 51.4956 14.1523 50.7911 14.1523 49.9222V24.8231C14.1523 23.954 14.8567 23.2497 15.7257 23.2497H54.5906C55.4596 23.2497 56.164 23.954 56.164 24.8231V49.9222C56.164 50.7911 55.4596 51.4956 54.5906 51.4956H47.3245" stroke="#9D604D" stroke-width="2.5" stroke-miterlimit="10" stroke-linecap="round" stroke-linejoin="round"/>
</g>
<g id="g49">
<path id="path51" d="M20.7266 29.4792V34.9727C20.7266 35.3387 21.0234 35.6355 21.3894 35.6355H29.2782C29.6443 35.6355 29.9411 35.3387 29.9411 34.9727V29.4792C29.9411 29.113 29.6443 28.8162 29.2782 28.8162H21.3894C21.0234 28.8162 20.7266 29.113 20.7266 29.4792Z" stroke="#9D604D" stroke-width="2.5" stroke-miterlimit="10" stroke-linecap="round" stroke-linejoin="round"/>
</g>
<g id="g53">
<path id="path55" d="M20.7266 45.929H24.9411" stroke="#9D604D" stroke-width="2.5" stroke-miterlimit="10" stroke-linecap="round" stroke-linejoin="round"/>
</g>
<g id="g57">
<path id="path59" d="M45.3789 45.929H49.5935" stroke="#9D604D" stroke-width="2.5" stroke-miterlimit="10" stroke-linecap="round" stroke-linejoin="round"/>
</g>
<g id="g61">
<path id="path63" d="M29.0469 45.929H41.2739" stroke="#9D604D" stroke-width="2.5" stroke-miterlimit="10" stroke-linecap="round" stroke-linejoin="round"/>
</g>
<g id="g65">
<path id="path67" d="M43.8623 32.0009L46.6325 34.7711C46.8498 34.9884 47.2022 34.9884 47.4197 34.7711L50.1898 32.0009C50.4073 31.7835 50.4073 31.431 50.1898 31.2137L47.4197 28.4435C47.2022 28.2261 46.8498 28.2261 46.6325 28.4435L43.8623 31.2137C43.6449 31.431 43.6449 31.7835 43.8623 32.0009Z" stroke="#9D604D" stroke-width="2.5" stroke-miterlimit="10" stroke-linecap="round" stroke-linejoin="round"/>
</g>
</g>
</g>
</g>
</g>
</g>
</g>
</svg>
