<svg width="113" height="27" viewBox="0 0 113 27" fill="none" xmlns="http://www.w3.org/2000/svg">
<path d="M21.7022 16.7847C20.9437 18.5969 19.5953 20.0997 17.8756 21.0495C16.1559 21.9992 14.1659 22.3402 12.2281 22.0171C10.2903 21.694 8.51852 20.7258 7.20003 19.2694C5.88155 17.8131 5.0937 15.954 4.96426 13.9938C4.83482 12.0335 5.37138 10.087 6.48691 8.46996C7.60245 6.85289 9.23155 5.66008 11.11 5.08498C12.9885 4.50988 15.0061 4.58621 16.8358 5.3016C18.6654 6.01699 20.1997 7.32947 21.1899 9.02621L13.6617 13.4195L21.7022 16.7847Z" fill="#FF6C3D"/>
<path d="M15.9705 9.28504C15.9705 9.88958 15.4804 10.3797 14.8759 10.3797C14.2713 10.3797 13.7812 9.88958 13.7812 9.28504C13.7812 8.6805 14.2713 8.19043 14.8759 8.19043C15.4804 8.19043 15.9705 8.6805 15.9705 9.28504Z" fill="white"/>
<path d="M15.9705 9.28504C15.9705 9.88958 15.4804 10.3797 14.8759 10.3797C14.2713 10.3797 13.7812 9.88958 13.7812 9.28504C13.7812 8.6805 14.2713 8.19043 14.8759 8.19043C15.4804 8.19043 15.9705 8.6805 15.9705 9.28504Z" fill="white"/>
<path d="M17.8556 20.1047C19.1308 19.4866 20.131 18.4169 20.6621 17.1031L19.8243 16.7644C19.3772 17.8706 18.9292 19.5843 17.8556 20.1047Z" fill="white"/>
<path d="M17.8556 20.1047C19.1308 19.4866 20.131 18.4169 20.6621 17.1031L19.8243 16.7644C19.3772 17.8706 18.9292 19.5843 17.8556 20.1047Z" fill="white"/>
<path d="M15.2629 14.7938L20.5633 17.0696L20.2434 17.8147L15.2629 14.7938Z" fill="white"/>
<path d="M15.2629 14.7938L20.5633 17.0696L20.2434 17.8147L15.2629 14.7938Z" fill="white"/>
<path d="M25.692 7.70223C24.2538 4.67819 21.7432 2.29654 18.6475 1.0198C15.5519 -0.256944 12.0922 -0.337647 8.94044 0.79336C5.78864 1.92437 3.16965 4.18636 1.59208 7.14005C0.0145067 10.0938 -0.409042 13.5283 0.403684 16.7768C1.21641 20.0253 3.2074 22.8557 5.99001 24.7186C8.77262 26.5814 12.1482 27.3436 15.4613 26.8572C18.7744 26.3708 21.7884 24.6704 23.9181 22.0864C26.0479 19.5023 27.1412 16.0749 26.9859 12.7299H24.2776C23.676 12.7299 17.9192 12.7299 17.9192 12.7299C17.9192 12.7299 23.4386 15.4056 24.024 15.6894C23.655 17.4021 22.9078 19.0495 21.826 20.3621C20.124 22.4272 17.7152 23.7861 15.0675 24.1748C12.4197 24.5635 9.72203 23.9544 7.49824 22.4657C5.27445 20.9769 3.6833 18.7149 3.03378 16.1188C2.38427 13.5227 2.72276 10.7778 3.98352 8.41733C5.24427 6.0568 7.33731 4.24907 9.85615 3.3452C12.375 2.44133 15.1399 2.50582 17.6138 3.52616C20.0878 4.5465 22.1619 6.62393 23.3112 9.04067L25.692 7.70223Z" fill="#FFFEFC"/>
<path d="M45.4812 10.8641C45.3576 10.4763 45.1914 10.129 44.9826 9.82218C44.7781 9.5111 44.533 9.24689 44.2475 9.02956C43.962 8.80797 43.636 8.63965 43.2695 8.52459C42.9073 8.40953 42.5089 8.35201 42.0742 8.35201C41.337 8.35201 40.6722 8.54164 40.0799 8.9209C39.4876 9.30016 39.0188 9.85627 38.6737 10.5892C38.3327 11.3179 38.1623 12.2107 38.1623 13.2675C38.1623 14.3286 38.3349 15.2256 38.68 15.9585C39.0252 16.6915 39.4982 17.2476 40.0991 17.6269C40.6999 18.0061 41.3839 18.1958 42.1509 18.1958C42.8626 18.1958 43.4826 18.0509 44.011 17.7611C44.5437 17.4713 44.9549 17.0622 45.2447 16.5338C45.5387 16.0012 45.6857 15.3747 45.6857 14.6546L46.1971 14.7504H42.4513V13.1205H47.5969V14.6098C47.5969 15.7093 47.3626 16.6638 46.8938 17.4735C46.4293 18.2789 45.7859 18.901 44.9634 19.3399C44.1452 19.7789 43.2077 19.9983 42.1509 19.9983C40.9663 19.9983 39.9265 19.7256 39.0316 19.1801C38.141 18.6347 37.4464 17.8612 36.9478 16.8598C36.4492 15.8541 36.1999 14.661 36.1999 13.2803C36.1999 12.2362 36.3448 11.2987 36.6346 10.4678C36.9244 9.63681 37.3313 8.93155 37.8555 8.35201C38.3839 7.7682 39.0039 7.32289 39.7156 7.01607C40.4315 6.70499 41.2134 6.54945 42.0614 6.54945C42.7688 6.54945 43.4272 6.65385 44.0366 6.86266C44.6502 7.07147 45.1957 7.36763 45.6729 7.75115C46.1545 8.13468 46.5529 8.59064 46.8683 9.11905C47.1836 9.6432 47.3967 10.2249 47.5075 10.8641H45.4812ZM52.8081 20.0367C52.1859 20.0367 51.6234 19.9216 51.1206 19.6915C50.6177 19.4571 50.2193 19.1183 49.9252 18.6752C49.6355 18.232 49.4906 17.6887 49.4906 17.0452C49.4906 16.4912 49.5971 16.0352 49.8102 15.6773C50.0233 15.3193 50.3109 15.036 50.6731 14.8271C51.0353 14.6183 51.4402 14.4607 51.8876 14.3541C52.335 14.2476 52.791 14.1666 53.2555 14.1112C53.8436 14.0431 54.3208 13.9877 54.6873 13.945C55.0538 13.8982 55.3201 13.8236 55.4863 13.7213C55.6525 13.6191 55.7356 13.4529 55.7356 13.2227V13.178C55.7356 12.6198 55.5779 12.1872 55.2626 11.8804C54.9515 11.5736 54.487 11.4202 53.8691 11.4202C53.2257 11.4202 52.7186 11.5629 52.3478 11.8485C51.9814 12.1297 51.7278 12.4429 51.5872 12.7881L49.791 12.379C50.0041 11.7824 50.3152 11.3009 50.7243 10.9344C51.1376 10.5637 51.6127 10.2952 52.1497 10.129C52.6866 9.95854 53.2512 9.87331 53.8436 9.87331C54.2356 9.87331 54.6511 9.92019 55.09 10.0139C55.5332 10.1034 55.9466 10.2696 56.3301 10.5125C56.7179 10.7554 57.0353 11.1027 57.2825 11.5544C57.5297 12.0019 57.6532 12.5835 57.6532 13.2994V19.8193H55.7868V18.477H55.7101C55.5865 18.7242 55.4011 18.9671 55.1539 19.2057C54.9068 19.4443 54.5893 19.6425 54.2015 19.8002C53.8137 19.9578 53.3493 20.0367 52.8081 20.0367ZM53.2235 18.5026C53.752 18.5026 54.2037 18.3982 54.5787 18.1894C54.9579 17.9806 55.2456 17.7078 55.4416 17.3712C55.6419 17.0303 55.742 16.6659 55.742 16.2781V15.0125C55.6738 15.0807 55.5417 15.1446 55.3457 15.2043C55.1539 15.2597 54.9345 15.3087 54.6873 15.3513C54.4402 15.3896 54.1994 15.4259 53.965 15.46C53.7306 15.4898 53.5346 15.5154 53.377 15.5367C53.0062 15.5835 52.6674 15.6624 52.3606 15.7732C52.0581 15.884 51.8152 16.0438 51.6319 16.2526C51.4529 16.4571 51.3635 16.7298 51.3635 17.0708C51.3635 17.5438 51.5382 17.9017 51.8876 18.1446C52.237 18.3833 52.6824 18.5026 53.2235 18.5026ZM60.1989 19.8193V10.0012H62.0334V11.5992H62.1548C62.3594 11.058 62.6939 10.6361 63.1584 10.3335C63.6229 10.0267 64.179 9.87331 64.8267 9.87331C65.483 9.87331 66.0327 10.0267 66.4759 10.3335C66.9233 10.6404 67.2536 11.0622 67.4666 11.5992H67.5689C67.8033 11.075 68.1761 10.6574 68.6875 10.3463C69.1989 10.031 69.8082 9.87331 70.5156 9.87331C71.4062 9.87331 72.1328 10.1524 72.6953 10.7107C73.2621 11.2689 73.5455 12.1105 73.5455 13.2355V19.8193H71.6342V13.4145C71.6342 12.7497 71.4531 12.2682 71.0909 11.9699C70.7287 11.6716 70.2962 11.5225 69.7933 11.5225C69.1712 11.5225 68.6875 11.7142 68.3423 12.0977C67.9972 12.477 67.8246 12.9649 67.8246 13.5615V19.8193H65.9197V13.2931C65.9197 12.7604 65.7536 12.3321 65.4212 12.0083C65.0888 11.6844 64.6563 11.5225 64.1236 11.5225C63.7614 11.5225 63.4268 11.6183 63.12 11.8101C62.8175 11.9976 62.5724 12.2597 62.3849 12.5963C62.2017 12.933 62.1101 13.3229 62.1101 13.7661V19.8193H60.1989ZM80.3386 20.0175C79.3713 20.0175 78.5382 19.8108 77.8393 19.3975C77.1447 18.9798 76.6078 18.3939 76.2285 17.6396C75.8535 16.8811 75.666 15.9926 75.666 14.9742C75.666 13.9685 75.8535 13.0821 76.2285 12.3151C76.6078 11.548 77.1362 10.9493 77.8137 10.5189C78.4956 10.0885 79.2924 9.87331 80.2044 9.87331C80.7583 9.87331 81.2953 9.96493 81.8152 10.1482C82.335 10.3314 82.8017 10.6191 83.215 11.0111C83.6284 11.4031 83.9544 11.9124 84.193 12.5388C84.4316 13.161 84.551 13.9173 84.551 14.808V15.4855H76.7463V14.0537H82.6781C82.6781 13.5509 82.5758 13.1056 82.3713 12.7178C82.1667 12.3257 81.8791 12.0168 81.5083 11.7909C81.1419 11.5651 80.7115 11.4521 80.2172 11.4521C79.6802 11.4521 79.2115 11.5843 78.8109 11.8485C78.4146 12.1084 78.1078 12.4493 77.8904 12.8712C77.6774 13.2888 77.5708 13.7426 77.5708 14.2327V15.3513C77.5708 16.0075 77.6859 16.5658 77.916 17.026C78.1504 17.4862 78.4764 17.8378 78.894 18.0807C79.3116 18.3193 79.7995 18.4387 80.3578 18.4387C80.72 18.4387 81.0502 18.3875 81.3485 18.2852C81.6468 18.1787 81.9047 18.021 82.122 17.8122C82.3393 17.6034 82.5055 17.3456 82.6206 17.0388L84.4295 17.3648C84.2846 17.8975 84.0247 18.3641 83.6497 18.7646C83.2789 19.161 82.8123 19.4699 82.2498 19.6915C81.6916 19.9088 81.0545 20.0175 80.3386 20.0175Z" fill="#FFFEFC"/>
<path d="M86.8249 19.8193V6.72843H91.619C92.5479 6.72843 93.3171 6.88184 93.9265 7.18865C94.5359 7.49121 94.9918 7.90243 95.2944 8.42232C95.5969 8.93794 95.7482 9.51962 95.7482 10.1673C95.7482 10.7128 95.6481 11.173 95.4478 11.548C95.2475 11.9188 94.979 12.2171 94.6424 12.4429C94.31 12.6645 93.9435 12.8264 93.543 12.9287V13.0566C93.9776 13.0779 94.4016 13.2185 94.815 13.4784C95.2326 13.7341 95.5778 14.0985 95.8505 14.5715C96.1232 15.0445 96.2596 15.6198 96.2596 16.2973C96.2596 16.9664 96.1019 17.5672 95.7866 18.0999C95.4755 18.6283 94.994 19.048 94.342 19.3591C93.69 19.6659 92.8569 19.8193 91.8427 19.8193H86.8249ZM88.8001 18.1254H91.6509C92.5969 18.1254 93.2745 17.9422 93.6836 17.5757C94.0927 17.2093 94.2972 16.7512 94.2972 16.2014C94.2972 15.7881 94.1928 15.4088 93.984 15.0637C93.7752 14.7185 93.4769 14.4436 93.0891 14.2391C92.7056 14.0345 92.2496 13.9323 91.7212 13.9323H88.8001V18.1254ZM88.8001 12.3918H91.4464C91.8896 12.3918 92.288 12.3066 92.6417 12.1361C92.9996 11.9656 93.283 11.727 93.4918 11.4202C93.7049 11.1091 93.8114 10.7426 93.8114 10.3208C93.8114 9.77956 93.6218 9.32573 93.2425 8.95925C92.8633 8.59277 92.2816 8.40953 91.4975 8.40953H88.8001V12.3918ZM98.4489 19.8193V10.0012H100.36V19.8193H98.4489ZM99.4141 8.48624C99.0817 8.48624 98.7962 8.37544 98.5575 8.15385C98.3232 7.928 98.206 7.65953 98.206 7.34845C98.206 7.03311 98.3232 6.76465 98.5575 6.54306C98.7962 6.3172 99.0817 6.20428 99.4141 6.20428C99.7464 6.20428 100.03 6.3172 100.264 6.54306C100.503 6.76465 100.622 7.03311 100.622 7.34845C100.622 7.65953 100.503 7.928 100.264 8.15385C100.03 8.37544 99.7464 8.48624 99.4141 8.48624ZM110.289 12.3982L108.556 12.705C108.484 12.4834 108.369 12.2725 108.211 12.0722C108.058 11.8719 107.849 11.7078 107.585 11.58C107.32 11.4521 106.99 11.3882 106.594 11.3882C106.053 11.3882 105.601 11.5097 105.239 11.7526C104.877 11.9912 104.695 12.3002 104.695 12.6794C104.695 13.0075 104.817 13.2718 105.06 13.472C105.303 13.6723 105.695 13.8364 106.236 13.9642L107.796 14.3222C108.699 14.531 109.372 14.8527 109.816 15.2874C110.259 15.722 110.48 16.2867 110.48 16.9813C110.48 17.5693 110.31 18.0935 109.969 18.5537C109.632 19.0097 109.161 19.3676 108.556 19.6276C107.955 19.8875 107.259 20.0175 106.466 20.0175C105.367 20.0175 104.47 19.7831 103.775 19.3144C103.08 18.8414 102.654 18.1702 102.497 17.3009L104.344 17.0196C104.459 17.5012 104.695 17.8655 105.053 18.1127C105.411 18.3556 105.878 18.477 106.453 18.477C107.08 18.477 107.58 18.347 107.955 18.0871C108.33 17.8229 108.518 17.5012 108.518 17.1219C108.518 16.8151 108.403 16.5573 108.173 16.3485C107.947 16.1396 107.6 15.982 107.131 15.8754L105.469 15.5111C104.553 15.3023 103.875 14.9699 103.436 14.5139C103.002 14.058 102.784 13.4806 102.784 12.7817C102.784 12.2021 102.946 11.695 103.27 11.2604C103.594 10.8257 104.041 10.4869 104.612 10.2441C105.183 9.99689 105.838 9.87331 106.575 9.87331C107.636 9.87331 108.471 10.1034 109.08 10.5637C109.69 11.0196 110.093 11.6311 110.289 12.3982Z" fill="#FF6C3D"/>
</svg>
