<svg width="15" height="15" viewBox="0 0 15 15" fill="none" xmlns="http://www.w3.org/2000/svg">
<path d="M13.815 12.6396L11.1124 9.93698C11.9315 8.86475 12.3807 7.56419 12.3809 6.19181C12.3809 4.53796 11.7368 2.98299 10.5671 1.81356C9.39768 0.644124 7.84292 0 6.18886 0C4.53501 0 2.98004 0.644124 1.81061 1.81356C-0.603536 4.22791 -0.603536 8.15613 1.81061 10.5701C2.98004 11.7397 4.53501 12.3838 6.18886 12.3838C7.56124 12.3837 8.8618 11.9344 9.93403 11.1154L12.6366 13.818C12.7992 13.9807 13.0126 14.0621 13.2258 14.0621C13.439 14.0621 13.6524 13.9807 13.815 13.818C14.1405 13.4926 14.1405 12.9649 13.815 12.6396ZM2.98899 9.39168C1.22467 7.62736 1.22487 4.75647 2.98899 2.99194C3.84369 2.13745 4.98016 1.66667 6.18886 1.66667C7.39777 1.66667 8.53404 2.13745 9.38873 2.99194C10.2434 3.84664 10.7142 4.98311 10.7142 6.19181C10.7142 7.40072 10.2434 8.53699 9.38873 9.39168C8.53404 10.2464 7.39777 10.7172 6.18886 10.7172C4.98016 10.7172 3.84369 10.2464 2.98899 9.39168Z" fill="#847F7D"/>
</svg>
