<svg width="42" height="6" viewBox="0 0 42 6" fill="none" xmlns="http://www.w3.org/2000/svg">
<path id="Line 1" d="M0.333333 3C0.333333 4.47276 1.52724 5.66667 3 5.66667C4.47276 5.66667 5.66667 4.47276 5.66667 3C5.66667 1.52724 4.47276 0.333333 3 0.333333C1.52724 0.333333 0.333333 1.52724 0.333333 3ZM36.3333 3C36.3333 4.47276 37.5272 5.66666 39 5.66666C40.4728 5.66666 41.6667 4.47276 41.6667 3C41.6667 1.52724 40.4728 0.33333 39 0.33333C37.5272 0.33333 36.3333 1.52724 36.3333 3ZM3 3.5L39 3.5L39 2.5L3 2.5L3 3.5Z" fill="#847F7D"/>
</svg>
