<svg width="32" height="32" viewBox="0 0 32 32" fill="none" xmlns="http://www.w3.org/2000/svg">
<g clip-path="url(#clip0_402_18305)">
<path d="M16.004 0H15.996C7.174 0 0 7.176 0 16C0 19.5 1.128 22.744 3.046 25.378L1.052 31.322L7.202 29.356C9.732 31.032 12.75 32 16.004 32C24.826 32 32 24.822 32 16C32 7.178 24.826 0 16.004 0Z" fill="#4CAF50"/>
<path d="M25.3131 22.594C24.9271 23.684 23.3951 24.588 22.1731 24.852C21.3371 25.03 20.2451 25.172 16.5691 23.648C11.8671 21.7 8.83913 16.922 8.60313 16.612C8.37713 16.302 6.70312 14.082 6.70312 11.786C6.70312 9.48999 7.86913 8.37199 8.33913 7.89199C8.72513 7.49799 9.36312 7.31799 9.97512 7.31799C10.1731 7.31799 10.3511 7.32799 10.5111 7.33599C10.9811 7.35599 11.2171 7.38399 11.5271 8.12599C11.9131 9.05599 12.8531 11.352 12.9651 11.588C13.0791 11.824 13.1931 12.144 13.0331 12.454C12.8831 12.774 12.7511 12.916 12.5151 13.188C12.2791 13.46 12.0551 13.668 11.8191 13.96C11.6031 14.214 11.3591 14.486 11.6311 14.956C11.9031 15.416 12.8431 16.95 14.2271 18.182C16.0131 19.772 17.4611 20.28 17.9791 20.496C18.3651 20.656 18.8251 20.618 19.1071 20.318C19.4651 19.932 19.9071 19.292 20.3571 18.662C20.6771 18.21 21.0811 18.154 21.5051 18.314C21.9371 18.464 24.2231 19.594 24.6931 19.828C25.1631 20.064 25.4731 20.176 25.5871 20.374C25.6991 20.572 25.6991 21.502 25.3131 22.594Z" fill="#FAFAFA"/>
</g>
<defs>
<clipPath id="clip0_402_18305">
<rect width="32" height="32" fill="white"/>
</clipPath>
</defs>
</svg>
