<svg width="32" height="32" viewBox="0 0 32 32" fill="none" xmlns="http://www.w3.org/2000/svg">
<g id="write 1" clip-path="url(#clip0_402_18090)">
<g id="Group">
<path id="Vector" d="M31.0625 11.8717H29.0625C28.5447 11.8717 28.125 12.2915 28.125 12.8092V26.5592C28.125 27.077 28.5447 27.4967 29.0625 27.4967H31.0625C31.5803 27.4967 32 27.077 32 26.5592V12.8092C32 12.2915 31.5803 11.8717 31.0625 11.8717Z" fill="#FFFEFC"/>
<path id="Vector_2" d="M18.1265 5.95505L19.689 3.24874C20.0342 2.65087 19.8293 1.88637 19.2314 1.54118L18.1489 0.91618C17.551 0.570993 16.7865 0.775868 16.4414 1.37374L14.8789 4.08005L18.1265 5.95505Z" fill="#FFFEFC"/>
<path id="Vector_3" d="M1.11358 21.9563C1.64927 22.2617 2.33283 22.0622 2.64114 21.5282L10.3025 8.25848C9.58777 8.08867 8.82502 8.23973 8.22483 8.68986L5.57064 10.6805C4.79826 11.2598 4.15652 11.9953 3.68727 12.839L0.278328 18.9688C-0.30686 20.021 0.0602026 21.3482 1.10289 21.9502C1.10645 21.9522 1.11002 21.9542 1.11358 21.9563Z" fill="#FFFEFC"/>
<path id="Vector_4" d="M6.67378 18.7557H10.7383L17.1913 7.5788L13.9437 5.7038L6.40234 18.7659C6.49216 18.7599 6.58247 18.7557 6.67378 18.7557Z" fill="#FFFEFC"/>
<path id="Vector_5" d="M3.02573 24.6094L2.05579 26.2894C2.01017 26.3684 1.97636 26.4536 1.95536 26.5424L1.06092 30.3257C0.88973 31.0497 1.76367 31.5543 2.30517 31.0441L5.13442 28.3779C5.20079 28.3153 5.25773 28.2434 5.30336 28.1643L6.07023 26.8361C4.73142 26.6368 3.60417 25.7819 3.02573 24.6094Z" fill="#FFFEFC"/>
<path id="Vector_6" d="M14.1321 26.8807H8.21003L6.97266 29.0239C7.37053 29.4362 7.92847 29.6932 8.54672 29.6932C9.75484 29.6932 10.7342 28.7138 10.7342 27.5057C10.7342 28.7138 11.7136 29.6932 12.9217 29.6932C14.1298 29.6932 15.1092 28.7138 15.1092 27.5057V27.3629C14.8823 27.259 14.3626 26.995 14.1321 26.8807Z" fill="#FFFEFC"/>
<path id="Vector_7" d="M17.8628 10.1623L12.9014 18.7557H14.3744C14.8921 18.7557 15.3119 19.1755 15.3119 19.6932C15.3119 20.2109 14.8923 20.6307 14.3745 20.6307H6.67188C5.46375 20.6307 4.48438 21.6101 4.48438 22.8182C4.48438 24.0264 5.46375 25.0057 6.67188 25.0057H14.5749L15.6117 25.5237C17.3861 26.411 19.3737 26.8807 21.3595 26.8807C23.0047 26.8807 24.7054 26.5574 26.2494 25.9422V13.7555H24.7719L17.8628 10.1623Z" fill="#FFFEFC"/>
</g>
</g>
<defs>
<clipPath id="clip0_402_18090">
<rect width="32" height="32" fill="white"/>
</clipPath>
</defs>
</svg>
