<svg width="81" height="45" viewBox="0 0 81 45" fill="none" xmlns="http://www.w3.org/2000/svg">
<g id="Group 1998">
<g id="Vector">
<path d="M37.1267 25.6454C36.4759 21.271 37.1769 16.8019 39.1356 12.838C41.0943 8.87418 44.2169 5.60532 48.0842 3.47029C51.9516 1.33527 56.3786 0.436279 60.7708 0.894009C65.1631 1.35173 69.3104 3.14427 72.6561 6.03098C76.0017 8.91768 78.3854 12.7604 79.4873 17.0432C80.5892 21.326 80.3565 25.8439 78.8204 29.9904C77.2844 34.1369 74.5184 37.7136 70.894 40.2402C67.2695 42.7667 62.96 44.1224 58.5441 44.125L58.5379 33.7681C60.8437 33.7668 63.0938 33.0589 64.9863 31.7397C66.8788 30.4204 68.323 28.5529 69.1251 26.3878C69.9272 24.2227 70.0487 21.8637 69.4733 19.6275C68.898 17.3912 67.6533 15.3848 65.9064 13.8775C64.1595 12.3702 61.994 11.4343 59.7006 11.1953C57.4072 10.9563 55.0957 11.4257 53.0763 12.5405C51.057 13.6552 49.4265 15.3621 48.4038 17.4318C47.3811 19.5015 47.0151 21.835 47.3549 24.1191L37.1267 25.6454Z" fill="#EBE2D0"/>
<path d="M58.8 44.125H36.8904V43.1827C36.8904 37.9783 41.1029 33.7593 46.2994 33.7593H58.8V44.125Z" fill="#EBE2D0"/>
<path d="M37.8313 17.2012H60.0769V18.1435C60.0769 23.3479 55.8643 27.5668 50.6679 27.5668H39.6901C38.0887 27.5668 36.8424 26.1733 37.0181 24.579L37.8313 17.2012Z" fill="#EBE2D0"/>
</g>
<g id="Vector_2">
<path d="M43.0452 19.2569C43.696 23.6313 42.995 28.1004 41.0363 32.0643C39.0776 36.0282 35.955 39.297 32.0876 41.432C28.2203 43.5671 23.7933 44.4661 19.401 44.0083C15.0088 43.5506 10.8614 41.7581 7.51582 38.8714C4.1702 35.9847 1.78644 32.142 0.684536 27.8592C-0.417363 23.5764 -0.184649 19.0584 1.35144 14.9119C2.88752 10.7654 5.65345 7.18877 9.2779 4.66219C12.9024 2.1356 17.2118 0.779989 21.6278 0.777348L21.634 11.1342C19.3282 11.1356 17.078 11.8434 15.1855 13.1627C13.293 14.4819 11.8488 16.3494 11.0468 18.5145C10.2447 20.6796 10.1232 23.0386 10.6986 25.2749C11.2739 27.5111 12.5186 29.5176 14.2655 31.0248C16.0124 32.5321 18.1779 33.4681 20.4713 33.7071C22.7647 33.9461 25.0762 33.4767 27.0955 32.3619C29.1149 31.2471 30.7453 29.5403 31.7681 27.4706C32.7908 25.4009 33.1568 23.0673 32.817 20.7832L43.0452 19.2569Z" fill="#FF6C3D"/>
<path d="M21.3719 0.777344H43.2815V1.71968C43.2815 6.92405 39.0689 11.143 33.8725 11.143H21.3719V0.777344Z" fill="#FF6C3D"/>
<path d="M42.3406 27.7012H20.095V26.7588C20.095 21.5545 24.3075 17.3355 29.504 17.3355H40.4817C42.0832 17.3355 43.3295 18.7291 43.1538 20.3233L42.3406 27.7012Z" fill="#FF6C3D"/>
</g>
</g>
</svg>
