<svg width="80" height="37" viewBox="0 0 80 37" fill="none" xmlns="http://www.w3.org/2000/svg">
<path fill-rule="evenodd" clip-rule="evenodd" d="M20.7905 30.5286C20.7905 30.5286 20.9582 31.2687 21.3714 30.9898C21.7851 30.7114 21.9526 30.2934 22.3661 30.2934C22.7795 30.2934 24.5032 29.9683 24.9166 30.2934C25.33 30.6185 25.3715 30.3396 25.5781 30.3396C25.7849 30.3396 26.3922 30.4478 26.3922 30.4478C26.9209 30.3925 26.8131 29.5494 26.4311 29.3027C25.8798 28.8694 25.1373 28.5909 24.5859 28.1571L24.4205 26.9034L24.8754 26.2531V24.1635L24.6273 23.6064L24.5444 22.0275L24.3378 21.7488V21.1452C24.4756 20.9439 24.7548 20.7429 24.8929 20.5416C24.9341 20.1545 24.7491 19.8813 24.7905 19.4944C24.6942 18.9991 24.6824 18.39 24.5859 17.8946V16.0837C24.9861 15.9639 25.0827 15.7862 25.1115 15.6061C25.1481 15.3746 25.035 15.1019 24.9166 14.5512C24.8615 11.6567 24.8346 8.6483 24.7795 5.75359C24.9995 5.40756 25.2632 5.22866 25.2689 4.97232C25.2732 4.77274 25.0597 4.60658 24.7927 4.3815V3.77794C24.7927 3.77794 25.2476 2.84903 25.6195 2.84903C25.9918 2.84903 26.2398 2.57057 26.2398 2.29187C26.5794 1.61497 25.8678 1.54884 25.8678 1.54884C25.0801 1.53249 24.1878 1.57288 23.4196 1.55653C22.7418 1.54211 22.1853 1.47045 21.5263 1.45602L20.6577 1.50243C19.9461 1.71909 20.0957 2.10671 20.3682 2.32313C20.6989 2.53234 20.9812 2.77136 21.3604 2.77953C21.8234 2.78915 22.1921 2.94137 22.3529 3.40618L22.477 8.9787C22.4909 10.3486 22.5329 11.7188 22.5465 13.0882C22.5604 14.4581 22.546 15.8281 22.5597 17.198L22.6424 22.0275C22.6424 22.0275 22.5597 22.631 22.4356 22.7705C22.3116 22.91 22.3529 24.1171 22.3529 24.1171C22.8109 24.5175 22.7136 24.4614 22.3943 24.9996L22.3116 28.5751L21.9809 29.2253C21.9809 29.2253 20.7905 29.925 20.7905 30.5286ZM0.765239 36.3012C0.152168 36.1747 0.0371275 35.877 0.254746 35.7015C0.385605 35.5961 0.735041 35.6 0.892024 35.5264C1.12211 35.4177 1.35674 35.2754 1.49503 35.1037C1.73158 34.8098 1.58802 34.1298 1.87035 33.5758C2.14141 31.2384 2.22266 28.1418 1.95184 27.1001C1.78886 25.4945 1.95591 20.1617 1.95591 19.4858C2.13614 19.1611 2.20373 19.1347 2.20517 18.5658C2.20565 18.3433 2.35472 17.9973 2.19582 17.7222C1.9655 17.4582 2.03524 16.4261 2.01703 15.8447C1.99042 14.9788 2.0537 14.986 2.29384 14.2013C2.3842 13.9063 2.41488 13.5552 2.29384 13.2722C2.09827 12.8148 1.81523 13.3431 1.83416 12.4248C1.88018 10.1957 1.9631 7.9536 1.90462 5.72546C1.91732 5.52707 2.24687 5.49076 2.31134 5.3032C2.39331 5.06442 2.42063 4.76937 2.31134 4.54286C2.2495 4.41445 1.90342 4.58133 1.80204 4.48418C1.1813 3.88927 0.401902 3.51559 0.0424002 2.72206C-0.0970867 2.41427 0.127722 1.73303 0.423233 1.58587C0.912635 1.3418 1.82289 1.59405 2.35855 1.50147C2.64639 1.45169 2.82878 1.27976 3.12046 1.26677C5.39587 1.16626 7.73719 0.93806 10.0044 1.16337C10.3673 1.19944 10.4869 1.84196 10.8176 2.00139C11.2711 2.21997 11.9345 2.17308 12.282 2.54628C12.839 3.14408 13.2388 3.63655 13.3095 4.46519C13.3962 5.48235 13.5702 6.63417 13.5618 7.4152C13.5547 8.06926 13.3586 8.65984 13.0681 9.22253C12.6698 9.99345 12.1957 10.7132 11.6828 11.475C11.3869 11.9138 10.8603 12.3214 10.7364 12.822C10.6084 13.3398 11.941 12.9598 12.2137 13.4129C12.4757 13.8486 11.9901 14.3588 12.1365 14.8499C12.2674 15.2875 13.0231 15.3303 13.1127 15.779C13.344 16.9373 12.8335 18.1623 13.0312 19.3273C13.0947 19.7003 13.6846 19.7135 13.7418 20.0877C13.8113 20.8961 13.7866 21.7517 13.7929 22.6104C13.7994 23.5246 13.8348 24.4427 13.8231 25.3117C13.8008 25.6392 13.3732 25.8309 13.3351 26.1565C13.2333 27.0236 13.5302 28.0028 13.3394 28.853C13.1383 29.7485 12.4208 30.381 12.1411 31.2534C11.8983 32.0089 11.9671 33.1121 11.576 33.5859C10.9288 33.7898 10.1236 34.2467 9.61355 34.6275C8.86866 35.1835 8.39268 35.8207 8.16356 35.8409C7.8726 36.1006 7.25713 35.927 6.89643 36.0622C6.56377 36.1862 6.53237 36.4661 6.1815 36.4204C5.90468 36.3849 5.99096 36.154 5.77478 35.9708C5.6492 35.8635 5.40713 35.8568 5.28682 35.9708C4.55679 36.5604 5.10132 36.406 4.2723 36.3291C3.43011 36.2512 1.79054 36.5118 0.765239 36.3012ZM5.48335 32.9102L6.0528 31.8117L5.88982 28.1793C6.0528 27.9537 6.21553 27.7286 6.37803 27.5031V23.8439C6.37803 23.2894 6.30109 22.7349 6.30109 22.1806C5.72997 21.7069 6.00319 21.7137 6.46359 21.1669C6.46359 20.6321 6.59229 20.2002 6.59229 19.6652L6.42932 18.3135L6.67378 17.6378C6.67378 16.9602 6.75047 16.4117 6.75047 15.734C6.75047 15.0978 6.76893 14.8847 6.88493 14.9246C7.00093 14.9643 7.21447 15.2575 7.60465 15.634L8.4943 16.492C9.04194 17.0201 9.5752 17.0681 9.35327 17.9333C9.14596 18.743 9.74225 18.9673 9.55699 19.771C9.41534 20.3844 9.22912 20.7597 9.27034 21.1402C9.29503 21.3684 9.40168 21.5985 9.6483 21.8832C9.87622 22.146 9.9522 22.1297 9.81607 22.4531C9.60468 22.9547 9.42445 23.2473 9.40336 23.5484C9.37628 23.9353 9.58623 24.1133 9.77053 24.7967C9.92152 25.3557 9.90714 25.7265 9.76766 26.2873L9.27202 28.2827C9.25333 28.7857 9.20755 29.2892 9.17208 29.7928C9.11815 30.5599 9.0163 30.5796 8.48471 31.1278C8.00154 31.6261 7.37984 32.0522 6.91417 32.4975C6.39888 32.6947 5.99815 32.713 5.48335 32.9102ZM6.7277 11.5642C7.14041 11.5762 7.32496 11.6173 7.45294 11.5644C7.58092 11.5115 7.65234 11.3646 7.83881 11.0012C8.08015 10.5316 8.43702 9.94464 8.73325 9.90039C9.23224 9.82609 9.49252 9.75179 9.49252 9.75179C9.49252 9.75179 9.75375 9.70201 9.66412 9.05661C9.57472 8.41096 9.3909 7.79008 9.55291 7.61623C9.71517 7.44261 9.74944 6.94605 9.57688 6.74743C9.40432 6.54881 9.24039 6.35018 9.51888 6.07702C9.79761 5.80409 9.98983 5.34673 9.32379 5.42127C8.65799 5.49581 8.66638 5.20678 8.58945 5.00791C8.51227 4.80929 7.78608 4.85474 7.40644 4.83286C7.02705 4.9074 6.70805 4.88239 6.71908 5.27964C6.7301 5.67688 6.66635 7.5917 6.67162 7.79008C6.67713 7.98895 6.7277 11.5642 6.7277 11.5642ZM27.7888 28.9935C27.7591 29.1623 27.373 29.1632 27.4024 29.3325C27.4441 29.5687 27.4595 29.9375 27.6968 29.9683C28.3846 30.0578 29.3275 29.7832 30.0095 29.9096C30.2787 29.9597 30.2936 30.4204 30.5404 30.5392C30.7434 30.5358 31.0557 30.543 31.3129 30.5392C31.5111 30.4358 31.4576 30.0712 31.6508 29.9582C31.8885 29.8187 32.2131 29.7658 32.4714 29.8611C32.6107 29.9125 32.4208 30.2795 32.568 30.2973C33.7711 30.2516 34.8463 30.3838 35.9847 30.2973C36.2119 30.2598 35.9804 29.9332 36.1666 29.7976C36.3783 29.6432 36.9034 29.9125 36.9391 29.6523C37.1239 28.3072 36.8353 26.8053 36.9611 25.4536C37.0014 25.0208 37.4153 24.7642 37.5078 24.3395C37.5387 24.1981 37.7077 24.1955 37.7211 24.0563C37.7678 23.5713 37.7595 22.9828 37.6372 22.5053C37.4747 22.3384 36.9791 22.2776 36.8164 22.3538C36.633 22.4889 36.7996 22.9696 36.6766 23.1617C36.6158 23.2567 36.3991 23.0663 36.3387 23.1617C36.2795 23.2553 36.3562 23.4089 36.3833 23.5306C36.3996 23.6032 36.3981 23.6648 36.3387 23.6944C36.0223 23.8531 35.556 23.4765 35.2767 23.6944C35.0026 23.9084 35.3103 24.3222 35.0785 24.5817C34.7025 25.002 33.897 25.2482 33.5224 25.67C33.0773 26.1714 33.1168 26.6831 32.6054 27.1159C32.2047 27.4545 31.5243 27.4901 31.0389 27.6878C30.4762 27.9172 30.2075 28.3399 29.6232 28.5049C29.4466 28.5549 29.2313 28.2451 29.2853 28.0691C29.7231 26.6451 30.2921 25.2134 30.7647 23.8004C31.0679 22.8939 31.2105 22.3223 31.5379 21.4242C31.877 20.495 32.3197 19.3463 32.8733 18.527C32.9824 18.3659 33.346 18.471 33.4044 18.2849C33.5492 17.823 33.2784 17.2992 33.4044 16.8318C33.4977 16.486 33.8608 16.1537 34.1611 15.9601C34.3641 15.829 34.6884 16.0115 34.7777 15.7867C34.987 15.262 34.7914 14.7061 34.9232 14.1564C35.0119 13.7861 35.2655 13.5593 35.4268 13.2145C35.6408 12.7569 35.6252 12.3596 35.8613 11.9128C36.0535 11.5495 36.4581 11.0409 36.5743 10.6463C36.7344 10.1043 36.6031 9.83835 36.6553 9.27567C36.6692 9.12418 36.8904 9.04025 36.8967 8.88828C36.9717 7.06556 37.0678 5.23635 36.9614 3.41508C36.9525 3.26647 36.6203 3.27297 36.6234 3.12436C36.6347 2.56768 36.702 2.07594 36.6714 1.57433C36.6656 1.47646 36.6994 1.39614 36.6019 1.39206C35.09 1.32833 33.5981 1.36296 32.0853 1.38075C30.8462 1.39518 29.604 1.29539 28.3681 1.38075C28.1811 1.3935 28.0134 1.42572 27.8854 1.56303C27.7624 1.69456 27.7013 1.97566 27.7085 2.15553C27.7411 2.96517 27.6922 3.84623 27.7085 4.81963C27.7114 4.99998 28.0656 4.89201 28.1267 5.06178C28.2969 5.53477 28.3098 6.06211 28.2715 6.56323C28.2595 6.72435 28.0642 6.94124 28.0678 7.10235C28.1454 7.66264 28.2178 8.05868 28.3199 8.59756C28.3784 8.80604 28.5572 8.96884 28.6094 9.179C28.6717 9.43005 28.4438 9.93719 28.7007 9.95378C28.7863 9.95931 29.0842 10.0093 29.2371 9.95378C29.4336 9.88236 29.1647 9.52094 29.2371 9.32424C29.2881 9.18477 29.5515 9.18044 29.575 9.03352C29.7025 8.23614 29.4808 7.30146 29.6069 6.5036C29.6453 6.26025 29.7843 6.00343 29.993 5.87382C30.1708 5.76345 30.4922 6.0395 30.6209 5.87382C30.7988 5.64418 30.6236 5.37943 30.7336 5.11035C30.8957 4.72103 31.1432 4.37336 31.4576 4.09319C31.7428 3.83902 32.028 3.53483 32.4067 3.49515C33.2547 3.4069 34.2684 3.48602 35.4165 3.43648C35.5241 3.43167 35.5531 3.59759 35.5612 3.7058C35.602 4.23674 35.6981 4.95862 35.5612 5.30392C35.3623 5.80553 34.9127 6.36533 34.4563 6.88618C34.1438 7.24206 33.8279 7.55755 33.5871 7.9144C33.2983 8.34243 33.7297 8.92603 33.5818 9.42115C33.4306 9.92757 33.0169 10.4657 32.6965 10.8856C32.4338 11.2299 32.0472 11.4062 31.8008 11.7625C31.4933 12.2074 31.3143 12.6455 31.1197 13.1507C30.9582 13.5708 30.8541 14.014 30.7818 14.4584C30.7247 14.8095 30.892 15.2062 30.7338 15.5241C30.6176 15.7569 30.3556 15.7141 30.1869 15.9115C29.9527 16.1856 29.8157 16.5372 29.7042 16.8803C29.5722 17.2867 29.5611 17.5274 29.355 17.9016C29.1237 18.3212 28.6595 18.7264 28.4491 19.1568C28.2195 19.6262 28.1931 20.1968 28.0783 20.7068C27.9673 21.1998 27.8746 21.6646 27.7732 22.1597C27.6486 22.7659 27.5192 23.3818 27.5316 24.0005C27.5355 24.1888 27.7339 24.3184 27.8216 24.4848C27.8952 24.6254 28.0646 24.77 28.0145 24.9207C27.946 25.1268 27.5623 25.1417 27.5316 25.3567C27.5002 25.5786 27.5565 25.7838 27.719 25.9381C27.8604 26.0718 28.1485 26.0136 28.2499 26.18C28.3592 26.3594 28.3395 26.6201 28.2499 26.8096C28.1756 26.9678 27.9144 26.9293 27.8801 27.1005C27.7411 27.7974 27.9117 28.2937 27.7888 28.9935ZM69.6456 35.8578C69.555 35.5692 69.7813 35.5129 69.9318 35.3624C70.1518 35.1421 70.3646 34.9272 70.4519 34.4934C70.4849 34.3289 70.6527 34.0629 70.6915 33.7994C70.7486 33.4146 70.6613 33.0136 70.5568 32.7649C70.4198 32.4393 70.1949 32.2696 70.2764 31.9589C70.3052 31.7603 70.7529 31.7357 71.1057 31.5785C71.2907 31.4962 71.4494 31.3351 71.5083 31.1836C71.5855 30.984 71.3286 31.0182 71.1977 30.7647C71.0582 30.4949 71.0376 30.091 70.9303 29.8899C70.7428 29.5398 70.4001 29.0699 70.3876 28.6722C70.3541 27.6113 70.6604 26.5403 70.6997 25.5195C70.7328 24.6634 70.9346 24.4595 70.8694 23.5823C70.8373 23.1456 70.6033 22.8277 70.3618 22.3819C70.1619 22.0123 69.8992 21.6468 69.7985 21.2981C69.6197 20.6777 69.7995 19.9427 69.6912 19.3061C69.6701 19.1813 69.3585 19.0289 69.347 18.9026C69.2665 18.029 69.3647 17.1343 69.3087 16.27C69.2799 16.1075 69.1486 16.0765 69.1332 15.912C69.0877 15.4277 69.1327 14.9559 69.1313 14.537C69.1299 14.1674 69.079 13.8517 69.079 13.4222C69.079 13.2623 68.9468 13.1527 68.9415 12.9925C68.9094 12.0475 68.9487 11.0041 68.9362 10.0577C68.9228 9.05011 68.8614 8.13924 68.9415 7.13602C68.9554 6.96673 69.2962 6.97082 69.2895 6.80153C69.2578 6.03253 69.1917 5.72666 69.2094 4.95357C69.2113 4.86436 69.3935 4.65708 69.4007 4.5681C69.4539 3.92462 69.5335 3.28066 69.37 2.73024C69.2521 2.33131 68.9539 2.20723 68.6117 1.94993C68.3097 1.72269 67.9727 1.35334 67.6933 1.1463C67.3357 0.88107 67.0975 0.667778 66.8266 0.271013C66.6637 0.0317509 66.9326 0.011071 67.2326 0.00217387C67.618 -0.00912793 68.0389 0.024537 68.4056 0.0822484C68.5297 0.101726 68.7632 0.31646 68.8806 0.361908C69.1634 0.472041 69.3484 0.329205 69.638 0.419619C69.8589 0.489113 70.7817 0.971725 71.03 1.11528C71.3693 1.3115 71.4791 1.59645 71.8333 1.76309C71.8971 1.79291 72.9914 2.1072 73.1184 2.13918C73.4146 2.21348 73.5987 1.9961 73.8949 2.07016C74.2391 2.15625 74.8512 2.33035 75.2376 2.44625C75.4552 2.51166 75.5928 2.76967 75.8156 2.81416C76.8965 3.03058 76.7034 2.66916 77.5595 3.52786C77.8116 3.78107 78.2281 3.98426 78.416 4.28844C78.6816 4.71743 78.7094 5.24357 78.8781 5.71127C79.0095 6.07485 79.3028 6.37351 79.3723 6.75969C79.5597 7.7997 79.3642 8.88107 79.4912 9.92997C79.53 10.2503 79.8584 10.5884 79.8929 10.9091C80.0237 12.1379 80.0458 13.3513 79.8967 14.5779C79.8464 14.9915 79.4993 15.1598 79.4375 15.5715C79.3344 16.2623 79.5401 16.97 79.4912 17.6669C79.4682 18.0007 79.2832 18.3491 79.1087 18.634C78.9812 18.8416 78.6897 18.9163 78.5963 19.1409C78.3504 19.7306 78.4122 20.5366 78.2981 21.1755C78.2627 22.3949 78.2876 23.3409 78.3398 24.5596C78.3767 25.4185 78.4645 26.1897 78.3552 27.0424C78.3168 27.3376 78.0704 27.4997 78.0263 27.7945C77.9046 28.6092 78.0091 29.446 77.9305 30.266C77.9171 30.4055 77.7109 30.5671 77.6817 30.7041C77.6271 31.4534 77.5748 32.5471 77.2493 33.3906C77.0351 33.947 76.514 34.5078 76.0136 34.83C75.529 35.1421 75.008 35.2095 74.4495 35.3523C74.0967 35.4422 73.7018 35.399 73.3787 35.5668C73.1851 35.6678 73.3149 35.6692 73.1381 35.7962C73.036 35.8688 72.8596 35.8751 72.7632 35.7962C72.6271 35.6842 72.6693 35.6385 72.5106 35.563C72.2686 35.448 71.9532 35.4571 71.7073 35.563C71.5299 35.6394 71.5946 35.7784 71.4048 35.8154C71.0218 35.8905 70.5731 35.9876 70.159 35.9766C69.9112 35.9703 69.7156 36.0824 69.6456 35.8578ZM73.2402 8.26572C73.778 8.23734 73.8834 8.20801 74.3623 8.46603C74.8575 8.73246 74.961 8.90824 75.2635 9.38941L75.7313 9.84244C76.3674 10.4585 76.6674 11.3278 76.9272 12.1425C76.9699 13.0269 77.1592 14.5765 76.7192 15.3791C76.4997 15.7795 76.4129 16.0887 76.3755 16.4288C76.2715 17.3798 76.0026 17.2312 75.7289 17.9514C75.6546 18.1469 75.6709 18.39 75.6642 18.8536L75.5918 23.8209C75.5765 24.8789 75.378 25.3834 74.9519 26.3602C74.7017 26.8274 74.5703 27.1284 74.5703 27.6584C74.5703 28.2865 74.4423 28.576 74.1936 29.1483L73.7387 30.1939C73.5589 30.607 73.394 30.7551 73.2747 30.6998C73.1553 30.645 73.0815 30.3858 73.0834 29.9847L73.1151 23.9211L73.1841 17.4743C73.1572 17.0126 73.1745 16.9104 72.8725 16.5682C72.8442 15.8726 72.7105 15.5578 72.491 14.8956C72.2139 14.3733 72.2455 13.9924 72.2388 13.3951L72.1866 8.91449C72.176 7.99784 72.3826 8.31117 73.2402 8.26572ZM38.1353 33.9615C37.9699 33.1487 38.0856 32.5028 38.129 31.8916C38.1496 31.7458 38.4427 31.8819 38.5223 31.7588C38.6412 31.5746 38.7483 31.3221 38.67 31.1173C38.6227 30.9946 38.5396 31.1639 38.4691 31.0528C38.372 30.8999 38.4061 30.6527 38.5182 30.5103C38.6819 30.3021 39.0093 30.3559 39.121 30.1155C39.2734 29.7875 39.012 29.3749 39.121 29.03C39.1558 28.9204 39.4383 29.1421 39.4652 29.03C39.5927 28.5024 39.434 27.9388 39.5145 27.4021C39.5354 27.2621 39.6583 27.1972 39.6746 27.0568C39.743 26.4686 39.7784 25.8636 39.6746 25.2805C39.6104 24.9186 39.3187 24.6581 39.2686 24.2938C39.086 22.973 39.0309 21.5345 39.2003 20.2117C39.3319 19.1849 39.9845 17.5969 40.3675 16.6353C40.6072 16.0341 40.7249 16.2217 40.9403 15.6109C41.0062 15.4241 41.052 15.2067 40.9897 15.0189C40.9121 14.7849 40.6367 14.606 40.6755 14.3624C40.723 14.064 41.0887 14.0715 41.1862 13.7853C41.3188 13.3965 41.052 12.9403 41.1862 12.552C41.3444 12.0951 41.8885 11.8328 42.0222 11.3679C42.1497 10.9245 42.0131 10.2161 42.138 9.77199C42.3848 8.89429 42.681 8.32728 43.1038 7.5198C43.3538 7.0432 43.7878 6.64042 43.9827 6.13857C44.1708 5.65476 44.1516 5.01465 44.2351 4.60922C43.9276 4.22376 43.2225 4.76168 42.7599 4.59407C42.525 4.50895 42.526 4.12397 42.2935 4.03211C41.7959 3.9982 41.3202 3.98666 40.9657 4.25334C40.4907 4.61091 40.4869 5.03004 40.3011 5.59585C40.0236 6.44132 40.2352 7.39115 39.8889 8.21065C39.7518 8.53456 39.1929 8.62569 38.9245 8.85197C38.7824 8.97148 38.7165 9.09628 38.5309 9.09628C38.3454 9.09628 38.1839 9.03208 38.1377 8.85197C38.0435 8.48574 38.1559 8.09499 38.1377 7.71722C38.1233 7.41977 37.9644 7.11726 38.0394 6.82919C38.0782 6.67914 38.4207 6.73733 38.4327 6.58247C38.5796 4.88744 38.3776 3.20323 38.4034 1.58347C38.4126 1.01477 38.5628 1.09917 39.1208 1.0934C40.0608 1.08378 41.5503 1.09099 42.6305 1.08546C44.526 1.07585 46.4261 1.00515 48.3161 1.05709C48.5975 1.07753 48.9637 1.18213 48.9834 1.46444C49.0231 2.03506 48.6421 2.58548 48.3784 3.09238C48.2389 3.36049 47.9274 3.53579 47.8248 3.81978C47.6503 4.30119 47.8397 4.87157 47.6556 5.34913C47.5429 5.64226 46.9701 5.69636 46.8604 5.99045C46.7046 6.40645 46.9735 6.90902 46.811 7.32262C46.7305 7.52774 46.2943 7.41063 46.2209 7.61839C45.9736 8.32247 46.1188 9.11768 45.9261 9.8386C45.8193 10.2366 45.5187 10.5157 45.4646 10.924C45.3169 12.0326 45.5604 13.1647 45.4646 14.2788C45.4435 14.5207 45.1889 14.6876 45.1199 14.9201C44.9579 15.4671 44.8558 16.0584 44.6689 16.5976C44.5883 16.8303 44.2892 16.951 44.2264 17.1896C44.1339 17.5392 44.3654 17.9413 44.2264 18.275C44.0515 18.6944 43.4353 18.8661 43.3411 19.311C43.0758 20.5667 43.4962 21.8906 43.3006 23.1591C43.2133 23.7266 42.7146 24.1729 42.6123 24.7377C42.4804 25.4659 42.7076 26.3267 42.5267 27.0438C42.3522 27.7363 41.8518 28.3365 41.6011 29.0045C41.5424 29.66 40.7594 30.2617 41.1865 30.757C41.7013 30.8253 42.5557 30.9307 43.1532 30.658C43.4281 30.5329 43.1096 29.9539 43.3497 29.7702C44.0841 29.2075 44.9267 29.0045 45.7507 28.5861C46.2219 28.3466 46.8144 28.1182 47.2347 27.7969C47.448 27.6334 47.4725 27.2453 47.7261 27.1554C47.879 27.101 47.9106 27.4733 48.0702 27.5007C48.6195 27.5945 49.096 27.3588 49.6353 27.5007C49.851 27.5574 49.8442 27.8484 49.9003 28.0648C49.9507 28.2586 50.0379 28.4673 49.9305 28.6352C49.8658 28.7362 49.6314 28.6236 49.5859 28.7343C49.4924 28.9622 49.5288 29.2344 49.5859 29.4739C49.6309 29.6605 49.8011 29.7764 49.8169 29.9674C49.9013 30.9672 49.9291 31.98 49.8169 32.977C49.7934 33.1862 49.675 33.4055 49.4665 33.4272C48.0482 33.3617 46.7372 33.4661 45.3169 33.4704C45.1707 33.4575 45.2546 33.1978 45.1199 33.14C44.7537 32.9823 44.0932 32.9607 43.7044 33.0501C43.2524 33.154 43.2145 33.5272 42.7599 33.6181C41.9402 33.7826 40.9928 33.6214 40.1664 33.747C39.8743 33.7912 39.6512 34.0399 39.3648 34.1115C38.9669 34.2111 38.3402 34.3174 38.1353 33.9615ZM16.2325 36.2786C15.6194 36.4945 14.904 36.2791 14.254 36.293C14.0536 36.2973 13.7277 36.4551 13.5352 36.3983C13.3253 36.3368 12.9943 35.9188 13.1254 35.7428C13.6383 35.0565 14.6497 34.9709 15.118 34.2539C15.3936 33.8321 15.1355 33.2641 15.2539 32.7741C15.2901 32.6235 15.553 32.6375 15.6307 32.5038C15.6939 32.3951 15.7124 32.2215 15.6307 32.1258C15.444 31.9069 15.3258 32.3657 15.252 31.7107C15.1861 31.125 15.1722 30.53 15.2263 29.9447C15.2604 29.572 15.5307 29.6509 15.5815 29.4542C15.6767 29.0882 15.4789 28.817 15.5767 28.4515C15.6206 28.2875 15.9238 28.3288 16.0077 28.1812C16.0877 28.0408 16.097 27.8301 16.0077 27.695C15.8241 27.4189 15.3256 27.4232 15.27 27.0962C15.1679 26.4946 15.2225 25.8487 15.233 25.2519C15.2443 24.6158 15.2009 23.9784 15.2537 23.3305C15.2632 23.2103 15.5345 23.2156 15.5767 23.1026C15.6587 22.8835 15.6069 22.6322 15.5767 22.4002C15.5528 22.2141 15.6098 21.8329 15.5954 21.6456C15.5739 21.358 15.4504 21.2513 15.5837 20.9954C15.6767 20.8175 15.9796 20.9245 16.0077 20.7254C16.1548 19.6731 15.8404 18.5941 15.9537 17.5375C15.9729 17.3586 16.2538 17.387 16.3012 17.2134C16.377 16.9332 16.4005 16.6113 16.2768 16.3489C16.2186 16.2251 15.9432 16.2246 15.9326 16.088C15.8116 14.5442 16.022 13.0844 15.8998 11.5404C15.8885 11.3958 15.5345 11.5986 15.5278 10.9712C15.5206 10.3135 15.4603 9.70057 15.4691 9.21724C15.4761 8.8462 16.2734 8.83634 16.2651 8.4653C16.2524 7.90021 16.341 7.26226 16.2111 6.6825C16.1694 6.4959 15.9271 6.52668 15.8461 6.35355C15.7699 6.191 15.8418 6.02892 15.9115 5.86276C15.9954 5.66318 16.2231 5.53693 16.2768 5.32701C16.3753 4.94347 16.3655 4.52458 16.2768 4.13839C16.248 4.01215 16.0304 3.88855 15.97 3.77409C15.8581 3.56176 15.9087 3.37444 15.7594 3.18688C15.6563 3.05751 15.3512 3.1371 15.2256 3.02938C14.9023 2.75236 14.7158 2.44457 14.4448 2.19208C14.1898 1.95522 13.8463 1.77656 13.6498 1.42789C13.5237 1.20377 13.6707 0.815904 13.8746 0.659602C14.0314 0.53937 14.2765 0.566543 14.4505 0.659602C14.5919 0.735108 14.5895 1.03665 14.748 1.05877C15.442 1.15568 16.1308 0.849329 16.8153 1.0001C17.1137 1.06599 17.1295 1.444 17.4078 1.57072C17.5938 1.6556 17.9291 1.49161 18.0983 1.60631C18.3468 1.77463 18.5577 2.13317 18.7535 2.33347C19.0052 2.59077 19.2226 2.70523 19.351 3.06977C19.5133 3.52978 19.4421 4.00181 19.4349 4.48058C19.4289 4.90283 19.4972 5.33038 19.4589 5.75936C19.4457 5.90364 19.1696 5.83559 19.131 5.9753C19.0632 6.22057 19.1118 6.49518 19.2389 6.71545C19.3309 6.8756 19.5811 6.79408 19.6415 6.9689C19.7817 7.37769 19.7997 7.87905 19.6952 8.29866C19.6564 8.45497 19.3558 8.35421 19.3462 8.51484C19.2254 10.5463 19.1952 12.5955 19.4002 14.6202C19.4349 14.9641 19.9773 15.0867 20.0137 15.4306C20.2169 17.3468 20.0319 19.2864 19.9528 21.2116C19.9416 21.4855 19.8066 21.8296 19.6952 22.034C19.5706 22.2624 19.6482 22.4906 19.6528 22.7426C19.6588 23.0668 19.6202 23.42 19.6695 23.7509C19.6976 23.9399 20.0806 24.1198 20.0674 24.3104C20.0312 24.8356 20.1057 25.0838 20.1376 25.6017C20.153 25.8511 19.7005 26.0069 19.5571 26.2108C19.4538 26.3575 19.3911 26.6417 19.4752 26.8004C19.5543 26.95 19.6969 26.874 19.7422 27.0375C19.8059 27.2689 19.8112 27.4641 19.6952 27.6743C19.6204 27.8094 19.3443 27.7916 19.3182 27.9441C19.2449 28.3716 19.4869 28.8117 19.426 29.2412C19.4078 29.3696 19.1219 29.3287 19.1027 29.4571C19.0071 30.0982 19.2111 30.7628 19.1027 31.402C19.062 31.6434 18.6893 31.7521 18.672 31.9964C18.6625 32.133 18.9846 32.0378 19.049 32.1585C19.1507 32.3499 18.8957 32.7462 19.1027 32.8068C19.7918 33.0092 20.6445 32.9568 21.3388 32.7741C21.7319 32.6702 21.8985 32.1171 22.3035 32.0786C22.7912 32.0325 23.1512 32.3556 23.6334 32.4422C24.269 32.5572 24.9645 32.5778 25.5882 32.4095C25.9563 32.31 26.1701 31.918 26.5483 31.8675C28.1847 31.6468 29.7035 31.7824 31.3548 31.7737C32.916 31.7651 34.9134 31.6862 36.0727 31.8132C36.7337 31.8353 36.0168 34.1817 36.2553 35.4211C36.3071 35.6909 36.5369 35.8419 36.6747 36.0915C36.8952 36.4897 36.9805 36.6922 36.4087 36.6898C35.3333 36.6845 34.245 36.7677 33.078 36.7181C32.8489 36.7085 32.8599 36.2651 32.6473 36.1776C32.4144 36.0819 32.138 36.2911 31.8933 36.2319C31.5266 36.143 31.1135 35.7904 30.7391 35.7457C29.7411 35.6255 28.7355 35.8765 27.7399 35.7385C27.5141 35.7072 27.483 35.2686 27.2553 35.2518C24.9281 35.0811 22.6985 35.3263 20.3689 35.1989C19.8699 35.1715 19.8244 34.9969 19.5078 34.9046C19.0596 34.7747 18.2581 34.7228 17.8361 34.9214C17.0495 35.2907 17.0519 35.9895 16.2325 36.2786ZM44.2461 27.1496C43.7598 27.1352 43.7274 26.3517 43.766 25.8713C43.8056 25.3798 44.4455 25.4055 44.6736 24.9688C44.84 24.6512 44.5907 24.0923 44.7805 23.7879C44.9847 23.4599 45.5384 23.4722 45.7426 23.1442C45.8595 22.9569 45.685 22.5974 45.6903 22.3766C45.7033 21.8534 45.8202 21.4682 45.7962 20.9454C45.7838 20.6737 45.6711 20.1826 45.7224 19.9152C45.7929 19.5502 46.0096 19.6387 46.1169 19.2828C46.2507 18.8377 46.0282 18.3311 46.1701 17.8886C46.2267 17.7135 46.684 17.8013 46.6514 17.6205C46.6116 17.4002 46.2114 17.5188 46.1716 17.2985C46.0503 16.6283 46.0436 15.8399 46.2238 15.1831C46.3365 14.7724 46.8009 14.4581 46.9189 14.0484C47.042 13.6194 46.7813 13.1327 46.9189 12.7078C47.0118 12.4193 47.4869 12.3584 47.5602 12.0643C47.7328 11.3704 47.5789 10.5193 47.7587 9.82753C47.8531 9.46443 48.0419 9.05276 48.2735 8.82528C48.4125 8.68846 48.5376 8.58939 48.6028 8.37393C48.6919 8.07912 48.4729 7.83096 48.5232 7.52701C48.5678 7.25793 48.7724 7.08528 48.9024 6.84602C49.0668 6.54376 49.1353 6.16118 49.293 5.85579C49.5231 5.40949 49.8327 5.03605 49.9976 4.56113C50.1208 4.20717 49.8562 3.62957 50.0139 3.28932C50.2373 2.80767 50.8144 2.81945 51.0344 2.33612C51.2123 1.9456 50.9012 1.4351 51.0881 1.04891C51.2238 0.767571 51.5301 0.643251 51.8412 0.630987C52.0693 0.62185 52.3464 0.780075 52.424 0.99529C52.5769 1.41658 52.4389 1.92276 52.6119 2.33612C52.9154 3.06304 53.4417 3.49131 53.7336 4.22328C53.8855 4.6049 53.7211 5.15339 53.8141 5.55377C53.9407 6.09794 54.0293 6.64668 54.2086 7.17666C54.431 7.83649 54.7498 8.47661 54.9367 9.14702C55.1021 9.74049 55.1419 10.3844 55.2694 10.9887C55.3628 11.4295 55.5335 11.8342 55.685 12.2574C55.7497 12.4392 55.9687 12.393 56.021 12.5792C56.1125 12.9081 55.8374 13.2654 55.9141 13.5982C56.0052 13.9957 56.4318 14.3985 56.5017 14.8003C56.6158 15.4517 56.497 16.0748 56.5128 16.7361C56.5272 17.3403 56.5909 17.9014 56.67 18.4809C56.7189 18.8372 56.9154 19.3456 56.9245 19.6048C56.9576 20.57 57.0003 21.5201 57.0108 22.4865C57.0271 23.8988 57.0271 25.4086 56.9566 26.8182C56.9485 26.9827 56.7529 27.0669 56.6954 27.2213C56.4773 27.8056 56.2947 28.1288 56.1547 28.7371C56.0809 29.0579 56.0785 29.4032 55.9409 29.7024C55.8566 29.8861 55.4803 30.0366 55.4165 30.2285C55.2751 30.6556 55.4486 31.085 55.4175 31.6179C55.3911 32.0767 55.2018 32.3403 55.0115 32.7668C54.8811 33.0583 54.6692 33.5128 54.5887 33.8167C54.501 34.1466 54.6587 34.5083 54.5624 34.8358C54.5115 35.007 54.2786 35.0897 54.2417 35.2648C54.1492 35.7019 54.3217 36.179 54.188 36.6051C54.1127 36.8465 54.0605 36.8114 53.8309 36.9153C53.6679 36.9884 53.2403 37.0716 53.2159 36.8937C53.1124 36.1473 53.3218 35.6288 53.2039 34.8839C53.0659 34.0124 52.7025 33.4825 52.4835 32.6274C52.3771 32.2123 52.5674 31.4621 52.3708 31.0817C52.0171 30.3963 50.8844 30.1193 50.9338 29.3494C50.9812 28.6044 51.4251 28.1196 51.8771 27.5137C52.1858 27.0986 52.3866 26.421 52.5789 25.9482C52.7203 25.5996 52.8027 25.1913 52.8089 24.8474C52.8185 24.334 52.68 24.1106 52.2927 23.7915C51.4836 23.1245 50.1759 22.5144 49.1689 22.0231C49.0212 21.951 48.8482 22.2338 48.8482 22.3985C48.8482 22.5632 49.0404 22.6914 49.0596 22.8549C49.1157 23.3354 48.8257 23.8341 49.0332 24.2705C49.2523 24.7317 50.1165 24.8659 49.9885 25.3601C49.9022 25.6912 49.8212 25.8078 49.5413 25.9694C49.3716 26.0675 49.1832 26.0608 48.9848 26.0699C48.3895 26.0973 47.7773 25.8857 47.2021 26.0079C46.5776 26.1406 46.0187 26.4301 45.4415 26.7187C45.0595 26.9101 44.6688 27.1626 44.2461 27.1496ZM49.5111 19.6519C49.5058 19.1787 49.4943 18.7132 49.4953 18.2476C49.4962 17.8369 49.5063 17.4262 49.5384 17.0104C49.5595 16.7402 49.8059 16.5343 49.8375 16.265C49.8907 15.8204 49.6185 15.2868 49.7426 14.8592C49.7925 14.6856 50.2311 14.8597 50.3303 14.7138C50.3629 14.6659 50.4295 14.3875 50.5402 14.1501C50.6069 14.0078 50.7454 13.8798 50.7454 13.8255C50.7454 13.7459 50.7401 13.1813 50.7996 12.6922C50.8341 12.4084 50.8777 12.1685 50.9208 12.1665C50.9635 12.1646 51.0066 12.4 51.1567 12.596C51.3292 12.8213 51.3877 13.0447 51.5387 13.283C51.6279 13.4237 51.7237 13.5891 51.8709 13.6466C52.0583 13.7197 52.2826 13.6168 52.4691 13.6923C52.6086 13.7488 52.6426 13.9683 52.7682 14.0559C52.853 14.115 53.0476 14.0022 53.0673 14.1104C53.156 14.5974 53.0793 15.249 53.1565 15.7381C53.1752 15.8552 53.4335 15.8007 53.4393 15.9199C53.4786 16.7717 53.4982 17.6248 53.4953 18.4782C53.493 19.2309 53.4733 19.9843 53.4345 20.7364C53.4239 20.9509 52.8593 20.9658 52.7016 20.8456C52.3967 20.6123 52.2035 20.3421 51.8047 20.2456C51.6384 20.2057 51.6465 19.9414 51.4888 19.8888C51.1389 19.7717 50.6975 19.7426 50.3317 19.7426C50.093 19.7426 49.7484 19.8272 49.5111 19.7972C49.4675 19.7916 49.5116 19.7 49.5111 19.6519ZM60.8627 4.96896C60.8637 5.45902 60.916 5.98997 60.9174 6.50312C60.9198 7.16367 60.8719 7.75546 60.8743 8.42106C60.8767 9.12995 60.9294 9.91314 60.9294 10.6064C60.9294 11.17 60.8268 12.2533 60.8704 12.7213C60.926 13.3232 60.9591 13.4275 61.7792 13.4275C62.1761 13.4275 62.7139 13.019 63.1104 12.6061C63.3817 12.3235 63.3409 11.8359 63.4449 11.625C63.5983 11.3148 63.8605 11.0311 63.9152 10.6711C63.9851 10.2079 63.8164 9.82585 64.1242 9.5296C64.2454 9.41249 64.36 8.08273 64.36 7.79008C64.36 7.37312 63.9233 6.75464 63.4214 6.20134C63.0782 5.8226 62.6665 5.48283 62.4911 5.22337C62.1694 4.74845 61.9288 4.54021 61.5477 4.45485C60.8517 4.29878 60.8623 4.36299 60.8627 4.96896ZM57.1882 31.0672C57.0583 31.5818 57.4532 31.792 57.9206 32.095C58.387 32.398 58.9267 32.7943 59.4348 33.2122C60.2947 33.9191 60.88 35.2095 61.4394 36.4801C61.7275 36.1728 61.5242 34.7406 61.6858 33.8826C61.7203 33.6989 61.9178 33.5661 61.9365 33.38C62.0026 32.713 62.0189 32.0344 61.9365 31.3693C61.9053 31.1211 61.6661 30.9398 61.6024 30.6988C61.552 30.5098 61.564 30.3035 61.6024 30.1121C61.6489 29.8784 61.8315 29.6793 61.8526 29.4417C61.9158 28.7463 61.9571 28.0374 61.8526 27.3473C61.8133 27.0866 61.4154 26.9394 61.4351 26.6768C61.4519 26.4595 61.9202 26.4753 61.9365 26.258C61.982 25.6352 61.7668 25.034 61.6901 24.4143C61.5166 23.0218 61.4154 21.6208 61.2721 20.225C61.2208 19.7217 61.0204 19.215 61.1053 18.7168C61.3665 18.0367 61.6052 17.3382 61.8569 16.7894C61.9796 16.6279 62.1416 16.9436 62.2662 17.1037C62.6732 17.6253 63.2139 18.2705 63.3308 18.9221C63.4742 19.7209 63.0428 20.4279 63.1348 21.2347C63.1616 21.4698 63.5231 21.4278 63.6065 21.6492C64.0053 22.708 64.3293 23.8026 64.5254 24.9171C64.7487 26.1873 64.8206 27.4824 64.8595 28.7718C64.8762 29.3325 64.8523 29.9096 64.6922 30.4473C64.464 31.2154 63.9885 31.8276 63.7527 32.5697C63.5058 33.3459 63.4262 33.5777 64.2449 33.5772C64.569 33.5767 64.9472 33.5897 65.1974 33.7152C65.8675 34.0514 66.1441 34.8267 66.7802 35.2234C66.9177 35.309 67.0975 35.4278 67.2868 35.5341C68.1889 36.041 68.2881 35.6909 68.4761 34.8983C68.7239 33.8504 68.7867 32.9053 68.9472 31.8718C69.0292 31.3476 69.0119 30.8099 69.035 30.28C69.0676 29.5244 69.1241 28.7727 69.0853 28.0172C69.0676 27.6647 69.0695 27.279 68.8389 27.0121C68.6659 26.8115 68.1554 27.0164 68.0873 26.7605C67.9938 26.4099 68.4981 26.118 68.5048 25.7549C68.3668 24.7753 68.2402 23.8985 68.2239 22.9331C68.2052 21.7947 67.9622 22.3677 67.5859 21.9214C67.3587 21.6521 67.2878 21.4141 67.2523 21.063C67.1473 20.0343 67.2959 18.8964 67.1392 17.8744C67.0692 17.4175 66.8564 16.9671 66.5549 16.6178C66.4456 16.491 66.2452 16.6796 66.1704 16.5297C66.0453 16.2787 66.4298 16.1068 66.2831 15.8677C65.9423 15.3125 65.229 14.8886 64.6883 14.5272C64.5263 14.419 64.2411 14.6654 64.1035 14.5272C63.966 14.3889 63.9693 13.9645 64.1035 13.8233C65.0665 13.6834 65.5622 13.2284 66.0324 12.6838C66.6704 11.9455 66.9824 11.1224 67.3022 10.1995C67.4498 9.77391 67.2609 9.27687 67.3103 8.82937C67.4019 8.00145 67.8347 7.24952 67.6904 6.42881C67.4809 5.23563 66.8947 4.16629 66.2208 3.16091C65.8464 2.60303 65.265 2.1084 64.6591 1.82032C64.1534 1.5801 63.7301 1.78113 63.1933 1.62362C62.5716 1.44087 62.0736 1.0922 61.4394 0.961625C60.9457 0.860149 60.4275 1.06695 59.9362 0.953209C59.6294 0.882272 59.5796 0.536244 59.268 0.488152C59.0533 0.454968 58.8337 0.76709 58.6171 0.785606C57.1191 0.913051 55.8896 0.62185 54.3989 0.819271C54.1765 0.848607 54.2398 1.09749 54.4243 1.22565C54.6999 1.41682 55.1189 1.32232 55.4266 1.45602C55.9788 1.696 56.4035 2.0187 56.8128 2.4614C57.1517 2.82763 57.2898 3.23473 57.5975 3.80199C57.7241 4.03476 58.0879 3.58797 58.3496 3.5507C58.6799 3.50333 58.9095 3.49443 59.118 3.75606C59.3054 3.99075 58.9176 4.30335 58.6966 4.50582C58.2494 4.91461 57.945 5.13151 57.5496 5.40275C57.2792 5.58887 56.8004 5.75576 56.5995 6.11886C56.1538 6.92441 56.6825 7.84058 56.8541 8.74569C56.9169 9.07584 56.9888 9.39855 57.0635 9.72606C57.3061 10.7908 57.2246 11.6769 57.3722 12.759C57.4202 13.1089 57.6675 13.4136 57.7063 13.7647C57.7523 14.1816 57.6776 14.4889 57.7399 14.904C57.7658 15.0807 57.91 15.268 57.957 15.4402C58.165 16.2066 58.3481 17.1689 58.3745 17.9627C58.4598 20.5587 58.3064 23.1021 58.4368 25.6967C58.4488 25.9328 58.8021 26.0261 58.8505 26.258C58.9258 26.6172 58.687 27.0298 58.5667 27.3766C58.0725 28.7963 57.493 29.8587 57.1882 31.0672Z" fill="#847F7D" fill-opacity="0.26"/>
</svg>
