<svg width="127" height="43" viewBox="0 0 127 43" fill="none" xmlns="http://www.w3.org/2000/svg">
<path d="M2.89844 39.1426L18.7246 39.1266C25.1996 39.1266 30.447 33.8953 30.447 27.4494C30.447 20.9909 25.1996 15.7592 18.7246 15.7592L14.6145 15.7815C14.2906 15.7815 14.0279 15.5159 14.0279 15.1891C14.0279 14.8622 14.2906 14.5962 14.6145 14.5962L30.4119 14.5996L30.4183 9.64355H14.6111C11.555 9.64355 9.06852 12.1262 9.06852 15.1764C9.06852 18.2296 11.5545 20.7025 14.6111 20.7025L18.7407 20.757C22.4505 20.757 25.4525 23.7489 25.4525 27.4401C25.4525 31.1339 22.4509 34.1326 18.7407 34.1326H2.90477L2.89844 39.1426Z" fill="#847F7D" fill-opacity="0.26"/>
<path d="M2.9072 32.9689H18.7431C21.8089 32.9689 24.2886 30.496 24.2886 27.4395C24.2886 24.3863 21.8089 21.9163 18.7431 21.9163L14.6135 21.8716C10.91 21.8716 7.90501 18.8763 7.90501 15.1757C7.90501 11.4853 10.91 8.48961 14.6135 8.48961L30.4207 8.48623L30.4143 3.51123H14.6169C8.14867 3.51123 2.89453 8.73665 2.89453 15.1888C2.89453 21.641 8.14867 26.8694 14.6169 26.8694L18.7047 26.8757C19.0155 26.8757 19.2781 27.1291 19.2781 27.4492C19.2781 27.7634 19.0155 28.0163 18.7047 28.0163L2.90087 28.029L2.9072 32.9689ZM42.7195 34.164C39.9737 34.164 37.7246 31.9757 37.7246 29.1818V13.3721C37.7246 10.6843 39.9737 8.47356 42.7195 8.47356L59.6123 8.47652V3.51123H42.7195C37.2221 3.51123 32.769 7.94824 32.769 13.4266V29.1823C32.769 34.6611 37.2221 39.1044 42.7195 39.1044L59.5418 39.1111L59.5384 34.1581L42.7195 34.164Z" fill="#847F7D" fill-opacity="0.26"/>
<path d="M38.936 13.4266C38.936 11.3316 40.6214 9.6336 42.7197 9.6336H59.6126V14.6056H45.0584C43.8924 14.6056 43.8764 15.7623 43.8764 15.7623H56.0185V20.712H38.9301L38.936 13.4266ZM42.7197 32.9596C40.6277 32.9596 38.9297 31.2713 38.9297 29.1823V21.8906H56.0181V26.8504H43.876C43.892 28.0163 45.058 28.0222 45.058 28.0222H59.5417L59.5383 32.9529L42.7197 32.9596ZM71.4507 34.1514C68.7147 34.1514 66.4786 31.9217 66.4786 29.1818V13.4262C66.4786 10.6838 68.6986 8.47314 71.4376 8.47314H87.7992V3.51123H71.3996C65.9048 3.51123 61.4517 7.94824 61.4517 13.4266V29.1823C61.4517 34.6611 65.9432 39.1044 71.4376 39.1044L87.7992 39.1111V15.7623H73.7382V20.712H82.8302V34.1514H71.4507Z" fill="#847F7D" fill-opacity="0.26"/>
<path d="M67.6415 29.182C67.6415 31.2812 69.3395 32.9885 71.4345 32.9885H81.6543V21.8844H73.7474V26.8505H76.6819L76.6911 28.0165H73.7697C73.1321 28.0165 72.6101 27.4882 72.6101 26.8505L72.584 15.7591C72.584 15.7591 72.5806 14.6058 73.7567 14.5771H87.8016L87.7953 9.63035L71.4336 9.63373C69.3387 9.63373 67.6406 11.3318 67.6406 13.4267V29.182M103.17 9.55983C103.391 8.92893 103.99 8.47412 104.698 8.47412C105.407 8.47412 106.012 8.92893 106.227 9.55983L114.169 33.0235H102.539L102.552 27.5038H106.438L104.689 22.3041L98.9893 39.1071H93.1267L103.17 9.55983Z" fill="#847F7D" fill-opacity="0.26"/>
<path d="M115.773 34.1516H102.561V39.1071H122.667L112.21 8.16931C111.294 5.15162 108.273 2.93164 104.697 2.93164C101.116 2.93164 98.1046 5.14191 97.1815 8.15706L86.6289 39.1076H91.8928L102.138 9.02191C102.554 8.02573 103.535 7.32388 104.689 7.32388C105.836 7.32388 106.822 8.02573 107.242 9.01558L115.773 34.1516Z" fill="#847F7D" fill-opacity="0.26"/>
</svg>
