<svg width="121" height="35" viewBox="0 0 121 35" fill="none" xmlns="http://www.w3.org/2000/svg">
<path d="M39.5423 10.5532L37.3984 19.1316H41.8831L39.5423 10.5532Z" fill="#847F7D" fill-opacity="0.26"/>
<path d="M13.063 7.12781L16.9736 22.4651L20.801 7.12781H25.0167L18.8318 27.4296H15.1154L9.06923 7.12781H13.063ZM36.7207 7.12781H42.1844L47.9532 27.4573H43.8485L42.4895 22.3819H36.4156C36.4156 22.3819 35.3617 26.4589 35.1398 27.3741C33.9195 27.4573 30.9519 27.3741 30.9519 27.3741L36.7207 7.12781ZM57.799 7.12781H61.7928V24.0182H70.3074V27.4296H57.799V7.12781ZM79.2934 7.12781L83.204 22.2709L87.0036 7.12781H91.1083L84.9512 27.4573H81.3457L75.1887 7.12781H79.2934ZM108.026 7.12781V9.7626H102.563V12.7025H107.555V15.3373H102.563V18.3603H108.026V20.9951H99.5119V7.12781H108.026ZM0 34.4742H120.923V0H0" fill="#847F7D" fill-opacity="0.26"/>
</svg>
