<svg width="46" height="50" viewBox="0 0 46 50" fill="none" xmlns="http://www.w3.org/2000/svg">
<path d="M36.1467 35.514L31.5051 33.9671L29.8388 30.6344C31.3399 29.1064 32.3822 27.0848 32.7337 24.9761L32.9415 23.7305H34.7188C36.3342 23.7305 37.6484 22.4162 37.6484 20.8008V14.6484C37.6484 6.57129 31.0771 0 23 0C14.9021 0 8.35156 6.55244 8.35156 14.6484V20.8008C8.35156 22.0738 9.16807 23.1594 10.3047 23.5625V24.707C10.3047 26.3225 11.6189 27.6367 13.2344 27.6367H14.092C14.5153 28.5563 15.0633 29.4081 15.7301 30.1732C15.8684 30.3322 16.0126 30.4863 16.1604 30.6362L14.4949 33.9671L9.85322 35.5141C4.45625 37.3137 0.539062 42.9952 0.539062 49.0234C0.539062 49.5628 0.97627 50 1.51562 50H44.4844C45.0236 50 45.4609 49.5628 45.4609 49.0234C45.4609 42.9952 41.5438 37.3137 36.1467 35.514ZM35.6953 20.8008C35.6953 21.3393 35.2572 21.7773 34.7188 21.7773H33.2283C33.4766 19.8545 33.642 17.8083 33.7085 15.793C33.7104 15.7361 33.712 15.6809 33.7138 15.625H35.6953V20.8008ZM11.2812 21.7773C10.7428 21.7773 10.3047 21.3393 10.3047 20.8008V15.625H12.2869C12.2901 15.7269 12.2936 15.8292 12.2974 15.9322C12.2975 15.9357 12.2977 15.9392 12.2978 15.9427C12.2978 15.943 12.2978 15.9433 12.2978 15.9436C12.3661 17.9037 12.5294 19.8968 12.772 21.7772H11.2812V21.7773ZM13.2344 25.6836C12.6959 25.6836 12.2578 25.2455 12.2578 24.707V23.7305H13.0584L13.2662 24.9765C13.3059 25.2133 13.3546 25.4492 13.4109 25.6836H13.2344ZM12.2595 13.6719H10.3418C10.8364 7.12685 16.2985 1.95312 23 1.95312C29.6717 1.95312 35.1578 7.12617 35.6581 13.6719H33.7406C33.6703 8.27861 29.2784 3.90625 23.8741 3.90625H22.1261C16.7219 3.90625 12.3297 8.27861 12.2595 13.6719ZM22.126 5.85938H23.874C28.2499 5.85938 31.7916 9.43857 31.7891 13.8096C31.7891 14.1169 31.7866 14.3845 31.7814 14.6279C31.7814 14.6311 31.7813 14.6343 31.7813 14.6375L30.5599 14.463C27.2415 13.9892 24.1083 12.4226 21.7374 10.0517C21.5542 9.86856 21.3059 9.76562 21.0469 9.76562C18.4242 9.76562 15.9137 10.9605 14.2541 12.9793C14.6631 9.00283 18.0247 5.85938 22.126 5.85938ZM15.4355 25.6836C14.9467 24.0573 14.3873 19.2722 14.2637 16.2058L15.578 14.4532C16.7852 12.8442 18.6632 11.8445 20.6609 11.7298C23.2896 14.2313 26.6901 15.8833 30.2837 16.3964L31.7214 16.6019C31.6253 18.6414 31.4289 20.6881 31.1476 22.5704C31.1475 22.571 31.1474 22.5717 31.1473 22.5724C31.0578 23.1775 30.9873 23.567 30.8072 24.6548C30.29 27.7568 27.9754 30.562 24.9198 31.326C23.6623 31.6399 22.3375 31.6398 21.0807 31.326C19.1728 30.849 17.4233 29.5289 16.2943 27.6367H18.2852C18.6883 28.7733 19.7737 29.5898 21.0469 29.5898H23C24.6187 29.5898 25.9297 28.2789 25.9297 26.6602C25.9297 25.0447 24.6154 23.7305 23 23.7305H21.0469C19.7454 23.7305 18.676 24.5711 18.2835 25.6836H15.4355ZM20.9647 33.3023C21.6346 33.4435 22.3175 33.5156 23 33.5156C23.5343 33.5156 24.0687 33.4709 24.597 33.3842L22.8714 35.2091L20.9647 33.3023ZM21.5288 36.6288L18.4313 39.9044C17.5786 38.2722 16.8459 36.5734 16.2449 34.8344L17.4081 32.508L21.5288 36.6288ZM28.4264 32.1771L29.7549 34.8343C29.1529 36.5763 28.42 38.2756 27.5682 39.9059L24.2529 36.5906L28.4264 32.1771ZM20.0703 26.6602C20.0703 26.121 20.5076 25.6836 21.0469 25.6836H23C23.5385 25.6836 23.9766 26.1217 23.9766 26.6602C23.9766 27.1994 23.5392 27.6367 23 27.6367H21.0469C20.5084 27.6367 20.0703 27.1986 20.0703 26.6602ZM2.53125 48.0469C2.91826 43.2091 6.13789 38.8118 10.4709 37.3669L14.5816 35.997C15.3348 38.0795 16.2678 40.1036 17.3612 42.0263C17.3631 42.0296 17.3648 42.0329 17.3667 42.0361L17.3668 42.0363C18.1657 43.4415 19.0649 44.8146 20.0398 46.1183L21.2412 48.0469H2.53125ZM23 47.1764L21.6756 45.0501C21.6607 45.0263 21.6449 45.0031 21.6281 44.9807C20.8373 43.9258 20.0996 42.8226 19.4277 41.6934L22.9104 38.0104L26.5802 41.6801C25.9038 42.8175 25.1636 43.9253 24.3721 44.9805C24.3242 45.0442 24.3921 44.9437 23 47.1764ZM24.7588 48.0469L25.9601 46.1184C26.9393 44.8098 27.8449 43.4256 28.6519 42.0039C28.6567 41.9953 28.6613 41.9865 28.6662 41.9779C28.6668 41.9769 28.6674 41.9759 28.668 41.9748C29.7476 40.0705 30.6708 38.064 31.4184 35.997L35.529 37.3669C39.8621 38.8118 43.0817 43.2091 43.4688 48.0469H24.7588Z" fill="#9D604D"/>
</svg>
