<svg width="51" height="51" viewBox="0 0 51 51" fill="none" xmlns="http://www.w3.org/2000/svg">
<g clip-path="url(#clip0_337_88454)">
<path d="M23.5882 24.5958L21.123 27.0609L15.4883 21.4262L17.9534 18.9611" stroke="#9D604D" stroke-width="2.5" stroke-miterlimit="22.926" stroke-linecap="round" stroke-linejoin="round"/>
<path d="M18.6914 23.8562L20.0383 22.5094" stroke="#9D604D" stroke-width="2.5" stroke-miterlimit="22.926" stroke-linecap="round" stroke-linejoin="round"/>
<path d="M25.5938 11.7487L31.0128 17.1676" stroke="#9D604D" stroke-width="2.5" stroke-miterlimit="22.926" stroke-linecap="round" stroke-linejoin="round"/>
<path d="M24.1484 12.7656L26.6137 10.3004" stroke="#9D604D" stroke-width="2.5" stroke-miterlimit="22.926" stroke-linecap="round" stroke-linejoin="round"/>
<mask id="mask0_337_88454" style="mask-type:luminance" maskUnits="userSpaceOnUse" x="0" y="0" width="51" height="51">
<path d="M0 3.8147e-06H51V51H0V3.8147e-06Z" fill="white"/>
</mask>
<g mask="url(#mask0_337_88454)">
<path d="M10.3008 26.612L11.7095 25.2032C12.4843 24.4284 13.752 24.4284 14.5268 25.2032C15.3017 25.9781 15.3017 27.2458 14.5268 28.0207C15.3017 27.2458 16.5694 27.2458 17.3442 28.0207C18.119 28.7954 18.119 30.0631 17.3442 30.838L15.9355 32.2466L10.3008 26.612Z" stroke="#9D604D" stroke-width="2.5" stroke-miterlimit="22.926" stroke-linecap="round" stroke-linejoin="round"/>
<path d="M13.4531 29.0947L14.5272 28.0206" stroke="#9D604D" stroke-width="2.5" stroke-miterlimit="22.926" stroke-linecap="round" stroke-linejoin="round"/>
<path d="M22.3543 15.0774L21.8248 15.2967C20.8301 15.7088 20.3534 16.8596 20.7655 17.8542C21.1775 18.8488 22.3282 19.3254 23.3228 18.9135L23.8526 18.6942L24.3821 18.4747C25.3767 18.0628 26.5275 18.5395 26.9395 19.5341C27.3515 20.5288 26.8748 21.6795 25.8801 22.0916L25.3506 22.3109" stroke="#9D604D" stroke-width="2.5" stroke-miterlimit="22.926" stroke-linecap="round" stroke-linejoin="round"/>
<path d="M36.419 25.8519C37.1937 26.6266 37.1937 27.8945 36.419 28.6692C35.6442 29.4441 34.3764 29.4441 33.6016 28.6692L30.7843 25.8518C30.0094 25.077 30.0094 23.8092 30.7843 23.0344C31.559 22.2597 32.8268 22.2597 33.6016 23.0344" stroke="#9D604D" stroke-width="2.5" stroke-miterlimit="22.926" stroke-linecap="round" stroke-linejoin="round"/>
<path d="M27.6114 37.4735L21.9766 31.8386L23.3852 30.4299C24.16 29.6552 25.4278 29.6552 26.2025 30.4299C26.9774 31.2047 26.9774 32.4725 26.2025 33.2473L25.0581 34.3919" stroke="#9D604D" stroke-width="2.5" stroke-miterlimit="22.926" stroke-linecap="round" stroke-linejoin="round"/>
<path d="M26.2031 33.2474L30.4294 34.6562" stroke="#9D604D" stroke-width="2.5" stroke-miterlimit="22.926" stroke-linecap="round" stroke-linejoin="round"/>
<path d="M26.9102 26.9083L32.5449 32.543" stroke="#9D604D" stroke-width="2.5" stroke-miterlimit="22.926" stroke-linecap="round" stroke-linejoin="round"/>
<path d="M22.6818 42.4039L17.0469 36.7691L18.4556 35.3604C19.2304 34.5856 20.4981 34.5856 21.2729 35.3604C22.0478 36.1351 22.0478 37.403 21.2729 38.1778L20.1284 39.3223" stroke="#9D604D" stroke-width="2.5" stroke-miterlimit="22.926" stroke-linecap="round" stroke-linejoin="round"/>
<path d="M42.4046 22.6822L39.9394 25.1475L34.3047 19.5128L36.7699 17.0475" stroke="#9D604D" stroke-width="2.5" stroke-miterlimit="22.926" stroke-linecap="round" stroke-linejoin="round"/>
<path d="M37.5078 21.9426L38.8547 20.5957" stroke="#9D604D" stroke-width="2.5" stroke-miterlimit="22.926" stroke-linecap="round" stroke-linejoin="round"/>
<path d="M18.8085 12.4695L30.2824 0.995627H50.004V20.7173L20.7178 50.0035L0.996094 30.2819L12.4694 18.8087" stroke="#9D604D" stroke-width="2.5" stroke-miterlimit="22.926" stroke-linecap="round" stroke-linejoin="round"/>
<path d="M42.0119 5.81851C42.8872 4.94324 44.3062 4.94324 45.1815 5.81851C46.0567 6.69378 46.0567 8.11281 45.1815 8.98808C44.3062 9.86335 42.8872 9.86335 42.0119 8.98808C41.1367 8.11281 41.1367 6.69378 42.0119 5.81851Z" stroke="#9D604D" stroke-width="2.5" stroke-miterlimit="22.926" stroke-linecap="round" stroke-linejoin="round"/>
<path d="M15.6415 15.6384L15.6406 15.6394" stroke="#9D604D" stroke-width="2.5" stroke-miterlimit="2.613" stroke-linecap="round" stroke-linejoin="round"/>
</g>
</g>
<defs>
<clipPath id="clip0_337_88454">
<rect width="51" height="51" fill="white"/>
</clipPath>
</defs>
</svg>
