<svg width="42" height="42" viewBox="0 0 42 42" fill="none" xmlns="http://www.w3.org/2000/svg">
<g id="usa (2) 1">
<g id="Layer 28">
<path id="Vector" d="M37.6914 7.50586H4.87891C3.06672 7.50586 1.59766 8.97493 1.59766 10.7871V31.7871C1.59766 33.5993 3.06672 35.0684 4.87891 35.0684H37.6914C39.5036 35.0684 40.9727 33.5993 40.9727 31.7871V10.7871C40.9727 8.97493 39.5036 7.50586 37.6914 7.50586Z" fill="#E0E0E0"/>
<path id="Vector_2" d="M21.2852 15.3809H40.9727V19.3184H21.2852V15.3809Z" fill="#B73831"/>
<path id="Vector_3" d="M25.2227 17.3496H40.9727V15.3809H23.2539C23.2539 15.903 23.4613 16.4038 23.8305 16.773C24.1998 17.1422 24.7005 17.3496 25.2227 17.3496Z" fill="#D4483F"/>
<path id="Vector_4" d="M25.2227 13.4121H40.9727V11.4434H23.2539C23.2539 11.9655 23.4613 12.4663 23.8305 12.8355C24.1998 13.2047 24.7005 13.4121 25.2227 13.4121Z" fill="#F5F5F5"/>
<path id="Vector_5" d="M25.2227 21.2871H40.9727V19.3184H23.2539C23.2539 19.8405 23.4613 20.3413 23.8305 20.7105C24.1998 21.0797 24.7005 21.2871 25.2227 21.2871Z" fill="#F5F5F5"/>
<g id="Group">
<path id="Vector_6" d="M1.59766 23.2559H40.9727V27.1934H1.59766V23.2559Z" fill="#B73831"/>
<path id="Vector_7" d="M1.59766 31.7871C1.59766 32.6574 1.94336 33.4919 2.55871 34.1073C3.17407 34.7227 4.00866 35.0684 4.87891 35.0684H37.6914C38.5616 35.0684 39.3962 34.7227 40.0116 34.1073C40.627 33.4919 40.9727 32.6574 40.9727 31.7871V31.1309H1.59766V31.7871Z" fill="#B73831"/>
<path id="Vector_8" d="M37.6914 7.50586H21.2852V11.4434H40.9727V10.7871C40.9727 9.91687 40.627 9.08227 40.0116 8.46692C39.3962 7.85156 38.5616 7.50586 37.6914 7.50586Z" fill="#B73831"/>
</g>
<path id="Vector_9" d="M21.2852 23.2559V7.50586H4.87891C4.00866 7.50586 3.17407 7.85156 2.55871 8.46692C1.94336 9.08227 1.59766 9.91687 1.59766 10.7871V23.2559H21.2852Z" fill="#2B66BA"/>
<path id="Vector_10" d="M3.56641 7.78288V18.6621C3.56641 19.3583 3.84297 20.026 4.33525 20.5183C4.82753 21.0105 5.49521 21.2871 6.19141 21.2871H21.2852V7.50586H4.87891C4.42694 7.50631 3.98 7.60065 3.56641 7.78288Z" fill="#3477CC"/>
<path id="Vector_11" d="M5.53371 10.1309L6.14279 11.427L7.50492 11.6348L6.51932 12.6437L6.75196 14.0684L5.53371 13.3958L4.31538 14.0684L4.54811 12.6437L3.5625 11.6348L4.92455 11.427L5.53371 10.1309Z" fill="#E0E0E0"/>
<path id="Vector_12" d="M6.14178 11.4269L5.53516 10.136V13.3971L6.75094 14.0683L6.5183 12.6437L7.50391 11.6348L6.14178 11.4269Z" fill="white"/>
<path id="Vector_13" d="M11.44 10.1309L12.049 11.427L13.4112 11.6348L12.4256 12.6437L12.6582 14.0684L11.44 13.3958L10.2216 14.0684L10.4544 12.6437L9.46875 11.6348L10.8308 11.427L11.44 10.1309Z" fill="#E0E0E0"/>
<path id="Vector_14" d="M12.048 11.4269L11.4414 10.136V13.3971L12.6572 14.0683L12.4246 12.6437L13.4102 11.6348L12.048 11.4269Z" fill="white"/>
<path id="Vector_15" d="M17.3462 10.1309L17.9553 11.427L19.3174 11.6348L18.3318 12.6437L18.5645 14.0684L17.3462 13.3958L16.1279 14.0684L16.3606 12.6437L15.375 11.6348L16.737 11.427L17.3462 10.1309Z" fill="#E0E0E0"/>
<path id="Vector_16" d="M17.9543 11.4269L17.3477 10.136V13.3971L18.5634 14.0683L18.3308 12.6437L19.3164 11.6348L17.9543 11.4269Z" fill="white"/>
<path id="Vector_17" d="M5.53371 16.6934L6.14279 17.9895L7.50492 18.1973L6.51932 19.2062L6.75196 20.6309L5.53371 19.9583L4.31538 20.6309L4.54811 19.2062L3.5625 18.1973L4.92455 17.9895L5.53371 16.6934Z" fill="#E0E0E0"/>
<path id="Vector_18" d="M6.14178 17.9894L5.53516 16.6985V19.9596L6.75094 20.6308L6.5183 19.2062L7.50391 18.1973L6.14178 17.9894Z" fill="white"/>
<path id="Vector_19" d="M11.44 16.6934L12.049 17.9895L13.4112 18.1973L12.4256 19.2062L12.6582 20.6309L11.44 19.9583L10.2216 20.6309L10.4544 19.2062L9.46875 18.1973L10.8308 17.9895L11.44 16.6934Z" fill="#E0E0E0"/>
<path id="Vector_20" d="M12.048 17.9894L11.4414 16.6985V19.9596L12.6572 20.6308L12.4246 19.2062L13.4102 18.1973L12.048 17.9894Z" fill="white"/>
<path id="Vector_21" d="M17.3462 16.6934L17.9553 17.9895L19.3174 18.1973L18.3318 19.2062L18.5645 20.6309L17.3462 19.9583L16.1279 20.6309L16.3606 19.2062L15.375 18.1973L16.737 17.9895L17.3462 16.6934Z" fill="#E0E0E0"/>
<path id="Vector_22" d="M17.9543 17.9894L17.3477 16.6985V19.9596L18.5634 20.6308L18.3308 19.2062L19.3164 18.1973L17.9543 17.9894Z" fill="white"/>
<path id="Vector_23" d="M25.2227 9.47461H40.6956C40.4407 8.88978 40.0207 8.39203 39.487 8.04234C38.9534 7.69265 38.3294 7.50621 37.6914 7.50586H23.2539C23.2539 7.76441 23.3048 8.02042 23.4038 8.25929C23.5027 8.49815 23.6477 8.71519 23.8306 8.898C24.0134 9.08082 24.2304 9.22584 24.4693 9.32477C24.7082 9.4237 24.9642 9.47462 25.2227 9.47461Z" fill="#D4483F"/>
<path id="Vector_24" d="M5.66362 25.2143H40.9727V23.2559H3.56641C3.56641 24.3432 4.44775 25.2246 5.66362 25.2143Z" fill="#D4483F"/>
<path id="Vector_25" d="M3.56641 31.1309C3.56641 32.2182 4.44783 33.0996 5.66378 33.0893H40.7011C40.88 32.6785 40.9725 32.2352 40.9727 31.7871V31.1309H3.56641Z" fill="#D4483F"/>
<path id="Vector_26" d="M5.66362 29.1518H40.9727V27.1934H3.56641C3.56641 28.2807 4.44775 29.1621 5.66362 29.1518Z" fill="#F5F5F5"/>
</g>
</g>
</svg>
