<svg width="33" height="33" viewBox="0 0 33 33" fill="none" xmlns="http://www.w3.org/2000/svg">
<g id="Group 5">
<g id="Group 4">
<g id="Group 2">
<g id="Group 1">
<path id="Ellipse 1" d="M26.5255 20.5163C25.5985 22.7312 23.9504 24.568 21.8486 25.7288C19.7468 26.8896 17.3144 27.3064 14.9461 26.9115C12.5777 26.5166 10.4122 25.3332 8.80068 23.5532C7.18921 21.7732 6.22629 19.5011 6.06808 17.1052C5.90988 14.7094 6.56567 12.3303 7.9291 10.3539C9.29253 8.37748 11.2836 6.91961 13.5795 6.21671C15.8754 5.51381 18.3414 5.60711 20.5776 6.48147C22.8139 7.35583 24.6891 8.95997 25.8993 11.0338L16.6982 16.4033L26.5255 20.5163Z" fill="#FF7347"/>
<g id="Vector">
<path d="M19.5214 11.3496C19.5214 12.0884 18.9224 12.6874 18.1836 12.6874C17.4447 12.6874 16.8457 12.0884 16.8457 11.3496C16.8457 10.6107 17.4447 10.0117 18.1836 10.0117C18.9224 10.0117 19.5214 10.6107 19.5214 11.3496Z" fill="white"/>
<path d="M19.5214 11.3496C19.5214 12.0884 18.9224 12.6874 18.1836 12.6874C17.4447 12.6874 16.8457 12.0884 16.8457 11.3496C16.8457 10.6107 17.4447 10.0117 18.1836 10.0117C18.9224 10.0117 19.5214 10.6107 19.5214 11.3496Z" fill="white"/>
<path d="M21.8254 24.5736C23.384 23.8182 24.6064 22.5107 25.2555 20.9049L24.2317 20.491C23.6852 21.843 23.1376 23.9376 21.8254 24.5736Z" fill="white"/>
<path d="M21.8254 24.5736C23.384 23.8182 24.6064 22.5107 25.2555 20.9049L24.2317 20.491C23.6852 21.843 23.1376 23.9376 21.8254 24.5736Z" fill="white"/>
<path d="M18.6566 18.0824L25.1349 20.864L24.7439 21.7746L18.6566 18.0824Z" fill="white"/>
<path d="M18.6566 18.0824L25.1349 20.864L24.7439 21.7746L18.6566 18.0824Z" fill="white"/>
</g>
</g>
<path id="Ellipse 3" d="M31.4012 9.41381C29.6435 5.71777 26.5749 2.80687 22.7914 1.24641C19.0078 -0.314042 14.7794 -0.412679 10.9272 0.969659C7.07498 2.352 3.874 5.11665 1.94587 8.72671C0.0177303 12.3368 -0.499939 16.5346 0.493391 20.5049C1.48672 24.4752 3.92015 27.9347 7.3211 30.2115C10.7221 32.4883 14.8478 33.4199 18.8971 32.8254C22.9464 32.2309 26.6302 30.1527 29.2332 26.9944C31.8362 23.8361 33.1725 19.647 32.9827 15.5587H29.6726C28.9373 15.5587 21.9012 15.5587 21.9012 15.5587C21.9012 15.5587 28.6471 18.8291 29.3626 19.1759C28.9115 21.2692 27.9983 23.2826 26.6761 24.8869C24.5959 27.4109 21.6518 29.0718 18.4157 29.5469C15.1796 30.022 11.8825 29.2775 9.16449 27.4579C6.44653 25.6384 4.50179 22.8737 3.70795 19.7007C2.9141 16.5277 3.32781 13.1729 4.86873 10.2878C6.40965 7.40274 8.9678 5.1933 12.0464 4.08856C15.125 2.98383 18.5042 3.06266 21.528 4.30974C24.5517 5.55682 27.0866 8.09589 28.4913 11.0497L31.4012 9.41381Z" fill="#FFFEFC"/>
</g>
</g>
</g>
</svg>
