<svg width="21" height="21" viewBox="0 0 21 21" fill="none" xmlns="http://www.w3.org/2000/svg">
<g clip-path="url(#clip0_402_17870)">
<path d="M11.2035 10.1414L15.9293 16.901H13.9898L10.1335 11.3852V11.3848L9.56732 10.5751L5.0625 4.13135H7.00196L10.6373 9.33171L11.2035 10.1414Z" fill="#847F7D"/>
<path d="M18.7309 0H2.2691C1.01594 0 0 1.01594 0 2.2691V18.7309C0 19.9841 1.01594 21 2.2691 21H18.7309C19.9841 21 21 19.9841 21 18.7309V2.2691C21 1.01594 19.9841 0 18.7309 0ZM13.3945 17.8084L9.4921 12.129L4.60631 17.8084H3.34357L8.93142 11.3133L3.34357 3.18081H7.60553L11.3008 8.55883L15.9273 3.18081H17.1901L11.8617 9.37469H11.8613L17.6564 17.8084H13.3945Z" fill="#847F7D"/>
</g>
<defs>
<clipPath id="clip0_402_17870">
<rect width="21" height="21" fill="white"/>
</clipPath>
</defs>
</svg>
