<svg width="46" height="41" viewBox="0 0 46 41" fill="none" xmlns="http://www.w3.org/2000/svg">
<path d="M34.3982 20.2839C32.2544 25.0048 27.843 27.4756 23.1313 27.4185C14.0933 26.9836 11.4643 16.8574 17.5042 13.2016L17.77 13.4593C17.6669 13.5905 17.3165 13.8663 16.7516 14.9385C16.0936 16.2413 15.893 17.5398 15.9708 18.352C16.4411 25.4307 26.6484 26.8703 30.1643 19.8727C34.6397 10.2742 22.7773 0.526007 12.2451 7.97626L12.0018 7.74051C14.7721 3.52325 20.1852 1.63588 25.3552 2.89704C33.261 4.81447 37.505 12.8149 34.3984 20.2838L34.3982 20.2839ZM25.9481 20.1318C25.2163 21.1539 23.9976 21.8232 22.6177 21.8232C20.3793 21.8232 18.565 20.0629 18.565 17.8913C18.565 15.8157 20.2227 14.116 22.3237 13.9699C23.6321 13.9189 24.8513 14.6049 25.4318 15.7171C26.0575 16.9163 25.8286 18.3955 24.8538 19.3929L25.9481 20.1318ZM11.8093 17.5351C11.6139 19.0967 11.7356 19.5843 11.7352 19.7699L11.3777 19.8961C11.2424 19.6393 10.8991 18.7344 10.7478 17.5185C10.3609 12.8759 13.6215 8.69226 18.585 7.91353C23.1371 7.26436 27.4896 10.0073 28.509 13.8466L28.1505 13.9733C28.044 13.8589 27.8538 13.5483 27.1658 12.8717C21.676 7.52075 13.0476 9.97501 11.8093 17.5351ZM37.8462 14.9605C37.5212 -0.382143 16.5165 -6.10014 8.42974 8.2772C8.78712 8.52798 9.28156 8.86746 9.63894 9.11825C9.01941 10.3806 8.60639 11.6664 8.38044 12.9482C8.22081 13.8028 8.14067 14.6695 8.14096 15.538C8.14096 23.4998 14.7935 29.954 23 29.954C31.2065 29.954 37.859 23.4998 37.859 15.5379C37.859 15.3445 37.854 15.1522 37.8462 14.9605ZM46 34.3329H43.6285V40.8591H41.7895V34.3329H39.406V32.6426H46V34.3329ZM34.7439 34.3329V36.2344H38.3374V37.596H34.7439V40.8591H32.9052V32.6426H38.7004V34.3329H34.7439ZM30.2921 36.7508C30.2921 35.2719 29.3243 34.1919 27.8481 34.1919C26.9892 34.1919 26.3478 34.5089 25.9607 34.9197L26.2512 35.2015C25.8034 35.5653 25.4042 36.0702 25.4042 36.9739C25.4042 38.2181 26.3116 39.3096 27.8482 39.3096C29.3243 39.3096 30.2922 38.2299 30.2922 36.7508H30.2921ZM32.1553 36.7508C32.1553 39.1689 30.3646 41 27.8482 41C25.2712 41 23.5411 39.2041 23.5411 37.0326C23.5411 35.6239 24.1096 34.6026 24.9444 33.9336L24.6542 33.652C25.2954 33.0064 26.4688 32.5017 27.8482 32.5017C30.3646 32.5017 32.1553 34.3562 32.1553 36.7508ZM20.8278 35.9644C22.2796 36.4575 23.0297 37.0913 23.0297 38.3589C23.0297 40.061 21.6868 41 20.1019 41C18.6379 41 17.5127 40.3663 17.0409 39.1923L18.5048 38.136C18.771 38.8755 19.4606 39.3332 20.1503 39.3332C20.7551 39.3332 21.1909 39.0161 21.1909 38.4881C21.1909 37.9951 20.864 37.6899 19.6541 37.2674C18.3475 36.8095 17.3796 36.1757 17.3796 34.8142C17.3796 33.4995 18.5048 32.5018 20.1382 32.5018C21.4327 32.5018 22.437 33.0064 22.9089 34.004L21.4447 34.9901C21.1665 34.3797 20.7311 34.0394 20.0656 34.0394C19.509 34.0394 19.0977 34.3329 19.0977 34.7554C19.0977 35.2365 19.5574 35.53 20.8278 35.9644ZM14.5445 32.6426H16.3834V40.8591H14.5445V32.6426ZM10.7588 39.2862C11.5451 39.2862 11.9928 38.9341 11.9928 38.2534C11.9928 37.5725 11.5451 37.2205 10.7588 37.2205H9.74262V39.2862H10.7588ZM9.74262 34.2155V35.9526H10.7105C11.279 35.9526 11.6663 35.6357 11.6663 35.084C11.6663 34.5324 11.279 34.2155 10.7105 34.2155H9.74262ZM13.832 38.4177C13.832 39.8379 12.6825 40.8591 10.8315 40.8591H7.90346V32.6426H10.7228C12.356 32.6426 13.4329 33.4054 13.4329 34.6261C13.4329 35.5536 12.9852 36.1169 12.3198 36.3869C13.215 36.7156 13.832 37.3144 13.832 38.4177ZM6.99318 32.6426V37.5725C6.99318 39.5329 5.75905 41 3.49659 41C1.23413 41 0 39.5329 0 37.5724V32.6426H1.83901V37.4316C1.83901 38.6288 2.41981 39.3097 3.49659 39.3097C4.57338 39.3097 5.15403 38.629 5.15403 37.4316V32.6426H6.99318Z" fill="#847F7D" fill-opacity="0.26"/>
</svg>
