<svg width="52" height="52" viewBox="0 0 52 52" fill="none" xmlns="http://www.w3.org/2000/svg">
<g id="tags 1">
<path id="Vector" d="M48.0847 19.55L28.5478 0.0131836L10.6143 1.95668L11.0802 6.26402L26.951 4.54585L45.021 22.6137C45.6623 23.255 45.6623 24.2972 44.995 24.9624L42.9107 27.116L24.0455 8.25085L4.24867 10.957L2.0625 30.7235L21.5907 50.2495C22.7195 51.3783 24.2188 52.0002 25.8157 52.0002C27.4125 52.0002 28.914 51.3783 30.0667 50.2257L43.5953 36.2528C45.0362 34.812 45.58 32.8122 45.2398 30.9424L48.0868 28.0022C50.416 25.6709 50.4138 21.8792 48.0847 19.55ZM12.9977 21.6669C11.8017 21.6669 10.831 20.6962 10.831 19.5002C10.831 18.3042 11.8017 17.3335 12.9977 17.3335C14.1937 17.3335 15.1643 18.3042 15.1643 19.5002C15.1643 20.6962 14.1937 21.6669 12.9977 21.6669Z" fill="#847F7D"/>
</g>
</svg>
