<svg width="24" height="16" viewBox="0 0 24 16" fill="none" xmlns="http://www.w3.org/2000/svg">
<g id="australia 1">
<g clip-path="url(#clip0_807_1976)">
<path id="Vector" d="M23.5862 15.9869H0.413813C0.185297 15.9869 0 15.7987 0 15.5666V0.433564C0 0.201421 0.185297 0.0131836 0.413813 0.0131836H23.5862C23.8148 0.0131836 24 0.201421 24 0.433564V15.5666C24 15.7988 23.8147 15.9869 23.5862 15.9869Z" fill="#41479B"/>
<path id="Vector_2" d="M11.5862 0.0131836H10.8674L7.03444 2.56433V0.0131836H4.96547V2.56433L1.1325 0.0131836H0.413813C0.185297 0.0131836 0 0.201374 0 0.433517V0.766946L3.28852 2.95566H0V5.05747H3.28852L0 7.24623V7.57966C0 7.8118 0.185297 8.00004 0.413813 8.00004H1.13259L4.96556 5.4489V8.00004H7.03453V5.4489L10.8675 8.00004H11.5862C11.8148 8.00004 12 7.8118 12 7.57966V7.24623L8.71153 5.05752H12V2.95571H8.71148L12 0.766993V0.433565C12 0.201374 11.8147 0.0131836 11.5862 0.0131836Z" fill="#F5F5F5"/>
<g id="Group">
<path id="Vector_3" d="M12 3.37609H6.62067V0.0131836H5.37933V3.37609H0V4.63714H5.37933V8.00004H6.62067V4.63714H12V3.37609Z" fill="#FF4B55"/>
<path id="Vector_4" d="M4.5517 2.95595L0.197203 0.0844727C0.0813281 0.158949 0 0.284139 0 0.433758V0.455568L3.79167 2.95595H4.5517Z" fill="#FF4B55"/>
<path id="Vector_5" d="M7.79128 2.95571L11.9338 0.223993C11.8618 0.100231 11.7348 0.0131836 11.583 0.0131836H11.4935L7.03125 2.95571H7.79128Z" fill="#FF4B55"/>
<path id="Vector_6" d="M4.19711 5.05762L0.0625 7.78409C0.133797 7.91086 0.262797 8.00014 0.416828 8.00014H0.494875L4.95719 5.05762H4.19711Z" fill="#FF4B55"/>
<path id="Vector_7" d="M11.9944 7.61276L8.11941 5.05762H7.35938L11.7597 7.95928C11.8915 7.89714 11.982 7.7669 11.9944 7.61276Z" fill="#FF4B55"/>
</g>
<g id="Group_2">
<path id="Vector_8" d="M6.12178 10.2921L6.43411 11.3396L7.43503 10.9346C7.52044 10.9 7.59806 10.999 7.54594 11.0758L6.9345 11.977L7.87022 12.5194C7.95005 12.5657 7.92235 12.689 7.83066 12.6956L6.75586 12.7718L6.92185 13.8532C6.936 13.9455 6.82378 14.0004 6.76163 13.9316L6.03281 13.1255L5.304 13.9316C5.24185 14.0004 5.12963 13.9455 5.14378 13.8532L5.30977 12.7718L4.23497 12.6956C4.14328 12.689 4.11558 12.5657 4.19541 12.5194L5.13113 11.977L4.51969 11.0758C4.46756 10.999 4.54519 10.9 4.6306 10.9346L5.63152 11.3396L5.94385 10.2921C5.97061 10.2028 6.09516 10.2028 6.12178 10.2921Z" fill="#F5F5F5"/>
<path id="Vector_9" d="M18.4328 2.84427L18.5854 3.35594L19.0743 3.15813C19.116 3.14127 19.154 3.18956 19.1285 3.22713L18.8298 3.66737L19.2869 3.93237C19.3259 3.95494 19.3124 4.01523 19.2676 4.01837L18.7426 4.05561L18.8236 4.58385C18.8305 4.62894 18.7757 4.65575 18.7453 4.62213L18.3893 4.22837L18.0333 4.62213C18.0029 4.6557 17.9481 4.62889 17.955 4.58385L18.0361 4.05561L17.5111 4.01837C17.4662 4.01523 17.4527 3.95494 17.4917 3.93237L17.9488 3.66737L17.6501 3.22713C17.6246 3.18956 17.6626 3.14127 17.7043 3.15813L18.1932 3.35594L18.3458 2.84427C18.359 2.80061 18.4199 2.80061 18.4328 2.84427Z" fill="#F5F5F5"/>
<path id="Vector_10" d="M15.0266 6.77152L15.1792 7.28319L15.6681 7.08538C15.7098 7.06852 15.7477 7.11681 15.7222 7.15438L15.4236 7.59462L15.8807 7.85962C15.9197 7.88219 15.9061 7.94247 15.8613 7.94562L15.3363 7.98285L15.4173 8.51109C15.4243 8.55619 15.3694 8.583 15.3391 8.54938L14.9831 8.15562L14.627 8.54938C14.5967 8.58295 14.5419 8.55614 14.5488 8.51109L14.6298 7.98285L14.1048 7.94562C14.06 7.94247 14.0464 7.88219 14.0854 7.85962L14.5425 7.59462L14.2439 7.15438C14.2184 7.11681 14.2563 7.06852 14.298 7.08538L14.7869 7.28319L14.9395 6.77152C14.9527 6.72785 15.0136 6.72785 15.0266 6.77152Z" fill="#F5F5F5"/>
<path id="Vector_11" d="M21.6516 5.09037L21.8041 5.60203L22.293 5.40422C22.3347 5.38737 22.3727 5.43565 22.3472 5.47322L22.0485 5.91346L22.5056 6.17846C22.5446 6.20103 22.5311 6.26132 22.4863 6.26446L21.9613 6.3017L22.0423 6.82994C22.0492 6.87503 21.9944 6.90184 21.9641 6.86822L21.6081 6.47446L21.252 6.86822C21.2217 6.9018 21.1669 6.87499 21.1738 6.82994L21.2548 6.3017L20.7298 6.26446C20.685 6.26132 20.6714 6.20103 20.7104 6.17846L21.1675 5.91346L20.8689 5.47322C20.8434 5.43565 20.8813 5.38737 20.923 5.40422L21.4119 5.60203L21.5645 5.09037C21.5777 5.0467 21.6385 5.0467 21.6516 5.09037Z" fill="#F5F5F5"/>
<path id="Vector_12" d="M18.4328 11.816L18.5854 12.3276L19.0743 12.1298C19.116 12.1129 19.154 12.1612 19.1285 12.1988L18.8298 12.639L19.2869 12.904C19.3259 12.9266 19.3124 12.9869 19.2676 12.99L18.7426 13.0272L18.8236 13.5555C18.8305 13.6006 18.7757 13.6274 18.7453 13.5938L18.3893 13.2L18.0333 13.5938C18.0029 13.6273 17.9481 13.6005 17.955 13.5555L18.0361 13.0272L17.5111 12.99C17.4662 12.9869 17.4527 12.9266 17.4917 12.904L17.9488 12.639L17.6501 12.1988C17.6246 12.1612 17.6626 12.1129 17.7043 12.1298L18.1932 12.3276L18.3458 11.816C18.359 11.7723 18.4199 11.7723 18.4328 11.816Z" fill="#F5F5F5"/>
<path id="Vector_13" d="M19.6084 7.69104L19.4859 8.06418L19.0987 8.06723C19.0486 8.06765 19.0278 8.13261 19.0682 8.16284L19.3796 8.39651L19.2628 8.77151C19.2477 8.82008 19.3021 8.86023 19.3429 8.83061L19.6579 8.60189L19.9729 8.83061C20.0136 8.86023 20.068 8.82004 20.0529 8.77151L19.9361 8.39651L20.2475 8.16284C20.2879 8.13256 20.2671 8.06765 20.217 8.06723L19.8298 8.06418L19.7074 7.69104C19.6915 7.6427 19.6242 7.6427 19.6084 7.69104Z" fill="#F5F5F5"/>
</g>
</g>
</g>
<defs>
<clipPath id="clip0_807_1976">
<rect width="24" height="16" rx="8" fill="white"/>
</clipPath>
</defs>
</svg>
