<svg width="12" height="12" viewBox="0 0 12 12" fill="none" xmlns="http://www.w3.org/2000/svg">
<g id="users 1" clip-path="url(#clip0_807_2064)">
<path id="Vector" d="M3.75 6.5C3.30499 6.5 2.86998 6.36804 2.49997 6.12081C2.12996 5.87358 1.84157 5.52217 1.67127 5.11104C1.50097 4.69991 1.45642 4.24751 1.54323 3.81105C1.63005 3.37459 1.84434 2.97368 2.15901 2.65901C2.47368 2.34434 2.87459 2.13005 3.31105 2.04323C3.7475 1.95642 4.1999 2.00098 4.61104 2.17127C5.02217 2.34157 5.37357 2.62996 5.62081 2.99997C5.86804 3.36998 6 3.80499 6 4.25C5.99934 4.84654 5.76207 5.41845 5.34026 5.84026C4.91845 6.26207 4.34653 6.49934 3.75 6.5ZM7 12H0.5C0.367392 12 0.240215 11.9473 0.146447 11.8536C0.0526784 11.7598 0 11.6326 0 11.5V11.25C0 10.2554 0.395088 9.30161 1.09835 8.59835C1.80161 7.89509 2.75544 7.5 3.75 7.5C4.74456 7.5 5.69839 7.89509 6.40165 8.59835C7.10491 9.30161 7.5 10.2554 7.5 11.25V11.5C7.5 11.6326 7.44732 11.7598 7.35355 11.8536C7.25979 11.9473 7.13261 12 7 12ZM8.75 4.5C8.30499 4.5 7.86998 4.36804 7.49997 4.12081C7.12996 3.87357 6.84157 3.52217 6.67127 3.11104C6.50097 2.69991 6.45642 2.24751 6.54323 1.81105C6.63005 1.37459 6.84434 0.973679 7.15901 0.659011C7.47368 0.344343 7.87459 0.130051 8.31105 0.0432341C8.7475 -0.0435826 9.1999 0.000974894 9.61104 0.171272C10.0222 0.341569 10.3736 0.629957 10.6208 0.999968C10.868 1.36998 11 1.80499 11 2.25C10.9993 2.84654 10.7621 3.41845 10.3403 3.84026C9.91845 4.26207 9.34653 4.49934 8.75 4.5ZM8.0395 5.5105C7.57381 5.57298 7.12605 5.73095 6.72425 5.97453C6.32246 6.2181 5.97529 6.54202 5.7045 6.926C6.82495 7.43483 7.70531 8.35711 8.1615 9.5H11.5C11.6326 9.5 11.7598 9.44732 11.8536 9.35356C11.9473 9.25979 12 9.13261 12 9V8.981C11.9995 8.4826 11.8926 7.99005 11.6866 7.53623C11.4806 7.0824 11.1802 6.67775 10.8053 6.34928C10.4305 6.02081 9.98986 5.77609 9.51291 5.63144C9.03597 5.4868 8.53365 5.44557 8.0395 5.5105Z" fill="#847F7D"/>
</g>
<defs>
<clipPath id="clip0_807_2064">
<rect width="12" height="12" fill="white"/>
</clipPath>
</defs>
</svg>
