<svg width="41" height="41" viewBox="0 0 41 41" fill="none" xmlns="http://www.w3.org/2000/svg">
<g id="g5340">
<g id="g5342">
<g id="Clip path group">
<mask id="mask0_3042_52931" style="mask-type:luminance" maskUnits="userSpaceOnUse" x="0" y="0" width="41" height="41">
<g id="clipPath5348">
<path id="path5346" d="M0 -3.8147e-06H41V41H0V-3.8147e-06Z" fill="white"/>
</g>
</mask>
<g mask="url(#mask0_3042_52931)">
<g id="g5344">
<g id="g5350">
<path id="path5352" d="M11.7897 19.9727H2.88003C1.72955 19.9727 0.796875 19.04 0.796875 17.8895V2.88278C0.796875 1.7323 1.72955 0.799629 2.88003 0.799629H32.4466L36.7709 5.12393" stroke="#C3B8A2" stroke-width="2" stroke-miterlimit="10" stroke-linecap="round" stroke-linejoin="round"/>
</g>
<g id="g5354">
<path id="path5356" d="M27.24 31.6416L19.2925 39.5891C18.479 40.4026 17.16 40.4026 16.3465 39.5891L5.7352 28.9777C4.9216 28.1642 4.9216 26.8452 5.7352 26.0317L26.6419 5.12498H37.9878L40.1992 7.3365V18.6824L32.3361 26.5455" stroke="#C3B8A2" stroke-width="2" stroke-miterlimit="10" stroke-linecap="round" stroke-linejoin="round"/>
</g>
<g id="g5358">
<path id="path5360" d="M22.1016 18.3587L26.6315 22.8887L28.4434 21.0767" stroke="#C3B8A2" stroke-width="2" stroke-miterlimit="10" stroke-linecap="round" stroke-linejoin="round"/>
</g>
<g id="g5362">
<path id="path5364" d="M32.2873 17.227L30.7018 18.8125L26.1719 14.2826L27.7573 12.6971" stroke="#C3B8A2" stroke-width="2" stroke-miterlimit="10" stroke-linecap="round" stroke-linejoin="round"/>
</g>
<g id="g5366">
<path id="path5368" d="M28.4375 16.5469L30.023 14.9614" stroke="#C3B8A2" stroke-width="2" stroke-miterlimit="10" stroke-linecap="round" stroke-linejoin="round"/>
</g>
<g id="g5370">
<path id="path5372" d="M24.3615 25.1532L18.3594 22.0955L21.417 28.0977" stroke="#C3B8A2" stroke-width="2" stroke-miterlimit="10" stroke-linecap="round" stroke-linejoin="round"/>
</g>
<g id="g5374">
<path id="path5376" d="M20.9688 27.0371L23.311 24.6948" stroke="#C3B8A2" stroke-width="2" stroke-miterlimit="10" stroke-linecap="round" stroke-linejoin="round"/>
</g>
<g id="g5378">
<path id="path5380" d="M15.8169 29.1707L15.7575 29.2302C15.1321 29.8556 14.118 29.8556 13.4926 29.2302C12.8671 28.6047 12.8671 27.5906 13.4926 26.9652L14.625 25.8327" stroke="#C3B8A2" stroke-width="2" stroke-miterlimit="10" stroke-linecap="round" stroke-linejoin="round"/>
</g>
<g id="g5382">
<path id="path5384" d="M16.8903 32.6289L18.0227 31.4964C18.6482 30.871 18.6482 29.8569 18.0227 29.2315C17.3973 28.606 16.3832 28.606 15.7578 29.2315" stroke="#C3B8A2" stroke-width="2" stroke-miterlimit="10" stroke-linecap="round" stroke-linejoin="round"/>
</g>
<g id="g5386">
<path id="path5388" d="M36.6719 10.25C36.6719 11.1345 35.9549 11.8516 35.0703 11.8516C34.1858 11.8516 33.4688 11.1345 33.4688 10.25C33.4688 9.36546 34.1858 8.64844 35.0703 8.64844C35.9549 8.64844 36.6719 9.36546 36.6719 10.25Z" stroke="#C3B8A2" stroke-width="2" stroke-miterlimit="10" stroke-linecap="round" stroke-linejoin="round"/>
</g>
<g id="g5390">
<path id="path5392" d="M8.15625 15.0156L13.3214 5.86638" stroke="#C3B8A2" stroke-width="2" stroke-miterlimit="10" stroke-linecap="round" stroke-linejoin="round"/>
</g>
<g id="g5394">
<path id="path5396" d="M15.9771 13.5662C15.9771 12.6815 15.2599 11.9644 14.3753 11.9644C13.4906 11.9644 12.7734 12.6815 12.7734 13.5662C12.7734 14.4509 13.4906 15.168 14.3753 15.168C15.2599 15.168 15.9771 14.4509 15.9771 13.5662Z" stroke="#C3B8A2" stroke-width="2" stroke-miterlimit="10" stroke-linecap="round" stroke-linejoin="round"/>
</g>
<g id="g5398">
<path id="path5400" d="M9.21931 7.20679C9.21931 6.32209 8.50213 5.60499 7.61751 5.60499C6.7328 5.60499 6.01562 6.32209 6.01562 7.20679C6.01562 8.09149 6.7328 8.80859 7.61751 8.80859C8.50213 8.80859 9.21931 8.09149 9.21931 7.20679Z" stroke="#C3B8A2" stroke-width="2" stroke-miterlimit="10" stroke-linecap="round" stroke-linejoin="round"/>
</g>
<g id="g5402">
<path id="path5404" d="M36.1953 9.12891L40.1994 5.12484" stroke="#C3B8A2" stroke-width="2" stroke-miterlimit="10" stroke-linecap="round" stroke-linejoin="round"/>
</g>
</g>
</g>
</g>
</g>
</g>
</svg>
