<svg width="37" height="37" viewBox="0 0 37 37" fill="none" xmlns="http://www.w3.org/2000/svg">
<g id="best-price 1" clip-path="url(#clip0_3042_53050)">
<g id="g8334">
<g id="g8336">
<path id="path8338" d="M17.1108 17.8444L15.3223 19.6328L11.2344 15.5449L13.0228 13.7565" stroke="#EBE2D0" stroke-width="2" stroke-miterlimit="22.926" stroke-linecap="round" stroke-linejoin="round"/>
</g>
<g id="g8340">
<path id="path8342" d="M13.5625 17.3086L14.5397 16.3315" stroke="#EBE2D0" stroke-width="2" stroke-miterlimit="22.926" stroke-linecap="round" stroke-linejoin="round"/>
</g>
<g id="g8344">
<path id="path8346" d="M18.5703 8.52368L22.5018 12.4551" stroke="#EBE2D0" stroke-width="2" stroke-miterlimit="22.926" stroke-linecap="round" stroke-linejoin="round"/>
</g>
<g id="g8348">
<path id="path8350" d="M17.5156 9.26172L19.3041 7.47322" stroke="#EBE2D0" stroke-width="2" stroke-miterlimit="22.926" stroke-linecap="round" stroke-linejoin="round"/>
</g>
<g id="g8352">
<g id="Clip path group">
<mask id="mask0_3042_53050" style="mask-type:luminance" maskUnits="userSpaceOnUse" x="0" y="0" width="37" height="37">
<g id="clipPath8358">
<path id="path8356" d="M0 3.8147e-06H37V37H0V3.8147e-06Z" fill="white"/>
</g>
</mask>
<g mask="url(#mask0_3042_53050)">
<g id="g8354">
<g id="g8360">
<path id="path8362" d="M7.46875 19.3067L8.49073 18.2846C9.05288 17.7225 9.97261 17.7225 10.5347 18.2846C11.0968 18.8468 11.0968 19.7665 10.5347 20.3287C11.0968 19.7665 12.0166 19.7665 12.5787 20.3287C13.1408 20.8907 13.1408 21.8105 12.5787 22.3726L11.5567 23.3945L7.46875 19.3067Z" stroke="#EBE2D0" stroke-width="2" stroke-miterlimit="22.926" stroke-linecap="round" stroke-linejoin="round"/>
</g>
<g id="g8364">
<path id="path8366" d="M9.75781 21.1094L10.5371 20.3301" stroke="#EBE2D0" stroke-width="2" stroke-miterlimit="22.926" stroke-linecap="round" stroke-linejoin="round"/>
</g>
<g id="g8368">
<path id="path8370" d="M16.2134 10.9396L15.8292 11.0988C15.1076 11.3977 14.7617 12.2326 15.0607 12.9542C15.3596 13.6758 16.1945 14.0216 16.9161 13.7227L17.3004 13.5636L17.6845 13.4043C18.4061 13.1055 19.241 13.4514 19.5399 14.173C19.8388 14.8946 19.493 15.7294 18.7713 16.0284L18.3872 16.1875" stroke="#EBE2D0" stroke-width="2" stroke-miterlimit="22.926" stroke-linecap="round" stroke-linejoin="round"/>
</g>
<g id="g8372">
<path id="path8374" d="M26.4158 18.7551C26.9779 19.3172 26.9779 20.237 26.4158 20.7991C25.8537 21.3612 24.9339 21.3612 24.3718 20.7991L22.3279 18.7551C21.7657 18.193 21.7657 17.2732 22.3279 16.7111C22.8899 16.149 23.8097 16.149 24.3718 16.7111" stroke="#EBE2D0" stroke-width="2" stroke-miterlimit="22.926" stroke-linecap="round" stroke-linejoin="round"/>
</g>
<g id="g8376">
<path id="path8378" d="M20.0255 27.1875L15.9375 23.0994L16.9595 22.0775C17.5216 21.5154 18.4414 21.5154 19.0034 22.0775C19.5655 22.6395 19.5655 23.5593 19.0034 24.1214L18.1731 24.9518" stroke="#EBE2D0" stroke-width="2" stroke-miterlimit="22.926" stroke-linecap="round" stroke-linejoin="round"/>
</g>
<g id="g8380">
<path id="path8382" d="M19.0078 24.1205L22.0739 25.1426" stroke="#EBE2D0" stroke-width="2" stroke-miterlimit="22.926" stroke-linecap="round" stroke-linejoin="round"/>
</g>
<g id="g8384">
<path id="path8386" d="M19.5156 19.5215L23.6035 23.6094" stroke="#EBE2D0" stroke-width="2" stroke-miterlimit="22.926" stroke-linecap="round" stroke-linejoin="round"/>
</g>
<g id="g8388">
<path id="path8390" d="M16.4474 30.7637L12.3594 26.6757L13.3814 25.6536C13.9435 25.0915 14.8632 25.0915 15.4253 25.6536C15.9875 26.2157 15.9875 27.1356 15.4253 27.6977L14.595 28.528" stroke="#EBE2D0" stroke-width="2" stroke-miterlimit="22.926" stroke-linecap="round" stroke-linejoin="round"/>
</g>
<g id="g8392">
<path id="path8394" d="M30.7592 16.4556L28.9707 18.2441L24.8828 14.1562L26.6713 12.3677" stroke="#EBE2D0" stroke-width="2" stroke-miterlimit="22.926" stroke-linecap="round" stroke-linejoin="round"/>
</g>
<g id="g8396">
<path id="path8398" d="M27.2031 15.9199L28.1803 14.9427" stroke="#EBE2D0" stroke-width="2" stroke-miterlimit="22.926" stroke-linecap="round" stroke-linejoin="round"/>
</g>
<g id="g8400">
<path id="path8402" d="M13.6415 9.04679L21.9657 0.722583H36.2735V15.0305L15.0266 36.2773L0.71875 21.9695L9.04252 13.6458" stroke="#EBE2D0" stroke-width="2" stroke-miterlimit="22.926" stroke-linecap="round" stroke-linejoin="round"/>
</g>
<g id="g8404">
<path id="path8406" d="M30.4762 4.22035C31.1112 3.58536 32.1407 3.58536 32.7757 4.22035C33.4107 4.85535 33.4107 5.88485 32.7757 6.51985C32.1407 7.15484 31.1112 7.15484 30.4762 6.51985C29.8413 5.88485 29.8413 4.85535 30.4762 4.22035Z" stroke="#EBE2D0" stroke-width="2" stroke-miterlimit="22.926" stroke-linecap="round" stroke-linejoin="round"/>
</g>
<g id="g8408">
<path id="path8410" d="M11.3446 11.3467L11.3438 11.3477" stroke="#EBE2D0" stroke-width="2" stroke-miterlimit="2.613" stroke-linecap="round" stroke-linejoin="round"/>
</g>
</g>
</g>
</g>
</g>
</g>
</g>
<defs>
<clipPath id="clip0_3042_53050">
<rect width="37" height="37" fill="white"/>
</clipPath>
</defs>
</svg>
