<svg width="18" height="18" viewBox="0 0 18 18" fill="none" xmlns="http://www.w3.org/2000/svg">
<g id="smile-face (1) 1" clip-path="url(#clip0_2837_51808)">
<g id="Group">
<path id="Vector" d="M9 0C4.0299 0 0 4.02937 0 9C0 13.9706 4.0299 18 9 18C13.9712 18 18 13.9706 18 9C18 4.02937 13.9712 0 9 0ZM12.3215 6.0028C13.0331 6.0028 13.6106 6.58038 13.6106 7.29197C13.6106 8.00356 13.0325 8.58114 12.3215 8.58114C11.6099 8.58114 11.0323 8.00356 11.0323 7.29197C11.0323 6.58038 11.6099 6.0028 12.3215 6.0028ZM5.67801 6.0028C6.39013 6.0028 6.96718 6.58038 6.96718 7.29197C6.96718 8.00356 6.39013 8.58114 5.67801 8.58114C4.96642 8.58114 4.38885 8.00356 4.38885 7.29197C4.38885 6.58038 4.96695 6.0028 5.67801 6.0028ZM13.8561 12.1291C12.7535 13.7299 10.9377 14.6854 9 14.6854C7.06126 14.6854 5.24496 13.7299 4.14394 12.1286C3.89693 11.7702 3.98785 11.2793 4.3468 11.0323C4.70575 10.7848 5.19609 10.8762 5.4431 11.2352C6.25034 12.4087 7.5805 13.1087 9.00053 13.1087C10.4206 13.1087 11.7497 12.4087 12.559 11.2352C12.806 10.8773 13.2958 10.7863 13.6553 11.0328C14.0121 11.2798 14.1025 11.7702 13.8561 12.1291Z" fill="#88AB0C"/>
</g>
</g>
<defs>
<clipPath id="clip0_2837_51808">
<rect width="18" height="18" fill="white"/>
</clipPath>
</defs>
</svg>
