<svg width="34" height="34" viewBox="0 0 34 34" fill="none" xmlns="http://www.w3.org/2000/svg">
<g clip-path="url(#clip0_3042_52538)">
<path d="M17 0.398438C7.83122 0.398438 0.398438 7.83122 0.398438 17C0.398438 26.1688 7.83122 33.6016 17 33.6016C26.1688 33.6016 33.6016 26.1688 33.6016 17C33.6016 7.83122 26.1688 0.398438 17 0.398438ZM22.6639 18.8019L17.0509 22.8586C16.8473 25.0507 14.9724 26.7663 12.7139 26.7663C11.7217 26.767 10.7589 26.4299 9.98371 25.8107C9.20854 25.1914 8.6672 24.3267 8.44873 23.3589L5.49552 22.1855V16.7289L10.4855 18.7245C11.2643 18.2597 12.1391 18.0513 13.1573 18.1407L16.7994 12.9702C16.8234 9.8011 19.4412 7.2337 22.652 7.2337C25.8808 7.2337 28.4986 9.83091 28.5046 13.0119C28.5045 16.2164 25.8807 18.8019 22.6639 18.8019Z" fill="#847F7D"/>
<path d="M12.7144 19.252C12.4806 19.2512 12.2474 19.2772 12.0195 19.3294L13.3554 19.8655C13.6654 19.9861 13.9484 20.1671 14.188 20.3979C14.4275 20.6287 14.6189 20.9047 14.751 21.21C14.883 21.5154 14.9531 21.8439 14.9573 22.1765C14.9614 22.5091 14.8995 22.8392 14.7751 23.1478C14.649 23.4582 14.463 23.7408 14.2275 23.9792C13.9921 24.2176 13.712 24.4073 13.4031 24.5373C13.0943 24.6674 12.7629 24.7352 12.4278 24.737C12.0927 24.7387 11.7606 24.6744 11.4504 24.5476C10.9293 24.3451 10.3962 24.1247 9.875 23.9281C10.1364 24.4335 10.5277 24.8603 11.0086 25.1644C11.4896 25.4685 12.0428 25.6391 12.6115 25.6586C13.1803 25.678 13.7439 25.5457 14.2445 25.2752C14.7451 25.0046 15.1647 24.6057 15.46 24.1193C15.7554 23.6329 15.9158 23.0766 15.925 22.5076C15.9341 21.9387 15.7916 21.3775 15.512 20.8819C15.2324 20.3863 14.8259 19.974 14.3342 19.6876C13.8425 19.4011 13.2834 19.2508 12.7144 19.252Z" fill="#847F7D"/>
<path d="M22.664 9.14062C20.4896 9.14062 18.7344 10.8801 18.7344 13.0187C18.7344 15.1692 20.4955 16.8969 22.664 16.8969C24.8146 16.9029 26.582 15.1694 26.5758 13.0187C26.5758 10.8801 24.8147 9.14062 22.664 9.14062ZM22.6551 15.3476C22.1955 15.3426 21.7476 15.2019 21.3679 14.943C20.9882 14.6841 20.6935 14.3186 20.5211 13.8926C20.3486 13.4666 20.306 12.9991 20.3987 12.5489C20.4914 12.0987 20.7151 11.6861 21.0419 11.3628C21.3686 11.0396 21.7836 10.8202 22.2347 10.7324C22.6859 10.6445 23.1529 10.6921 23.577 10.8691C24.0012 11.0461 24.3635 11.3447 24.6183 11.7271C24.8731 12.1096 25.0091 12.559 25.0091 13.0186C25.008 13.3262 24.9462 13.6306 24.8272 13.9143C24.7082 14.198 24.5343 14.4554 24.3156 14.6718C24.097 14.8881 23.8377 15.0592 23.5528 15.1752C23.2678 15.2911 22.9628 15.3497 22.6551 15.3476H22.6551Z" fill="#847F7D"/>
</g>
<defs>
<clipPath id="clip0_3042_52538">
<rect width="34" height="34" fill="white"/>
</clipPath>
</defs>
</svg>
