<svg width="34" height="34" viewBox="0 0 34 34" fill="none" xmlns="http://www.w3.org/2000/svg">
<g clip-path="url(#clip0_3042_52553)">
<path d="M31.7388 17.4405C31.602 17.1606 31.602 16.8396 31.7388 16.5598L33.0069 13.9656C33.7129 12.5212 33.1535 10.7996 31.7334 10.0461L29.1827 8.69278C28.9075 8.54682 28.7189 8.28704 28.665 7.98032L28.1662 5.13622C27.8884 3.55271 26.4236 2.48862 24.8321 2.7138L21.9731 3.11821C21.6645 3.16177 21.3594 3.06256 21.1355 2.84601L19.0603 0.838432C17.9047 -0.279444 16.0945 -0.279511 14.9391 0.838432L12.8637 2.84621C12.6398 3.06283 12.3347 3.16184 12.0262 3.11841L9.1672 2.714C7.57512 2.48868 6.11087 3.5529 5.83309 5.13642L5.33425 7.98038C5.2804 8.28718 5.09174 8.54689 4.81662 8.69292L2.26597 10.0463C0.845812 10.7997 0.286409 12.5214 0.992436 13.9658L2.26046 16.5599C2.39725 16.8398 2.39725 17.1608 2.26046 17.4406L0.99237 20.0347C0.286343 21.4791 0.845746 23.2007 2.2659 23.9542L4.81655 25.3075C5.09174 25.4535 5.2804 25.7133 5.33425 26.02L5.83309 28.8641C6.08597 30.3056 7.32204 31.3166 8.74266 31.3165C8.88258 31.3165 9.02456 31.3066 9.16726 31.2864L12.0262 30.882C12.3346 30.8383 12.6399 30.9377 12.8638 31.1542L14.9391 33.1618C15.5169 33.7208 16.2581 34.0003 16.9996 34.0002C17.7409 34.0001 18.4826 33.7207 19.0602 33.1618L21.1355 31.1542C21.3594 30.9377 21.6646 30.8387 21.9731 30.882L24.8321 31.2864C26.4244 31.5117 27.8884 30.4475 28.1662 28.864L28.6651 26.0201C28.7189 25.7133 28.9076 25.4536 29.1827 25.3075L31.7334 23.9542C33.1535 23.2007 33.7129 21.479 33.0069 20.0346L31.7388 17.4405ZM13.0776 8.17575C15.06 8.17575 16.6728 9.78855 16.6728 11.7709C16.6728 13.7532 15.06 15.366 13.0776 15.366C11.0953 15.366 9.48249 13.7532 9.48249 11.7709C9.48249 9.78855 11.0953 8.17575 13.0776 8.17575ZM11.222 24.1643C11.0305 24.3557 10.7796 24.4515 10.5287 24.4515C10.2778 24.4515 10.0268 24.3558 9.83544 24.1643C9.45254 23.7814 9.45254 23.1606 9.83544 22.7777L22.7772 9.8359C23.16 9.453 23.7809 9.453 24.1638 9.8359C24.5467 10.2188 24.5467 10.8396 24.1638 11.2225L11.222 24.1643ZM20.9215 25.8246C18.9392 25.8246 17.3264 24.2118 17.3264 22.2294C17.3264 20.2471 18.9392 18.6343 20.9215 18.6343C22.9038 18.6343 24.5166 20.2471 24.5166 22.2294C24.5166 24.2118 22.9038 25.8246 20.9215 25.8246Z" fill="#CE7559"/>
<path d="M20.9232 20.5957C20.0222 20.5957 19.2891 21.3288 19.2891 22.2298C19.2891 23.1309 20.0221 23.8639 20.9232 23.8639C21.8243 23.8639 22.5574 23.1309 22.5574 22.2298C22.5574 21.3288 21.8243 20.5957 20.9232 20.5957Z" fill="#CE7559"/>
<path d="M13.0794 10.1367C12.1784 10.1367 11.4453 10.8698 11.4453 11.7708C11.4453 12.6719 12.1784 13.405 13.0794 13.405C13.9805 13.405 14.7136 12.672 14.7136 11.7708C14.7135 10.8698 13.9805 10.1367 13.0794 10.1367Z" fill="#CE7559"/>
</g>
<defs>
<clipPath id="clip0_3042_52553">
<rect width="34" height="34" fill="white"/>
</clipPath>
</defs>
</svg>
