<svg width="52" height="52" viewBox="0 0 52 52" fill="none" xmlns="http://www.w3.org/2000/svg">
<g id="wallet-arrow 1" clip-path="url(#clip0_807_1889)">
<path id="Vector" d="M33.124 9.1064C32.2833 8.2549 32.292 6.8834 33.1435 6.04273L37.9188 1.3259C39.689 -0.437768 42.5728 -0.439935 44.3538 1.33457L49.179 6.0319C50.037 6.86606 50.0543 8.23757 49.2223 9.09556C48.7977 9.53106 48.2343 9.7499 47.6688 9.7499C47.1228 9.7499 46.579 9.54623 46.1587 9.13457L43.3355 6.38723V19.4999C43.3355 20.6959 42.367 21.6666 41.1688 21.6666C39.9707 21.6666 39.0022 20.6959 39.0022 19.4999V6.34823L36.192 9.12373C35.3383 9.9644 33.9712 9.9579 33.1262 9.10423L33.124 9.1064ZM52 23.8332V45.4999C52 49.0836 49.0837 51.9999 45.5 51.9999H10.8333C4.85983 51.9999 0 47.1401 0 41.1666V19.4999C0 17.5781 0.502667 15.7711 1.3845 14.2046C1.42783 14.1179 1.4755 14.0334 1.52967 13.9532C3.42333 10.7899 6.88567 8.66656 10.8333 8.66656H26C27.1982 8.66656 28.1667 9.63723 28.1667 10.8332C28.1667 12.0292 27.1982 12.9999 26 12.9999H10.8333C8.9115 12.9999 7.18033 13.8384 5.99083 15.1687C7.21067 16.5272 8.97217 17.3332 10.8333 17.3332H34.6667V19.4999C34.6667 23.0836 37.583 25.9999 41.1667 25.9999C44.7503 25.9999 47.6667 23.0836 47.6667 19.4999V17.7319C50.1822 18.6289 52 21.0122 52 23.8332ZM43.3333 34.6666C43.3333 32.8726 41.8773 31.4166 40.0833 31.4166C38.2893 31.4166 36.8333 32.8726 36.8333 34.6666C36.8333 36.4606 38.2893 37.9166 40.0833 37.9166C41.8773 37.9166 43.3333 36.4606 43.3333 34.6666Z" fill="#847F7D"/>
</g>
<defs>
<clipPath id="clip0_807_1889">
<rect width="52" height="52" fill="white"/>
</clipPath>
</defs>
</svg>
