<svg width="52" height="52" viewBox="0 0 52 52" fill="none" xmlns="http://www.w3.org/2000/svg">
<g id="user-headset 1" clip-path="url(#clip0_807_1871)">
<path id="Vector" d="M45.4983 46.5831V51.9998H6.49831V46.5831C6.49831 41.2076 10.8728 36.8331 16.2483 36.8331H35.7483C41.1238 36.8331 45.4983 41.2076 45.4983 46.5831ZM14.8876 8.72497C18.2005 5.62014 22.5381 4.08614 27.086 4.3678C35.588 4.91814 42.2505 12.3173 42.2505 21.2115C42.2505 25.0465 39.1326 28.1643 35.2976 28.1643H30.0846C29.556 26.3681 27.9136 25.0465 25.9463 25.0465C23.5521 25.0465 21.613 26.9856 21.613 29.3798C21.613 31.774 23.5521 33.7131 25.9463 33.7131C27.112 33.7131 28.1671 33.2473 28.945 32.4976H35.2976C41.5203 32.4976 46.5838 27.4341 46.5838 21.2115C46.5816 10.0401 38.1403 0.740804 27.3633 0.0453043C21.5913 -0.329529 16.1161 1.6313 11.9236 5.56597C8.05181 9.19514 5.72481 14.224 5.44531 19.502H9.78515C10.0516 15.3788 11.8391 11.5828 14.8876 8.72497ZM32.715 23.8331H35.679C36.7645 23.8331 37.7135 23.0358 37.8391 21.9568C37.9865 20.685 37.9323 19.3525 37.642 17.9896C36.68 13.4851 33.0248 9.85164 28.5138 8.9243C20.8503 7.34914 14.086 13.1926 14.086 20.5831C14.086 23.766 15.3405 26.6606 17.3793 28.7991C17.6176 24.2253 21.3681 20.581 26.0005 20.581C28.7261 20.581 31.1268 21.8636 32.715 23.831V23.8331Z" fill="#847F7D"/>
</g>
<defs>
<clipPath id="clip0_807_1871">
<rect width="52" height="52" fill="white"/>
</clipPath>
</defs>
</svg>
