<svg width="52" height="52" viewBox="0 0 52 52" fill="none" xmlns="http://www.w3.org/2000/svg">
<g id="truck-arrow-right 1">
<path id="Vector" d="M43.2077 43.3332C43.2813 43.6842 43.3333 44.0438 43.3333 44.4165C43.3333 47.4087 40.9088 49.8332 37.9167 49.8332C34.9245 49.8332 32.5 47.4087 32.5 44.4165C32.5 44.0438 32.552 43.6842 32.6257 43.3332H43.2098H43.2077ZM8.79017 43.3332C8.7165 43.6842 8.6645 44.0438 8.6645 44.4165C8.6645 47.4087 11.089 49.8332 14.0812 49.8332C17.0733 49.8332 19.4978 47.4087 19.4978 44.4165C19.4978 44.0438 19.4458 43.6842 19.3722 43.3332H8.79017ZM32.4978 38.9998V12.9998C32.4978 7.01767 27.6467 2.1665 21.6645 2.1665H10.8312C4.85117 2.1665 0 7.01767 0 12.9998V19.4998H17.4113L13.5807 15.6692C12.7335 14.822 12.7335 13.4505 13.5807 12.6055C14.4278 11.7583 15.7972 11.7583 16.6443 12.6055L22.6417 18.6028C24.3317 20.2928 24.3317 23.0402 22.6417 24.7302L16.6443 30.7275C16.2218 31.15 15.6672 31.3623 15.1125 31.3623C14.5578 31.3623 14.0032 31.15 13.5807 30.7275C12.7335 29.8803 12.7335 28.511 13.5807 27.6638L17.4113 23.8332H0V30.3332C0 35.1193 3.8805 38.9998 8.66667 38.9998H32.5H32.4978ZM36.8312 38.9998H43.3312C48.1173 38.9998 51.9978 35.1193 51.9978 30.3332V28.1665H36.8312V38.9998ZM41.1645 10.8332H36.8312V23.8332H51.9978V21.6665C51.9978 15.6843 47.1467 10.8332 41.1645 10.8332Z" fill="#847F7D"/>
</g>
</svg>
