<svg width="12" height="12" viewBox="0 0 12 12" fill="none" xmlns="http://www.w3.org/2000/svg">
<g id="hashtag 1" clip-path="url(#clip0_807_2031)">
<g id="Group">
<path id="Vector" d="M6.93391 6.93166V5.06836H5.07031V6.93166H6.93391Z" fill="#847F7D"/>
<path id="Vector_2" fill-rule="evenodd" clip-rule="evenodd" d="M2.325 0.25C1.18977 0.25 0.25 1.18976 0.25 2.325V9.675C0.25 10.8103 1.18977 11.75 2.325 11.75H9.675C10.8103 11.75 11.75 10.8103 11.75 9.675V2.325C11.75 1.18976 10.8103 0.25 9.675 0.25H2.325ZM2.15909 7.43165C2.15909 7.1555 2.38295 6.93165 2.65909 6.93165H4.06817V5.06835H2.65909C2.38295 5.06835 2.15909 4.8445 2.15909 4.56836C2.15909 4.29221 2.38295 4.06836 2.65909 4.06836H4.06817V2.65918C4.06817 2.38303 4.29203 2.15918 4.56817 2.15918C4.84432 2.15918 5.0682 2.38303 5.0682 2.65918V4.06836H6.9318V2.65918C6.9318 2.38303 7.1557 2.15918 7.4318 2.15918C7.70795 2.15918 7.9318 2.38303 7.9318 2.65918V4.06836H9.3409C9.61705 4.06836 9.8409 4.29221 9.8409 4.56836C9.8409 4.8445 9.61705 5.06835 9.3409 5.06835H7.9318V6.93165H9.3409C9.61705 6.93165 9.8409 7.1555 9.8409 7.43165C9.8409 7.7078 9.61705 7.93165 9.3409 7.93165H7.9318V9.341C7.9318 9.61715 7.70795 9.841 7.4318 9.841C7.1557 9.841 6.9318 9.61715 6.9318 9.341V7.93165H5.0682V9.341C5.0682 9.61715 4.84432 9.841 4.56817 9.841C4.29203 9.841 4.06817 9.61715 4.06817 9.341V7.93165H2.65909C2.38295 7.93165 2.15909 7.7078 2.15909 7.43165Z" fill="#847F7D"/>
</g>
</g>
<defs>
<clipPath id="clip0_807_2031">
<rect width="12" height="12" fill="white"/>
</clipPath>
</defs>
</svg>
