<svg width="684" height="594" viewBox="0 0 684 594" fill="none" xmlns="http://www.w3.org/2000/svg">
<path d="M203.264 231.6H219.064V194.734C219.073 191.829 221.426 189.475 224.331 189.467H240.131V168.4C240.131 165.491 242.488 163.134 245.397 163.134H261.197V147.334C261.206 144.429 263.559 142.075 266.464 142.067H287.53V126.267C287.54 123.361 289.893 121.009 292.798 121H424.465C427.37 121.009 429.723 123.361 429.731 126.266V142.067H445.531C448.436 142.075 450.79 144.428 450.798 147.333V163.133H466.599C469.507 163.133 471.865 165.491 471.865 168.4V184.2H487.665C490.57 184.208 492.924 186.561 492.932 189.466V231.6H508.732C511.637 231.609 513.99 233.962 513.998 236.867V410.667C513.989 413.572 511.637 415.926 508.732 415.934H492.932V431.734C492.923 434.639 490.57 436.992 487.665 437H445.531C442.626 436.992 440.273 434.639 440.265 431.734V415.934H419.198C416.293 415.925 413.94 413.572 413.932 410.667V394.867H403.398V410.667C403.39 413.572 401.037 415.926 398.132 415.934H382.332V431.912C382.332 433.268 381.791 434.567 380.829 435.523C379.867 436.478 378.564 437.01 377.209 437.001H334.788C333.433 437.01 332.129 436.478 331.167 435.523C330.206 434.567 329.665 433.268 329.665 431.912V415.934H313.865C310.959 415.925 308.606 413.572 308.598 410.667V394.867H298.064V410.667C298.056 413.572 295.703 415.926 292.798 415.934H271.731V431.734C271.723 434.639 269.37 436.992 266.465 437H224.331C221.426 436.992 219.073 434.639 219.065 431.734V415.934H203.265C200.36 415.925 198.006 413.572 197.998 410.667V236.867C198.006 233.962 200.359 231.609 203.264 231.6ZM361.265 273.734H371.798V300.187C371.79 301.55 372.325 302.86 373.286 303.826C374.247 304.792 375.554 305.335 376.917 305.333H419.347C420.709 305.335 422.016 304.792 422.977 303.826C423.938 302.86 424.474 301.549 424.465 300.187V273.734H434.998V221.067H419.198C416.293 221.059 413.94 218.706 413.932 215.801V200H382.332V216.018C382.331 217.364 381.794 218.654 380.838 219.602C379.883 220.55 378.589 221.077 377.243 221.067H361.265V273.734ZM229.598 273.734H240.131V300.068C240.131 302.976 242.489 305.334 245.398 305.334H287.675C289.038 305.336 290.346 304.793 291.307 303.827C292.269 302.861 292.806 301.551 292.798 300.187V273.734H308.598V221.067H287.532C284.626 221.059 282.273 218.706 282.265 215.801V200H250.665V215.8C250.656 218.705 248.304 221.059 245.398 221.067H229.598L229.598 273.734Z" fill="#2B2724" fill-opacity="0.16"/>
<path d="M250.666 263.203H282.266V294.803H250.666V263.203Z" fill="#2B2724" fill-opacity="0.16"/>
<path d="M382.33 263.203H413.93V294.803H382.33V263.203Z" fill="#2B2724" fill-opacity="0.16"/>
<path d="M538.469 497.8H545.869V480.533C545.873 479.173 546.975 478.071 548.335 478.067H555.735V468.2C555.735 466.838 556.839 465.733 558.202 465.733H565.602V458.333C565.606 456.973 566.708 455.871 568.068 455.867H577.935V448.467C577.939 447.106 579.041 446.004 580.402 446H642.069C643.429 446.004 644.532 447.106 644.535 448.467V455.867H651.935C653.296 455.871 654.398 456.973 654.402 458.333V465.733H661.802C663.165 465.733 664.269 466.837 664.269 468.2V475.6H671.669C673.029 475.604 674.132 476.706 674.135 478.066V497.8H681.535C682.896 497.804 683.998 498.906 684.002 500.267V581.667C683.998 583.027 682.896 584.13 681.535 584.133H674.135V591.533C674.131 592.894 673.029 593.996 671.669 594H651.935C650.575 593.996 649.473 592.894 649.469 591.533V584.133H639.602C638.242 584.129 637.139 583.027 637.136 581.667V574.267H632.202V581.667C632.198 583.027 631.096 584.13 629.736 584.133H622.336V591.617C622.336 592.252 622.082 592.861 621.632 593.308C621.181 593.755 620.571 594.005 619.936 594H600.068C599.433 594.005 598.823 593.755 598.373 593.308C597.922 592.861 597.669 592.252 597.669 591.617V584.133H590.269C588.908 584.129 587.806 583.027 587.802 581.667V574.267H582.869V581.667C582.865 583.027 581.763 584.13 580.402 584.133H570.535V591.533C570.531 592.894 569.43 593.996 568.069 594H548.335C546.975 593.996 545.873 592.894 545.869 591.533V584.133H538.469C537.108 584.129 536.006 583.027 536.002 581.667V500.267C536.006 498.906 537.108 497.804 538.469 497.8ZM612.469 517.534H617.402V529.923C617.398 530.561 617.649 531.175 618.099 531.627C618.549 532.08 619.161 532.334 619.799 532.333H639.672C640.31 532.334 640.922 532.08 641.372 531.627C641.822 531.175 642.073 530.561 642.069 529.923V517.534H647.002V492.867H639.602C638.242 492.863 637.139 491.761 637.136 490.4V483H622.336V490.502C622.335 491.132 622.083 491.736 621.636 492.18C621.189 492.624 620.582 492.872 619.952 492.867H612.469V517.534ZM550.802 517.534H555.735V529.867C555.735 531.229 556.84 532.334 558.202 532.334H578.003C578.641 532.334 579.254 532.08 579.704 531.628C580.154 531.175 580.406 530.562 580.402 529.923V517.534H587.802V492.867H577.935C576.575 492.863 575.473 491.761 575.469 490.4V483H560.669V490.4C560.665 491.761 559.563 492.863 558.202 492.867H550.802L550.802 517.534Z" fill="#2B2724"/>
<path d="M560.669 512.602H575.469V527.402H560.669V512.602Z" fill="#2B2724"/>
<path d="M622.335 512.602H637.135V527.402H622.335V512.602Z" fill="#2B2724"/>
<path d="M103.9 371.9H106.6V365.6C106.601 365.104 107.003 364.702 107.5 364.7H110.2V361.1C110.2 360.603 110.603 360.2 111.1 360.2H113.8V357.5C113.801 357.004 114.203 356.601 114.7 356.6H118.3V353.9C118.301 353.404 118.703 353.001 119.2 353H141.7C142.196 353.001 142.599 353.404 142.6 353.9V356.6H145.3C145.796 356.601 146.199 357.004 146.2 357.5V360.2H148.9C149.397 360.2 149.8 360.603 149.8 361.1V363.8H152.5C152.996 363.801 153.399 364.203 153.4 364.7V371.9H156.1C156.596 371.902 156.999 372.304 157 372.8V402.5C156.999 402.997 156.596 403.399 156.1 403.4H153.4V406.1C153.399 406.597 152.996 406.999 152.5 407H145.3C144.804 406.999 144.401 406.597 144.4 406.1V403.4H140.8C140.304 403.399 139.901 402.997 139.9 402.5V399.8H138.1V402.5C138.099 402.997 137.696 403.399 137.2 403.4H134.5V406.131C134.5 406.362 134.408 406.584 134.243 406.748C134.079 406.911 133.856 407.002 133.625 407H126.375C126.144 407.002 125.921 406.911 125.757 406.748C125.592 406.584 125.5 406.362 125.5 406.131V403.4H122.8C122.303 403.399 121.901 402.997 121.9 402.5V399.8H120.1V402.5C120.098 402.997 119.696 403.399 119.2 403.4H115.6V406.1C115.598 406.597 115.196 406.999 114.7 407H107.5C107.003 406.999 106.601 406.597 106.6 406.1V403.4H103.9C103.403 403.399 103.001 402.997 103 402.5V372.8C103.001 372.304 103.403 371.902 103.9 371.9ZM130.9 379.1H132.7V383.621C132.698 383.854 132.79 384.077 132.954 384.242C133.118 384.408 133.342 384.5 133.575 384.5H140.825C141.058 384.5 141.281 384.408 141.446 384.242C141.61 384.077 141.701 383.853 141.7 383.621V379.1H143.5V370.1H140.8C140.304 370.099 139.901 369.697 139.9 369.2V366.5H134.5V369.237C134.5 369.467 134.408 369.688 134.245 369.85C134.082 370.012 133.86 370.102 133.63 370.1H130.9V379.1ZM108.4 379.1H110.2V383.6C110.2 384.097 110.603 384.5 111.1 384.5H118.324C118.557 384.501 118.781 384.408 118.945 384.243C119.109 384.078 119.201 383.854 119.2 383.621V379.1H121.9V370.1H118.3C117.803 370.099 117.401 369.697 117.4 369.2V366.5H112V369.2C111.998 369.697 111.596 370.099 111.1 370.1H108.4L108.4 379.1Z" fill="#2B2724"/>
<path d="M112 377.301H117.4V382.701H112V377.301Z" fill="#2B2724"/>
<path d="M134.5 377.301H139.9V382.701H134.5V377.301Z" fill="#2B2724"/>
<path d="M594.1 166.9H591.4V160.6C591.399 160.104 590.997 159.702 590.5 159.7H587.8V156.1C587.8 155.603 587.397 155.2 586.9 155.2H584.2V152.5C584.199 152.004 583.797 151.601 583.3 151.6H579.7V148.9C579.699 148.404 579.297 148.001 578.8 148H556.3C555.804 148.001 555.401 148.404 555.4 148.9V151.6H552.7C552.204 151.601 551.801 152.004 551.8 152.5V155.2H549.1C548.603 155.2 548.2 155.603 548.2 156.1V158.8H545.5C545.004 158.801 544.601 159.203 544.6 159.7V166.9H541.9C541.404 166.902 541.001 167.304 541 167.8V197.5C541.001 197.997 541.404 198.399 541.9 198.4H544.6V201.1C544.601 201.597 545.004 201.999 545.5 202H552.7C553.196 201.999 553.599 201.597 553.6 201.1V198.4H557.2C557.696 198.399 558.099 197.997 558.1 197.5V194.8H559.9V197.5C559.901 197.997 560.304 198.399 560.8 198.4H563.5V201.131C563.5 201.362 563.592 201.584 563.757 201.748C563.921 201.911 564.144 202.002 564.375 202H571.625C571.856 202.002 572.079 201.911 572.243 201.748C572.408 201.584 572.5 201.362 572.5 201.131V198.4H575.2C575.697 198.399 576.099 197.997 576.1 197.5V194.8H577.9V197.5C577.902 197.997 578.304 198.399 578.8 198.4H582.4V201.1C582.402 201.597 582.804 201.999 583.3 202H590.5C590.997 201.999 591.399 201.597 591.4 201.1V198.4H594.1C594.597 198.399 594.999 197.997 595 197.5V167.8C594.999 167.304 594.597 166.902 594.1 166.9ZM567.1 174.1H565.3V178.621C565.302 178.854 565.21 179.077 565.046 179.242C564.882 179.408 564.658 179.5 564.425 179.5H557.175C556.942 179.5 556.719 179.408 556.554 179.242C556.39 179.077 556.299 178.853 556.3 178.621V174.1H554.5V165.1H557.2C557.696 165.099 558.099 164.697 558.1 164.2V161.5H563.5V164.237C563.5 164.467 563.592 164.688 563.755 164.85C563.918 165.012 564.14 165.102 564.37 165.1H567.1V174.1ZM589.6 174.1H587.8V178.6C587.8 179.097 587.397 179.5 586.9 179.5H579.676C579.443 179.501 579.219 179.408 579.055 179.243C578.891 179.078 578.799 178.854 578.8 178.621V174.1H576.1V165.1H579.7C580.197 165.099 580.599 164.697 580.6 164.2V161.5H586V164.2C586.002 164.697 586.404 165.099 586.9 165.1H589.6L589.6 174.1Z" fill="#2B2724"/>
<path d="M586 172.301H580.6V177.701H586V172.301Z" fill="#2B2724"/>
<path d="M563.5 172.301H558.1V177.701H563.5V172.301Z" fill="#2B2724"/>
<path d="M73.6003 323.4H72.4003V320.6C72.3996 320.379 72.2209 320.201 72.0003 320.2H70.8003V318.6C70.8003 318.379 70.6212 318.2 70.4003 318.2H69.2003V317C69.1996 316.779 69.0209 316.601 68.8003 316.6H67.2003V315.4C67.1996 315.179 67.0208 315.001 66.8002 315H56.8001C56.5794 315.001 56.4007 315.179 56.4001 315.4V316.6H55.2001C54.9794 316.601 54.8007 316.779 54.8001 317V318.2H53.6C53.3791 318.2 53.2 318.379 53.2 318.6V319.8H52C51.7794 319.801 51.6006 319.979 51.6 320.2V323.4H50.4C50.1793 323.401 50.0006 323.579 50 323.8V337C50.0007 337.221 50.1793 337.4 50.4 337.4H51.6V338.6C51.6007 338.821 51.7794 339 52 339H55.2001C55.4207 339 55.5994 338.821 55.6 338.6V337.4H57.2001C57.4207 337.4 57.5994 337.221 57.6 337V335.8H58.4001V337C58.4007 337.221 58.5794 337.4 58.8001 337.4H60.0001V338.614C60.0001 338.717 60.0411 338.815 60.1142 338.888C60.1872 338.961 60.2863 339.001 60.3892 339H63.611C63.714 339.001 63.813 338.961 63.886 338.888C63.959 338.815 64.0002 338.717 64.0002 338.614V337.4H65.2002C65.4208 337.4 65.5996 337.221 65.6002 337V335.8H66.4002V337C66.4008 337.221 66.5795 337.4 66.8002 337.4H68.4002V338.6C68.4008 338.821 68.5795 339 68.8002 339H72.0002C72.2209 339 72.3996 338.821 72.4002 338.6V337.4H73.6002C73.8209 337.4 73.9996 337.221 74.0002 337V323.8C73.9996 323.579 73.8209 323.401 73.6003 323.4ZM61.6001 326.6H60.8001V328.609C60.8008 328.713 60.7601 328.812 60.6871 328.886C60.6141 328.959 60.5149 329 60.4114 329H57.1888C57.0853 329 56.9861 328.959 56.9131 328.886C56.8401 328.812 56.7994 328.713 56.8001 328.609V326.6H56V322.6H57.2001C57.4207 322.599 57.5994 322.421 57.6 322.2V321H60.0001V322.217C60.0001 322.319 60.0409 322.417 60.1135 322.489C60.1861 322.561 60.2844 322.601 60.3866 322.6H61.6001V326.6ZM71.6002 326.6H70.8002V328.6C70.8002 328.821 70.6212 329 70.4002 329H67.1893C67.0857 329 66.9864 328.959 66.9134 328.886C66.8404 328.812 66.7996 328.713 66.8002 328.609V326.6H65.6002V322.6H67.2002C67.4208 322.599 67.5996 322.421 67.6002 322.2V321H70.0002V322.2C70.0009 322.421 70.1795 322.599 70.4002 322.6H71.6002L71.6002 326.6Z" fill="#2B2724"/>
<path d="M69.9996 325.801H67.5996V328.201H69.9996V325.801Z" fill="#2B2724"/>
<path d="M59.9996 325.801H57.5996V328.201H59.9996V325.801Z" fill="#2B2724"/>
<path d="M515.6 430.4H514.4V427.6C514.4 427.379 514.221 427.201 514 427.2H512.8V425.6C512.8 425.379 512.621 425.2 512.4 425.2H511.2V424C511.2 423.779 511.021 423.601 510.8 423.6H509.2V422.4C509.2 422.179 509.021 422.001 508.8 422H498.8C498.579 422.001 498.401 422.179 498.4 422.4V423.6H497.2C496.979 423.601 496.801 423.779 496.8 424V425.2H495.6C495.379 425.2 495.2 425.379 495.2 425.6V426.8H494C493.779 426.801 493.601 426.979 493.6 427.2V430.4H492.4C492.179 430.401 492.001 430.579 492 430.8V444C492.001 444.221 492.179 444.4 492.4 444.4H493.6V445.6C493.601 445.821 493.779 446 494 446H497.2C497.421 446 497.599 445.821 497.6 445.6V444.4H499.2C499.421 444.4 499.599 444.221 499.6 444V442.8H500.4V444C500.401 444.221 500.579 444.4 500.8 444.4H502V445.614C502 445.717 502.041 445.815 502.114 445.888C502.187 445.961 502.286 446.001 502.389 446H505.611C505.714 446.001 505.813 445.961 505.886 445.888C505.959 445.815 506 445.717 506 445.614V444.4H507.2C507.421 444.4 507.6 444.221 507.6 444V442.8H508.4V444C508.401 444.221 508.58 444.4 508.8 444.4H510.4V445.6C510.401 445.821 510.58 446 510.8 446H514C514.221 446 514.4 445.821 514.4 445.6V444.4H515.6C515.821 444.4 516 444.221 516 444V430.8C516 430.579 515.821 430.401 515.6 430.4ZM503.6 433.6H502.8V435.609C502.801 435.713 502.76 435.812 502.687 435.886C502.614 435.959 502.515 436 502.411 436H499.189C499.085 436 498.986 435.959 498.913 435.886C498.84 435.812 498.799 435.713 498.8 435.609V433.6H498V429.6H499.2C499.421 429.599 499.599 429.421 499.6 429.2V428H502V429.217C502 429.319 502.041 429.417 502.114 429.489C502.186 429.561 502.284 429.601 502.387 429.6H503.6V433.6ZM513.6 433.6H512.8V435.6C512.8 435.821 512.621 436 512.4 436H509.189C509.086 436 508.986 435.959 508.913 435.886C508.84 435.812 508.8 435.713 508.8 435.609V433.6H507.6V429.6H509.2C509.421 429.599 509.6 429.421 509.6 429.2V428H512V429.2C512.001 429.421 512.18 429.599 512.4 429.6H513.6L513.6 433.6Z" fill="#2B2724"/>
<path d="M512 432.801H509.6V435.201H512V432.801Z" fill="#2B2724"/>
<path d="M502 432.801H499.6V435.201H502V432.801Z" fill="#2B2724"/>
<path d="M501.4 97.4001H502.6V94.6001C502.6 94.3794 502.779 94.2007 503 94.2001H504.2V92.6C504.2 92.3791 504.379 92.2001 504.6 92.2001H505.8V91C505.8 90.7794 505.979 90.6007 506.2 90.6001H507.8V89.4C507.8 89.1793 507.979 89.0007 508.2 89H518.2C518.421 89.0007 518.599 89.1793 518.6 89.4V90.6H519.8C520.021 90.6007 520.199 90.7794 520.2 91V92.2H521.4C521.621 92.2 521.8 92.3791 521.8 92.6V93.8H523C523.221 93.8007 523.399 93.9794 523.4 94.2V97.4001H524.6C524.821 97.4008 524.999 97.5795 525 97.8001V111C524.999 111.221 524.821 111.4 524.6 111.4H523.4V112.6C523.399 112.821 523.221 113 523 113H519.8C519.579 113 519.401 112.821 519.4 112.6V111.4H517.8C517.579 111.4 517.401 111.221 517.4 111V109.8H516.6V111C516.599 111.221 516.421 111.4 516.2 111.4H515V112.614C515 112.717 514.959 112.815 514.886 112.888C514.813 112.961 514.714 113.001 514.611 113H511.389C511.286 113.001 511.187 112.961 511.114 112.888C511.041 112.815 511 112.717 511 112.614V111.4H509.8C509.579 111.4 509.4 111.221 509.4 111V109.8H508.6V111C508.599 111.221 508.42 111.4 508.2 111.4H506.6V112.6C506.599 112.821 506.42 113 506.2 113H503C502.779 113 502.6 112.821 502.6 112.6V111.4H501.4C501.179 111.4 501 111.221 501 111V97.8001C501 97.5795 501.179 97.4008 501.4 97.4001ZM513.4 100.6H514.2V102.609C514.199 102.713 514.24 102.812 514.313 102.886C514.386 102.959 514.485 103 514.589 103H517.811C517.915 103 518.014 102.959 518.087 102.886C518.16 102.812 518.201 102.713 518.2 102.609V100.6H519V96.6001H517.8C517.579 96.5995 517.401 96.4208 517.4 96.2001V95.0001H515V96.2166C515 96.3188 514.959 96.4168 514.886 96.4888C514.814 96.5608 514.716 96.6009 514.613 96.6001H513.4V100.6ZM503.4 100.6H504.2V102.6C504.2 102.821 504.379 103 504.6 103H507.811C507.914 103 508.014 102.959 508.087 102.886C508.16 102.812 508.2 102.713 508.2 102.609V100.6H509.4V96.6001H507.8C507.579 96.5995 507.4 96.4208 507.4 96.2001V95.0001H505V96.2001C504.999 96.4207 504.82 96.5995 504.6 96.6001H503.4L503.4 100.6Z" fill="#2B2724"/>
<path d="M505 99.8008H507.4V102.201H505V99.8008Z" fill="#2B2724"/>
<path d="M515 99.8008H517.4V102.201H515V99.8008Z" fill="#2B2724"/>
<path d="M145.533 51.8001H138.133V34.5335C138.129 33.1729 137.027 32.0707 135.667 32.0669H128.267V22.2C128.267 20.8377 127.163 19.7335 125.8 19.7335H118.4V12.3335C118.396 10.9728 117.294 9.87064 115.934 9.86688H106.067V2.46686C106.063 1.10596 104.961 0.00404688 103.6 0H41.9332C40.5726 0.00404688 39.4704 1.10596 39.4666 2.46658V9.86659H32.0666C30.706 9.87064 29.6038 10.9725 29.6001 12.3332V19.7332H22.1998C20.8374 19.7332 19.7332 20.8374 19.7332 22.1998V29.5998H12.3332C10.9725 29.6038 9.87035 30.7057 9.86659 32.0663V51.8001H2.46657C1.10596 51.8041 0.00375782 52.9061 0 54.2667V135.667C0.00404688 137.027 1.10596 138.13 2.46657 138.133H9.86659V145.533C9.87064 146.894 10.9725 147.996 12.3332 148H32.0666C33.4272 147.996 34.5294 146.894 34.5332 145.533V138.133H44.3998C45.7604 138.129 46.8626 137.027 46.8664 135.667V128.267H51.7998V135.667C51.8039 137.027 52.9058 138.13 54.2664 138.133H61.6664V145.617C61.6664 146.252 61.9196 146.861 62.3703 147.308C62.8206 147.755 63.4311 148.005 64.0659 148H83.9338C84.5686 148.005 85.1791 147.755 85.6294 147.308C86.0798 146.861 86.3333 146.252 86.3333 145.617V138.133H93.7333C95.0939 138.129 96.1961 137.027 96.1999 135.667V128.267H101.133V135.667C101.137 137.027 102.239 138.13 103.6 138.133H113.466V145.533C113.471 146.894 114.572 147.996 115.933 148H135.667C137.027 147.996 138.129 146.894 138.133 145.533V138.133H145.533C146.894 138.129 147.996 137.027 148 135.667V54.2667C147.996 52.9061 146.894 51.8041 145.533 51.8001ZM71.5333 71.5336H66.5998V83.9231C66.6039 84.5614 66.353 85.1747 65.9029 85.6271C65.4528 86.0795 64.8409 86.3339 64.2026 86.3333H44.3304C43.6922 86.3339 43.0802 86.0795 42.6301 85.6271C42.1801 85.1747 41.9292 84.5611 41.9332 83.9231V71.5336H36.9998V46.867H44.3998C45.7604 46.8629 46.8626 45.761 46.8664 44.4004V37.0001H61.6664V44.5018C61.6667 45.1323 61.9185 45.7364 62.3659 46.1804C62.8134 46.6244 63.4196 46.8716 64.0497 46.867H71.5333V71.5336ZM133.2 71.5336H128.267V83.867C128.267 85.2294 127.162 86.3336 125.8 86.3336H105.999C105.361 86.3345 104.748 86.0804 104.298 85.6277C103.848 85.1753 103.596 84.5616 103.6 83.9231V71.5336H96.1999V46.867H106.066C107.427 46.8629 108.529 45.761 108.533 44.4004V37.0001H123.333V44.4001C123.337 45.7607 124.439 46.8629 125.8 46.8667H133.2L133.2 71.5336Z" fill="#2B2724"/>
<path d="M123.333 66.6016H108.533V81.4016H123.333V66.6016Z" fill="#2B2724"/>
<path d="M61.6672 66.6016H46.8672V81.4016H61.6672V66.6016Z" fill="#2B2724"/>
</svg>
