<svg width="24" height="16" viewBox="0 0 24 16" fill="none" xmlns="http://www.w3.org/2000/svg">
<g id="united-kingdom (2) 1">
<g clip-path="url(#clip0_807_2001)">
<path id="Vector" d="M24 0.015625H0V15.9846H24V0.015625Z" fill="#F0F0F0"/>
<path id="Vector_2" d="M13.5 0.015625H10.5V6.50292H0V9.49708H10.5V15.9844H13.5V9.49708H24V6.50292H13.5V0.015625Z" fill="#D80027"/>
<g id="Group">
<path id="Vector_3" d="M18.4609 10.7769L24.0023 13.8494V10.7769H18.4609Z" fill="#0052B4"/>
<path id="Vector_4" d="M14.6094 10.7769L24.0007 15.9841V14.5116L17.2651 10.7769H14.6094Z" fill="#0052B4"/>
<path id="Vector_5" d="M21.4992 15.9841L14.6094 12.1636V15.9841H21.4992Z" fill="#0052B4"/>
</g>
<path id="Vector_6" d="M14.6094 10.7769L24.0007 15.9841V14.5116L17.2651 10.7769H14.6094Z" fill="#F0F0F0"/>
<path id="Vector_7" d="M14.6094 10.7769L24.0007 15.9841V14.5116L17.2651 10.7769H14.6094Z" fill="#D80027"/>
<g id="Group_2">
<path id="Vector_8" d="M4.23473 10.7769L0 13.1249V10.7769H4.23473Z" fill="#0052B4"/>
<path id="Vector_9" d="M9.39174 11.439V15.984H1.19531L9.39174 11.439Z" fill="#0052B4"/>
</g>
<path id="Vector_10" d="M6.73561 10.7769L0 14.5116V15.9841L9.39131 10.7769H6.73561Z" fill="#D80027"/>
<g id="Group_3">
<path id="Vector_11" d="M5.54133 5.22295L0 2.15039V5.22295H5.54133Z" fill="#0052B4"/>
<path id="Vector_12" d="M9.39131 5.22283L0 0.015625V1.48809L6.73561 5.22283H9.39131Z" fill="#0052B4"/>
<path id="Vector_13" d="M2.5 0.015625L9.38978 3.83616V0.015625H2.5Z" fill="#0052B4"/>
</g>
<path id="Vector_14" d="M9.39131 5.22283L0 0.015625V1.48809L6.73561 5.22283H9.39131Z" fill="#F0F0F0"/>
<path id="Vector_15" d="M9.39131 5.22283L0 0.015625V1.48809L6.73561 5.22283H9.39131Z" fill="#D80027"/>
<g id="Group_4">
<path id="Vector_16" d="M19.7656 5.22307L24.0004 2.875V5.22307H19.7656Z" fill="#0052B4"/>
<path id="Vector_17" d="M14.6094 4.5607V0.015625H22.8058L14.6094 4.5607Z" fill="#0052B4"/>
</g>
<path id="Vector_18" d="M17.2651 5.22283L24.0007 1.48809V0.015625L14.6094 5.22283H17.2651Z" fill="#D80027"/>
</g>
</g>
<defs>
<clipPath id="clip0_807_2001">
<rect width="24" height="16" rx="8" fill="white"/>
</clipPath>
</defs>
</svg>
