<svg width="24" height="16" viewBox="0 0 24 16" fill="none" xmlns="http://www.w3.org/2000/svg">
<g id="united-states-of-america (4) 1">
<g clip-path="url(#clip0_807_1939)">
<path id="Vector" d="M24 0.015625H0V15.9846H24V0.015625Z" fill="#F0F0F0"/>
<g id="Group">
<path id="Vector_2" d="M24 2.01123H0V4.00716H24V2.01123Z" fill="#D80027"/>
<path id="Vector_3" d="M24 6.00342H0V7.99935H24V6.00342Z" fill="#D80027"/>
<path id="Vector_4" d="M24 9.99561H0V11.9915H24V9.99561Z" fill="#D80027"/>
<path id="Vector_5" d="M24 13.9878H0V15.9837H24V13.9878Z" fill="#D80027"/>
</g>
<path id="Vector_6" d="M12 0.015625H0V8.61431H12V0.015625Z" fill="#2E52B2"/>
<g id="Group_2">
<path id="Vector_7" d="M4.67777 3.53809L4.4845 4.13149H3.85938L4.3652 4.49804L4.17194 5.0914L4.67777 4.72485L5.18327 5.0914L4.99005 4.49804L5.49588 4.13149H4.8707L4.67777 3.53809Z" fill="#F0F0F0"/>
<path id="Vector_8" d="M4.8707 6.27256L4.67777 5.6792L4.4845 6.27256H3.85938L4.3652 6.63915L4.17194 7.23251L4.67777 6.86591L5.18327 7.23251L4.99005 6.63915L5.49588 6.27256H4.8707Z" fill="#F0F0F0"/>
<path id="Vector_9" d="M2.23012 6.27256L2.03714 5.6792L1.84388 6.27256H1.21875L1.72458 6.63915L1.53131 7.23251L2.03714 6.86591L2.54269 7.23251L2.34947 6.63915L2.8552 6.27256H2.23012Z" fill="#F0F0F0"/>
<path id="Vector_10" d="M2.03714 3.53809L1.84388 4.13149H1.21875L1.72458 4.49804L1.53131 5.0914L2.03714 4.72485L2.54269 5.0914L2.34947 4.49804L2.8552 4.13149H2.23012L2.03714 3.53809Z" fill="#F0F0F0"/>
<path id="Vector_11" d="M4.67777 1.39648L4.4845 1.98993H3.85938L4.3652 2.35653L4.17194 2.94989L4.67777 2.58329L5.18327 2.94989L4.99005 2.35653L5.49588 1.98993H4.8707L4.67777 1.39648Z" fill="#F0F0F0"/>
<path id="Vector_12" d="M2.03714 1.39648L1.84388 1.98993H1.21875L1.72458 2.35653L1.53131 2.94989L2.03714 2.58329L2.54269 2.94989L2.34947 2.35653L2.8552 1.98993H2.23012L2.03714 1.39648Z" fill="#F0F0F0"/>
<path id="Vector_13" d="M7.31834 3.53809L7.12512 4.13149H6.5L7.00578 4.49804L6.81261 5.0914L7.31834 4.72485L7.82394 5.0914L7.63067 4.49804L8.1365 4.13149H7.51137L7.31834 3.53809Z" fill="#F0F0F0"/>
<path id="Vector_14" d="M7.51137 6.27256L7.31834 5.6792L7.12512 6.27256H6.5L7.00578 6.63915L6.81261 7.23251L7.31834 6.86591L7.82394 7.23251L7.63067 6.63915L8.1365 6.27256H7.51137Z" fill="#F0F0F0"/>
<path id="Vector_15" d="M10.152 6.27256L9.95897 5.6792L9.7657 6.27256H9.14062L9.64636 6.63915L9.45314 7.23251L9.95897 6.86591L10.4645 7.23251L10.2712 6.63915L10.7771 6.27256H10.152Z" fill="#F0F0F0"/>
<path id="Vector_16" d="M9.95897 3.53809L9.7657 4.13149H9.14062L9.64636 4.49804L9.45314 5.0914L9.95897 4.72485L10.4645 5.0914L10.2712 4.49804L10.7771 4.13149H10.152L9.95897 3.53809Z" fill="#F0F0F0"/>
<path id="Vector_17" d="M7.31834 1.39648L7.12512 1.98993H6.5L7.00578 2.35653L6.81261 2.94989L7.31834 2.58329L7.82394 2.94989L7.63067 2.35653L8.1365 1.98993H7.51137L7.31834 1.39648Z" fill="#F0F0F0"/>
<path id="Vector_18" d="M9.95897 1.39648L9.7657 1.98993H9.14062L9.64636 2.35653L9.45314 2.94989L9.95897 2.58329L10.4645 2.94989L10.2712 2.35653L10.7771 1.98993H10.152L9.95897 1.39648Z" fill="#F0F0F0"/>
</g>
</g>
</g>
<defs>
<clipPath id="clip0_807_1939">
<rect width="24" height="16" rx="8" fill="white"/>
</clipPath>
</defs>
</svg>
