<svg width="78" height="31" viewBox="0 0 78 31" fill="none" xmlns="http://www.w3.org/2000/svg">
<g id="googlePay">
<path id="Vector" d="M36.9079 14.938V23.8573H34.0586V1.83058H41.6154C42.5174 1.81187 43.4143 1.97074 44.2541 2.29803C45.094 2.62532 45.8603 3.11454 46.5088 3.73747C47.1638 4.32258 47.6851 5.04015 48.0377 5.84196C48.3903 6.64377 48.5659 7.51124 48.5528 8.38606C48.5716 9.26556 48.3986 10.1387 48.0458 10.9456C47.693 11.7525 47.1687 12.4742 46.5088 13.061C45.1874 14.3124 43.5562 14.9374 41.6154 14.9363H36.9079V14.938ZM36.9079 4.54241V12.2315H41.6862C42.2101 12.2469 42.7314 12.1536 43.2168 11.9575C43.7023 11.7614 44.1412 11.4668 44.5054 11.0926C44.8678 10.7428 45.1558 10.3243 45.3525 9.86199C45.5492 9.39967 45.6505 8.90288 45.6505 8.401C45.6505 7.89912 45.5492 7.40233 45.3525 6.94001C45.1558 6.47769 44.8678 6.05924 44.5054 5.70939C44.1457 5.32732 43.7084 5.02554 43.2223 4.82404C42.7363 4.62255 42.2127 4.52595 41.6862 4.54065H36.9079V4.54241Z" fill="#E4E5E7"/>
<path id="Vector_2" d="M55.1207 8.29492C57.2267 8.29492 58.8891 8.85381 60.1078 9.97158C61.3266 11.0893 61.9354 12.6219 61.9342 14.5692V23.8576H59.2088V21.7662H59.0849C57.9051 23.4885 56.3359 24.3497 54.3774 24.3497C52.7056 24.3497 51.3069 23.8576 50.1813 22.8734C49.6411 22.4217 49.2093 21.856 48.9172 21.2175C48.6251 20.579 48.4802 19.8838 48.493 19.1826C48.493 17.6232 49.0864 16.3829 50.2733 15.462C51.4602 14.5411 53.0448 14.0794 55.0269 14.0771C56.7188 14.0771 58.1121 14.3847 59.207 14.9998V14.353C59.2102 13.875 59.1063 13.4023 58.9028 12.9691C58.6992 12.5359 58.4011 12.1532 58.0301 11.8486C57.2767 11.1735 56.2947 10.8051 55.28 10.8169C53.6884 10.8169 52.4289 11.4836 51.5015 12.817L48.992 11.2475C50.3724 9.27912 52.4153 8.29492 55.1207 8.29492ZM51.4343 19.2442C51.4324 19.6043 51.5171 19.9596 51.6815 20.2806C51.8459 20.6016 52.0852 20.879 52.3793 21.0895C53.0095 21.5818 53.7917 21.8426 54.5933 21.8277C55.7956 21.8257 56.9482 21.3504 57.7983 20.506C58.7422 19.6238 59.2141 18.5886 59.2141 17.4005C58.3257 16.6975 57.0869 16.346 55.4976 16.346C54.3402 16.346 53.3751 16.6231 52.6023 17.1773C51.8219 17.7397 51.4343 18.4234 51.4343 19.2442Z" fill="#E4E5E7"/>
<path id="Vector_3" d="M77.5793 8.78662L68.0652 30.5005H65.1239L68.6545 22.9029L62.3984 8.78662H65.4955L70.0172 19.6128H70.0791L74.477 8.78662H77.5793Z" fill="#E4E5E7"/>
<g id="Group 13">
<path id="Vector_4" d="M25.3962 13.0159C25.3973 12.1535 25.3238 11.2927 25.1767 10.4429H13.1602V15.3164H20.0427C19.9019 16.0948 19.6038 16.8368 19.1664 17.4977C18.729 18.1586 18.1614 18.7247 17.4978 19.1618V22.3253H21.6054C24.0105 20.1232 25.3962 16.8665 25.3962 13.0159Z" fill="#4285F4"/>
<path id="Vector_5" d="M13.1582 25.3816C16.5969 25.3816 19.4922 24.2603 21.6035 22.327L17.4959 19.1635C16.3526 19.9333 14.8802 20.3727 13.1582 20.3727C9.83464 20.3727 7.01366 18.1477 6.00491 15.1494H1.77344V18.4096C2.83399 20.5054 4.46023 22.2672 6.4706 23.4983C8.48097 24.7295 10.7963 25.3815 13.1582 25.3816Z" fill="#34A853"/>
<path id="Vector_6" d="M6.00625 15.149C5.47296 13.5779 5.47296 11.8765 6.00625 10.3053V7.04517H1.77479C0.882612 8.80821 0.417969 10.754 0.417969 12.7272C0.417969 14.7003 0.882612 16.6461 1.77479 18.4092L6.00625 15.149Z" fill="#FBBC04"/>
<path id="Vector_7" d="M13.1582 5.08222C14.9754 5.05274 16.7312 5.73456 18.0463 6.98032L21.6831 3.36865C19.377 1.21761 16.3219 0.036645 13.1582 0.07334C10.7963 0.0734469 8.48097 0.725469 6.4706 1.95661C4.46023 3.18776 2.83399 4.94956 1.77344 7.04535L6.00491 10.3055C7.01366 7.30721 9.83464 5.08222 13.1582 5.08222Z" fill="#EA4335"/>
</g>
</g>
</svg>
