<svg width="79" height="38" viewBox="0 0 79 38" fill="none" xmlns="http://www.w3.org/2000/svg">
<g id="robokassa">
<path id="Vector" d="M2.44258 0.858145C1.84055 1.15916 1.33887 1.66086 1.13819 2.16255C1.03785 2.46357 0.9375 5.17271 0.9375 10.0893V17.5144H4.44936V12.7985H9.06494L10.269 15.1062L11.4731 17.414H13.4798C14.5836 17.414 15.4866 17.414 15.4866 17.3137C15.4866 17.2134 14.8846 16.0093 14.0819 14.6046L12.6771 11.9957L13.0785 11.7951C15.0853 10.4907 15.9883 7.78152 15.4866 4.77136C15.1856 2.96526 14.2825 1.66086 12.8778 1.05882C12.0751 0.757807 11.9748 0.657471 7.45952 0.657471C3.94766 0.657471 2.84394 0.657468 2.44258 0.858145ZM11.1721 4.26966C11.3727 4.37 11.6738 4.67102 11.7741 4.97203C12.0751 5.67441 12.0751 7.38016 11.8744 7.88185C11.2724 9.08592 10.4697 9.38694 7.05817 9.38694H4.5497V4.06898H7.66021C9.36597 4.06898 10.9714 4.16932 11.1721 4.26966ZM20.6039 0.757808C19.0988 1.2595 17.9951 2.26289 17.5937 3.76797C17.1924 4.97203 16.791 7.68118 16.791 9.08592C16.791 10.3903 17.1924 12.9991 17.4934 14.1029C18.0954 15.909 18.9985 16.9123 20.7042 17.3137C21.507 17.5144 22.2093 17.5144 24.8181 17.5144C27.728 17.5144 28.029 17.414 28.8317 17.113C30.9388 16.21 31.8418 13.7015 31.8418 9.08592C31.8418 4.16933 30.8384 1.7612 28.631 0.958486C27.8283 0.65747 27.5273 0.657471 24.3164 0.657471C22.6107 0.657471 20.9049 0.757808 20.6039 0.757808ZM27.6276 4.47034C28.631 5.87508 28.631 12.6981 27.6276 13.7015C27.3266 14.0025 21.507 14.0025 21.3063 13.7015C20.6039 12.7985 20.3029 7.88186 20.9049 5.57407C21.1056 4.67102 21.2059 4.37 21.5069 4.26966C21.7076 4.16932 23.1124 4.16933 24.7178 4.16933C27.1259 4.16933 27.5273 4.16932 27.6276 4.47034ZM35.2534 0.958486C34.9523 1.15916 34.551 1.56052 34.3503 1.86153C34.0493 2.36323 34.0493 2.66424 33.9489 8.68457C33.9489 12.8988 33.9489 15.2066 34.0493 15.6079C34.3503 16.511 34.9524 17.2134 35.8554 17.414C36.7584 17.6147 43.4811 17.6147 44.6852 17.414C46.993 17.0127 48.1971 15.7083 48.3977 13.1998C48.4981 11.7951 48.2974 10.7917 47.6954 9.78829L47.294 9.08592L47.896 7.98219C48.3977 6.9788 48.4981 6.87847 48.4981 5.37339C48.4981 4.16932 48.3977 3.66763 48.197 3.0656C47.7957 2.16255 47.1937 1.56052 46.2906 1.05882L45.4879 0.657471H40.772C35.8554 0.657471 35.8554 0.65747 35.2534 0.958486ZM44.5849 4.26966C44.7855 4.47034 44.8859 5.47372 44.7855 5.97542C44.6852 6.27643 44.4845 6.57745 44.2838 6.87847C43.8825 7.27982 43.8825 7.27982 40.772 7.27982H37.6615V4.06898H41.073C42.8791 4.16932 44.4845 4.26966 44.5849 4.26966ZM43.8825 10.9924C44.4845 11.193 44.7855 11.8954 44.7855 12.6981C44.7855 13.1998 44.6852 13.5008 44.4845 13.6012C44.2838 13.8018 43.3808 13.8018 40.8723 13.8018H37.4608V10.591L40.471 10.6913C42.1767 10.7917 43.6818 10.892 43.8825 10.9924ZM53.4147 0.958486C51.9096 1.56052 51.2072 2.5639 50.6052 4.77136C50.3042 5.87508 50.3042 6.47712 50.3042 9.08592C50.3042 11.7951 50.3042 12.0961 50.7055 13.5008C51.2072 15.2066 51.6086 15.909 52.5116 16.6113C53.6153 17.414 53.9164 17.414 57.7292 17.414C61.5421 17.414 61.9435 17.3137 62.9469 16.6113C63.8499 16.0093 64.2512 15.2066 64.7529 13.5008C65.1543 12.0961 65.1543 11.7951 65.1543 9.08592C65.1543 6.57746 65.1543 5.97542 64.8533 4.77136C64.2513 2.46357 63.5489 1.46018 62.0438 0.958486C61.2411 0.65747 60.9401 0.657471 57.7292 0.657471C54.5184 0.657471 54.117 0.65747 53.4147 0.958486ZM60.639 4.26966C61.0404 4.47034 61.2411 4.8717 61.5421 6.57746C61.9434 8.68457 61.5421 12.5978 60.9401 13.5008C60.7394 13.9022 60.7394 13.9022 57.7292 13.9022C54.2174 13.9022 54.418 14.0025 54.0167 11.9957C53.4146 9.18626 53.9164 4.57068 54.7191 4.26966C55.2208 4.06899 60.2377 4.06899 60.639 4.26966Z" fill="#2F69B1"/>
<g id="Group">
<path id="Vector_2" d="M1.43919 20.7158L0.9375 21.2175V36.168L1.33888 36.5693C1.74023 36.9707 1.9409 36.9707 2.64327 36.9707C3.34564 36.9707 3.54633 36.8703 3.84735 36.6696C4.34904 36.0676 4.44935 35.4656 4.44935 32.8568V30.3483H6.65682L7.76055 31.3517C9.968 33.2581 10.7707 34.2615 10.7707 35.3653C10.7707 35.9673 10.8711 36.168 11.2724 36.5693C11.7741 37.071 11.8744 37.071 12.5768 37.071C13.1788 37.071 13.3795 36.9707 13.7809 36.6696C14.2826 36.2683 14.2826 36.168 14.2826 35.0642C14.2826 34.1612 14.1822 33.7598 13.7809 32.9571C13.2792 31.8534 11.6738 30.0473 10.7707 29.2446L10.1687 28.7429L11.1721 27.8398C12.3761 26.7361 13.4798 25.3314 13.9815 24.2277C14.2825 23.6256 14.3829 23.1239 14.3829 22.3212C14.3829 21.2175 14.3829 21.2175 13.8812 20.7158C13.4799 20.3144 13.2792 20.3144 12.4765 20.3144C11.5734 20.3144 11.4731 20.3144 11.1721 20.7158C10.9714 21.0168 10.8711 21.3178 10.8711 21.8195C10.8711 22.2209 10.7707 22.7226 10.6704 22.9233C10.3694 23.5253 9.26564 24.8297 7.8609 26.0337L6.75716 26.9368H4.5497V24.4283C4.5497 23.1239 4.44938 21.7192 4.34904 21.4182C4.14836 20.6155 3.54632 20.2141 2.64327 20.2141C1.9409 20.3144 1.84055 20.3144 1.43919 20.7158ZM20.6039 20.5151C18.5971 21.1172 17.4934 22.6222 16.6907 25.5321C16.2893 26.8365 16.2893 27.3382 16.189 31.151C16.0887 35.6663 16.189 36.168 16.8914 36.6696C17.3931 37.071 18.6975 37.071 19.0988 36.6696C19.6005 36.2683 19.8012 35.7666 19.8012 34.2615V32.7564H27.6276V34.4622C27.6276 36.0676 27.6276 36.168 28.029 36.5693C28.4303 36.9707 28.631 36.9707 29.3334 36.9707C30.1361 36.9707 30.2364 36.9707 30.6378 36.469L31.0391 35.9673V31.151C30.9388 26.6358 30.9388 26.2344 30.6378 25.231C29.9354 22.8229 28.8317 21.3178 27.4269 20.7158C26.6242 20.3144 26.4236 20.3144 23.9151 20.3144C22.0087 20.3144 21.0052 20.3144 20.6039 20.5151ZM25.8215 23.9266C26.6242 24.2277 27.3266 26.0338 27.5273 28.3415L27.6276 29.3449H19.8012L19.9015 28.1409C20.1022 26.0337 20.9049 24.027 21.7076 23.8263C22.41 23.726 25.3198 23.8263 25.8215 23.9266ZM35.8554 20.5151C34.3503 21.0168 33.5476 21.7192 33.0459 23.0236C32.7449 23.726 32.7449 24.1273 32.7449 25.3314C32.7449 27.7395 33.4472 29.1443 35.153 29.947C35.8554 30.248 36.056 30.3483 39.0662 30.3483C42.1767 30.4487 42.2771 30.4487 42.5781 30.7497C42.9794 31.151 43.0798 32.4554 42.6784 33.0575L42.3774 33.4588H38.3639C34.551 33.4588 34.25 33.4588 33.949 33.7598C33.1463 34.4622 33.0459 35.8669 33.8486 36.5693L34.3503 36.9707H38.7652C41.1733 36.9707 43.3808 36.8703 43.6818 36.77C44.4845 36.5693 45.3876 35.6663 45.9896 34.5625C46.4913 33.6595 46.4913 33.4588 46.4913 31.8534C46.4913 30.3483 46.4913 30.1476 46.0899 29.3449C45.5882 28.2412 44.8859 27.5388 44.1835 27.1375C43.6818 26.9368 43.1801 26.8365 40.1699 26.7361C36.1564 26.6358 36.2567 26.7361 36.2567 25.1307C36.2567 23.5253 36.0561 23.6256 40.8723 23.5253L44.9862 23.4249L45.3876 23.0236C45.7889 22.6222 45.7889 22.5219 45.8893 21.3178L45.9896 20.0134H41.2737C37.8622 20.3144 36.2567 20.4148 35.8554 20.5151ZM50.8059 20.5151C50.5048 20.6155 50.0031 20.8161 49.7021 20.9165C47.7957 21.9199 46.8926 25.4317 48.0967 27.8398C48.5984 28.8432 49.1001 29.4453 50.0032 29.947C50.7055 30.3483 50.8059 30.3483 53.816 30.4487C55.5218 30.4487 57.0268 30.549 57.2275 30.6493C57.7292 30.85 58.0302 31.6527 57.8296 32.5558C57.6289 33.6595 57.8296 33.6595 53.214 33.6595H49.1001L48.6987 34.0608C48.2974 34.4622 48.2974 34.6629 48.2974 35.3653C48.2974 36.0676 48.3977 36.2683 48.6987 36.6696L49.1001 37.071H53.6153C58.7326 37.071 58.8329 37.071 59.8363 36.0676C60.7394 35.1646 61.1407 34.1612 61.2411 32.3551C61.3414 30.3483 60.9401 29.1442 59.8363 28.0405C59.3346 27.5388 58.833 27.2378 58.4316 27.1375C58.1306 27.0371 56.6255 26.9368 55.0201 26.9368C53.4147 26.9368 52.0099 26.9368 51.7089 26.8365C51.2072 26.7361 50.9062 26.2344 50.9062 25.3314C50.9062 24.4283 51.1069 23.9266 51.7089 23.8263C52.0099 23.8263 53.816 23.726 55.8228 23.726C60.5387 23.726 60.639 23.6256 60.639 21.4182V20.3144H55.9231C52.8126 20.3144 51.2072 20.4148 50.8059 20.5151ZM67.3617 20.6155C66.9604 20.8161 66.3584 21.1172 66.0574 21.3178C64.8533 22.2209 63.7495 24.629 63.4485 27.1375C63.2479 28.8432 63.2479 35.5659 63.4485 36.168C63.6492 36.77 64.2512 37.071 65.1543 37.071C65.656 37.071 65.957 36.9707 66.3584 36.6696L66.86 36.2683V34.5625L66.9604 32.8568H74.5861L74.6865 34.5625V36.2683L75.1881 36.6696C75.5895 37.071 75.7902 37.071 76.3922 37.071C76.9943 37.071 77.1949 36.9707 77.5963 36.6696L78.098 36.2683V31.5524C78.098 27.2378 78.098 26.7361 77.797 25.6324C77.0946 23.1239 76.0912 21.6188 74.6865 20.9165C73.7834 20.5151 73.7834 20.5151 70.9739 20.4148C68.4655 20.3144 68.0641 20.3144 67.3617 20.6155ZM73.3821 24.328C73.9841 25.0304 74.4858 26.5354 74.4858 28.0405L74.5861 29.2446H66.86V28.3415C66.86 26.4351 67.6628 24.2277 68.5658 23.8263C68.7665 23.726 69.7699 23.726 70.9739 23.726H72.9807L73.3821 24.328Z" fill="#D31223"/>
</g>
</g>
</svg>
