<svg width="78" height="24" viewBox="0 0 78 24" fill="none" xmlns="http://www.w3.org/2000/svg">
<g id="visa">
<path id="Vector" d="M72.6849 0.356934H67.8342C66.3677 0.356934 65.2396 0.808165 64.5627 2.27467L55.3125 23.3697H61.8553C61.8553 23.3697 62.9834 20.5495 63.209 19.8727C63.8859 19.8727 70.3159 19.8727 71.2184 19.8727C71.444 20.6623 72.008 23.2569 72.008 23.2569H77.874L72.6849 0.356934ZM65.014 15.1347C65.578 13.7811 67.4957 8.70471 67.4957 8.70471C67.4957 8.81751 68.0598 7.35101 68.2854 6.56136L68.7366 8.5919C68.7366 8.5919 69.9775 14.1195 70.2031 15.2476H65.014V15.1347Z" fill="#3362AB"/>
<path id="Vector_2" d="M55.7646 15.8121C55.7646 20.5501 51.4779 23.7087 44.8222 23.7087C42.002 23.7087 39.2946 23.1446 37.8281 22.4678L38.7306 17.2786L39.5202 17.6171C41.5508 18.5195 42.9045 18.8579 45.3862 18.8579C47.1912 18.8579 49.1089 18.1811 49.1089 16.6018C49.1089 15.5865 48.3192 14.9097 45.8375 13.7816C43.4685 12.6535 40.3099 10.8486 40.3099 7.57716C40.3099 3.06485 44.7094 0.019043 50.9138 0.019043C53.2828 0.019043 55.3133 0.470274 56.5542 1.03431L55.6517 5.99785L55.2005 5.54662C54.0724 5.09539 52.6059 4.64416 50.4626 4.64416C48.0936 4.75697 46.9656 5.77224 46.9656 6.6747C46.9656 7.68997 48.3192 8.47962 50.4626 9.49489C54.0724 11.187 55.7646 13.1047 55.7646 15.8121Z" fill="#3362AB"/>
<path id="Vector_3" d="M0.714844 0.583799L0.827651 0.132568H10.5291C11.8828 0.132568 12.8981 0.583799 13.2365 2.0503L15.3798 12.203C13.2365 6.78822 8.27296 2.38872 0.714844 0.583799Z" fill="#F9B50B"/>
<path id="Vector_4" d="M29.0283 0.357925L19.214 23.2579H12.5584L6.91797 4.08058C10.979 6.67516 14.3633 10.7362 15.6042 13.5564L16.281 15.9254L22.3726 0.245117H29.0283V0.357925Z" fill="#3362AB"/>
<path id="Vector_5" d="M31.6241 0.245117H37.8285L33.8802 23.2579H27.6758L31.6241 0.245117Z" fill="#3362AB"/>
</g>
</svg>
