<svg width="42" height="40" viewBox="0 0 42 40" fill="none" xmlns="http://www.w3.org/2000/svg">
<g id="yandex">
<path id="yandex_2" d="M41.2171 16.425C41.0024 15.1365 39.8213 14.2775 38.2106 14.2775C37.6737 14.2775 37.2442 14.2775 36.7073 14.2775C35.7409 14.1701 35.5262 14.4923 35.5262 15.2439C35.5262 19.0021 35.5262 22.6529 35.5262 26.4111C35.5262 28.3439 33.5934 30.384 31.3385 30.8135C24.2516 32.4242 17.1647 33.9275 10.0779 35.5381C9.32623 35.7529 8.46723 35.7529 7.60821 35.7529C7.28608 35.7529 6.7492 35.5381 6.64183 35.216C6.53445 35.0012 6.85657 34.5717 7.07133 34.357C7.39346 34.1422 7.82297 33.9275 8.25248 33.7127C9.541 33.2832 10.9369 32.8537 12.2254 32.4242C17.4869 30.7062 22.7483 28.9881 28.0098 27.1627C30.3721 26.4111 31.6606 24.8004 31.6606 22.7603C31.768 16.3177 31.6606 9.76769 31.6606 3.32508C31.6606 2.25131 31.1237 1.3923 29.9426 0.962791C28.5467 0.425907 27.2581 0.855408 26.077 1.39229C18.5606 4.93573 11.1516 8.47917 3.63526 12.0226C1.48772 13.0964 0.199219 14.5996 0.199219 16.7472C0.199219 22.8677 0.199219 28.9881 0.199219 35.1086C0.199219 35.4308 0.199193 35.7529 0.306569 35.9676C1.05821 38.0078 2.99102 39.2963 5.56806 39.2963C10.8295 39.2963 16.091 39.2963 21.3524 39.2963C26.6139 39.2963 31.768 39.2963 37.0294 39.2963C38.2106 39.2963 39.177 39.0816 40.036 38.3299C41.1098 37.4709 41.1098 36.2898 41.1098 35.216C41.1098 29.9333 41.2171 16.425 41.2171 16.425ZM19.3123 14.4923C19.8492 13.0964 21.0303 12.2374 22.7483 12.0226C23.9295 11.9152 24.8959 12.5595 25.1106 13.6333C25.3254 15.2439 23.3926 17.1767 21.3524 17.1767C19.7418 17.1767 18.7754 15.9956 19.3123 14.4923Z" fill="#E47418"/>
</g>
</svg>
