<svg width="10" height="14" viewBox="0 0 10 14" fill="none" xmlns="http://www.w3.org/2000/svg">
<g id="Group">
<g id="Group_2">
<g id="Group_3">
<path id="Vector" d="M9.52158 2.46062L7.11474 0.20169C6.98028 0.0806763 6.80549 0 6.61724 0H3.2154C3.02716 0 2.85236 0.0672303 2.7179 0.20169L0.311065 2.46062C0.176605 2.58163 0.109375 2.75643 0.109375 2.93123V11.0392C0.109375 11.214 0.190051 11.3888 0.311065 11.5098L2.7179 13.7687C2.85236 13.8897 3.02716 13.9704 3.2154 13.9704H6.61724C6.80549 13.9704 6.98028 13.9032 7.11474 13.7687L9.52158 11.5098C9.65604 11.3888 9.72327 11.214 9.72327 11.0392V2.93123C9.72327 2.75643 9.65604 2.59508 9.52158 2.46062Z" fill="url(#paint0_linear_1028_72753)"/>
<path id="Vector_2" d="M0.310011 11.5087L2.59583 13.6601C3.03955 13.0012 3.91354 12.5441 4.90855 12.5441C5.90355 12.5441 6.77754 12.9878 7.22126 13.6601L9.50708 11.5087C9.65499 11.3877 0.175551 11.3877 0.310011 11.5087Z" fill="url(#paint1_linear_1028_72753)"/>
<path id="Vector_3" d="M8.30859 3.73828V10.2058L9.38427 11.0798L8.30859 3.73828Z" fill="url(#paint2_linear_1028_72753)"/>
<g id="Group_4">
<path id="Vector_4" d="M0.589525 11.7786L1.5173 10.2323V3.73791L0.952567 1.85547L0.307159 2.46054C0.172699 2.58155 0.105469 2.75635 0.105469 2.93115V11.0391C0.105469 11.2139 0.186145 11.3887 0.307159 11.5097L0.589525 11.7786Z" fill="url(#paint3_linear_1028_72753)"/>
</g>
<g id="Group_5" opacity="0.3">
<g id="Group_6">
<path id="Vector_5" d="M1.49041 10.2458L1.5173 3.73791L0.952567 1.85547L0.307159 2.46054C0.172699 2.58155 0.105469 2.75635 0.105469 2.93115C1.36939 5.75481 1.49041 10.2458 1.49041 10.2458Z" fill="white"/>
</g>
</g>
<path id="Vector_6" d="M3.51039 1.74829L2.79775 0.134766C2.77086 0.161658 2.74397 0.175104 2.71708 0.201996L0.310241 2.46092C0.256457 2.51471 0.202673 2.58194 0.175781 2.64917L1.52038 3.7383L3.51039 1.74829Z" fill="url(#paint4_linear_1028_72753)"/>
<path id="Vector_7" opacity="0.5" d="M3.50954 1.74829L2.7969 0.134766C2.77001 0.161658 2.74312 0.175104 2.71623 0.201996C2.71623 0.201996 2.91792 1.68106 2.87758 1.74829L1.51953 3.7383L3.50954 1.74829Z" fill="white"/>
<path id="Vector_8" d="M2.88016 13.8897L3.51212 12.2224L3.0684 10.3938L1.52211 10.2324L0.164062 11.3081C0.204401 11.3888 0.244738 11.456 0.311968 11.5098L2.7188 13.7687C2.75914 13.8225 2.81293 13.8628 2.88016 13.8897Z" fill="url(#paint5_linear_1028_72753)"/>
<path id="Vector_9" d="M6.32031 1.74806L7.03295 0.121094C7.05984 0.147986 7.08674 0.161432 7.11363 0.188324L9.52046 2.4607C9.57425 2.51448 9.62803 2.58171 9.65492 2.64894L8.31032 3.73807L6.32031 1.74806Z" fill="#FFA143"/>
<path id="Vector_10" d="M6.95228 13.8897L6.32031 12.2224L6.76403 10.3938L8.31032 10.2324L9.66837 11.3081C9.62803 11.3888 9.58769 11.456 9.52046 11.5098L7.11363 13.7687C7.07329 13.8225 7.01951 13.8628 6.95228 13.8897Z" fill="url(#paint6_linear_1028_72753)"/>
<path id="Vector_11" d="M6.95228 13.8897L6.32031 12.2224L6.76403 10.3938L8.31032 10.2324L6.8716 12.2762C6.83126 12.3569 7.01951 13.8628 6.95228 13.8897Z" fill="url(#paint7_linear_1028_72753)"/>
<path id="Vector_12" d="M6.31976 1.74805H3.50954L1.51953 3.73806V10.2325L3.50954 12.2225H6.31976L8.30977 10.2325V3.73806L6.31976 1.74805Z" fill="url(#paint8_linear_1028_72753)"/>
<path id="Vector_13" d="M0.3125 11.5098C0.567974 11.7115 0.796556 11.9266 1.03858 12.1552C1.26717 12.3838 1.4823 12.6123 1.73778 12.8275C1.9798 13.0426 2.22183 13.2577 2.45042 13.4729C2.57143 13.5805 2.679 13.7015 2.80001 13.809C2.92103 13.9032 3.06893 13.9704 3.23028 13.9838V13.9973C3.06893 14.0107 2.89413 13.9704 2.75967 13.8628C2.62521 13.7552 2.51765 13.6477 2.39663 13.5401C2.1546 13.325 1.92602 13.0964 1.71089 12.8678C1.4823 12.6392 1.24027 12.4241 0.998246 12.209C0.756218 11.9804 0.527636 11.7518 0.3125 11.5098Z" fill="white"/>
<path id="Vector_14" d="M3.21484 13.9703C3.86025 13.9434 4.51911 13.9434 5.16451 13.9434C5.48722 13.9434 5.80992 13.9568 6.13263 13.9568C6.29398 13.9568 6.45533 13.9568 6.61668 13.9568C6.77804 13.9568 6.93939 13.9031 7.0604 13.7955C7.53101 13.3518 7.98818 12.8946 8.47223 12.4509C8.71426 12.2223 8.94284 12.0072 9.18487 11.792C9.30588 11.6845 9.4269 11.5769 9.54791 11.4693C9.65548 11.3618 9.73616 11.2004 9.73616 11.0391H9.7496C9.7496 11.2004 9.69582 11.3752 9.58825 11.4962C9.46724 11.6172 9.35967 11.7248 9.23866 11.8324C9.01007 12.061 8.76804 12.2895 8.53946 12.5047C8.06885 12.9484 7.59824 13.3921 7.10074 13.8224C6.96628 13.93 6.80493 13.9703 6.64358 13.9703C6.48222 13.9703 6.32087 13.9703 6.15952 13.9703C5.83682 13.9703 5.51411 13.9837 5.19141 13.9837C4.50566 14.0106 3.86025 13.9972 3.21484 13.9703Z" fill="white"/>
<path id="Vector_15" opacity="0.35" d="M2.22135 9.03714C1.99277 9.03714 1.77764 9.02369 1.5625 8.9968V10.1935L3.48528 12.1835L6.32239 12.2104L8.25861 10.18V3.80664C8.27206 3.80664 7.27705 8.94302 2.22135 9.03714Z" fill="#FFFFF5"/>
<path id="Vector_16" opacity="0.3" d="M1.51953 8.51187V6.8849L7.04584 2.47461L7.61057 3.03934L1.51953 8.51187Z" fill="white"/>
<path id="Vector_17" opacity="0.35" d="M1.99219 5.36502L6.68484 2.11109L6.3218 1.74805L1.99219 5.36502Z" fill="white"/>
<path id="Vector_18" opacity="0.35" d="M2.87891 11.4558L8.27075 7.71782V6.96484L2.87891 11.4558Z" fill="white"/>
<path id="Vector_19" opacity="0.3" d="M7.14062 13.5136L9.38611 11.416L7.70536 12.5858L7.14062 13.5136Z" fill="white"/>
<path id="Vector_20" opacity="0.3" d="M7.90625 1.13086L9.50633 2.78472L9.62734 9.85732L9.25085 2.98641L7.90625 1.13086Z" fill="white"/>
<path id="Vector_21" d="M0.191406 11.28L0.769585 10.7959L0.24519 8.06641L0.191406 11.28Z" fill="url(#paint9_linear_1028_72753)"/>
<path id="Vector_22" opacity="0.3" d="M2.8125 0.161804L3.53858 1.66776L6.33535 1.65431L4.97731 1.23748C4.41257 1.06269 3.91507 0.766874 3.49825 0.350048L3.17554 0.0273438C3.1621 0.0273438 2.83939 0.0676815 2.8125 0.161804Z" fill="white"/>
</g>
<path id="Vector_23" d="M9.7588 3.81867V2.91778C9.7588 2.75643 9.69157 2.60853 9.584 2.50096C9.47643 2.39339 9.36886 2.29927 9.24785 2.1917L7.93014 0.954666L7.27129 0.33615C7.2175 0.282366 7.16372 0.228582 7.10993 0.174798C7.05615 0.121014 6.98892 0.080676 6.90824 0.053784C6.84101 0.026892 6.76034 0 6.67966 0C6.59899 0 6.53176 0 6.45108 0H4.64932H3.74843H3.29127C3.21059 0 3.14336 5.10921e-08 3.06269 0.0134461C2.98201 0.0268921 2.91478 0.0537839 2.84755 0.0941219C2.78032 0.13446 2.71309 0.188244 2.65931 0.228582L2.1618 0.685746L1.50295 1.29082L0.844096 1.90933L0.507945 2.21859L0.346593 2.3665C0.292809 2.42028 0.239025 2.47407 0.185241 2.5413C0.144903 2.60853 0.104565 2.67576 0.0776731 2.75643C0.0507811 2.83711 0.0507812 2.91778 0.0507812 2.98501V3.44218V4.34306C0.0507812 5.5532 0.0507813 6.74989 0.0642273 7.96004L0.0776731 9.7618V10.6627V10.8913C0.0776731 10.9719 0.0776732 11.0392 0.0911192 11.1198C0.104565 11.2678 0.185241 11.4157 0.29281 11.5098C0.185241 11.4022 0.118011 11.2678 0.0911192 11.1198C0.0776732 11.0526 0.0911192 10.9719 0.0911192 10.8913V10.6627V9.7618L0.104565 7.96004C0.104565 6.74989 0.118011 5.5532 0.118011 4.34306V3.44218V2.98501C0.118011 2.90434 0.118011 2.83711 0.144903 2.76988C0.158349 2.74299 0.158349 2.70265 0.171795 2.67576L1.26092 3.61698C1.3416 3.68421 1.39538 3.79177 1.39538 3.89934L1.40883 5.33806C1.40883 5.8759 1.40883 6.41374 1.42227 6.96503L1.46261 10.2055L0.212133 11.2409L1.50295 10.2593L2.49795 11.214C2.82066 11.5367 3.15681 11.8459 3.49296 12.1686V12.1821L3.29127 12.7334C3.25093 12.8275 3.22404 12.9216 3.19715 13.0157L3.10302 13.2981L3.22404 13.0292C3.26438 12.9351 3.30471 12.8409 3.33161 12.7603L3.49296 12.3703C3.51985 12.2896 3.60053 12.2359 3.69465 12.2359H4.23249C4.46107 12.2359 4.7031 12.2359 4.93168 12.2359C5.16026 12.2359 5.40229 12.2359 5.63087 12.2224C5.83256 12.2224 6.2225 12.209 6.30317 12.209C6.30317 12.209 6.31662 12.209 6.31662 12.2224L6.5452 12.8006C6.62588 12.9888 6.70655 13.1905 6.78723 13.3788C6.72 13.1771 6.65277 12.9888 6.58554 12.7872L6.38385 12.2224C6.72 11.8997 7.0427 11.577 7.37885 11.2409C7.67467 10.945 7.97048 10.6358 8.26629 10.34C8.30663 10.2862 8.38731 10.2862 8.44109 10.3265L8.81758 10.6223C8.97893 10.7434 9.14028 10.8778 9.31508 10.9988C9.15373 10.8644 8.99238 10.7299 8.84447 10.5955L8.36041 10.2055L8.34697 10.1921C8.36041 9.66768 8.37386 9.12984 8.37386 8.60544L8.40075 6.97848L8.42764 3.73799V3.7111L9.01927 3.1867L8.38731 3.65731L6.3973 1.68075L6.92169 0.389934L6.33007 1.65386H6.31662H3.57363L2.80721 0.174798C2.82066 0.161352 2.84755 0.147906 2.861 0.13446C2.92823 0.0941223 2.99546 0.080676 3.06269 0.053784C3.12992 0.040338 3.21059 0.0403382 3.27782 0.0403382H3.73499H4.63587H6.43763C6.51831 0.0403382 6.58554 0.0403382 6.66622 0.0403382C6.73345 0.0403382 6.81412 0.0672299 6.88135 0.0941219C6.94858 0.121014 7.01581 0.161352 7.0696 0.215136C7.12338 0.26892 7.17716 0.322704 7.23095 0.363042L7.8898 0.981559L9.19407 2.23204C9.30163 2.33961 9.4092 2.43373 9.51677 2.5413C9.61089 2.64886 9.67812 2.79677 9.67812 2.93123V3.83211C9.67812 4.43718 9.66468 5.04225 9.67812 5.63388V7.43564V9.23741L9.69157 11.0392H9.70501L9.71846 9.23741V7.43564V5.63388C9.7588 5.01536 9.7588 4.41029 9.7588 3.81867ZM8.22595 3.77833L8.25284 6.99192L8.27974 8.61889C8.29318 9.14328 8.29318 9.68112 8.30663 10.2055L8.29318 10.219C7.95703 10.5417 7.62088 10.8778 7.28473 11.214C6.96203 11.5501 6.62588 11.8728 6.28973 12.2224L6.27628 12.2359C6.27628 12.2359 5.83256 12.2224 5.60398 12.2224C5.3754 12.2224 5.13337 12.209 4.90479 12.209C4.67621 12.209 4.43418 12.209 4.2056 12.209H3.5064H3.47951C3.47951 12.209 2.84755 11.5501 2.52485 11.2274L1.55673 10.2324L1.59707 7.00537C1.59707 6.46753 1.61052 5.92969 1.61052 5.3784L1.62396 3.80522L3.56019 1.88244H6.28973L8.22595 3.77833ZM2.99546 2.11102L1.58363 3.50941C1.5164 3.57664 1.42227 3.57664 1.3416 3.52285C1.3416 3.52285 0.454161 2.87745 0.239025 2.67576C0.198687 2.63542 0.212133 2.59508 0.225579 2.56819C0.265918 2.5144 0.319701 2.46062 0.373485 2.40684L0.534838 2.24548L0.857541 1.93622L1.5164 1.31771L2.17525 0.699192L2.49795 0.389934L2.65931 0.228582C2.69964 0.188244 2.72654 0.161352 2.76687 0.13446L3.15681 1.18325C3.30471 1.5194 3.22404 1.86899 2.99546 2.11102Z" fill="white"/>
<g id="Group_7">
<path id="Vector_24" opacity="0.9" d="M1.14291 3.25206C1.10257 3.23861 1.07568 3.21172 1.06223 3.17138L1.00845 2.0957L0.954666 3.17138C0.94122 3.21172 0.914329 3.23861 0.87399 3.25206L0 3.30584L0.860544 3.35963C0.900882 3.37307 0.927775 3.39997 0.941221 3.4403L0.995004 4.51598L1.04879 3.4403C1.06223 3.39997 1.08913 3.37307 1.12946 3.35963L1.99001 3.30584L1.14291 3.25206Z" fill="white"/>
</g>
</g>
</g>
<defs>
<linearGradient id="paint0_linear_1028_72753" x1="6.18318" y1="12.1961" x2="2.88013" y2="-1.36075" gradientUnits="userSpaceOnUse">
<stop stop-color="#F58811"/>
<stop offset="0.1693" stop-color="#F79720"/>
<stop offset="0.7179" stop-color="#FCC34F"/>
<stop offset="0.9804" stop-color="#FED297"/>
</linearGradient>
<linearGradient id="paint1_linear_1028_72753" x1="4.91345" y1="13.6692" x2="4.91345" y2="11.4198" gradientUnits="userSpaceOnUse">
<stop stop-color="#FFA216"/>
<stop offset="0.1379" stop-color="#F19515"/>
<stop offset="0.3998" stop-color="#CB7114"/>
<stop offset="0.7549" stop-color="#903812"/>
<stop offset="0.9749" stop-color="#671210"/>
</linearGradient>
<linearGradient id="paint2_linear_1028_72753" x1="8.07033" y1="7.50194" x2="8.94608" y2="7.40174" gradientUnits="userSpaceOnUse">
<stop offset="0.0251397" stop-color="#994112"/>
<stop offset="0.3433" stop-color="#BC5F15"/>
<stop offset="0.7774" stop-color="#E68219"/>
<stop offset="1" stop-color="#F6901A"/>
</linearGradient>
<linearGradient id="paint3_linear_1028_72753" x1="0.0957473" y1="6.8191" x2="1.51259" y2="6.8191" gradientUnits="userSpaceOnUse">
<stop stop-color="#FFA216"/>
<stop offset="0.2965" stop-color="#F39411"/>
<stop offset="0.857" stop-color="#D36F03"/>
<stop offset="0.9749" stop-color="#CC6600"/>
</linearGradient>
<linearGradient id="paint4_linear_1028_72753" x1="1.8363" y1="3.74287" x2="1.8363" y2="0.132466" gradientUnits="userSpaceOnUse">
<stop stop-color="#FFF0D6"/>
<stop offset="0.0796638" stop-color="#F9F6CD"/>
<stop offset="0.1201" stop-color="#F4FBC7"/>
<stop offset="0.9749" stop-color="#FDB14F"/>
</linearGradient>
<linearGradient id="paint5_linear_1028_72753" x1="1.83465" y1="10.2355" x2="1.83465" y2="13.8916" gradientUnits="userSpaceOnUse">
<stop stop-color="#FFA216"/>
<stop offset="0.2965" stop-color="#F39411"/>
<stop offset="0.857" stop-color="#D36F03"/>
<stop offset="0.9749" stop-color="#CC6600"/>
</linearGradient>
<linearGradient id="paint6_linear_1028_72753" x1="6.96704" y1="10.2733" x2="8.53127" y2="12.9826" gradientUnits="userSpaceOnUse">
<stop offset="0.0251397" stop-color="#671210"/>
<stop offset="0.448" stop-color="#AF5613"/>
<stop offset="0.8213" stop-color="#E98D15"/>
<stop offset="1" stop-color="#FFA216"/>
</linearGradient>
<linearGradient id="paint7_linear_1028_72753" x1="6.61665" y1="11.5155" x2="8.36883" y2="12.4599" gradientUnits="userSpaceOnUse">
<stop offset="0.0251397" stop-color="#AB5213"/>
<stop offset="0.2096" stop-color="#B35A13"/>
<stop offset="0.5008" stop-color="#CA6F14"/>
<stop offset="0.8605" stop-color="#EF9315"/>
<stop offset="1" stop-color="#FFA216"/>
</linearGradient>
<linearGradient id="paint8_linear_1028_72753" x1="2.29328" y1="2.4519" x2="7.53238" y2="11.5263" gradientUnits="userSpaceOnUse">
<stop offset="0.0195531" stop-color="#FED297"/>
<stop offset="0.2821" stop-color="#FCC34F"/>
<stop offset="0.8307" stop-color="#F79720"/>
<stop offset="1" stop-color="#F58811"/>
</linearGradient>
<linearGradient id="paint9_linear_1028_72753" x1="0.481813" y1="11.7081" x2="0.481813" y2="8.49528" gradientUnits="userSpaceOnUse">
<stop offset="0.0251397" stop-color="#CC6600"/>
<stop offset="0.143" stop-color="#D36F03"/>
<stop offset="0.7035" stop-color="#F39411"/>
<stop offset="1" stop-color="#FFA216"/>
</linearGradient>
</defs>
</svg>
