<svg width="62" height="42" viewBox="0 0 62 42" fill="none" xmlns="http://www.w3.org/2000/svg">
<path d="M16.2565 0.174415L15.4906 6.40029C13.7118 6.40029 12.2047 6.37559 9.53646 6.37559C0.0494054 6.37559 0 0.125 0 0.125L16.2565 0.174415Z" fill="#681D15"/>
<path d="M16.2565 0.174415L14.6506 5.04147C12.8717 5.04147 12.5753 5.01676 9.88235 5.01676C0.395294 5.01676 0 0.125 0 0.125L16.2565 0.174415Z" fill="url(#paint0_radial_1028_49932)"/>
<path d="M13.8605 7.58457L13.1193 13.8104C11.3405 13.8104 13.5146 13.8104 10.8216 13.8104C1.33456 13.8104 1.28516 7.53516 1.28516 7.53516L13.8605 7.58457Z" fill="#681D15"/>
<path d="M13.8605 7.5833L12.2793 12.4751C10.5005 12.4751 13.8604 12.4504 11.1922 12.4504C1.70515 12.4504 1.28516 7.55859 1.28516 7.55859L13.8605 7.5833Z" fill="url(#paint1_radial_1028_49932)"/>
<path d="M11.4629 14.97L4.76758 14.9453C4.76758 14.9453 5.80523 19.6394 10.697 21.2206L11.4629 14.97Z" fill="#681D15"/>
<path d="M11.4629 14.97L4.76758 14.9453C4.76758 14.9453 4.96525 18.2806 9.85701 19.8618L11.4629 14.97Z" fill="url(#paint2_radial_1028_49932)"/>
<path d="M13.8605 7.58594L14.6511 9.1177L13.1193 13.8118L12.2793 12.453L13.8605 7.58594Z" fill="#9E2C19"/>
<path d="M11.464 14.9727L12.2546 16.5044L9.93226 23.5703L8.47461 24.015L11.464 14.9727Z" fill="#9E2C19"/>
<path d="M16.2565 0.173145L0 0.148438C0 0.148438 0.395294 5.0402 9.88235 5.0402C12.5506 5.0402 12.847 5.0402 14.6506 5.06491L16.2565 0.173145Z" fill="url(#paint3_linear_1028_49932)"/>
<path d="M12.2794 12.4518L13.2182 9.58594C11.9582 10.0059 10.7476 10.5495 9.63587 11.2165C9.16646 11.4883 8.64763 11.8342 8.05469 12.2295C8.96881 12.353 10.0064 12.4271 11.1923 12.4271C13.8606 12.4271 10.5006 12.4518 12.2794 12.4518Z" fill="url(#paint4_linear_1028_49932)"/>
<path opacity="0.35" d="M9.90774 5.03902C12.576 5.03902 12.8725 5.03902 14.676 5.06373L15.936 1.20961L14.9971 3.30961C14.5524 4.42138 14.2807 4.79196 13.1689 4.79196C11.983 4.79196 9.7348 4.76726 8.57362 4.74256C3.58303 4.54491 0.667744 2.3955 0.0253906 0.171968C0.0253906 0.147262 0.420684 5.03902 9.90774 5.03902Z" fill="#9E2C19"/>
<path opacity="0.35" d="M12.477 11.0186C12.1806 11.661 11.8594 12.1798 11.1429 12.1551C10.4265 12.1304 8.37585 12.1057 7.23938 11.8586C4.54644 11.241 2.94057 10.2527 1.85352 9.01745C2.76763 10.4504 5.13938 12.4516 11.1923 12.4516C13.8606 12.4516 10.5006 12.4516 12.2794 12.4763L13.5888 8.44922L12.477 11.0186Z" fill="#9E2C19"/>
<path opacity="0.35" d="M9.85701 19.8646L11.2405 15.6151C10.9688 16.1587 10.4746 17.4187 9.93111 18.5799C9.58523 19.3704 9.23935 19.2716 8.69582 19.0493C5.97817 17.9128 5.33581 16.554 4.76758 14.9728C4.76758 14.9481 4.98995 18.2834 9.85701 19.8646Z" fill="#9E2C19"/>
<path opacity="0.5" d="M4.34766 0.148438L16.2806 0.173145L15.8853 1.38373C15.8853 0.766085 15.5888 0.444904 14.8724 0.444904L4.34766 0.148438Z" fill="#FFE67B"/>
<path opacity="0.5" d="M4.34766 7.58594H13.8594L13.4147 8.94476L13.4641 8.50005C13.4888 8.08005 13.3406 7.8577 12.5747 7.80829L4.34766 7.58594Z" fill="#FFE67B"/>
<path d="M30.5114 36.761L49.3373 23.074L42.1479 0.9375H18.875L11.6855 23.074L30.5114 36.761Z" fill="#54101A"/>
<path opacity="0.3" d="M20.6543 3.35938L30.5366 33.7476L40.3943 3.35938H20.6543Z" fill="#8C1919"/>
<path d="M42.8408 0H18.209L10.5996 23.4212L30.5125 37.8988L50.4255 23.4212L42.8408 0ZM14.5278 22.1612L20.6302 3.38471H40.3949L46.4972 22.1612L30.5125 33.7729L14.5278 22.1612Z" fill="url(#paint5_radial_1028_49932)"/>
<path d="M42.839 0H18.2072L16.4531 5.43529C17.5402 5.48471 18.6766 5.63294 19.8378 5.8553L20.6531 3.38471H40.4178L46.5202 22.1612L44.1978 23.8412C44.7167 24.8541 45.1861 25.8918 45.5814 26.9788L50.4484 23.4459L42.839 0Z" fill="url(#paint6_radial_1028_49932)"/>
<path d="M42.839 0H18.2072L16.4531 5.43529C17.5402 5.48471 18.6766 5.63294 19.8378 5.8553L20.6531 3.38471H40.4178L46.5202 22.1612L44.1978 23.8412C44.7167 24.8541 45.1861 25.8918 45.5814 26.9788L50.4484 23.4459L42.839 0Z" fill="url(#paint7_linear_1028_49932)"/>
<path d="M41.482 29.9449C41.3584 28.6355 41.1608 27.4002 40.9137 26.2143L30.5372 33.7496L14.5526 22.1379L18.9255 8.64844C17.6902 8.67314 16.4549 8.82138 15.269 9.06844L10.5996 23.4226L30.5125 37.9002L41.482 29.9449Z" fill="url(#paint8_linear_1028_49932)"/>
<path d="M14.5273 22.1606L16.1085 21.79L21.6179 4.86644H39.4062L44.9156 21.79L46.4968 22.1606L40.3944 3.35938H20.6297L14.5273 22.1606Z" fill="#9E2C19"/>
<path opacity="0.2" d="M16.1074 21.7907L19.1957 13.8848C21.0239 9.21542 25.5204 7.18954 30.5357 7.18954C35.5757 7.18954 40.0968 9.24013 41.9004 13.9589L44.9145 21.7907L39.4051 4.86719H21.5921L16.1074 21.7907Z" fill="#892334"/>
<path d="M14.5273 22.1597L16.1085 21.7891L30.5121 32.2644L44.9156 21.7891L46.4968 22.1597L30.5121 33.7467L14.5273 22.1597Z" fill="url(#paint9_linear_1028_49932)"/>
<path opacity="0.6" d="M16.1074 21.792L21.7651 7.28963C22.0368 6.59787 22.7039 6.12845 23.4698 6.12845H37.6757C38.4416 6.12845 39.1086 6.59787 39.3804 7.28963L44.9392 21.7673L39.4298 4.84375H21.6168L16.1074 21.792Z" fill="#892334"/>
<path d="M20.6289 3.35938L21.6171 4.86644H39.4054L40.3936 3.35938H20.6289Z" fill="#681D15"/>
<path opacity="0.35" d="M13.3173 15.0195L11.4149 22.1595C11.2667 22.7772 11.5631 23.5925 12.0572 23.9631L30.5125 37.8725L10.5996 23.3948L13.3173 15.0195Z" fill="#9E2C19"/>
<path opacity="0.6" d="M16.1074 21.7891L29.8439 31.0538C30.2145 31.3008 30.8074 31.3008 31.178 31.0538L44.9145 21.7891L30.511 32.2644L16.1074 21.7891Z" fill="#892334"/>
<path opacity="0.35" d="M30.5117 37.8983L48.2505 24.1866C49.4858 23.2724 49.7576 23.0748 49.1894 21.296L45.4835 8.22656L50.4247 23.4207L30.5117 37.8983Z" fill="#9E2C19"/>
<path d="M21.7168 27.3732L30.5121 33.7474L42.3956 25.125L30.5121 34.2909L21.7168 27.3732Z" fill="#FFF5CC"/>
<path d="M29.8457 0H42.841L45.5092 8.25176L42.3222 0.46941L29.8457 0Z" fill="#FFF5CC"/>
<path d="M35.0077 0C34.9088 1.06235 35.3535 2.27294 36.2677 3.36H40.3936L41.4065 6.49764C42.6912 6.81882 43.9265 6.81882 44.9395 6.54706L42.8147 0H35.0077Z" fill="#FFF2BB"/>
<path d="M20.6534 26.582C20.3323 27.3726 20.9005 28.5832 22.037 29.3985C23.1734 30.2138 24.4828 30.3867 25.1499 29.8432L20.6534 26.582Z" fill="#FFF2BB"/>
<path d="M25.1755 32.0447C24.9778 32.3412 24.459 32.3412 23.9896 32.02C23.5201 31.6988 23.3225 31.2541 23.4954 30.9576C23.6684 30.6612 24.2119 30.6612 24.6813 30.9823C25.1507 31.2788 25.3484 31.7482 25.1755 32.0447Z" fill="#FFF2BB"/>
<path d="M16.2563 0.171875L17.0716 1.72834L15.5151 6.39775L14.6504 5.03893L16.2563 0.171875Z" fill="#9E2C19"/>
<path d="M44.7676 0.174415L45.5335 6.40029C47.3123 6.40029 48.8194 6.37559 51.4876 6.37559C60.9747 6.37559 61.0241 0.125 61.0241 0.125L44.7676 0.174415Z" fill="#681D15"/>
<path d="M44.7676 0.174415L46.3735 5.04147C48.1523 5.04147 48.4488 5.01676 51.1417 5.01676C60.6288 5.01676 61.0241 0.125 61.0241 0.125L44.7676 0.174415Z" fill="url(#paint10_radial_1028_49932)"/>
<path d="M47.1875 7.58457L47.9287 13.8104C49.7075 13.8104 47.5334 13.8104 50.2263 13.8104C59.7134 13.8104 59.7628 7.53516 59.7628 7.53516L47.1875 7.58457Z" fill="#681D15"/>
<path d="M47.1875 7.5833L48.7687 12.4751C50.5475 12.4751 47.1875 12.4504 49.8557 12.4504C59.3428 12.4504 59.7628 7.55859 59.7628 7.55859L47.1875 7.5833Z" fill="url(#paint11_radial_1028_49932)"/>
<path d="M49.584 14.97L56.2793 14.9453C56.2793 14.9453 55.2416 19.6394 50.3499 21.2206L49.584 14.97Z" fill="#681D15"/>
<path d="M49.584 14.97L56.2793 14.9453C56.2793 14.9453 56.0816 18.2806 51.1899 19.8618L49.584 14.97Z" fill="url(#paint12_radial_1028_49932)"/>
<path d="M44.7676 0.174415L46.3735 5.04147C48.1523 5.04147 48.4488 5.01676 51.1417 5.01676C60.6288 5.01676 61.0241 0.125 61.0241 0.125L44.7676 0.174415Z" fill="url(#paint13_linear_1028_49932)"/>
<path d="M47.1875 7.5833L48.7687 12.4751C50.5475 12.4751 47.1875 12.4504 49.8557 12.4504C59.3428 12.4504 59.7628 7.55859 59.7628 7.55859L47.1875 7.5833Z" fill="url(#paint14_linear_1028_49932)"/>
<path d="M44.7671 0.171875L43.9766 1.72834L45.533 6.39775L46.373 5.03893L44.7671 0.171875Z" fill="#9E2C19"/>
<path d="M47.1884 7.58594L46.373 9.1177L47.9295 13.8118L48.7695 12.453L47.1884 7.58594Z" fill="#9E2C19"/>
<path d="M49.5848 14.9727L48.7695 16.5044L51.1166 23.6197L52.5495 24.015L49.5848 14.9727Z" fill="#9E2C19"/>
<path opacity="0.35" d="M13.7617 13.6611L17.937 1.72814C18.357 0.517554 18.6782 0.196379 19.9629 0.146967L30.5123 0.0234375H18.2088L13.7617 13.6611Z" fill="#9E2C19"/>
<path d="M34.2428 1.87866C33.3781 1.26102 32.3404 1.21161 31.9204 1.77984C31.624 2.19984 31.7228 2.81749 32.1181 3.36102H35.2063C35.1569 2.8669 34.811 2.29866 34.2428 1.87866Z" fill="#FFF2BB"/>
<path opacity="0.35" fill-rule="evenodd" clip-rule="evenodd" d="M48.4488 4.66834C47.3617 4.56952 46.6205 4.17423 46.1264 3.2107L44.7676 0.171875L46.3735 5.03893C48.1523 5.03893 48.4488 5.01422 51.1417 5.01422C52.6488 5.01422 53.9335 4.8907 55.0205 4.69305C52.6488 4.98952 50.2523 4.84128 48.4488 4.66834Z" fill="#9E2C19"/>
<path opacity="0.35" fill-rule="evenodd" clip-rule="evenodd" d="M49.857 12.453C52.1546 12.453 53.9088 12.1812 55.2676 11.7365C53.3158 12.2801 51.6852 12.2306 50.4252 12.1565C49.5605 12.1071 48.8687 11.4648 48.4982 10.6989L47.1641 7.58594L48.7452 12.4777C50.5487 12.453 47.1887 12.4283 49.857 12.453Z" fill="#9E2C19"/>
<path opacity="0.35" fill-rule="evenodd" clip-rule="evenodd" d="M51.1652 19.8631C52.2275 19.5173 53.0675 19.0973 53.7346 18.6526C52.944 18.949 51.4616 19.1714 51.4616 19.1714L49.584 14.9961L51.1652 19.8631Z" fill="#9E2C19"/>
<path d="M44.7676 0.174415L59.6158 0.421474C60.2087 0.421474 60.4805 0.890885 60.2335 1.40971C59.9617 1.97794 59.5417 2.645 58.8252 3.21324C60.8758 1.82971 61.0241 0.125 61.0241 0.125L44.7676 0.174415Z" fill="#FFF5CC"/>
<path d="M47.1875 7.58457L58.1569 7.83163C59.4416 7.85634 59.2193 8.39987 58.8981 9.06692C58.7004 9.48692 58.404 9.93163 58.0334 10.3022C59.664 8.99281 59.7875 7.53516 59.7875 7.53516L47.1875 7.58457Z" fill="#FFF5CC"/>
<path d="M46.3735 5.0402C47.6582 5.0402 48.177 5.01549 49.3629 5.01549C51.0429 3.95314 52.1546 2.39667 52.3276 0.568433C52.3276 0.420198 52.3523 0.271967 52.3523 0.148438L44.7676 0.173145L46.3735 5.0402Z" fill="#FFF2BB"/>
<path d="M54.4033 18.1077C56.1574 16.5759 56.2562 14.9453 56.2562 14.9453L49.561 14.97L52.5257 24.0124L31.2539 39.4783V41.9488L58.3068 26.903L54.4033 18.1077Z" fill="url(#paint15_radial_1028_49932)"/>
<path d="M8.47325 24.0124L11.4627 14.97L4.76737 14.9453C4.76737 14.9453 4.86619 16.5759 6.62031 18.1077L2.7168 26.8783L29.7697 41.9241V39.4536L8.47325 24.0124Z" fill="url(#paint16_radial_1028_49932)"/>
<path d="M8.47325 24.0124L11.4627 14.97L4.76737 14.9453C4.76737 14.9453 4.86619 16.5759 6.62031 18.1077L2.7168 26.8783L29.7697 41.9241V39.4536L8.47325 24.0124Z" fill="url(#paint17_linear_1028_49932)"/>
<path d="M9.93226 23.5703L29.7711 38.6656V39.4809L8.47461 24.015L9.93226 23.5703Z" fill="url(#paint18_linear_1028_49932)"/>
<path d="M51.1162 23.6172L31.2773 38.6631V39.4784L52.5491 24.0125L51.1162 23.6172Z" fill="url(#paint19_linear_1028_49932)"/>
<path d="M54.4016 18.1077C56.1557 16.5759 56.2545 14.9453 56.2545 14.9453L49.5592 14.97L52.5239 24.0124L46.1992 28.6077C46.2733 28.8547 46.3227 29.1265 46.3968 29.3735C46.7427 30.7324 47.0392 31.943 47.2863 33.0053L58.3051 26.8783L54.4016 18.1077Z" fill="url(#paint20_linear_1028_49932)"/>
<path d="M41.5797 34.1935C41.6291 33.4277 41.6538 32.6865 41.6538 31.9453L31.2773 39.4806V41.9512L41.1103 36.4665C41.3574 35.7747 41.5056 35.0088 41.5797 34.1935Z" fill="url(#paint21_linear_1028_49932)"/>
<path opacity="0.35" d="M6.62031 18.1077L2.7168 26.8783L16.7745 34.71C16.7745 34.71 7.18856 28.9783 4.10032 27.0265C3.55679 26.6806 3.35914 26.3841 3.6309 25.7912C4.54502 23.6665 6.62033 18.6759 7.01563 17.91C5.78033 16.9465 5.26151 16.0324 4.7921 14.9453C4.76739 14.9453 4.86619 16.5759 6.62031 18.1077Z" fill="#9E2C19"/>
<path d="M55.1181 17.3912C56.2052 16.1065 56.2546 14.9453 56.2546 14.9453L49.584 14.97L55.0934 15.1924C55.9087 15.2418 55.7604 15.5383 55.6616 15.9335C55.5628 16.4277 55.3899 16.9465 55.1181 17.3912Z" fill="#FFF5CC"/>
<path opacity="0.35" d="M45.2617 34.1701L55.5641 27.9442C57.3923 26.8325 57.5652 26.6348 56.7747 24.6337L55.0452 19.5195L58.3311 26.9066L45.2617 34.1701Z" fill="#9E2C19"/>
<path opacity="0.35" d="M31.2773 39.4786C31.2773 39.4786 31.3515 39.8245 31.4009 40.0962C31.5985 41.2821 31.9197 41.208 32.6115 40.8868L36.4903 39.0586L31.302 41.9492V39.4786H31.2773Z" fill="#9E2C19"/>
<path opacity="0.35" d="M20.0859 36.5664L28.5354 40.8405C29.4001 41.3099 29.4989 41.0629 29.6718 40.0746C29.6965 39.9511 29.746 39.5558 29.746 39.5558V41.9523L20.0859 36.5664Z" fill="#9E2C19"/>
<path opacity="0.6" d="M39.0353 14.229V13.2407L33.353 14.229L30.5118 9.3125L27.6706 14.229L21.9883 13.2407V14.229L24.8295 19.1454L21.9883 23.0737V24.0619H27.6706L30.5118 28.9784L33.353 24.0619H39.0353V23.0737L36.1942 19.1454L39.0353 14.229ZM35.1318 21.8137H32.0436L30.5118 24.4819L28.98 21.8137H25.8918L27.4236 19.1454V18.1572L25.8918 16.4772H28.98L30.5118 13.809L32.0436 16.4772H35.1318L33.6 18.1572V19.1454L35.1318 21.8137Z" fill="#892334"/>
<path d="M39.0353 13.2407V11.7583L33.353 13.2407L30.5118 8.32422L27.6706 13.2407L21.9883 11.7583V13.2407L24.8295 18.1572L21.9883 21.5913V23.0736H27.6706L30.5118 27.9901L33.353 23.0736H39.0353V21.5913L36.1942 18.1572L39.0353 13.2407ZM35.1318 20.8254H32.0436L30.5118 23.4936L28.98 20.8254H25.8918L27.4236 18.1572V16.6748L25.8918 15.4889H28.98L30.5118 12.8207L32.0436 15.4889H35.1318L33.6 16.6748V18.1572L35.1318 20.8254Z" fill="#9E2C19"/>
<path d="M39.0353 11.7602H33.353L30.5118 6.84375L27.6706 11.7602H21.9883L24.8295 16.6767L21.9883 21.5932H27.6706L30.5118 26.5096L33.353 21.5932H39.0353L36.1942 16.6767L39.0353 11.7602ZM35.1318 19.3449H32.0436L30.5118 22.0132L28.98 19.3449H25.8918L27.4236 16.6767L25.8918 14.0085H28.98L30.5118 11.3402L32.0436 14.0085H35.1318L33.6 16.6767L35.1318 19.3449Z" fill="url(#paint22_radial_1028_49932)"/>
<path d="M37.9221 13.6888L39.0338 11.7617H35.6738C36.4644 12.3547 37.2056 12.997 37.9221 13.6888Z" fill="url(#paint23_linear_1028_49932)"/>
<path d="M29.8438 8.00492C30.5108 8.3508 31.1779 8.72139 31.8202 9.09198L30.5108 6.84375L29.8438 8.00492Z" fill="url(#paint24_linear_1028_49932)"/>
<path d="M34.884 14.4524L33.5994 16.676L35.1311 19.3442H32.0429L30.5111 22.0124L28.9793 19.3442H25.8911L27.4229 16.676L25.8911 14.0077H28.9793L30.5111 11.3395L32.0429 14.0077H34.3899C32.6358 12.4266 30.6593 11.1171 28.584 10.1289L27.6452 11.7348H21.9629L24.8041 16.6513L21.9629 21.5677H27.6452L30.4864 26.4842L33.3276 21.5677H39.0099L36.1688 16.6513L36.4652 16.1324C35.9958 15.5395 35.4523 14.9713 34.884 14.4524Z" fill="url(#paint25_linear_1028_49932)"/>
<path d="M30.5106 12.8222V11.3398L28.9789 14.0081H25.8906L26.7553 15.4904H28.9789L30.5106 12.8222Z" fill="#681D15"/>
<path d="M32.043 15.4902V14.0078H35.1312L34.2665 15.4655L32.043 15.4902Z" fill="#681D15"/>
<path d="M21.9883 11.7617L24.8295 16.6782L24.4094 17.4194L21.9883 13.2441V11.7617Z" fill="#681D15"/>
<path d="M21.9883 21.5938H27.6706L30.5118 26.5102V27.9926L27.6706 23.0761H21.9883V21.5938Z" fill="#681D15"/>
<path d="M39.0339 21.5938H33.3516V23.0761H39.0339V21.5938Z" fill="#681D15"/>
<path opacity="0.5" d="M35.7492 18.4794C35.3292 18.3558 34.9339 18.3558 34.6374 18.4794L35.1315 19.3441H34.168C34.2915 19.7147 34.6868 20.0605 35.2056 20.2088C35.9221 20.4311 36.6386 20.2335 36.7868 19.7641C36.9598 19.2947 36.4903 18.7264 35.7492 18.4794Z" fill="#FCE265"/>
<path opacity="0.5" d="M34.0932 20.258C34.019 20.5051 33.6731 20.6039 33.3026 20.4804C32.932 20.3569 32.7096 20.0851 32.7837 19.838C32.8579 19.591 33.2038 19.4922 33.5743 19.6157C33.9449 19.7392 34.1673 20.011 34.0932 20.258Z" fill="#FCE265"/>
<path opacity="0.8" d="M30.5117 6.84375L33.0811 12.1308L39.0352 11.7602H33.3529L30.5117 6.84375Z" fill="#FFE67B"/>
<path d="M21.9883 21.5932L27.8436 21.2227L30.5118 26.5097L27.6706 21.5932H21.9883Z" fill="#FFE67B"/>
<path opacity="0.35" d="M30.5117 26.5107L33.1305 20.9766L39.0352 21.5942H33.3529L30.5117 26.5107Z" fill="#9E2C19"/>
<path opacity="0.35" d="M21.9883 11.7617L25.4471 16.6782L21.9883 21.5947L24.8295 16.6782L21.9883 11.7617Z" fill="#9E2C19"/>
<path d="M25.8906 19.3438L28.6824 19.739L30.5106 22.012L28.9789 19.3438H25.8906Z" fill="#FFE67B"/>
<path opacity="0.35" d="M30.5117 11.3398L32.2658 13.6622L35.1317 14.0081H32.0435L30.5117 11.3398Z" fill="#9E2C19"/>
<path opacity="0.5" d="M6.05273 14.9453L11.4386 14.97L9.3386 21.3688L10.9939 15.6371C10.9692 15.3159 10.8951 15.1924 10.4504 15.1677L6.05273 14.9453Z" fill="#FFE67B"/>
<path d="M1.28516 7.53516C1.28516 7.53516 1.35927 8.32575 2.05103 9.28928C3.08868 8.69633 4.24987 8.10339 5.46046 7.55986L1.28516 7.53516Z" fill="url(#paint26_linear_1028_49932)"/>
<defs>
<radialGradient id="paint0_radial_1028_49932" cx="0" cy="0" r="1" gradientUnits="userSpaceOnUse" gradientTransform="translate(8.14186 2.59596) scale(5.99861 5.99861)">
<stop offset="0.0139665" stop-color="#E85621"/>
<stop offset="1" stop-color="#E33A0B"/>
</radialGradient>
<radialGradient id="paint1_radial_1028_49932" cx="0" cy="0" r="1" gradientUnits="userSpaceOnUse" gradientTransform="translate(7.56868 9.99971) scale(4.77545 4.77545)">
<stop offset="0.0139665" stop-color="#E85621"/>
<stop offset="1" stop-color="#E33A0B"/>
</radialGradient>
<radialGradient id="paint2_radial_1028_49932" cx="0" cy="0" r="1" gradientUnits="userSpaceOnUse" gradientTransform="translate(8.11361 17.4001) scale(2.93196 2.93194)">
<stop offset="0.0139665" stop-color="#E85621"/>
<stop offset="1" stop-color="#E33A0B"/>
</radialGradient>
<linearGradient id="paint3_linear_1028_49932" x1="26.3851" y1="-23.2894" x2="7.2215" y2="2.7565" gradientUnits="userSpaceOnUse">
<stop stop-color="#FFA369"/>
<stop offset="0.1319" stop-color="#FE9E66"/>
<stop offset="0.2926" stop-color="#FA8F5C"/>
<stop offset="0.4684" stop-color="#F3764C"/>
<stop offset="0.6548" stop-color="#EA5436"/>
<stop offset="0.8476" stop-color="#DF281A"/>
<stop offset="1" stop-color="#D40000"/>
</linearGradient>
<linearGradient id="paint4_linear_1028_49932" x1="2.06817" y1="24.5199" x2="16.9402" y2="2.1327" gradientUnits="userSpaceOnUse">
<stop stop-color="#D40000"/>
<stop offset="1" stop-color="#FFAF47"/>
</linearGradient>
<radialGradient id="paint5_radial_1028_49932" cx="0" cy="0" r="1" gradientUnits="userSpaceOnUse" gradientTransform="translate(30.5168 18.9567) scale(19.4395 19.4395)">
<stop offset="0.0139665" stop-color="#E85621"/>
<stop offset="1" stop-color="#E33A0B"/>
</radialGradient>
<radialGradient id="paint6_radial_1028_49932" cx="0" cy="0" r="1" gradientUnits="userSpaceOnUse" gradientTransform="translate(33.4396 13.4919) scale(15.3398 15.3398)">
<stop offset="0.0139665" stop-color="#E85621"/>
<stop offset="1" stop-color="#E33A0B"/>
</radialGradient>
<linearGradient id="paint7_linear_1028_49932" x1="48.7956" y1="-6.13657" x2="28.9793" y2="18.3074" gradientUnits="userSpaceOnUse">
<stop stop-color="#FFA369"/>
<stop offset="0.1319" stop-color="#FE9E66"/>
<stop offset="0.2926" stop-color="#FA8F5C"/>
<stop offset="0.4684" stop-color="#F3764C"/>
<stop offset="0.6548" stop-color="#EA5436"/>
<stop offset="0.8476" stop-color="#DF281A"/>
<stop offset="1" stop-color="#D40000"/>
</linearGradient>
<linearGradient id="paint8_linear_1028_49932" x1="17.2407" y1="33.4558" x2="34.5651" y2="11.741" gradientUnits="userSpaceOnUse">
<stop stop-color="#D40000"/>
<stop offset="1" stop-color="#FFAF47"/>
</linearGradient>
<linearGradient id="paint9_linear_1028_49932" x1="30.5163" y1="19.0243" x2="30.5163" y2="25.6256" gradientUnits="userSpaceOnUse">
<stop offset="0.6285" stop-color="#F7814A"/>
<stop offset="1" stop-color="#F7E399"/>
</linearGradient>
<radialGradient id="paint10_radial_1028_49932" cx="0" cy="0" r="1" gradientUnits="userSpaceOnUse" gradientTransform="translate(52.8949 2.59596) scale(5.99862 5.99861)">
<stop offset="0.0139665" stop-color="#E85621"/>
<stop offset="1" stop-color="#E33A0B"/>
</radialGradient>
<radialGradient id="paint11_radial_1028_49932" cx="0" cy="0" r="1" gradientUnits="userSpaceOnUse" gradientTransform="translate(53.4672 9.99971) scale(4.77545 4.77545)">
<stop offset="0.0139665" stop-color="#E85621"/>
<stop offset="1" stop-color="#E33A0B"/>
</radialGradient>
<radialGradient id="paint12_radial_1028_49932" cx="0" cy="0" r="1" gradientUnits="userSpaceOnUse" gradientTransform="translate(52.9212 17.4001) scale(2.93194 2.93194)">
<stop offset="0.0139665" stop-color="#E85621"/>
<stop offset="1" stop-color="#E33A0B"/>
</radialGradient>
<linearGradient id="paint13_linear_1028_49932" x1="54.9468" y1="-2.27387" x2="35.7832" y2="23.772" gradientUnits="userSpaceOnUse">
<stop stop-color="#FFA369"/>
<stop offset="0.1319" stop-color="#FE9E66"/>
<stop offset="0.2926" stop-color="#FA8F5C"/>
<stop offset="0.4684" stop-color="#F3764C"/>
<stop offset="0.6548" stop-color="#EA5436"/>
<stop offset="0.8476" stop-color="#DF281A"/>
<stop offset="1" stop-color="#D40000"/>
</linearGradient>
<linearGradient id="paint14_linear_1028_49932" x1="58.8494" y1="0.595638" x2="39.6859" y2="26.6415" gradientUnits="userSpaceOnUse">
<stop stop-color="#FFA369"/>
<stop offset="0.1319" stop-color="#FE9E66"/>
<stop offset="0.2926" stop-color="#FA8F5C"/>
<stop offset="0.4684" stop-color="#F3764C"/>
<stop offset="0.6548" stop-color="#EA5436"/>
<stop offset="0.8476" stop-color="#DF281A"/>
<stop offset="1" stop-color="#D40000"/>
</linearGradient>
<radialGradient id="paint15_radial_1028_49932" cx="0" cy="0" r="1" gradientUnits="userSpaceOnUse" gradientTransform="translate(44.7953 28.4456) scale(13.5112 13.5112)">
<stop offset="0.0139665" stop-color="#E85621"/>
<stop offset="1" stop-color="#E33A0B"/>
</radialGradient>
<radialGradient id="paint16_radial_1028_49932" cx="0" cy="0" r="1" gradientUnits="userSpaceOnUse" gradientTransform="translate(16.2369 28.4456) scale(13.5112 13.5112)">
<stop offset="0.0139665" stop-color="#E85621"/>
<stop offset="1" stop-color="#E33A0B"/>
</radialGradient>
<linearGradient id="paint17_linear_1028_49932" x1="12.7449" y1="35.542" x2="30.2399" y2="8.07782" gradientUnits="userSpaceOnUse">
<stop stop-color="#D40000"/>
<stop offset="1" stop-color="#FFAF47"/>
</linearGradient>
<linearGradient id="paint18_linear_1028_49932" x1="8.47898" y1="31.5332" x2="29.7607" y2="31.5332" gradientUnits="userSpaceOnUse">
<stop offset="0.0921788" stop-color="#F7814A"/>
<stop offset="0.1308" stop-color="#F7874F"/>
<stop offset="0.3944" stop-color="#F7AF6F"/>
<stop offset="0.6359" stop-color="#F7CB86"/>
<stop offset="0.8457" stop-color="#F7DD94"/>
<stop offset="1" stop-color="#F7E399"/>
</linearGradient>
<linearGradient id="paint19_linear_1028_49932" x1="52.5533" y1="31.5456" x2="31.2716" y2="31.5456" gradientUnits="userSpaceOnUse">
<stop offset="0.0921788" stop-color="#F7814A"/>
<stop offset="0.1308" stop-color="#F7874F"/>
<stop offset="0.3944" stop-color="#F7AF6F"/>
<stop offset="0.6359" stop-color="#F7CB86"/>
<stop offset="0.8457" stop-color="#F7DD94"/>
<stop offset="1" stop-color="#F7E399"/>
</linearGradient>
<linearGradient id="paint20_linear_1028_49932" x1="65.1377" y1="8.61646" x2="44.7105" y2="31.0961" gradientUnits="userSpaceOnUse">
<stop stop-color="#FFA369"/>
<stop offset="0.1319" stop-color="#FE9E66"/>
<stop offset="0.2926" stop-color="#FA8F5C"/>
<stop offset="0.4684" stop-color="#F3764C"/>
<stop offset="0.6548" stop-color="#EA5436"/>
<stop offset="0.8476" stop-color="#DF281A"/>
<stop offset="1" stop-color="#D40000"/>
</linearGradient>
<linearGradient id="paint21_linear_1028_49932" x1="30.5278" y1="46.8719" x2="48.0229" y2="19.4076" gradientUnits="userSpaceOnUse">
<stop stop-color="#D40000"/>
<stop offset="1" stop-color="#FFAF47"/>
</linearGradient>
<radialGradient id="paint22_radial_1028_49932" cx="0" cy="0" r="1" gradientUnits="userSpaceOnUse" gradientTransform="translate(30.5161 16.6755) scale(9.20595 9.20595)">
<stop offset="0.0139665" stop-color="#E85621"/>
<stop offset="1" stop-color="#E33A0B"/>
</radialGradient>
<linearGradient id="paint23_linear_1028_49932" x1="43.2015" y1="4.44879" x2="35.8712" y2="13.9293" gradientUnits="userSpaceOnUse">
<stop stop-color="#FFA369"/>
<stop offset="0.1319" stop-color="#FE9E66"/>
<stop offset="0.2926" stop-color="#FA8F5C"/>
<stop offset="0.4684" stop-color="#F3764C"/>
<stop offset="0.6548" stop-color="#EA5436"/>
<stop offset="0.8476" stop-color="#DF281A"/>
<stop offset="1" stop-color="#D40000"/>
</linearGradient>
<linearGradient id="paint24_linear_1028_49932" x1="37.3713" y1="-0.0612044" x2="30.0417" y2="9.41851" gradientUnits="userSpaceOnUse">
<stop stop-color="#FFA369"/>
<stop offset="0.1319" stop-color="#FE9E66"/>
<stop offset="0.2926" stop-color="#FA8F5C"/>
<stop offset="0.4684" stop-color="#F3764C"/>
<stop offset="0.6548" stop-color="#EA5436"/>
<stop offset="0.8476" stop-color="#DF281A"/>
<stop offset="1" stop-color="#D40000"/>
</linearGradient>
<linearGradient id="paint25_linear_1028_49932" x1="20.3216" y1="29.52" x2="42.1171" y2="2.05567" gradientUnits="userSpaceOnUse">
<stop stop-color="#D40000"/>
<stop offset="1" stop-color="#FFAF47"/>
</linearGradient>
<linearGradient id="paint26_linear_1028_49932" x1="26.1761" y1="-23.4439" x2="7.01252" y2="2.60202" gradientUnits="userSpaceOnUse">
<stop stop-color="#FFA369"/>
<stop offset="0.1319" stop-color="#FE9E66"/>
<stop offset="0.2926" stop-color="#FA8F5C"/>
<stop offset="0.4684" stop-color="#F3764C"/>
<stop offset="0.6548" stop-color="#EA5436"/>
<stop offset="0.8476" stop-color="#DF281A"/>
<stop offset="1" stop-color="#D40000"/>
</linearGradient>
</defs>
</svg>
