<svg width="918" height="153" viewBox="0 0 918 153" fill="none" xmlns="http://www.w3.org/2000/svg">
<mask id="mask0_1028_60470" style="mask-type:alpha" maskUnits="userSpaceOnUse" x="0" y="0" width="918" height="153">
<rect width="918" height="153" rx="10" fill="#1A1917"/>
</mask>
<g mask="url(#mask0_1028_60470)">
<path d="M53.6334 115.7H49.5334V106.133C49.5311 105.38 48.9206 104.769 48.1668 104.767H44.0667V99.3C44.0667 98.5452 43.4549 97.9334 42.7001 97.9334H38.6001V93.8334C38.5979 93.0795 37.9874 92.4689 37.2335 92.4668H31.7669V88.3668C31.7645 87.6128 31.1538 87.0022 30.3999 87H-3.76673C-4.52059 87.0022 -5.13127 87.6128 -5.13335 88.3666V92.4666H-9.23335C-9.98721 92.4689 -10.5979 93.0794 -10.6 93.8332V97.9332H-14.7001C-15.455 97.9332 -16.0668 98.545 -16.0668 99.2999V103.4H-20.1668C-20.9206 103.402 -21.5313 104.013 -21.5334 104.766V115.7H-25.6334C-26.3872 115.702 -26.9979 116.313 -27 117.067V162.167C-26.9978 162.921 -26.3872 163.531 -25.6334 163.533H-21.5334V167.633C-21.5311 168.387 -20.9206 168.998 -20.1668 169H-9.23335C-8.4795 168.998 -7.86882 168.387 -7.86674 167.633V163.533H-2.40011C-1.64626 163.531 -1.03558 162.921 -1.0335 162.167V158.067H1.69989V162.167C1.70213 162.921 2.31265 163.531 3.06651 163.533H7.16652V167.68C7.16652 168.031 7.30681 168.369 7.5565 168.617C7.80602 168.865 8.14427 169.003 8.49598 169H19.5039C19.8556 169.003 20.1938 168.865 20.4433 168.617C20.6929 168.369 20.8333 168.031 20.8333 167.68V163.533H24.9333C25.6872 163.531 26.2979 162.921 26.2999 162.167V158.067H29.0333V162.167C29.0356 162.921 29.6461 163.531 30.3999 163.533H35.8666V167.633C35.8688 168.387 36.4793 168.998 37.2332 169H48.1666C48.9204 168.998 49.5311 168.387 49.5332 167.633V163.533H53.6332C54.3871 163.531 54.9977 162.921 54.9998 162.167V117.067C54.9977 116.313 54.3872 115.702 53.6334 115.7ZM12.6333 126.633H9.89991V133.498C9.90215 133.852 9.76313 134.191 9.51377 134.442C9.2644 134.693 8.92535 134.834 8.57173 134.833H-2.43855C-2.79218 134.834 -3.13123 134.693 -3.38059 134.442C-3.62996 134.191 -3.76897 133.851 -3.76673 133.498V126.633H-6.50012V112.967H-2.40011C-1.64626 112.965 -1.03558 112.354 -1.0335 111.6V107.5H7.16652V111.656C7.16668 112.006 7.30617 112.34 7.5541 112.586C7.80202 112.832 8.13787 112.969 8.48701 112.967H12.6333V126.633ZM46.8 126.633H44.0666V133.467C44.0666 134.222 43.4548 134.833 42.7 134.833H31.7294C31.3756 134.834 31.0362 134.693 30.7867 134.442C30.5372 134.192 30.3979 133.852 30.3999 133.498V126.633H26.2999V112.967H31.7666C32.5204 112.965 33.1311 112.354 33.1332 111.6V107.5H41.3332V111.6C41.3354 112.354 41.946 112.965 42.6998 112.967H46.7998L46.8 126.633Z" fill="#2B2724"/>
<path d="M41.3328 123.898H33.1328V132.098H41.3328V123.898Z" fill="#2B2724"/>
<path d="M7.16681 123.898H-1.0332V132.098H7.16681V123.898Z" fill="#2B2724"/>
<path d="M830.367 87.7001H834.467V78.1334C834.469 77.3796 835.079 76.7689 835.833 76.7668H839.933V71.3C839.933 70.5452 840.545 69.9334 841.3 69.9334H845.4V65.8334C845.402 65.0795 846.013 64.4689 846.766 64.4668H852.233V60.3668C852.236 59.6128 852.846 59.0022 853.6 59H887.767C888.521 59.0022 889.131 59.6128 889.133 60.3666V64.4666H893.233C893.987 64.4689 894.598 65.0794 894.6 65.8332V69.9332H898.7C899.455 69.9332 900.067 70.545 900.067 71.2999V75.3999H904.167C904.921 75.4021 905.531 76.0126 905.533 76.7665V87.7001H909.633C910.387 87.7023 910.998 88.3128 911 89.0667V134.167C910.998 134.921 910.387 135.531 909.633 135.533H905.533V139.633C905.531 140.387 904.921 140.998 904.167 141H893.233C892.479 140.998 891.869 140.387 891.867 139.633V135.533H886.4C885.646 135.531 885.036 134.921 885.034 134.167V130.067H882.3V134.167C882.298 134.921 881.687 135.531 880.933 135.533H876.833V139.68C876.833 140.031 876.693 140.369 876.444 140.617C876.194 140.865 875.856 141.003 875.504 141H864.496C864.144 141.003 863.806 140.865 863.557 140.617C863.307 140.369 863.167 140.031 863.167 139.68V135.533H859.067C858.313 135.531 857.702 134.921 857.7 134.167V130.067H854.967V134.167C854.964 134.921 854.354 135.531 853.6 135.533H848.133V139.633C848.131 140.387 847.521 140.998 846.767 141H835.833C835.08 140.998 834.469 140.387 834.467 139.633V135.533H830.367C829.613 135.531 829.002 134.921 829 134.167V89.0667C829.002 88.3128 829.613 87.7023 830.367 87.7001ZM871.367 98.6335H874.1V105.498C874.098 105.852 874.237 106.191 874.486 106.442C874.736 106.693 875.075 106.834 875.428 106.833H886.439C886.792 106.834 887.131 106.693 887.381 106.442C887.63 106.191 887.769 105.851 887.767 105.498V98.6335H890.5V84.9668H886.4C885.646 84.9646 885.036 84.3541 885.034 83.6002V79.5H876.833V83.6564C876.833 84.0057 876.694 84.3405 876.446 84.5865C876.198 84.8325 875.862 84.9694 875.513 84.9668H871.367V98.6335ZM837.2 98.6335H839.933V105.467C839.933 106.222 840.545 106.833 841.3 106.833H852.271C852.624 106.834 852.964 106.693 853.213 106.442C853.463 106.192 853.602 105.852 853.6 105.498V98.6335H857.7V84.9668H852.233C851.48 84.9646 850.869 84.3541 850.867 83.6002V79.5H842.667V83.6C842.665 84.3539 842.054 84.9646 841.3 84.9667H837.2L837.2 98.6335Z" fill="#2B2724"/>
<path d="M842.667 95.8984H850.867V104.098H842.667V95.8984Z" fill="#2B2724"/>
<path d="M876.833 95.8984H885.033V104.098H876.833V95.8984Z" fill="#2B2724"/>
<path d="M796.367 56.7H797.467V54.1334C797.467 53.9311 797.631 53.7673 797.833 53.7667H798.933V52.3C798.933 52.0975 799.097 51.9334 799.3 51.9334H800.4V50.8334C800.401 50.6311 800.564 50.4673 800.767 50.4667H802.233V49.3667C802.234 49.1644 802.398 49.0006 802.6 49H811.767C811.969 49.0006 812.133 49.1644 812.133 49.3667V50.4667H813.233C813.436 50.4673 813.599 50.6311 813.6 50.8333V51.9333H814.7C814.903 51.9333 815.067 52.0975 815.067 52.3V53.4H816.167C816.369 53.4006 816.533 53.5644 816.533 53.7666V56.7H817.633C817.836 56.7006 817.999 56.8644 818 57.0667V69.1667C817.999 69.3689 817.836 69.5328 817.633 69.5333H816.533V70.6333C816.533 70.8356 816.369 70.9994 816.167 71H813.233C813.031 70.9994 812.867 70.8356 812.867 70.6333V69.5333H811.4C811.198 69.5327 811.034 69.3689 811.033 69.1667V68.0667H810.3V69.1667C810.299 69.3689 810.136 69.5328 809.933 69.5333H808.833V70.6458C808.833 70.7401 808.796 70.8306 808.729 70.8971C808.662 70.9636 808.571 71.0007 808.477 71H805.523C805.429 71.0007 805.338 70.9636 805.271 70.8971C805.204 70.8306 805.167 70.7401 805.167 70.6458V69.5333H804.067C803.864 69.5327 803.701 69.3689 803.7 69.1667V68.0667H802.967V69.1667C802.966 69.3689 802.802 69.5328 802.6 69.5333H801.133V70.6333C801.133 70.8356 800.969 70.9994 800.767 71H797.833C797.631 70.9994 797.467 70.8356 797.467 70.6333V69.5333H796.367C796.164 69.5327 796.001 69.3689 796 69.1667V57.0667C796.001 56.8644 796.164 56.7006 796.367 56.7ZM807.367 59.6334H808.1V61.4751C808.099 61.5699 808.137 61.6611 808.204 61.7284C808.271 61.7956 808.361 61.8334 808.456 61.8333H811.41C811.505 61.8334 811.596 61.7956 811.663 61.7284C811.73 61.6611 811.767 61.5699 811.767 61.4751V59.6334H812.5V55.9667H811.4C811.198 55.9661 811.034 55.8023 811.033 55.6001V54.5H808.833V55.6151C808.833 55.7089 808.796 55.7987 808.729 55.8647C808.663 55.9307 808.573 55.9674 808.479 55.9667H807.367V59.6334ZM798.2 59.6334H798.933V61.4667C798.933 61.6692 799.097 61.8334 799.3 61.8334H802.243C802.338 61.8335 802.429 61.7957 802.496 61.7284C802.563 61.6612 802.601 61.57 802.6 61.4751V59.6334H803.7V55.9667H802.233C802.031 55.9661 801.867 55.8023 801.867 55.6001V54.5H799.667V55.6C799.666 55.8023 799.502 55.9661 799.3 55.9667H798.2L798.2 59.6334Z" fill="#2B2724"/>
<path d="M799.667 58.8984H801.867V61.0984H799.667V58.8984Z" fill="#2B2724"/>
<path d="M808.833 58.8984H811.033V61.0984H808.833V58.8984Z" fill="#2B2724"/>
<path d="M838.2 28.2H838.8V26.8C838.8 26.6897 838.89 26.6003 839 26.6H839.6V25.8C839.6 25.6895 839.69 25.6 839.8 25.6H840.4V25C840.4 24.8897 840.49 24.8003 840.6 24.8H841.4V24.2C841.4 24.0897 841.49 24.0003 841.6 24H846.6C846.71 24.0003 846.8 24.0897 846.8 24.2V24.8H847.4C847.51 24.8003 847.6 24.8897 847.6 25V25.6H848.2C848.31 25.6 848.4 25.6895 848.4 25.8V26.4H849C849.11 26.4003 849.2 26.4897 849.2 26.6V28.2H849.8C849.91 28.2003 850 28.2897 850 28.4V35C850 35.1103 849.91 35.1997 849.8 35.2H849.2V35.8C849.2 35.9103 849.11 35.9997 849 36H847.4C847.29 35.9997 847.2 35.9103 847.2 35.8V35.2H846.4C846.29 35.1997 846.2 35.1103 846.2 35V34.4H845.8V35C845.8 35.1103 845.71 35.1997 845.6 35.2H845V35.8068C845 35.8582 844.979 35.9076 844.943 35.9439C844.906 35.9802 844.857 36.0004 844.805 36H843.195C843.143 36.0004 843.094 35.9802 843.057 35.9439C843.021 35.9076 843 35.8582 843 35.8068V35.2H842.4C842.29 35.1997 842.2 35.1103 842.2 35V34.4H841.8V35C841.8 35.1103 841.71 35.1997 841.6 35.2H840.8V35.8C840.8 35.9103 840.71 35.9997 840.6 36H839C838.89 35.9997 838.8 35.9103 838.8 35.8V35.2H838.2C838.09 35.1997 838 35.1103 838 35V28.4C838 28.2897 838.09 28.2003 838.2 28.2ZM844.2 29.8H844.6V30.8046C844.6 30.8563 844.62 30.9061 844.657 30.9427C844.693 30.9794 844.743 31 844.794 31H846.406C846.457 31 846.507 30.9794 846.544 30.9427C846.58 30.9061 846.6 30.8563 846.6 30.8046V29.8H847V27.8H846.4C846.29 27.7997 846.2 27.7104 846.2 27.6V27H845V27.6083C845 27.6594 844.98 27.7084 844.943 27.7444C844.907 27.7804 844.858 27.8004 844.807 27.8H844.2V29.8ZM839.2 29.8H839.6V30.8C839.6 30.9105 839.69 31 839.8 31H841.405C841.457 31.0001 841.507 30.9795 841.543 30.9428C841.58 30.9061 841.6 30.8563 841.6 30.8046V29.8H842.2V27.8H841.4C841.29 27.7997 841.2 27.7104 841.2 27.6V27H840V27.6C840 27.7103 839.91 27.7997 839.8 27.8H839.2L839.2 29.8Z" fill="#2B2724"/>
<path d="M840.001 29.3984H841.201V30.5984H840.001V29.3984Z" fill="#2B2724"/>
<path d="M844.999 29.3984H846.199V30.5984H844.999V29.3984Z" fill="#2B2724"/>
<path d="M775.2 12.2H775.8V10.8C775.8 10.6897 775.89 10.6003 776 10.6H776.6V9.8C776.6 9.68954 776.69 9.60001 776.8 9.60001H777.4V9.00001C777.4 8.88969 777.49 8.80032 777.6 8.80002H778.4V8.20002C778.4 8.08967 778.49 8.00033 778.6 8H783.6C783.71 8.00033 783.8 8.08967 783.8 8.19999V8.79999H784.4C784.51 8.80032 784.6 8.88967 784.6 8.99999V9.59999H785.2C785.31 9.59999 785.4 9.68952 785.4 9.79998V10.4H786C786.11 10.4003 786.2 10.4897 786.2 10.6V12.2H786.8C786.91 12.2003 787 12.2897 787 12.4V19C787 19.1103 786.91 19.1997 786.8 19.2H786.2V19.8C786.2 19.9103 786.11 19.9997 786 20H784.4C784.29 19.9997 784.2 19.9103 784.2 19.8V19.2H783.4C783.29 19.1997 783.2 19.1103 783.2 19V18.4H782.8V19C782.8 19.1103 782.71 19.1997 782.6 19.2H782V19.8068C782 19.8582 781.979 19.9076 781.943 19.9439C781.906 19.9802 781.857 20.0004 781.805 20H780.195C780.143 20.0004 780.094 19.9802 780.057 19.9439C780.021 19.9076 780 19.8582 780 19.8068V19.2H779.4C779.29 19.1997 779.2 19.1103 779.2 19V18.4H778.8V19C778.8 19.1103 778.71 19.1997 778.6 19.2H777.8V19.8C777.8 19.9103 777.71 19.9997 777.6 20H776C775.89 19.9997 775.8 19.9103 775.8 19.8V19.2H775.2C775.09 19.1997 775 19.1103 775 19V12.4C775 12.2897 775.09 12.2003 775.2 12.2ZM781.2 13.8H781.6V14.8046C781.6 14.8563 781.62 14.9061 781.657 14.9427C781.693 14.9794 781.743 15 781.794 15H783.406C783.457 15 783.507 14.9794 783.544 14.9427C783.58 14.9061 783.6 14.8563 783.6 14.8046V13.8H784V11.8H783.4C783.29 11.7997 783.2 11.7104 783.2 11.6V11H782V11.6083C782 11.6594 781.98 11.7084 781.943 11.7444C781.907 11.7804 781.858 11.8004 781.807 11.8H781.2V13.8ZM776.2 13.8H776.6V14.8C776.6 14.9105 776.69 15 776.8 15H778.405C778.457 15.0001 778.507 14.9795 778.543 14.9428C778.58 14.9061 778.6 14.8563 778.6 14.8046V13.8H779.2V11.8H778.4C778.29 11.7997 778.2 11.7104 778.2 11.6V11H777V11.6C777 11.7103 776.91 11.7997 776.8 11.8H776.2L776.2 13.8Z" fill="#2B2724"/>
<path d="M777.001 13.3984H778.201V14.5984H777.001V13.3984Z" fill="#2B2724"/>
<path d="M781.999 13.3984H783.199V14.5984H781.999V13.3984Z" fill="#2B2724"/>
<path d="M784.133 102.8H784.533V101.867C784.534 101.793 784.593 101.734 784.667 101.733H785.067V101.2C785.067 101.126 785.126 101.067 785.2 101.067H785.6V100.667C785.6 100.593 785.66 100.534 785.733 100.533H786.267V100.133C786.267 100.06 786.326 100 786.4 100H789.733C789.807 100 789.866 100.06 789.867 100.133V100.533H790.267C790.34 100.534 790.4 100.593 790.4 100.667V101.067H790.8C790.874 101.067 790.933 101.126 790.933 101.2V101.6H791.333C791.407 101.6 791.466 101.66 791.467 101.733V102.8H791.867C791.94 102.8 792 102.86 792 102.933V107.333C792 107.407 791.94 107.466 791.867 107.467H791.467V107.867C791.466 107.94 791.407 108 791.333 108H790.267C790.193 108 790.134 107.94 790.133 107.867V107.467H789.6C789.526 107.466 789.467 107.407 789.467 107.333V106.933H789.2V107.333C789.2 107.407 789.14 107.466 789.067 107.467H788.667V107.871C788.667 107.905 788.653 107.938 788.629 107.963C788.604 107.987 788.571 108 788.537 108H787.463C787.429 108 787.396 107.987 787.371 107.963C787.347 107.938 787.333 107.905 787.333 107.871V107.467H786.933C786.86 107.466 786.8 107.407 786.8 107.333V106.933H786.533V107.333C786.533 107.407 786.474 107.466 786.4 107.467H785.867V107.867C785.866 107.94 785.807 108 785.733 108H784.667C784.593 108 784.534 107.94 784.533 107.867V107.467H784.133C784.06 107.466 784 107.407 784 107.333V102.933C784 102.86 784.06 102.8 784.133 102.8ZM788.133 103.867H788.4V104.536C788.4 104.571 788.413 104.604 788.438 104.628C788.462 104.653 788.495 104.667 788.53 104.667H789.604C789.638 104.667 789.671 104.653 789.696 104.628C789.72 104.604 789.734 104.571 789.733 104.536V103.867H790V102.533H789.6C789.526 102.533 789.467 102.474 789.467 102.4V102H788.667V102.406C788.667 102.44 788.653 102.472 788.629 102.496C788.605 102.52 788.572 102.534 788.538 102.533H788.133V103.867ZM784.8 103.867H785.067V104.533C785.067 104.607 785.126 104.667 785.2 104.667H786.27C786.305 104.667 786.338 104.653 786.362 104.629C786.387 104.604 786.4 104.571 786.4 104.536V103.867H786.8V102.533H786.267C786.193 102.533 786.134 102.474 786.133 102.4V102H785.333V102.4C785.333 102.474 785.274 102.533 785.2 102.533H784.8L784.8 103.867Z" fill="#2B2724"/>
<path d="M785.335 103.602H786.135V104.402H785.335V103.602Z" fill="#2B2724"/>
<path d="M788.667 103.602H789.467V104.402H788.667V103.602Z" fill="#2B2724"/>
<path d="M79.6 78.4H78.4V75.6C78.3994 75.3794 78.2207 75.2007 78 75.2H76.8V73.6C76.8 73.3791 76.621 73.2 76.4 73.2H75.2V72C75.1994 71.7794 75.0207 71.6006 74.8001 71.6H73.2001V70.4C73.1994 70.1793 73.0206 70.0007 72.8 70H62.8C62.5793 70.0007 62.4006 70.1793 62.4 70.4V71.6H61.2C60.9794 71.6006 60.8006 71.7793 60.8 72V73.2H59.6C59.379 73.2 59.2 73.379 59.2 73.6V74.8H58C57.7793 74.8006 57.6006 74.9793 57.6 75.1999V78.4H56.4C56.1793 78.4007 56.0006 78.5794 56 78.8V92C56.0007 92.2207 56.1793 92.3994 56.4 92.4H57.6V93.6C57.6006 93.8207 57.7793 93.9994 58 94H61.2C61.4206 93.9993 61.5994 93.8207 61.6 93.6V92.4H63.2C63.4206 92.3994 63.5993 92.2207 63.6 92V90.8H64.4V92C64.4006 92.2207 64.5793 92.3994 64.8 92.4H66V93.6136C66 93.7165 66.041 93.8152 66.1141 93.8878C66.1871 93.9603 66.2861 94.0007 66.3891 94H69.6109C69.7138 94.0007 69.8128 93.9603 69.8859 93.8878C69.9589 93.8152 70 93.7165 70 93.6136V92.4H71.2C71.4206 92.3994 71.5994 92.2207 71.6 92V90.8H72.4V92C72.4007 92.2207 72.5793 92.3994 72.8 92.4H74.4V93.6C74.4006 93.8207 74.5793 93.9994 74.8 94H78C78.2206 93.9993 78.3994 93.8207 78.4 93.6V92.4H79.6C79.8206 92.3994 79.9993 92.2207 80 92V78.8C79.9993 78.5794 79.8207 78.4007 79.6 78.4ZM67.6 81.6H66.8V83.6091C66.8006 83.7127 66.7599 83.8121 66.687 83.8855C66.614 83.9588 66.5147 84.0001 66.4112 84H63.1887C63.0852 84.0001 62.986 83.9588 62.913 83.8855C62.84 83.8121 62.7993 83.7126 62.8 83.6091V81.6H62V77.6H63.2C63.4206 77.5994 63.5993 77.4207 63.6 77.2001V76H66V77.2165C66 77.3187 66.0408 77.4167 66.1134 77.4887C66.186 77.5607 66.2843 77.6008 66.3864 77.6H67.6V81.6ZM77.6 81.6H76.8V83.6001C76.8 83.821 76.6209 84 76.4 84H73.1891C73.0855 84.0002 72.9862 83.959 72.9132 83.8856C72.8402 83.8122 72.7994 83.7127 72.8 83.6091V81.6H71.6V77.6H73.2C73.4206 77.5994 73.5993 77.4207 73.6 77.2001V76H76V77.2C76.0006 77.4207 76.1793 77.5994 76.3999 77.6H77.5999L77.6 81.6Z" fill="#2B2724"/>
<path d="M75.9996 80.8008H73.5996V83.2008H75.9996V80.8008Z" fill="#2B2724"/>
<path d="M65.9996 80.8008H63.5996V83.2008H65.9996V80.8008Z" fill="#2B2724"/>
<path d="M48.8 41.2H48.2V39.8C48.1997 39.6897 48.1103 39.6003 48 39.6H47.4V38.8C47.4 38.6895 47.3105 38.6 47.2 38.6H46.6V38C46.5997 37.8897 46.5103 37.8003 46.4 37.8H45.6V37.2C45.5997 37.0897 45.5103 37.0003 45.4 37H40.4C40.2897 37.0003 40.2003 37.0897 40.2 37.2V37.8H39.6C39.4897 37.8003 39.4003 37.8897 39.4 38V38.6H38.8C38.6895 38.6 38.6 38.6895 38.6 38.8V39.4H38C37.8897 39.4003 37.8003 39.4897 37.8 39.6V41.2H37.2C37.0897 41.2003 37.0003 41.2897 37 41.4V48C37.0003 48.1103 37.0897 48.1997 37.2 48.2H37.8V48.8C37.8003 48.9103 37.8897 48.9997 38 49H39.6C39.7103 48.9997 39.7997 48.9103 39.8 48.8V48.2H40.6C40.7103 48.1997 40.7997 48.1103 40.8 48V47.4H41.2V48C41.2003 48.1103 41.2897 48.1997 41.4 48.2H42V48.8068C42 48.8582 42.0205 48.9076 42.057 48.9439C42.0936 48.9802 42.1431 49.0004 42.1945 49H43.8054C43.8569 49.0004 43.9064 48.9802 43.9429 48.9439C43.9794 48.9076 44 48.8582 44 48.8068V48.2H44.6C44.7103 48.1997 44.7997 48.1103 44.8 48V47.4H45.2V48C45.2003 48.1103 45.2897 48.1997 45.4 48.2H46.2V48.8C46.2003 48.9103 46.2897 48.9997 46.4 49H48C48.1103 48.9997 48.1997 48.9103 48.2 48.8V48.2H48.8C48.9103 48.1997 48.9997 48.1103 49 48V41.4C48.9997 41.2897 48.9103 41.2003 48.8 41.2ZM42.8 42.8H42.4V43.8046C42.4003 43.8563 42.38 43.9061 42.3435 43.9427C42.307 43.9794 42.2574 44 42.2056 44H40.5944C40.5426 44 40.493 43.9794 40.4565 43.9427C40.42 43.9061 40.3997 43.8563 40.4 43.8046V42.8H40V40.8H40.6C40.7103 40.7997 40.7997 40.7104 40.8 40.6V40H42V40.6083C42 40.6594 42.0204 40.7084 42.0567 40.7444C42.093 40.7804 42.1421 40.8004 42.1932 40.8H42.8V42.8ZM47.8 42.8H47.4V43.8C47.4 43.9105 47.3105 44 47.2 44H45.5945C45.5428 44.0001 45.4931 43.9795 45.4566 43.9428C45.4201 43.9061 45.3997 43.8563 45.4 43.8046V42.8H44.8V40.8H45.6C45.7103 40.7997 45.7997 40.7104 45.8 40.6V40H47V40.6C47.0003 40.7103 47.0897 40.7997 47.2 40.8H47.8L47.8 42.8Z" fill="#2B2724"/>
<path d="M47.0008 42.3984H45.8008V43.5984H47.0008V42.3984Z" fill="#2B2724"/>
<path d="M42.0008 42.3984H40.8008V43.5984H42.0008V42.3984Z" fill="#2B2724"/>
<path d="M95.8667 23.8H95.4667V22.8667C95.4665 22.7931 95.4069 22.7336 95.3333 22.7333H94.9333V22.2C94.9333 22.1264 94.8737 22.0667 94.8 22.0667H94.4V21.6667C94.3998 21.5931 94.3402 21.5335 94.2667 21.5333H93.7334V21.1333C93.7331 21.0598 93.6735 21.0002 93.6 21H90.2667C90.1931 21.0002 90.1335 21.0598 90.1333 21.1333V21.5333H89.7333C89.6598 21.5335 89.6002 21.5931 89.6 21.6667V22.0667H89.2C89.1263 22.0667 89.0667 22.1263 89.0667 22.2V22.6H88.6667C88.5931 22.6002 88.5335 22.6598 88.5333 22.7333V23.8H88.1333C88.0598 23.8002 88.0002 23.8598 88 23.9333V28.3333C88.0002 28.4069 88.0598 28.4665 88.1333 28.4667H88.5333V28.8667C88.5335 28.9402 88.5931 28.9998 88.6667 29H89.7333C89.8069 28.9998 89.8665 28.9402 89.8667 28.8667V28.4667H90.4C90.4735 28.4665 90.5331 28.4069 90.5333 28.3333V27.9333H90.8V28.3333C90.8002 28.4069 90.8598 28.4665 90.9333 28.4667H91.3333V28.8712C91.3333 28.9055 91.347 28.9384 91.3714 28.9626C91.3957 28.9868 91.4287 29.0002 91.463 29H92.537C92.5713 29.0002 92.6043 28.9868 92.6286 28.9626C92.653 28.9384 92.6667 28.9055 92.6667 28.8712V28.4667H93.0667C93.1402 28.4665 93.1998 28.4069 93.2 28.3333V27.9333H93.4667V28.3333C93.4669 28.4069 93.5264 28.4665 93.6 28.4667H94.1333V28.8667C94.1335 28.9402 94.1931 28.9998 94.2667 29H95.3333C95.4069 28.9998 95.4665 28.9402 95.4667 28.8667V28.4667H95.8667C95.9402 28.4665 95.9998 28.4069 96 28.3333V23.9333C95.9998 23.8598 95.9402 23.8002 95.8667 23.8ZM91.8667 24.8667H91.6V25.5364C91.6002 25.5709 91.5866 25.604 91.5623 25.6285C91.538 25.6529 91.5049 25.6667 91.4704 25.6667H90.3962C90.3617 25.6667 90.3287 25.6529 90.3043 25.6285C90.28 25.604 90.2664 25.5709 90.2667 25.5364V24.8667H90V23.5333H90.4C90.4735 23.5331 90.5331 23.4736 90.5333 23.4V23H91.3333V23.4055C91.3333 23.4396 91.3469 23.4722 91.3711 23.4962C91.3953 23.5202 91.4281 23.5336 91.4621 23.5333H91.8667V24.8667ZM95.2 24.8667H94.9333V25.5334C94.9333 25.607 94.8736 25.6667 94.8 25.6667H93.7297C93.6952 25.6667 93.6621 25.653 93.6377 25.6285C93.6134 25.6041 93.5998 25.5709 93.6 25.5364V24.8667H93.2V23.5333H93.7333C93.8069 23.5331 93.8664 23.4736 93.8667 23.4V23H94.6667V23.4C94.6669 23.4736 94.7264 23.5331 94.8 23.5333H95.2L95.2 24.8667Z" fill="#2B2724"/>
<path d="M94.6672 24.6016H93.8672V25.4016H94.6672V24.6016Z" fill="#2B2724"/>
<path d="M91.3332 24.6016H90.5332V25.4016H91.3332V24.6016Z" fill="#2B2724"/>
</g>
</svg>
