<svg width="40" height="40" viewBox="0 0 40 40" fill="none" xmlns="http://www.w3.org/2000/svg">
<g id="steam (3) 1">
<g id="Group">
<g id="Layer 1">
<path id="Vector" d="M20.3265 38.1764C30.2861 38.1764 38.36 30.1025 38.36 20.1429C38.36 10.1833 30.2861 2.10938 20.3265 2.10938C10.3668 2.10938 2.29297 10.1833 2.29297 20.1429C2.29297 30.1025 10.3668 38.1764 20.3265 38.1764Z" fill="url(#paint0_linear_1028_49678)"/>
<path id="Vector_2" d="M25.8957 10.5195C22.7322 10.5195 20.153 13.0491 20.1294 16.1715L16.5409 21.2658C15.5376 21.1778 14.6759 21.3832 13.9086 21.841L8.99219 19.8748V25.2509L11.9019 26.4071C12.1171 27.3607 12.6505 28.2126 13.4142 28.8227C14.178 29.4329 15.1266 29.7649 16.1042 29.7643C18.3293 29.7643 20.1766 28.074 20.3773 25.9141L25.9075 21.9172C29.077 21.9172 31.6621 19.3701 31.6621 16.2126C31.6562 13.0784 29.077 10.5195 25.8957 10.5195ZM16.0983 28.6374C15.5255 28.6392 14.963 28.485 14.4712 28.1913C13.9794 27.8977 13.5768 27.4757 13.3066 26.9706C13.8201 27.1642 14.3454 27.3814 14.8589 27.581C15.1645 27.7059 15.4917 27.7693 15.8218 27.7675C16.152 27.7658 16.4785 27.6989 16.7828 27.5708C17.0871 27.4427 17.3631 27.2558 17.595 27.0209C17.827 26.786 18.0103 26.5076 18.1345 26.2017C18.2571 25.8977 18.3181 25.5725 18.314 25.2448C18.3099 24.917 18.2408 24.5934 18.1107 24.2926C17.9806 23.9917 17.792 23.7198 17.556 23.4924C17.32 23.265 17.0412 23.0867 16.7357 22.9678L15.4195 22.4396C15.6441 22.3882 15.8738 22.3626 16.1042 22.3633C16.5186 22.3599 16.9296 22.4386 17.3134 22.5949C17.6972 22.7511 18.0463 22.9819 18.3404 23.2739C18.6346 23.5658 18.8679 23.9132 19.0271 24.2959C19.1862 24.6785 19.2679 25.0889 19.2675 25.5034C19.2671 25.9178 19.1846 26.328 19.0248 26.7104C18.865 27.0928 18.6309 27.4397 18.3363 27.7311C18.0416 28.0225 17.6921 28.2526 17.308 28.4082C16.9238 28.5637 16.5127 28.6416 16.0983 28.6374ZM25.9016 20.0392C23.7651 20.0392 22.0299 18.3371 22.0299 16.2184C22.0299 14.1114 23.7592 12.3976 25.9016 12.3976C28.0205 12.3976 29.7557 14.1114 29.7557 16.2184C29.7616 18.3371 28.0205 20.0451 25.9016 20.0392Z" fill="white"/>
<path id="Vector_3" d="M25.8916 18.5152C27.1726 18.5152 28.211 17.4878 28.211 16.2205C28.211 14.9531 27.1726 13.9258 25.8916 13.9258C24.6107 13.9258 23.5723 14.9531 23.5723 16.2205C23.5723 17.4878 24.6107 18.5152 25.8916 18.5152Z" fill="white"/>
<path id="Vector_4" style="mix-blend-mode:multiply" d="M36.9095 13.0469C37.0448 13.9395 37.1127 14.8411 37.1128 15.7439C37.1128 25.8569 28.7053 34.0551 18.3341 34.0551C12.4602 34.0551 7.21689 31.4246 3.77344 27.3065C6.54497 33.7018 12.9128 38.1763 20.3267 38.1763C30.2863 38.1763 38.3602 30.1025 38.3602 20.1428C38.3631 17.7036 37.8696 15.2893 36.9095 13.0469Z" fill="url(#paint1_radial_1028_49678)"/>
<path id="Vector_5" d="M3.4596 17.3877C5.17523 21.7822 12.5394 23.0127 19.9079 20.1359C27.2763 17.2592 32.2937 11.1691 30.1431 6.97017C28.8726 4.48941 24.7201 2.25809 19.821 2.11719H19.7943C11.9088 2.34612 5.29402 7.63785 3.08346 14.8546C3.02655 15.7162 3.15481 16.5799 3.4596 17.3877Z" fill="url(#paint2_radial_1028_49678)"/>
</g>
</g>
</g>
<defs>
<linearGradient id="paint0_linear_1028_49678" x1="2.29297" y1="20.1429" x2="38.3599" y2="20.1429" gradientUnits="userSpaceOnUse">
<stop stop-color="#878787"/>
<stop offset="0.2027" stop-color="#7C7C7C"/>
<stop offset="0.5642" stop-color="#5D5D5D"/>
<stop offset="1" stop-color="#303030"/>
</linearGradient>
<radialGradient id="paint1_radial_1028_49678" cx="0" cy="0" r="1" gradientUnits="userSpaceOnUse" gradientTransform="translate(21.0795 25.6062) rotate(-40.0917) scale(21.1351 16.034)">
<stop/>
<stop offset="1" stop-color="white" stop-opacity="0"/>
</radialGradient>
<radialGradient id="paint2_radial_1028_49678" cx="0" cy="0" r="1" gradientUnits="userSpaceOnUse" gradientTransform="translate(16.859 11.9038) scale(17.1395)">
<stop stop-color="white"/>
<stop offset="0.0736" stop-color="white" stop-opacity="0.824"/>
<stop offset="0.1652" stop-color="white" stop-opacity="0.633"/>
<stop offset="0.262" stop-color="white" stop-opacity="0.463"/>
<stop offset="0.362" stop-color="white" stop-opacity="0.32"/>
<stop offset="0.4663" stop-color="white" stop-opacity="0.203"/>
<stop offset="0.5761" stop-color="white" stop-opacity="0.113"/>
<stop offset="0.6941" stop-color="white" stop-opacity="0.05"/>
<stop offset="0.8259" stop-color="white" stop-opacity="0.012"/>
<stop offset="1" stop-color="white" stop-opacity="0"/>
</radialGradient>
</defs>
</svg>
