<svg width="401" height="160" viewBox="0 0 401 160" fill="none" xmlns="http://www.w3.org/2000/svg">
<path d="M0 144L23.5 121L7 159.5L0 144Z" fill="#FF7347"/>
<path d="M34.5651 133.737L34.1783 120.001L27.9611 136.336L34.5651 133.737Z" fill="#FF7347"/>
<path d="M17 15.4805L36 34L22.6596 3L17 15.4805Z" fill="#FF7347"/>
<path d="M22.7829 37.0688L35.7925 41.4922L22.6473 29.9729L22.7829 37.0688Z" fill="#FF7347"/>
<path d="M386 12.4805L367 31L380.34 0L386 12.4805Z" fill="#FF7347"/>
<path d="M377.01 35.0688L364 39.4922L377.146 27.9729L377.01 35.0688Z" fill="#FF7347"/>
<path d="M397.379 126.799L374.003 114.248L395.387 140.357L397.379 126.799Z" fill="#FF7347"/>
<path d="M384.673 109.502L371.001 108.131L386.408 116.384L384.673 109.502Z" fill="#FF7347"/>
</svg>
