<svg width="62" height="43" viewBox="0 0 62 43" fill="none" xmlns="http://www.w3.org/2000/svg">
<g id="Group">
<g id="Group_2">
<path id="Vector" d="M30.6384 37.0071L49.4643 23.3201L42.2749 1.18359H19.0019L11.8125 23.3201L30.6384 37.0071Z" fill="#54101A"/>
<path id="Vector_2" opacity="0.3" d="M20.7559 3.60547L30.6382 33.9937L40.5206 3.60547H20.7559Z" fill="#8C1919"/>
<path id="Vector_3" d="M42.9423 0.246094H18.3106L10.7012 23.6673L30.6141 38.1449L50.5271 23.6673L42.9423 0.246094ZM14.6541 22.4073L20.7565 3.6308H40.5212L46.6235 22.4073L30.6388 34.019L14.6541 22.4073Z" fill="url(#paint0_radial_1028_46294)"/>
<path id="Vector_4" d="M42.9425 0.246094H18.3108L16.5566 5.68139C17.6437 5.7308 18.7802 5.87904 19.9413 6.10139L20.7566 3.6308H40.5213L46.6237 22.4073L44.3013 24.0873C44.8202 25.1002 45.2896 26.1379 45.6849 27.2249L50.5519 23.692L42.9425 0.246094Z" fill="url(#paint1_radial_1028_46294)"/>
<path id="Vector_5" d="M42.9425 0.246094H18.3108L16.5566 5.68139C17.6437 5.7308 18.7802 5.87904 19.9413 6.10139L20.7566 3.6308H40.5213L46.6237 22.4073L44.3013 24.0873C44.8202 25.1002 45.2896 26.1379 45.6849 27.2249L50.5519 23.692L42.9425 0.246094Z" fill="url(#paint2_linear_1028_46294)"/>
<path id="Vector_6" d="M41.6082 30.191C41.4847 28.8816 41.2871 27.6463 41.04 26.4604L30.6635 33.9957L14.6788 22.3839L19.0271 8.89453C17.7918 8.91924 16.5565 9.06748 15.3706 9.31453L10.7012 23.6686L30.6141 38.1463L41.6082 30.191Z" fill="url(#paint3_linear_1028_46294)"/>
<path id="Vector_7" d="M14.6543 22.4066L16.2355 22.0361L21.7449 5.11253H39.5331L45.0425 22.0361L46.6237 22.4066L40.5214 3.60547H20.7567L14.6543 22.4066Z" fill="#9E2C19"/>
<path id="Vector_8" opacity="0.2" d="M16.2344 22.0368L19.3226 14.1309C21.1508 9.46152 25.6473 7.43563 30.6626 7.43563C35.7026 7.43563 40.2238 9.48622 42.0273 14.205L45.0414 22.0368L39.532 5.11328H21.7438L16.2344 22.0368Z" fill="#892334"/>
<path id="Vector_9" d="M14.6543 22.4057L16.2355 22.0352L30.639 32.5104L45.0425 22.0352L46.6237 22.4057L30.639 33.9928L14.6543 22.4057Z" fill="url(#paint4_linear_1028_46294)"/>
<path id="Vector_10" opacity="0.6" d="M16.2344 22.0368L21.892 7.53445C22.1638 6.84269 22.8308 6.37328 23.5967 6.37328H37.8026C38.5685 6.37328 39.2356 6.84269 39.5073 7.53445L45.0661 22.0121L39.532 5.11328H21.7438L16.2344 22.0368Z" fill="#892334"/>
<path id="Vector_11" d="M20.7559 3.60547L21.7441 5.11253H39.5323L40.5206 3.60547H20.7559Z" fill="#681D15"/>
<path id="Vector_12" opacity="0.35" d="M13.4442 15.2656L11.5419 22.4056C11.3936 23.0233 11.6901 23.8386 12.1842 24.2092L30.6395 38.1186L10.7266 23.6409L13.4442 15.2656Z" fill="#9E2C19"/>
<path id="Vector_13" opacity="0.6" d="M16.2344 22.0352L29.9708 31.2999C30.3414 31.5469 30.9344 31.5469 31.305 31.2999L45.0414 22.0352L30.6379 32.5104L16.2344 22.0352Z" fill="#892334"/>
<path id="Vector_14" opacity="0.35" d="M30.6387 38.1444L48.3775 24.4327C49.6128 23.5185 49.8845 23.3209 49.3163 21.5421L45.6104 8.47266L50.5516 23.6668L30.6387 38.1444Z" fill="#9E2C19"/>
<path id="Vector_15" d="M21.8438 27.6193L30.639 33.9934L42.5226 25.3711L30.639 34.537L21.8438 27.6193Z" fill="#FFF5CC"/>
<path id="Vector_16" d="M29.9727 0.246094H42.9432L45.6362 8.49786L42.4491 0.715504L29.9727 0.246094Z" fill="#FFF5CC"/>
<path id="Vector_17" d="M35.1346 0.246094C35.0358 1.30845 35.4805 2.51904 36.3946 3.6061H40.5205L41.5334 6.74374C42.8181 7.06491 44.0535 7.06492 45.0664 6.79315L42.9417 0.246094H35.1346Z" fill="#FFF2BB"/>
<path id="Vector_18" d="M20.7569 26.8281C20.4358 27.6187 21.004 28.8293 22.1405 29.6446C23.2769 30.4599 24.5864 30.6328 25.2534 30.0893L20.7569 26.8281Z" fill="#FFF2BB"/>
<path id="Vector_19" d="M25.277 32.2908C25.0794 32.5873 24.5605 32.5873 24.0911 32.2661C23.6217 31.9696 23.4241 31.5002 23.597 31.2037C23.7947 30.9073 24.3135 30.9073 24.7829 31.2284C25.2523 31.5249 25.4746 31.9943 25.277 32.2908Z" fill="#FFF2BB"/>
<path id="Vector_20" d="M16.3834 0.420509L15.6175 6.64639C13.8387 6.64639 12.3317 6.62168 9.66342 6.62168C0.176358 6.62168 0.126953 0.371094 0.126953 0.371094L16.3834 0.420509Z" fill="#681D15"/>
<path id="Vector_21" d="M16.3834 0.420509L14.7775 5.28756C12.9987 5.28756 12.7022 5.26286 10.0093 5.26286C0.522247 5.26286 0.126953 0.371094 0.126953 0.371094L16.3834 0.420509Z" fill="url(#paint5_radial_1028_46294)"/>
<path id="Vector_22" d="M13.9874 7.83066L13.2462 14.0565C11.4674 14.0565 13.6415 14.0565 10.9486 14.0565C1.46151 14.0565 1.41211 7.78125 1.41211 7.78125L13.9874 7.83066Z" fill="#681D15"/>
<path id="Vector_23" d="M13.9874 7.82939L12.4062 12.7212C10.6274 12.7212 13.9874 12.6964 11.3192 12.6964C1.8321 12.6964 1.41211 7.80469 1.41211 7.80469L13.9874 7.82939Z" fill="url(#paint6_radial_1028_46294)"/>
<path id="Vector_24" d="M11.5664 15.2161L4.87109 15.1914C4.87109 15.1914 5.90874 19.8855 10.8005 21.4667L11.5664 15.2161Z" fill="#681D15"/>
<path id="Vector_25" d="M11.5664 15.2161L4.87109 15.1914C4.87109 15.1914 5.06873 18.5267 9.9605 20.1079L11.5664 15.2161Z" fill="url(#paint7_radial_1028_46294)"/>
<path id="Vector_26" d="M16.3832 0.417969L17.1738 1.97444L15.6173 6.64385L14.7773 5.28502L16.3832 0.417969Z" fill="#9E2C19"/>
<path id="Vector_27" d="M13.9874 7.83203L14.778 9.36379L13.2462 14.0579L12.4062 12.6991L13.9874 7.83203Z" fill="#9E2C19"/>
<path id="Vector_28" d="M11.5663 15.2188L12.3816 16.7505L10.0592 23.8164L8.60156 24.2611L11.5663 15.2188Z" fill="#9E2C19"/>
<path id="Vector_29" d="M44.8945 0.420509L45.6604 6.64639C47.4392 6.64639 48.9463 6.62168 51.6145 6.62168C61.1016 6.62168 61.151 0.371094 61.151 0.371094L44.8945 0.420509Z" fill="#681D15"/>
<path id="Vector_30" d="M44.8945 0.420509L46.5004 5.28756C48.2792 5.28756 48.5757 5.26286 51.2686 5.26286C60.7557 5.26286 61.151 0.371094 61.151 0.371094L44.8945 0.420509Z" fill="url(#paint8_radial_1028_46294)"/>
<path id="Vector_31" d="M47.291 7.83066L48.0322 14.0565C49.811 14.0565 47.6369 14.0565 50.3298 14.0565C59.8169 14.0565 59.8663 7.78125 59.8663 7.78125L47.291 7.83066Z" fill="#681D15"/>
<path id="Vector_32" d="M47.291 7.82939L48.8722 12.7212C50.651 12.7212 47.291 12.6964 49.9592 12.6964C59.4463 12.6964 59.8663 7.80469 59.8663 7.80469L47.291 7.82939Z" fill="url(#paint9_radial_1028_46294)"/>
<path id="Vector_33" d="M49.7109 15.2161L56.4062 15.1914C56.4062 15.1914 55.3686 19.8855 50.4768 21.4667L49.7109 15.2161Z" fill="#681D15"/>
<path id="Vector_34" d="M49.7109 15.2161L56.4062 15.1914C56.4062 15.1914 56.2086 18.5267 51.3168 20.1079L49.7109 15.2161Z" fill="url(#paint10_radial_1028_46294)"/>
<path id="Vector_35" d="M44.8945 0.420509L46.5004 5.28756C48.2792 5.28756 48.5757 5.26286 51.2686 5.26286C60.7557 5.26286 61.151 0.371094 61.151 0.371094L44.8945 0.420509Z" fill="url(#paint11_linear_1028_46294)"/>
<path id="Vector_36" d="M47.291 7.82939L48.8722 12.7212C50.651 12.7212 47.291 12.6964 49.9592 12.6964C59.4463 12.6964 59.8663 7.80469 59.8663 7.80469L47.291 7.82939Z" fill="url(#paint12_linear_1028_46294)"/>
<path id="Vector_37" d="M44.8941 0.417969L44.1035 1.97444L45.6353 6.64385L46.5 5.28502L44.8941 0.417969Z" fill="#9E2C19"/>
<path id="Vector_38" d="M47.2906 7.83203L46.5 9.36379L48.0318 14.0579L48.8718 12.6991L47.2906 7.83203Z" fill="#9E2C19"/>
<path id="Vector_39" d="M49.7118 15.2188L48.8965 16.7505L51.2435 23.8658L52.6765 24.2611L49.7118 15.2188Z" fill="#9E2C19"/>
<path id="Vector_40" d="M16.3834 0.419239L0.126953 0.394531C0.126953 0.394531 0.522247 5.28629 10.0093 5.28629C12.6775 5.28629 12.974 5.28629 14.7775 5.311L16.3834 0.419239Z" fill="url(#paint13_linear_1028_46294)"/>
<path id="Vector_41" d="M12.4064 12.6979L13.3452 9.83203C12.0852 10.252 10.8746 10.7956 9.76282 11.4626C9.29341 11.7344 8.77458 12.0803 8.18164 12.4756C9.09576 12.5991 10.1334 12.6732 11.3193 12.6732C13.9875 12.6732 10.6028 12.6979 12.4064 12.6979Z" fill="url(#paint14_linear_1028_46294)"/>
<path id="Vector_42" opacity="0.35" d="M13.8887 13.9084L18.0393 1.97551C18.4593 0.764917 18.7804 0.443742 20.0651 0.394331L30.6393 0.246094H18.3357L13.8887 13.9084Z" fill="#9E2C19"/>
<path id="Vector_43" d="M34.3443 2.12476C33.4796 1.50711 32.442 1.4577 32.022 2.02594C31.7255 2.44594 31.8244 3.06358 32.2196 3.60711H35.3326C35.2832 3.11299 34.9373 2.54476 34.3443 2.12476Z" fill="#FFF2BB"/>
<path id="Vector_44" opacity="0.35" fill-rule="evenodd" clip-rule="evenodd" d="M48.5757 4.91443C47.4886 4.81561 46.7475 4.42032 46.2534 3.45679L44.8945 0.417969L46.5004 5.28502C48.2792 5.28502 48.5757 5.26032 51.2686 5.26032C52.7757 5.26032 54.0604 5.13679 55.1475 4.93914C52.7757 5.23561 50.3545 5.08738 48.5757 4.91443Z" fill="#9E2C19"/>
<path id="Vector_45" opacity="0.35" fill-rule="evenodd" clip-rule="evenodd" d="M49.9839 12.6991C52.2816 12.6991 54.0357 12.4273 55.3945 11.9826C53.4428 12.5261 51.8122 12.4767 50.5522 12.4026C49.6875 12.3532 48.9957 11.7108 48.6251 10.945L47.291 7.83203L48.8722 12.7238C50.6757 12.6991 47.291 12.6744 49.9839 12.6991Z" fill="#9E2C19"/>
<path id="Vector_46" opacity="0.35" fill-rule="evenodd" clip-rule="evenodd" d="M51.2921 20.1092C52.3545 19.7634 53.1945 19.3434 53.8615 18.8987C53.0709 19.1951 51.5886 19.4175 51.5886 19.4175L49.7109 15.2422L51.2921 20.1092Z" fill="#9E2C19"/>
<path id="Vector_47" opacity="0.35" d="M10.0336 5.28512C12.7019 5.28512 12.9984 5.28512 14.8019 5.30982L16.0619 1.4557L15.1231 3.5557C14.6784 4.66747 14.4066 5.03806 13.2948 5.03806C12.1089 5.03806 9.86071 5.01336 8.69953 4.98865C3.70894 4.791 0.793638 2.64159 0.151285 0.418062C0.126579 0.393356 0.546579 5.28512 10.0336 5.28512Z" fill="#9E2C19"/>
<path id="Vector_48" opacity="0.35" d="M12.604 11.2647C12.3075 11.9071 11.9863 12.4259 11.2699 12.4012C10.5534 12.3765 8.50282 12.3518 7.36635 12.1047C4.67341 11.4871 3.06753 10.4988 1.98047 9.26354C2.89459 10.6965 5.26635 12.6977 11.3193 12.6977C13.9875 12.6977 10.6275 12.6977 12.4064 12.7224L13.7158 8.69531L12.604 11.2647Z" fill="#9E2C19"/>
<path id="Vector_49" opacity="0.35" d="M9.98395 20.1106L11.3675 15.8612C11.0957 16.4048 10.6016 17.6648 10.0581 18.8259C9.71218 19.6165 9.3663 19.5177 8.82277 19.2954C6.10513 18.1589 5.46277 16.8001 4.89453 15.2189C4.89453 15.1942 5.09219 18.5295 9.98395 20.1106Z" fill="#9E2C19"/>
<path id="Vector_50" d="M44.8945 0.420509L59.7428 0.667567C60.3357 0.667567 60.6075 1.13698 60.3604 1.6558C60.0886 2.22404 59.6686 2.89109 58.9522 3.45933C61.0028 2.0758 61.151 0.371094 61.151 0.371094L44.8945 0.420509Z" fill="#FFF5CC"/>
<path id="Vector_51" d="M47.291 7.83066L58.2604 8.07772C59.5451 8.10243 59.3228 8.64596 59.0016 9.31302C58.8039 9.73302 58.5075 10.1777 58.1369 10.5483C59.7675 9.2389 59.891 7.78125 59.891 7.78125L47.291 7.83066Z" fill="#FFF5CC"/>
<path id="Vector_52" opacity="0.5" d="M4.45117 0.394531L16.3841 0.419239L15.9888 1.62983C15.9888 1.01218 15.6923 0.690997 14.9759 0.690997L4.45117 0.394531Z" fill="#FFE67B"/>
<path id="Vector_53" opacity="0.5" d="M4.45117 7.83203H13.9629L13.5182 9.19085L13.5676 8.74614C13.5924 8.32614 13.4441 8.10379 12.6782 8.05438L4.45117 7.83203Z" fill="#FFE67B"/>
<g id="Group_3">
<path id="Vector_54" opacity="0.6" d="M33.6285 12.0789L35.1108 9.48474V8.24945L32.1214 9.48474L30.6391 6.89062L29.132 9.48474L26.1426 8.24945V9.48474L27.6496 12.0789L26.1426 13.413V14.6483H29.132L30.6391 17.2424L32.1214 14.6483H35.1108V13.413L33.6285 12.0789Z" fill="#892334"/>
<path id="Vector_55" d="M33.6285 10.8445L35.1108 8.25037V7.28684L32.1214 8.25037L30.6391 5.65625L29.132 8.25037L26.1426 7.28684V8.25037L27.6496 10.8445L26.1426 12.4504V13.4139H29.132L30.6391 16.008L32.1214 13.4139H35.1108V12.4504L33.6285 10.8445Z" fill="#9E2C19"/>
<path id="Vector_56" d="M33.6285 9.85493L35.1108 7.28552H32.1214L30.6391 4.69141L29.132 7.28552H26.1426L27.6496 9.85493L26.1426 12.4491H29.132L30.6391 15.0432L32.1214 12.4491H35.1108L33.6285 9.85493Z" fill="url(#paint15_radial_1028_46294)"/>
<path id="Vector_57" d="M35.1105 12.4492H32.1211V13.4127H35.1105V12.4492Z" fill="#681D15"/>
<path id="Vector_58" d="M29.132 13.4127L30.6391 16.0069V15.0433L29.132 12.4492H26.1426V13.4127H29.132Z" fill="#681D15"/>
<path id="Vector_59" d="M30.6397 15.044L31.9986 12.6722C30.5903 11.6346 29.0833 10.7452 27.5268 10.0781L26.168 12.4499H29.1574L30.6397 15.044Z" fill="url(#paint16_linear_1028_46294)"/>
<path id="Vector_60" d="M32.1209 7.28552L30.6386 4.69141L29.1562 7.28552H26.7598C29.6009 8.42199 32.368 10.0526 34.888 12.0291L33.628 9.85493L35.1104 7.26082H32.1209V7.28552Z" fill="url(#paint17_linear_1028_46294)"/>
<path id="Vector_61" d="M26.1426 7.28516L27.6496 9.85457L27.3779 10.3487L26.1426 8.24868V7.28516Z" fill="#681D15"/>
<path id="Vector_62" opacity="0.8" d="M30.6387 4.69141L32.0716 7.53258L35.1104 7.28552H32.121L30.6387 4.69141Z" fill="#FFE67B"/>
<path id="Vector_63" opacity="0.35" d="M26.1426 7.28516L28.1932 9.85457L26.1426 12.4487L27.6496 9.85457L26.1426 7.28516Z" fill="#9E2C19"/>
<path id="Vector_64" opacity="0.35" d="M30.6387 15.0425L31.9481 11.8555L35.1104 12.4484H32.121L30.6387 15.0425Z" fill="#9E2C19"/>
<path id="Vector_65" opacity="0.5" d="M26.1426 12.4475L29.4285 12.1758L30.6391 15.0417L29.132 12.4475H26.1426Z" fill="#FFE67B"/>
<path id="Vector_66" opacity="0.5" d="M32.4177 8.76658C32.2694 9.23599 31.553 9.43364 30.8365 9.21129C30.12 8.98893 29.6506 8.4207 29.7988 7.92658C29.9471 7.45717 30.6636 7.25952 31.38 7.48187C32.0965 7.72893 32.5659 8.29717 32.4177 8.76658Z" fill="#FCE265"/>
<path id="Vector_67" opacity="0.5" d="M32.517 11.0393C32.4429 11.2863 32.097 11.3852 31.7264 11.2616C31.3558 11.1381 31.1334 10.8663 31.2076 10.6193C31.2817 10.3722 31.6276 10.2734 31.9982 10.3969C32.3687 10.5205 32.5911 10.7922 32.517 11.0393Z" fill="#FCE265"/>
</g>
<path id="Vector_68" d="M46.5004 5.28629C47.7851 5.28629 48.3039 5.26159 49.4898 5.26159C51.1698 4.19923 52.2816 2.64276 52.4545 0.814527C52.4545 0.666291 52.4792 0.518061 52.4792 0.394531L44.8945 0.419239L46.5004 5.28629Z" fill="#FFF2BB"/>
<path id="Vector_69" d="M54.5303 18.3538C56.2844 16.822 56.3832 15.1914 56.3832 15.1914L49.6879 15.2161L52.6526 24.2585L31.3809 39.7243V42.1949L58.4338 27.1491L54.5303 18.3538Z" fill="url(#paint18_radial_1028_46294)"/>
<path id="Vector_70" d="M8.60022 24.2585L11.5896 15.2161L4.89434 15.1914C4.89434 15.1914 4.99316 16.822 6.74728 18.3538L2.84375 27.1243L29.8967 42.1702V39.6996L8.60022 24.2585Z" fill="url(#paint19_radial_1028_46294)"/>
<path id="Vector_71" d="M8.60022 24.2585L11.5896 15.2161L4.89434 15.1914C4.89434 15.1914 4.99316 16.822 6.74728 18.3538L2.84375 27.1243L29.8967 42.1702V39.6996L8.60022 24.2585Z" fill="url(#paint20_linear_1028_46294)"/>
<path id="Vector_72" d="M10.0592 23.8164L29.8733 38.9117V39.727L8.60156 24.2611L10.0592 23.8164Z" fill="url(#paint21_linear_1028_46294)"/>
<path id="Vector_73" d="M51.2444 23.8633L31.3809 38.9092V39.7245L52.6773 24.2586L51.2444 23.8633Z" fill="url(#paint22_linear_1028_46294)"/>
<path id="Vector_74" d="M54.5285 18.3538C56.2826 16.822 56.3815 15.1914 56.3815 15.1914L49.6862 15.2161L52.6509 24.2585L46.3262 28.8538C46.4003 29.1008 46.4497 29.3726 46.5238 29.6196C46.8697 30.9785 47.1662 32.1891 47.4132 33.2514L58.4321 27.1243L54.5285 18.3538Z" fill="url(#paint23_linear_1028_46294)"/>
<path id="Vector_75" d="M41.7067 34.4396C41.7561 33.6738 41.7808 32.9326 41.7808 32.1914L31.4043 39.7267V42.1973L41.2373 36.7126C41.4596 36.0208 41.6325 35.2549 41.7067 34.4396Z" fill="url(#paint24_linear_1028_46294)"/>
<path id="Vector_76" opacity="0.35" d="M6.74728 18.3538L2.84375 27.1243L16.9014 34.9561C16.9014 34.9561 7.31551 29.2243 4.22727 27.2726C3.68374 26.9267 3.48611 26.6302 3.75787 26.0373C4.67199 23.9126 6.74729 18.922 7.14258 18.1561C5.90729 17.1926 5.38846 16.2785 4.91905 15.1914C4.89434 15.1914 4.99316 16.822 6.74728 18.3538Z" fill="#9E2C19"/>
<path id="Vector_77" opacity="0.5" d="M6.17969 15.1914L11.5656 15.2161L9.46557 21.6149L11.1209 15.8832C11.0962 15.562 11.022 15.4385 10.5773 15.4138L6.17969 15.1914Z" fill="#FFE67B"/>
<path id="Vector_78" d="M55.245 17.6373C56.3321 16.3526 56.3815 15.1914 56.3815 15.1914L49.7109 15.2161L55.2203 15.4385C56.0356 15.4879 55.8874 15.7843 55.7886 16.1796C55.6898 16.6738 55.4921 17.1926 55.245 17.6373Z" fill="#FFF5CC"/>
<path id="Vector_79" opacity="0.35" d="M45.3633 34.4162L55.6656 28.1903C57.4939 27.0786 57.6668 26.8809 56.8762 24.8797L55.1468 19.7656L58.4327 27.1527L45.3633 34.4162Z" fill="#9E2C19"/>
<path id="Vector_80" opacity="0.35" d="M31.3809 39.7247C31.3809 39.7247 31.455 40.0706 31.5044 40.3423C31.702 41.5282 32.0232 41.4541 32.715 41.1329L36.5938 39.3047L31.4056 42.1953V39.7247H31.3809Z" fill="#9E2C19"/>
<path id="Vector_81" opacity="0.35" d="M20.2129 36.8125L28.6623 41.0866C29.527 41.556 29.6258 41.309 29.7988 40.3207C29.8235 40.1972 29.8729 39.8019 29.8729 39.8019V42.1984L20.2129 36.8125Z" fill="#9E2C19"/>
<path id="Vector_82" opacity="0.6" d="M30.6389 28.0387L18.8789 22.0352V23.2705L30.6389 31.8187L42.3742 23.2705V22.0352L30.6389 28.0387Z" fill="#892334"/>
<path id="Vector_83" opacity="0.6" d="M30.638 21.517L20.6074 16.7734V18.0087L30.638 25.297L40.6686 18.0087V16.7734L30.638 21.517Z" fill="#892334"/>
<path id="Vector_84" d="M30.6389 26.8053L18.8789 20.5547V22.037L30.6389 30.5853L42.3742 22.037V20.5547L30.6389 26.8053Z" fill="#9E2C19"/>
<path id="Vector_85" d="M30.638 20.2836L20.6074 15.293V16.7753L30.638 24.0636L40.6686 16.7753V15.293L30.638 20.2836Z" fill="#9E2C19"/>
<path id="Vector_86" d="M30.6389 25.3227L19.8671 17.5156L18.8789 20.5545L30.6389 29.1027L42.3742 20.5545L41.386 17.5156L30.6389 25.3227Z" fill="url(#paint25_radial_1028_46294)"/>
<path id="Vector_87" d="M39.4843 22.6545C39.0643 21.7156 38.5702 20.8015 38.0267 19.9368L30.6396 25.3227L19.8925 17.5156L18.9043 20.5545L30.6643 29.1027L39.4843 22.6545Z" fill="url(#paint26_linear_1028_46294)"/>
<path id="Vector_88" d="M30.638 18.801L21.5957 12.2539L20.6074 15.2927L30.638 22.581L40.6686 15.2927L39.6804 12.2539L30.638 18.801Z" fill="url(#paint27_radial_1028_46294)"/>
<path id="Vector_89" d="M36.7651 18.1339C36.1227 17.3186 35.4556 16.5527 34.7392 15.8363L30.638 18.801L21.5957 12.2539L20.6074 15.2927L30.638 22.581L36.7651 18.1339Z" fill="url(#paint28_linear_1028_46294)"/>
<path id="Vector_90" d="M36.9141 14.2551C37.6799 14.9468 38.4211 15.6633 39.1129 16.4292L40.6693 15.2927L39.6811 12.2539L36.9141 14.2551Z" fill="url(#paint29_linear_1028_46294)"/>
<path id="Vector_91" d="M30.638 22.5812V24.0636L20.6074 16.7753V15.293L30.638 22.5812Z" fill="#681D15"/>
<path id="Vector_92" d="M18.8789 20.5547L30.6389 29.1029V30.5853L18.8789 22.037V20.5547Z" fill="#681D15"/>
<path id="Vector_93" d="M24.166 14.108L30.639 19.5433L38.5448 13.0703L30.639 18.8021L24.166 14.108Z" fill="#FFF5CC"/>
<path id="Vector_94" d="M24.166 20.6275L30.639 26.0628L38.5448 19.5898L30.639 25.3216L24.166 20.6275Z" fill="#FFF5CC"/>
<path id="Vector_95" opacity="0.35" d="M21.5969 12.2539L21.2757 14.2551C21.2263 14.6751 21.3252 15.1939 21.6463 15.4657L30.6146 22.6057L20.584 15.3174L21.5969 12.2539Z" fill="#9E2C19"/>
<path id="Vector_96" opacity="0.35" d="M35.1855 19.2933L39.6079 15.4886C40.0279 15.1427 40.1761 14.7474 40.1267 14.2038L39.8797 12.8203L40.695 15.3156L35.1855 19.2933Z" fill="#9E2C19"/>
<path id="Vector_97" opacity="0.35" d="M19.8671 17.5156L19.5707 19.5168C19.5213 19.9368 19.6201 20.4556 19.9413 20.7274L28.9095 27.8674L18.8789 20.5792L19.8671 17.5156Z" fill="#9E2C19"/>
<path id="Vector_98" opacity="0.35" d="M36.9141 24.5315L41.3117 20.7268C41.7317 20.3809 41.8799 19.9857 41.8305 19.4421L41.5835 18.0586L42.3988 20.5539L36.9141 24.5315Z" fill="#9E2C19"/>
<path id="Vector_99" d="M1.38672 7.78125C1.38672 7.78125 1.46085 8.57184 2.15261 9.53537C3.19026 8.94243 4.35143 8.34949 5.56202 7.80596L1.38672 7.78125Z" fill="url(#paint30_linear_1028_46294)"/>
</g>
</g>
<defs>
<radialGradient id="paint0_radial_1028_46294" cx="0" cy="0" r="1" gradientUnits="userSpaceOnUse" gradientTransform="translate(30.6356 19.2028) scale(19.4395 19.4395)">
<stop offset="0.0139665" stop-color="#E85621"/>
<stop offset="1" stop-color="#E33A0B"/>
</radialGradient>
<radialGradient id="paint1_radial_1028_46294" cx="0" cy="0" r="1" gradientUnits="userSpaceOnUse" gradientTransform="translate(33.5603 13.738) scale(15.3398 15.3398)">
<stop offset="0.0139665" stop-color="#E85621"/>
<stop offset="1" stop-color="#E33A0B"/>
</radialGradient>
<linearGradient id="paint2_linear_1028_46294" x1="48.9163" y1="-5.89048" x2="29.1" y2="18.5535" gradientUnits="userSpaceOnUse">
<stop stop-color="#FFA369"/>
<stop offset="0.1319" stop-color="#FE9E66"/>
<stop offset="0.2926" stop-color="#FA8F5C"/>
<stop offset="0.4684" stop-color="#F3764C"/>
<stop offset="0.6548" stop-color="#EA5436"/>
<stop offset="0.8476" stop-color="#DF281A"/>
<stop offset="1" stop-color="#D40000"/>
</linearGradient>
<linearGradient id="paint3_linear_1028_46294" x1="17.3594" y1="33.7019" x2="34.6838" y2="11.9871" gradientUnits="userSpaceOnUse">
<stop stop-color="#D40000"/>
<stop offset="1" stop-color="#FFAF47"/>
</linearGradient>
<linearGradient id="paint4_linear_1028_46294" x1="30.6357" y1="19.2704" x2="30.6357" y2="25.8717" gradientUnits="userSpaceOnUse">
<stop offset="0.6285" stop-color="#F7814A"/>
<stop offset="1" stop-color="#F7E399"/>
</linearGradient>
<radialGradient id="paint5_radial_1028_46294" cx="0" cy="0" r="1" gradientUnits="userSpaceOnUse" gradientTransform="translate(8.26134 2.84205) scale(5.99864)">
<stop offset="0.0139665" stop-color="#E85621"/>
<stop offset="1" stop-color="#E33A0B"/>
</radialGradient>
<radialGradient id="paint6_radial_1028_46294" cx="0" cy="0" r="1" gradientUnits="userSpaceOnUse" gradientTransform="translate(7.68814 10.2458) scale(4.77545 4.77545)">
<stop offset="0.0139665" stop-color="#E85621"/>
<stop offset="1" stop-color="#E33A0B"/>
</radialGradient>
<radialGradient id="paint7_radial_1028_46294" cx="0" cy="0" r="1" gradientUnits="userSpaceOnUse" gradientTransform="translate(8.2343 17.6462) scale(2.93194 2.93194)">
<stop offset="0.0139665" stop-color="#E85621"/>
<stop offset="1" stop-color="#E33A0B"/>
</radialGradient>
<radialGradient id="paint8_radial_1028_46294" cx="0" cy="0" r="1" gradientUnits="userSpaceOnUse" gradientTransform="translate(53.0143 2.84205) scale(5.99861)">
<stop offset="0.0139665" stop-color="#E85621"/>
<stop offset="1" stop-color="#E33A0B"/>
</radialGradient>
<radialGradient id="paint9_radial_1028_46294" cx="0" cy="0" r="1" gradientUnits="userSpaceOnUse" gradientTransform="translate(53.5879 10.2458) scale(4.77545 4.77545)">
<stop offset="0.0139665" stop-color="#E85621"/>
<stop offset="1" stop-color="#E33A0B"/>
</radialGradient>
<radialGradient id="paint10_radial_1028_46294" cx="0" cy="0" r="1" gradientUnits="userSpaceOnUse" gradientTransform="translate(53.0406 17.6462) scale(2.93194 2.93194)">
<stop offset="0.0139665" stop-color="#E85621"/>
<stop offset="1" stop-color="#E33A0B"/>
</radialGradient>
<linearGradient id="paint11_linear_1028_46294" x1="55.0662" y1="-2.02777" x2="35.9026" y2="24.0181" gradientUnits="userSpaceOnUse">
<stop stop-color="#FFA369"/>
<stop offset="0.1319" stop-color="#FE9E66"/>
<stop offset="0.2926" stop-color="#FA8F5C"/>
<stop offset="0.4684" stop-color="#F3764C"/>
<stop offset="0.6548" stop-color="#EA5436"/>
<stop offset="0.8476" stop-color="#DF281A"/>
<stop offset="1" stop-color="#D40000"/>
</linearGradient>
<linearGradient id="paint12_linear_1028_46294" x1="58.9701" y1="0.841731" x2="39.8066" y2="26.8875" gradientUnits="userSpaceOnUse">
<stop stop-color="#FFA369"/>
<stop offset="0.1319" stop-color="#FE9E66"/>
<stop offset="0.2926" stop-color="#FA8F5C"/>
<stop offset="0.4684" stop-color="#F3764C"/>
<stop offset="0.6548" stop-color="#EA5436"/>
<stop offset="0.8476" stop-color="#DF281A"/>
<stop offset="1" stop-color="#D40000"/>
</linearGradient>
<linearGradient id="paint13_linear_1028_46294" x1="26.5046" y1="-23.0433" x2="7.34095" y2="3.00258" gradientUnits="userSpaceOnUse">
<stop stop-color="#FFA369"/>
<stop offset="0.1319" stop-color="#FE9E66"/>
<stop offset="0.2926" stop-color="#FA8F5C"/>
<stop offset="0.4684" stop-color="#F3764C"/>
<stop offset="0.6548" stop-color="#EA5436"/>
<stop offset="0.8476" stop-color="#DF281A"/>
<stop offset="1" stop-color="#D40000"/>
</linearGradient>
<linearGradient id="paint14_linear_1028_46294" x1="2.18764" y1="24.766" x2="17.0596" y2="2.37882" gradientUnits="userSpaceOnUse">
<stop stop-color="#D40000"/>
<stop offset="1" stop-color="#FFAF47"/>
</linearGradient>
<radialGradient id="paint15_radial_1028_46294" cx="0" cy="0" r="1" gradientUnits="userSpaceOnUse" gradientTransform="translate(30.6358 9.86373) scale(4.84163)">
<stop offset="0.0139665" stop-color="#E85621"/>
<stop offset="1" stop-color="#E33A0B"/>
</radialGradient>
<linearGradient id="paint16_linear_1028_46294" x1="17.6565" y1="32.6659" x2="32.4337" y2="6.65806" gradientUnits="userSpaceOnUse">
<stop stop-color="#D40000"/>
<stop offset="1" stop-color="#FFAF47"/>
</linearGradient>
<linearGradient id="paint17_linear_1028_46294" x1="36.5028" y1="-0.0482463" x2="29.2915" y2="12.2464" gradientUnits="userSpaceOnUse">
<stop stop-color="#FFA369"/>
<stop offset="0.1319" stop-color="#FE9E66"/>
<stop offset="0.2926" stop-color="#FA8F5C"/>
<stop offset="0.4684" stop-color="#F3764C"/>
<stop offset="0.6548" stop-color="#EA5436"/>
<stop offset="0.8476" stop-color="#DF281A"/>
<stop offset="1" stop-color="#D40000"/>
</linearGradient>
<radialGradient id="paint18_radial_1028_46294" cx="0" cy="0" r="1" gradientUnits="userSpaceOnUse" gradientTransform="translate(44.9147 28.6917) scale(13.5112 13.5112)">
<stop offset="0.0139665" stop-color="#E85621"/>
<stop offset="1" stop-color="#E33A0B"/>
</radialGradient>
<radialGradient id="paint19_radial_1028_46294" cx="0" cy="0" r="1" gradientUnits="userSpaceOnUse" gradientTransform="translate(16.3563 28.6917) scale(13.5112 13.5112)">
<stop offset="0.0139665" stop-color="#E85621"/>
<stop offset="1" stop-color="#E33A0B"/>
</radialGradient>
<linearGradient id="paint20_linear_1028_46294" x1="12.8643" y1="35.7881" x2="30.3593" y2="8.32394" gradientUnits="userSpaceOnUse">
<stop stop-color="#D40000"/>
<stop offset="1" stop-color="#FFAF47"/>
</linearGradient>
<linearGradient id="paint21_linear_1028_46294" x1="8.5984" y1="31.7793" x2="29.8801" y2="31.7793" gradientUnits="userSpaceOnUse">
<stop offset="0.0921788" stop-color="#F7814A"/>
<stop offset="0.1308" stop-color="#F7874F"/>
<stop offset="0.3944" stop-color="#F7AF6F"/>
<stop offset="0.6359" stop-color="#F7CB86"/>
<stop offset="0.8457" stop-color="#F7DD94"/>
<stop offset="1" stop-color="#F7E399"/>
</linearGradient>
<linearGradient id="paint22_linear_1028_46294" x1="52.6739" y1="31.7917" x2="31.3923" y2="31.7917" gradientUnits="userSpaceOnUse">
<stop offset="0.0921788" stop-color="#F7814A"/>
<stop offset="0.1308" stop-color="#F7874F"/>
<stop offset="0.3944" stop-color="#F7AF6F"/>
<stop offset="0.6359" stop-color="#F7CB86"/>
<stop offset="0.8457" stop-color="#F7DD94"/>
<stop offset="1" stop-color="#F7E399"/>
</linearGradient>
<linearGradient id="paint23_linear_1028_46294" x1="65.2571" y1="8.86255" x2="44.8299" y2="31.3422" gradientUnits="userSpaceOnUse">
<stop stop-color="#FFA369"/>
<stop offset="0.1319" stop-color="#FE9E66"/>
<stop offset="0.2926" stop-color="#FA8F5C"/>
<stop offset="0.4684" stop-color="#F3764C"/>
<stop offset="0.6548" stop-color="#EA5436"/>
<stop offset="0.8476" stop-color="#DF281A"/>
<stop offset="1" stop-color="#D40000"/>
</linearGradient>
<linearGradient id="paint24_linear_1028_46294" x1="30.6473" y1="47.118" x2="48.1423" y2="19.6538" gradientUnits="userSpaceOnUse">
<stop stop-color="#D40000"/>
<stop offset="1" stop-color="#FFAF47"/>
</linearGradient>
<radialGradient id="paint25_radial_1028_46294" cx="0" cy="0" r="1" gradientUnits="userSpaceOnUse" gradientTransform="translate(30.6357 23.3077) scale(9.26226)">
<stop offset="0.0139665" stop-color="#E85621"/>
<stop offset="1" stop-color="#E33A0B"/>
</radialGradient>
<linearGradient id="paint26_linear_1028_46294" x1="17.4845" y1="36.1067" x2="41.2347" y2="4.92843" gradientUnits="userSpaceOnUse">
<stop stop-color="#D40000"/>
<stop offset="1" stop-color="#FFAF47"/>
</linearGradient>
<radialGradient id="paint27_radial_1028_46294" cx="0" cy="0" r="1" gradientUnits="userSpaceOnUse" gradientTransform="translate(30.6347 17.4161) scale(7.98363 7.98363)">
<stop offset="0.0139665" stop-color="#E85621"/>
<stop offset="1" stop-color="#E33A0B"/>
</radialGradient>
<linearGradient id="paint28_linear_1028_46294" x1="14.7991" y1="34.0628" x2="38.5492" y2="2.88458" gradientUnits="userSpaceOnUse">
<stop stop-color="#D40000"/>
<stop offset="1" stop-color="#FFAF47"/>
</linearGradient>
<linearGradient id="paint29_linear_1028_46294" x1="44.9973" y1="4.20006" x2="36.3965" y2="18.8606" gradientUnits="userSpaceOnUse">
<stop stop-color="#FFA369"/>
<stop offset="0.1319" stop-color="#FE9E66"/>
<stop offset="0.2926" stop-color="#FA8F5C"/>
<stop offset="0.4684" stop-color="#F3764C"/>
<stop offset="0.6548" stop-color="#EA5436"/>
<stop offset="0.8476" stop-color="#DF281A"/>
<stop offset="1" stop-color="#D40000"/>
</linearGradient>
<linearGradient id="paint30_linear_1028_46294" x1="26.2949" y1="-23.1978" x2="7.13128" y2="2.84811" gradientUnits="userSpaceOnUse">
<stop stop-color="#FFA369"/>
<stop offset="0.1319" stop-color="#FE9E66"/>
<stop offset="0.2926" stop-color="#FA8F5C"/>
<stop offset="0.4684" stop-color="#F3764C"/>
<stop offset="0.6548" stop-color="#EA5436"/>
<stop offset="0.8476" stop-color="#DF281A"/>
<stop offset="1" stop-color="#D40000"/>
</linearGradient>
</defs>
</svg>
