<svg width="75" height="43" viewBox="0 0 75 43" fill="none" xmlns="http://www.w3.org/2000/svg">
<g id="Group">
<g id="Group_2">
<path id="Vector" d="M23.5123 0.420509L22.7464 6.64639C20.9676 6.64639 19.4606 6.62168 16.7923 6.62168C7.30526 6.62168 7.25586 0.371094 7.25586 0.371094L23.5123 0.420509Z" fill="#681D15"/>
<path id="Vector_2" d="M23.5123 0.420509L21.9064 5.28756C20.1276 5.28756 19.8312 5.26286 17.1382 5.26286C7.65115 5.26286 7.25586 0.371094 7.25586 0.371094L23.5123 0.420509Z" fill="url(#paint0_radial_1028_46690)"/>
<path id="Vector_3" d="M21.0909 7.83066L20.3497 14.0565C18.5709 14.0565 20.745 14.0565 18.0521 14.0565C8.56503 14.0565 8.51562 7.78125 8.51562 7.78125L21.0909 7.83066Z" fill="#681D15"/>
<path id="Vector_4" d="M21.0909 7.82939L19.5097 12.7212C17.7309 12.7212 21.0909 12.6964 18.4227 12.6964C8.93562 12.6964 8.51562 7.80469 8.51562 7.80469L21.0909 7.82939Z" fill="url(#paint1_radial_1028_46690)"/>
<path id="Vector_5" d="M18.6953 15.2161L12 15.1914C12 15.1914 13.0376 19.8855 17.9294 21.4667L18.6953 15.2161Z" fill="#681D15"/>
<path id="Vector_6" d="M18.6953 15.2161L12 15.1914C12 15.1914 12.1976 18.5267 17.0894 20.1079L18.6953 15.2161Z" fill="url(#paint2_radial_1028_46690)"/>
<path id="Vector_7" d="M21.0909 7.83203L21.9062 9.36379L20.3498 14.0579L19.5098 12.6991L21.0909 7.83203Z" fill="#9E2C19"/>
<path id="Vector_8" d="M18.6945 15.2188L19.4851 16.7505L17.1627 23.8164L15.7051 24.2611L18.6945 15.2188Z" fill="#9E2C19"/>
<path id="Vector_9" d="M23.5123 0.419239L7.25586 0.394531C7.25586 0.394531 7.65115 5.28629 17.1382 5.28629C19.8064 5.28629 20.1029 5.28629 21.9064 5.311L23.5123 0.419239Z" fill="url(#paint3_linear_1028_46690)"/>
<path id="Vector_10" d="M19.5099 12.6979L20.4487 9.83203C19.1887 10.252 17.9781 10.7956 16.8663 11.4626C16.3969 11.7344 15.8781 12.0803 15.2852 12.4756C16.1993 12.5991 17.2369 12.6732 18.4228 12.6732C21.091 12.6732 17.731 12.6979 19.5099 12.6979Z" fill="url(#paint4_linear_1028_46690)"/>
<path id="Vector_11" opacity="0.35" d="M17.1382 5.28512C19.8064 5.28512 20.1029 5.28512 21.9064 5.30982L23.1665 1.4557L22.2276 3.5557C21.7829 4.66747 21.5111 5.03806 20.3994 5.03806C19.2135 5.03806 16.9653 5.01336 15.8041 4.98865C10.8135 4.791 7.89821 2.64159 7.25586 0.418062C7.25586 0.393356 7.65115 5.28512 17.1382 5.28512Z" fill="#9E2C19"/>
<path id="Vector_12" opacity="0.35" d="M19.7329 11.2647C19.4364 11.9071 19.1153 12.4259 18.3988 12.4012C17.6823 12.3765 15.6317 12.3518 14.4952 12.1047C11.8023 11.4871 10.1964 10.4988 9.10938 9.26354C10.0235 10.6965 12.3952 12.6977 18.4482 12.6977C21.1164 12.6977 17.7564 12.6977 19.5352 12.7224L20.8447 8.69531L19.7329 11.2647Z" fill="#9E2C19"/>
<path id="Vector_13" opacity="0.35" d="M17.1144 20.1106L18.4979 15.8612C18.2261 16.4048 17.732 17.6648 17.1885 18.8259C16.8426 19.6165 16.4967 19.5177 15.9532 19.2954C13.2355 18.1589 12.5932 16.8001 12.0249 15.2189C12.0002 15.1942 12.2226 18.5295 17.1144 20.1106Z" fill="#9E2C19"/>
<path id="Vector_14" opacity="0.5" d="M11.5801 0.394531L23.513 0.419239L23.1177 1.62983C23.1177 1.01218 22.8212 0.690997 22.1048 0.690997L11.5801 0.394531Z" fill="#FFE67B"/>
<path id="Vector_15" opacity="0.5" d="M11.5801 7.83203H21.0918L20.6471 9.19085L20.6966 8.74614C20.7213 8.32614 20.573 8.10379 19.8071 8.05438L11.5801 7.83203Z" fill="#FFE67B"/>
<path id="Vector_16" d="M37.7439 37.0071L56.5944 23.3201L49.405 1.18359H26.1074L18.918 23.3201L37.7439 37.0071Z" fill="#54101A"/>
<path id="Vector_17" opacity="0.3" d="M27.8867 3.60547L37.7691 33.9937L47.6514 3.60547H27.8867Z" fill="#8C1919"/>
<path id="Vector_18" d="M50.0713 0.246094H25.4395L17.8301 23.6673L37.743 38.1449L57.656 23.6673L50.0713 0.246094ZM21.783 22.4073L27.8854 3.6308H47.6501L53.7524 22.4073L37.7677 34.019L21.783 22.4073Z" fill="url(#paint5_radial_1028_46690)"/>
<path id="Vector_19" d="M50.0714 0.246094H25.4397L23.6855 5.65668C24.7726 5.70609 25.9091 5.85433 27.0702 6.07668L27.8855 3.6061H47.6503L53.7526 22.3826L51.4302 24.0626C51.9491 25.0755 52.4185 26.1132 52.8138 27.2002L57.6808 23.6673L50.0714 0.246094Z" fill="url(#paint6_radial_1028_46690)"/>
<path id="Vector_20" d="M50.0714 0.246094H25.4397L23.6855 5.65668C24.7726 5.70609 25.9091 5.85433 27.0702 6.07668L27.8855 3.6061H47.6503L53.7526 22.3826L51.4302 24.0626C51.9491 25.0755 52.4185 26.1132 52.8138 27.2002L57.6808 23.6673L50.0714 0.246094Z" fill="url(#paint7_linear_1028_46690)"/>
<path id="Vector_21" d="M48.7124 30.191C48.5889 28.8816 48.3913 27.6463 48.1442 26.4604L37.7677 33.9957L21.783 22.3839L26.156 8.89453C24.9207 8.91924 23.6854 9.06748 22.4995 9.31453L17.8301 23.6686L37.743 38.1463L48.7124 30.191Z" fill="url(#paint8_linear_1028_46690)"/>
<path id="Vector_22" d="M21.7832 22.4066L23.3644 22.0361L28.8491 5.11253H46.662L52.1467 22.0361L53.7279 22.4066L47.6256 3.60547H27.8856L21.7832 22.4066Z" fill="#9E2C19"/>
<path id="Vector_23" opacity="0.2" d="M23.3652 22.0368L26.4535 14.1309C28.2817 9.46152 32.7782 7.43563 37.7935 7.43563C42.8335 7.43563 47.3547 9.48622 49.1582 14.205L52.1723 22.0368L46.6629 5.11328H28.85L23.3652 22.0368Z" fill="#892334"/>
<path id="Vector_24" d="M21.7832 22.4057L23.3644 22.0352L37.7432 32.5104L52.1467 22.0352L53.7279 22.4057L37.7432 33.9928L21.7832 22.4057Z" fill="url(#paint9_linear_1028_46690)"/>
<path id="Vector_25" opacity="0.6" d="M23.3652 22.0381L29.0229 7.53572C29.2947 6.84396 29.9617 6.37455 30.7276 6.37455H44.9335C45.6994 6.37455 46.3664 6.84396 46.6382 7.53572L52.197 22.0134L46.6876 5.08984H28.8747L23.3652 22.0381Z" fill="#892334"/>
<path id="Vector_26" d="M27.8867 3.60547L28.8503 5.11253H46.6632L47.6267 3.60547H27.8867Z" fill="#681D15"/>
<path id="Vector_27" opacity="0.35" d="M20.5731 15.2656L18.6707 22.4056C18.5225 23.0233 18.819 23.8386 19.3131 24.2092L37.7684 38.1186L17.8555 23.6409L20.5731 15.2656Z" fill="#9E2C19"/>
<path id="Vector_28" opacity="0.6" d="M23.3652 22.0352L37.1017 31.2999C37.4723 31.5469 38.0652 31.5469 38.4358 31.2999L52.1723 22.0352L37.7688 32.5104L23.3652 22.0352Z" fill="#892334"/>
<path id="Vector_29" opacity="0.35" d="M37.7441 38.1444L55.4829 24.4327C56.7182 23.5185 56.99 23.3209 56.4218 21.5421L52.7159 8.47266L57.6571 23.6668L37.7441 38.1444Z" fill="#9E2C19"/>
<path id="Vector_30" d="M28.9473 27.6193L37.7426 33.9934L49.6508 25.3711L37.7426 34.537L28.9473 27.6193Z" fill="#FFF5CC"/>
<path id="Vector_31" d="M37.0762 0.246094H50.0715L52.7397 8.49786L49.5773 0.715504L37.0762 0.246094Z" fill="#FFF5CC"/>
<path id="Vector_32" d="M42.2655 0.246094C42.1667 1.30845 42.6114 2.51904 43.5255 3.6061H47.6514L48.6643 6.74374C49.949 7.06491 51.1843 7.06492 52.1973 6.79315L50.0725 0.246094H42.2655Z" fill="#FFF2BB"/>
<path id="Vector_33" d="M27.8859 26.8281C27.5647 27.6187 28.1329 28.8293 29.2694 29.6446C30.4058 30.4599 31.7153 30.6328 32.3823 30.0893L27.8859 26.8281Z" fill="#FFF2BB"/>
<path id="Vector_34" d="M32.4059 32.2908C32.2082 32.5873 31.6894 32.5873 31.22 32.2661C30.7506 31.9696 30.553 31.5002 30.7259 31.2037C30.8989 30.9073 31.4424 30.9073 31.9118 31.2284C32.3812 31.5249 32.6035 31.9943 32.4059 32.2908Z" fill="#FFF2BB"/>
<path id="Vector_35" d="M23.5121 0.417969L24.3027 1.97444L22.7463 6.64385L21.9062 5.28502L23.5121 0.417969Z" fill="#9E2C19"/>
<path id="Vector_36" d="M52.0234 0.420509L52.7893 6.64639C54.5681 6.64639 56.0752 6.62168 58.7435 6.62168C68.2305 6.62168 68.2799 0.371094 68.2799 0.371094L52.0234 0.420509Z" fill="#681D15"/>
<path id="Vector_37" d="M52.0234 0.420509L53.6293 5.28756C55.4081 5.28756 55.7046 5.26286 58.3976 5.26286C67.8846 5.26286 68.2799 0.371094 68.2799 0.371094L52.0234 0.420509Z" fill="url(#paint10_radial_1028_46690)"/>
<path id="Vector_38" d="M54.4199 7.83066L55.1611 14.0565C56.9399 14.0565 54.7658 14.0565 57.4587 14.0565C66.9458 14.0565 66.9952 7.78125 66.9952 7.78125L54.4199 7.83066Z" fill="#681D15"/>
<path id="Vector_39" d="M54.4199 7.82939L56.0011 12.7212C57.7799 12.7212 54.4199 12.6964 57.0881 12.6964C66.5752 12.6964 66.9952 7.80469 66.9952 7.80469L54.4199 7.82939Z" fill="url(#paint11_radial_1028_46690)"/>
<path id="Vector_40" d="M56.8164 15.2161L63.5117 15.1914C63.5117 15.1914 62.474 19.8855 57.5823 21.4667L56.8164 15.2161Z" fill="#681D15"/>
<path id="Vector_41" d="M56.8164 15.2161L63.5117 15.1914C63.5117 15.1914 63.3141 18.5267 58.4223 20.1079L56.8164 15.2161Z" fill="url(#paint12_radial_1028_46690)"/>
<path id="Vector_42" d="M52.0234 0.420509L53.6293 5.28756C55.4081 5.28756 55.7046 5.26286 58.3976 5.26286C67.8846 5.26286 68.2799 0.371094 68.2799 0.371094L52.0234 0.420509Z" fill="url(#paint13_linear_1028_46690)"/>
<path id="Vector_43" d="M54.4199 7.82939L56.0011 12.7212C57.7799 12.7212 54.4199 12.6964 57.0881 12.6964C66.5752 12.6964 66.9952 7.80469 66.9952 7.80469L54.4199 7.82939Z" fill="url(#paint14_linear_1028_46690)"/>
<path id="Vector_44" d="M52.0243 0.417969L51.209 1.97444L52.7654 6.64385L53.6054 5.28502L52.0243 0.417969Z" fill="#9E2C19"/>
<path id="Vector_45" d="M54.4208 7.83203L53.6055 9.36379L55.162 14.0579L56.0019 12.6991L54.4208 7.83203Z" fill="#9E2C19"/>
<path id="Vector_46" d="M56.816 15.2188L56.0254 16.7505L58.3477 23.8658L59.7807 24.2611L56.816 15.2188Z" fill="#9E2C19"/>
<path id="Vector_47" opacity="0.35" d="M21.0176 13.9072L25.1682 1.97424C25.5882 0.763647 25.9093 0.442472 27.194 0.393061L37.7435 0.269531H25.4399L21.0176 13.9072Z" fill="#9E2C19"/>
<path id="Vector_48" d="M41.4752 2.12476C40.6105 1.50711 39.5728 1.4577 39.1528 2.02594C38.8564 2.44594 38.9552 3.06358 39.3505 3.60711H42.4387C42.3893 3.11299 42.0434 2.54476 41.4752 2.12476Z" fill="#FFF2BB"/>
<path id="Vector_49" opacity="0.35" fill-rule="evenodd" clip-rule="evenodd" d="M55.6792 4.91443C54.5922 4.81561 53.851 4.42032 53.3569 3.45679L51.998 0.417969L53.6039 5.28502C55.3828 5.28502 55.6792 5.26032 58.3722 5.26032C59.8792 5.26032 61.1639 5.13679 62.251 4.93914C59.9039 5.23561 57.4828 5.08738 55.6792 4.91443Z" fill="#9E2C19"/>
<path id="Vector_50" opacity="0.35" fill-rule="evenodd" clip-rule="evenodd" d="M57.0875 12.6991C59.3851 12.6991 61.1392 12.4273 62.4981 11.9826C60.5463 12.5261 58.9157 12.4767 57.6557 12.4026C56.791 12.3532 56.0992 11.7108 55.7287 10.945L54.3945 7.83203L55.9757 12.7238C57.7792 12.6991 54.4192 12.6744 57.0875 12.6991Z" fill="#9E2C19"/>
<path id="Vector_51" opacity="0.35" fill-rule="evenodd" clip-rule="evenodd" d="M58.3976 20.1092C59.4599 19.7634 60.2999 19.3434 60.967 18.8987C60.1764 19.1951 58.694 19.4175 58.694 19.4175L56.8164 15.2422L58.3976 20.1092Z" fill="#9E2C19"/>
<path id="Vector_52" d="M52.0234 0.420509L66.8717 0.667567C67.4646 0.667567 67.7364 1.13698 67.4893 1.6558C67.2175 2.22404 66.7976 2.89109 66.0811 3.45933C68.1317 2.0758 68.2799 0.371094 68.2799 0.371094L52.0234 0.420509Z" fill="#FFF5CC"/>
<path id="Vector_53" d="M54.4199 7.83066L65.3893 8.07772C66.674 8.10243 66.4517 8.64596 66.1305 9.31302C65.9328 9.73302 65.6364 10.1777 65.2658 10.5483C66.8964 9.2389 67.0199 7.78125 67.0199 7.78125L54.4199 7.83066Z" fill="#FFF5CC"/>
<path id="Vector_54" d="M53.6039 5.28629C54.8886 5.28629 55.4075 5.26159 56.5933 5.26159C58.2733 4.19923 59.3851 2.64276 59.558 0.814527C59.558 0.666291 59.5827 0.518061 59.5827 0.394531L51.998 0.419239L53.6039 5.28629Z" fill="#FFF2BB"/>
<path id="Vector_55" d="M61.6592 18.3538C63.4133 16.822 63.5121 15.1914 63.5121 15.1914L56.8168 15.2161L59.7815 24.2585L38.5098 39.7243V42.1949L65.5627 27.1491L61.6592 18.3538Z" fill="url(#paint15_radial_1028_46690)"/>
<path id="Vector_56" d="M15.7057 24.2585L18.6951 15.2161L11.9998 15.1914C11.9998 15.1914 12.0986 16.822 13.8527 18.3538L9.94922 27.1243L37.0022 42.1702V39.6996L15.7057 24.2585Z" fill="url(#paint16_radial_1028_46690)"/>
<path id="Vector_57" d="M15.7057 24.2585L18.6951 15.2161L11.9998 15.1914C11.9998 15.1914 12.0986 16.822 13.8527 18.3538L9.94922 27.1243L37.0022 42.1702V39.6996L15.7057 24.2585Z" fill="url(#paint17_linear_1028_46690)"/>
<path id="Vector_58" d="M17.1627 23.8164L37.0016 38.9117V39.727L15.7051 24.2611L17.1627 23.8164Z" fill="url(#paint18_linear_1028_46690)"/>
<path id="Vector_59" d="M58.3486 23.8633L38.5098 38.9092V39.7245L59.7815 24.2586L58.3486 23.8633Z" fill="url(#paint19_linear_1028_46690)"/>
<path id="Vector_60" d="M61.6594 18.3538C63.4135 16.822 63.5123 15.1914 63.5123 15.1914L56.817 15.2161L59.7817 24.2585L53.457 28.8538C53.5311 29.1008 53.5805 29.3726 53.6547 29.6196C54.0005 30.9785 54.297 32.1891 54.5441 33.2514L65.5629 27.1243L61.6594 18.3538Z" fill="url(#paint20_linear_1028_46690)"/>
<path id="Vector_61" d="M48.8121 34.4396C48.8615 33.6738 48.8862 32.9326 48.8862 32.1914L38.5098 39.7267V42.1973L48.3427 36.7126C48.5897 36.0208 48.7627 35.2549 48.8121 34.4396Z" fill="url(#paint21_linear_1028_46690)"/>
<path id="Vector_62" opacity="0.35" d="M13.8527 18.3538L9.94922 27.1243L24.0068 34.9561C24.0068 34.9561 14.421 29.2243 11.3327 27.2726C10.7892 26.9267 10.5916 26.6302 10.8633 26.0373C11.7774 23.9126 13.8527 18.922 14.248 18.1561C13.0127 17.1926 12.4939 16.2785 12.0245 15.1914C11.9998 15.1914 12.1233 16.822 13.8527 18.3538Z" fill="#9E2C19"/>
<path id="Vector_63" d="M62.3505 17.6373C63.4376 16.3526 63.487 15.1914 63.487 15.1914L56.8164 15.2161L62.3258 15.4385C63.1411 15.4879 62.9929 15.7843 62.894 16.1796C62.7952 16.6738 62.6223 17.1926 62.3505 17.6373Z" fill="#FFF5CC"/>
<path id="Vector_64" opacity="0.35" d="M52.4922 34.4162L62.7945 28.1903C64.6228 27.0786 64.7957 26.8809 64.0051 24.8797L62.2757 19.7656L65.5616 27.1527L52.4922 34.4162Z" fill="#9E2C19"/>
<path id="Vector_65" opacity="0.35" d="M38.5098 39.7247C38.5098 39.7247 38.5839 40.0706 38.6333 40.3423C38.8309 41.5282 39.1521 41.4541 39.8439 41.1329L43.7227 39.3047L38.5345 42.1953V39.7247H38.5098Z" fill="#9E2C19"/>
<path id="Vector_66" opacity="0.35" d="M27.3184 36.8125L35.7678 41.0866C36.6325 41.556 36.7313 41.309 36.9043 40.3207C36.929 40.1972 36.9784 39.8019 36.9784 39.8019V42.1984L27.3184 36.8125Z" fill="#9E2C19"/>
<g id="Group_3">
<path id="Vector_67" opacity="0.6" d="M44.9333 10.0273H30.5545L26.1074 22.4544V23.6897L37.7439 32.1391L49.3804 23.6897V22.4544L44.9333 10.0273ZM42.8827 22.9979H39.4733L37.7686 25.9626L36.0639 22.9979H32.6545L34.3592 20.0332L32.6545 17.0685H36.0639L37.7686 14.1038L39.4733 17.0685H42.8827L41.178 20.0332L42.8827 22.9979Z" fill="#892334"/>
<path id="Vector_68" d="M44.9333 8.79297H30.5545L26.1074 20.2318V22.4553L37.7439 30.9047L49.3804 22.4553V20.2318L44.9333 8.79297ZM42.8827 21.7636H39.4733L37.7686 24.7283L36.0639 21.7636H32.6545L34.3592 18.7989V16.5753L32.6545 15.8341H36.0639L37.7686 12.8694L39.4733 15.8341H42.8827L41.178 16.5753V18.7989L42.8827 21.7636Z" fill="#9E2C19"/>
<path id="Vector_69" d="M44.9333 6.57031H30.5545L26.1074 20.2327L37.7439 28.6821L49.3804 20.2327L44.9333 6.57031ZM42.8827 19.5409H39.4733L37.7686 22.5056L36.0639 19.5409H32.6545L34.3592 16.5762L32.6545 13.6115H36.0639L37.7686 10.6468L39.4733 13.6115H42.8827L41.178 16.5762L42.8827 19.5409Z" fill="url(#paint22_radial_1028_46690)"/>
<path id="Vector_70" d="M49.1087 19.4174L44.9334 6.57031H30.5546L30.4805 6.76796C37.4722 8.67031 44.4393 13.1668 49.1087 19.4174Z" fill="url(#paint23_linear_1028_46690)"/>
<g id="Group_4">
<path id="Vector_71" d="M41.7951 15.4879L41.1774 16.575L42.8821 19.5397H39.4727L37.768 22.5044L36.0633 19.5397H32.6539L34.3586 16.575L32.6539 13.6103H36.0633L36.9774 12.0291C34.6304 10.7691 32.1351 9.90438 29.6398 9.48438L26.1562 20.2067L37.7927 28.6561L46.8598 22.0597C45.5256 19.5397 43.7962 17.3409 41.7951 15.4879Z" fill="url(#paint24_linear_1028_46690)"/>
</g>
<path id="Vector_72" d="M37.7446 30.9073V28.6838L26.1328 20.2344V22.4579L37.7446 30.9073Z" fill="#681D15"/>
<path id="Vector_73" d="M37.743 12.8954V10.6719L36.0383 13.6119H32.6289L33.9136 15.8354H36.0383L37.743 12.8954Z" fill="#681D15"/>
<path id="Vector_74" d="M39.4727 13.6133V15.8368H41.5974L42.8821 13.6133H39.4727Z" fill="#681D15"/>
<path id="Vector_75" opacity="0.8" d="M33.7656 6.57031H44.9574L47.2303 13.6115L45.1798 8.2256C44.8586 7.48443 44.3892 6.9409 43.5739 6.91619L33.7656 6.57031Z" fill="#FFE67B"/>
<path id="Vector_76" d="M32.6289 19.5391H36.0383L37.743 22.5038L35.7418 19.9838L32.6289 19.5391Z" fill="#FFE67B"/>
<path id="Vector_77" opacity="0.35" d="M37.7441 10.6719L39.7206 13.1178L42.8829 13.6119H39.4736L37.7441 10.6719Z" fill="#9E2C19"/>
<path id="Vector_78" opacity="0.35" d="M30.5799 6.57031C30.5305 6.71855 28.381 14.6738 27.3187 18.1821C26.8493 19.7385 27.0716 20.1833 27.8869 20.8503L37.7693 28.6821L26.1328 20.2327L30.5799 6.57031Z" fill="#9E2C19"/>
<path id="Vector_79" opacity="0.35" d="M44.6367 23.69L47.7991 21.0217C48.8861 20.1076 48.7626 19.5641 48.5403 18.6994L47.3791 14.0547L49.3803 20.2312L44.6367 23.69Z" fill="#9E2C19"/>
<path id="Vector_80" d="M32.6289 13.6096L35.7913 13.2391L37.5948 10.9414L36.0383 13.6096H32.6289Z" fill="#FFE67B"/>
<path id="Vector_81" opacity="0.5" d="M43.6493 9.43476C43.3775 10.1759 42.241 10.423 41.1046 9.97828C39.9928 9.55828 39.301 8.61946 39.5728 7.87828C39.8445 7.1371 40.981 6.89005 42.1175 7.33476C43.254 7.75476 43.9457 8.69358 43.6493 9.43476Z" fill="#FCE265"/>
<path id="Vector_82" opacity="0.5" d="M44.8346 11.6333C44.7111 11.9792 44.1676 12.1028 43.624 11.9051C43.1052 11.7075 42.7593 11.2628 42.9076 10.9169C43.0558 10.571 43.5746 10.4475 44.1182 10.6451C44.637 10.8428 44.9582 11.2875 44.8346 11.6333Z" fill="#FCE265"/>
<path id="Vector_83" opacity="0.5" d="M34.0632 22.4576C33.9396 22.8034 33.3961 22.927 32.8526 22.7293C32.3337 22.5317 31.9879 22.087 32.1361 21.7411C32.2596 21.3952 32.8032 21.2717 33.3467 21.4693C33.8655 21.667 34.1867 22.1117 34.0632 22.4576Z" fill="#FCE265"/>
</g>
<g id="Group_5">
<path id="Vector_84" d="M33.4447 42.1952L7.79995 27.7176L11.3576 19.2188L0.511719 29.4964L33.4447 42.1952Z" fill="url(#paint25_radial_1028_46690)"/>
<path id="Vector_85" d="M11.3584 19.2188L12.1737 20.7505L9.25843 27.2729L7.80078 27.7176L11.3584 19.2188Z" fill="#9E2C19"/>
<path id="Vector_86" d="M9.25843 27.2734L33.4455 41.3558V42.1958L7.80078 27.7181L9.25843 27.2734Z" fill="url(#paint26_linear_1028_46690)"/>
</g>
<path id="Vector_87" d="M33.4447 42.1952L7.79995 27.7176L11.3576 19.2188L0.511719 29.4964L33.4447 42.1952Z" fill="url(#paint27_linear_1028_46690)"/>
<path id="Vector_88" d="M42.0664 42.1952L67.7111 27.7176L64.1534 19.2188L74.9993 29.4964L42.0664 42.1952Z" fill="url(#paint28_radial_1028_46690)"/>
<path id="Vector_89" d="M64.1551 19.2188L63.3398 20.7505L66.2551 27.2729L67.7128 27.7176L64.1551 19.2188Z" fill="#9E2C19"/>
<path id="Vector_90" d="M66.2534 27.2734L42.0664 41.3558V42.1958L67.7111 27.7181L66.2534 27.2734Z" fill="url(#paint29_linear_1028_46690)"/>
<path id="Vector_91" d="M55.5814 36.9823L74.9756 29.4964L64.1297 19.2188L67.6873 27.7176L55.1367 34.8082C55.3344 35.6235 55.4826 36.3646 55.5814 36.9823Z" fill="url(#paint30_linear_1028_46690)"/>
<path id="Vector_92" opacity="0.8" d="M29.0973 39.7247L16.9914 33.2764L13.0879 30.707L29.0973 39.7247Z" fill="#FFF5CC"/>
<path id="Vector_93" opacity="0.5" d="M13.3105 15.1914L18.6964 15.2161L16.5964 21.6149L18.2517 15.8832C18.227 15.562 18.1529 15.4385 17.7082 15.4138L13.3105 15.1914Z" fill="#FFE67B"/>
<path id="Vector_94" opacity="0.5" d="M11.3584 19.2188L9.08551 24.1599L7.80078 27.7176L11.3584 19.2188Z" fill="#FFE67B"/>
<path id="Vector_95" d="M65.3402 22.0352C65.0684 20.6764 65.3649 20.7752 66.032 21.3929L72.8508 27.4705L64.1543 19.2188L65.3402 22.0352Z" fill="#FFF5CC"/>
<path id="Vector_96" opacity="0.35" d="M53.7285 37.7019L72.6779 29.796C73.5179 29.4501 73.8144 28.8324 72.9003 27.7207L72.5791 27.2266L75.0003 29.4995L53.7285 37.7019Z" fill="#9E2C19"/>
<path id="Vector_97" opacity="0.35" d="M21.7835 37.7019L2.83408 29.796C1.99408 29.4501 1.6976 28.8324 2.61172 27.7207L2.93291 27.2266L0.511719 29.4995L21.7835 37.7019Z" fill="#9E2C19"/>
<path id="Vector_98" opacity="0.8" d="M53.0117 36.0199L62.4988 31.0787L67.7117 27.7188L53.0117 36.0199Z" fill="#FFF5CC"/>
<path id="Vector_99" d="M8.51562 7.78125C8.51562 7.78125 8.58974 8.57184 9.2815 9.53537C10.3191 8.94243 11.4803 8.34949 12.6909 7.80596L8.51562 7.78125Z" fill="url(#paint31_linear_1028_46690)"/>
</g>
</g>
<defs>
<radialGradient id="paint0_radial_1028_46690" cx="0" cy="0" r="1" gradientUnits="userSpaceOnUse" gradientTransform="translate(15.3806 2.84205) scale(5.99861 5.99861)">
<stop offset="0.0139665" stop-color="#E85621"/>
<stop offset="1" stop-color="#E33A0B"/>
</radialGradient>
<radialGradient id="paint1_radial_1028_46690" cx="0" cy="0" r="1" gradientUnits="userSpaceOnUse" gradientTransform="translate(14.8067 10.2458) scale(4.77545 4.77545)">
<stop offset="0.0139665" stop-color="#E85621"/>
<stop offset="1" stop-color="#E33A0B"/>
</radialGradient>
<radialGradient id="paint2_radial_1028_46690" cx="0" cy="0" r="1" gradientUnits="userSpaceOnUse" gradientTransform="translate(15.3536 17.6462) scale(2.93194 2.93194)">
<stop offset="0.0139665" stop-color="#E85621"/>
<stop offset="1" stop-color="#E33A0B"/>
</radialGradient>
<linearGradient id="paint3_linear_1028_46690" x1="33.6238" y1="-23.0433" x2="14.4602" y2="3.00257" gradientUnits="userSpaceOnUse">
<stop stop-color="#FFA369"/>
<stop offset="0.1319" stop-color="#FE9E66"/>
<stop offset="0.2926" stop-color="#FA8F5C"/>
<stop offset="0.4684" stop-color="#F3764C"/>
<stop offset="0.6548" stop-color="#EA5436"/>
<stop offset="0.8476" stop-color="#DF281A"/>
<stop offset="1" stop-color="#D40000"/>
</linearGradient>
<linearGradient id="paint4_linear_1028_46690" x1="9.3062" y1="24.766" x2="24.1782" y2="2.37882" gradientUnits="userSpaceOnUse">
<stop stop-color="#D40000"/>
<stop offset="1" stop-color="#FFAF47"/>
</linearGradient>
<radialGradient id="paint5_radial_1028_46690" cx="0" cy="0" r="1" gradientUnits="userSpaceOnUse" gradientTransform="translate(37.7549 19.2028) scale(19.4395 19.4395)">
<stop offset="0.0139665" stop-color="#E85621"/>
<stop offset="1" stop-color="#E33A0B"/>
</radialGradient>
<radialGradient id="paint6_radial_1028_46690" cx="0" cy="0" r="1" gradientUnits="userSpaceOnUse" gradientTransform="translate(40.6795 13.738) scale(15.3398 15.3398)">
<stop offset="0.0139665" stop-color="#E85621"/>
<stop offset="1" stop-color="#E33A0B"/>
</radialGradient>
<linearGradient id="paint7_linear_1028_46690" x1="56.0355" y1="-5.89048" x2="36.2193" y2="18.5535" gradientUnits="userSpaceOnUse">
<stop stop-color="#FFA369"/>
<stop offset="0.1319" stop-color="#FE9E66"/>
<stop offset="0.2926" stop-color="#FA8F5C"/>
<stop offset="0.4684" stop-color="#F3764C"/>
<stop offset="0.6548" stop-color="#EA5436"/>
<stop offset="0.8476" stop-color="#DF281A"/>
<stop offset="1" stop-color="#D40000"/>
</linearGradient>
<linearGradient id="paint8_linear_1028_46690" x1="24.4787" y1="33.7019" x2="41.8031" y2="11.9871" gradientUnits="userSpaceOnUse">
<stop stop-color="#D40000"/>
<stop offset="1" stop-color="#FFAF47"/>
</linearGradient>
<linearGradient id="paint9_linear_1028_46690" x1="37.755" y1="19.2704" x2="37.755" y2="25.8717" gradientUnits="userSpaceOnUse">
<stop offset="0.6285" stop-color="#F7814A"/>
<stop offset="1" stop-color="#F7E399"/>
</linearGradient>
<radialGradient id="paint10_radial_1028_46690" cx="0" cy="0" r="1" gradientUnits="userSpaceOnUse" gradientTransform="translate(60.1335 2.84205) scale(5.99862 5.99861)">
<stop offset="0.0139665" stop-color="#E85621"/>
<stop offset="1" stop-color="#E33A0B"/>
</radialGradient>
<radialGradient id="paint11_radial_1028_46690" cx="0" cy="0" r="1" gradientUnits="userSpaceOnUse" gradientTransform="translate(60.7071 10.2458) scale(4.77544 4.77545)">
<stop offset="0.0139665" stop-color="#E85621"/>
<stop offset="1" stop-color="#E33A0B"/>
</radialGradient>
<radialGradient id="paint12_radial_1028_46690" cx="0" cy="0" r="1" gradientUnits="userSpaceOnUse" gradientTransform="translate(60.1612 17.6462) scale(2.93194 2.93194)">
<stop offset="0.0139665" stop-color="#E85621"/>
<stop offset="1" stop-color="#E33A0B"/>
</radialGradient>
<linearGradient id="paint13_linear_1028_46690" x1="62.1854" y1="-2.02777" x2="43.0218" y2="24.0181" gradientUnits="userSpaceOnUse">
<stop stop-color="#FFA369"/>
<stop offset="0.1319" stop-color="#FE9E66"/>
<stop offset="0.2926" stop-color="#FA8F5C"/>
<stop offset="0.4684" stop-color="#F3764C"/>
<stop offset="0.6548" stop-color="#EA5436"/>
<stop offset="0.8476" stop-color="#DF281A"/>
<stop offset="1" stop-color="#D40000"/>
</linearGradient>
<linearGradient id="paint14_linear_1028_46690" x1="66.0894" y1="0.841732" x2="46.9258" y2="26.8875" gradientUnits="userSpaceOnUse">
<stop stop-color="#FFA369"/>
<stop offset="0.1319" stop-color="#FE9E66"/>
<stop offset="0.2926" stop-color="#FA8F5C"/>
<stop offset="0.4684" stop-color="#F3764C"/>
<stop offset="0.6548" stop-color="#EA5436"/>
<stop offset="0.8476" stop-color="#DF281A"/>
<stop offset="1" stop-color="#D40000"/>
</linearGradient>
<radialGradient id="paint15_radial_1028_46690" cx="0" cy="0" r="1" gradientUnits="userSpaceOnUse" gradientTransform="translate(52.034 28.6917) scale(13.5112 13.5112)">
<stop offset="0.0139665" stop-color="#E85621"/>
<stop offset="1" stop-color="#E33A0B"/>
</radialGradient>
<radialGradient id="paint16_radial_1028_46690" cx="0" cy="0" r="1" gradientUnits="userSpaceOnUse" gradientTransform="translate(23.4769 28.6917) scale(13.5112 13.5112)">
<stop offset="0.0139665" stop-color="#E85621"/>
<stop offset="1" stop-color="#E33A0B"/>
</radialGradient>
<linearGradient id="paint17_linear_1028_46690" x1="19.9848" y1="35.7881" x2="37.4799" y2="8.32394" gradientUnits="userSpaceOnUse">
<stop stop-color="#D40000"/>
<stop offset="1" stop-color="#FFAF47"/>
</linearGradient>
<linearGradient id="paint18_linear_1028_46690" x1="15.717" y1="31.7793" x2="36.9987" y2="31.7793" gradientUnits="userSpaceOnUse">
<stop offset="0.0921788" stop-color="#F7814A"/>
<stop offset="0.1308" stop-color="#F7874F"/>
<stop offset="0.3944" stop-color="#F7AF6F"/>
<stop offset="0.6359" stop-color="#F7CB86"/>
<stop offset="0.8457" stop-color="#F7DD94"/>
<stop offset="1" stop-color="#F7E399"/>
</linearGradient>
<linearGradient id="paint19_linear_1028_46690" x1="59.7932" y1="31.7917" x2="38.5115" y2="31.7917" gradientUnits="userSpaceOnUse">
<stop offset="0.0921788" stop-color="#F7814A"/>
<stop offset="0.1308" stop-color="#F7874F"/>
<stop offset="0.3944" stop-color="#F7AF6F"/>
<stop offset="0.6359" stop-color="#F7CB86"/>
<stop offset="0.8457" stop-color="#F7DD94"/>
<stop offset="1" stop-color="#F7E399"/>
</linearGradient>
<linearGradient id="paint20_linear_1028_46690" x1="72.3783" y1="8.86255" x2="51.9512" y2="31.3422" gradientUnits="userSpaceOnUse">
<stop stop-color="#FFA369"/>
<stop offset="0.1319" stop-color="#FE9E66"/>
<stop offset="0.2926" stop-color="#FA8F5C"/>
<stop offset="0.4684" stop-color="#F3764C"/>
<stop offset="0.6548" stop-color="#EA5436"/>
<stop offset="0.8476" stop-color="#DF281A"/>
<stop offset="1" stop-color="#D40000"/>
</linearGradient>
<linearGradient id="paint21_linear_1028_46690" x1="37.7677" y1="47.118" x2="55.2628" y2="19.6538" gradientUnits="userSpaceOnUse">
<stop stop-color="#D40000"/>
<stop offset="1" stop-color="#FFAF47"/>
</linearGradient>
<radialGradient id="paint22_radial_1028_46690" cx="0" cy="0" r="1" gradientUnits="userSpaceOnUse" gradientTransform="translate(37.7557 17.628) scale(11.3436 11.3436)">
<stop offset="0.0139665" stop-color="#E85621"/>
<stop offset="1" stop-color="#E33A0B"/>
</radialGradient>
<linearGradient id="paint23_linear_1028_46690" x1="48.5564" y1="-0.072136" x2="38.5872" y2="14.8817" gradientUnits="userSpaceOnUse">
<stop stop-color="#FFA369"/>
<stop offset="0.1319" stop-color="#FE9E66"/>
<stop offset="0.2926" stop-color="#FA8F5C"/>
<stop offset="0.4684" stop-color="#F3764C"/>
<stop offset="0.6548" stop-color="#EA5436"/>
<stop offset="0.8476" stop-color="#DF281A"/>
<stop offset="1" stop-color="#D40000"/>
</linearGradient>
<linearGradient id="paint24_linear_1028_46690" x1="22.5177" y1="34.2118" x2="45.1644" y2="7.66046" gradientUnits="userSpaceOnUse">
<stop stop-color="#D40000"/>
<stop offset="1" stop-color="#FFAF47"/>
</linearGradient>
<radialGradient id="paint25_radial_1028_46690" cx="0" cy="0" r="1" gradientUnits="userSpaceOnUse" gradientTransform="translate(49.3712 2.89908) scale(61.9773 61.9773)">
<stop offset="0.0139665" stop-color="#E85621"/>
<stop offset="1" stop-color="#E33A0B"/>
</radialGradient>
<linearGradient id="paint26_linear_1028_46690" x1="7.79317" y1="34.729" x2="33.4444" y2="34.729" gradientUnits="userSpaceOnUse">
<stop offset="0.0921788" stop-color="#F7814A"/>
<stop offset="0.1308" stop-color="#F7874F"/>
<stop offset="0.3944" stop-color="#F7AF6F"/>
<stop offset="0.6359" stop-color="#F7CB86"/>
<stop offset="0.8457" stop-color="#F7DD94"/>
<stop offset="1" stop-color="#F7E399"/>
</linearGradient>
<linearGradient id="paint27_linear_1028_46690" x1="12.5567" y1="39.046" x2="52.4336" y2="5.22874" gradientUnits="userSpaceOnUse">
<stop stop-color="#D40000"/>
<stop offset="1" stop-color="#FFAF47"/>
</linearGradient>
<radialGradient id="paint28_radial_1028_46690" cx="0" cy="0" r="1" gradientUnits="userSpaceOnUse" gradientTransform="translate(51.5122 1.37703) scale(51.4275 51.4275)">
<stop offset="0.0139665" stop-color="#E85621"/>
<stop offset="1" stop-color="#E33A0B"/>
</radialGradient>
<linearGradient id="paint29_linear_1028_46690" x1="67.7175" y1="34.729" x2="42.0663" y2="34.729" gradientUnits="userSpaceOnUse">
<stop offset="0.0921788" stop-color="#F7814A"/>
<stop offset="0.1308" stop-color="#F7874F"/>
<stop offset="0.3944" stop-color="#F7AF6F"/>
<stop offset="0.6359" stop-color="#F7CB86"/>
<stop offset="0.8457" stop-color="#F7DD94"/>
<stop offset="1" stop-color="#F7E399"/>
</linearGradient>
<linearGradient id="paint30_linear_1028_46690" x1="83.0405" y1="9.93586" x2="51.1781" y2="44.0462" gradientUnits="userSpaceOnUse">
<stop stop-color="#FFA369"/>
<stop offset="0.1319" stop-color="#FE9E66"/>
<stop offset="0.2926" stop-color="#FA8F5C"/>
<stop offset="0.4684" stop-color="#F3764C"/>
<stop offset="0.6548" stop-color="#EA5436"/>
<stop offset="0.8476" stop-color="#DF281A"/>
<stop offset="1" stop-color="#D40000"/>
</linearGradient>
<linearGradient id="paint31_linear_1028_46690" x1="33.4142" y1="-23.1978" x2="14.2505" y2="2.84811" gradientUnits="userSpaceOnUse">
<stop stop-color="#FFA369"/>
<stop offset="0.1319" stop-color="#FE9E66"/>
<stop offset="0.2926" stop-color="#FA8F5C"/>
<stop offset="0.4684" stop-color="#F3764C"/>
<stop offset="0.6548" stop-color="#EA5436"/>
<stop offset="0.8476" stop-color="#DF281A"/>
<stop offset="1" stop-color="#D40000"/>
</linearGradient>
</defs>
</svg>
