<svg width="62" height="38" viewBox="0 0 62 38" fill="none" xmlns="http://www.w3.org/2000/svg">
<g id="Group">
<g id="Group_2">
<path id="Vector" d="M31.1931 36.7376L50.019 23.0505L42.8296 0.914062H19.5566L12.3672 23.0505L31.1931 36.7376Z" fill="#54101A"/>
<path id="Vector_2" d="M43.5224 0H18.8906L11.2812 23.4212L31.1942 37.8988L51.1071 23.4212L43.5224 0ZM15.2095 22.1365L21.3118 3.36H41.0765L47.1789 22.1365L31.1942 33.7482L15.2095 22.1365Z" fill="url(#paint0_radial_1028_46396)"/>
<path id="Vector_3" opacity="0.3" d="M21.3105 3.33594L31.1929 33.7489L41.0753 3.33594H21.3105Z" fill="#8C1919"/>
<path id="Vector_4" d="M43.5207 0H18.8889L17.1348 5.41059C18.2218 5.46 19.3583 5.60823 20.5195 5.83059L21.3348 3.36H41.0995L47.2018 22.1365L44.8795 23.8165C45.3983 24.8294 45.8677 25.8671 46.263 26.9541L51.1301 23.4212L43.5207 0Z" fill="url(#paint1_radial_1028_46396)"/>
<path id="Vector_5" d="M43.5207 0H18.8889L17.1348 5.41059C18.2218 5.46 19.3583 5.60823 20.5195 5.83059L21.3348 3.36H41.0995L47.2018 22.1365L44.8795 23.8165C45.3983 24.8294 45.8677 25.8671 46.263 26.9541L51.1301 23.4212L43.5207 0Z" fill="url(#paint2_linear_1028_46396)"/>
<path id="Vector_6" d="M42.1636 29.9176C42.0401 28.6082 41.8424 27.3729 41.5954 26.187L31.2189 33.7223L15.2342 22.1105L19.6071 8.62109C18.3718 8.6458 17.1365 8.79404 15.9506 9.04109L11.2812 23.3952L31.1942 37.8729L42.1636 29.9176Z" fill="url(#paint3_linear_1028_46396)"/>
<path id="Vector_7" d="M15.209 22.1371L16.7902 21.7665L22.2996 4.843H40.0878L45.5972 21.7665L47.1784 22.1371L41.0761 3.33594H21.3114L15.209 22.1371Z" fill="#9B1B2E"/>
<path id="Vector_8" opacity="0.2" d="M16.7891 21.7673L19.8773 13.8614C21.7055 9.19198 26.202 7.1661 31.2173 7.1661C36.2573 7.1661 40.7785 9.21669 42.582 13.9355L45.5961 21.7673L40.0867 4.84375H22.2738L16.7891 21.7673Z" fill="#2753A0"/>
<path id="Vector_9" d="M15.209 22.1362L16.7902 21.7656L31.1937 32.2409L45.5972 21.7656L47.1784 22.1362L31.1937 33.748L15.209 22.1362Z" fill="url(#paint4_linear_1028_46396)"/>
<path id="Vector_10" opacity="0.6" d="M16.7891 21.7646L22.4467 7.26229C22.7185 6.57052 23.3855 6.10111 24.1514 6.10111H38.3573C39.1232 6.10111 39.7903 6.57052 40.062 7.26229L45.6208 21.7399L40.1114 4.81641H22.2985L16.7891 21.7646Z" fill="#2753A0"/>
<path id="Vector_11" d="M21.3105 3.33594L22.2988 4.843H40.087L41.0753 3.33594H21.3105Z" fill="#661625"/>
<path id="Vector_12" opacity="0.35" d="M13.9989 15.0195L12.0965 22.1595C11.9483 22.7772 12.2448 23.5925 12.7389 23.9631L31.1942 37.8725L11.2812 23.3948L13.9989 15.0195Z" fill="#9E2C19"/>
<path id="Vector_13" opacity="0.6" d="M16.7891 21.7656L30.5255 31.0303C30.8961 31.2774 31.4891 31.2774 31.8597 31.0303L45.5961 21.7656L31.1926 32.2409L16.7891 21.7656Z" fill="#2753A0"/>
<path id="Vector_14" opacity="0.35" d="M31.1934 37.8749L48.9322 24.1631C50.1675 23.249 50.4392 23.0514 49.871 21.2725L46.1651 8.20312L51.1063 23.3972L31.1934 37.8749Z" fill="#9E2C19"/>
<path id="Vector_15" d="M22.3984 27.3498L31.1937 33.7486L43.0772 25.1016L31.1937 34.2922L22.3984 27.3498Z" fill="#F3FEFF"/>
<path id="Vector_16" d="M30.5273 0H43.5227L46.1909 8.22706L43.0038 0.444705L30.5273 0Z" fill="#F3FEFF"/>
<path id="Vector_17" d="M35.6893 0C35.5905 1.06235 36.0352 2.27294 36.9493 3.36H41.0752L42.0881 6.49765C43.3728 6.81882 44.6082 6.81882 45.6211 6.54706L43.4964 0H35.6893Z" fill="white"/>
<path id="Vector_18" d="M21.3351 26.5586C21.0139 27.3492 21.5821 28.5598 22.7186 29.3751C23.8551 30.1904 25.1645 30.3633 25.8315 29.8198L21.3351 26.5586Z" fill="white"/>
<path id="Vector_19" d="M25.8571 32.0174C25.6594 32.3138 25.1406 32.3138 24.6712 31.9926C24.2018 31.6962 24.0041 31.2268 24.1771 30.9303C24.3747 30.6338 24.8936 30.6338 25.363 30.955C25.8324 31.2515 26.03 31.7209 25.8571 32.0174Z" fill="white"/>
<path id="Vector_20" d="M16.9381 0.147069L16.1722 6.37295C14.3934 6.37295 12.8863 6.34824 10.2181 6.34824C0.731046 6.34824 0.681641 0.0976562 0.681641 0.0976562L16.9381 0.147069Z" fill="#661625"/>
<path id="Vector_21" d="M16.9381 0.147069L15.3322 5.01413C13.5534 5.01413 13.2569 4.98942 10.564 4.98942C1.07693 4.98942 0.681641 0.0976562 0.681641 0.0976562L16.9381 0.147069Z" fill="url(#paint5_radial_1028_46396)"/>
<path id="Vector_22" d="M14.5421 7.56113L13.8009 13.787C12.0221 13.787 14.1962 13.787 11.5033 13.787C2.0162 13.787 1.9668 7.51172 1.9668 7.51172L14.5421 7.56113Z" fill="#661625"/>
<path id="Vector_23" d="M14.5421 7.55986L12.9609 12.4516C11.1821 12.4516 14.5421 12.4269 11.8738 12.4269C2.38679 12.4269 1.9668 7.53516 1.9668 7.53516L14.5421 7.55986Z" fill="url(#paint6_radial_1028_46396)"/>
<path id="Vector_24" d="M12.1445 14.9466L5.44922 14.9219C5.44922 14.9219 6.48687 19.616 11.3786 21.1972L12.1445 14.9466Z" fill="#661625"/>
<path id="Vector_25" d="M12.1445 14.9466L5.44922 14.9219C5.44922 14.9219 5.64689 18.2572 10.5387 19.8383L12.1445 14.9466Z" fill="url(#paint7_radial_1028_46396)"/>
<path id="Vector_26" d="M16.9379 0.148438L17.7532 1.70491L16.1967 6.39902L15.332 5.0155L16.9379 0.148438Z" fill="#9B1B2E"/>
<path id="Vector_27" d="M14.5421 7.55859L15.3327 9.09036L13.8009 13.7845L12.9609 12.4257L14.5421 7.55859Z" fill="#9B1B2E"/>
<path id="Vector_28" d="M12.1449 14.9453L12.9355 16.4771L11.4038 21.1959L10.5391 19.8371L12.1449 14.9453Z" fill="#9B1B2E"/>
<path id="Vector_29" d="M45.4492 0.147069L46.2151 6.37295C47.9939 6.37295 49.501 6.34824 52.1692 6.34824C61.6563 6.34824 61.7057 0.0976562 61.7057 0.0976562L45.4492 0.147069Z" fill="#661625"/>
<path id="Vector_30" d="M45.4492 0.147069L47.0551 5.01413C48.8339 5.01413 49.1304 4.98942 51.8233 4.98942C61.3104 4.98942 61.7057 0.0976562 61.7057 0.0976562L45.4492 0.147069Z" fill="url(#paint8_radial_1028_46396)"/>
<path id="Vector_31" d="M47.8691 7.56113L48.6103 13.787C50.3891 13.787 48.215 13.787 50.9079 13.787C60.395 13.787 60.4444 7.51172 60.4444 7.51172L47.8691 7.56113Z" fill="#661625"/>
<path id="Vector_32" d="M47.8691 7.55986L49.4503 12.4516C51.2291 12.4516 47.8691 12.4269 50.5374 12.4269C60.0244 12.4269 60.4444 7.53516 60.4444 7.53516L47.8691 7.55986Z" fill="url(#paint9_radial_1028_46396)"/>
<path id="Vector_33" d="M50.2656 14.9466L56.9609 14.9219C56.9609 14.9219 55.9233 19.616 51.0315 21.1972L50.2656 14.9466Z" fill="#661625"/>
<path id="Vector_34" d="M50.2656 14.9466L56.9609 14.9219C56.9609 14.9219 56.7633 18.2572 51.8715 19.8383L50.2656 14.9466Z" fill="url(#paint10_radial_1028_46396)"/>
<path id="Vector_35" d="M45.4492 0.147069L47.0551 5.01413C48.8339 5.01413 49.1304 4.98942 51.8233 4.98942C61.3104 4.98942 61.7057 0.0976562 61.7057 0.0976562L45.4492 0.147069Z" fill="url(#paint11_linear_1028_46396)"/>
<path id="Vector_36" d="M47.8691 7.55986L49.4503 12.4516C51.2291 12.4516 47.8691 12.4269 50.5374 12.4269C60.0244 12.4269 60.4444 7.53516 60.4444 7.53516L47.8691 7.55986Z" fill="url(#paint12_linear_1028_46396)"/>
<path id="Vector_37" d="M50.2656 14.9466L56.9609 14.9219C56.9609 14.9219 56.7633 18.2572 51.8715 19.8383L50.2656 14.9466Z" fill="url(#paint13_linear_1028_46396)"/>
<path id="Vector_38" d="M45.4488 0.148438L44.6582 1.70491L46.2147 6.39902L47.0547 5.0155L45.4488 0.148438Z" fill="#9B1B2E"/>
<path id="Vector_39" d="M47.87 7.55859L47.0547 9.09036L48.6112 13.7845L49.4512 12.4257L47.87 7.55859Z" fill="#9B1B2E"/>
<path id="Vector_40" d="M50.2664 14.9453L49.4512 16.4771L51.0076 21.1959L51.8476 19.8371L50.2664 14.9453Z" fill="#9B1B2E"/>
<path id="Vector_41" d="M16.9381 0.149706L0.681641 0.125C0.681641 0.125 1.07693 5.01676 10.564 5.01676C13.2322 5.01676 13.5287 5.01676 15.3322 5.04147L16.9381 0.149706Z" fill="url(#paint14_linear_1028_46396)"/>
<path id="Vector_42" d="M12.1445 14.9466L5.44922 14.9219C5.44922 14.9219 5.64689 18.2572 10.5387 19.8383L12.1445 14.9466Z" fill="url(#paint15_linear_1028_46396)"/>
<path id="Vector_43" d="M12.961 12.4284L13.8999 9.5625C12.6399 9.9825 11.4293 10.526 10.3175 11.1931C9.8481 11.4649 9.32927 11.8107 8.73633 12.206C9.65045 12.3296 10.6881 12.4037 11.874 12.4037C14.5422 12.4284 11.1822 12.4284 12.961 12.4284Z" fill="url(#paint16_linear_1028_46396)"/>
<path id="Vector_44" opacity="0.35" d="M14.4434 13.6376L18.594 1.7047C19.014 0.494116 19.3351 0.172941 20.6198 0.123529L31.1693 0H18.8657L14.4434 13.6376Z" fill="#9E2C19"/>
<path id="Vector_45" d="M34.9244 1.85132C34.0597 1.23368 33.0221 1.18426 32.6021 1.7525C32.3056 2.1725 32.4044 2.79015 32.7997 3.33368H35.888C35.8385 2.83956 35.4927 2.27132 34.9244 1.85132Z" fill="white"/>
<g id="Group_3">
<path id="Vector_46" opacity="0.6" d="M36.258 19.4411L38.8027 15.0434V13.6846L33.7133 15.0434L31.1686 10.6211L28.6239 15.0434L23.5098 13.6846V15.0434L26.0792 19.4411L23.5098 22.5046V23.8634H28.6239L31.1686 28.2611L33.7133 23.8634H38.8027V22.5046L36.258 19.4411Z" fill="#2753A0"/>
<path id="Vector_47" d="M36.258 18.0817L38.8027 13.6841V12.0288L33.7133 13.6841L31.1686 9.26172L28.6239 13.6841L23.5098 12.0288V13.6841L26.0792 18.0817L23.5098 20.8488V22.5041H28.6239L31.1686 26.9264L33.7133 22.5041H38.8027V20.8488L36.258 18.0817Z" fill="#9B1B2E"/>
<path id="Vector_48" d="M36.258 16.4528L38.8027 12.0305H33.7133L31.1686 7.63281L28.6239 12.0305H23.5098L26.0792 16.4528L23.5098 20.8505H28.6239L31.1686 25.2728L33.7133 20.8505H38.8027L36.258 16.4528Z" fill="url(#paint17_radial_1028_46396)"/>
<path id="Vector_49" d="M38.8023 20.8516H33.7129V22.5069H38.8023V20.8516Z" fill="#661625"/>
<path id="Vector_50" d="M28.6239 22.5069L31.1686 26.9292V25.2739L28.6239 20.8516H23.5098V22.5069H28.6239Z" fill="#661625"/>
<path id="Vector_51" d="M29.4144 10.6211L28.5992 12.0293H23.5098L26.0545 16.4517L23.5098 20.874H28.5992L31.1439 25.2964L33.6886 20.874H38.778L36.2333 16.4517L36.5298 15.9576C34.5039 13.6105 32.058 11.8564 29.4144 10.6211Z" fill="url(#paint18_linear_1028_46396)"/>
<path id="Vector_52" d="M23.5098 12.0312L26.0792 16.4536L25.585 17.2689L23.5098 13.6865V12.0312Z" fill="#661625"/>
<path id="Vector_53" opacity="0.35" d="M23.5098 12.0312L26.4992 15.8113C26.8451 16.2807 26.9439 16.4289 26.4992 17.0465L23.5098 20.8265L26.0545 16.4042L23.5098 12.0312Z" fill="#9E2C19"/>
<path id="Vector_54" opacity="0.8" d="M31.168 7.63281L33.6138 12.4752L38.8021 12.0305H33.7127L31.168 7.63281Z" fill="#F3FAFF"/>
<path id="Vector_55" opacity="0.5" d="M23.5098 20.8522L29.0933 20.3828L31.1686 25.2746L28.6239 20.8522H23.5098Z" fill="#F3FAFF"/>
<path id="Vector_56" opacity="0.35" d="M31.168 25.2733L33.1444 20.4062C33.3668 19.9368 33.6385 19.8874 33.9844 19.9615L38.8021 20.8757H33.7127L31.168 25.2733Z" fill="#9E2C19"/>
<path id="Vector_57" d="M37.4936 14.2795L38.7783 12.0312H34.7266C35.6901 12.7477 36.6289 13.4889 37.4936 14.2795Z" fill="url(#paint19_linear_1028_46396)"/>
<path id="Vector_58" d="M33.021 10.8446L31.168 7.63281L30.2539 9.21399C31.1927 9.70811 32.1069 10.2516 33.021 10.8446Z" fill="url(#paint20_linear_1028_46396)"/>
<path id="Vector_59" opacity="0.5" d="M33.0219 16.281C32.6266 16.9728 31.4654 17.0222 30.4031 16.4292C29.3654 15.8363 28.8219 14.7739 29.2172 14.0822C29.6125 13.3904 30.7737 13.341 31.836 13.9339C32.8984 14.5269 33.4172 15.5892 33.0219 16.281Z" fill="#FCE265"/>
<path id="Vector_60" opacity="0.5" d="M29.2163 16.6761C29.0928 16.8985 28.6728 16.8985 28.2775 16.6761C27.8822 16.4537 27.6845 16.0832 27.808 15.8855C27.9316 15.6632 28.3516 15.6632 28.7469 15.8855C29.1422 16.1079 29.3645 16.4785 29.2163 16.6761Z" fill="#FCE265"/>
</g>
<path id="Vector_61" opacity="0.35" fill-rule="evenodd" clip-rule="evenodd" d="M49.1304 4.64491C48.0433 4.54608 47.3022 4.15079 46.808 3.18726L45.4492 0.148438L47.0551 5.0155C48.8339 5.0155 49.1304 4.99079 51.8233 4.99079C53.3304 4.99079 54.6151 4.86726 55.7022 4.66961C53.3304 4.96608 50.9339 4.84255 49.1304 4.64491Z" fill="#9E2C19"/>
<path id="Vector_62" opacity="0.35" fill-rule="evenodd" clip-rule="evenodd" d="M50.5386 12.4257C52.8363 12.4257 54.5904 12.1539 55.9492 11.7092C53.9974 12.2527 52.3669 12.2033 51.1069 12.1292C50.2422 12.0798 49.5504 11.4374 49.1798 10.6715L47.8457 7.55859L49.4269 12.4504C51.2304 12.4257 47.8704 12.4257 50.5386 12.4257Z" fill="#9E2C19"/>
<path id="Vector_63" opacity="0.35" fill-rule="evenodd" clip-rule="evenodd" d="M51.8468 19.8397C52.9092 19.4938 53.7492 19.0738 54.4162 18.6291C53.6256 18.9256 52.1433 19.148 52.1433 19.148L50.2656 14.9727L51.8468 19.8397Z" fill="#9E2C19"/>
<path id="Vector_64" opacity="0.35" d="M10.5894 5.01559C13.2576 5.01559 13.5541 5.01559 15.3576 5.04029L16.6176 1.18618L15.6788 3.28618C15.2341 4.39794 14.9623 4.76853 13.8505 4.76853C12.6647 4.76853 10.4164 4.74382 9.25526 4.71912C4.26467 4.52147 1.34938 2.37206 0.707031 0.148531C0.707031 0.123825 1.10232 5.01559 10.5894 5.01559Z" fill="#9E2C19"/>
<path id="Vector_65" opacity="0.35" d="M13.1587 10.9952C12.8622 11.6375 12.541 12.1564 11.8246 12.1317C11.1081 12.107 9.05749 12.0823 7.92102 11.8352C5.22808 11.2175 3.62222 10.2293 2.53516 8.99402C3.44927 10.427 5.82102 12.4281 11.874 12.4281C14.5422 12.4281 11.1822 12.4281 12.961 12.4528L14.2705 8.42578L13.1587 10.9952Z" fill="#9E2C19"/>
<path id="Vector_66" opacity="0.35" d="M10.5387 19.8372L11.9222 15.5878C11.6504 16.1313 11.1563 17.3913 10.6128 18.5525C10.2669 19.3431 9.92099 19.2443 9.37746 19.0219C6.65981 17.8854 6.01745 16.5266 5.44922 14.9454C5.44922 14.9207 5.6716 18.256 10.5387 19.8372Z" fill="#9E2C19"/>
<path id="Vector_67" d="M45.4492 0.147069L60.2974 0.394128C60.8904 0.394128 61.1622 0.86354 60.9151 1.38236C60.6433 1.9506 60.2233 2.61766 59.5069 3.18589C61.5575 1.80236 61.7057 0.0976562 61.7057 0.0976562L45.4492 0.147069Z" fill="#F3FEFF"/>
<path id="Vector_68" d="M47.8691 7.56113L58.8386 7.80819C60.1233 7.8329 59.9009 8.37643 59.5797 9.04348C59.3821 9.46348 59.0856 9.90819 58.715 10.2788C60.3456 8.96937 60.4691 7.51172 60.4691 7.51172L47.8691 7.56113Z" fill="#F3FEFF"/>
<path id="Vector_69" d="M55.7997 17.3678C56.8868 16.0831 56.9362 14.9219 56.9362 14.9219L50.2656 14.9466L55.775 15.1689C56.5903 15.2183 56.4421 15.5148 56.3433 15.9101C56.2444 16.4042 56.0715 16.9231 55.7997 17.3678Z" fill="#F3FEFF"/>
<path id="Vector_70" opacity="0.5" d="M5.0293 0.125L16.9622 0.149706L16.5669 1.36029C16.5669 0.742647 16.2705 0.42147 15.554 0.42147L5.0293 0.125Z" fill="#F3FAFF"/>
<path id="Vector_71" opacity="0.5" d="M5.0293 7.55859H14.5411L14.0963 8.91742L14.1458 8.47271C14.1705 8.05271 14.0223 7.83036 13.2564 7.78095L5.0293 7.55859Z" fill="#F3FAFF"/>
<path id="Vector_72" opacity="0.5" d="M6.73438 14.9219L12.1202 14.9466L11.7003 16.2066L11.6756 15.6136C11.6508 15.2925 11.5767 15.1689 11.132 15.1442L6.73438 14.9219Z" fill="#F3FAFF"/>
<path id="Vector_73" d="M47.0551 5.01676C48.2163 5.01676 48.7351 5.01676 49.6739 4.99206C51.3539 3.92971 52.4657 2.37323 52.6386 0.544999C52.6386 0.396764 52.6634 0.273235 52.6634 0.125L45.4492 0.149706L47.0551 5.01676Z" fill="white"/>
</g>
<path id="Vector_74" d="M1.96484 7.53516C1.96484 7.53516 2.03896 8.32574 2.73072 9.28927C3.76837 8.69633 4.92956 8.10339 6.14014 7.55986L1.96484 7.53516Z" fill="url(#paint21_linear_1028_46396)"/>
</g>
<defs>
<radialGradient id="paint0_radial_1028_46396" cx="0" cy="0" r="1" gradientUnits="userSpaceOnUse" gradientTransform="translate(41.8428 1.25565) scale(31.6024 31.6024)">
<stop offset="0.0139665" stop-color="#E85621"/>
<stop offset="1" stop-color="#E33A0B"/>
</radialGradient>
<radialGradient id="paint1_radial_1028_46396" cx="0" cy="0" r="1" gradientUnits="userSpaceOnUse" gradientTransform="translate(47.5906 -3.04661) scale(43.7201 43.7201)">
<stop offset="0.0139665" stop-color="#E85621"/>
<stop offset="1" stop-color="#E33A0B"/>
</radialGradient>
<linearGradient id="paint2_linear_1028_46396" x1="49.4772" y1="-6.15717" x2="29.661" y2="18.2868" gradientUnits="userSpaceOnUse">
<stop stop-color="#FFA369"/>
<stop offset="0.1319" stop-color="#FE9E66"/>
<stop offset="0.2926" stop-color="#FA8F5C"/>
<stop offset="0.4684" stop-color="#F3764C"/>
<stop offset="0.6548" stop-color="#EA5436"/>
<stop offset="0.8476" stop-color="#DF281A"/>
<stop offset="1" stop-color="#D40000"/>
</linearGradient>
<linearGradient id="paint3_linear_1028_46396" x1="17.9224" y1="33.4326" x2="35.2467" y2="11.7178" gradientUnits="userSpaceOnUse">
<stop stop-color="#D40000"/>
<stop offset="1" stop-color="#FFAF47"/>
</linearGradient>
<linearGradient id="paint4_linear_1028_46396" x1="31.1979" y1="19.005" x2="31.1979" y2="25.6063" gradientUnits="userSpaceOnUse">
<stop offset="0.6285" stop-color="#F7814A"/>
<stop offset="1" stop-color="#F7E399"/>
</linearGradient>
<radialGradient id="paint5_radial_1028_46396" cx="0" cy="0" r="1" gradientUnits="userSpaceOnUse" gradientTransform="translate(22.3835 -4.95541) scale(35.0737 35.0738)">
<stop offset="0.0139665" stop-color="#E85621"/>
<stop offset="1" stop-color="#E33A0B"/>
</radialGradient>
<radialGradient id="paint6_radial_1028_46396" cx="0" cy="0" r="1" gradientUnits="userSpaceOnUse" gradientTransform="translate(22.384 -4.9544) scale(35.0738 35.0738)">
<stop offset="0.0139665" stop-color="#E85621"/>
<stop offset="1" stop-color="#E33A0B"/>
</radialGradient>
<radialGradient id="paint7_radial_1028_46396" cx="0" cy="0" r="1" gradientUnits="userSpaceOnUse" gradientTransform="translate(22.3829 -4.95476) scale(35.074 35.0738)">
<stop offset="0.0139665" stop-color="#E85621"/>
<stop offset="1" stop-color="#E33A0B"/>
</radialGradient>
<radialGradient id="paint8_radial_1028_46396" cx="0" cy="0" r="1" gradientUnits="userSpaceOnUse" gradientTransform="translate(43.6637 0.740257) scale(36.2473 36.2472)">
<stop offset="0.0139665" stop-color="#E85621"/>
<stop offset="1" stop-color="#E33A0B"/>
</radialGradient>
<radialGradient id="paint9_radial_1028_46396" cx="0" cy="0" r="1" gradientUnits="userSpaceOnUse" gradientTransform="translate(43.6625 0.741313) scale(36.2472 36.2472)">
<stop offset="0.0139665" stop-color="#E85621"/>
<stop offset="1" stop-color="#E33A0B"/>
</radialGradient>
<radialGradient id="paint10_radial_1028_46396" cx="0" cy="0" r="1" gradientUnits="userSpaceOnUse" gradientTransform="translate(43.6625 0.740941) scale(36.2472 36.2473)">
<stop offset="0.0139665" stop-color="#E85621"/>
<stop offset="1" stop-color="#E33A0B"/>
</radialGradient>
<linearGradient id="paint11_linear_1028_46396" x1="55.6284" y1="-2.29711" x2="36.4648" y2="23.7488" gradientUnits="userSpaceOnUse">
<stop stop-color="#FFA369"/>
<stop offset="0.1319" stop-color="#FE9E66"/>
<stop offset="0.2926" stop-color="#FA8F5C"/>
<stop offset="0.4684" stop-color="#F3764C"/>
<stop offset="0.6548" stop-color="#EA5436"/>
<stop offset="0.8476" stop-color="#DF281A"/>
<stop offset="1" stop-color="#D40000"/>
</linearGradient>
<linearGradient id="paint12_linear_1028_46396" x1="59.5311" y1="0.576302" x2="40.3675" y2="26.6222" gradientUnits="userSpaceOnUse">
<stop stop-color="#FFA369"/>
<stop offset="0.1319" stop-color="#FE9E66"/>
<stop offset="0.2926" stop-color="#FA8F5C"/>
<stop offset="0.4684" stop-color="#F3764C"/>
<stop offset="0.6548" stop-color="#EA5436"/>
<stop offset="0.8476" stop-color="#DF281A"/>
<stop offset="1" stop-color="#D40000"/>
</linearGradient>
<linearGradient id="paint13_linear_1028_46396" x1="62.7597" y1="2.9515" x2="43.5961" y2="28.9973" gradientUnits="userSpaceOnUse">
<stop stop-color="#FFA369"/>
<stop offset="0.1319" stop-color="#FE9E66"/>
<stop offset="0.2926" stop-color="#FA8F5C"/>
<stop offset="0.4684" stop-color="#F3764C"/>
<stop offset="0.6548" stop-color="#EA5436"/>
<stop offset="0.8476" stop-color="#DF281A"/>
<stop offset="1" stop-color="#D40000"/>
</linearGradient>
<linearGradient id="paint14_linear_1028_46396" x1="27.0668" y1="-23.3087" x2="7.90317" y2="2.73717" gradientUnits="userSpaceOnUse">
<stop stop-color="#FFA369"/>
<stop offset="0.1319" stop-color="#FE9E66"/>
<stop offset="0.2926" stop-color="#FA8F5C"/>
<stop offset="0.4684" stop-color="#F3764C"/>
<stop offset="0.6548" stop-color="#EA5436"/>
<stop offset="0.8476" stop-color="#DF281A"/>
<stop offset="1" stop-color="#D40000"/>
</linearGradient>
<linearGradient id="paint15_linear_1028_46396" x1="3.11223" y1="24.7403" x2="17.9842" y2="2.35313" gradientUnits="userSpaceOnUse">
<stop stop-color="#D40000"/>
<stop offset="1" stop-color="#FFAF47"/>
</linearGradient>
<linearGradient id="paint16_linear_1028_46396" x1="2.74981" y1="24.5006" x2="17.6219" y2="2.11339" gradientUnits="userSpaceOnUse">
<stop stop-color="#D40000"/>
<stop offset="1" stop-color="#FFAF47"/>
</linearGradient>
<radialGradient id="paint17_radial_1028_46396" cx="0" cy="0" r="1" gradientUnits="userSpaceOnUse" gradientTransform="translate(44.5926 0.66101) scale(36.0757 36.0758)">
<stop offset="0.0139665" stop-color="#E85621"/>
<stop offset="1" stop-color="#E33A0B"/>
</radialGradient>
<linearGradient id="paint18_linear_1028_46396" x1="23.2021" y1="28.4459" x2="37.7972" y2="6.4345" gradientUnits="userSpaceOnUse">
<stop stop-color="#D40000"/>
<stop offset="1" stop-color="#FFAF47"/>
</linearGradient>
<linearGradient id="paint19_linear_1028_46396" x1="47.1591" y1="-3.3607" x2="29.7158" y2="22.7448" gradientUnits="userSpaceOnUse">
<stop stop-color="#FFA369"/>
<stop offset="0.1319" stop-color="#FE9E66"/>
<stop offset="0.2926" stop-color="#FA8F5C"/>
<stop offset="0.4684" stop-color="#F3764C"/>
<stop offset="0.6548" stop-color="#EA5436"/>
<stop offset="0.8476" stop-color="#DF281A"/>
<stop offset="1" stop-color="#D40000"/>
</linearGradient>
<linearGradient id="paint20_linear_1028_46396" x1="42.5593" y1="-6.43408" x2="25.1165" y2="19.6711" gradientUnits="userSpaceOnUse">
<stop stop-color="#FFA369"/>
<stop offset="0.1319" stop-color="#FE9E66"/>
<stop offset="0.2926" stop-color="#FA8F5C"/>
<stop offset="0.4684" stop-color="#F3764C"/>
<stop offset="0.6548" stop-color="#EA5436"/>
<stop offset="0.8476" stop-color="#DF281A"/>
<stop offset="1" stop-color="#D40000"/>
</linearGradient>
<linearGradient id="paint21_linear_1028_46396" x1="26.8557" y1="-23.4643" x2="7.69221" y2="2.58146" gradientUnits="userSpaceOnUse">
<stop stop-color="#FFA369"/>
<stop offset="0.1319" stop-color="#FE9E66"/>
<stop offset="0.2926" stop-color="#FA8F5C"/>
<stop offset="0.4684" stop-color="#F3764C"/>
<stop offset="0.6548" stop-color="#EA5436"/>
<stop offset="0.8476" stop-color="#DF281A"/>
<stop offset="1" stop-color="#D40000"/>
</linearGradient>
</defs>
</svg>
