<svg width="62" height="43" viewBox="0 0 62 43" fill="none" xmlns="http://www.w3.org/2000/svg">
<g id="Group">
<g id="Group_2">
<path id="Vector" d="M16.9381 0.416602L16.1722 6.64248C14.3934 6.64248 12.8863 6.61777 10.2181 6.61777C0.731046 6.61777 0.681641 0.367188 0.681641 0.367188L16.9381 0.416602Z" fill="#681D15"/>
<path id="Vector_2" d="M16.9381 0.416602L15.3322 5.28366C13.5534 5.28366 13.2569 5.25895 10.564 5.25895C1.07693 5.25895 0.681641 0.367188 0.681641 0.367188L16.9381 0.416602Z" fill="url(#paint0_radial_1028_46794)"/>
<path id="Vector_3" d="M14.5421 7.82676L13.8009 14.0526C12.0221 14.0526 14.1962 14.0526 11.5033 14.0526C2.0162 14.0526 1.9668 7.77734 1.9668 7.77734L14.5421 7.82676Z" fill="#681D15"/>
<path id="Vector_4" d="M14.5421 7.82549L12.9609 12.7173C11.1821 12.7173 14.5421 12.6925 11.8738 12.6925C2.38679 12.6925 1.9668 7.80078 1.9668 7.80078L14.5421 7.82549Z" fill="url(#paint1_radial_1028_46794)"/>
<path id="Vector_5" d="M12.1445 15.2122L5.44922 15.1875C5.44922 15.1875 6.48687 19.8816 11.3786 21.4628L12.1445 15.2122Z" fill="#681D15"/>
<path id="Vector_6" d="M12.1445 15.2122L5.44922 15.1875C5.44922 15.1875 5.64689 18.5228 10.5387 20.104L12.1445 15.2122Z" fill="url(#paint2_radial_1028_46794)"/>
<path id="Vector_7" d="M14.5421 7.82812L15.3327 9.35989L13.8009 14.054L12.9609 12.6952L14.5421 7.82812Z" fill="#9E2C19"/>
<path id="Vector_8" d="M12.1457 15.2148L12.9363 16.7466L10.6139 23.8125L9.15625 24.2572L12.1457 15.2148Z" fill="#9E2C19"/>
<path id="Vector_9" d="M16.9381 0.415332L0.681641 0.390625C0.681641 0.390625 1.07693 5.28239 10.564 5.28239C13.2322 5.28239 13.5287 5.28239 15.3322 5.30709L16.9381 0.415332Z" fill="url(#paint3_linear_1028_46794)"/>
<path id="Vector_10" d="M12.961 12.694L13.8999 9.82812C12.6399 10.2481 11.4293 10.7917 10.3175 11.4587C9.8481 11.7305 9.32927 12.0764 8.73633 12.4717C9.65045 12.5952 10.6881 12.6693 11.874 12.6693C14.5422 12.6693 11.1822 12.694 12.961 12.694Z" fill="url(#paint4_linear_1028_46794)"/>
<path id="Vector_11" opacity="0.35" d="M10.5894 5.28121C13.2576 5.28121 13.5541 5.28121 15.3576 5.30592L16.6176 1.4518L15.6788 3.5518C15.2341 4.66356 14.9623 5.03415 13.8505 5.03415C12.6647 5.03415 10.4164 5.00945 9.25526 4.98474C4.26467 4.7871 1.34938 2.63769 0.707031 0.414156C0.707031 0.38945 1.10232 5.28121 10.5894 5.28121Z" fill="#9E2C19"/>
<path id="Vector_12" opacity="0.35" d="M13.1587 11.2608C12.8622 11.9032 12.541 12.422 11.8246 12.3973C11.1081 12.3726 9.05749 12.3479 7.92102 12.1008C5.22808 11.4832 3.62222 10.4949 2.53516 9.25964C3.44927 10.6926 5.82102 12.6938 11.874 12.6938C14.5422 12.6938 11.1822 12.6938 12.961 12.7185L14.2705 8.69141L13.1587 11.2608Z" fill="#9E2C19"/>
<path id="Vector_13" opacity="0.35" d="M10.5387 20.1067L11.9222 15.8573C11.6504 16.4009 11.1563 17.6609 10.6128 18.822C10.2669 19.6126 9.92099 19.5138 9.37746 19.2915C6.65981 18.155 6.01745 16.7962 5.44922 15.215C5.44922 15.1903 5.6716 18.5256 10.5387 20.1067Z" fill="#9E2C19"/>
<path id="Vector_14" opacity="0.5" d="M5.0293 0.390625L16.9622 0.415332L16.5669 1.62592C16.5669 1.00827 16.2705 0.687091 15.554 0.687091L5.0293 0.390625Z" fill="#FFE67B"/>
<path id="Vector_15" opacity="0.5" d="M5.0293 7.82812H14.5411L14.0963 9.18695L14.1458 8.74224C14.1705 8.32224 14.0223 8.09989 13.2564 8.05048L5.0293 7.82812Z" fill="#FFE67B"/>
<path id="Vector_16" d="M31.1931 37.0032L50.019 23.3162L42.8296 1.17969H19.5566L12.3672 23.3162L31.1931 37.0032Z" fill="#54101A"/>
<path id="Vector_17" opacity="0.3" d="M21.3359 3.60156L31.2183 33.9898L41.0759 3.60156H21.3359Z" fill="#8C1919"/>
<path id="Vector_18" d="M43.5224 0.242188H18.8906L11.2812 23.6634L31.1942 38.141L51.1071 23.6634L43.5224 0.242188ZM15.2095 22.4034L21.3118 3.6269H41.0765L47.1789 22.4034L31.1942 34.0151L15.2095 22.4034Z" fill="url(#paint5_radial_1028_46794)"/>
<path id="Vector_19" d="M43.5207 0.242188H18.8889L17.1348 5.67748C18.2218 5.72689 19.3583 5.87513 20.5195 6.09748L21.3348 3.6269H41.0995L47.2018 22.4034L44.8795 24.0834C45.3983 25.0963 45.8677 26.134 46.263 27.221L51.1301 23.6881L43.5207 0.242188Z" fill="url(#paint6_radial_1028_46794)"/>
<path id="Vector_20" d="M43.5207 0.242188H18.8889L17.1348 5.67748C18.2218 5.72689 19.3583 5.87513 20.5195 6.09748L21.3348 3.6269H41.0995L47.2018 22.4034L44.8795 24.0834C45.3983 25.0963 45.8677 26.134 46.263 27.221L51.1301 23.6881L43.5207 0.242188Z" fill="url(#paint7_linear_1028_46794)"/>
<path id="Vector_21" d="M42.1636 30.1871C42.0401 28.8777 41.8424 27.6424 41.5954 26.4565L31.2189 33.9918L15.2342 22.38L19.6071 8.89062C18.3718 8.91533 17.1365 9.06357 15.9506 9.31063L11.2812 23.6647L31.1942 38.1424L42.1636 30.1871Z" fill="url(#paint8_linear_1028_46794)"/>
<path id="Vector_22" d="M15.209 22.4027L16.7902 22.0322L22.2996 5.10862H40.0878L45.5972 22.0322L47.1784 22.4027L41.0761 3.60156H21.3114L15.209 22.4027Z" fill="#9E2C19"/>
<path id="Vector_23" opacity="0.2" d="M16.7891 22.0329L19.8773 14.127C21.7055 9.45761 26.202 7.43173 31.2173 7.43173C36.2573 7.43173 40.7785 9.48231 42.582 14.2011L45.5961 22.0329L40.0867 5.10938H22.2738L16.7891 22.0329Z" fill="#892334"/>
<path id="Vector_24" d="M15.209 22.4018L16.7902 22.0312L31.1937 32.5065L45.5972 22.0312L47.1784 22.4018L31.1937 33.9889L15.209 22.4018Z" fill="url(#paint9_linear_1028_46794)"/>
<path id="Vector_25" opacity="0.6" d="M16.7891 22.0342L22.4467 7.53182C22.7185 6.84005 23.3855 6.37064 24.1514 6.37064H38.3573C39.1232 6.37064 39.7903 6.84005 40.062 7.53182L45.6208 22.0095L40.1114 5.08594H22.2985L16.7891 22.0342Z" fill="#892334"/>
<path id="Vector_26" d="M21.3105 3.60156L22.2988 5.10862H40.087L41.0753 3.60156H21.3105Z" fill="#681D15"/>
<path id="Vector_27" opacity="0.35" d="M13.9989 15.2617L12.0965 22.4017C11.9483 23.0194 12.2448 23.8347 12.7389 24.2053L31.1942 38.1147L11.2812 23.637L13.9989 15.2617Z" fill="#9E2C19"/>
<path id="Vector_28" opacity="0.6" d="M16.7891 22.0312L30.5255 31.296C30.8961 31.543 31.4891 31.543 31.8597 31.296L45.5961 22.0312L31.1926 32.5065L16.7891 22.0312Z" fill="#892334"/>
<path id="Vector_29" opacity="0.35" d="M31.1934 38.1405L48.9322 24.4288C50.1675 23.5146 50.4392 23.317 49.871 21.5382L46.1651 8.46875L51.1063 23.6629L31.1934 38.1405Z" fill="#9E2C19"/>
<path id="Vector_30" d="M22.3984 27.6154L31.1937 33.9895L43.0772 25.3672L31.1937 34.5331L22.3984 27.6154Z" fill="#FFF5CC"/>
<path id="Vector_31" d="M30.5273 0.242188H43.5227L46.1909 8.49395L43.0038 0.711598L30.5273 0.242188Z" fill="#FFF5CC"/>
<path id="Vector_32" d="M35.6893 0.242188C35.5905 1.30454 36.0352 2.51513 36.9493 3.60219H41.0752L42.0881 6.73983C43.3728 7.06101 44.6082 7.06101 45.6211 6.78925L43.4964 0.242188H35.6893Z" fill="#FFF2BB"/>
<path id="Vector_33" d="M21.3351 26.8242C21.0139 27.6148 21.5821 28.8254 22.7186 29.6407C23.8551 30.456 25.1645 30.6289 25.8315 30.0854L21.3351 26.8242Z" fill="#FFF2BB"/>
<path id="Vector_34" d="M25.8571 32.2869C25.6594 32.5834 25.1406 32.5834 24.6712 32.2622C24.2018 31.941 24.0041 31.4963 24.1771 31.1998C24.35 30.9034 24.8936 30.9034 25.363 31.2245C25.8324 31.521 26.03 31.9904 25.8571 32.2869Z" fill="#FFF2BB"/>
<path id="Vector_35" d="M16.9379 0.414062L17.7532 1.97053L16.1967 6.63994L15.332 5.28112L16.9379 0.414062Z" fill="#9E2C19"/>
<path id="Vector_36" d="M45.4492 0.416602L46.2151 6.64248C47.9939 6.64248 49.501 6.61777 52.1692 6.61777C61.6563 6.61777 61.7057 0.367188 61.7057 0.367188L45.4492 0.416602Z" fill="#681D15"/>
<path id="Vector_37" d="M45.4492 0.416602L47.0551 5.28366C48.8339 5.28366 49.1304 5.25895 51.8233 5.25895C61.3104 5.25895 61.7057 0.367188 61.7057 0.367188L45.4492 0.416602Z" fill="url(#paint10_radial_1028_46794)"/>
<path id="Vector_38" d="M47.8691 7.82676L48.6103 14.0526C50.3891 14.0526 48.215 14.0526 50.9079 14.0526C60.395 14.0526 60.4444 7.77734 60.4444 7.77734L47.8691 7.82676Z" fill="#681D15"/>
<path id="Vector_39" d="M47.8691 7.82549L49.4503 12.7173C51.2291 12.7173 47.8691 12.6925 50.5374 12.6925C60.0244 12.6925 60.4444 7.80078 60.4444 7.80078L47.8691 7.82549Z" fill="url(#paint11_radial_1028_46794)"/>
<path id="Vector_40" d="M50.2656 15.2122L56.9609 15.1875C56.9609 15.1875 55.9233 19.8816 51.0315 21.4628L50.2656 15.2122Z" fill="#681D15"/>
<path id="Vector_41" d="M50.2656 15.2122L56.9609 15.1875C56.9609 15.1875 56.7633 18.5228 51.8715 20.104L50.2656 15.2122Z" fill="url(#paint12_radial_1028_46794)"/>
<path id="Vector_42" d="M45.4492 0.416602L47.0551 5.28366C48.8339 5.28366 49.1304 5.25895 51.8233 5.25895C61.3104 5.25895 61.7057 0.367188 61.7057 0.367188L45.4492 0.416602Z" fill="url(#paint13_linear_1028_46794)"/>
<path id="Vector_43" d="M47.8691 7.82549L49.4503 12.7173C51.2291 12.7173 47.8691 12.6925 50.5374 12.6925C60.0244 12.6925 60.4444 7.80078 60.4444 7.80078L47.8691 7.82549Z" fill="url(#paint14_linear_1028_46794)"/>
<path id="Vector_44" d="M45.4488 0.414062L44.6582 1.97053L46.2147 6.63994L47.0547 5.28112L45.4488 0.414062Z" fill="#9E2C19"/>
<path id="Vector_45" d="M47.87 7.82812L47.0547 9.35989L48.6112 14.054L49.4512 12.6952L47.87 7.82812Z" fill="#9E2C19"/>
<path id="Vector_46" d="M50.2664 15.2148L49.4512 16.7466L51.7982 23.8619L53.2312 24.2572L50.2664 15.2148Z" fill="#9E2C19"/>
<path id="Vector_47" opacity="0.35" d="M14.4434 13.9033L18.6187 1.97033C19.0387 0.759741 19.3598 0.438566 20.6445 0.389154L31.194 0.265625H18.8904L14.4434 13.9033Z" fill="#9E2C19"/>
<path id="Vector_48" d="M34.9244 2.12085C34.0597 1.50321 33.0221 1.4538 32.6021 2.02203C32.3056 2.44203 32.4044 3.05968 32.7997 3.60321H35.888C35.8385 3.10909 35.4927 2.54085 34.9244 2.12085Z" fill="#FFF2BB"/>
<path id="Vector_49" opacity="0.35" fill-rule="evenodd" clip-rule="evenodd" d="M49.1304 4.91053C48.0433 4.81171 47.3022 4.41641 46.808 3.45288L45.4492 0.414062L47.0551 5.28112C48.8339 5.28112 49.1304 5.25641 51.8233 5.25641C53.3304 5.25641 54.6151 5.13288 55.7022 4.93524C53.3304 5.23171 50.9339 5.08347 49.1304 4.91053Z" fill="#9E2C19"/>
<path id="Vector_50" opacity="0.35" fill-rule="evenodd" clip-rule="evenodd" d="M50.5386 12.6952C52.8363 12.6952 54.5904 12.4234 55.9492 11.9787C53.9974 12.5222 52.3669 12.4728 51.1069 12.3987C50.2422 12.3493 49.5504 11.7069 49.1798 10.9411L47.8457 7.82812L49.4269 12.7199C51.2304 12.6952 47.8704 12.6705 50.5386 12.6952Z" fill="#9E2C19"/>
<path id="Vector_51" opacity="0.35" fill-rule="evenodd" clip-rule="evenodd" d="M51.8468 20.1053C52.9092 19.7595 53.7492 19.3395 54.4162 18.8947C53.6256 19.1912 52.1433 19.4136 52.1433 19.4136L50.2656 15.2383L51.8468 20.1053Z" fill="#9E2C19"/>
<path id="Vector_52" d="M45.4492 0.416602L60.2974 0.663661C60.8904 0.663661 61.1622 1.13307 60.9151 1.6519C60.6433 2.22013 60.2233 2.88719 59.5069 3.45542C61.5575 2.07189 61.7057 0.367188 61.7057 0.367188L45.4492 0.416602Z" fill="#FFF5CC"/>
<path id="Vector_53" d="M47.8691 7.82676L58.8386 8.07382C60.1233 8.09852 59.9009 8.64205 59.5797 9.30911C59.3821 9.72911 59.0856 10.1738 58.715 10.5444C60.3456 9.23499 60.4691 7.77734 60.4691 7.77734L47.8691 7.82676Z" fill="#FFF5CC"/>
<path id="Vector_54" d="M47.0551 5.28239C48.3398 5.28239 48.8586 5.25768 50.0445 5.25768C51.7245 4.19533 52.8363 2.63886 53.0092 0.81062C53.0092 0.662385 53.0339 0.514154 53.0339 0.390625L45.4492 0.415332L47.0551 5.28239Z" fill="#FFF2BB"/>
<path id="Vector_55" d="M55.0849 18.3498C56.8391 16.8181 56.9379 15.1875 56.9379 15.1875L50.2426 15.2122L53.2073 24.2546L31.9355 39.7204V42.191L58.9885 27.1451L55.0849 18.3498Z" fill="url(#paint15_radial_1028_46794)"/>
<path id="Vector_56" d="M9.15489 24.2546L12.1443 15.2122L5.44901 15.1875C5.44901 15.1875 5.54783 16.8181 7.30195 18.3498L3.39844 27.1204L30.4514 42.1663V39.6957L9.15489 24.2546Z" fill="url(#paint16_radial_1028_46794)"/>
<path id="Vector_57" d="M9.15489 24.2546L12.1443 15.2122L5.44901 15.1875C5.44901 15.1875 5.54783 16.8181 7.30195 18.3498L3.39844 27.1204L30.4514 42.1663V39.6957L9.15489 24.2546Z" fill="url(#paint17_linear_1028_46794)"/>
<path id="Vector_58" d="M10.6139 23.8125L30.4527 38.9078V39.7231L9.15625 24.2572L10.6139 23.8125Z" fill="url(#paint18_linear_1028_46794)"/>
<path id="Vector_59" d="M51.7978 23.8594L31.959 38.9053V39.7205L53.2307 24.2547L51.7978 23.8594Z" fill="url(#paint19_linear_1028_46794)"/>
<path id="Vector_60" d="M55.0832 18.3498C56.8373 16.8181 56.9361 15.1875 56.9361 15.1875L50.2409 15.2122L53.2056 24.2546L46.8809 28.8498C46.955 29.0969 47.0044 29.3687 47.0785 29.6157C47.4244 30.9746 47.7209 32.1851 47.9679 33.2475L58.9867 27.1204L55.0832 18.3498Z" fill="url(#paint20_linear_1028_46794)"/>
<path id="Vector_61" d="M42.2613 34.4357C42.3107 33.6699 42.3355 32.9287 42.3355 32.1875L31.959 39.7228V42.1934L41.7919 36.7087C42.039 36.0169 42.1872 35.251 42.2613 34.4357Z" fill="url(#paint21_linear_1028_46794)"/>
<path id="Vector_62" opacity="0.35" d="M7.30195 18.3498L3.39844 27.1204L17.4561 34.9522C17.4561 34.9522 7.8702 29.2204 4.78196 27.2687C4.23843 26.9228 4.04078 26.6263 4.31254 26.0334C5.22666 23.9087 7.30197 18.9181 7.69727 18.1522C6.46197 17.1887 5.94315 16.2746 5.47374 15.1875C5.44903 15.1875 5.54783 16.8181 7.30195 18.3498Z" fill="#9E2C19"/>
<path id="Vector_63" d="M55.7997 17.6334C56.8868 16.3487 56.9362 15.1875 56.9362 15.1875L50.2656 15.2122L55.775 15.4346C56.5903 15.484 56.4421 15.7804 56.3433 16.1757C56.2444 16.6699 56.0715 17.1887 55.7997 17.6334Z" fill="#FFF5CC"/>
<path id="Vector_64" opacity="0.35" d="M45.9434 34.4123L56.2457 28.1864C58.074 27.0747 58.2469 26.877 57.4563 24.8758L55.7269 19.7617L59.0128 27.1488L45.9434 34.4123Z" fill="#9E2C19"/>
<path id="Vector_65" opacity="0.35" d="M31.959 39.7208C31.959 39.7208 32.0331 40.0667 32.0825 40.3384C32.2802 41.5243 32.6013 41.4502 33.2931 41.129L37.1719 39.3008L31.9837 42.1914V39.7208H31.959Z" fill="#9E2C19"/>
<path id="Vector_66" opacity="0.35" d="M20.7676 36.8086L29.217 41.0827C30.0817 41.5521 30.1805 41.3051 30.3535 40.3168C30.3782 40.1933 30.4276 39.798 30.4276 39.798V42.1945L20.7676 36.8086Z" fill="#9E2C19"/>
<g id="Group_3">
<path id="Vector_67" opacity="0.6" d="M39.717 14.4712V13.4829L34.0346 14.4712L31.1935 9.55469L28.3523 14.4712L22.6699 13.4829V14.4712L25.5111 19.3876L22.6699 23.3159V24.3041H28.3523L31.1935 29.2206L34.0346 24.3041H39.717V23.3159L36.8758 19.3876L39.717 14.4712ZM35.8134 22.0559H32.7252L31.1935 24.7241L29.6617 22.0559H26.5734L28.1052 19.3876V18.3994L26.5734 16.7194H29.6617L31.1935 14.0512L32.7252 16.7194H35.8134L34.2817 18.3994V19.3876L35.8134 22.0559Z" fill="#892334"/>
<path id="Vector_68" d="M39.717 13.4829V12.0005L34.0346 13.4829L31.1935 8.56641L28.3523 13.4829L22.6699 12.0005V13.4829L25.5111 18.3993L22.6699 21.8335V23.3158H28.3523L31.1935 28.2323L34.0346 23.3158H39.717V21.8335L36.8758 18.3993L39.717 13.4829ZM35.8134 21.0676H32.7252L31.1935 23.7358L29.6617 21.0676H26.5734L28.1052 18.3993V16.917L26.5734 15.7311H29.6617L31.1935 13.0629L32.7252 15.7311H35.8134L34.2817 16.917V18.3993L35.8134 21.0676Z" fill="#9E2C19"/>
<path id="Vector_69" d="M39.717 12.0024H34.0346L31.1935 7.08594L28.3523 12.0024H22.6699L25.5111 16.9189L22.6699 21.8353H28.3523L31.1935 26.7518L34.0346 21.8353H39.717L36.8758 16.9189L39.717 12.0024ZM35.8134 19.5871H32.7252L31.1935 22.2553L29.6617 19.5871H26.5734L28.1052 16.9189L26.5734 14.2506H29.6617L31.1935 11.5824L32.7252 14.2506H35.8134L34.2817 16.9189L35.8134 19.5871Z" fill="url(#paint22_radial_1028_46794)"/>
<path id="Vector_70" d="M38.6037 13.931L39.7155 12.0039H36.3555C37.1461 12.5968 37.8872 13.2392 38.6037 13.931Z" fill="url(#paint23_linear_1028_46794)"/>
<path id="Vector_71" d="M30.5254 8.24711C31.1924 8.59299 31.8595 8.96358 32.5019 9.33417L31.1925 7.08594L30.5254 8.24711Z" fill="url(#paint24_linear_1028_46794)"/>
<path id="Vector_72" d="M35.5657 14.6946L34.281 16.9182L35.8127 19.5864H32.7245L31.1928 22.2546L29.661 19.5864H26.5727L28.1045 16.9182L26.5727 14.2499H29.661L31.1928 11.5817L32.7245 14.2499H35.0716C33.3175 12.6687 31.341 11.3593 29.2657 10.3711L28.3269 11.977H22.6445L25.4857 16.8934L22.6445 21.8099H28.3269L31.1681 26.7264L34.0092 21.8099H39.6916L36.8504 16.8934L37.1469 16.3746C36.6775 15.7817 36.1339 15.2134 35.5657 14.6946Z" fill="url(#paint25_linear_1028_46794)"/>
<path id="Vector_73" d="M31.1923 13.0644V11.582L29.6605 14.2503H26.5723L27.437 15.7326H29.6605L31.1923 13.0644Z" fill="#681D15"/>
<path id="Vector_74" d="M32.7246 15.7324V14.25H35.8128L34.9481 15.7076L32.7246 15.7324Z" fill="#681D15"/>
<path id="Vector_75" d="M22.6699 12.0039L25.5111 16.9204L25.0911 17.6616L22.6699 13.4863V12.0039Z" fill="#681D15"/>
<path id="Vector_76" d="M22.6699 21.8359H28.3523L31.1935 26.7524V28.2348L28.3523 23.3183H22.6699V21.8359Z" fill="#681D15"/>
<path id="Vector_77" d="M39.7156 21.8359H34.0332V23.3183H39.7156V21.8359Z" fill="#681D15"/>
<path id="Vector_78" opacity="0.5" d="M36.4308 18.7216C36.0108 18.598 35.6155 18.598 35.319 18.7216L35.8131 19.5863H34.8496C34.9731 19.9568 35.3685 20.3027 35.8873 20.451C36.6037 20.6733 37.3202 20.4757 37.4685 20.0063C37.6414 19.5369 37.172 18.9686 36.4308 18.7216Z" fill="#FCE265"/>
<path id="Vector_79" opacity="0.5" d="M34.7748 20.5002C34.7007 20.7473 34.3548 20.8461 33.9842 20.7226C33.6136 20.599 33.3913 20.3273 33.4654 20.0802C33.5395 19.8332 33.8854 19.7343 34.256 19.8579C34.6266 19.9814 34.8489 20.2532 34.7748 20.5002Z" fill="#FCE265"/>
<path id="Vector_80" opacity="0.8" d="M31.1934 7.08594L33.7628 12.373L39.7169 12.0024H34.0345L31.1934 7.08594Z" fill="#FFE67B"/>
<path id="Vector_81" d="M22.6699 21.8354L28.5252 21.4648L31.1935 26.7519L28.3523 21.8354H22.6699Z" fill="#FFE67B"/>
<path id="Vector_82" opacity="0.35" d="M31.1934 26.7529L33.8122 21.2188L39.7169 21.8364H34.0345L31.1934 26.7529Z" fill="#9E2C19"/>
<path id="Vector_83" opacity="0.35" d="M22.6699 12.0039L26.1287 16.9204L22.6699 21.8368L25.5111 16.9204L22.6699 12.0039Z" fill="#9E2C19"/>
<path id="Vector_84" d="M26.5723 19.5859L29.364 19.9812L31.1923 22.2542L29.6605 19.5859H26.5723Z" fill="#FFE67B"/>
<path id="Vector_85" opacity="0.35" d="M31.1934 11.582L32.9475 13.9044L35.8133 14.2503H32.7251L31.1934 11.582Z" fill="#9E2C19"/>
</g>
<path id="Vector_86" opacity="0.5" d="M6.73438 15.1875L12.1202 15.2122L10.0202 21.611L11.6756 15.8793C11.6508 15.5581 11.5767 15.4346 11.132 15.4099L6.73438 15.1875Z" fill="#FFE67B"/>
<path id="Vector_87" d="M1.9668 7.77734C1.9668 7.77734 2.04091 8.56793 2.73267 9.53146C3.77032 8.93852 4.93151 8.34558 6.1421 7.80205L1.9668 7.77734Z" fill="url(#paint26_linear_1028_46794)"/>
</g>
</g>
<defs>
<radialGradient id="paint0_radial_1028_46794" cx="0" cy="0" r="1" gradientUnits="userSpaceOnUse" gradientTransform="translate(8.8235 2.83815) scale(5.99861 5.99861)">
<stop offset="0.0139665" stop-color="#E85621"/>
<stop offset="1" stop-color="#E33A0B"/>
</radialGradient>
<radialGradient id="paint1_radial_1028_46794" cx="0" cy="0" r="1" gradientUnits="userSpaceOnUse" gradientTransform="translate(8.25032 10.2419) scale(4.77545 4.77545)">
<stop offset="0.0139665" stop-color="#E85621"/>
<stop offset="1" stop-color="#E33A0B"/>
</radialGradient>
<radialGradient id="paint2_radial_1028_46794" cx="0" cy="0" r="1" gradientUnits="userSpaceOnUse" gradientTransform="translate(8.79525 17.6423) scale(2.93196 2.93194)">
<stop offset="0.0139665" stop-color="#E85621"/>
<stop offset="1" stop-color="#E33A0B"/>
</radialGradient>
<linearGradient id="paint3_linear_1028_46794" x1="27.0668" y1="-23.0472" x2="7.90314" y2="2.99868" gradientUnits="userSpaceOnUse">
<stop stop-color="#FFA369"/>
<stop offset="0.1319" stop-color="#FE9E66"/>
<stop offset="0.2926" stop-color="#FA8F5C"/>
<stop offset="0.4684" stop-color="#F3764C"/>
<stop offset="0.6548" stop-color="#EA5436"/>
<stop offset="0.8476" stop-color="#DF281A"/>
<stop offset="1" stop-color="#D40000"/>
</linearGradient>
<linearGradient id="paint4_linear_1028_46794" x1="2.74981" y1="24.7621" x2="17.6219" y2="2.37489" gradientUnits="userSpaceOnUse">
<stop stop-color="#D40000"/>
<stop offset="1" stop-color="#FFAF47"/>
</linearGradient>
<radialGradient id="paint5_radial_1028_46794" cx="0" cy="0" r="1" gradientUnits="userSpaceOnUse" gradientTransform="translate(31.1985 19.1989) scale(19.4395 19.4395)">
<stop offset="0.0139665" stop-color="#E85621"/>
<stop offset="1" stop-color="#E33A0B"/>
</radialGradient>
<radialGradient id="paint6_radial_1028_46794" cx="0" cy="0" r="1" gradientUnits="userSpaceOnUse" gradientTransform="translate(34.1212 13.7341) scale(15.3398 15.3398)">
<stop offset="0.0139665" stop-color="#E85621"/>
<stop offset="1" stop-color="#E33A0B"/>
</radialGradient>
<linearGradient id="paint7_linear_1028_46794" x1="49.4772" y1="-5.89438" x2="29.661" y2="18.5496" gradientUnits="userSpaceOnUse">
<stop stop-color="#FFA369"/>
<stop offset="0.1319" stop-color="#FE9E66"/>
<stop offset="0.2926" stop-color="#FA8F5C"/>
<stop offset="0.4684" stop-color="#F3764C"/>
<stop offset="0.6548" stop-color="#EA5436"/>
<stop offset="0.8476" stop-color="#DF281A"/>
<stop offset="1" stop-color="#D40000"/>
</linearGradient>
<linearGradient id="paint8_linear_1028_46794" x1="17.9224" y1="33.698" x2="35.2467" y2="11.9832" gradientUnits="userSpaceOnUse">
<stop stop-color="#D40000"/>
<stop offset="1" stop-color="#FFAF47"/>
</linearGradient>
<linearGradient id="paint9_linear_1028_46794" x1="31.1979" y1="19.2665" x2="31.1979" y2="25.8678" gradientUnits="userSpaceOnUse">
<stop offset="0.6285" stop-color="#F7814A"/>
<stop offset="1" stop-color="#F7E399"/>
</linearGradient>
<radialGradient id="paint10_radial_1028_46794" cx="0" cy="0" r="1" gradientUnits="userSpaceOnUse" gradientTransform="translate(53.5765 2.83815) scale(5.99862 5.99861)">
<stop offset="0.0139665" stop-color="#E85621"/>
<stop offset="1" stop-color="#E33A0B"/>
</radialGradient>
<radialGradient id="paint11_radial_1028_46794" cx="0" cy="0" r="1" gradientUnits="userSpaceOnUse" gradientTransform="translate(54.1489 10.2419) scale(4.77545 4.77545)">
<stop offset="0.0139665" stop-color="#E85621"/>
<stop offset="1" stop-color="#E33A0B"/>
</radialGradient>
<radialGradient id="paint12_radial_1028_46794" cx="0" cy="0" r="1" gradientUnits="userSpaceOnUse" gradientTransform="translate(53.6029 17.6423) scale(2.93194 2.93194)">
<stop offset="0.0139665" stop-color="#E85621"/>
<stop offset="1" stop-color="#E33A0B"/>
</radialGradient>
<linearGradient id="paint13_linear_1028_46794" x1="55.6284" y1="-2.03168" x2="36.4648" y2="24.0142" gradientUnits="userSpaceOnUse">
<stop stop-color="#FFA369"/>
<stop offset="0.1319" stop-color="#FE9E66"/>
<stop offset="0.2926" stop-color="#FA8F5C"/>
<stop offset="0.4684" stop-color="#F3764C"/>
<stop offset="0.6548" stop-color="#EA5436"/>
<stop offset="0.8476" stop-color="#DF281A"/>
<stop offset="1" stop-color="#D40000"/>
</linearGradient>
<linearGradient id="paint14_linear_1028_46794" x1="59.5311" y1="0.837826" x2="40.3676" y2="26.8836" gradientUnits="userSpaceOnUse">
<stop stop-color="#FFA369"/>
<stop offset="0.1319" stop-color="#FE9E66"/>
<stop offset="0.2926" stop-color="#FA8F5C"/>
<stop offset="0.4684" stop-color="#F3764C"/>
<stop offset="0.6548" stop-color="#EA5436"/>
<stop offset="0.8476" stop-color="#DF281A"/>
<stop offset="1" stop-color="#D40000"/>
</linearGradient>
<radialGradient id="paint15_radial_1028_46794" cx="0" cy="0" r="1" gradientUnits="userSpaceOnUse" gradientTransform="translate(45.4769 28.6878) scale(13.5112 13.5112)">
<stop offset="0.0139665" stop-color="#E85621"/>
<stop offset="1" stop-color="#E33A0B"/>
</radialGradient>
<radialGradient id="paint16_radial_1028_46794" cx="0" cy="0" r="1" gradientUnits="userSpaceOnUse" gradientTransform="translate(16.9185 28.6878) scale(13.5112 13.5112)">
<stop offset="0.0139665" stop-color="#E85621"/>
<stop offset="1" stop-color="#E33A0B"/>
</radialGradient>
<linearGradient id="paint17_linear_1028_46794" x1="13.4265" y1="35.7842" x2="30.9216" y2="8.32001" gradientUnits="userSpaceOnUse">
<stop stop-color="#D40000"/>
<stop offset="1" stop-color="#FFAF47"/>
</linearGradient>
<linearGradient id="paint18_linear_1028_46794" x1="9.16062" y1="31.7754" x2="30.4423" y2="31.7754" gradientUnits="userSpaceOnUse">
<stop offset="0.0921788" stop-color="#F7814A"/>
<stop offset="0.1308" stop-color="#F7874F"/>
<stop offset="0.3944" stop-color="#F7AF6F"/>
<stop offset="0.6359" stop-color="#F7CB86"/>
<stop offset="0.8457" stop-color="#F7DD94"/>
<stop offset="1" stop-color="#F7E399"/>
</linearGradient>
<linearGradient id="paint19_linear_1028_46794" x1="53.2349" y1="31.7878" x2="31.9532" y2="31.7878" gradientUnits="userSpaceOnUse">
<stop offset="0.0921788" stop-color="#F7814A"/>
<stop offset="0.1308" stop-color="#F7874F"/>
<stop offset="0.3944" stop-color="#F7AF6F"/>
<stop offset="0.6359" stop-color="#F7CB86"/>
<stop offset="0.8457" stop-color="#F7DD94"/>
<stop offset="1" stop-color="#F7E399"/>
</linearGradient>
<linearGradient id="paint20_linear_1028_46794" x1="65.8193" y1="8.85864" x2="45.3922" y2="31.3383" gradientUnits="userSpaceOnUse">
<stop stop-color="#FFA369"/>
<stop offset="0.1319" stop-color="#FE9E66"/>
<stop offset="0.2926" stop-color="#FA8F5C"/>
<stop offset="0.4684" stop-color="#F3764C"/>
<stop offset="0.6548" stop-color="#EA5436"/>
<stop offset="0.8476" stop-color="#DF281A"/>
<stop offset="1" stop-color="#D40000"/>
</linearGradient>
<linearGradient id="paint21_linear_1028_46794" x1="31.2095" y1="47.1141" x2="48.7045" y2="19.6498" gradientUnits="userSpaceOnUse">
<stop stop-color="#D40000"/>
<stop offset="1" stop-color="#FFAF47"/>
</linearGradient>
<radialGradient id="paint22_radial_1028_46794" cx="0" cy="0" r="1" gradientUnits="userSpaceOnUse" gradientTransform="translate(31.1977 16.9176) scale(9.20595 9.20595)">
<stop offset="0.0139665" stop-color="#E85621"/>
<stop offset="1" stop-color="#E33A0B"/>
</radialGradient>
<linearGradient id="paint23_linear_1028_46794" x1="43.8831" y1="4.69098" x2="36.5529" y2="14.1714" gradientUnits="userSpaceOnUse">
<stop stop-color="#FFA369"/>
<stop offset="0.1319" stop-color="#FE9E66"/>
<stop offset="0.2926" stop-color="#FA8F5C"/>
<stop offset="0.4684" stop-color="#F3764C"/>
<stop offset="0.6548" stop-color="#EA5436"/>
<stop offset="0.8476" stop-color="#DF281A"/>
<stop offset="1" stop-color="#D40000"/>
</linearGradient>
<linearGradient id="paint24_linear_1028_46794" x1="38.053" y1="0.180983" x2="30.7234" y2="9.6607" gradientUnits="userSpaceOnUse">
<stop stop-color="#FFA369"/>
<stop offset="0.1319" stop-color="#FE9E66"/>
<stop offset="0.2926" stop-color="#FA8F5C"/>
<stop offset="0.4684" stop-color="#F3764C"/>
<stop offset="0.6548" stop-color="#EA5436"/>
<stop offset="0.8476" stop-color="#DF281A"/>
<stop offset="1" stop-color="#D40000"/>
</linearGradient>
<linearGradient id="paint25_linear_1028_46794" x1="21.0032" y1="29.7622" x2="42.7988" y2="2.29786" gradientUnits="userSpaceOnUse">
<stop stop-color="#D40000"/>
<stop offset="1" stop-color="#FFAF47"/>
</linearGradient>
<linearGradient id="paint26_linear_1028_46794" x1="26.8578" y1="-23.2017" x2="7.69416" y2="2.8442" gradientUnits="userSpaceOnUse">
<stop stop-color="#FFA369"/>
<stop offset="0.1319" stop-color="#FE9E66"/>
<stop offset="0.2926" stop-color="#FA8F5C"/>
<stop offset="0.4684" stop-color="#F3764C"/>
<stop offset="0.6548" stop-color="#EA5436"/>
<stop offset="0.8476" stop-color="#DF281A"/>
<stop offset="1" stop-color="#D40000"/>
</linearGradient>
</defs>
</svg>
