<svg width="21" height="26" viewBox="0 0 21 26" fill="none" xmlns="http://www.w3.org/2000/svg">
<path d="M16.7969 8.8667C16.9809 8.71714 17.1688 8.5715 17.345 8.41406C17.3176 8.56363 17.2941 8.7132 17.2667 8.8667C17.3058 8.87851 17.388 8.89819 17.4272 8.90606L17.4154 8.96904C16.6364 9.55157 15.783 10.02 14.9922 10.5828C15.0901 10.2443 15.3915 10.0436 15.646 9.82709C16.0374 9.51221 16.4172 9.18552 16.7969 8.8667Z" fill="#9A9A9F"/>
<path d="M3.33594 0.623821C5.82966 0.120013 8.37819 -0.0610423 10.9189 0.0176778C12.9311 0.0216138 14.9433 0.175118 16.9242 0.541166C16.9437 0.584462 16.979 0.671055 16.9986 0.714352C16.7872 0.698608 16.5718 0.682863 16.3604 0.655311C14.3952 0.324687 12.4026 0.112141 10.406 0.226286C9.47824 0.316814 8.54652 0.218415 7.61872 0.320751C6.94537 0.360111 6.26812 0.403407 5.6026 0.537231C5.07019 0.651375 4.51429 0.643503 4.00537 0.844239C4.19719 0.903279 4.39293 0.950512 4.59259 0.970192C5.53214 1.04498 6.46386 1.16699 7.39949 1.24571C8.39776 1.30475 9.40778 1.2772 10.3943 1.43858C9.84232 1.73771 9.18072 1.47006 8.58176 1.58027C7.10197 1.47794 5.61826 1.36379 4.15804 1.09614C3.93882 1.04891 3.71959 1.01349 3.50036 0.982L3.42206 0.930832C3.39857 0.852112 3.35551 0.698606 3.33594 0.623821Z" fill="#F6F3EC"/>
<path d="M7.62116 0.317119C8.54897 0.214783 9.48069 0.313184 10.4085 0.222656C10.3889 0.604449 10.385 0.990176 10.4007 1.37197C11.6925 1.4192 12.9883 1.33261 14.2763 1.43101C12.9923 1.55696 11.7043 1.60026 10.4163 1.63962C9.80562 1.66323 9.19099 1.64749 8.5842 1.58058C9.18317 1.47431 9.84476 1.73802 10.3967 1.43888C9.41022 1.2775 8.40021 1.30506 7.40194 1.24602C6.4663 1.1673 5.53067 1.04528 4.59503 0.970498C4.39538 0.954754 4.19964 0.907521 4.00781 0.844545C4.51674 0.639872 5.07655 0.651681 5.60505 0.537537C6.27056 0.399777 6.94782 0.356479 7.62116 0.317119Z" fill="#DFD7D4"/>
<path d="M10.4053 0.224672C12.4018 0.114463 14.3945 0.327006 16.3597 0.653695C16.4106 0.756031 16.4575 0.862303 16.5084 0.968576C16.3519 1.00794 16.1992 1.0473 16.0426 1.08666C16.0935 1.11421 16.1992 1.17325 16.254 1.2008C15.5963 1.2992 14.9386 1.38973 14.2731 1.42515C12.9851 1.32675 11.6893 1.41335 10.3975 1.36611C10.3857 0.992193 10.3896 0.606464 10.4053 0.224672Z" fill="#BBB6BF"/>
<path d="M16.925 0.539062C17.0737 0.562679 17.2264 0.594167 17.3791 0.625655C17.1912 1.31052 17.0033 1.99145 16.8075 2.67238C16.6705 3.14076 16.5531 3.61308 16.4317 4.08934C15.9071 5.97075 15.2534 7.81674 14.5644 9.63911C14.3373 10.2177 14.1142 10.7963 13.9302 11.3906L13.9184 11.4339C13.8832 11.5284 13.8479 11.6189 13.8127 11.7134C13.7814 11.8315 13.7501 11.9495 13.7148 12.0676C13.7422 11.5205 14.0163 11.0364 14.1768 10.5247C14.3608 10.0485 14.4782 9.54858 14.6505 9.06445C14.9441 8.4032 15.0772 7.68685 15.3042 7.00198C15.4882 6.4785 15.6488 5.95107 15.7936 5.41578C15.9345 4.97888 16.0441 4.53017 16.1772 4.08934C16.5217 3.10927 16.6274 2.05836 17.015 1.0901C17.0816 0.964151 17.0502 0.830327 17.0111 0.70831C16.9798 0.66895 16.9445 0.582359 16.925 0.539062Z" fill="#F0EBE7"/>
<path d="M16.364 0.65625C16.5754 0.683802 16.7868 0.699546 17.0021 0.71529C17.0412 0.841242 17.0726 0.975065 17.006 1.09708C16.6184 2.06534 16.5127 3.11626 16.1682 4.09632C15.9647 3.64762 16.227 3.20285 16.2857 2.75808C16.3248 2.51405 16.3131 2.26607 16.317 2.02204C16.3757 1.73471 16.4462 1.44739 16.5206 1.16399C16.454 1.1758 16.3209 1.19548 16.2544 1.20729C16.2035 1.17974 16.0978 1.1207 16.043 1.09315C16.1956 1.05379 16.3522 1.01443 16.5088 0.975066C16.4619 0.864857 16.4149 0.758586 16.364 0.65625Z" fill="#CEC6C3"/>
<path d="M3.50397 0.976562C3.7232 1.00805 3.94635 1.04348 4.16166 1.09071C4.12643 1.33868 4.14991 1.59058 4.22038 1.83461C4.42395 2.62969 4.62752 3.4287 4.87024 4.2159C5.01508 4.66854 5.12078 5.12905 5.2578 5.58169C5.3909 6.01859 5.52009 6.45942 5.67277 6.89632C5.86068 7.42374 6.01727 7.95904 6.21692 8.48253L6.20909 8.58093C6.06033 8.4786 5.91157 8.37232 5.76281 8.26999C5.25389 6.91994 4.78411 5.55808 4.34565 4.18047C4.21255 3.6806 4.07162 3.18073 3.9072 2.68873C3.77018 2.13768 3.55095 1.59058 3.47266 1.03954L3.50397 0.976562Z" fill="#D2D0D0"/>
<path d="M4.21553 1.83766C4.14507 1.59362 4.12158 1.34172 4.15681 1.09375C5.61703 1.3614 7.10073 1.47948 8.58053 1.57788C9.18732 1.64479 9.80194 1.66053 10.4126 1.63692C10.4048 2.16828 10.4205 2.69964 10.3774 3.231C9.49659 3.24281 8.61576 3.21526 7.73493 3.22313C7.32779 3.231 6.92065 3.2192 6.51352 3.27036L6.44305 3.28217C6.41565 3.41993 6.38824 3.55769 6.36475 3.69545C6.05549 3.76236 5.75013 3.83715 5.44086 3.90012C5.48393 3.98672 5.52307 4.06937 5.56614 4.15597C5.33125 4.18352 5.09636 4.2032 4.86147 4.21501C4.62267 3.43174 4.4191 2.63273 4.21553 1.83766ZM9.59446 2.28242C9.66884 2.26668 9.81368 2.23913 9.88807 2.22732C9.99768 2.08563 9.85675 1.9518 9.78628 1.83372C9.62577 1.92425 9.57097 2.09743 9.59446 2.28242ZM6.98721 2.37295C7.1438 2.34146 7.43741 2.48316 7.4883 2.25487C7.54311 2.07382 7.39434 1.87701 7.1986 1.92818C6.9324 1.86521 6.98721 2.21158 6.98721 2.37295Z" fill="#BAB4B3"/>
<path d="M16.255 1.20345C16.3215 1.19164 16.4547 1.17196 16.5212 1.16016C16.4468 1.44355 16.3764 1.73088 16.3176 2.01821C16.0553 2.892 15.8518 3.78154 15.613 4.65927C15.4407 5.22605 15.2685 5.7889 15.0884 6.35175C14.9514 6.38717 14.8144 6.4226 14.6773 6.46196C14.6578 6.35175 14.6382 6.24154 14.6186 6.13527C14.5481 6.14314 14.4777 6.14708 14.4072 6.15495C14.3916 6.0841 14.3759 6.01325 14.3642 5.94634C14.2271 5.94634 14.0862 5.95028 13.9492 5.95421C14.0157 5.32445 14.2154 4.71043 14.1371 4.06886C14.1567 4.00195 14.1919 3.86026 14.2076 3.79334C14.2624 3.60835 14.325 3.42729 14.3837 3.24624C13.0527 3.21475 11.7178 3.23837 10.3828 3.23837C10.4298 2.70701 10.4141 2.17565 10.418 1.64428C11.706 1.60492 12.994 1.56163 14.278 1.43568C14.9357 1.39238 15.5973 1.30579 16.255 1.20345Z" fill="#837F8C"/>
<path d="M9.59917 2.28073C9.57568 2.09968 9.62657 1.9265 9.79099 1.83203C9.86146 1.94618 9.99848 2.08394 9.89278 2.22563C9.82231 2.23744 9.67355 2.26499 9.59917 2.28073Z" fill="#D7CDC8"/>
<path d="M6.99076 2.37097C6.98684 2.2096 6.93595 1.86716 7.20216 1.9262C7.3979 1.87504 7.54666 2.07184 7.49185 2.25289C7.44096 2.47725 7.15126 2.33555 6.99076 2.37097Z" fill="#CAC6C2"/>
<path d="M15.6094 4.65668C15.8521 3.77896 16.0517 2.88942 16.314 2.01562C16.3101 2.25966 16.3219 2.50762 16.2827 2.75166C16.224 3.19643 15.9617 3.64119 16.1653 4.0899C16.0361 4.53073 15.9226 4.97944 15.7816 5.41634C15.6877 5.17624 15.6172 4.9204 15.6094 4.65668Z" fill="#B8B5B1"/>
<path d="M16.4336 4.08884C16.555 3.61652 16.6685 3.14026 16.8094 2.67188C17.056 2.8608 17.4358 2.69155 17.7294 2.77421C17.6393 2.95527 17.5454 3.14026 17.4475 3.31738C18.0191 3.29377 18.5867 3.34493 19.1583 3.32132C19.1739 4.10458 19.0174 4.87604 18.896 5.6475C18.8725 5.81281 18.7981 5.96238 18.7277 6.11195C18.6141 6.34417 18.5006 6.58033 18.391 6.81256C18.3792 6.73777 18.3518 6.58033 18.3362 6.50555C18.1404 6.73777 17.929 6.96212 17.7137 7.17467C17.6902 7.13137 17.6472 7.04478 17.6237 7.00148C18.2187 6.1946 18.4575 5.18699 18.5045 4.19511C17.8742 4.19905 17.244 4.21086 16.6137 4.23447C16.5667 4.20298 16.4767 4.1282 16.4336 4.08884Z" fill="#8C8790"/>
<path d="M0.476562 2.73047C1.61577 2.73834 2.75889 2.72653 3.89809 2.74621C3.88243 2.93121 3.87069 3.11226 3.85894 3.29725C3.12688 3.29332 2.39872 3.32087 1.66666 3.32874C1.37305 3.32874 1.07944 3.30119 0.785831 3.34448C0.644898 3.40352 0.633154 3.59245 0.570517 3.71841L0.558773 3.74596C0.52354 3.4114 0.488307 3.0729 0.476562 2.73047Z" fill="#F6F3EE"/>
<path d="M3.8963 2.74261L3.90022 2.6875C4.06464 3.1795 4.20557 3.67544 4.33867 4.17925C3.6849 4.21861 3.03113 4.19499 2.37736 4.19106C2.46349 5.49388 3.00764 6.74946 3.91587 7.68229C3.81409 7.84761 3.73188 8.02473 3.73188 8.22547C3.68099 8.28844 3.63401 8.35535 3.58312 8.42227C3.10943 7.96962 2.73752 7.42645 2.38128 6.87935C1.75882 5.81269 1.6453 4.5453 1.65704 3.33301C2.38911 3.3212 3.11726 3.29758 3.84932 3.30152C3.8689 3.11259 3.88064 2.9276 3.8963 2.74261Z" fill="#8D868D"/>
<path d="M17.7272 2.77776L17.7467 2.74234C18.6002 2.71872 19.4536 2.73446 20.307 2.72266C20.307 3.12019 20.2992 3.5256 20.2444 3.9192C20.1817 3.69879 20.1387 3.47443 20.1152 3.24614C19.7942 3.22646 19.4732 3.26976 19.16 3.32486C18.5884 3.34848 18.0208 3.29338 17.4492 3.32093C17.5471 3.13987 17.641 2.95882 17.7272 2.77776Z" fill="#F9F4EE"/>
<path d="M6.44875 3.28524L6.51921 3.27344C6.55053 3.42694 6.58185 3.57651 6.61708 3.73001L6.63274 3.81267C6.66797 3.97404 6.70712 4.13936 6.73844 4.30467C6.75801 4.40701 6.77759 4.50541 6.80499 4.60774C6.67972 4.78093 6.55445 4.96198 6.50355 5.17453C6.39785 4.90294 6.02986 4.85571 5.95157 5.1824C5.93199 5.14304 5.89676 5.06432 5.8811 5.02496C5.6697 5.20995 5.46613 5.39888 5.26256 5.58781C5.12163 5.13517 5.01985 4.67466 4.875 4.22201C5.10989 4.21021 5.34477 4.18659 5.57966 4.16297C5.5366 4.07638 5.49745 3.98979 5.45439 3.90713C5.76366 3.84416 6.06901 3.76938 6.37828 3.70246C6.39785 3.55683 6.42134 3.41907 6.44875 3.28524Z" fill="#B0ABA6"/>
<path d="M6.51562 3.2738C6.91885 3.22263 7.3299 3.2305 7.73704 3.22656C7.39645 3.47453 6.99323 3.57293 6.61349 3.73037C6.57826 3.57687 6.54694 3.4273 6.51562 3.2738Z" fill="#D0A355"/>
<path d="M7.73682 3.22564C8.61765 3.21383 9.49847 3.24139 10.3793 3.23352C10.3793 3.43819 10.4106 3.6468 10.4772 3.8436H10.4106C10.2149 3.83966 10.0191 3.83179 9.8234 3.82785C9.36537 3.80817 8.90342 3.81998 8.44539 3.82392C7.84252 3.82392 7.23572 3.8003 6.63285 3.81211L6.61719 3.72945C6.99301 3.57201 7.39623 3.47361 7.73682 3.22564Z" fill="#CE9825"/>
<path d="M10.3828 3.22725C11.7178 3.22725 13.0488 3.20364 14.3837 3.23512C14.325 3.41618 14.2663 3.60117 14.2076 3.78223C13.6556 3.79797 13.1036 3.80585 12.5516 3.81765C11.8626 3.82946 11.1736 3.81372 10.4807 3.83733C10.4102 3.64053 10.3828 3.43586 10.3828 3.22725Z" fill="#B26A12"/>
<path d="M19.1572 3.32357C19.4704 3.26453 19.7914 3.22123 20.1124 3.24485C20.1359 3.47314 20.179 3.69749 20.2416 3.91791C20.222 4.81925 19.9245 5.70092 19.5761 6.52748C19.5095 6.44089 19.443 6.35429 19.3764 6.2677C19.1572 6.22047 18.9419 6.1693 18.7266 6.11813C18.797 5.96856 18.8714 5.819 18.8949 5.65369C19.0163 4.87829 19.1728 4.10683 19.1572 3.32357Z" fill="#CBC8C7"/>
<path d="M0.570312 3.72252C0.632949 3.59657 0.644694 3.40764 0.785626 3.3486C1.07924 3.30531 1.37284 3.33286 1.66645 3.33286C1.65471 4.54515 1.76824 5.81254 2.39069 6.8792C2.35546 7.18227 2.31631 7.48141 2.30456 7.78842C1.34153 6.65091 0.703415 5.21033 0.570312 3.72252Z" fill="#CFCACA"/>
<path d="M12.5444 3.82058C13.0963 3.80877 13.6483 3.8009 14.2003 3.78516C14.1847 3.856 14.1455 3.99376 14.1299 4.06068C14.0633 4.34407 14.0163 4.6314 13.9498 4.91479C13.7188 5.35169 13.6327 5.83975 13.6327 6.33175C13.5583 6.65844 13.4957 6.98906 13.4291 7.31575C13.3626 7.63063 13.2882 7.94552 13.202 8.25252C12.9398 8.70516 12.8262 9.23652 12.8536 9.76001C12.8458 9.79544 12.8301 9.86235 12.8223 9.89777C12.6422 10.6456 12.4661 11.3935 12.2312 12.1256C12.1333 11.8225 12.1607 11.5115 12.2547 11.2163C12.3251 10.9211 12.3995 10.622 12.4582 10.3229C12.5953 9.74427 12.7597 9.16961 12.8732 8.58315C12.8849 8.43752 12.9554 8.22103 12.7792 8.14625C12.4191 7.89434 11.9806 7.84318 11.5578 7.8235C11.2212 7.65819 10.9276 7.39447 10.5517 7.31182C10.5126 7.54798 10.4695 7.78414 10.4265 8.0203C10.3599 7.28033 10.4578 6.53249 10.4069 5.79252C10.4499 5.74922 10.5322 5.66657 10.5752 5.62327C10.9432 5.69412 11.3503 5.75316 11.6792 5.53668C11.8632 5.26116 11.8436 4.8833 12.0902 4.6432C12.3173 4.41491 12.4739 4.13546 12.5444 3.82058ZM12.3173 5.4737C12.2547 5.59966 12.2233 5.85943 12.4269 5.86336C12.6109 5.9106 12.5953 5.63901 12.607 5.52093C12.5326 5.50913 12.3917 5.48551 12.3173 5.4737ZM10.6261 7.21735C10.6927 7.20554 10.8297 7.1898 10.9001 7.17799C10.8727 7.04023 10.9315 6.86311 10.8258 6.75291C10.5322 6.69387 10.6418 7.05204 10.6261 7.21735Z" fill="#FC950D"/>
<path d="M6.63281 3.8119C7.23569 3.80009 7.84248 3.82371 8.44536 3.82371C8.38272 4.10317 8.32792 4.38656 8.28094 4.66995C7.83074 4.43379 7.39228 4.11497 6.86378 4.09923C6.83247 4.1504 6.76983 4.25273 6.73851 4.3039C6.70719 4.13465 6.66805 3.97328 6.63281 3.8119Z" fill="#FCE047"/>
<path d="M8.44567 3.82252C8.9037 3.81464 9.36565 3.80284 9.82368 3.82645C9.83934 4.12559 9.9607 4.52313 9.68666 4.74748C9.35782 4.96002 8.94285 4.85768 8.57877 4.82226C8.4809 4.77109 8.37912 4.71993 8.28125 4.66876C8.32431 4.38537 8.37912 4.10197 8.44567 3.82252ZM8.4535 4.27122C8.61009 4.42866 8.78234 4.62546 9.02506 4.6294C9.3265 4.51525 9.33433 4.12559 9.15816 3.8973C9.06421 3.8973 8.88021 3.90124 8.78626 3.90124C8.67273 4.01538 8.5592 4.13739 8.4535 4.27122Z" fill="#FEE47B"/>
<path d="M9.81913 3.82422C10.0149 3.83209 10.2106 3.83603 10.4063 3.83996C10.4103 4.46579 10.3555 5.09161 10.4024 5.7135L10.2967 5.67414C9.68211 5.47734 9.13013 5.13884 8.57031 4.82003C8.93439 4.85545 9.34936 4.95779 9.6782 4.74525C9.95615 4.51696 9.83479 4.12336 9.81913 3.82422Z" fill="#FDD85E"/>
<path d="M10.4112 3.83999H10.4778C11.1668 3.82031 11.8558 3.83212 12.5487 3.82031C12.4782 4.13519 12.3216 4.41465 12.0985 4.64687C11.8519 4.89091 11.8754 5.26876 11.6874 5.54035C11.3547 5.75683 10.9476 5.69385 10.5835 5.62694C10.5404 5.67023 10.4582 5.75289 10.4151 5.79619L10.4073 5.7096C10.3642 5.08771 10.4191 4.46188 10.4112 3.83999ZM11.4291 4.47762C11.4565 4.67442 11.6718 4.65474 11.8206 4.67442C11.848 4.62719 11.9028 4.53273 11.9302 4.48549C11.7853 4.37135 11.3782 4.09977 11.4291 4.47762Z" fill="#FBAB17"/>
<path d="M8.44922 4.26845C8.551 4.13856 8.66453 4.01655 8.78198 3.89847C8.87593 3.89847 9.05993 3.89453 9.15388 3.89453C9.33005 4.12282 9.32613 4.51249 9.02078 4.62663C8.78198 4.6227 8.60973 4.42196 8.44922 4.26845Z" fill="#F5FCF9"/>
<path d="M6.85965 4.09375C7.38814 4.10949 7.8266 4.42831 8.2768 4.66447C8.37467 4.71564 8.47254 4.7668 8.57433 4.81797C9.13414 5.13285 9.68613 5.47529 10.3007 5.67209C10.3125 6.14441 10.3203 6.61673 10.2929 7.08905C10.1676 7.03001 10.0385 6.97491 9.91318 6.91587C9.8114 6.95129 9.70962 6.98278 9.60783 7.0182C9.58826 6.90406 9.56868 6.78991 9.54911 6.6797C9.4395 6.64428 9.32988 6.61279 9.22027 6.5813C9.02061 6.54194 8.81704 6.53407 8.61347 6.53801C8.60564 6.44748 8.58999 6.27036 8.58216 6.17983C8.4608 6.17196 8.30421 6.06963 8.21808 6.19951C8.21025 6.28611 8.19068 6.45929 8.18285 6.54588C7.94013 6.79778 7.63478 6.98671 7.44687 7.28979C7.30593 6.68758 7.1376 6.0893 7.0593 5.47529C7.02407 5.17221 6.94577 4.87308 6.80093 4.60543C6.77744 4.50309 6.75395 4.40469 6.73438 4.30236C6.76569 4.24725 6.82833 4.14492 6.85965 4.09375Z" fill="#FCC810"/>
<path d="M13.9504 4.91661C14.013 4.63322 14.0639 4.34589 14.1304 4.0625C14.2087 4.70407 14.0091 5.31809 13.9425 5.94785C14.0795 5.94391 14.2205 5.94391 14.3575 5.93997C14.3732 6.00689 14.3849 6.07774 14.4006 6.14858C14.471 6.14071 14.5415 6.13678 14.612 6.1289C14.6315 6.23911 14.6511 6.34539 14.6707 6.45559C14.8077 6.42017 14.9447 6.38081 15.0817 6.34538C15.0269 6.5225 14.976 6.69962 14.9251 6.88068L14.8547 6.89643C14.3497 6.95547 13.9464 7.32545 13.4297 7.31364C13.4923 6.98302 13.5589 6.65633 13.6333 6.32964C13.7781 5.86913 13.8916 5.3968 13.9504 4.91661Z" fill="#7C7680"/>
<path d="M11.4262 4.47473C11.3754 4.09687 11.7825 4.36846 11.9273 4.48654C11.8999 4.53377 11.8451 4.62823 11.8177 4.67546C11.669 4.65185 11.4537 4.67546 11.4262 4.47473Z" fill="#F8CE51"/>
<path d="M6.4988 5.16835C6.54969 4.9558 6.67105 4.77475 6.80024 4.60156C6.82373 4.9558 6.89028 5.30217 6.949 5.65248C6.95292 5.94374 6.96075 6.23107 6.99989 6.5184C6.53403 6.54989 6.13864 6.85296 5.67278 6.89626C5.52402 6.4633 5.39092 6.02246 5.25781 5.58163C5.46138 5.38876 5.66886 5.20378 5.87635 5.01878C5.89592 5.05814 5.93116 5.13686 5.94682 5.17622C5.9703 5.22346 6.01728 5.32186 6.04077 5.37302C6.17779 5.37696 6.31089 5.37696 6.44791 5.38089C6.46357 5.32579 6.48706 5.21952 6.4988 5.16835Z" fill="#A8A19F"/>
<path d="M6.80469 4.60156C6.94953 4.86921 7.02783 5.16835 7.06306 5.47142C7.14527 6.08544 7.3097 6.68371 7.45063 7.28592C7.56024 7.73463 7.68552 8.17939 7.78339 8.63203C7.88517 9.20276 7.99478 9.76954 8.1044 10.3403C8.1318 10.4859 8.1592 10.6315 8.18269 10.7772C8.19052 10.974 8.17878 11.1668 8.17878 11.3636C8.03785 10.789 7.89691 10.2104 7.7873 9.62785C7.52892 8.29748 7.23923 6.97498 6.94562 5.64854C6.89081 5.30611 6.82818 4.9558 6.80469 4.60156Z" fill="#E7C259"/>
<path d="M15.0863 6.34873C15.2664 5.78588 15.4386 5.22304 15.6109 4.65625C15.6187 4.91996 15.6852 5.17187 15.7831 5.4159C15.6383 5.9512 15.4778 6.47862 15.2938 7.00211C15.2703 6.95881 15.2194 6.87616 15.1959 6.8368C15.1059 6.84861 15.0158 6.86435 14.9297 6.88403C14.9806 6.70691 15.0315 6.52585 15.0863 6.34873Z" fill="#A6A5A4"/>
<path d="M5.94922 5.17232C6.02751 4.84957 6.39551 4.89287 6.5012 5.16445C6.48946 5.21562 6.46597 5.32189 6.45031 5.37306C6.31329 5.36913 6.18019 5.36912 6.04317 5.36519C6.01969 5.32189 5.97271 5.22349 5.94922 5.17232Z" fill="#C1B7B2"/>
<path d="M13.6328 6.33493C13.6367 5.84293 13.7229 5.35487 13.9499 4.91797C13.8912 5.39816 13.7777 5.87048 13.6328 6.33493Z" fill="#E29D4D"/>
<path d="M12.3207 5.47266C12.3912 5.48446 12.536 5.50808 12.6104 5.51989C12.5987 5.63797 12.6182 5.90955 12.4303 5.86232C12.2268 5.85445 12.2581 5.59861 12.3207 5.47266Z" fill="#F8BD3F"/>
<path d="M7.0029 6.52217C6.96766 6.23484 6.95592 5.94358 6.952 5.65625C7.24561 6.97875 7.53531 8.30518 7.79368 9.63555C7.5862 9.8599 7.63318 10.1945 7.56271 10.4739C7.50007 10.5093 7.43352 10.5487 7.37089 10.5881C7.2691 10.4306 7.13991 10.4975 7.01855 10.5841C6.64665 9.93075 6.52138 9.17111 6.21994 8.48624C6.0242 7.96275 5.86369 7.42745 5.67578 6.90003C6.14164 6.85673 6.53312 6.5576 7.0029 6.52217ZM6.6858 8.02966C6.82281 8.07296 6.97941 8.10838 7.08902 7.98636C7.136 7.80924 7.05379 7.49436 6.81107 7.59276C6.59184 7.60851 6.70929 7.8919 6.6858 8.02966Z" fill="#99908E"/>
<path d="M10.3031 5.67188L10.4088 5.71124L10.4166 5.79783C10.4714 6.53779 10.3696 7.2817 10.4362 8.0256L10.4284 8.07284C10.401 8.12007 10.3422 8.2106 10.3109 8.25389C10.2639 8.1122 10.2091 7.9705 10.1582 7.8288C9.9077 8.0138 9.60234 7.82487 9.32831 7.91146C8.83896 8.0138 8.34178 8.09252 7.84069 8.03741C7.82112 8.23815 7.79763 8.43495 7.78588 8.63963C7.68801 8.18698 7.56274 7.74221 7.45312 7.29351C7.63712 6.99044 7.94639 6.80151 8.18911 6.5496C8.33004 6.54567 8.47489 6.54173 8.61582 6.54173C8.81939 6.5378 9.02296 6.54567 9.22261 6.58503C9.17563 6.75821 9.05036 6.9865 9.21087 7.14C9.34397 7.10458 9.47707 7.06522 9.61017 7.02586C9.71196 6.99044 9.81374 6.95895 9.91553 6.92352C10.0408 6.98256 10.1661 7.03767 10.2953 7.09671C10.3188 6.61258 10.3148 6.14026 10.3031 5.67188ZM7.85243 7.1282C7.91507 7.26989 7.90724 7.51393 8.10689 7.53754C8.35353 7.52574 8.28306 7.28564 8.2948 7.11639C8.14604 7.12032 8.0012 7.12426 7.85243 7.1282Z" fill="#FBBA13"/>
<path d="M8.21882 6.19994C8.30494 6.06611 8.46154 6.17238 8.58289 6.18026C8.59072 6.27078 8.60638 6.4479 8.61421 6.53843C8.47328 6.53843 8.32843 6.54237 8.1875 6.5463C8.19141 6.45971 8.21099 6.28653 8.21882 6.19994Z" fill="#F5D569"/>
<path d="M18.3892 6.81389C18.4988 6.57773 18.6123 6.34551 18.7258 6.11328C18.9412 6.16445 19.1565 6.21562 19.3757 6.26285C19.4422 6.34944 19.5088 6.43603 19.5754 6.52263C19.0782 7.47908 18.3539 8.36074 17.4261 8.90391C17.387 8.8921 17.3048 8.87242 17.2656 8.86455C17.2891 8.71498 17.3165 8.56148 17.3439 8.41191C17.8254 7.98289 18.0877 7.37281 18.3892 6.81389Z" fill="#B2AEB0"/>
<path d="M17.7067 7.17693C17.9259 6.96439 18.1334 6.74004 18.3291 6.50781C18.3448 6.5826 18.3683 6.74004 18.3839 6.81482C18.0864 7.37374 17.8202 7.98382 17.3387 8.41284C17.1625 8.57028 16.9746 8.71591 16.7906 8.86548C16.5087 8.71985 16.3404 9.04654 16.0859 9.06228C16.1016 8.89697 16.1447 8.73166 16.1956 8.57422C16.7319 8.1137 17.2251 7.59809 17.6166 7.00769C17.6401 7.05098 17.6832 7.13364 17.7067 7.17693Z" fill="#817C7E"/>
<path d="M9.2238 6.57812C9.33341 6.60961 9.44303 6.6411 9.55264 6.67653C9.57221 6.79067 9.59179 6.90088 9.61136 7.01502C9.47826 7.05832 9.34907 7.09768 9.21205 7.12917C9.05155 6.9796 9.17682 6.75525 9.2238 6.57812Z" fill="#EBE6AF"/>
<path d="M10.6289 7.21704C10.6445 7.05173 10.5349 6.69355 10.8246 6.75259C10.9342 6.8628 10.8755 7.03598 10.899 7.17768C10.8324 7.18949 10.6993 7.20917 10.6289 7.21704Z" fill="#F2AF46"/>
<path d="M14.9313 6.88707C15.0174 6.86739 15.1074 6.85165 15.1975 6.83984C15.221 6.88314 15.2718 6.96579 15.2953 7.00515C15.0683 7.69002 14.9391 8.40637 14.6416 9.06762C14.6063 8.98497 14.5398 8.81572 14.5045 8.73306C14.4184 8.86295 14.3362 8.98891 14.2501 9.11486L14.2109 8.99678C14.4458 8.30404 14.6611 7.60736 14.8608 6.90282L14.9313 6.88707Z" fill="#9A999A"/>
<path d="M2.39081 6.87891C2.74706 7.42601 3.11896 7.96918 3.59265 8.42182C4.20728 9.087 4.94326 9.60656 5.644 10.1733C5.64009 10.2206 5.63226 10.315 5.62834 10.3623C4.47348 9.57507 3.20509 8.88233 2.30469 7.78419C2.31643 7.48112 2.35558 7.17804 2.39081 6.87891Z" fill="#B2B0AF"/>
<path d="M13.4349 7.31956C13.9517 7.33137 14.3588 6.95745 14.8599 6.90234C14.6602 7.60295 14.4449 8.30357 14.21 8.9963C14.0339 9.4332 13.9204 9.88977 13.7559 10.3267C13.7403 10.2834 13.7129 10.1928 13.6972 10.1495C13.478 10.1299 13.2548 10.122 13.0356 10.1141C12.9651 10.0433 12.8947 9.97243 12.8281 9.90158C12.836 9.86616 12.8516 9.79925 12.8594 9.76382C13.0043 9.26789 13.1335 8.76801 13.2079 8.25633C13.294 7.94932 13.3684 7.63444 13.4349 7.31956Z" fill="#676375"/>
<path d="M7.85156 7.129C8.00032 7.12506 8.14517 7.12112 8.29393 7.11719C8.28219 7.28644 8.34874 7.52654 8.10602 7.53834C7.90637 7.51866 7.9142 7.27463 7.85156 7.129Z" fill="#F1DA7C"/>
<path d="M10.5546 7.3125C10.9304 7.39516 11.224 7.65887 11.5607 7.82418C11.9834 7.84386 12.4219 7.89503 12.7821 8.14694C12.9582 8.22172 12.8878 8.43426 12.876 8.58383C12.7625 9.1703 12.602 9.74495 12.4611 10.3235C12.4454 9.9575 12.0422 9.90633 11.7955 9.73708C11.545 9.56783 11.2357 9.61506 10.9539 9.55602C10.7855 9.49698 10.6407 9.39465 10.4841 9.30806C10.4723 9.25295 10.4528 9.13881 10.4449 9.0837C10.4136 8.74521 10.4097 8.40671 10.4175 8.06822L10.4254 8.02098C10.4763 7.78482 10.5154 7.54866 10.5546 7.3125Z" fill="#FB7D0B"/>
<path d="M6.68561 8.02584C6.70518 7.88808 6.58774 7.60469 6.81088 7.58895C7.0536 7.49055 7.13581 7.80543 7.08883 7.98255C6.98313 8.10456 6.82262 8.0652 6.68561 8.02584Z" fill="#B2A8A1"/>
<path d="M3.92259 7.67969C4.60768 8.35668 5.31626 9.03367 6.13836 9.54536C6.13445 9.48238 6.13053 9.36036 6.12662 9.29739C6.45938 10.0177 6.69818 10.7813 6.92915 11.5409C6.49852 11.1552 6.0679 10.7773 5.62553 10.4073L5.62944 10.368C5.63336 10.3207 5.64119 10.2263 5.6451 10.1791C4.94827 9.61227 4.20837 9.09271 3.59375 8.42753C3.64464 8.36062 3.69162 8.2937 3.74251 8.23073C3.73468 8.02212 3.81689 7.845 3.92259 7.67969Z" fill="#7D7779"/>
<path d="M9.32368 7.91078C9.60163 7.82419 9.90307 8.01312 10.1536 7.82812C10.2045 7.96982 10.2593 8.11152 10.3063 8.25322C10.2711 9.62688 10.4433 11.0124 10.2515 12.3821C10.0597 11.4453 10.3102 10.4771 10.1106 9.54422C9.73473 9.63082 9.35108 9.59146 8.97135 9.59146C8.63467 9.77645 8.39196 10.0953 8.10226 10.3432C7.99265 9.77251 7.87912 9.20573 7.78125 8.63501C7.79299 8.43427 7.81257 8.23354 7.83606 8.0328C8.33715 8.09184 8.83433 8.01312 9.32368 7.91078ZM9.26496 9.27658C9.34717 9.44583 9.55857 9.38285 9.70733 9.40253C9.67992 9.28051 9.74647 9.08765 9.59771 9.03254C9.44895 8.92233 9.18666 9.09552 9.26496 9.27658Z" fill="#FCAE0B"/>
<path d="M10.3077 8.25137C10.3351 8.20414 10.3938 8.11361 10.4251 8.07031C10.4173 8.40881 10.4212 8.7473 10.4525 9.0858C10.4721 10.8373 10.4251 12.5928 10.4251 14.3482V14.4073C10.3703 14.4033 10.2607 14.4033 10.2059 14.3994C10.1824 13.8956 10.2059 13.3879 10.202 12.884C10.2176 12.7148 10.2333 12.5456 10.2529 12.3802C10.4447 11.0144 10.2725 9.62897 10.3077 8.25137Z" fill="#FDB828"/>
<path d="M5.75781 8.27344C5.90657 8.37577 6.05534 8.48205 6.2041 8.58438L6.21193 8.48598C6.51728 9.17085 6.63864 9.92656 7.01055 10.5839C7.1319 10.4973 7.26109 10.4304 7.36288 10.5878C7.30024 10.6311 7.17497 10.7177 7.11233 10.7571C7.1319 10.8673 7.15148 10.9814 7.16714 11.0956C7.08101 11.4262 7.09276 11.7686 7.25718 12.0756C7.23369 12.0992 7.1828 12.1504 7.15539 12.174C7.05752 11.9693 6.97531 11.7607 6.92051 11.5443C6.69345 10.7846 6.45465 10.021 6.11797 9.30073C5.98487 8.96224 5.86743 8.61981 5.75781 8.27344Z" fill="#B8B4B4"/>
<path d="M12.8596 9.76531C12.8322 9.24182 12.9418 8.71045 13.208 8.25781C13.1336 8.76949 13.0044 9.2733 12.8596 9.76531Z" fill="#E19A4B"/>
<path d="M14.56 9.63694C15.1903 9.4362 15.6796 8.96388 16.1964 8.57422C16.1455 8.73166 16.1024 8.89304 16.0868 9.06228C16.3412 9.04654 16.5135 8.72379 16.7914 8.86548C16.4078 9.18824 16.028 9.51493 15.6405 9.82587C15.386 10.0424 15.0846 10.2431 14.9867 10.5816C14.7362 10.8965 14.3721 11.1208 14.0824 11.4081L13.9219 11.3885C14.1098 10.7981 14.3329 10.2155 14.56 9.63694Z" fill="#746F75"/>
<path d="M14.2499 9.11617C14.336 8.99022 14.4221 8.86033 14.5043 8.73438C14.5396 8.81703 14.6061 8.98628 14.6414 9.06894C14.4691 9.55306 14.3517 10.049 14.1677 10.5292C14.0072 11.0409 13.7331 11.525 13.7057 12.0721C13.5374 12.7216 13.2203 13.3277 13.048 13.9771C12.8719 14.0047 12.6918 14.0283 12.5156 14.0559C12.8484 12.7885 13.2947 11.5565 13.7527 10.3285C13.921 9.89156 14.0346 9.43105 14.2068 8.99809L14.2499 9.11617Z" fill="#84858C"/>
<path d="M9.26428 9.27466C9.18599 9.0936 9.44828 8.92041 9.59704 9.03062C9.7458 9.08572 9.67925 9.27859 9.70666 9.40061C9.55789 9.38093 9.34649 9.4439 9.26428 9.27466Z" fill="#EFE67B"/>
<path d="M10.4571 9.08594C10.4688 9.14104 10.4884 9.25519 10.4962 9.31029C10.5236 9.59762 10.5276 9.88495 10.5354 10.1762C10.5354 10.5698 10.5315 10.9674 10.5315 11.361C10.5824 11.8215 10.3788 12.4748 10.8603 12.7622C11.1657 12.7897 11.4867 12.7504 11.7764 12.8802C11.792 13.144 11.8077 13.4116 11.8155 13.6753C11.7529 13.8485 11.7372 14.1004 11.5258 14.1634C11.1774 14.2933 10.7977 14.3169 10.4297 14.3444C10.4297 12.5929 10.4767 10.8414 10.4571 9.08594Z" fill="#E23908"/>
<path d="M10.4922 9.31641C10.6449 9.403 10.7936 9.50533 10.962 9.56437C11.2438 9.62341 11.5531 9.57618 11.8036 9.74543C12.0503 9.91468 12.4535 9.96584 12.4692 10.3319C12.4065 10.631 12.3361 10.9262 12.2656 11.2254C12.0503 10.6979 11.3926 10.7885 10.9346 10.8278C10.7858 10.6232 10.684 10.3909 10.5353 10.1823C10.5235 9.89106 10.5196 9.5998 10.4922 9.31641Z" fill="#F9660A"/>
<path d="M8.98237 9.5902C9.36211 9.5902 9.74576 9.62562 10.1216 9.54297C10.3212 10.4797 10.0668 11.4441 10.2625 12.3808C10.2468 12.5501 10.2273 12.7154 10.2116 12.8846C10.1255 12.558 10.0824 12.2234 10.0785 11.8888C9.92192 11.7511 9.76925 11.6015 9.58917 11.4952C9.22901 11.5858 8.86493 11.6487 8.49302 11.5897C8.46562 11.4992 8.4343 11.4126 8.4069 11.326C8.66527 11.3142 8.97846 11.4008 9.18594 11.2C9.40909 11.015 9.36211 10.6726 9.28773 10.4286C9.21335 10.1649 8.8571 10.2633 8.65353 10.2751C8.46171 10.405 8.33643 10.6057 8.18767 10.7789C8.16418 10.6332 8.13678 10.4837 8.10938 10.342C8.40298 10.094 8.64179 9.7752 8.98237 9.5902Z" fill="#FD9F10"/>
<path d="M7.55956 10.4673C7.63003 10.1918 7.58696 9.85326 7.79053 9.62891C7.90015 10.2114 8.03716 10.79 8.18201 11.3647C8.38558 12.2857 8.6283 13.2028 8.92191 14.1002C8.65962 14.0097 8.18201 14.1435 8.13112 13.7696C7.82968 12.8682 7.53607 11.963 7.17199 11.0892C7.15242 10.975 7.13676 10.8648 7.11719 10.7507C7.17982 10.7074 7.3051 10.6208 7.36773 10.5814C7.43429 10.5421 7.49692 10.5066 7.55956 10.4673Z" fill="#86807C"/>
<path d="M12.8295 9.90234C12.8999 9.97319 12.9665 10.044 13.0369 10.1149C13.2562 10.1228 13.4793 10.1306 13.6985 10.1503C13.7142 10.1936 13.7416 10.2802 13.7573 10.3274C13.2992 11.5515 12.8529 12.7874 12.5202 14.0548C12.0269 14.1257 11.5337 14.2201 11.0482 14.3264C10.8447 14.3658 10.6372 14.3973 10.4297 14.413V14.354C10.7977 14.3264 11.1735 14.3028 11.5258 14.1729C11.7333 14.1099 11.7529 13.862 11.8155 13.6848C11.8782 13.4487 11.9408 13.2125 12.0034 12.9764C12.0896 12.6969 12.1796 12.4214 12.2422 12.1341C12.4732 11.398 12.6494 10.6502 12.8295 9.90234Z" fill="#555366"/>
<path d="M8.64946 10.2738C8.85303 10.262 9.20928 10.1635 9.28366 10.4273C9.35412 10.6752 9.40502 11.0137 9.18187 11.1987C8.97048 11.3995 8.66121 11.3129 8.40283 11.3247C8.43023 11.4113 8.46155 11.4979 8.48896 11.5884C8.71993 12.226 8.70035 12.9148 8.89609 13.5643C8.94699 13.7532 8.99396 13.9421 9.03311 14.131L8.91958 14.1035C8.62597 13.2061 8.38717 12.289 8.17969 11.368C8.17969 11.1712 8.19143 10.9783 8.1836 10.7815C8.33236 10.6044 8.45764 10.4036 8.64946 10.2738ZM8.44589 10.7067C8.45372 10.876 8.395 11.0924 8.59466 11.1712C8.79822 11.2105 8.99788 11.1397 9.17796 11.057C9.17796 10.9271 9.18579 10.7972 9.17013 10.6674C9.07617 10.502 8.87261 10.4627 8.70035 10.4469C8.61814 10.5375 8.53202 10.6241 8.44589 10.7067Z" fill="#FEB636"/>
<path d="M10.533 10.1758C10.6778 10.3805 10.7835 10.6166 10.9323 10.8213C11.3903 10.778 12.0519 10.6914 12.2633 11.2188C12.1694 11.514 12.1381 11.8289 12.2398 12.128C12.1772 12.4154 12.0872 12.6909 12.001 12.9703C11.9893 12.5413 12.001 12.1123 12.0128 11.6833C11.5234 11.5573 11.0223 11.4865 10.533 11.3645C10.5291 10.9669 10.533 10.5694 10.533 10.1758Z" fill="#F85508"/>
<path d="M8.44764 10.709C8.53376 10.6224 8.61989 10.5397 8.7021 10.4531C8.87435 10.4689 9.07792 10.5082 9.17187 10.6735C9.18753 10.8034 9.1797 10.9333 9.1797 11.0632C8.99571 11.1459 8.79997 11.2167 8.5964 11.1773C8.39674 11.0947 8.45547 10.8782 8.44764 10.709Z" fill="#F2F2E1"/>
<path d="M7.26791 12.0699C7.10349 11.7629 7.09175 11.4205 7.17787 11.0898C7.54195 11.9676 7.83164 12.8729 8.13699 13.7703C8.01955 13.845 7.89036 13.912 7.74943 13.908C7.58501 13.3216 7.37361 12.7508 7.14655 12.1919L7.17004 12.1683C7.19353 12.1447 7.24051 12.0935 7.26791 12.0699Z" fill="#B8B2B1"/>
<path d="M10.5325 11.3672C11.0218 11.4892 11.5229 11.5601 12.0123 11.686C12.0005 12.115 11.9927 12.5441 12.0005 12.9731C11.9379 13.2092 11.8753 13.4454 11.8126 13.6816C11.8048 13.4139 11.7891 13.1502 11.7735 12.8865C11.4838 12.7566 11.1628 12.796 10.8574 12.7684C10.3798 12.4811 10.5834 11.8277 10.5325 11.3672Z" fill="#EF4506"/>
<path d="M8.48438 11.5906C8.85628 11.6496 9.22036 11.5827 9.58052 11.4961C9.7606 11.6024 9.91327 11.7519 10.0699 11.8897C10.0738 12.2282 10.1168 12.5627 10.203 12.8855C10.2069 13.3893 10.1834 13.8931 10.2069 14.4009C9.80366 14.3694 9.42001 14.2474 9.03245 14.1332C8.98938 13.9443 8.94241 13.7514 8.89543 13.5664C8.69969 12.917 8.71926 12.2282 8.48438 11.5906Z" fill="#FC8E0B"/>
<path d="M7.74352 13.9112C7.88445 13.9151 8.01364 13.8482 8.13108 13.7734C8.18198 14.1474 8.65958 14.0096 8.92187 14.1041L9.0354 14.1316C9.41905 14.2458 9.80661 14.3678 10.2098 14.3993C10.2646 14.3993 10.3743 14.4032 10.4291 14.4071C10.6366 14.3914 10.844 14.3599 11.0476 14.3205C11.0515 14.3678 11.0593 14.4583 11.0633 14.5055C10.9771 14.5567 10.8871 14.6039 10.801 14.6551C10.6796 14.6708 10.5583 14.6905 10.433 14.7063C10.3743 15.218 10.3977 15.7375 10.4017 16.2531C10.3625 16.2452 10.2842 16.2295 10.2451 16.2216C10.2881 15.7257 10.2842 15.2337 10.2725 14.7378C9.41122 14.5646 8.57737 14.2654 7.70437 14.1434L7.59476 14.1237C7.66914 14.5606 7.77875 14.9975 7.81007 15.4423C7.73178 15.458 7.5791 15.4935 7.5008 15.5092C7.3951 14.9661 7.26983 14.4229 7.13281 13.8876C7.33638 13.8915 7.53995 13.9033 7.74352 13.9112Z" fill="#F7F6F5"/>
<path d="M13.0518 13.969C13.1027 13.9611 13.2005 13.9454 13.2553 13.9375C13.271 13.9887 13.3062 14.0949 13.3219 14.1461C13.271 14.1579 13.1692 14.1855 13.1183 14.2012C12.6016 14.3429 12.0731 14.4413 11.5524 14.5436C11.3058 14.5948 11.0552 14.6224 10.8047 14.6499C10.8947 14.5987 10.9809 14.5515 11.067 14.5003C11.0631 14.4531 11.0552 14.3626 11.0513 14.3154C11.5407 14.2091 12.03 14.1146 12.5233 14.0438C12.6955 14.0202 12.8717 13.9965 13.0518 13.969Z" fill="#D8D8D9"/>
<path d="M13.25 13.9375C13.3948 13.9375 13.5436 13.9375 13.6885 13.9414C13.5671 14.4925 13.4614 15.0514 13.297 15.5946C13.297 15.5591 13.297 15.4883 13.297 15.4568C13.2735 15.0199 13.3674 14.5869 13.3166 14.15C13.3009 14.0949 13.2657 13.9926 13.25 13.9375Z" fill="#F0F4F2"/>
<path d="M7.59398 14.1211L7.70359 14.1408C7.82887 14.4793 7.93065 14.8335 8.13814 15.1326C8.34954 15.4711 8.7097 15.6601 9.03462 15.8647C8.49438 15.8884 8.01678 15.605 7.48828 15.5617L7.49611 15.5105C7.57441 15.4948 7.72708 15.4593 7.80538 15.4436C7.77406 14.9949 7.66836 14.5619 7.59398 14.1211Z" fill="#AAA8B1"/>
<path d="M7.70312 14.1406C8.57612 14.2626 9.40997 14.5657 10.2712 14.735C10.2791 15.2309 10.2869 15.7229 10.2438 16.2188C9.83277 16.1401 9.42955 16.0142 9.03807 15.8646C8.70923 15.6599 8.35298 15.471 8.14158 15.1325C7.93018 14.8334 7.82448 14.4791 7.70312 14.1406Z" fill="#CFCBD0"/>
<path d="M13.1155 14.2035C13.1663 14.1917 13.2681 14.1642 13.319 14.1484C13.3699 14.5814 13.276 15.0183 13.2995 15.4552C13.1703 15.5142 13.045 15.5733 12.9158 15.6323C12.8023 15.5339 12.6496 15.4513 12.7083 15.2741C12.7475 14.8884 12.9432 14.546 13.1155 14.2035Z" fill="#9F9DA6"/>
<path d="M11.5477 14.5495C12.0723 14.4432 12.5968 14.3448 13.1136 14.207C12.9413 14.5455 12.7456 14.888 12.7104 15.2737C12.6477 15.4508 12.8004 15.5374 12.9179 15.6319C12.3424 15.8051 11.763 15.9586 11.1797 16.0884C11.395 15.7263 11.6573 15.3721 11.7004 14.9391C11.7591 14.7817 11.6221 14.6675 11.5477 14.5495Z" fill="#8D8690"/>
<path d="M10.7979 14.6571C11.0484 14.6295 11.299 14.598 11.5456 14.5508C11.6239 14.6689 11.757 14.783 11.6943 14.9404C11.6513 15.3734 11.389 15.7276 11.1737 16.0898C10.9153 16.1488 10.6569 16.2039 10.3985 16.2551C10.3946 15.7395 10.3711 15.2238 10.4299 14.7082C10.5551 14.6925 10.6765 14.6728 10.7979 14.6571Z" fill="#99929D"/>
<path d="M12.9156 15.6302C13.0448 15.5712 13.174 15.5161 13.2993 15.4531C13.2993 15.4885 13.2993 15.5555 13.2993 15.5909C13.2954 15.7641 13.2014 15.9412 13.0174 15.9727C12.7512 16.0199 12.6768 16.3033 12.532 16.4922C12.027 16.7008 11.4711 16.7323 10.9582 16.9094C10.7742 16.9606 10.6646 17.1299 10.5511 17.2676C10.5198 17.2401 10.4532 17.181 10.418 17.1535C10.4141 17.0315 10.4141 16.9094 10.4102 16.7914C10.4063 16.6103 10.4023 16.4293 10.4023 16.2482C10.6607 16.197 10.9191 16.1419 11.1775 16.0829C11.7608 15.9569 12.3402 15.8034 12.9156 15.6302Z" fill="#6D6772"/>
<path d="M7.48828 15.5625C8.01678 15.6058 8.49438 15.8892 9.03462 15.8656C9.4261 16.0151 9.82541 16.1411 10.2404 16.2198C10.2795 16.2277 10.3578 16.2434 10.397 16.2513C10.4009 16.4324 10.4048 16.6134 10.4048 16.7945C9.68448 16.641 8.95633 16.4638 8.31039 16.1017C8.05593 15.8813 7.60964 15.9404 7.48828 15.5625Z" fill="#918A92"/>
<path d="M8.10156 16.0469C8.15637 16.0626 8.26207 16.0902 8.31296 16.102C8.96282 16.4602 9.69097 16.6412 10.4074 16.7947C10.4113 16.9128 10.4113 17.0348 10.4152 17.1568C10.3995 17.9873 10.4426 18.8218 10.3721 19.6483C9.73403 19.6247 9.12332 19.424 8.48913 19.361L8.4304 19.3531C8.38734 19.298 8.34428 19.2429 8.30122 19.1878C8.46955 19.1012 8.61831 18.9792 8.6418 18.7785C8.77491 18.2038 8.95499 17.5859 8.78274 16.9994C8.72793 16.96 8.62614 16.8852 8.57134 16.8459L8.54393 16.8262C8.41866 16.5586 8.25032 16.3106 8.10156 16.0469ZM9.49523 17.2592C9.49131 17.4048 9.4874 17.5544 9.48348 17.7039C9.58527 17.7236 9.69097 17.7354 9.79667 17.7472C9.96892 17.7394 9.97283 17.5071 9.93368 17.3891C9.8593 17.2237 9.63616 17.2867 9.49523 17.2592ZM9.34255 18.6171C9.20945 18.7391 9.18987 18.9359 9.20162 19.1091C9.31123 19.2901 9.57744 19.2665 9.76143 19.2469C9.91411 19.113 9.88671 18.8887 9.91411 18.7076C9.73011 18.6446 9.53829 18.5738 9.34255 18.6171Z" fill="#C4BFBE"/>
<path d="M10.954 16.9172C11.4669 16.7401 12.0228 16.7047 12.5278 16.5C12.4847 16.6063 12.4416 16.7086 12.3986 16.8149L12.3594 16.8267C12.3281 16.8346 12.2694 16.8542 12.2381 16.8621C11.8427 17.4997 12.0854 18.2437 12.0932 18.9364C11.5804 18.3775 11.1067 17.7871 10.543 17.2754C10.6643 17.1376 10.7739 16.9723 10.954 16.9172Z" fill="#5F5B69"/>
<path d="M12.241 16.8596C12.2723 16.8518 12.331 16.8321 12.3623 16.8242C12.2762 17.269 12.1823 17.7374 12.3114 18.1821C12.3897 18.5561 12.5855 18.8946 12.6325 19.2764C12.6011 19.3 12.5346 19.3433 12.5033 19.3669C12.4406 19.3748 12.3154 19.3826 12.2527 19.3905C12.2018 19.237 12.147 19.0874 12.1 18.9339C12.0883 18.2412 11.8456 17.4973 12.241 16.8596Z" fill="#706A74"/>
<path d="M8.57481 16.8516C8.62961 16.8909 8.7314 16.9657 8.78621 17.0051C8.95846 17.5915 8.77446 18.2095 8.64527 18.7841C8.6257 18.9849 8.47302 19.1069 8.30469 19.1935C8.3086 18.7015 8.56698 18.2646 8.61787 17.7844C8.67268 17.4774 8.62961 17.1625 8.57481 16.8516Z" fill="#E1DEDD"/>
<path d="M10.4143 17.1602C10.4457 17.1877 10.5122 17.2467 10.5475 17.2743C11.1112 17.782 11.5849 18.3764 12.0977 18.9353C12.1486 19.0888 12.1995 19.2384 12.2504 19.3919C11.6436 19.443 11.0525 19.6005 10.4457 19.6477C10.4339 19.7107 10.4104 19.8406 10.3987 19.9036C9.77624 19.8445 9.12638 19.7894 8.56657 19.4785L8.49219 19.3683C9.12638 19.4273 9.73709 19.632 10.3752 19.6556C10.4378 18.8251 10.3948 17.9907 10.4143 17.1602Z" fill="#817E85"/>
<path d="M9.49221 17.2617C9.62923 17.2893 9.85629 17.2263 9.93067 17.3877C9.96982 17.5057 9.9659 17.7419 9.79365 17.7458C9.68795 17.738 9.58617 17.7222 9.48047 17.7025C9.48438 17.5569 9.4883 17.4074 9.49221 17.2617Z" fill="#EAE0DB"/>
<path d="M9.34165 18.6188C9.53739 18.5755 9.72529 18.6464 9.90929 18.7054C9.88189 18.8865 9.90929 19.1108 9.75661 19.2446C9.57262 19.2683 9.31033 19.2919 9.1968 19.1069C9.18897 18.9376 9.20854 18.7369 9.34165 18.6188Z" fill="#EFEBE4"/>
<path d="M10.4454 19.6505C11.0522 19.5994 11.6433 19.4459 12.2501 19.3947C12.3128 19.3868 12.438 19.379 12.5007 19.3711C12.4733 19.438 12.4185 19.5679 12.3911 19.6348C11.7256 19.7057 11.0718 19.8867 10.3984 19.9064C10.4102 19.8395 10.4337 19.7135 10.4454 19.6505Z" fill="#5D5B65"/>
<path d="M8.56568 19.4766C9.12158 19.7875 9.77535 19.8426 10.3978 19.9017C10.4017 19.9764 10.4056 20.1221 10.4095 20.1969C10.3665 20.2205 10.2764 20.2677 10.2334 20.2913C9.73229 20.1575 9.23119 20.0473 8.7301 19.9213C8.32296 20.248 7.85319 20.4802 7.45388 20.8148C7.40298 20.8109 7.30511 20.803 7.25422 20.803C7.21899 20.7991 7.14461 20.7991 7.10938 20.7951C7.10938 20.6613 7.16418 20.5432 7.27771 20.4763C7.68876 20.1339 8.18594 19.878 8.56568 19.4766Z" fill="#F8F9F0"/>
<path d="M10.3951 19.9044C11.0685 19.8808 11.7222 19.7037 12.3877 19.6328C12.7362 19.8099 13.0493 20.0422 13.3704 20.2626C12.9867 20.172 12.6305 19.9083 12.2233 20.0067C11.6244 20.113 11.0293 20.2153 10.4225 20.2862C10.4304 20.6404 10.4264 20.9986 10.4108 21.3568V21.4276C10.3168 21.404 10.219 21.3883 10.125 21.3725C10.172 21.0183 10.2072 20.6601 10.2307 20.3019C10.2738 20.2783 10.3638 20.2311 10.4069 20.2075C10.403 20.1248 10.399 19.9752 10.3951 19.9044Z" fill="#DCD8CF"/>
<path d="M7.44531 20.8232C7.84462 20.4886 8.3144 20.2564 8.72153 19.9297C9.22263 20.0556 9.72764 20.1658 10.2248 20.2997C10.2013 20.6578 10.1661 21.016 10.1191 21.3703C9.86074 21.3388 9.59845 21.3191 9.34007 21.2994C8.70196 21.1813 8.03645 21.1223 7.44531 20.8232Z" fill="#D2CDC3"/>
<path d="M10.4219 20.2855C11.0248 20.2186 11.6237 20.1123 12.2227 20.006C12.6299 19.9076 12.99 20.1713 13.3697 20.2619C13.6164 20.2934 13.6046 20.5846 13.6594 20.7696C13.5146 20.7775 13.3697 20.7814 13.2327 20.8247C12.3206 21.1239 11.3693 21.3285 10.4062 21.3561C10.4258 20.9979 10.4337 20.6397 10.4219 20.2855Z" fill="#959197"/>
<path d="M13.2366 20.8207C13.3736 20.7774 13.5185 20.7696 13.6633 20.7656C13.6633 20.8522 13.6673 21.0254 13.6673 21.1081C13.0252 21.2301 12.4302 21.5292 11.7686 21.5568C11.7803 21.5961 11.8038 21.6709 11.8156 21.7103C11.3497 21.6867 10.8799 21.6709 10.4141 21.663C10.4141 21.6001 10.4141 21.478 10.4141 21.4151V21.3442C11.3732 21.3245 12.3245 21.1199 13.2366 20.8207Z" fill="#776262"/>
<path d="M7.10366 20.8047C7.13889 20.8047 7.21327 20.8086 7.24851 20.8126C7.25242 20.8952 7.26025 21.0527 7.26417 21.1353C7.59301 21.2455 7.92577 21.3557 8.27027 21.4187C8.97493 21.5643 9.69134 21.6431 10.4117 21.6745C10.8775 21.6824 11.3473 21.6982 11.8132 21.7218C11.9071 21.7257 12.095 21.7336 12.189 21.7375C11.6018 21.8517 11.0028 21.8359 10.4077 21.8713C8.88098 21.8832 7.35029 21.7178 5.82352 21.8517C5.65127 22.0406 5.69434 22.3633 5.6317 22.6074C5.51426 23.3867 5.36158 24.1621 5.23631 24.9414C5.2089 25.1146 5.18541 25.2878 5.16584 25.461C5.15018 25.6066 5.13452 25.7522 5.11886 25.8979C4.8644 25.9018 4.60602 25.9018 4.35156 25.9097L4.35939 25.827C4.6804 24.2566 4.97793 22.6822 5.29503 21.1117C5.90573 21.0645 6.52036 21.1196 7.13498 21.092C7.12323 21.0172 7.11149 20.8755 7.10366 20.8047Z" fill="#FAEAB8"/>
<path d="M7.25 20.8047C7.30089 20.8086 7.39876 20.8165 7.44965 20.8165C8.03687 21.1156 8.7063 21.1747 9.34441 21.2888C8.98425 21.3046 8.61235 21.277 8.26785 21.4108C7.92334 21.3479 7.5945 21.2376 7.26174 21.1274C7.26174 21.0487 7.25391 20.8873 7.25 20.8047Z" fill="#AFA38F"/>
<path d="M11.7686 21.5564C12.4302 21.5289 13.0253 21.2258 13.6673 21.1077C14.278 21.0644 14.8965 21.0723 15.5072 21.1077C15.6795 22.0012 15.8713 22.8868 16.0945 23.7685C16.2706 24.4966 16.4233 25.2327 16.6308 25.9529C14.552 25.9372 12.4772 25.9096 10.3984 25.9057C10.4063 25.8152 10.418 25.6381 10.4219 25.5515C11.1892 25.4964 11.9604 25.5475 12.7277 25.4806C13.5538 25.4019 14.3876 25.4846 15.2097 25.3507C15.1667 25.0162 15.1158 24.6816 15.0531 24.3549C14.9435 23.7448 14.7947 23.1426 14.6734 22.5404C14.6851 22.3436 14.6969 22.1429 14.7086 21.9461C14.4228 21.647 13.9961 21.7257 13.6242 21.7257C13.1427 21.7335 12.6612 21.7178 12.1836 21.7375C12.0896 21.7335 11.9017 21.7257 11.8078 21.7217C11.8038 21.6745 11.7804 21.5958 11.7686 21.5564Z" fill="#814F3A"/>
<path d="M8.26953 21.4111C8.61403 21.2773 8.98594 21.3048 9.3461 21.2891C9.60447 21.3087 9.86677 21.3284 10.1251 21.3599C10.2191 21.3757 10.317 21.3953 10.4109 21.415C10.4109 21.478 10.4109 21.6 10.4109 21.663C9.6906 21.6354 8.97419 21.5607 8.26953 21.4111Z" fill="#9D8F6F"/>
<path d="M12.1875 21.7334C12.669 21.7137 13.1466 21.7294 13.6281 21.7216C14 21.7255 14.4267 21.6468 14.7125 21.942C14.7008 22.1388 14.689 22.3356 14.6773 22.5363C13.2562 22.4182 11.8312 22.5953 10.4062 22.5402C10.4062 22.3159 10.4062 22.0915 10.4062 21.8711C11.0013 21.8278 11.6003 21.8475 12.1875 21.7334Z" fill="#D29160"/>
<path d="M5.82464 21.8455C7.34749 21.7117 8.88209 21.877 10.4089 21.8652C10.4089 22.0856 10.4089 22.31 10.4089 22.5343V22.617C8.81554 22.5776 7.22613 22.6603 5.63281 22.5973C5.69545 22.3533 5.65239 22.0345 5.82464 21.8455Z" fill="#F6B459"/>
<path d="M10.4007 22.5337C11.8218 22.5888 13.2507 22.4117 14.6717 22.5298C14.797 23.1359 14.9419 23.7381 15.0515 24.3443C14.6052 24.4151 14.1472 24.3049 13.7244 24.5096C12.6204 24.6237 11.5086 24.7025 10.4007 24.7458C10.3929 24.0373 10.4085 23.3249 10.4007 22.6164V22.5337Z" fill="#B5744F"/>
<path d="M5.23438 24.9356C5.35965 24.1563 5.51233 23.3809 5.62977 22.6016C7.21917 22.6645 8.81249 22.5819 10.4058 22.6212C10.4136 23.3297 10.398 24.0421 10.4058 24.7506V24.8569C9.74421 24.8451 9.0787 24.8726 8.4171 24.9238C7.35619 24.9671 6.29528 24.9474 5.23438 24.9356ZM6.44404 24.1091C6.69459 24.6129 7.49712 24.4987 7.74767 24.05C7.59499 23.7784 7.36011 23.4832 7.0156 23.5187C6.71417 23.5029 6.3266 23.7784 6.44404 24.1091Z" fill="#E7A04D"/>
<path d="M6.44731 24.1089C6.32986 23.7783 6.71743 23.5028 7.01886 23.5185C7.36337 23.4831 7.59825 23.7783 7.75093 24.0499C7.49647 24.4986 6.69394 24.6127 6.44731 24.1089Z" fill="#D08A47"/>
<path d="M13.7297 24.5091C14.1525 24.3083 14.6106 24.4146 15.0568 24.3438C15.1195 24.6744 15.1704 25.005 15.2134 25.3396C14.3913 25.4773 13.5575 25.3947 12.7315 25.4694C11.9642 25.5403 11.1929 25.4852 10.4256 25.5403C10.4178 25.6308 10.4061 25.8079 10.4022 25.8945C8.6405 25.8867 6.87884 25.8709 5.11719 25.8827C5.13285 25.7371 5.14459 25.5875 5.16417 25.4458C6.90625 25.4694 8.65224 25.5246 10.3982 25.4655C10.4022 25.2569 10.4061 25.0483 10.4061 24.8436V24.7374C11.5179 24.7019 12.6258 24.6232 13.7297 24.5091Z" fill="#A56544"/>
<path d="M8.41725 24.9212C9.07885 24.87 9.74045 24.8425 10.406 24.8543C10.406 25.0629 10.4021 25.2676 10.3981 25.4762C8.65605 25.5313 6.91006 25.4762 5.16406 25.4565C5.18364 25.2833 5.21104 25.1101 5.23453 24.9369C6.29935 24.9487 7.36026 24.9684 8.41725 24.9212Z" fill="#D78A43"/>
</svg>
