<svg width="21" height="26" viewBox="0 0 21 26" fill="none" xmlns="http://www.w3.org/2000/svg">
<path d="M7.32697 11.7517C7.17429 11.8186 6.89634 11.6927 7.08034 11.5234C7.17429 11.5903 7.2565 11.6651 7.32697 11.7517Z" fill="#FCD977"/>
<path d="M12.7681 11.529C12.9991 11.2102 13.2809 10.8599 13.692 10.793C13.4101 11.1984 13.0852 11.5684 12.8073 11.9698L12.9795 11.9069C12.4549 12.2887 12.1183 12.8672 11.6798 13.3396C11.6681 13.2963 11.6446 13.2097 11.6289 13.1664C12.0321 12.635 12.4236 12.0997 12.7681 11.529Z" fill="#59B3EF"/>
<path d="M9.51562 11.2726C9.55869 11.1309 9.55477 10.9459 9.70745 10.8751C9.86404 10.8711 9.92276 11.0601 9.93451 11.186C9.86796 11.3985 9.67222 11.3001 9.51562 11.2726Z" fill="#9EFBF8"/>
<path d="M8.35083 11.7051C8.24121 11.4532 8.10028 11.1423 8.35083 10.9219C8.4487 11.0793 8.55048 11.2328 8.64444 11.3942C8.57397 11.5241 8.48002 11.6382 8.35083 11.7051Z" fill="#CCFFF6"/>
<path d="M9.48701 11.668C9.63578 11.6837 9.78062 11.7231 9.91764 11.79C9.84326 11.9317 9.75714 12.0812 9.60054 12.1482C9.52225 11.9986 9.45961 11.8412 9.48701 11.668Z" fill="#9CFBF7"/>
<path d="M7.83594 12.1314C8.03168 11.9937 8.24308 11.8717 8.47405 11.7969C8.63847 12.0448 8.83812 12.2731 8.95948 12.5447C9.00254 12.7651 8.86944 12.9777 8.81464 13.1863C8.48188 12.8439 8.18435 12.4621 7.83594 12.1314Z" fill="#89F4F9"/>
<path d="M10.9382 12.4146C11.1026 12.3674 11.2748 12.3556 11.4432 12.3398C11.4353 12.3989 11.4275 12.513 11.4197 12.5681C11.3923 12.5996 11.3296 12.6705 11.3022 12.702C11.1731 12.7492 11.04 12.7885 10.9068 12.8318C10.9499 12.8633 11.04 12.9302 11.083 12.9617C10.9382 13.0798 10.7855 13.1979 10.6328 13.3081C10.7189 13.009 10.8011 12.702 10.9382 12.4146Z" fill="#5DD8F1"/>
<path d="M12.8509 4.48707C13.1288 4.21943 13.4146 3.95571 13.6808 3.67232L13.8374 3.61328C13.2737 4.32176 12.5573 4.88461 11.9818 5.58128C11.9622 5.60096 11.9231 5.63245 11.9074 5.65213C11.8878 5.67181 11.8487 5.71117 11.8252 5.73085C11.8056 5.75053 11.7704 5.78596 11.7547 5.80564C11.7352 5.82925 11.6921 5.87255 11.6686 5.89617C11.6373 5.93159 11.5668 5.9985 11.5355 6.03393C11.5238 6.04573 11.5042 6.06541 11.4924 6.07722C11.3907 6.17956 11.2889 6.28189 11.1871 6.38423C10.9013 6.62433 10.6351 6.8841 10.365 7.14388C10.0831 6.93527 9.83257 6.69518 9.58594 6.44721L9.74253 6.50231C9.91869 6.67156 10.1105 6.829 10.318 6.96676C10.4198 6.829 10.5255 6.69124 10.6273 6.55348C10.7917 6.45508 10.96 6.36061 11.097 6.22679C11.6921 5.65607 12.2911 5.09322 12.8509 4.48707Z" fill="#322E51"/>
<path d="M19.1089 2.82812C19.1363 2.82812 19.1912 2.83206 19.2186 2.83206C19.2107 3.00131 19.2029 3.17449 19.1912 3.34374C19.1403 4.27264 18.8662 5.17399 18.5256 6.03203C18.3495 6.44532 18.1498 6.84679 17.9306 7.23645C17.5352 7.93313 16.991 8.51959 16.4899 9.14148C16.4156 9.21626 16.3412 9.29498 16.2629 9.36977C16.0828 9.46817 15.8988 9.56263 15.7266 9.66891C17.59 7.86228 18.8075 5.41015 19.1089 2.82812Z" fill="#FDE68C"/>
<path d="M3.5625 0C5.90354 0.027552 8.2485 0.00787207 10.5895 0.0157441C10.7305 0.0551042 10.8675 0.102336 11.0084 0.145632C10.7187 0.153504 10.429 0.181056 10.1668 0.310945C9.18805 0.362113 8.20544 0.322753 7.22283 0.330625C7.1876 0.429025 7.14845 0.527425 7.11322 0.629761C6.98794 0.527425 6.85875 0.429025 6.72956 0.334561C5.87222 0.460513 4.99531 0.558913 4.21627 0.972194C4.12623 0.905282 4.0401 0.838369 3.95398 0.767521C3.907 0.499873 3.95398 0.11808 3.61731 0.0314879L3.5625 0Z" fill="#FEFEF4"/>
<path d="M10.5908 0.0167129C12.7557 -0.00296709 14.9244 0.0167127 17.0893 0.0127767C17.0658 0.0639448 17.0149 0.162345 16.9915 0.213513C16.8035 0.225321 16.6156 0.233193 16.4277 0.241065C15.77 0.256809 15.1124 0.260745 14.4547 0.264681C13.0806 0.229257 11.7143 0.311913 10.3402 0.307977H10.1641C10.4264 0.178089 10.716 0.150537 11.0057 0.142665C10.8687 0.103305 10.7278 0.056073 10.5908 0.0167129Z" fill="#FEF7D0"/>
<path d="M17.089 0.0117484L17.0929 0.0078125C17.0694 0.303013 17.0616 0.598214 17.0694 0.893414C17.0733 1.08234 17.0733 1.27127 17.0733 1.4602C17.0694 1.72391 17.0616 1.98762 17.0537 2.2474C17.0498 2.43633 17.0498 2.62919 17.0537 2.82206C17.0616 3.22353 17.0772 3.625 17.0537 4.02648C16.5722 3.68404 16.0046 3.48724 15.5505 3.10151C15.0259 2.73153 14.6422 2.21591 14.286 1.68849C14.192 1.79476 14.0707 1.88529 14.0119 2.01911C14.055 2.33006 14.3721 2.55441 14.3917 2.87716C14.1764 3.16843 13.7614 3.28257 13.6831 3.67617C13.4169 3.95956 13.1311 4.21934 12.8532 4.49092C12.9236 3.98318 13.1546 3.51873 13.2172 3.00705C12.8258 3.2314 12.5282 3.57777 12.2151 3.90052C11.5887 4.46337 10.9702 5.03016 10.3242 5.56939C10.3242 5.51822 10.3281 5.41982 10.3281 5.36865C10.3477 4.88846 10.336 4.40433 10.3477 3.92414C10.336 3.79819 10.3908 3.68404 10.4965 3.61319C11.7531 2.55834 12.9628 1.44839 14.2508 0.436837C15.0768 0.881606 15.7227 1.58615 16.4156 2.20804C16.4626 1.55466 16.4156 0.89735 16.4313 0.243973C16.6192 0.236101 16.8071 0.228229 16.995 0.216421C17.0146 0.161317 17.0655 0.0629165 17.089 0.0117484Z" fill="#AF5E22"/>
<path d="M7.22289 0.328274C8.20551 0.324338 9.18812 0.359762 10.1668 0.308594H10.343C10.3469 1.46184 10.3704 2.61903 10.3273 3.77228C9.9515 3.48889 9.65006 3.12677 9.32122 2.79615C8.70268 2.1349 8.04891 1.51301 7.39514 0.891123C7.30119 0.800595 7.21115 0.714003 7.11328 0.627411C7.14851 0.52901 7.18375 0.43061 7.22289 0.328274Z" fill="#FCD977"/>
<path d="M15.7285 9.66632C15.9007 9.56005 16.0847 9.46559 16.2648 9.36719C15.5797 10.1229 14.7693 10.7448 13.9551 11.3509C13.681 11.5556 13.3992 11.7563 13.0703 11.8666C14.0059 11.1974 14.9142 10.485 15.7285 9.66632Z" fill="#FCD977"/>
<path d="M10.3412 0.309956C11.7114 0.313892 13.0816 0.231236 14.4556 0.26666C14.3852 0.321764 14.3186 0.376868 14.2482 0.431972C12.9563 1.44746 11.7505 2.55742 10.4939 3.60833C10.3882 3.67524 10.3373 3.79332 10.3451 3.91927C10.3334 4.39947 10.349 4.8836 10.3255 5.36379C9.80096 4.83243 9.23332 4.3483 8.65001 3.88779C7.88663 3.20292 7.10759 2.5338 6.41467 1.77415C6.32071 1.66788 6.23067 1.56161 6.13672 1.45533C6.45773 1.09716 6.91968 0.939717 7.38554 0.888549C8.03931 1.51044 8.69308 2.13626 9.31161 2.79358C9.64045 3.1242 9.94189 3.49025 10.3177 3.76971C10.3686 2.62039 10.3451 1.46321 10.3412 0.309956Z" fill="#FCA411"/>
<path d="M14.4575 0.265803C15.1152 0.261867 15.7729 0.253996 16.4305 0.242188C16.4149 0.895565 16.4619 1.55288 16.4149 2.20625C15.7259 1.58437 15.076 0.875885 14.25 0.435052C14.3205 0.376012 14.387 0.320908 14.4575 0.265803Z" fill="#C16E24"/>
<path d="M4.21538 0.969664C4.99443 0.556384 5.87525 0.457983 6.72868 0.332031C6.85787 0.426495 6.99097 0.52096 7.11233 0.627232C7.20628 0.713824 7.30024 0.804352 7.39419 0.890944C6.92833 0.938176 6.46639 1.09562 6.14538 1.45773C5.79304 1.77655 5.40548 2.04813 5.01792 2.32365C4.66559 2.55588 4.31325 2.81959 3.88654 2.87863C3.80042 2.67002 3.71038 2.46141 3.62425 2.2528C3.56161 2.02845 3.56553 1.79229 3.57727 1.56007C3.74169 1.47347 3.9022 1.3672 4.01182 1.2137C4.07445 1.13498 4.141 1.05232 4.21538 0.969664Z" fill="#FBB618"/>
<path d="M3.3901 1.4392C3.61716 1.44707 3.81682 1.32505 4.00473 1.21484C3.89511 1.36835 3.73461 1.47462 3.57019 1.56121C3.55844 1.79344 3.55453 2.02566 3.61716 2.25395C3.5467 2.26969 3.40577 2.30512 3.3353 2.32086C2.54451 2.25789 1.74981 2.30905 0.959021 2.30118C0.998169 2.48224 1.04123 2.66329 1.07646 2.84435C1.30352 4.71395 2.05125 6.47728 3.07692 8.04382C3.01428 8.15796 2.95165 8.26817 2.88901 8.38231C2.83029 8.28391 2.77548 8.18551 2.72068 8.08711C2.65804 8.18551 2.59932 8.28391 2.53668 8.38231C2.1178 7.75255 1.7733 7.07949 1.38965 6.42612C1.10778 5.9538 0.95902 5.40276 0.610603 4.96979C0.320909 4.21014 0.14866 3.39539 0.046875 2.58457C0.0625342 2.19491 -0.000103448 1.78556 0.226954 1.4392C1.28395 1.41164 2.33703 1.45494 3.3901 1.4392Z" fill="#FCC62E"/>
<path d="M17.0743 1.4581C18.1391 1.4463 19.2039 1.43055 20.2687 1.47385C20.2218 1.83203 20.1709 2.1902 20.163 2.55231C19.979 2.58774 19.8185 2.51295 19.6776 2.40275C19.5523 2.30435 19.3996 2.26105 19.247 2.26892C18.5149 2.25711 17.7868 2.29254 17.0547 2.24531C17.0625 1.98159 17.0703 1.72182 17.0743 1.4581Z" fill="#FCBD26"/>
<path d="M6.14101 1.45703C6.23497 1.5633 6.32501 1.66958 6.41896 1.77585C5.96485 2.27178 5.49116 2.75591 4.9744 3.18887C4.55944 3.54311 4.05443 3.75566 3.60814 4.05873C3.61206 3.65332 3.5964 3.24398 3.56508 2.84251L3.55334 2.72836C3.16186 2.689 2.74297 2.74804 2.38281 2.55518C2.70383 2.48039 3.02092 2.40954 3.33802 2.32295C3.40849 2.30721 3.54942 2.27178 3.61989 2.25604C3.70993 2.46465 3.79997 2.66932 3.88218 2.88187C4.30889 2.82283 4.66514 2.55911 5.01355 2.32689C5.40112 2.04743 5.78868 1.77585 6.14101 1.45703Z" fill="#F39612"/>
<path d="M20.2659 1.47656C20.4499 1.49624 20.6378 1.51986 20.8218 1.54348C20.7474 2.02367 20.7317 2.51173 20.626 2.98405C20.5556 2.7597 20.4734 2.53928 20.3951 2.31887C20.3129 2.49205 20.2267 2.6613 20.1484 2.83449C20.1524 2.76364 20.1563 2.62194 20.1602 2.55109C20.1719 2.19292 20.2189 1.83474 20.2659 1.47656Z" fill="#C9842E"/>
<path d="M14.0124 2.01812C14.0751 1.88824 14.1925 1.79377 14.2865 1.6875C14.6427 2.21099 15.0264 2.73054 15.551 3.10053C16.0051 3.48232 16.5727 3.68306 17.0542 4.02549L17.0307 4.11995C16.8468 4.11602 16.6628 4.10814 16.4827 4.08846C16.1069 3.98613 15.7389 3.8523 15.3865 3.69486C15.0264 3.54136 14.7719 3.23435 14.4587 3.00606C14.2434 3.20286 14.0398 3.41147 13.8363 3.62008L13.6797 3.67912C13.7619 3.28552 14.173 3.17137 14.3883 2.88011C14.3726 2.55342 14.0555 2.32907 14.0124 2.01812Z" fill="#8C4C21"/>
<path d="M4.97954 3.18646C5.4963 2.7535 5.96607 2.26937 6.4241 1.77344C7.11702 2.52915 7.89215 3.20221 8.65945 3.88707C8.70642 4.02483 8.72991 4.16653 8.74166 4.31216C8.29537 3.90282 7.84126 3.49741 7.39105 3.08806C7.16008 2.87552 6.92128 2.67478 6.67856 2.47405C6.56895 2.59213 6.45933 2.71021 6.35755 2.83222C6.31449 2.88733 6.27143 2.94243 6.23228 2.99754C6.25577 3.06445 6.29883 3.19827 6.3184 3.26518C6.25576 3.26912 6.13049 3.27306 6.06394 3.27699C5.55893 3.75325 4.97171 4.28855 4.22399 4.19802C4.02042 4.19408 3.81685 4.18621 3.61328 4.17834C3.6172 4.14685 3.6172 4.08781 3.62111 4.06026C4.05957 3.75325 4.56458 3.5407 4.97954 3.18646Z" fill="#B76826"/>
<path d="M17.0498 2.24609C17.778 2.29333 18.51 2.2579 19.2421 2.26971C19.3948 2.26184 19.5514 2.30513 19.6727 2.40353C19.5749 2.74597 19.4183 3.06872 19.1873 3.34424C19.199 3.17499 19.2069 3.00181 19.2147 2.83256C19.1873 2.83256 19.1325 2.82862 19.1051 2.82862C18.42 2.80894 17.7349 2.81288 17.0498 2.82075C17.0459 2.62789 17.0459 2.43896 17.0498 2.24609Z" fill="#DB811E"/>
<path d="M0.960938 2.30125C1.75173 2.30913 2.54643 2.25796 3.33722 2.32093C3.02012 2.40753 2.70302 2.47838 2.38201 2.55316C2.74217 2.74602 3.16105 2.68698 3.55253 2.72634L3.56427 2.84049C2.90267 2.84836 2.24107 2.84836 1.58339 2.82081C1.42288 2.73422 1.27021 2.63582 1.11362 2.53742C1.10579 2.6122 1.08621 2.76964 1.07447 2.84442C1.04315 2.65943 1.00009 2.47838 0.960938 2.30125Z" fill="#E28C20"/>
<path d="M20.3916 2.31641C20.4699 2.53682 20.5521 2.75724 20.6225 2.98159C20.4855 4.12303 20.1254 5.23692 19.6947 6.29965C19.3502 7.06323 18.9862 7.83075 18.4851 8.50775C18.3833 8.11414 18.6925 7.77171 18.8178 7.42141C19.0136 6.92941 19.4285 6.45709 19.2837 5.89424C19.2798 5.85881 19.2719 5.78403 19.2641 5.74467C19.6986 4.82364 19.9688 3.8357 20.1449 2.83202C20.2232 2.65884 20.3094 2.48959 20.3916 2.31641Z" fill="#B5722A"/>
<path d="M19.6744 2.40625C19.8153 2.51646 19.9758 2.59124 20.1598 2.55582C20.1559 2.62667 20.152 2.76836 20.1481 2.83921C19.9719 3.84289 19.7057 4.82689 19.2672 5.75186C19.0754 5.8227 18.8953 5.9211 18.7622 6.08248C18.68 6.06674 18.6017 6.05099 18.5234 6.03525C18.864 5.17326 19.1381 4.27585 19.189 3.34696C19.4199 3.07143 19.5765 2.74868 19.6744 2.40625Z" fill="#F4A21E"/>
<path d="M1.12117 2.53516C1.27385 2.63356 1.43044 2.73196 1.59094 2.81855C1.75145 4.65666 2.49135 6.40819 3.53268 7.91568C4.50355 9.31296 5.77586 10.4623 7.08731 11.525C6.8994 11.6942 7.18126 11.8202 7.33394 11.7533C7.36917 11.7808 7.43573 11.8281 7.47096 11.8556C7.40832 11.8989 7.27914 11.9894 7.21258 12.0327C7.0325 11.8674 6.80936 11.769 6.59405 11.6667C5.21995 10.6866 3.98288 9.48221 3.08639 8.04163C2.06072 6.47904 1.31691 4.71177 1.08594 2.84216C1.08985 2.76738 1.10942 2.61388 1.12117 2.53516Z" fill="#B36F28"/>
<path d="M6.35156 2.83474C6.45335 2.71272 6.56296 2.59071 6.67257 2.47656C6.91529 2.67336 7.15409 2.8741 7.38507 3.09058C7.32634 3.1693 7.26371 3.24802 7.20499 3.32674C7.48294 3.85023 7.98794 4.21628 8.23066 4.75945C7.93314 4.53903 7.68259 4.26745 7.43596 3.99193C7.08754 3.59045 6.66866 3.25983 6.35156 2.83474Z" fill="#FDC944"/>
<path d="M6.22656 3.00125C6.26963 2.94615 6.30877 2.89104 6.35184 2.83594C6.66893 3.26103 7.08781 3.59165 7.43623 3.98919C7.67895 4.26471 7.93341 4.54023 8.23094 4.75671C8.89645 5.35105 9.53064 5.98474 10.2431 6.52398C10.3058 6.24058 10.4115 5.92964 10.2196 5.6738C10.2471 5.64625 10.3019 5.59508 10.3253 5.56753C10.9713 5.02829 11.5898 4.46151 12.2162 3.89866C12.2671 3.9144 12.3728 3.94589 12.4237 3.96164C12.1027 4.46544 11.7386 4.93777 11.4176 5.43764C11.1749 5.82337 10.7795 6.10676 10.6268 6.55153C10.525 6.68929 10.4193 6.82705 10.3175 6.96481C10.1139 6.82705 9.92212 6.66961 9.74204 6.50036C9.35056 6.03985 8.97866 5.48881 8.4071 5.24871C7.83554 4.81575 7.37751 4.25684 6.8451 3.78452C6.6611 3.62314 6.45754 3.47357 6.31269 3.2689C6.29311 3.20199 6.25005 3.06816 6.22656 3.00125Z" fill="#EA8D17"/>
<path d="M12.2144 3.90129C12.5276 3.57853 12.8212 3.23216 13.2166 3.00781C13.1579 3.51556 12.923 3.98394 12.8525 4.49169C12.2888 5.0939 11.6898 5.66068 11.0948 6.22747C10.9578 6.36129 10.7894 6.45575 10.625 6.55415C10.7777 6.10939 11.1731 5.82599 11.4158 5.44026C11.7407 4.94039 12.1048 4.46807 12.4219 3.96426C12.371 3.94852 12.2653 3.91703 12.2144 3.90129Z" fill="#C26E19"/>
<path d="M14.4585 3.00391C14.7678 3.23219 15.0262 3.5392 15.3863 3.69271C15.7387 3.85015 16.1066 3.98791 16.4825 4.08631C16.4394 4.23588 16.3963 4.38938 16.3533 4.53895C16.3298 4.42087 16.3063 4.30672 16.2867 4.18864C15.5273 4.24375 15.0105 3.6376 14.4742 3.20464C14.2824 3.40932 14.0944 3.62186 13.9026 3.82653C13.4837 4.23194 13.057 4.63341 12.6381 5.03882C12.4346 5.23169 12.2506 5.46391 11.9844 5.57806C12.5598 4.88138 13.2763 4.31853 13.84 3.61005C14.0396 3.40538 14.2432 3.20071 14.4585 3.00391Z" fill="#274889"/>
<path d="M7.20312 3.3221C7.26185 3.24338 7.32448 3.16466 7.3832 3.08594C7.83341 3.49528 8.28752 3.90069 8.73381 4.31004C9.21924 4.77448 9.74774 5.1917 10.2136 5.67189C10.4093 5.9238 10.2997 6.23868 10.2371 6.52207C9.5246 5.98677 8.8904 5.34914 8.22488 4.7548C7.98608 4.21164 7.48499 3.84952 7.20312 3.3221Z" fill="#FDDC66"/>
<path d="M6.05479 3.27743C6.11742 3.2735 6.24661 3.26956 6.30925 3.26562C6.4541 3.4703 6.65375 3.61593 6.84166 3.78124C7.37799 4.25356 7.83602 4.81248 8.40366 5.24544C8.42715 5.30054 8.47021 5.41075 8.48979 5.46585C8.08265 5.18246 7.7538 4.8046 7.3545 4.51334C7.29186 4.43068 7.23314 4.34409 7.1705 4.26537C6.93562 4.00953 6.65767 3.79305 6.40712 3.55295C6.37972 3.52147 6.31708 3.45849 6.28967 3.427C6.0313 3.67497 5.76901 3.919 5.48323 4.13155C5.08392 4.13548 4.71984 4.30867 4.33619 4.3992C4.32836 4.43856 4.31271 4.51334 4.30488 4.5527C4.30096 4.62355 4.28922 4.76918 4.2853 4.84396C4.23441 4.63142 4.22658 4.41494 4.21875 4.20239C4.96256 4.28899 5.55369 3.75369 6.05479 3.27743Z" fill="#0F86AA"/>
<path d="M14.4748 3.20703C15.0112 3.63999 15.5318 4.24614 16.2874 4.19103C16.3109 4.30911 16.3344 4.42326 16.3539 4.54134C16.2835 4.8326 16.2091 5.11993 16.1347 5.40726C16.076 5.42694 15.9546 5.47024 15.8959 5.49385C15.7941 5.78118 15.6923 6.06851 15.5906 6.3519C15.1443 6.63529 14.6236 6.74157 14.1656 6.98953C13.8093 7.16665 13.7389 7.59568 13.5979 7.93024C13.5666 7.90662 13.504 7.85546 13.4727 7.83184C13.825 6.48179 14.0951 5.10812 14.2204 3.71871C14.1656 3.73839 14.0599 3.76988 14.0051 3.78956L13.8955 3.82892C14.0951 3.62425 14.283 3.4117 14.4748 3.20703Z" fill="#2B77FB"/>
<path d="M5.47918 4.13033C5.76887 3.91778 6.02725 3.67375 6.28562 3.42578C6.31303 3.45727 6.37566 3.52025 6.40307 3.55173C6.37958 4.00437 6.40698 4.46095 6.55183 4.89391C6.62621 5.19305 6.69668 5.49219 6.76323 5.79132C6.68493 6.18099 6.76714 6.56672 6.88459 6.9367C6.08597 6.70841 5.4596 6.12588 4.78626 5.66537C4.71579 5.67718 4.57486 5.69686 4.50831 5.70867C4.43001 5.4174 4.3478 5.13007 4.28125 4.84274C4.28516 4.7719 4.29691 4.62626 4.30082 4.55148C4.73537 4.57903 5.13859 4.38223 5.47918 4.13033ZM4.45742 4.68924C4.65316 5.02774 4.93111 5.40559 5.37739 5.319C5.36173 5.1222 5.37739 4.91359 5.27952 4.73647C5.01723 4.64594 4.73145 4.6735 4.45742 4.68924Z" fill="#6DF2FA"/>
<path d="M6.40589 3.55078C6.65644 3.79088 6.93439 4.00736 7.16928 4.2632C7.05183 4.55053 6.81303 4.73946 6.55466 4.88902C6.40981 4.46 6.38241 4.00342 6.40589 3.55078Z" fill="#D3FDF4"/>
<path d="M14.0132 3.7896C14.068 3.77385 14.1737 3.73843 14.2285 3.71875C14.1032 5.10816 13.8331 6.48183 13.4808 7.83188C13.3477 8.26484 13.2067 8.69386 13.0541 9.11895C12.9562 8.45377 13.3672 7.86337 13.4221 7.20999C13.7078 6.09216 13.9153 4.94285 14.0132 3.7896Z" fill="#5CACF7"/>
<path d="M12.6399 5.04071C13.0588 4.63137 13.4855 4.23383 13.9044 3.82842L14.014 3.78906C13.9161 4.94231 13.7086 6.09163 13.4189 7.21339C13.2232 6.83947 13.5559 6.40651 13.3289 6.04046C13.1566 5.77675 12.8943 5.57207 12.6086 5.44612C12.0135 5.53665 11.7943 6.30024 11.1875 6.37896C11.2893 6.27662 11.3911 6.17428 11.4929 6.07195C11.5046 6.06014 11.5242 6.04046 11.5359 6.02865C11.5672 5.99323 11.6377 5.92631 11.669 5.89089C11.6886 5.86727 11.7317 5.82398 11.7551 5.80036C11.7747 5.78068 11.81 5.74526 11.8256 5.72558C11.8452 5.7059 11.8843 5.66654 11.9078 5.64686C11.9274 5.63111 11.9665 5.59569 11.9822 5.57601C12.2523 5.4658 12.4363 5.23358 12.6399 5.04071Z" fill="#3596FC"/>
<path d="M8.65625 3.89062C9.23955 4.35114 9.8072 4.83527 10.3318 5.36663C10.3318 5.4178 10.3279 5.5162 10.3279 5.56736C10.3005 5.59492 10.2457 5.64608 10.2222 5.67364C9.75239 5.19344 9.2239 4.77623 8.74238 4.31178C8.7228 4.17008 8.69931 4.02445 8.65625 3.89062Z" fill="#D37820"/>
<path d="M9.35547 6.32031C9.41419 6.3518 9.52772 6.41084 9.58644 6.44233C9.83307 6.6903 10.0875 6.93039 10.3655 7.139C10.3498 7.15475 10.3224 7.17836 10.3068 7.19411L10.2128 7.139C9.88788 6.94614 9.57861 6.71391 9.3633 6.39903L9.35547 6.32031Z" fill="#19D3E7"/>
<path d="M4.336 4.39655C4.71573 4.30603 5.08372 4.13284 5.48303 4.12891C5.14244 4.38081 4.73922 4.57761 4.30859 4.55006C4.31251 4.5107 4.32817 4.43591 4.336 4.39655Z" fill="#078ED0"/>
<path d="M7.17321 4.26562C7.23585 4.34828 7.29848 4.43094 7.3572 4.51359C7.51379 4.76943 7.7017 5.00559 7.94051 5.19059C8.25369 5.43462 8.5199 5.73769 8.86831 5.93449C8.91529 5.9463 9.00141 5.97385 9.04839 5.98566C9.06405 5.99747 9.09145 6.02108 9.10711 6.03683C9.13452 6.06438 9.19324 6.11948 9.22064 6.1431C9.24413 6.17065 9.29502 6.22576 9.31851 6.25331C9.33026 6.26905 9.34983 6.30448 9.36158 6.32022L9.37332 6.395C9.03273 6.33596 8.80959 5.95811 8.45334 5.97779C8.19888 6.10374 8.07752 6.39107 7.90919 6.61148C7.76043 6.55638 7.61166 6.50128 7.4629 6.44224C7.40027 6.7335 7.32197 7.02477 7.2241 7.30816C7.07142 6.80041 6.92658 6.29267 6.7739 5.78886C6.70735 5.48972 6.63688 5.19059 6.5625 4.89145C6.81305 4.74188 7.05577 4.54902 7.17321 4.26562Z" fill="#3FE9FB"/>
<path d="M7.35547 4.51562C7.75478 4.81083 8.08362 5.18475 8.49076 5.46814C8.59254 5.55867 8.69824 5.64919 8.80003 5.73972C8.81569 5.78695 8.85092 5.88536 8.86658 5.93652C8.51816 5.74366 8.25196 5.43665 7.93877 5.19262C7.69997 5.00763 7.51206 4.77147 7.35547 4.51562Z" fill="#14CBEC"/>
<path d="M4.45703 4.68687C4.72715 4.67506 5.01685 4.64357 5.27914 4.7341C5.37701 4.91122 5.36135 5.11983 5.37701 5.31663C4.93072 5.40322 4.65277 5.02537 4.45703 4.68687Z" fill="#D0FDF3"/>
<path d="M0.609375 4.97266C0.957791 5.40562 1.10655 5.95272 1.38842 6.42898C1.77207 7.08236 2.11657 7.75541 2.53545 8.38517C3.53372 9.9517 4.97045 11.1915 6.52854 12.1637C6.70862 12.2818 6.9161 12.3527 7.12359 12.4078C6.99048 12.1323 6.79083 11.8922 6.58335 11.6678C6.79866 11.7701 7.0218 11.8685 7.20188 12.0339C7.41328 12.4589 7.8165 12.7266 8.07879 13.1123C8.30585 13.4351 8.62295 13.687 8.83043 14.0255C8.68559 14.1042 8.48985 14.3325 8.32543 14.1711C8.03573 13.868 7.72646 13.5059 7.27235 13.4862L7.22146 13.4784C5.13096 11.8331 3.03263 10.058 1.72901 7.6885C1.28272 6.82652 0.789455 5.94485 0.609375 4.97266Z" fill="#DF8A20"/>
<path d="M8.40625 5.24609C8.98172 5.48619 9.34971 6.03723 9.74119 6.49774L9.5846 6.44264C9.52588 6.41115 9.41235 6.35211 9.35363 6.32062C9.34188 6.30488 9.32231 6.26946 9.31057 6.25371C9.28708 6.22616 9.23618 6.17106 9.2127 6.1435C9.18529 6.11595 9.12657 6.06085 9.09917 6.03723C9.08351 6.02542 9.0561 6.00181 9.04044 5.98606C9.0013 5.85618 8.91909 5.77352 8.79381 5.73809C8.69203 5.64757 8.58633 5.55704 8.48455 5.46651C8.4728 5.41141 8.42974 5.3012 8.40625 5.24609Z" fill="#9D7C50"/>
<path d="M11.1894 6.38205C11.8001 6.30333 12.0154 5.53975 12.6105 5.44922C12.8963 5.57517 13.1586 5.77984 13.3308 6.04356C13.5579 6.4096 13.2251 6.84257 13.4208 7.21649C13.366 7.86986 12.9511 8.45633 13.0529 9.12545C12.9237 9.67649 12.6496 10.1764 12.4421 10.6959C12.1564 11.3454 11.8823 12.0184 11.4282 12.5734C11.436 12.5144 11.4439 12.4002 11.4517 12.3451C11.2834 12.3648 11.1111 12.3727 10.9467 12.4199C10.8097 12.7072 10.7275 13.0142 10.6413 13.3173C10.794 13.2071 10.9467 13.0929 11.0915 12.9709C11.0485 12.9394 10.9584 12.8725 10.9154 12.841C11.0485 12.7977 11.1816 12.7584 11.3108 12.7112C11.4204 12.8647 11.5339 13.0142 11.6396 13.1717C11.6514 13.215 11.6788 13.3016 11.6905 13.3448C11.2951 13.8487 10.8841 14.3485 10.3399 14.7028C10.3869 14.0966 10.3399 13.4905 10.3516 12.8883C10.3595 11.4792 10.3516 10.074 10.3595 8.66494C10.3556 8.17687 10.3791 7.68487 10.3125 7.20074C10.3282 7.18893 10.3595 7.16138 10.3712 7.14564C10.6335 6.88192 10.9036 6.62215 11.1894 6.38205ZM12.2895 9.03098C12.1016 9.06641 12.0194 9.23172 12.0468 9.40884C12.2582 9.45214 12.5244 9.63713 12.7201 9.46001C12.861 9.23172 12.5322 8.89322 12.2895 9.03098Z" fill="#40A7FD"/>
<path d="M15.8967 5.50066C15.9555 5.47704 16.0768 5.43374 16.1355 5.41406C15.654 7.33483 14.8789 9.2005 13.6927 10.7946C13.2777 10.8615 12.9998 11.2118 12.7688 11.5306C12.4243 12.1013 12.0328 12.6366 11.6296 13.168C11.5239 13.0106 11.4143 12.861 11.3008 12.7075C11.3321 12.6721 11.3908 12.6051 11.4182 12.5737C11.8684 12.0187 12.1464 11.3456 12.4322 10.6962C12.6396 10.1727 12.9176 9.67676 13.0429 9.12572C13.1955 8.70063 13.3404 8.2716 13.4696 7.83864C13.5009 7.86226 13.5635 7.91343 13.5948 7.93704C13.7358 7.60248 13.8062 7.17346 14.1625 6.99634C14.6205 6.74837 15.1451 6.6421 15.5875 6.3587C15.6971 6.07138 15.7989 5.78405 15.8967 5.50066Z" fill="#328BFB"/>
<path d="M11.9062 5.65288C11.9258 5.63714 11.965 5.60171 11.9806 5.58203C11.9611 5.60171 11.9219 5.63714 11.9062 5.65288Z" fill="#0B4786"/>
<path d="M4.51562 5.70736C4.58609 5.69555 4.72702 5.67587 4.79357 5.66406C5.463 6.12458 6.08937 6.70317 6.8919 6.93539C6.77446 6.56541 6.69225 6.17574 6.77054 5.79001C6.92322 6.29382 7.07198 6.80157 7.22074 7.30931C7.37734 7.95088 7.48304 8.62 7.80796 9.20647L7.81188 9.2104C7.6592 9.28125 7.37734 9.30093 7.45172 9.53709C7.47521 9.789 7.75316 9.81655 7.9489 9.83229C8.01936 10.218 8.16812 10.588 8.35995 10.9265C8.1094 11.143 8.25034 11.4579 8.35995 11.7098C8.48914 11.6389 8.58309 11.5287 8.65356 11.4028C8.95891 12.0207 9.18597 12.7016 9.66357 13.2133C9.6166 13.4888 9.58528 13.7722 9.58528 14.0517C9.33473 13.7604 9.0881 13.4692 8.82581 13.1897C8.88062 12.9811 9.01372 12.7725 8.97066 12.5481C8.8493 12.2766 8.64964 12.0443 8.48522 11.8003C8.25817 11.8751 8.04676 11.9971 7.84711 12.1349C7.21683 11.3752 6.61787 10.5919 6.15984 9.72208C6.44953 9.58826 6.336 9.23796 6.25771 9.0018C6.19507 8.78138 5.95235 8.74989 5.76836 8.70266C5.76444 8.76957 5.76053 8.9034 5.76053 8.97031C5.25552 7.92333 4.81315 6.83699 4.51562 5.70736ZM6.03456 7.58483C5.83882 7.65962 5.8858 8.04141 6.11286 8.0296C6.32817 8.10045 6.56698 7.79738 6.43387 7.61632C6.33992 7.46675 6.16375 7.52186 6.03456 7.58483Z" fill="#9FF9F9"/>
<path d="M11.8281 5.73106C11.8477 5.71138 11.8868 5.67202 11.9103 5.65234C11.8908 5.67202 11.8477 5.71138 11.8281 5.73106Z" fill="#0D4C88"/>
<path d="M8.80078 5.73828C8.92605 5.77371 9.00826 5.85636 9.04741 5.98625C9.00435 5.97444 8.91431 5.94689 8.86733 5.93508C8.85167 5.88391 8.81644 5.78945 8.80078 5.73828Z" fill="#3493A4"/>
<path d="M11.7578 5.80525C11.7774 5.78557 11.8126 5.75015 11.8283 5.73047C11.8126 5.75015 11.7735 5.78557 11.7578 5.80525Z" fill="#084C92"/>
<path d="M18.7628 6.07672C18.892 5.91534 19.076 5.81694 19.2678 5.74609C19.2717 5.78152 19.2834 5.8563 19.2874 5.89566C18.9389 6.6435 18.5514 7.3756 18.0738 8.04866C17.6862 8.26907 17.4709 8.72959 17.0207 8.8398C16.8289 8.90671 16.6527 9.02085 16.4883 9.13893C16.9894 8.52098 17.5335 7.93058 17.9289 7.23391C18.1521 6.84424 18.3517 6.44277 18.524 6.02949C18.6062 6.04523 18.6845 6.06097 18.7628 6.07672Z" fill="#DB8D25"/>
<path d="M11.6719 5.89131C11.6914 5.86769 11.7345 5.8244 11.758 5.80078C11.7345 5.8244 11.6954 5.87163 11.6719 5.89131Z" fill="#094F95"/>
<path d="M8.4441 5.97761C8.80034 5.954 9.02349 6.33579 9.36407 6.39483C9.57939 6.70971 9.88865 6.94194 10.2136 7.1348C10.0139 7.4851 9.90431 7.8787 9.88082 8.28411C9.85342 8.29592 9.7947 8.32347 9.76338 8.33922C9.68117 8.48091 9.59896 8.63442 9.42279 8.67378C9.35624 8.60687 9.35233 8.43762 9.21922 8.47304C9.03914 8.55963 8.88255 8.68165 8.72596 8.80367C8.62417 8.89419 8.52239 8.98866 8.42452 9.08312C8.35797 9.05164 8.2875 9.02015 8.22095 8.98866C8.08002 9.05951 7.93909 9.13429 7.79816 9.20514C7.47714 8.62261 7.36753 7.94955 7.21094 7.30798C7.30881 7.02459 7.3871 6.73726 7.44974 6.44206C7.5985 6.49717 7.74726 6.55227 7.89603 6.61131C8.06828 6.39089 8.18964 6.10357 8.4441 5.97761Z" fill="#5EF4FA"/>
<path d="M9.04688 5.98828C9.06253 6.00009 9.08994 6.0237 9.1056 6.03945C9.08994 6.02764 9.06253 6.00009 9.04688 5.98828Z" fill="#2F838F"/>
<path d="M11.5391 6.02839C11.5704 5.99296 11.6408 5.92605 11.6722 5.89062C11.6408 5.92605 11.5704 5.9969 11.5391 6.02839Z" fill="#0D4F92"/>
<path d="M19.2893 5.89453C19.4342 6.45738 19.0192 6.9297 18.8235 7.4217C18.6943 7.77201 18.3889 8.11444 18.4907 8.50804L18.4985 8.54346C17.4337 10.1808 15.9539 11.4915 14.4154 12.6684C13.5228 13.3808 12.5715 14.0854 11.9765 15.0851C11.8512 14.8726 11.6868 14.6876 11.5106 14.5183C11.0878 14.8096 10.8412 15.3488 10.3088 15.4669C10.2775 15.2504 10.2501 15.03 10.2188 14.8135C10.2501 14.782 10.3088 14.723 10.3362 14.6915C10.8803 14.3412 11.2875 13.8374 11.6868 13.3336C12.1253 12.8652 12.4619 12.2827 12.9865 11.9009L13.0726 11.8655C13.4015 11.7552 13.6833 11.5545 13.9574 11.3498C14.2157 11.3656 14.4702 11.3065 14.709 11.2081C14.4154 11.523 14.1335 11.8536 13.9065 12.2236C14.5485 12.0662 14.9987 11.5427 15.4998 11.1491C15.9813 10.6965 16.5176 10.295 16.913 9.75575C17.3319 9.20865 17.7351 8.64974 18.0757 8.04753C18.5533 7.37447 18.9409 6.64237 19.2893 5.89453Z" fill="#A26128"/>
<path d="M9.10547 6.03906C9.13287 6.06661 9.1916 6.12172 9.219 6.14534C9.18768 6.11778 9.13287 6.06661 9.10547 6.03906Z" fill="#2C8A8F"/>
<path d="M11.4922 6.07455C11.5041 6.06274 11.5239 6.04306 11.5358 6.03125C11.5239 6.04306 11.5041 6.06667 11.4922 6.07455Z" fill="#095499"/>
<path d="M9.3125 6.25781C9.3244 6.27356 9.34424 6.30898 9.35614 6.32473C9.34424 6.30505 9.3244 6.27356 9.3125 6.25781Z" fill="#1F98A5"/>
<path d="M10.2123 7.13672L10.3063 7.19182C10.3728 7.67595 10.3454 8.16795 10.3532 8.65602C10.3454 10.0651 10.3532 11.4703 10.3454 12.8794C10.2436 13.1942 9.93826 13.2178 9.65248 13.21C9.17488 12.6983 8.94782 12.0174 8.64247 11.3994C8.55243 11.238 8.45064 11.0845 8.34886 10.9271C8.15703 10.5847 8.01219 10.2186 7.93781 9.83288C7.94172 9.6164 7.92606 9.39599 7.80079 9.21099L7.79688 9.20706C7.93781 9.13621 8.07874 9.06143 8.21967 8.99058C8.28622 9.02207 8.35669 9.05355 8.42324 9.08504C8.56417 9.12834 8.74034 9.28971 8.88127 9.15195C9.0222 9.01813 8.8108 8.88431 8.72468 8.80165C8.87736 8.67963 9.03786 8.55368 9.21794 8.47102C9.34713 8.4356 9.35496 8.60485 9.42151 8.67176C9.59376 8.6324 9.67989 8.4789 9.7621 8.3372C9.7895 8.32539 9.84822 8.29784 9.87954 8.2821C9.90303 7.88062 10.0126 7.49096 10.2123 7.13672ZM9.51547 11.2735C9.67206 11.301 9.8678 11.3994 9.93435 11.1869C9.92261 11.0609 9.8678 10.872 9.70729 10.8759C9.55462 10.9468 9.55853 11.1318 9.51547 11.2735ZM9.48806 11.6671C9.46066 11.8402 9.51938 11.9977 9.60159 12.1473C9.75818 12.0803 9.84039 11.9308 9.91869 11.7891C9.78559 11.7222 9.63682 11.6828 9.48806 11.6671Z" fill="#6AF4F9"/>
<path d="M6.03332 7.58316C6.16251 7.52019 6.33867 7.46508 6.42871 7.61859C6.56573 7.79571 6.32301 8.10272 6.1077 8.03187C5.88456 8.03974 5.83758 7.65795 6.03332 7.58316Z" fill="#DCFEF5"/>
<path d="M2.72306 8.08626C2.77787 8.18466 2.83267 8.28306 2.89139 8.38146C2.95403 8.26732 3.01667 8.15711 3.0793 8.04297C3.97579 9.48748 5.21287 10.688 6.58696 11.668C6.79836 11.8884 6.99409 12.1285 7.1272 12.408C6.91971 12.3529 6.71223 12.282 6.53215 12.164C4.97015 11.1878 3.53733 9.948 2.53906 8.3854C2.6017 8.28306 2.66434 8.18466 2.72306 8.08626Z" fill="#FDCD44"/>
<path d="M17.0185 8.84192C17.4687 8.73171 17.684 8.26726 18.0716 8.05078C17.731 8.64905 17.3278 9.2119 16.9089 9.75901C16.5135 10.2982 15.9811 10.6997 15.4957 11.1524C14.9946 11.546 14.5444 12.0694 13.9023 12.2269C14.1255 11.8569 14.4113 11.5302 14.7049 11.2114C14.4661 11.3137 14.2116 11.3688 13.9532 11.3531C14.7675 10.743 15.5779 10.1251 16.263 9.36934C16.3373 9.29456 16.4117 9.21584 16.49 9.14106C16.6544 9.02298 16.8267 8.90883 17.0185 8.84192Z" fill="#C07528"/>
<path d="M5.76564 8.70312C5.94964 8.75036 6.19627 8.78185 6.25499 9.00226C6.32937 9.23842 6.4429 9.58873 6.15712 9.72255C6.01227 9.47852 5.87134 9.23055 5.75781 8.97471C5.76173 8.90386 5.76564 8.77004 5.76564 8.70312Z" fill="#F2FEF4"/>
<path d="M8.42969 9.08414C8.52756 8.98968 8.62934 8.89522 8.73113 8.80469C8.81725 8.88734 9.02865 9.02117 8.88772 9.15499C8.74679 9.28488 8.56671 9.1235 8.42969 9.08414Z" fill="#BFFEF2"/>
<path d="M12.2869 9.0283C12.5296 8.89054 12.8585 9.2251 12.7176 9.45733C12.5218 9.63445 12.2556 9.44945 12.0442 9.40616C12.0168 9.22904 12.099 9.06766 12.2869 9.0283Z" fill="#68D6F5"/>
<path d="M7.44573 9.53763C7.37135 9.29753 7.65713 9.27785 7.80589 9.21094C7.93508 9.39593 7.94682 9.61635 7.94291 9.83283C7.74325 9.81708 7.46922 9.78953 7.44573 9.53763Z" fill="#D7FEF7"/>
<path d="M9.65251 13.2095C9.93438 13.2135 10.2397 13.1938 10.3454 12.8789C10.3337 13.4851 10.3807 14.0912 10.3337 14.6934C10.3063 14.7249 10.2436 14.7839 10.2162 14.8154C10.0636 14.5123 9.79345 14.2998 9.57422 14.0479C9.57422 13.7684 9.60554 13.489 9.65251 13.2095Z" fill="#7CECF4"/>
<path d="M8.9228 14.3047C9.13028 14.5684 9.30253 14.8597 9.5061 15.1234C9.70184 15.3792 10.0033 15.517 10.2303 15.7374C10.3439 16.6702 10.34 17.6149 10.3439 18.5556C9.94456 18.406 9.56482 18.2053 9.19292 18.0006C8.97369 18.2053 8.74272 18.3942 8.5 18.5713C8.66834 18.3273 8.85233 18.1029 9.06373 17.8983C9.45129 17.5283 9.60789 16.9418 10.1403 16.7293C10.0111 16.3672 9.83103 16.0247 9.6118 15.7138C9.50219 16.1034 9.42781 16.5089 9.25164 16.8788C9.21249 16.4537 9.18509 16.0287 9.14594 15.6036C9.11071 15.1627 8.99326 14.7376 8.9228 14.3047Z" fill="#FDE17C"/>
<path d="M10.3047 15.472C10.8332 15.3539 11.0798 14.8147 11.5065 14.5234C11.6827 14.6927 11.8471 14.8777 11.9724 15.0902C11.5848 16.0309 11.6944 17.1606 12.2347 18.0186C11.9724 17.8376 11.7297 17.625 11.4909 17.4125C11.3186 16.7906 11.3186 16.1215 11.0602 15.5232C10.8371 15.6531 10.6022 15.7593 10.3556 15.8341C10.3399 15.7121 10.3203 15.5901 10.3047 15.472Z" fill="#B57029"/>
<path d="M9.14151 15.5977C9.17674 16.0227 9.20806 16.4478 9.24721 16.8729C9.13368 17.1445 9.02015 17.4436 8.73438 17.5775C8.77352 17.4161 8.81658 17.2587 8.85573 17.1012C8.95752 16.7155 8.98101 16.314 8.93011 15.9165C8.96926 15.944 9.04364 15.9952 9.08279 16.0227C9.10628 15.881 9.12194 15.7394 9.14151 15.5977Z" fill="#EFC04F"/>
<path d="M9.60762 15.7109C9.82684 16.0258 10.0069 16.3643 10.1361 16.7264C9.6037 16.939 9.44711 17.5254 9.05955 17.8954C8.84815 18.1001 8.66415 18.3284 8.49582 18.5685C8.09651 18.9621 7.63065 19.2848 7.12172 19.5171C7.05126 19.521 6.90641 19.5328 6.83203 19.5367C6.97296 19.151 7.33704 18.9345 7.64631 18.6984C8.0691 18.3953 8.4919 18.0568 8.7307 17.5805C9.01648 17.4467 9.13001 17.1476 9.24354 16.876C9.42362 16.506 9.50192 16.1045 9.60762 15.7109Z" fill="#F9EEB4"/>
<path d="M11.4883 17.4062C11.731 17.6188 11.9698 17.8274 12.2321 18.0124C12.5061 18.2092 12.7371 18.465 13.0072 18.6658C13.2852 18.9019 13.6101 19.1105 13.7745 19.449C13.3909 19.5632 13.015 19.7049 12.6392 19.8426C12.4474 19.5317 12.2164 19.2483 12.0168 18.9452C11.7427 18.4729 11.5548 17.9494 11.4883 17.4062Z" fill="#CA802B"/>
<path d="M7.46147 11.8555C7.58674 11.9499 7.71201 12.0365 7.83729 12.131C8.1857 12.4616 8.48323 12.8395 8.81598 13.1858C9.07828 13.4653 9.32491 13.7605 9.57545 14.0478C9.79468 14.2997 10.0648 14.5123 10.2175 14.8153C10.2488 15.0318 10.2762 15.2522 10.3075 15.4687C10.3232 15.5907 10.3388 15.7128 10.3584 15.8308C10.605 15.7561 10.8399 15.6498 11.0631 15.5199C11.3215 16.1182 11.3215 16.7833 11.4937 17.4092C11.5642 17.9523 11.7482 18.4758 12.03 18.9442C12.2297 19.2473 12.4607 19.5307 12.6525 19.8416C11.9008 20.1093 11.1335 20.3533 10.3467 20.495C10.3702 19.8495 10.3545 19.2001 10.3506 18.5546C10.3467 17.6138 10.3506 16.6692 10.2371 15.7364C10.01 15.512 9.70856 15.3782 9.51282 15.1224C9.30533 14.8586 9.13308 14.5674 8.92951 14.3037C9.0039 14.7366 9.11742 15.1617 9.15266 15.5986C9.13308 15.7403 9.11742 15.882 9.09785 16.0198C9.0587 15.9922 8.98432 15.941 8.94517 15.9135C8.89036 15.5789 8.80032 15.2483 8.63199 14.9531C8.31489 14.3588 7.77074 13.9376 7.28922 13.485C7.74333 13.5007 8.0526 13.8668 8.3423 14.1698C8.50672 14.3312 8.70245 14.1029 8.8473 14.0242C8.63982 13.6818 8.32272 13.4338 8.09566 13.1111C7.83337 12.7253 7.43015 12.4577 7.21875 12.0326C7.26573 11.9893 7.39492 11.9027 7.46147 11.8555Z" fill="#D88C2F"/>
<path d="M8.49518 18.5707C8.73789 18.3936 8.96887 18.2047 9.18809 18C9.56391 18.2047 9.93974 18.4054 10.339 18.555C10.343 19.2005 10.3586 19.8499 10.3351 20.4954C10.2882 20.4915 10.1903 20.4797 10.1433 20.4757C9.13329 20.1766 8.00974 20.1451 7.125 19.5193C7.63001 19.2871 8.09587 18.9643 8.49518 18.5707Z" fill="#FCC420"/>
<path d="M12.6463 19.8429C13.0221 19.7091 13.398 19.5674 13.7816 19.4493L13.8286 19.4336C13.8051 19.7209 13.7738 20.0122 13.766 20.2995C13.1122 20.8506 12.2157 20.4963 11.4758 20.7522C11.0648 20.7482 10.6576 20.7325 10.2466 20.7403C10.2622 20.7049 10.2935 20.6301 10.3053 20.5908C10.2113 20.5475 10.1213 20.5003 10.0312 20.457L10.1565 20.4688C10.2035 20.4727 10.3014 20.4845 10.3483 20.4884C11.1274 20.3586 11.8947 20.1145 12.6463 19.8429Z" fill="#9D5C31"/>
<path d="M6.83594 19.5392C6.9064 19.5353 7.05125 19.5235 7.12563 19.5195C8.01429 20.1454 9.13783 20.1768 10.1439 20.476L10.0187 20.4642C10.1087 20.5114 10.2027 20.5547 10.2927 20.598C10.277 20.6334 10.2496 20.7082 10.234 20.7476C9.23179 20.783 8.26092 20.5232 7.30571 20.2595C7.18827 20.228 7.08257 20.1611 6.9847 20.0942C6.89857 19.921 6.879 19.7242 6.83594 19.5392Z" fill="#E49319"/>
<path d="M6.99037 20.0938C7.08824 20.1646 7.19003 20.2315 7.31138 20.2591C8.26659 20.5228 9.24137 20.7826 10.2396 20.7471C10.6507 20.7393 11.0578 20.7511 11.4689 20.7589C12.4946 20.8613 13.5242 20.8219 14.5498 20.9006C13.1444 20.8416 11.739 21.0069 10.3336 20.9754C8.78726 20.9006 7.23309 20.9361 5.68283 20.9794C5.61628 21.3021 5.54581 21.6288 5.49884 21.9555C5.40488 22.7309 5.21306 23.4905 5.09953 24.262C5.07604 24.4155 5.06038 24.5729 5.05255 24.7304C5.05255 24.7973 5.04864 24.9311 5.04864 24.998C4.77852 25.0059 4.50839 25.0138 4.24219 25.0492C4.52797 23.4512 4.89596 21.865 5.18174 20.2669C5.8081 20.2591 6.43056 20.263 7.05692 20.2512C7.03735 20.2079 7.00603 20.1292 6.99037 20.0938Z" fill="#F7E9B9"/>
<path d="M13.7592 20.3014C14.323 20.1754 14.9337 20.2817 15.517 20.2542C15.6853 21.128 15.8772 21.9978 16.0729 22.8637C16.2491 23.5998 16.4056 24.3397 16.6131 25.0718C14.2447 25.0482 11.8762 25.064 9.50778 25.0482C7.72264 25.0364 5.93358 25.0167 4.14844 25.06C4.17193 25.0561 4.2189 25.0482 4.23848 25.0482C4.50468 25.0128 4.7748 25.0049 5.04492 24.9971C5.04492 24.9301 5.04884 24.7963 5.04884 24.7294C6.81049 24.753 8.57215 24.7688 10.3338 24.7255L10.4082 24.7215C12.0172 24.631 13.6379 24.6586 15.243 24.4854C15.2508 24.1626 15.2351 23.8438 15.1842 23.5289C15.0942 22.911 14.965 22.3048 14.828 21.6947C14.8985 21.6751 15.0433 21.6357 15.1138 21.6121C15.0864 21.3799 15.0511 21.1476 15.0042 20.9194C14.9141 20.9154 14.8202 20.9154 14.7301 20.9115C14.6831 20.9075 14.5931 20.8997 14.55 20.8997C13.5244 20.821 12.4948 20.8603 11.4691 20.758C12.209 20.4982 13.1055 20.8524 13.7592 20.3014Z" fill="#824F39"/>
<path d="M14.5444 20.8957C14.5913 20.8996 14.6814 20.9075 14.7244 20.9075C14.7518 21.1279 14.7832 21.3444 14.8145 21.5648C13.3308 21.7419 11.8314 21.612 10.3438 21.7655C10.3399 21.5018 10.336 21.2342 10.3281 20.9705C11.7374 21.0019 13.1389 20.8366 14.5444 20.8957Z" fill="#D1905F"/>
<path d="M14.7283 20.9141C14.8184 20.918 14.9084 20.9219 15.0024 20.9219C15.0533 21.1502 15.0885 21.3824 15.112 21.6147C15.0415 21.6344 14.8967 21.6737 14.8262 21.6973C14.9593 22.3035 15.0924 22.9136 15.1824 23.5315C14.1685 23.6889 13.1389 23.6968 12.1211 23.8228C11.5574 23.9015 10.9897 23.8897 10.4221 23.9133C10.4103 24.1849 10.4064 24.4525 10.4103 24.7241L10.3359 24.7281C10.3399 24.484 10.3438 24.2439 10.3477 24.0038C10.3555 23.2599 10.3555 22.516 10.3477 21.7721C11.8314 21.6186 13.3308 21.7485 14.8184 21.5714C14.7831 21.351 14.7557 21.1305 14.7283 20.9141Z" fill="#B5744E"/>
<path d="M5.684 20.9771C7.23425 20.9338 8.78451 20.8984 10.3348 20.9732C10.3426 21.2369 10.3465 21.5045 10.3504 21.7683C8.99982 21.7368 7.64922 21.7682 6.29862 21.7643C6.02458 21.7682 5.71531 21.7407 5.5 21.9532C5.54698 21.6266 5.61744 21.3038 5.684 20.9771Z" fill="#F6B557"/>
<path d="M5.49306 21.953C5.70446 21.7405 6.01372 21.7681 6.29167 21.7641C7.64228 21.7681 8.99288 21.7366 10.3435 21.7681C10.3513 22.512 10.3513 23.2559 10.3435 23.9998C9.12207 24.1454 7.88891 24.0627 6.66358 24.1493C6.139 24.1966 5.60659 24.1297 5.09375 24.2595C5.21119 23.4881 5.3991 22.7284 5.49306 21.953ZM8.80888 23.492C8.83629 23.8266 9.20036 23.7164 9.42351 23.6888C9.42351 23.5511 9.42351 23.4172 9.42742 23.2795C9.20036 23.248 8.87152 23.1929 8.80888 23.492Z" fill="#E8A04B"/>
<path d="M8.8125 23.4903C8.87514 23.1911 9.20398 23.2502 9.43104 23.2777C9.42712 23.4115 9.42321 23.5493 9.42712 23.6871C9.20398 23.7146 8.8399 23.8209 8.8125 23.4903Z" fill="#D48E48"/>
<path d="M15.1823 23.5234C15.2332 23.8383 15.2488 24.1571 15.241 24.4799C13.636 24.6531 12.0191 24.6255 10.4062 24.716C10.4062 24.4445 10.4102 24.1729 10.418 23.9052C10.9856 23.8816 11.5533 23.8934 12.117 23.8147C13.1349 23.6888 14.1644 23.6809 15.1823 23.5234Z" fill="#A46544"/>
<path d="M6.66368 24.1496C7.88901 24.063 9.12217 24.1456 10.3436 24C10.3397 24.2401 10.3358 24.4841 10.3318 24.7242C8.57019 24.7675 6.80853 24.7478 5.04688 24.7282C5.05862 24.5707 5.07428 24.4172 5.09385 24.2598C5.60669 24.1299 6.1391 24.1968 6.66368 24.1496Z" fill="#D78A42"/>
</svg>
