<svg width="23" height="28" viewBox="0 0 23 28" fill="none" xmlns="http://www.w3.org/2000/svg">
<path d="M10.6523 16.8086C10.9616 16.8637 11.2709 16.9149 11.5841 16.9385C11.8346 16.9031 12.0812 16.8598 12.3357 16.8361L12.508 16.8165C12.183 16.9621 11.8268 17.0133 11.4744 16.9818C11.1965 16.9621 10.9107 16.9227 10.6523 16.8086Z" fill="#824E38"/>
<path d="M10.7755 0.0468468C11.0183 -0.138145 11.3001 0.275137 11.0339 0.412897C10.8108 0.527042 10.7051 0.220031 10.7755 0.0468468Z" fill="#554D70"/>
<path d="M7.11181 3.41137C7.91043 3.20669 8.6973 2.95873 9.492 2.73438C10.3219 2.77374 11.148 2.73044 11.9779 2.73831C12.6904 2.74618 13.4146 2.69108 14.1115 2.8682C13.7826 2.87213 13.4538 2.88394 13.1288 2.88394C13.215 3.14766 13.2737 3.4153 13.3833 3.67114C13.536 3.96634 13.8413 4.21431 13.7904 4.5843C13.7983 4.81259 13.5438 4.88737 13.395 5.00151C13.0349 5.19044 12.7843 5.52107 12.5612 5.85169C13.1993 5.89892 13.7865 5.57223 14.4051 5.45809C15.2585 5.26129 16.0493 4.87163 16.8831 4.60791C17.0945 4.57249 17.3098 4.55281 17.5212 4.51738C17.118 4.67482 16.7148 4.83227 16.2998 4.95822C15.8614 5.09204 15.4268 5.23374 14.9923 5.37543C14.5969 5.50532 14.2054 5.64308 13.8139 5.77691C13.1719 5.96977 12.5612 6.26891 11.9035 6.40273C10.9992 6.15083 10.1027 5.85563 9.22188 5.52894C9.55464 5.52107 9.89131 5.57224 10.2241 5.525C9.82867 5.34001 9.51158 5.033 9.13967 4.81258C8.53679 4.57642 7.90651 4.41899 7.28014 4.24974C6.99045 4.17102 6.77122 3.9506 6.50893 3.82071C6.34059 3.77348 6.16443 3.81284 5.99609 3.8089C6.32102 3.56881 6.73207 3.52551 7.11181 3.41137ZM10.7017 3.40743C10.4081 3.5137 10.0244 3.6987 10.0518 4.07262C10.044 4.40718 10.044 4.91886 10.459 5.00545C10.9013 5.12747 11.3045 5.43841 11.7743 5.42266C12.0366 5.34788 12.4359 5.3164 12.4751 4.97396C12.5025 4.60398 12.0092 4.53706 11.9583 4.2025C11.8526 3.6554 11.2184 3.32478 10.7017 3.40743ZM13.399 4.41111C13.2972 4.46622 13.1367 4.67876 13.2933 4.75748C13.4538 4.93067 13.5947 4.70631 13.6965 4.59217C13.5986 4.52526 13.5242 4.41899 13.399 4.41111Z" fill="#FDCF63"/>
<path d="M18.9006 7.40236C19.3273 7.31971 19.711 7.10716 20.075 6.88281C20.0711 6.94185 20.0672 7.05993 20.0672 7.11897C20.3334 7.39056 20.3921 7.78809 20.6349 8.07148C20.7993 8.26041 20.8893 8.49264 20.9598 8.73274C19.9145 8.52413 18.9045 8.16988 17.9062 7.81564C17.9767 7.64246 18.0472 7.47321 18.1176 7.30396C18.376 7.3512 18.6344 7.45353 18.9006 7.40236Z" fill="#BF782D"/>
<path d="M6.07728 3.51412C7.05989 3.24647 8.04642 2.97095 9.02903 2.71118C9.22085 2.68756 9.41268 2.68362 9.6045 2.67969L9.48706 2.73479C8.69236 2.95914 7.90548 3.20711 7.10687 3.41178C6.72713 3.52199 6.31608 3.56923 5.99115 3.81326C5.92069 3.98644 5.85022 4.17144 5.86588 4.3643C5.99898 4.48238 6.17123 4.54535 6.33174 4.61227C7.27129 4.98225 8.25782 5.20267 9.20911 5.53723C10.0899 5.86392 10.9825 6.15518 11.8907 6.41102C11.785 6.42677 11.6793 6.44251 11.5736 6.45825C10.5245 6.22997 9.53795 5.77339 8.49662 5.50574C7.79196 5.26565 7.09121 5.00193 6.35523 4.87598C6.20647 4.86811 6.0029 4.79332 5.90111 4.95076C5.62708 5.29319 5.32172 5.61201 4.98114 5.89147C4.88327 5.97806 4.78931 6.06859 4.69144 6.15124L4.67578 6.14731C4.89501 5.6002 5.18862 5.08852 5.49006 4.58472C5.53704 4.50206 5.5801 4.42334 5.62316 4.34068C5.77584 4.06122 5.85022 3.7306 6.07728 3.51412Z" fill="#F7FAEF"/>
<path d="M9.60572 2.67869C10.8976 2.65114 12.1856 2.68656 13.4774 2.66295C13.7711 2.65507 14.0647 2.66295 14.3583 2.69837C15.2939 2.97389 16.2413 3.21792 17.173 3.50919C17.3218 3.54855 17.3531 3.72567 17.4275 3.83981C17.1848 3.68237 16.9029 3.60759 16.621 3.56823C15.7911 3.31632 14.9494 3.09197 14.1116 2.87156C13.4148 2.69837 12.6906 2.74954 11.9781 2.74167C11.1481 2.73379 10.3182 2.77709 9.49219 2.73773L9.60572 2.67869Z" fill="#EAD492"/>
<path d="M13.1223 2.88293C13.4512 2.88293 13.7761 2.87112 14.105 2.86719C14.9427 3.0876 15.7844 3.31196 16.6143 3.56386C16.1367 3.5678 15.6748 3.43004 15.2089 3.35919C15.2911 3.64652 15.4242 3.91023 15.5808 4.16213C15.436 4.30776 15.2911 4.45733 15.1541 4.61084C14.9466 4.66988 14.747 4.75254 14.5473 4.83913C14.5317 4.95721 14.5199 5.07529 14.5043 5.19337C14.3907 5.24847 14.2811 5.30357 14.1715 5.36261C14.2263 5.38623 14.3398 5.43346 14.3946 5.45708C13.7761 5.57122 13.1928 5.89791 12.5508 5.85068C12.7739 5.52006 13.0245 5.18943 13.3846 5.0005C13.5334 4.88636 13.7918 4.81551 13.78 4.58329C13.8309 4.2133 13.5256 3.96927 13.3729 3.67013C13.2711 3.41429 13.2085 3.14271 13.1223 2.88293Z" fill="#FCBD41"/>
<path d="M0.805765 5.04735C1.33818 4.35461 1.78446 3.5989 2.32862 2.91797C2.98239 3.09903 3.64007 3.26434 4.29776 3.43752C4.74796 3.55954 5.19816 3.77602 5.46437 4.17749C5.17859 4.00037 4.88498 3.83899 4.56396 3.74453C3.85539 3.56347 3.13506 3.44146 2.44606 3.19349C1.82361 4.10271 1.18158 4.99225 0.50824 5.8621C0.457347 5.87391 0.359477 5.89753 0.3125 5.91327C0.351648 5.57477 0.649173 5.33861 0.805765 5.04735Z" fill="#E9E2B7"/>
<path d="M19.7114 3.24225C20.1224 3.14779 20.5257 2.95099 20.9563 2.97461C20.8467 3.08088 20.7253 3.18715 20.5726 3.22651C19.9032 3.42331 19.2299 3.60831 18.5683 3.83266C18.2981 3.91925 18.0241 4.02158 17.8205 4.22232L17.7188 4.21051C18.1455 3.52565 19.0067 3.45874 19.7114 3.24225Z" fill="#EFE0A8"/>
<path d="M20.9505 2.97656C21.0601 3.20485 21.1972 3.4174 21.3459 3.61813C21.2441 3.59058 21.1424 3.55909 21.0445 3.5276C20.9114 4.303 20.8722 5.0902 20.7665 5.86953C20.7196 6.00335 20.6648 6.13718 20.606 6.26706C20.3359 5.76325 20.3711 5.14137 20.0306 4.67298C19.6704 4.22034 19.181 3.77951 18.5586 3.83461C19.2202 3.61026 19.8935 3.42133 20.563 3.22847C20.7235 3.18911 20.8409 3.08283 20.9505 2.97656Z" fill="#FCCA58"/>
<path d="M2.44563 3.19531C3.13464 3.44328 3.85887 3.5653 4.56354 3.74635C4.08593 3.68338 3.6553 3.91167 3.33429 4.2541C3.02111 4.52175 2.66486 4.84057 2.66095 5.28927C2.6218 5.51756 2.67661 5.79308 2.47304 5.95445C2.4378 5.92296 2.36342 5.85212 2.32819 5.82063C1.89365 5.78914 1.45519 5.84818 1.02065 5.84425C0.848401 5.84818 0.680063 5.85212 0.507812 5.86393C1.18116 4.99801 1.82318 4.10453 2.44563 3.19531Z" fill="#FAC651"/>
<path d="M10.6981 3.40714C11.2149 3.32448 11.8491 3.65511 11.9548 4.19827C12.0057 4.53284 12.4989 4.60368 12.4715 4.96973C12.4324 5.31216 12.037 5.34759 11.7708 5.41844C11.301 5.43418 10.8978 5.12324 10.4554 5.00122C10.0444 4.91463 10.0443 4.40295 10.0483 4.06839C10.0209 3.70234 10.4045 3.51735 10.6981 3.40714ZM10.6825 3.67479C10.4515 3.79287 10.4437 4.15105 10.6864 4.26519C10.8939 4.4305 11.2501 4.24551 11.2149 3.97786C11.2423 3.6984 10.9017 3.5016 10.6825 3.67479Z" fill="#FDDA80"/>
<path d="M15.2111 3.35938C15.6808 3.43022 16.1389 3.56798 16.6165 3.56405C16.9023 3.60341 17.1802 3.67819 17.4229 3.83563C17.4895 3.95371 17.5404 4.0836 17.5913 4.20955C17.6226 4.29221 17.6539 4.37486 17.6852 4.45752C17.6422 4.47326 17.5521 4.50082 17.5091 4.51656C17.2977 4.54805 17.0823 4.57167 16.8709 4.60709C16.9727 4.51656 17.0745 4.41816 17.1724 4.3237C16.7261 4.19381 16.2602 4.16626 15.7983 4.19774C15.626 4.39848 15.4303 4.58741 15.1523 4.61496C15.2894 4.46146 15.4342 4.31189 15.5791 4.16626C15.4264 3.91042 15.2933 3.6467 15.2111 3.35938Z" fill="#FBB429"/>
<path d="M20.7695 5.86927C20.8752 5.08994 20.9144 4.30274 21.0475 3.52734C21.1454 3.55883 21.2471 3.59032 21.3489 3.61787C21.7052 4.07445 21.9949 4.57432 22.3354 5.04271C22.5155 5.32216 22.7582 5.57407 22.8561 5.90076C22.1632 5.8181 21.4664 5.86927 20.7695 5.86927Z" fill="#D98F31"/>
<path d="M10.6811 3.67616C10.9042 3.49904 11.2448 3.69977 11.2135 3.97923C11.2487 4.24688 10.8924 4.43187 10.685 4.26656C10.4422 4.15635 10.4462 3.79424 10.6811 3.67616Z" fill="#F9FAF4"/>
<path d="M3.33259 4.25142C3.65361 3.91292 4.08423 3.68464 4.56184 3.74368C4.88285 3.83814 5.17646 4.00345 5.46224 4.17664C5.5053 4.21206 5.58751 4.29078 5.63058 4.32621C5.58751 4.40886 5.54445 4.49152 5.49747 4.57024C5.12165 4.39705 4.77715 4.10579 4.35044 4.09398C3.81411 4.14515 3.39915 4.56237 3.14468 5.01501C3.12511 4.9599 3.08988 4.8497 3.07422 4.79459C3.15643 4.61354 3.24255 4.43248 3.33259 4.25142Z" fill="#DA8D38"/>
<path d="M5.99314 3.81244C6.16148 3.81637 6.33765 3.77701 6.50598 3.82424C6.76827 3.95413 6.9875 4.17455 7.2772 4.25327C7.89965 4.42252 8.53384 4.57996 9.13672 4.81612C9.50863 5.03653 9.82181 5.34354 10.2211 5.52853C9.88836 5.57577 9.55169 5.5246 9.21893 5.53247C8.26764 5.20184 7.28111 4.97749 6.34156 4.60751C6.17714 4.5406 6.0088 4.47762 5.8757 4.35954C5.85221 4.17061 5.92268 3.98562 5.99314 3.81244Z" fill="#FABA3E"/>
<path d="M17.8126 4.22638C18.02 4.02564 18.2941 3.91937 18.5603 3.83671C19.1788 3.78161 19.6682 4.22244 20.0322 4.67508C19.997 4.72231 19.9226 4.81284 19.8874 4.86007C19.6486 4.50977 19.3276 4.15159 18.8813 4.1083C18.4859 4.09255 18.1336 4.30903 17.7852 4.47041C17.793 4.40743 17.8047 4.28542 17.8126 4.22638Z" fill="#EBA143"/>
<path d="M15.1545 4.60878C15.4285 4.58123 15.6282 4.3923 15.8004 4.19156C16.2624 4.16008 16.7282 4.18763 17.1745 4.31751C17.0767 4.41198 16.9749 4.51038 16.8731 4.60091C16.0392 4.86462 15.2484 5.25035 14.395 5.45109C14.3402 5.42747 14.2306 5.38024 14.1719 5.35662C14.2815 5.30152 14.3911 5.24248 14.5046 5.18737C14.5164 5.06929 14.532 4.95121 14.5477 4.83313C14.7473 4.75048 14.947 4.66782 15.1545 4.60878Z" fill="#F89F19"/>
<path d="M17.5927 4.21094C17.6241 4.21094 17.6828 4.21487 17.7102 4.21881L17.812 4.23062C17.8041 4.28966 17.7924 4.41167 17.7885 4.47071C17.9412 4.97846 18.2387 5.42323 18.4266 5.91917C17.7102 5.87587 17.0956 6.31277 16.4066 6.43478C16.3557 6.37968 16.3087 6.32064 16.2617 6.26553C16.3165 5.83257 16.3518 5.39567 16.2891 4.96271C16.7041 4.83676 17.1073 4.67932 17.5105 4.52188C17.5536 4.50614 17.6436 4.47859 17.6867 4.46284C17.6554 4.37625 17.6241 4.29359 17.5927 4.21094Z" fill="#BB7530"/>
<path d="M2.66057 5.28908C2.66448 4.84037 3.02464 4.52155 3.33391 4.25391C3.24387 4.43496 3.15774 4.61602 3.07162 4.80101C3.08728 4.85612 3.12643 4.96632 3.14209 5.02143C2.95809 5.5213 3.01681 6.14713 3.42787 6.51711C4.01508 7.09177 4.87634 7.13113 5.64364 7.22559L5.64755 7.25708C5.51836 7.26889 5.38917 7.28463 5.2639 7.30825C4.84502 7.46962 4.39873 7.52473 3.96028 7.41452C3.55705 7.2374 3.17341 7.00911 2.86805 6.6903C2.6958 6.46988 2.57836 6.21404 2.47266 5.95426C2.67623 5.79288 2.62142 5.51737 2.66057 5.28908Z" fill="#EDB447"/>
<path d="M13.3945 4.41016C13.5158 4.41803 13.5941 4.5243 13.6881 4.59121C13.5863 4.70536 13.4453 4.92971 13.2848 4.75653C13.1322 4.67781 13.2966 4.4692 13.3945 4.41016Z" fill="#F8E19C"/>
<path d="M20.0366 4.67578C20.3733 5.14417 20.342 5.76606 20.6121 6.26986C20.4673 6.50209 20.2872 6.70676 20.0797 6.87995C19.7156 7.10823 19.3281 7.32078 18.9053 7.3995C18.6391 7.45067 18.3807 7.34833 18.1223 7.3011C17.9383 7.26568 17.7504 7.23812 17.5664 7.21057L17.5703 7.18696C17.9814 7.16728 18.4003 7.14366 18.7878 6.99409C19.2654 6.82484 19.7822 6.57688 19.9857 6.077C20.1893 5.68734 20.064 5.23863 19.8957 4.85684C19.927 4.80961 20.0014 4.71908 20.0366 4.67578Z" fill="#F6BE4F"/>
<path d="M5.90824 4.93628C6.01002 4.78277 6.20968 4.85756 6.36235 4.86149C7.09833 4.98744 7.79908 5.25116 8.50375 5.49125C8.32366 5.56997 8.14359 5.64869 7.95959 5.72741C8.12401 5.8022 8.28452 5.87698 8.44894 5.9557C8.15142 6.11708 7.81866 6.01868 7.50156 6.04229C7.25101 6.16431 7.03178 6.35324 6.75775 6.42015C6.70686 6.40441 6.6129 6.37292 6.56592 6.35717C6.04526 6.18399 5.51285 6.05016 4.99609 5.87304C5.32494 5.59752 5.63029 5.28265 5.90824 4.93628Z" fill="#FADA7F"/>
<path d="M14.9883 5.37425C15.4228 5.23255 15.8574 5.09086 16.2958 4.95703C16.3585 5.38999 16.3232 5.82689 16.2684 6.25985C16.3154 6.31495 16.3624 6.37006 16.4133 6.4291C16.0453 6.5275 15.6812 6.63377 15.3054 6.70462C15.2819 6.24804 15.3602 5.71274 14.9883 5.37425Z" fill="#C87C2E"/>
<path d="M13.8008 5.77647C14.1923 5.64658 14.5877 5.50882 14.9791 5.375C15.351 5.70956 15.2727 6.2488 15.2962 6.70537C14.94 6.78016 14.5994 6.90217 14.251 7.00844C14.2745 6.96515 14.3214 6.87462 14.3449 6.83132C14.2353 6.81164 14.1296 6.7959 14.02 6.77622C14.0474 6.72111 14.0748 6.66995 14.1022 6.61484C14.02 6.33145 13.9339 6.04412 13.8008 5.77647Z" fill="#E08F2A"/>
<path d="M7.95966 5.73225C8.13974 5.65353 8.32374 5.57481 8.50382 5.49609C9.54515 5.76374 10.5317 6.22032 11.5808 6.44861C11.5652 6.89732 11.5534 7.34995 11.5691 7.79866C9.9562 7.37751 8.34331 6.93667 6.75391 6.42499C7.02794 6.35414 7.24717 6.16915 7.49772 6.04713C7.81481 6.02352 8.14757 6.12192 8.4451 5.96054C8.28459 5.88576 8.12017 5.80704 7.95966 5.73225Z" fill="#FBD572"/>
<path d="M1.01572 5.8454C1.45026 5.84933 1.88872 5.79029 2.32326 5.82178C2.35849 5.85327 2.43287 5.92412 2.46811 5.9556C2.57381 6.21538 2.69125 6.46729 2.8635 6.69164C2.64819 7.35289 2.39764 7.99839 2.13143 8.63996C1.86131 8.22668 1.57162 7.82915 1.30933 7.41587C1.36413 7.40012 1.47375 7.3647 1.52856 7.34895C1.74779 7.62841 1.93178 7.93148 2.13143 8.22275C2.10794 8.02595 2.0962 7.82127 1.99833 7.64415C1.70864 7.08917 1.39154 6.53813 0.972656 6.07368C0.988315 6.01464 1.00789 5.9005 1.01572 5.8454Z" fill="#BF7628"/>
<path d="M11.8948 6.40707C12.5525 6.26931 13.1632 5.97411 13.8052 5.78125C13.9384 6.0489 14.0206 6.33622 14.1067 6.61962C14.0793 6.67078 14.0519 6.72589 14.0245 6.78099C14.1302 6.80067 14.2398 6.81642 14.3494 6.8361C14.3259 6.87939 14.2789 6.96992 14.2554 7.01322C13.3785 7.25331 12.5173 7.54851 11.6521 7.82403L11.566 7.80435C11.5503 7.35565 11.5621 6.90301 11.5777 6.45431C11.6873 6.43856 11.7891 6.42282 11.8948 6.40707Z" fill="#F4A42B"/>
<path d="M0.308594 5.9146C0.359486 5.90279 0.457356 5.87917 0.504333 5.86343C0.676584 5.85162 0.844919 5.84769 1.01717 5.84375C1.00543 5.90279 0.985852 6.013 0.978022 6.07204C1.40082 6.54042 1.714 7.08753 2.0037 7.6425C2.09765 7.81962 2.11331 8.0243 2.1368 8.2211C1.94106 7.9259 1.75315 7.62282 1.53392 7.3473C1.47912 7.36305 1.3695 7.39847 1.3147 7.41422C0.974109 6.91828 0.684414 6.38692 0.308594 5.9146Z" fill="#CF852C"/>
<path d="M4.69922 6.13868C4.79709 6.05209 4.89104 5.9655 4.98891 5.87891C5.50958 6.05603 6.03808 6.18985 6.55874 6.36303C6.44522 6.4142 6.33169 6.4693 6.21816 6.52441C6.0185 6.4693 5.81885 6.41814 5.62311 6.36697C5.31776 6.28825 5.00849 6.20166 4.69922 6.13868Z" fill="#E39942"/>
<path d="M16.4126 6.42881C17.1016 6.30285 17.7123 5.86989 18.4326 5.91319C18.4483 5.94467 18.4757 6.01552 18.4913 6.04701C18.2016 6.10999 17.9119 6.18477 17.6262 6.27137C16.9215 6.48391 16.2207 6.70826 15.5082 6.89719C15.4417 6.83028 15.3751 6.7673 15.3086 6.70433C15.6766 6.63348 16.0446 6.52721 16.4126 6.42881Z" fill="#975633"/>
<path d="M20.6066 6.26866C20.6654 6.13877 20.7202 6.00495 20.7672 5.87113C21.464 5.87113 22.1608 5.81996 22.8537 5.90262C22.2039 6.83545 21.5697 7.77222 20.959 8.73261C20.8924 8.49251 20.8024 8.26028 20.6341 8.07136C20.3913 7.78403 20.3326 7.38649 20.0664 7.11884C20.0703 7.0598 20.0742 6.94172 20.0742 6.88268C20.2856 6.70556 20.4657 6.50089 20.6066 6.26866Z" fill="#A36029"/>
<path d="M15.5008 6.89926C16.2133 6.71033 16.914 6.48205 17.6187 6.27344C17.6187 6.45449 17.6226 6.63161 17.6147 6.81267C17.372 6.90713 17.1371 7.00947 16.8905 7.09606C15.0897 7.407 13.3398 7.95411 11.586 8.45005C11.5781 8.30441 11.5742 8.16272 11.5703 8.02102L11.676 8.00528C12.6195 7.77306 13.5355 7.45424 14.4712 7.19052C14.8196 7.09212 15.1602 6.99372 15.5008 6.89926Z" fill="#860C44"/>
<path d="M5.62165 6.36719C5.8213 6.41836 6.02096 6.46952 6.2167 6.52463C7.12885 6.79228 8.03708 7.07173 8.95314 7.32364C9.82222 7.56767 10.6835 7.855 11.576 8.02031C11.58 8.16201 11.5839 8.30764 11.5917 8.44934C10.4525 8.15807 9.32896 7.7999 8.19758 7.47714C8.03316 7.42991 7.86874 7.38268 7.70432 7.33545C7.18757 7.18194 6.67864 7.00088 6.14623 6.91823C5.95441 6.89855 5.7939 6.78047 5.62556 6.69388C5.62556 6.77653 5.62165 6.93397 5.62165 7.01663C5.59816 6.80015 5.60208 6.58367 5.62165 6.36719Z" fill="#993E5D"/>
<path d="M6.21484 6.52466C6.32837 6.46955 6.4419 6.41839 6.55543 6.36328C6.60241 6.37903 6.70028 6.41051 6.74725 6.42626C8.33666 6.93794 9.94564 7.37484 11.5624 7.79992L11.6486 7.8196C11.6564 7.86684 11.6721 7.95343 11.6799 7.99672L11.5742 8.01247C10.6855 7.84716 9.82428 7.55983 8.95128 7.3158C8.03522 7.07177 7.12699 6.79231 6.21484 6.52466Z" fill="#D58543"/>
<path d="M2.86885 6.6875C3.17421 7.00632 3.55785 7.23461 3.96108 7.41173C3.74185 7.44321 3.51479 7.46683 3.32297 7.58097C3.08025 7.76596 2.93149 8.03755 2.76315 8.28552C2.86885 8.36424 2.97455 8.44296 3.08025 8.52561C2.75924 8.61221 2.43823 8.7106 2.10547 8.72635L2.13679 8.63582C2.40299 7.99425 2.65354 7.34481 2.86885 6.6875Z" fill="#D98D30"/>
<path d="M14.2539 7.0062C14.6023 6.89992 14.9429 6.77791 15.2992 6.70312C15.3657 6.7661 15.4323 6.83301 15.4988 6.89599C15.1582 6.98651 14.8176 7.08492 14.477 7.18332C14.4027 7.12428 14.3283 7.06524 14.2539 7.0062Z" fill="#B66835"/>
<path d="M5.62892 6.69531C5.79334 6.78584 5.95384 6.90392 6.14958 6.91966C6.68199 6.99838 7.19483 7.17944 7.70767 7.33688C7.30445 7.49039 6.87773 7.54549 6.45102 7.60846C6.54889 7.65963 6.64676 7.7108 6.74855 7.7659C6.45885 7.93909 6.14175 8.10047 5.79334 8.06898C5.76202 7.88005 5.72287 7.68719 5.69155 7.49826C5.68372 7.43922 5.66415 7.32114 5.6524 7.2621L5.64849 7.23061C5.64066 7.17944 5.62891 7.07317 5.625 7.01806C5.625 6.93541 5.62892 6.77403 5.62892 6.69531Z" fill="#F97FEF"/>
<path d="M16.8945 7.09198C17.1372 7.00539 17.3761 6.90306 17.6188 6.80859C17.6031 6.90306 17.5757 7.09199 17.564 7.18251L17.56 7.20613C17.5366 7.3557 17.517 7.50527 17.5013 7.65877C17.4817 7.84376 17.4739 8.03269 17.4035 8.20981C17.2155 7.8477 17.0237 7.48559 16.8945 7.09198Z" fill="#B31778"/>
<path d="M11.6523 7.82254C12.5175 7.54701 13.3788 7.25182 14.2557 7.01172C14.3301 7.07076 14.4044 7.1298 14.4788 7.18884C13.5432 7.45255 12.6271 7.77137 11.6837 8.0036C11.6758 7.95636 11.6602 7.86583 11.6523 7.82254Z" fill="#CF753A"/>
<path d="M11.5899 8.44774C13.3438 7.94786 15.0937 7.40076 16.8945 7.09375C17.0237 7.48341 17.2155 7.84946 17.3995 8.21551C17.3055 8.61698 17.2351 9.02633 17.1215 9.42387C17.1764 9.17984 17.0667 8.9791 16.8827 8.82953C16.6087 9.17197 16.4913 9.59705 16.3856 10.0143C16.3229 10.2465 16.2525 10.4787 16.1742 10.7109C16.1546 10.766 16.1115 10.8802 16.092 10.9353C15.6535 11.7068 15.5087 12.612 15.0232 13.3677C15.035 13.415 15.0506 13.5094 15.0624 13.5527C14.9802 13.5685 14.8979 13.5842 14.8157 13.6C14.3186 13.6944 13.8605 13.9149 13.379 14.0684C12.827 14.2691 12.2476 14.3754 11.6761 14.5013C11.6526 14.6312 11.6291 14.765 11.6095 14.8989C11.6056 14.8241 11.6017 14.6784 11.5978 14.6037C11.5743 13.7692 11.6173 12.9309 11.543 12.0964C11.7113 12.0256 11.8836 11.9547 12.0401 11.8603C12.1576 12.0256 12.2868 12.2578 12.5295 12.2145C12.8074 12.1082 12.5217 11.7894 12.4747 11.6123C13.0071 11.1124 13.6648 10.7582 14.1541 10.2111C14.6748 9.72301 15.2659 9.32547 15.8297 8.88463C16.0724 8.6406 16.3777 8.93187 16.6674 8.86495C16.6948 8.82166 16.7457 8.739 16.7731 8.69571C16.4051 8.49891 16.0528 8.27456 15.677 8.08563C15.4421 8.12105 15.2581 8.28243 15.0702 8.41625C14.2677 9.02633 13.426 9.57343 12.6235 10.1835C12.3181 10.4118 12.0245 10.6716 11.68 10.8408C11.7191 10.5063 11.6917 10.1717 11.6174 9.84502C11.586 9.37664 11.6017 8.91219 11.5899 8.44774ZM12.553 12.9309C12.3377 13.1119 12.6352 13.4661 12.8544 13.3481C12.9954 13.1473 13.1363 12.9427 13.3555 12.8206C13.3477 12.6789 13.3673 12.4743 13.1715 12.4664C12.9327 12.553 12.7487 12.7655 12.553 12.9309Z" fill="#D71B9C"/>
<path d="M17.4961 7.66358C17.5118 7.51007 17.5313 7.36051 17.5548 7.21094C17.7388 7.23455 17.9267 7.26211 18.1107 7.30147C18.0403 7.47072 17.9698 7.63996 17.8993 7.81315C17.7662 7.76198 17.6292 7.71081 17.4961 7.66358Z" fill="#94613A"/>
<path d="M3.96356 7.41096C4.40202 7.52117 4.85222 7.46606 5.26718 7.30469C5.0323 7.55266 4.80524 7.80456 4.55469 8.04072C4.08883 8.26507 3.576 8.38709 3.07882 8.52485C2.97312 8.44219 2.86742 8.36347 2.76172 8.28475C2.93005 8.03679 3.08273 7.7652 3.32154 7.58021C3.51728 7.46606 3.74825 7.44638 3.96356 7.41096Z" fill="#BA712A"/>
<path d="M5.26718 7.30508C5.39637 7.2854 5.52164 7.26965 5.65083 7.25391C5.66257 7.31295 5.67823 7.43103 5.68998 7.49007C5.34548 7.73016 4.96183 7.92303 4.55469 8.03717C4.80523 7.80888 5.03229 7.55304 5.26718 7.30508Z" fill="#976245"/>
<path d="M6.45065 7.60752C6.87344 7.54454 7.30407 7.48944 7.70729 7.33594C7.87171 7.38317 8.03613 7.4304 8.20055 7.47763C8.05179 7.81613 7.84431 8.13101 7.5507 8.35536C7.26101 8.20186 6.98306 7.79645 6.64247 8.05622C6.38018 8.17037 6.11006 8.28058 5.87125 8.44195C5.84385 8.31207 5.82036 8.18611 5.79688 8.06016C6.14529 8.09165 6.45847 7.93027 6.75208 7.75709C6.64638 7.70986 6.54852 7.65869 6.45065 7.60752Z" fill="#FA99F7"/>
<path d="M8.1968 7.47656C9.32817 7.79932 10.4517 8.15355 11.5909 8.44875C11.5988 8.9132 11.5831 9.37765 11.6262 9.8421C11.2503 9.97593 11.0663 10.3262 11.0546 10.708C10.6318 10.4168 10.2129 10.1294 9.77838 9.85785C9.92322 9.78306 10.2168 9.82636 10.2286 9.60988C10.2716 9.36584 10.0289 9.24777 9.87625 9.11001C9.70008 9.26351 9.59829 9.46818 9.53174 9.69253C8.87406 9.23595 8.21246 8.77938 7.51562 8.38184L7.54303 8.35429C7.84447 8.12994 8.04804 7.81506 8.1968 7.47656Z" fill="#FA75EF"/>
<path d="M6.63672 8.06141C6.98122 7.80163 7.25917 8.20705 7.54495 8.36055L7.51755 8.3881C7.38444 8.51012 7.25526 8.63213 7.11824 8.75021C6.91075 8.55735 6.75416 8.31725 6.63672 8.06141Z" fill="#F153CC"/>
<path d="M5.8672 8.44432C6.106 8.28295 6.3722 8.17274 6.63841 8.05859C6.75585 8.31443 6.91244 8.55453 7.11993 8.7474C7.02597 8.81431 6.9281 8.87728 6.83415 8.94026C6.52488 8.77495 6.2391 8.49549 5.86328 8.55059C5.86328 8.51911 5.8672 8.46794 5.8672 8.44432Z" fill="#CF31A0"/>
<path d="M15.082 8.41265C15.2699 8.28276 15.4539 8.11746 15.6888 8.08203C16.0646 8.26702 16.417 8.49138 16.7849 8.69211C16.7575 8.73541 16.7027 8.81806 16.6792 8.86136C16.3896 8.92433 16.0842 8.63701 15.8415 8.88104C15.2817 9.31793 14.6905 9.71941 14.166 10.2075C13.4691 10.7664 12.7214 11.2623 12.052 11.8567C11.8954 11.9511 11.7231 12.022 11.5548 12.0928C11.5391 11.6992 11.5509 11.3017 11.5548 10.9081C11.59 10.8923 11.6566 10.8569 11.6918 10.8412C12.0363 10.6719 12.3299 10.4121 12.6353 10.1839C13.4378 9.57377 14.2795 9.02273 15.082 8.41265Z" fill="#AA135A"/>
<path d="M7.11781 8.74492C7.25091 8.62684 7.3801 8.50089 7.51712 8.38281C8.21395 8.78035 8.87555 9.23299 9.53324 9.6935C9.59587 9.7368 9.71723 9.81946 9.77987 9.85882C10.2144 10.1304 10.6333 10.4217 11.0561 10.709C11.197 10.7916 11.3458 10.8664 11.5024 10.9294C11.5063 11.323 11.5141 11.7166 11.4867 12.1102C11.2557 11.9449 11.0248 11.7835 10.786 11.6261C9.48626 10.7051 8.18655 9.77616 6.83203 8.93385C6.92599 8.87481 7.02386 8.81184 7.11781 8.74492Z" fill="#CA1E86"/>
<path d="M5.86328 8.5453C6.2391 8.49413 6.5288 8.76965 6.83415 8.93497C8.18867 9.77727 9.48446 10.7062 10.7881 11.6272C10.6628 11.6154 10.5375 11.6075 10.4123 11.5996C10.2361 11.8437 9.93858 11.7964 9.69978 11.6862C9.04992 11.4028 8.35309 11.273 7.668 11.1273C7.44877 11.084 7.30001 10.903 7.12384 10.781C7.28826 10.7455 7.4566 10.7101 7.62102 10.6747C7.63668 10.5251 7.64843 10.3755 7.66408 10.2299C7.48792 10.2378 7.28826 10.1866 7.13167 10.2929C6.99465 10.4267 7.08078 10.6235 7.07295 10.7888C6.92027 10.8597 6.75585 10.9069 6.58752 10.9345L6.56794 10.9384C6.29391 10.1512 6.08251 9.34431 5.86328 8.5453Z" fill="#FA75F2"/>
<path d="M16.3906 10.0129C16.4963 9.59565 16.6138 9.16662 16.8878 8.82812C17.0718 8.97769 17.1775 9.18237 17.1266 9.42247C17.0209 9.82394 16.8761 10.2097 16.7351 10.5993C16.6412 10.4734 16.6373 10.3159 16.6373 10.1664C16.555 10.1152 16.4728 10.064 16.3906 10.0129Z" fill="#E050BA"/>
<path d="M9.87575 9.10938C10.0245 9.24714 10.2711 9.36521 10.2281 9.60925C10.2203 9.82573 9.92273 9.78243 9.77788 9.85722C9.71525 9.81392 9.59389 9.73126 9.53125 9.6919C9.5978 9.47148 9.69959 9.26288 9.87575 9.10938Z" fill="#F6B8E1"/>
<path d="M11.0547 10.7097C11.0664 10.3239 11.2504 9.97757 11.6262 9.84375C11.7006 10.1704 11.728 10.505 11.6889 10.8396C11.6537 10.8553 11.5871 10.8907 11.5519 10.9065L11.4971 10.934C11.3483 10.8671 11.1995 10.7963 11.0547 10.7097Z" fill="#F9A7F1"/>
<path d="M16.3911 10.0117C16.4733 10.0629 16.5555 10.1141 16.6377 10.1652C16.6416 10.3148 16.6455 10.4683 16.7356 10.5982C16.7043 10.7399 16.6612 10.8816 16.6181 11.0233L16.622 10.976C16.626 10.9367 16.626 10.854 16.6299 10.8147C16.4811 10.7792 16.3324 10.7399 16.1836 10.7045C16.258 10.4801 16.3284 10.2439 16.3911 10.0117Z" fill="#EC69CC"/>
<path d="M12.0508 11.8562C12.7202 11.2619 13.4679 10.7659 14.1648 10.207C13.6715 10.7541 13.0177 11.1084 12.4853 11.6083C12.5323 11.7854 12.8181 12.1042 12.5401 12.2105C12.2974 12.2538 12.1721 12.0215 12.0508 11.8562Z" fill="#F663D1"/>
<path d="M7.06747 10.7969L7.11836 10.7891C7.29452 10.9111 7.44329 11.0921 7.66251 11.1354C8.35152 11.2811 9.04835 11.411 9.69429 11.6943C9.93309 11.8046 10.2306 11.8479 10.4068 11.6078C10.5321 11.6156 10.6573 11.6196 10.7826 11.6353C11.0175 11.7927 11.2485 11.9581 11.4833 12.1194C11.5108 11.7258 11.5029 11.3322 11.499 10.9386L11.5538 10.9111C11.5499 11.3047 11.5382 11.7022 11.5538 12.0958C11.6243 12.9302 11.5812 13.7647 11.6086 14.6031C10.4538 14.6818 9.34196 14.3197 8.25365 13.9772C8.42981 14.7841 9.18145 15.2722 9.43591 16.0358C8.80955 15.3273 8.26148 14.548 7.81128 13.7135C8.08531 13.4892 8.59815 13.316 8.52377 12.8791C8.46896 12.5681 8.27322 12.2336 7.94829 12.1627C7.66251 12.0683 7.3689 12.1549 7.08312 12.206L7.07138 12.21C6.89913 11.7927 6.71905 11.3755 6.58203 10.9465C6.75037 10.9111 6.91479 10.8678 7.06747 10.7969ZM10.763 12.8004C11.0097 12.7256 11.268 12.6272 11.3346 12.3438C11.1663 12.147 10.947 11.9226 10.6612 12.0132C10.2619 12.0958 10.3715 12.761 10.763 12.8004Z" fill="#FC82FA"/>
<path d="M16.1801 10.7109C16.3288 10.7464 16.4776 10.7818 16.6264 10.8211C16.6224 10.8605 16.6224 10.9432 16.6185 10.9825C16.5676 11.1321 16.5128 11.2817 16.4541 11.4312C16.3053 11.3801 16.1566 11.3289 16.0078 11.2777C16.0313 11.1911 16.0744 11.0219 16.0979 10.9353C16.1174 10.8802 16.1605 10.766 16.1801 10.7109Z" fill="#F6D9E9"/>
<path d="M15.0273 13.3621C15.5089 12.6104 15.6576 11.7051 16.0961 10.9297C16.0726 11.0163 16.0295 11.1895 16.006 11.2721C16.1548 11.3194 16.3036 11.3705 16.4523 11.4256C16.1665 12.205 15.7672 12.9292 15.3679 13.6534C15.2661 13.618 15.1644 13.5826 15.0665 13.5471C15.0587 13.5038 15.0391 13.4094 15.0273 13.3621Z" fill="#D74AB1"/>
<path d="M10.7651 12.8001C10.3736 12.7646 10.2679 12.0995 10.6633 12.0129C10.9491 11.9223 11.1683 12.1467 11.3367 12.3435C11.2701 12.6229 11.0078 12.7253 10.7651 12.8001Z" fill="#FACDF3"/>
<path d="M7.08594 12.2026C7.3678 12.1515 7.66533 12.0649 7.95111 12.1594C8.27995 12.2341 8.47178 12.5648 8.52658 12.8757C8.60096 13.3126 8.08813 13.4858 7.81409 13.7101C7.53223 13.226 7.30517 12.7143 7.08594 12.2026Z" fill="#F9F0FA"/>
<path d="M12.5534 12.9332C12.7453 12.764 12.9293 12.5514 13.172 12.4648C13.3638 12.4727 13.3481 12.6774 13.356 12.8191C13.1367 12.9411 12.9958 13.1458 12.8549 13.3465C12.6356 13.4685 12.342 13.1182 12.5534 12.9332Z" fill="#F152B9"/>
<path d="M13.3907 14.0621C13.8683 13.9086 14.3302 13.6882 14.8274 13.5938C14.522 14.0976 14.2363 14.621 13.8448 15.0658C13.3319 15.4004 12.9444 15.8806 12.549 16.3411C12.4237 16.4749 12.3846 16.652 12.3376 16.8252C12.087 16.8488 11.8365 16.8921 11.5859 16.9275C11.5938 16.7426 11.5977 16.5576 11.6055 16.3726C11.6133 15.8766 11.6212 15.3807 11.6212 14.8848C11.6407 14.7509 11.6642 14.621 11.6877 14.4872C12.2593 14.3691 12.8387 14.2629 13.3907 14.0621ZM13.8996 14.4912C13.7626 14.5266 13.6295 14.7116 13.7078 14.8493C13.8761 14.9359 14.0757 14.562 13.8996 14.4912Z" fill="#B20A68"/>
<path d="M14.8225 13.598C14.9047 13.5823 14.9869 13.5665 15.0691 13.5508C15.167 13.5862 15.2687 13.6216 15.3705 13.6571C15.0534 14.2514 14.6815 14.8142 14.2666 15.3456C14.2548 15.259 14.2431 15.1724 14.2313 15.0858C14.1295 15.1331 14.0238 15.1803 13.9221 15.2236C13.9025 15.1882 13.8633 15.1094 13.8398 15.074C14.2313 14.6253 14.5171 14.1018 14.8225 13.598Z" fill="#BF2B8C"/>
<path d="M8.25391 13.9727C9.34222 14.3151 10.454 14.6733 11.6089 14.5985C11.6128 14.6733 11.6167 14.8189 11.6206 14.8937C11.6206 15.3896 11.6128 15.8856 11.605 16.3815C11.2487 15.9485 10.6654 16.0351 10.1682 16.0233C9.95684 16.0312 9.69063 15.9485 9.5771 16.1926L9.5497 16.1729C9.5223 16.1375 9.46749 16.0705 9.44009 16.0351C9.18171 15.2676 8.43007 14.7835 8.25391 13.9727ZM9.90986 14.8976C9.86288 15.122 10.3601 15.303 10.3013 14.9724C10.3757 14.7677 9.96075 14.7835 9.90986 14.8976Z" fill="#E747CF"/>
<path d="M13.8948 14.4922C14.071 14.563 13.8713 14.9409 13.703 14.8504C13.6247 14.7126 13.7578 14.5276 13.8948 14.4922Z" fill="#D12F8C"/>
<path d="M9.90548 14.8967C9.95637 14.7865 10.3713 14.7707 10.297 14.9715C10.3557 15.3021 9.8585 15.121 9.90548 14.8967Z" fill="#FA74DF"/>
<path d="M12.5395 16.3495C12.931 15.885 13.3186 15.4048 13.8353 15.0742C13.8549 15.1096 13.8979 15.1884 13.9175 15.2238C14.0193 15.1805 14.125 15.1333 14.2268 15.086C14.2385 15.1726 14.2503 15.2592 14.262 15.3458C14.172 15.5505 13.9919 15.7 13.8588 15.8811C13.6787 16.0818 13.5534 16.3574 13.2872 16.4558C13.0249 16.5778 12.7705 16.7155 12.5043 16.8179L12.332 16.8375C12.379 16.6604 12.4142 16.4794 12.5395 16.3495Z" fill="#B71E77"/>
<path d="M9.57422 16.1922C9.68775 15.9482 9.95395 16.0309 10.1654 16.023C10.6625 16.0348 11.2458 15.9482 11.6021 16.3812C11.5942 16.5661 11.5903 16.7511 11.5825 16.9361C11.2693 16.9125 10.9601 16.8613 10.6508 16.8062C10.4472 16.7197 10.2515 16.6134 10.0597 16.5071C9.89523 16.4048 9.73081 16.3024 9.57422 16.1922Z" fill="#DA3DBD"/>
<path d="M9.54734 16.168L9.57475 16.1876C9.73134 16.2979 9.89576 16.4041 10.0602 16.4986C9.92316 16.9512 9.77832 17.3999 9.62173 17.8447C9.52386 17.7581 9.37509 17.7188 9.33203 17.5849C9.46513 17.1992 9.62564 16.8213 9.82138 16.4632C9.73134 16.3687 9.6413 16.2664 9.54734 16.168Z" fill="#FBF5CD"/>
<path d="M10.0635 16.5039C10.2553 16.6141 10.4471 16.7204 10.6546 16.803C10.913 16.9172 11.1949 16.9566 11.4767 16.9802C11.5041 17.0313 11.5629 17.1337 11.5942 17.1888C11.2223 17.1297 10.8465 17.0156 10.4667 17.0707C10.2788 17.2399 10.2945 17.5194 10.2044 17.7398C10.1809 17.9248 9.96563 17.9248 9.82861 17.9799L9.60547 17.9091L9.62504 17.8579C9.78163 17.4053 9.92648 16.9565 10.0635 16.5039Z" fill="#F9E89E"/>
<path d="M12.5101 16.8152C12.7763 16.709 13.0307 16.5712 13.293 16.4531C13.4614 16.8231 13.6336 17.1931 13.7863 17.567C13.6845 17.6654 13.5827 17.7638 13.4849 17.8662C13.2695 17.8189 13.0777 17.7048 13.0151 17.4804C13.1638 17.4293 13.3165 17.382 13.4653 17.3348C13.3948 17.1655 13.3244 16.9963 13.2265 16.8389C13.0973 16.8428 12.9916 16.9333 12.8781 16.9845C12.4709 17.1537 12.0286 17.2206 11.5901 17.1892C11.5627 17.138 11.504 17.0317 11.4727 16.9806C11.8289 17.016 12.1851 16.9609 12.5101 16.8152Z" fill="#E2A438"/>
<path d="M12.8789 16.9816C12.9924 16.9304 13.0981 16.8399 13.2273 16.8359C13.3252 16.9894 13.3957 17.1626 13.4661 17.3319C13.3174 17.3791 13.1647 17.4303 13.0159 17.4775C12.965 17.3122 12.922 17.1469 12.8789 16.9816Z" fill="#CE8F2A"/>
<path d="M11.593 17.189C12.0275 17.2205 12.4738 17.1497 12.8809 16.9844C12.9279 17.1497 12.967 17.315 13.0179 17.4803C13.0806 17.7086 13.2724 17.8188 13.4877 17.866C13.4642 17.8975 13.4094 17.9605 13.3859 17.992C13.335 17.9605 13.2332 17.9015 13.1784 17.87C12.6499 17.9605 12.1136 18.0117 11.5773 18.0392C11.5695 17.7558 11.5773 17.4724 11.593 17.189Z" fill="#B15F1C"/>
<path d="M10.2081 17.7342C10.2981 17.5138 10.2785 17.2343 10.4703 17.0651C10.8501 17.01 11.2259 17.1281 11.5978 17.1832C11.5821 17.4666 11.5743 17.7499 11.5821 18.0333C10.9949 18.0412 10.4116 18.0215 9.82441 18.0019L9.73828 17.9979L9.83224 17.9704C9.96534 17.9192 10.1807 17.9231 10.2081 17.7342Z" fill="#F8AB2C"/>
<path d="M11.5781 18.0364C12.1145 18.0089 12.6508 17.9617 13.1793 17.8672C13.2302 17.8987 13.3359 17.9577 13.3868 17.9892C13.148 18.2175 12.9013 18.4379 12.6821 18.6819L12.7173 18.5914C12.3376 18.6465 11.954 18.6819 11.5742 18.7292C11.5781 18.4969 11.5781 18.2647 11.5781 18.0364Z" fill="#7B4423"/>
<path d="M9.82031 18.0078C10.4036 18.0275 10.9908 18.0511 11.5781 18.0393C11.582 18.2676 11.5781 18.4998 11.5741 18.732C11.2414 18.7557 10.9086 18.7517 10.5759 18.7163C10.3449 18.4565 10.0395 18.2755 9.82031 18.0078Z" fill="#9B5A28"/>
<path d="M11.5664 18.7315C11.9461 18.6843 12.3298 18.6449 12.7095 18.5938L12.6743 18.6843C12.5843 18.9047 12.4903 19.129 12.3533 19.3298C12.138 19.4597 11.8874 19.4872 11.6447 19.5148C11.6173 19.2511 11.5899 18.9913 11.5664 18.7315Z" fill="#B6702B"/>
<path d="M10.5703 18.7148C10.9031 18.7463 11.2358 18.7503 11.5686 18.7306C11.5882 18.9904 11.6156 19.2541 11.6469 19.5139C11.8896 19.4863 12.1401 19.4587 12.3555 19.3289C12.3124 19.8209 12.469 20.3286 12.8096 20.6868C12.9662 20.8442 13.205 20.9072 13.3576 21.0646L13.4281 21.2063C12.8526 20.8678 12.195 21.0607 11.5764 21.1119C11.5921 20.5569 11.5842 19.998 11.5255 19.443C11.4746 19.5099 11.4277 19.5808 11.3807 19.6477C11.2358 19.6123 11.091 19.5729 10.95 19.5375C10.8992 19.4588 10.8522 19.3761 10.8052 19.2974C10.7191 19.1084 10.6486 18.9116 10.5703 18.7148Z" fill="#ECA53E"/>
<path d="M10.8134 19.2969C10.8604 19.3795 10.9074 19.4583 10.9583 19.537C11.2049 19.781 11.0562 20.1234 10.9191 20.3793C10.8017 20.5839 10.6451 20.765 10.4885 20.9421C10.4611 20.8831 10.4063 20.7611 10.3789 20.6981C10.7273 20.3281 10.8957 19.8086 10.8134 19.2969Z" fill="#F3EFBB"/>
<path d="M11.389 19.65C11.436 19.5791 11.483 19.5122 11.5339 19.4453C11.5926 20.0003 11.5965 20.5553 11.5847 21.1142C11.1698 21.1024 10.7548 21.1063 10.3398 21.1024C10.3751 21.063 10.4534 20.9882 10.4925 20.9489C10.6491 20.7717 10.8018 20.5907 10.9231 20.386C11.0602 20.1262 11.2089 19.7877 10.9623 19.5437C11.1032 19.5752 11.2481 19.6106 11.389 19.65Z" fill="#F9DA81"/>
<path d="M13.3633 21.0664C13.79 21.2868 14.1815 21.5702 14.5964 21.8142C14.7648 21.9205 14.9683 22.011 15.0153 22.2275C14.5769 21.9402 14.1267 21.6726 13.6804 21.401C13.5982 21.338 13.516 21.275 13.4377 21.2081L13.3633 21.0664Z" fill="#FDE68C"/>
<path d="M15.5243 22.8354C15.9158 22.7882 16.3621 22.7685 16.734 22.8708C16.918 23.7997 17.1255 24.7247 17.3408 25.6457C17.4974 26.3266 17.6461 27.0076 17.8145 27.6846C15.724 27.661 13.6335 27.6413 11.543 27.6334C11.6134 27.5232 11.5939 27.2792 11.7739 27.2831C12.3103 27.228 12.8466 27.2674 13.3868 27.2241C14.4086 27.1493 15.4343 27.2044 16.4521 27.0705C16.4208 26.7635 16.3777 26.4526 16.319 26.1495C16.2055 25.504 16.1154 24.8506 15.9471 24.2169C15.9902 24.2091 16.0763 24.1973 16.1194 24.1894C16.5461 23.9808 16.3151 23.4809 16.1389 23.1739C15.7866 23.1149 15.4343 23.0598 15.078 23.0086C15.2307 22.9496 15.3795 22.8905 15.5243 22.8354Z" fill="#824F39"/>
<path d="M11.6023 24.2532C13.0508 24.2808 14.4993 24.1942 15.9478 24.2139C16.1161 24.8476 16.2061 25.501 16.3197 26.1465C15.3214 26.2173 14.3192 26.2724 13.3209 26.3629C13.2505 26.1346 13.227 25.867 13.0547 25.6899C12.859 25.4655 12.4205 25.5757 12.3579 25.8709C12.3344 26.0638 12.3853 26.2527 12.4127 26.4456C12.17 26.4535 11.9312 26.4653 11.6885 26.4771C11.6728 26.725 11.6493 26.973 11.6141 27.221C11.5945 27.0084 11.5828 26.7959 11.5867 26.5834C11.6102 25.8631 11.6023 25.1467 11.6023 24.4264C11.6023 24.3831 11.6023 24.2965 11.6023 24.2532ZM14.0139 24.4933C13.7281 24.5839 13.7242 24.9657 13.8416 25.19C13.9786 25.3199 14.19 25.2766 14.3544 25.2333C14.6207 24.9932 14.3936 24.4185 14.0139 24.4933Z" fill="#B5744E"/>
<path d="M8.46042 22.0492C9.07504 21.5651 9.78362 21.2148 10.3826 20.707C10.41 20.7661 10.4648 20.8881 10.4922 20.9511C10.453 20.9904 10.3787 21.0652 10.3395 21.1046C9.72098 21.5769 9.11419 22.0964 8.39778 22.4074L8.35472 22.4271C8.33515 22.2893 8.32732 22.1279 8.46042 22.0492Z" fill="#F1F9DF"/>
<path d="M11.5819 21.1128C12.2005 21.0616 12.8582 20.8688 13.4336 21.2073C13.5119 21.2742 13.5941 21.3371 13.6763 21.4001C12.9913 21.5221 12.3806 21.8764 11.715 22.0771C11.672 22.2739 11.6289 22.4707 11.5937 22.6675C11.5702 22.148 11.5702 21.6323 11.5819 21.1128Z" fill="#D38F44"/>
<path d="M8.39453 22.4044C9.11094 22.0895 9.71773 21.5699 10.3363 21.1016C10.7512 21.1055 11.1662 21.1016 11.5812 21.1134C11.5694 21.6329 11.5694 22.1485 11.5929 22.6681C11.589 22.8098 11.5851 22.9515 11.5851 23.0932C10.9157 23.0499 10.2462 22.983 9.59637 22.8098C9.18923 22.6878 8.82124 22.4555 8.39453 22.4044Z" fill="#FCCA48"/>
<path d="M11.7151 22.0715C12.3767 21.8747 12.9913 21.5165 13.6764 21.3945C14.1227 21.6661 14.5729 21.9338 15.0114 22.2211C15.0035 22.2723 14.9879 22.3746 14.984 22.4258C13.8683 22.717 12.7447 23.0201 11.5898 23.0831C11.5938 22.9414 11.5938 22.7997 11.5977 22.658C11.629 22.4651 11.676 22.2683 11.7151 22.0715Z" fill="#C07D3A"/>
<path d="M8.35396 22.422L8.39702 22.4023C8.45574 22.5362 8.45574 22.7094 8.56927 22.8156C8.87463 22.9731 9.21521 23.0439 9.54406 23.1344C10.2174 23.3116 10.9103 23.3706 11.6032 23.3785C12.2727 23.3706 12.9421 23.4336 13.6115 23.4533C12.9499 23.6186 12.2687 23.5635 11.5915 23.5753C10.0217 23.5438 8.45183 23.4847 6.882 23.5674C6.83894 23.8272 6.79979 24.0909 6.76455 24.3507C6.65494 25.1497 6.46703 25.9369 6.34959 26.7359C6.33001 26.8855 6.31435 27.035 6.29869 27.1846C6.28695 27.3263 6.27521 27.4719 6.26738 27.6136C6.00117 27.6136 5.73105 27.6215 5.46484 27.6294C5.47659 27.5625 5.50399 27.4326 5.51574 27.3656C5.84066 25.8621 6.09512 24.3349 6.43571 22.8392C7.08165 22.8156 7.72759 22.8314 8.37353 22.8156C8.3657 22.6857 8.35787 22.5558 8.35396 22.422Z" fill="#FAE9B5"/>
<path d="M8.39453 22.4023C8.82124 22.4535 9.18924 22.6857 9.59246 22.8078C9.58071 22.8904 9.55723 23.0557 9.54157 23.1344C9.21272 23.0439 8.87214 22.9731 8.56678 22.8156C8.45325 22.7133 8.45325 22.5362 8.39453 22.4023Z" fill="#E59A31"/>
<path d="M11.582 23.0948C12.7408 23.0318 13.8604 22.7288 14.9762 22.4375C14.9801 22.5202 14.9918 22.6855 14.9957 22.7681C15.1719 22.7917 15.3441 22.8154 15.5164 22.839C15.3676 22.8941 15.2228 22.9531 15.074 23.0122C15.4264 23.0633 15.7826 23.1184 16.1349 23.1775C16.3111 23.4805 16.5421 23.9843 16.1154 24.193C15.9862 23.9332 15.8452 23.6813 15.6808 23.4451C14.9879 23.4609 14.2989 23.4372 13.606 23.4569C12.9365 23.4372 12.2671 23.3782 11.5977 23.3821C11.5977 23.3113 11.5899 23.1657 11.582 23.0948Z" fill="#8E5835"/>
<path d="M9.59386 22.8086C10.2437 22.9818 10.9171 23.0448 11.5826 23.092C11.5865 23.1628 11.5982 23.3085 11.6021 23.3832C10.9092 23.3754 10.2163 23.3163 9.54297 23.1392C9.55863 23.0566 9.58212 22.8912 9.59386 22.8086Z" fill="#CF8D2F"/>
<path d="M13.6138 23.4532C14.3067 23.4335 14.9957 23.4572 15.6886 23.4414C15.853 23.6776 15.994 23.9295 16.1232 24.1892C16.0801 24.1971 15.994 24.2089 15.9509 24.2168C14.5024 24.1971 13.054 24.2837 11.6055 24.2562C11.6016 24.0318 11.6016 23.8035 11.5977 23.5792C12.271 23.5634 12.9522 23.6185 13.6138 23.4532Z" fill="#D08F61"/>
<path d="M6.88698 23.5695C8.45681 23.4868 10.0266 23.5459 11.5965 23.5774C11.6004 23.8017 11.6043 24.03 11.6043 24.2543C11.6043 24.2976 11.6043 24.3842 11.6043 24.4236C11.1737 24.2701 10.7156 24.3173 10.2694 24.3213C9.10275 24.3252 7.93223 24.337 6.76562 24.3527C6.80086 24.093 6.84001 23.8293 6.88698 23.5695Z" fill="#F5B55B"/>
<path d="M6.76652 24.3511C7.93313 24.3354 9.10365 24.3236 10.2703 24.3196C10.7165 24.3157 11.1746 24.2645 11.6052 24.422C11.6091 25.1422 11.6169 25.8586 11.5895 26.5789C11.1119 26.575 10.6343 26.5631 10.1606 26.6025C9.09582 26.7048 8.02317 26.6694 6.95443 26.6615C6.75086 26.6615 6.55121 26.697 6.35547 26.7324C6.469 25.9373 6.66082 25.1541 6.76652 24.3511ZM8.5869 25.4886C8.42639 25.7051 8.72783 26.0121 8.94314 25.8468C9.1428 25.7641 9.08408 25.5358 9.06059 25.3705C8.90008 25.3784 8.66519 25.2918 8.5869 25.4886Z" fill="#E7A04C"/>
<path d="M14.0143 24.4949C14.394 24.4202 14.6211 24.9948 14.3549 25.2349C14.1905 25.2782 13.9791 25.3215 13.8421 25.1916C13.7246 24.9673 13.7285 24.5855 14.0143 24.4949Z" fill="#A26748"/>
<path d="M8.58824 25.4898C8.66653 25.293 8.90142 25.3796 9.06192 25.3717C9.08541 25.537 9.14413 25.7653 8.94448 25.848C8.72917 26.0133 8.42773 25.7063 8.58824 25.4898Z" fill="#CB8C4B"/>
<path d="M12.3609 25.8706C12.4197 25.5754 12.8581 25.4652 13.0578 25.6895C13.23 25.8706 13.2535 26.1343 13.324 26.3626C14.3223 26.2721 15.3244 26.217 16.3227 26.1461C16.3814 26.4531 16.4245 26.7601 16.4558 27.0671C15.438 27.2049 14.4123 27.1459 13.3905 27.2206C12.8542 27.2639 12.314 27.2246 11.7776 27.2797C11.5976 27.2757 11.6132 27.5198 11.5467 27.63C9.78893 27.6221 8.03119 27.6221 6.26953 27.6103C6.28128 27.4647 6.2891 27.323 6.30085 27.1813C8.07425 27.2246 9.84373 27.2246 11.6171 27.2167C11.6524 26.9687 11.6759 26.7208 11.6915 26.4728C11.9342 26.4571 12.173 26.4492 12.4158 26.4413C12.3923 26.2563 12.3375 26.0635 12.3609 25.8706Z" fill="#A46543"/>
<path d="M6.95065 26.6644C8.01938 26.6723 9.09203 26.7077 10.1569 26.6053C10.6305 26.5699 11.1082 26.5778 11.5858 26.5817C11.5858 26.7943 11.5975 27.0068 11.6132 27.2194C9.83976 27.2272 8.06636 27.2272 6.29688 27.1839C6.30862 27.0344 6.32819 26.8848 6.34777 26.7352C6.54742 26.6998 6.74708 26.6644 6.95065 26.6644Z" fill="#D68A43"/>
</svg>
