<svg width="55" height="66" viewBox="0 0 55 66" fill="none" xmlns="http://www.w3.org/2000/svg">
<g id="Group">
<path id="Vector" d="M19.1514 30.5026C18.7552 30.6763 18.0338 30.3494 18.5113 29.9102C18.7552 30.0838 18.9685 30.2779 19.1514 30.5026Z" fill="#FCD977"/>
<path id="Vector_2" d="M33.2789 29.9181C33.8784 29.0906 34.6099 28.1815 35.6768 28.0078C34.9452 29.06 34.1019 30.0202 33.3805 31.0622L33.8276 30.8988C32.4661 31.8897 31.5923 33.3913 30.4543 34.6172C30.4239 34.5048 30.3629 34.2801 30.3223 34.1677C31.3688 32.7886 32.3848 31.3993 33.2789 29.9181Z" fill="#59B3EF"/>
<path id="Vector_3" d="M24.832 29.2585C24.9438 28.8907 24.9336 28.4106 25.3299 28.2267C25.7363 28.2165 25.8887 28.7068 25.9192 29.0337C25.7465 29.5854 25.2384 29.33 24.832 29.2585Z" fill="#9EFBF8"/>
<path id="Vector_4" d="M21.8045 30.3805C21.52 29.7267 21.1542 28.9197 21.8045 28.3477C22.0585 28.7563 22.3226 29.1547 22.5665 29.5735C22.3836 29.9106 22.1398 30.2069 21.8045 30.3805Z" fill="#CCFFF6"/>
<path id="Vector_5" d="M24.7631 30.2773C25.1492 30.3182 25.5251 30.4204 25.8807 30.594C25.6877 30.9618 25.4641 31.35 25.0577 31.5236C24.8545 31.1354 24.692 30.7268 24.7631 30.2773Z" fill="#9CFBF7"/>
<path id="Vector_6" d="M20.4785 31.4816C20.9865 31.1241 21.5352 30.8074 22.1346 30.6133C22.5614 31.2569 23.0796 31.8493 23.3945 32.5542C23.5063 33.1263 23.1608 33.6779 23.0186 34.2193C22.155 33.3306 21.3828 32.3397 20.4785 31.4816Z" fill="#89F4F9"/>
<path id="Vector_7" d="M28.5288 32.2175C28.9556 32.0949 29.4026 32.0643 29.8395 32.0234C29.8192 32.1767 29.7989 32.4729 29.7786 32.6159C29.7074 32.6977 29.5449 32.8815 29.4737 32.9633C29.1385 33.0858 28.793 33.188 28.4476 33.3004C28.5593 33.3821 28.793 33.5557 28.9048 33.6375C28.5288 33.9439 28.1326 34.2504 27.7363 34.5364C27.9599 33.7601 28.1732 32.9633 28.5288 32.2175Z" fill="#5DD8F1"/>
<g id="Group_2">
<g id="Group_3">
<path id="Vector_8" d="M33.4913 11.6467C34.2127 10.9521 34.9544 10.2676 35.6453 9.53214L36.0517 9.37891C34.5886 11.2177 32.7293 12.6785 31.2357 14.4866C31.1849 14.5377 31.0833 14.6194 31.0427 14.6705C30.9919 14.7216 30.8902 14.8237 30.8293 14.8748C30.7785 14.9259 30.687 15.0178 30.6464 15.0689C30.5956 15.1302 30.4838 15.2425 30.4229 15.3038C30.3416 15.3958 30.1587 15.5694 30.0774 15.6614C30.0469 15.692 29.9961 15.7431 29.9657 15.7737C29.7015 16.0393 29.4373 16.3049 29.1732 16.5705C28.4314 17.1937 27.7405 17.8679 27.0395 18.5421C26.3079 18.0007 25.6577 17.3776 25.0176 16.734L25.424 16.877C25.8812 17.3163 26.3791 17.7249 26.9176 18.0824C27.1817 17.7249 27.4561 17.3673 27.7202 17.0098C28.147 16.7544 28.5839 16.5092 28.9395 16.1619C30.4838 14.6807 32.0384 13.2199 33.4913 11.6467Z" fill="#322E51"/>
<path id="Vector_9" d="M49.7277 7.34375C49.7989 7.34375 49.9411 7.35396 50.0122 7.35396C49.9919 7.79323 49.9716 8.2427 49.9411 8.68196C49.809 11.0928 49.0978 13.4321 48.2139 15.6591C47.7566 16.7317 47.2385 17.7737 46.6695 18.785C45.6433 20.5931 44.231 22.1152 42.9305 23.7292C42.7374 23.9233 42.5444 24.1276 42.3412 24.3217C41.8738 24.5771 41.3963 24.8223 40.9492 25.0981C45.7855 20.4092 48.9454 14.045 49.7277 7.34375Z" fill="#FDE68C"/>
<path id="Vector_10" d="M9.38477 0C15.4606 0.0715077 21.5467 0.0204309 27.6225 0.0408617C27.9883 0.143016 28.3439 0.2656 28.7097 0.377969C27.9578 0.3984 27.206 0.469908 26.5252 0.807016C23.9852 0.939816 21.4349 0.837662 18.8847 0.858093C18.7932 1.11348 18.6916 1.36886 18.6002 1.63446C18.275 1.36886 17.9398 1.11348 17.6045 0.868308C15.3794 1.1952 13.1034 1.45059 11.0815 2.5232C10.8479 2.34954 10.6243 2.17588 10.4008 1.992C10.2789 1.29735 10.4008 0.306461 9.52701 0.0817226L9.38477 0Z" fill="#FEFEF4"/>
<path id="Vector_11" d="M27.6251 0.0387249C33.2437 -0.012352 38.8725 0.0387243 44.4912 0.0285089C44.4302 0.161309 44.2981 0.416694 44.2372 0.549494C43.7495 0.58014 43.2618 0.600571 42.7741 0.621002C41.0672 0.661863 39.3602 0.672078 37.6533 0.682294C34.087 0.590355 30.5411 0.804878 26.9748 0.794663H26.5176C27.1983 0.457555 27.9502 0.386048 28.702 0.365617C28.3464 0.263463 27.9807 0.140879 27.6251 0.0387249Z" fill="#FEF7D0"/>
<path id="Vector_12" d="M44.4906 0.0297465L44.5008 0.0195312C44.4398 0.785685 44.4195 1.55184 44.4398 2.31799C44.45 2.80833 44.45 3.29867 44.45 3.78901C44.4398 4.47344 44.4195 5.15787 44.3992 5.83209C44.389 6.32243 44.389 6.82298 44.3992 7.32353C44.4195 8.3655 44.4602 9.40747 44.3992 10.4494C43.1495 9.5607 41.6762 9.04993 40.4976 8.04883C39.1361 7.08858 38.1404 5.75036 37.2158 4.3815C36.972 4.65732 36.657 4.89227 36.5046 5.23959C36.6164 6.04661 37.4394 6.62889 37.4902 7.46655C36.9314 8.22249 35.8543 8.51873 35.6511 9.54027C34.9602 10.2758 34.2185 10.95 33.4972 11.6549C33.68 10.3371 34.2795 9.13166 34.4421 7.80366C33.426 8.38593 32.6539 9.28489 31.841 10.1226C30.2154 11.5834 28.61 13.0544 26.9336 14.4539C26.9336 14.3211 26.9438 14.0657 26.9438 13.9329C26.9946 12.6866 26.9641 11.4301 26.9946 10.1838C26.9641 9.85695 27.1063 9.5607 27.3806 9.37683C30.6421 6.6391 33.7816 3.75836 37.1244 1.13301C39.2682 2.28735 40.9447 4.1159 42.7431 5.72993C42.865 4.03418 42.7431 2.32821 42.7837 0.632455C43.2714 0.612024 43.7591 0.591593 44.2468 0.560947C44.2976 0.417932 44.4297 0.162547 44.4906 0.0297465Z" fill="#AF5E22"/>
<path id="Vector_13" d="M18.8841 0.847952C21.4343 0.837737 23.9846 0.929675 26.5247 0.796875H26.9819C26.992 3.78998 27.053 6.79331 26.9412 9.78642C25.9658 9.05091 25.1835 8.11109 24.33 7.253C22.7247 5.53682 21.0279 3.92278 19.3311 2.30875C19.0873 2.0738 18.8536 1.84906 18.5996 1.62432C18.6911 1.36894 18.7825 1.11355 18.8841 0.847952Z" fill="#FCD977"/>
<path id="Vector_14" d="M40.9535 25.0889C41.4006 24.8131 41.8781 24.5679 42.3455 24.3125C40.5675 26.2739 38.4643 27.8879 36.3509 29.4611C35.6397 29.9923 34.9082 30.5132 34.0547 30.7993C36.483 29.0627 38.8402 27.2137 40.9535 25.0889Z" fill="#FCD977"/>
<path id="Vector_15" d="M26.9825 0.807206C30.5386 0.817422 34.0947 0.602898 37.661 0.694837C37.4781 0.837852 37.3054 0.980868 37.1225 1.12388C33.7696 3.75945 30.6402 6.64019 27.3787 9.3677C27.1044 9.54136 26.9723 9.84783 26.9927 10.1747C26.9622 11.421 27.0028 12.6775 26.9419 13.9238C25.5804 12.5447 24.1071 11.2882 22.5932 10.093C20.612 8.31552 18.5901 6.5789 16.7917 4.60733C16.5478 4.33152 16.3142 4.0557 16.0703 3.77988C16.9035 2.85028 18.1024 2.44167 19.3115 2.30887C21.0082 3.9229 22.705 5.54715 24.3103 7.25312C25.1638 8.11121 25.9461 9.06124 26.9215 9.78653C27.0536 6.80364 26.9927 3.80032 26.9825 0.807206Z" fill="#FCA411"/>
<path id="Vector_16" d="M37.6615 0.694105C39.3685 0.683889 41.0754 0.663459 42.7824 0.632812C42.7417 2.32857 42.8636 4.03454 42.7417 5.73029C40.9535 4.11626 39.2669 2.27749 37.123 1.13337C37.3059 0.980136 37.4787 0.83712 37.6615 0.694105Z" fill="#C16E24"/>
<path id="Vector_17" d="M11.0844 2.51427C13.1063 1.44165 15.3923 1.18627 17.6073 0.859375C17.9426 1.10454 18.288 1.34971 18.603 1.62553C18.8468 1.85027 19.0907 2.08522 19.3345 2.30996C18.1255 2.43254 16.9265 2.84116 16.0934 3.78098C15.179 4.60842 14.1731 5.31328 13.1672 6.02836C12.2528 6.63107 11.3384 7.3155 10.2309 7.46873C10.0074 6.92732 9.77367 6.3859 9.55014 5.84448C9.38758 5.26221 9.39774 4.64928 9.42822 4.04658C9.85495 3.82184 10.2715 3.54602 10.556 3.14762C10.7186 2.94331 10.8913 2.72879 11.0844 2.51427Z" fill="#FBB618"/>
<path id="Vector_18" d="M8.93668 3.73853C9.52598 3.75896 10.0442 3.44228 10.5318 3.15625C10.2474 3.55465 9.83079 3.83047 9.40406 4.0552C9.37358 4.65791 9.36341 5.26062 9.52598 5.85311C9.34309 5.89397 8.97732 5.98591 8.79444 6.02677C6.74205 5.86333 4.6795 5.99613 2.62712 5.9757C2.72872 6.4456 2.84049 6.91551 2.93193 7.38542C3.52123 12.2377 5.46185 16.8142 8.12385 20.8799C7.96129 21.1762 7.79872 21.4622 7.63616 21.7585C7.48375 21.5031 7.34151 21.2477 7.19927 20.9923C7.0367 21.2477 6.88429 21.5031 6.72173 21.7585C5.63457 20.124 4.74047 18.3772 3.74476 16.6814C3.01321 15.4556 2.62712 14.0254 1.72285 12.9017C0.970985 10.9302 0.523934 8.81558 0.259766 6.71121C0.300407 5.69988 0.137839 4.63748 0.727138 3.73853C3.47043 3.66702 6.20355 3.77939 8.93668 3.73853Z" fill="#FCC62E"/>
<path id="Vector_19" d="M44.4473 3.79101C47.2109 3.76037 49.9745 3.7195 52.7381 3.83187C52.6162 4.76147 52.4841 5.69108 52.4638 6.63089C51.9862 6.72283 51.5697 6.52874 51.2039 6.24271C50.8788 5.98732 50.4825 5.87495 50.0863 5.89538C48.1863 5.86474 46.2965 5.95668 44.3965 5.83409C44.4168 5.14966 44.4371 4.47544 44.4473 3.79101Z" fill="#FCBD26"/>
<path id="Vector_20" d="M16.082 3.78125C16.3259 4.05707 16.5596 4.33288 16.8034 4.6087C15.6248 5.89584 14.3954 7.15233 13.0543 8.27602C11.9773 9.19541 10.6666 9.74704 9.50831 10.5336C9.51847 9.48144 9.47783 8.41904 9.39654 7.37707L9.36606 7.08082C8.35003 6.97867 7.26287 7.1319 6.32812 6.63134C7.16127 6.43725 7.98426 6.25337 8.80725 6.02864C8.99013 5.98777 9.35591 5.89584 9.53879 5.85497C9.77248 6.39639 10.0062 6.92759 10.2195 7.47922C11.327 7.32599 12.2516 6.64156 13.1559 6.03885C14.1617 5.31356 15.1676 4.6087 16.082 3.78125Z" fill="#F39612"/>
<path id="Vector_21" d="M52.7306 3.82812C53.2081 3.8792 53.6958 3.9405 54.1734 4.00179C53.9803 5.24807 53.9397 6.51477 53.6653 7.74062C53.4824 7.15834 53.2691 6.58628 53.0659 6.01422C52.8525 6.4637 52.629 6.90296 52.4258 7.35243C52.4359 7.16856 52.4461 6.8008 52.4563 6.61693C52.4867 5.68733 52.6087 4.75773 52.7306 3.82812Z" fill="#C9842E"/>
<path id="Vector_22" d="M36.5003 5.2409C36.6629 4.9038 36.9677 4.65863 37.2116 4.38281C38.1362 5.74146 39.1319 7.08989 40.4934 8.05014C41.672 9.04103 43.1452 9.56201 44.3949 10.4508L44.334 10.6959C43.8564 10.6857 43.3789 10.6653 42.9115 10.6142C41.9361 10.3486 40.981 10.0013 40.0666 9.59266C39.1319 9.19426 38.4715 8.39746 37.6586 7.80497C37.0998 8.31574 36.5715 8.85715 36.0431 9.39857L35.6367 9.5518C35.8501 8.53026 36.9169 8.23401 37.4757 7.47808C37.4351 6.6302 36.6121 6.04792 36.5003 5.2409Z" fill="#8C4C21"/>
<path id="Vector_23" d="M13.0616 8.2767C14.4027 7.15301 15.622 5.89651 16.8107 4.60938C18.6091 6.57073 20.6209 8.31756 22.6123 10.095C22.7342 10.4526 22.7952 10.8203 22.8256 11.1983C21.6674 10.1359 20.4888 9.08371 19.3203 8.02131C18.7209 7.46968 18.1011 6.9487 17.4712 6.42771C17.1867 6.73418 16.9022 7.04064 16.638 7.35731C16.5262 7.50033 16.4145 7.64335 16.3129 7.78636C16.3738 7.96002 16.4856 8.30734 16.5364 8.48101C16.3738 8.49122 16.0487 8.50144 15.876 8.51165C14.5653 9.74771 13.0413 11.137 11.1006 10.9021C10.5723 10.8918 10.044 10.8714 9.51562 10.851C9.52579 10.7693 9.52579 10.616 9.53595 10.5445C10.6739 9.74772 11.9846 9.19608 13.0616 8.2767Z" fill="#B76826"/>
<path id="Vector_24" d="M44.3943 5.83203C46.2842 5.95462 48.1841 5.86268 50.0841 5.89332C50.4804 5.87289 50.8868 5.98526 51.2018 6.24065C50.9477 7.12939 50.5413 7.96705 49.9419 8.68212C49.9724 8.24286 49.9927 7.79339 50.013 7.35412C49.9419 7.35412 49.7996 7.34391 49.7285 7.34391C47.9505 7.29283 46.1724 7.30305 44.3943 7.32348C44.3842 6.82292 44.3842 6.33259 44.3943 5.83203Z" fill="#DB811E"/>
<path id="Vector_25" d="M2.63672 5.97696C4.6891 5.99739 6.75165 5.86459 8.80404 6.02803C7.98105 6.25277 7.15806 6.43665 6.32491 6.63074C7.25966 7.1313 8.34682 6.97806 9.36285 7.08022L9.39333 7.37647C7.67624 7.3969 5.95915 7.3969 4.25221 7.32539C3.83564 7.10065 3.43939 6.84526 3.03297 6.58988C3.01265 6.78397 2.96185 7.19259 2.93137 7.38668C2.85009 6.90656 2.73832 6.43665 2.63672 5.97696Z" fill="#E28C20"/>
<path id="Vector_26" d="M53.0611 6.01562C53.2643 6.58769 53.4777 7.15975 53.6606 7.74203C53.3049 10.7045 52.3702 13.5954 51.2526 16.3536C50.3585 18.3354 49.4135 20.3274 48.113 22.0844C47.8489 21.0629 48.6515 20.1742 48.9766 19.265C49.4847 17.9881 50.5617 16.7622 50.1857 15.3014C50.1756 15.2095 50.1552 15.0154 50.1349 14.9132C51.2627 12.5228 51.9638 9.95876 52.421 7.35384C52.6242 6.90436 52.8477 6.4651 53.0611 6.01562Z" fill="#B5722A"/>
<path id="Vector_27" d="M51.2059 6.24219C51.5717 6.52822 51.9882 6.72231 52.4658 6.63037C52.4556 6.81425 52.4454 7.182 52.4353 7.36588C51.9781 9.9708 51.2872 12.5247 50.1492 14.9253C49.6514 15.1091 49.184 15.3645 48.8385 15.7834C48.6252 15.7425 48.422 15.7016 48.2188 15.6608C49.1027 13.4236 49.8139 11.0945 49.946 8.68366C50.5455 7.96859 50.9519 7.13093 51.2059 6.24219Z" fill="#F4A21E"/>
<path id="Vector_28" d="M3.04261 6.57812C3.43886 6.83351 3.84528 7.08889 4.26185 7.31363C4.67842 12.0842 6.59873 16.6301 9.30137 20.5426C11.8211 24.169 15.1232 27.1519 18.5269 29.9101C18.0392 30.3493 18.7708 30.6762 19.167 30.5026C19.2585 30.5741 19.4312 30.6967 19.5227 30.7682C19.3601 30.8805 19.0248 31.1155 18.8521 31.2279C18.3847 30.7988 17.8056 30.5434 17.2467 30.2778C13.6805 27.7342 10.4698 24.6083 8.14309 20.8695C5.48109 16.8139 3.55063 12.2272 2.95117 7.37493C2.96133 7.18083 3.01213 6.78243 3.04261 6.57812Z" fill="#B36F28"/>
<path id="Vector_29" d="M16.6172 7.35538C16.8814 7.0387 17.1658 6.72203 17.4503 6.42578C18.0803 6.93655 18.7 7.45753 19.2995 8.01938C19.1471 8.22369 18.9845 8.428 18.8321 8.6323C19.5535 9.99095 20.8642 10.941 21.4941 12.3507C20.722 11.7786 20.0717 11.0738 19.4316 10.3587C18.5273 9.31674 17.4402 8.45864 16.6172 7.35538Z" fill="#FDC944"/>
<path id="Vector_30" d="M16.293 7.78452C16.4047 7.6415 16.5063 7.49848 16.6181 7.35547C17.4411 8.45873 18.5282 9.31682 19.4325 10.3486C20.0624 11.0637 20.7229 11.7787 21.4951 12.3406C23.2223 13.8831 24.8683 15.5278 26.7175 16.9273C26.88 16.1918 27.1544 15.3848 26.6565 14.7208C26.7276 14.6493 26.8699 14.5165 26.9308 14.4449C28.6073 13.0454 30.2126 11.5744 31.8383 10.1136C31.9703 10.1545 32.2447 10.2362 32.3768 10.2771C31.5436 11.5846 30.5987 12.8105 29.7656 14.1078C29.1356 15.1089 28.1094 15.8445 27.7132 16.9988C27.449 17.3563 27.1747 17.7139 26.9105 18.0714C26.3822 17.7139 25.8843 17.3053 25.4169 16.866C24.4009 15.6708 23.4357 14.2406 21.9523 13.6175C20.4689 12.4938 19.2801 11.0432 17.8983 9.81738C17.4208 9.39855 16.8924 9.01036 16.5165 8.47916C16.4657 8.3055 16.3539 7.95818 16.293 7.78452Z" fill="#EA8D17"/>
<path id="Vector_31" d="M31.8399 10.1236C32.6528 9.28592 33.4148 8.38696 34.441 7.80469C34.2886 9.12247 33.679 10.3381 33.4961 11.6559C32.033 13.2188 30.4785 14.6899 28.9341 16.1609C28.5785 16.5082 28.1416 16.7534 27.7148 17.0088C28.1111 15.8544 29.1373 15.1189 29.7672 14.1178C30.6105 12.8204 31.5554 11.5946 32.3784 10.287C32.2464 10.2462 31.972 10.1644 31.8399 10.1236Z" fill="#C26E19"/>
<path id="Vector_32" d="M37.6694 7.79297C38.472 8.38546 39.1426 9.18226 40.0774 9.58066C40.9918 9.98928 41.9469 10.3468 42.9223 10.6022C42.8105 10.9904 42.6987 11.3888 42.587 11.777C42.526 11.4705 42.465 11.1743 42.4142 10.8678C40.4431 11.0108 39.102 9.43765 37.71 8.31395C37.2122 8.84515 36.7245 9.39679 36.2266 9.92799C35.1395 10.9802 34.032 12.0221 32.9448 13.0743C32.4165 13.5749 31.9389 14.1776 31.248 14.4738C32.7416 12.6657 34.601 11.2049 36.064 9.36614C36.5822 8.83494 37.1105 8.30374 37.6694 7.79297Z" fill="#274889"/>
<path id="Vector_33" d="M18.832 8.62074C18.9844 8.41643 19.147 8.21212 19.2994 8.00781C20.4678 9.07021 21.6464 10.1224 22.8047 11.1848C24.0646 12.3902 25.4362 13.473 26.6453 14.7193C27.1533 15.3731 26.8688 16.1903 26.7063 16.9258C24.8571 15.5366 23.2111 13.8817 21.4839 12.3391C20.8641 10.9294 19.5636 9.9896 18.832 8.62074Z" fill="#FDDC66"/>
<path id="Vector_34" d="M15.857 8.50721C16.0196 8.49699 16.3548 8.48678 16.5174 8.47656C16.8933 9.00776 17.4115 9.38573 17.8992 9.81478C19.2912 11.0406 20.4799 12.4912 21.9532 13.6149C22.0141 13.7579 22.1259 14.0439 22.1767 14.187C21.12 13.4515 20.2666 12.4708 19.2302 11.7148C19.0676 11.5003 18.9152 11.2756 18.7527 11.0713C18.1431 10.4073 17.4217 9.84542 16.7714 9.22229C16.7003 9.14056 16.5377 8.97712 16.4666 8.89539C15.796 9.53896 15.1153 10.1723 14.3736 10.7239C13.3372 10.7342 12.3923 11.1836 11.3966 11.4186C11.3763 11.5207 11.3356 11.7148 11.3153 11.817C11.3052 12.0009 11.2747 12.3788 11.2645 12.5729C11.1324 12.0213 11.1121 11.4595 11.0918 10.9078C13.0223 11.1326 14.5565 9.74327 15.857 8.50721Z" fill="#0F86AA"/>
<path id="Vector_35" d="M37.7006 8.32812C39.0926 9.45182 40.4439 11.025 42.4049 10.882C42.4658 11.1884 42.5268 11.4847 42.5776 11.7911C42.3947 12.5471 42.2017 13.2928 42.0086 14.0385C41.8562 14.0896 41.5412 14.202 41.3888 14.2633C41.1247 15.009 40.8605 15.7547 40.5963 16.4902C39.4381 17.2257 38.0867 17.5015 36.898 18.1451C35.9734 18.6048 35.7905 19.7183 35.4247 20.5866C35.3435 20.5253 35.1809 20.3925 35.0996 20.3312C36.014 16.8273 36.7151 13.2622 37.0402 9.65613C36.898 9.7072 36.6237 9.78893 36.4814 9.84L36.1969 9.94216C36.7151 9.41096 37.2028 8.85933 37.7006 8.32812Z" fill="#2B77FB"/>
<g id="Group_4">
<path id="Vector_36" d="M14.3649 10.7192C15.1168 10.1675 15.7874 9.53419 16.4579 8.89062C16.5291 8.97235 16.6916 9.1358 16.7628 9.21752C16.7018 10.3923 16.7729 11.5773 17.1488 12.701C17.3419 13.4773 17.5248 14.2537 17.6975 15.0301C17.4943 16.0414 17.7077 17.0425 18.0125 18.0028C15.9398 17.4103 14.3141 15.8984 12.5665 14.7032C12.3837 14.7338 12.0179 14.7849 11.8452 14.8156C11.642 14.0596 11.4286 13.3139 11.2559 12.5682C11.266 12.3843 11.2965 12.0063 11.3067 11.8122C12.4345 11.8837 13.481 11.373 14.3649 10.7192ZM11.7131 12.1698C12.2211 13.0483 12.9425 14.029 14.1007 13.8042C14.0601 13.2935 14.1007 12.752 13.8467 12.2923C13.166 12.0574 12.4243 12.1289 11.7131 12.1698Z" fill="#6DF2FA"/>
</g>
<path id="Vector_37" d="M16.7596 9.21094C17.4098 9.83408 18.1312 10.3959 18.7408 11.0599C18.436 11.8056 17.8163 12.296 17.1457 12.6842C16.7697 11.5707 16.6986 10.3857 16.7596 9.21094Z" fill="#D3FDF4"/>
<path id="Vector_38" d="M36.5028 9.84013C36.6451 9.79927 36.9194 9.70733 37.0616 9.65625C36.7365 13.2623 36.0354 16.8275 35.121 20.3313C34.7756 21.455 34.4098 22.5685 34.0135 23.6718C33.7595 21.9454 34.8264 20.4131 34.9686 18.7173C35.7103 15.8161 36.2488 12.8332 36.5028 9.84013Z" fill="#5CACF7"/>
<path id="Vector_39" d="M32.9374 13.0844C34.0246 12.022 35.1321 10.9903 36.2192 9.93809L36.5037 9.83594C36.2497 12.829 35.7112 15.8119 34.9594 18.7233C34.4513 17.7529 35.315 16.6292 34.7257 15.6791C34.2786 14.9947 33.5979 14.4635 32.8562 14.1366C31.3118 14.3716 30.7428 16.3534 29.168 16.5577C29.4321 16.2921 29.6963 16.0265 29.9605 15.7609C29.991 15.7302 30.0418 15.6791 30.0722 15.6485C30.1535 15.5566 30.3364 15.3829 30.4177 15.291C30.4685 15.2297 30.5803 15.1173 30.6412 15.056C30.692 15.0049 30.7835 14.913 30.8241 14.8619C30.8749 14.8108 30.9765 14.7087 31.0375 14.6576C31.0883 14.6167 31.1899 14.5248 31.2305 14.4737C31.9316 14.1877 32.4091 13.585 32.9374 13.0844Z" fill="#3596FC"/>
<path id="Vector_40" d="M22.6035 10.0938C24.1174 11.289 25.5906 12.5454 26.9521 13.9245C26.9521 14.0573 26.942 14.3127 26.942 14.4455C26.8709 14.517 26.7286 14.6498 26.6676 14.7213C25.4484 13.475 24.0768 12.3922 22.827 11.1868C22.7762 10.819 22.7153 10.4411 22.6035 10.0938Z" fill="#D37820"/>
<path id="Vector_41" d="M24.4199 16.4062C24.5723 16.488 24.867 16.6412 25.0194 16.7229C25.6595 17.3665 26.3199 17.9896 27.0413 18.531C27.0006 18.5719 26.9295 18.6332 26.8889 18.6741L26.645 18.531C25.8017 18.0305 24.9991 17.4278 24.4402 16.6106L24.4199 16.4062Z" fill="#19D3E7"/>
<path id="Vector_42" d="M11.3875 11.4095C12.3731 11.1745 13.3282 10.7251 14.3645 10.7148C13.4806 11.3686 12.434 11.8794 11.3164 11.8079C11.3266 11.7057 11.3672 11.5116 11.3875 11.4095Z" fill="#078ED0"/>
<path id="Vector_43" d="M18.751 11.0742C18.9136 11.2887 19.0762 11.5033 19.2286 11.7178C19.635 12.3818 20.1227 12.9947 20.7425 13.4748C21.5553 14.1082 22.2462 14.8948 23.1504 15.4055C23.2724 15.4362 23.4959 15.5077 23.6178 15.5383C23.6585 15.569 23.7296 15.6303 23.7702 15.6711C23.8413 15.7426 23.9938 15.8857 24.0649 15.947C24.1258 16.0185 24.2579 16.1615 24.3189 16.233C24.3494 16.2738 24.4002 16.3658 24.4306 16.4067L24.4611 16.6007C23.5772 16.4475 22.998 15.4668 22.0735 15.5179C21.413 15.8448 21.0981 16.5905 20.6612 17.1626C20.2751 17.0196 19.889 16.8766 19.5029 16.7233C19.3403 17.4793 19.1371 18.2352 18.8831 18.9707C18.4869 17.6529 18.1109 16.3351 17.7147 15.0276C17.542 14.2512 17.3591 13.4748 17.166 12.6985C17.8163 12.3103 18.4462 11.8097 18.751 11.0742Z" fill="#3FE9FB"/>
<path id="Vector_44" d="M19.2285 11.7188C20.2649 12.4849 21.1183 13.4554 22.175 14.1909C22.4392 14.4258 22.7135 14.6608 22.9777 14.8957C23.0183 15.0183 23.1098 15.2737 23.1504 15.4065C22.2461 14.906 21.5552 14.1092 20.7424 13.4758C20.1226 12.9957 19.6349 12.3828 19.2285 11.7188Z" fill="#14CBEC"/>
<path id="Vector_45" d="M11.7109 12.1678C12.412 12.1372 13.1639 12.0555 13.8446 12.2904C14.0986 12.7501 14.058 13.2915 14.0986 13.8023C12.9403 14.027 12.219 13.0463 11.7109 12.1678Z" fill="#D0FDF3"/>
<path id="Vector_46" d="M1.71875 12.9023C2.62302 14.026 3.00911 15.446 3.74066 16.682C4.73637 18.3778 5.63048 20.1246 6.71763 21.7591C9.30851 25.8248 13.0374 29.0427 17.0812 31.5659C17.5485 31.8723 18.087 32.0562 18.6255 32.1992C18.2801 31.4841 17.7619 30.861 17.2234 30.2787C17.7822 30.5443 18.3614 30.7997 18.8287 31.2288C19.3774 32.332 20.4239 33.0267 21.1046 34.0278C21.6939 34.8654 22.5169 35.5192 23.0554 36.3977C22.6795 36.602 22.1715 37.1945 21.7447 36.7757C20.9929 35.9891 20.1902 35.0493 19.0116 34.9982L18.8795 34.9778C13.4539 30.7078 8.00799 26.1006 4.62461 19.951C3.46633 17.7138 2.18612 15.4255 1.71875 12.9023Z" fill="#DF8A20"/>
<path id="Vector_47" d="M21.9512 13.6172C23.4447 14.2403 24.3998 15.6705 25.4158 16.8657L25.0094 16.7227C24.857 16.6409 24.5624 16.4877 24.41 16.406C24.3795 16.3651 24.3287 16.2732 24.2982 16.2323C24.2372 16.1608 24.1052 16.0178 24.0442 15.9463C23.9731 15.8748 23.8207 15.7318 23.7495 15.6705C23.7089 15.6398 23.6378 15.5785 23.5971 15.5377C23.4955 15.2006 23.2822 14.986 22.957 14.8941C22.6929 14.6592 22.4185 14.4242 22.1544 14.1892C22.1239 14.0462 22.0121 13.7602 21.9512 13.6172Z" fill="#9D7C50"/>
<g id="Group_5">
<path id="Vector_48" d="M29.1724 16.5617C30.7574 16.3574 31.3162 14.3756 32.8606 14.1406C33.6023 14.4675 34.283 14.9987 34.7301 15.6831C35.3194 16.6332 34.4558 17.7569 34.9638 18.7273C34.8215 20.4231 33.7445 21.9452 34.0087 23.6818C33.6734 25.112 32.9622 26.4093 32.4237 27.7577C31.682 29.4433 30.9708 31.1901 29.7922 32.6305C29.8125 32.4772 29.8328 32.181 29.8531 32.038C29.4162 32.0891 28.9692 32.1095 28.5425 32.2321C28.1868 32.9778 27.9735 33.7746 27.75 34.5612C28.1462 34.2752 28.5425 33.9789 28.9184 33.6622C28.8066 33.5805 28.5729 33.4068 28.4612 33.3251C28.8066 33.2128 29.1521 33.1106 29.4874 32.988C29.7719 33.3864 30.0665 33.7746 30.3408 34.1832C30.3713 34.2956 30.4424 34.5203 30.4729 34.6327C29.4467 35.9403 28.3799 37.2376 26.9676 38.157C27.0895 36.5838 26.9676 35.0107 26.9981 33.4477C27.0184 29.7906 26.9981 26.1437 27.0184 22.4866C27.0082 21.2199 27.0692 19.943 26.8965 18.6865C26.9371 18.6558 27.0184 18.5843 27.0489 18.5435C27.7296 17.859 28.4307 17.1848 29.1724 16.5617ZM32.0274 23.4366C31.5398 23.5286 31.3264 23.9576 31.3975 24.4173C31.9462 24.5297 32.6371 25.0098 33.1451 24.5501C33.5109 23.9576 32.6574 23.0791 32.0274 23.4366Z" fill="#40A7FD"/>
</g>
<path id="Vector_49" d="M41.397 14.2716C41.5494 14.2103 41.8643 14.098 42.0167 14.0469C40.767 19.032 38.7553 23.8741 35.6767 28.0113C34.5997 28.185 33.8783 29.0941 33.2789 29.9216C32.3848 31.4028 31.3687 32.7921 30.3222 34.1712C30.0479 33.7626 29.7634 33.3744 29.4688 32.976C29.55 32.8841 29.7024 32.7104 29.7736 32.6287C30.942 31.1883 31.6634 29.4415 32.4051 27.7559C32.9436 26.3973 33.665 25.1101 33.9901 23.68C34.3863 22.5767 34.7623 21.4632 35.0976 20.3396C35.1789 20.4008 35.3414 20.5336 35.4227 20.5949C35.7885 19.7266 35.9714 18.6132 36.8959 18.1535C38.0847 17.5099 39.4462 17.2341 40.5943 16.4986C40.8788 15.7528 41.143 15.0071 41.397 14.2716Z" fill="#328BFB"/>
<path id="Vector_50" d="M31.0449 14.6683C31.0957 14.6274 31.1973 14.5355 31.238 14.4844C31.1872 14.5355 31.0856 14.6274 31.0449 14.6683Z" fill="#0B4786"/>
<g id="Group_6">
<path id="Vector_51" d="M11.8574 14.8116C12.0403 14.7809 12.4061 14.7299 12.5788 14.6992C14.3162 15.8944 15.9419 17.3961 18.0247 17.9988C17.7199 17.0385 17.5066 16.0272 17.7098 15.0261C18.106 16.3337 18.4921 17.6515 18.8782 18.9693C19.2846 20.6344 19.5589 22.371 20.4023 23.8931L20.4124 23.9033C20.0162 24.0872 19.2846 24.1382 19.4777 24.7512C19.5386 25.4049 20.26 25.4765 20.768 25.5173C20.9509 26.5184 21.337 27.4787 21.8349 28.3572C21.1846 28.919 21.5504 29.7363 21.8349 30.3901C22.1702 30.2062 22.414 29.9201 22.5969 29.5933C23.3894 31.1971 23.9787 32.9643 25.2182 34.2923C25.0963 35.0074 25.015 35.7429 25.015 36.4682C24.3648 35.7123 23.7247 34.9563 23.0439 34.231C23.1862 33.6896 23.5316 33.1482 23.4199 32.5659C23.1049 31.8611 22.5867 31.2584 22.16 30.625C21.5707 30.8191 21.022 31.1358 20.5039 31.4933C18.868 29.5217 17.3135 27.4889 16.1248 25.2313C16.8766 24.884 16.582 23.9748 16.3788 23.3619C16.2162 22.7898 15.5863 22.7081 15.1087 22.5855C15.0986 22.7592 15.0884 23.1065 15.0884 23.2801C13.7777 20.5628 12.6296 17.7434 11.8574 14.8116ZM15.7996 19.6843C15.2916 19.8784 15.4135 20.8693 16.0028 20.8387C16.5617 21.0225 17.1814 20.236 16.836 19.766C16.5921 19.3779 16.1349 19.5209 15.7996 19.6843Z" fill="#9FF9F9"/>
</g>
<path id="Vector_52" d="M30.832 14.8762C30.8828 14.8251 30.9844 14.723 31.0454 14.6719C30.9946 14.723 30.8828 14.8251 30.832 14.8762Z" fill="#0D4C88"/>
<path id="Vector_53" d="M22.9785 14.8945C23.3036 14.9865 23.517 15.201 23.6186 15.5381C23.5069 15.5075 23.2732 15.4359 23.1512 15.4053C23.1106 15.2725 23.0192 15.0273 22.9785 14.8945Z" fill="#3493A4"/>
<path id="Vector_54" d="M30.6484 15.0691C30.6992 15.018 30.7907 14.9261 30.8313 14.875C30.7907 14.9261 30.6891 15.018 30.6484 15.0691Z" fill="#084C92"/>
<path id="Vector_55" d="M48.8348 15.7722C49.1701 15.3533 49.6476 15.0979 50.1455 14.9141C50.1556 15.006 50.1861 15.2001 50.1963 15.3022C49.292 17.2432 48.2861 19.1432 47.0466 20.8901C46.0407 21.4621 45.4819 22.6573 44.3134 22.9434C43.8156 23.117 43.3584 23.4133 42.9316 23.7197C44.2322 22.1159 45.6444 20.5836 46.6706 18.7755C47.2498 17.7642 47.768 16.7222 48.215 15.6496C48.4284 15.6904 48.6316 15.7313 48.8348 15.7722Z" fill="#DB8D25"/>
<path id="Vector_56" d="M30.4258 15.2935C30.4766 15.2323 30.5883 15.1199 30.6493 15.0586C30.5883 15.1199 30.4867 15.2425 30.4258 15.2935Z" fill="#094F95"/>
<path id="Vector_57" d="M22.054 15.5184C22.9786 15.4571 23.5577 16.448 24.4417 16.6012C25.0005 17.4184 25.8032 18.0211 26.6465 18.5217C26.1283 19.4308 25.8438 20.4524 25.7829 21.5046C25.7117 21.5352 25.5593 21.6067 25.478 21.6476C25.2647 22.0153 25.0513 22.4137 24.5941 22.5159C24.4214 22.3422 24.4112 21.903 24.0658 21.9949C23.5984 22.2196 23.192 22.5363 22.7856 22.853C22.5214 23.088 22.2572 23.3331 22.0032 23.5783C21.8305 23.4966 21.6476 23.4148 21.4749 23.3331C21.1091 23.517 20.7433 23.7111 20.3776 23.895C19.5444 22.3831 19.2599 20.6363 18.8535 18.9712C19.1075 18.2356 19.3107 17.4899 19.4733 16.7238C19.8594 16.8668 20.2455 17.0098 20.6316 17.163C21.0786 16.591 21.3936 15.8452 22.054 15.5184Z" fill="#5EF4FA"/>
<path id="Vector_58" d="M23.6172 15.5391C23.6578 15.5697 23.729 15.631 23.7696 15.6719C23.729 15.6412 23.6578 15.5697 23.6172 15.5391Z" fill="#2F838F"/>
<path id="Vector_59" d="M30.082 15.6466C30.1633 15.5547 30.3462 15.381 30.4275 15.2891C30.3462 15.381 30.1633 15.5649 30.082 15.6466Z" fill="#0D4F92"/>
<path id="Vector_60" d="M50.1958 15.3008C50.5717 16.7616 49.4947 17.9874 48.9867 19.2644C48.6514 20.1735 47.8589 21.0623 48.1231 22.0838L48.1434 22.1757C45.3798 26.4253 41.5392 29.8271 37.5462 32.8815C35.2296 34.7304 32.7606 36.559 31.2163 39.1537C30.8911 38.6021 30.4644 38.122 30.0072 37.6827C28.9099 38.4386 28.2698 39.8381 26.888 40.1446C26.8067 39.5828 26.7356 39.0107 26.6543 38.4488C26.7356 38.3671 26.888 38.2139 26.9591 38.1322C28.3714 37.223 29.4281 35.9154 30.4644 34.6079C31.6024 33.3922 32.4762 31.8804 33.8376 30.8895L34.0612 30.7975C34.9146 30.5115 35.6462 29.9905 36.3574 29.4593C37.028 29.5002 37.6884 29.3469 38.3082 29.0916C37.5462 29.9088 36.8146 30.7669 36.2253 31.7271C37.8916 31.3185 39.06 29.9599 40.3606 28.9383C41.6103 27.7636 43.0022 26.7216 44.0284 25.3221C45.1156 23.9021 46.1621 22.4516 47.0461 20.8886C48.2856 19.1418 49.2915 17.2417 50.1958 15.3008Z" fill="#A26128"/>
<path id="Vector_61" d="M23.7695 15.6719C23.8407 15.7434 23.9931 15.8864 24.0642 15.9477C23.9829 15.8762 23.8407 15.7434 23.7695 15.6719Z" fill="#2C8A8F"/>
<path id="Vector_62" d="M29.9688 15.7608C29.9996 15.7302 30.0511 15.6791 30.082 15.6484C30.0511 15.6791 29.9996 15.7404 29.9688 15.7608Z" fill="#095499"/>
<path id="Vector_63" d="M24.3125 16.2422C24.3434 16.283 24.3949 16.375 24.4258 16.4159C24.3949 16.3648 24.3434 16.283 24.3125 16.2422Z" fill="#1F98A5"/>
<g id="Group_7">
<path id="Vector_64" d="M26.6478 18.5195L26.8917 18.6625C27.0644 19.919 26.9933 21.196 27.0136 22.4627C26.9933 26.1198 27.0136 29.7667 26.9933 33.4238C26.7291 34.241 25.9366 34.3023 25.1949 34.2819C23.9553 32.9539 23.366 31.1866 22.5735 29.5828C22.3398 29.164 22.0757 28.7656 21.8115 28.3569C21.3137 27.4682 20.9377 26.5182 20.7447 25.5171C20.7548 24.9552 20.7142 24.3832 20.3891 23.903L20.3789 23.8928C20.7447 23.7089 21.1104 23.5149 21.4762 23.331C21.6489 23.4127 21.8318 23.4944 22.0046 23.5761C22.3703 23.6885 22.8275 24.1073 23.1933 23.7498C23.5591 23.4025 23.0104 23.0552 22.7869 22.8406C23.1832 22.524 23.5997 22.1971 24.0671 21.9825C24.4024 21.8906 24.4227 22.3299 24.5954 22.5035C25.0425 22.4014 25.266 22.003 25.4794 21.6352C25.5505 21.6046 25.7029 21.5331 25.7842 21.4922C25.8452 20.4502 26.1296 19.4389 26.6478 18.5195ZM24.8393 29.2559C25.2457 29.3274 25.7537 29.5828 25.9264 29.0312C25.896 28.7043 25.7537 28.2139 25.3371 28.2241C24.9409 28.408 24.951 28.8881 24.8393 29.2559ZM24.7682 30.2774C24.697 30.7269 24.8494 31.1355 25.0628 31.5237C25.4692 31.3501 25.6826 30.9619 25.8858 30.5941C25.5403 30.4205 25.1543 30.3183 24.7682 30.2774Z" fill="#6AF4F9"/>
</g>
<path id="Vector_65" d="M15.7962 19.6847C16.1315 19.5212 16.5887 19.3782 16.8224 19.7766C17.178 20.2363 16.5481 21.0331 15.9893 20.8492C15.4101 20.8697 15.2882 19.8788 15.7962 19.6847Z" fill="#DCFEF5"/>
<path id="Vector_66" d="M7.20019 20.9835C7.34244 21.2388 7.48468 21.4942 7.63709 21.7496C7.79965 21.4534 7.96221 21.1673 8.12478 20.8711C10.4515 24.6201 13.6622 27.7358 17.2284 30.2795C17.7771 30.8515 18.2851 31.4747 18.6306 32.2C18.0921 32.0569 17.5536 31.8731 17.0862 31.5666C13.0322 29.0332 9.31354 25.8153 6.72266 21.7598C6.88522 21.4942 7.04779 21.2388 7.20019 20.9835Z" fill="#FDCD44"/>
<path id="Vector_67" d="M44.3083 22.9439C45.4768 22.6579 46.0356 21.4525 47.0414 20.8906C46.1575 22.4434 45.111 23.9042 44.0238 25.3241C42.9976 26.7236 41.6158 27.7656 40.3559 28.9404C39.0554 29.9619 37.887 31.3205 36.2207 31.7292C36.7998 30.7689 37.5415 29.921 38.3036 29.0936C37.6838 29.3592 37.0234 29.5022 36.3528 29.4613C38.4661 27.8779 40.5693 26.2741 42.3474 24.3128C42.5404 24.1187 42.7335 23.9144 42.9367 23.7203C43.3634 23.4138 43.8105 23.1176 44.3083 22.9439Z" fill="#C07528"/>
<path id="Vector_68" d="M15.1063 22.5859C15.5838 22.7085 16.2239 22.7902 16.3763 23.3623C16.5693 23.9752 16.864 24.8844 16.1223 25.2317C15.7464 24.5984 15.3806 23.9548 15.0859 23.2908C15.0961 23.1069 15.1063 22.7596 15.1063 22.5859Z" fill="#F2FEF4"/>
<path id="Vector_69" d="M22.0215 23.5769C22.2755 23.3317 22.5397 23.0865 22.8038 22.8516C23.0274 23.0661 23.576 23.4134 23.2102 23.7607C22.8445 24.0978 22.3771 23.679 22.0215 23.5769Z" fill="#BFFEF2"/>
<path id="Vector_70" d="M32.032 23.4352C32.6619 23.0776 33.5154 23.9459 33.1496 24.5486C32.6416 25.0083 31.9507 24.5282 31.402 24.4158C31.3309 23.9561 31.5443 23.5373 32.032 23.4352Z" fill="#68D6F5"/>
<path id="Vector_71" d="M19.4631 24.7502C19.2701 24.1271 20.0118 24.076 20.3979 23.9023C20.7332 24.3825 20.7637 24.9545 20.7535 25.5164C20.2353 25.4755 19.5241 25.404 19.4631 24.7502Z" fill="#D7FEF7"/>
</g>
<path id="Vector_72" d="M25.1895 34.28C25.9211 34.2902 26.7136 34.2391 26.9879 33.4219C26.9574 34.995 27.0794 36.5682 26.9574 38.1312C26.8863 38.2129 26.7237 38.3661 26.6526 38.4478C26.2564 37.6613 25.5553 37.1096 24.9863 36.4558C24.9863 35.7306 25.0676 35.0053 25.1895 34.28Z" fill="#7CECF4"/>
<path id="Vector_73" d="M23.2965 37.1211C23.835 37.8055 24.2821 38.5615 24.8104 39.2459C25.3184 39.9099 26.1008 40.2674 26.6901 40.8395C26.9847 43.2605 26.9746 45.7122 26.9847 48.1537C25.9484 47.7655 24.9628 47.2445 23.9976 46.7133C23.4286 47.2445 22.8292 47.7349 22.1992 48.1946C22.6361 47.5612 23.1137 46.9789 23.6623 46.4477C24.6682 45.4875 25.0746 43.9654 26.4564 43.4138C26.1211 42.474 25.6537 41.5852 25.0848 40.7782C24.8003 41.7895 24.6072 42.8417 24.15 43.802C24.0484 42.6987 23.9773 41.5954 23.8757 40.4922C23.7842 39.348 23.4794 38.2448 23.2965 37.1211Z" fill="#FDE17C"/>
<path id="Vector_74" d="M26.877 40.1572C28.2486 39.8508 28.8887 38.4513 29.9962 37.6953C30.4534 38.1346 30.8801 38.6147 31.2052 39.1663C30.1994 41.6078 30.4839 44.5396 31.886 46.7666C31.2052 46.2967 30.5753 45.745 29.9555 45.1934C29.5085 43.5794 29.5085 41.8428 28.8379 40.29C28.2588 40.6271 27.6491 40.9029 27.009 41.097C26.9684 40.7804 26.9176 40.4637 26.877 40.1572Z" fill="#B57029"/>
<path id="Vector_75" d="M23.8692 40.4844C23.9606 41.5876 24.0419 42.6909 24.1435 43.7942C23.8489 44.499 23.5542 45.2754 22.8125 45.6227C22.9141 45.2039 23.0259 44.7953 23.1275 44.3867C23.3916 43.3855 23.4526 42.3436 23.3205 41.3118C23.4221 41.3833 23.6152 41.5161 23.7168 41.5876C23.7777 41.2199 23.8184 40.8521 23.8692 40.4844Z" fill="#EFC04F"/>
<path id="Vector_76" d="M25.0728 40.7695C25.6418 41.5868 26.1092 42.4653 26.4444 43.4051C25.0626 43.9567 24.6562 45.4788 23.6504 46.4391C23.1017 46.9703 22.6242 47.5628 22.1873 48.1859C21.1509 49.2074 19.9418 50.0451 18.621 50.6478C18.4381 50.658 18.0622 50.6887 17.8691 50.6989C18.2349 49.6978 19.1798 49.1359 19.9825 48.523C21.0798 47.7364 22.1771 46.8579 22.7969 45.6218C23.5386 45.2745 23.8332 44.4981 24.1279 43.7933C24.5953 42.833 24.7985 41.7911 25.0728 40.7695Z" fill="#F9EEB4"/>
<path id="Vector_77" d="M29.9551 45.1797C30.585 45.7313 31.2048 46.2727 31.8855 46.7529C32.5968 47.2636 33.1962 47.9276 33.8973 48.4486C34.6187 49.0615 35.462 49.6029 35.8887 50.4815C34.893 50.7777 33.9176 51.1455 32.9422 51.503C32.4444 50.696 31.8449 49.9605 31.3267 49.1739C30.6155 47.9481 30.1278 46.5894 29.9551 45.1797Z" fill="#CA802B"/>
<g id="Group_8">
<path id="Vector_78" d="M19.5128 30.7695C19.8379 31.0147 20.163 31.2394 20.4881 31.4846C21.3924 32.3427 22.1646 33.3234 23.0282 34.2223C23.709 34.9476 24.3491 35.7138 24.9993 36.4595C25.5683 37.1133 26.2694 37.6649 26.6656 38.4515C26.7469 39.0133 26.818 39.5854 26.8993 40.1473C26.9399 40.4639 26.9806 40.7806 27.0314 41.0871C27.6715 40.893 28.2811 40.6172 28.8603 40.2801C29.5308 41.8328 29.5308 43.5592 29.9779 45.1834C30.1608 46.5932 30.6383 47.9518 31.3698 49.1674C31.888 49.954 32.4875 50.6895 32.9853 51.4966C31.0346 52.1912 29.0431 52.8246 27.0009 53.1923C27.0619 51.517 27.0212 49.8314 27.0111 48.1561C27.0009 45.7146 27.0111 43.263 26.7164 40.8419C26.1271 40.2596 25.3448 39.9123 24.8368 39.2483C24.2983 38.5639 23.8512 37.8079 23.3229 37.1235C23.5159 38.2472 23.8106 39.3505 23.902 40.4844C23.8512 40.8521 23.8106 41.2199 23.7598 41.5774C23.6582 41.5059 23.4651 41.3731 23.3635 41.3016C23.2213 40.4333 22.9876 39.5752 22.5507 38.809C21.7277 37.2665 20.3154 36.1735 19.0657 34.9987C20.2443 35.0396 21.047 35.9896 21.7988 36.7762C22.2256 37.195 22.7336 36.6025 23.1095 36.3982C22.571 35.5095 21.748 34.8659 21.1587 34.0282C20.478 33.0271 19.4315 32.3325 18.8828 31.2292C19.0047 31.1169 19.34 30.8921 19.5128 30.7695Z" fill="#D88C2F"/>
<path id="Vector_79" d="M22.1967 48.2C22.8267 47.7403 23.4261 47.25 23.9951 46.7188C24.9705 47.25 25.9459 47.7709 26.9823 48.1591C26.9924 49.8344 27.0331 51.52 26.9721 53.1953C26.8502 53.1851 26.5962 53.1544 26.4742 53.1442C23.8529 52.3679 20.9369 52.2861 18.6406 50.6619C19.9513 50.0592 21.1604 49.2215 22.1967 48.2Z" fill="#FCC420"/>
<path id="Vector_80" d="M32.9609 51.496C33.9363 51.1487 34.9117 50.7809 35.9074 50.4745L36.0293 50.4336C35.9684 51.1793 35.8871 51.9353 35.8668 52.681C34.17 54.1111 31.8433 53.1917 29.923 53.8557C28.8561 53.8455 27.7995 53.8047 26.7326 53.8251C26.7733 53.7332 26.8546 53.5391 26.8851 53.4369C26.6412 53.3246 26.4075 53.202 26.1738 53.0896L26.499 53.1202C26.6209 53.1305 26.8749 53.1611 26.9968 53.1713C29.0187 52.8342 31.0101 52.2009 32.9609 51.496Z" fill="#9D5C31"/>
<path id="Vector_81" d="M17.8906 50.7073C18.0735 50.6971 18.4494 50.6665 18.6425 50.6562C20.9489 52.2805 23.8649 52.3622 26.4761 53.1386L26.151 53.1079C26.3847 53.2305 26.6285 53.3429 26.8622 53.4553C26.8215 53.5472 26.7504 53.7413 26.7098 53.8435C24.1087 53.9354 21.589 53.2612 19.1099 52.5767C18.8051 52.495 18.5307 52.3214 18.2767 52.1477C18.0532 51.6982 18.0024 51.1875 17.8906 50.7073Z" fill="#E49319"/>
<path id="Vector_82" d="M18.2849 52.1484C18.5389 52.3323 18.8031 52.506 19.118 52.5775C21.5972 53.2619 24.1271 53.9361 26.718 53.8442C27.7848 53.8238 28.8415 53.8544 29.9083 53.8748C32.5703 54.1404 35.2425 54.0383 37.9045 54.2426C34.2569 54.0894 30.6094 54.5184 26.9618 54.4367C22.9485 54.2426 18.9148 54.3345 14.8913 54.4469C14.7186 55.2846 14.5357 56.1324 14.4138 56.9803C14.17 58.9927 13.6721 60.9643 13.3775 62.9665C13.3165 63.3649 13.2759 63.7735 13.2555 64.1822C13.2555 64.3558 13.2454 64.7031 13.2454 64.8768C12.5443 64.8972 11.8432 64.9177 11.1523 65.0096C11.894 60.8622 12.8491 56.7454 13.5908 52.5979C15.2165 52.5775 16.832 52.5877 18.4576 52.5571C18.4068 52.4447 18.3255 52.2404 18.2849 52.1484Z" fill="#F7E9B9"/>
<path id="Vector_83" d="M35.8537 52.6912C37.3168 52.3643 38.9018 52.6401 40.4157 52.5686C40.8526 54.8364 41.3505 57.094 41.8585 59.3414C42.3157 61.2516 42.7221 63.1721 43.2606 65.0722C37.1136 65.0109 30.9666 65.0518 24.8196 65.0109C20.1865 64.9803 15.5433 64.9292 10.9102 65.0416C10.9711 65.0313 11.093 65.0109 11.1438 65.0109C11.8347 64.919 12.5358 64.8985 13.2369 64.8781C13.2369 64.7044 13.247 64.3571 13.247 64.1835C17.8192 64.2448 22.3913 64.2856 26.9635 64.1732L27.1565 64.163C31.3324 63.9281 35.5388 63.9996 39.7045 63.5501C39.7248 62.7124 39.6842 61.885 39.5521 61.0678C39.3184 59.464 38.9831 57.8908 38.6275 56.3074C38.8104 56.2563 39.1863 56.1542 39.3692 56.0929C39.2981 55.4902 39.2067 54.8875 39.0847 54.295C38.851 54.2848 38.6072 54.2848 38.3735 54.2745C38.2516 54.2643 38.0179 54.2439 37.9061 54.2439C35.2441 54.0396 32.572 54.1417 29.91 53.8761C31.8303 53.2019 34.157 54.1213 35.8537 52.6912Z" fill="#824F39"/>
<path id="Vector_84" d="M37.8958 54.2365C38.0177 54.2467 38.2514 54.2671 38.3632 54.2671C38.4343 54.8392 38.5156 55.401 38.5969 55.9731C34.7461 56.4328 30.8547 56.0957 26.9938 56.4941C26.9836 55.8097 26.9734 55.115 26.9531 54.4306C30.6108 54.5123 34.2482 54.0833 37.8958 54.2365Z" fill="#D1905F"/>
<path id="Vector_85" d="M38.3745 54.2734C38.6082 54.2837 38.8419 54.2939 39.0857 54.2939C39.2178 54.8864 39.3092 55.4891 39.3702 56.0918C39.1873 56.1429 38.8114 56.245 38.6285 56.3063C38.974 57.8795 39.3194 59.4629 39.5531 61.0667C36.9216 61.4753 34.2494 61.4957 31.6077 61.8226C30.1446 62.0269 28.6714 61.9963 27.1981 62.0576C27.1677 62.7624 27.1575 63.4571 27.1677 64.1619L26.9746 64.1721C26.9848 63.5388 26.9949 62.9157 27.0051 62.2925C27.0254 60.3618 27.0254 58.4311 27.0051 56.5004C30.8559 56.102 34.7473 56.4391 38.6082 55.9794C38.5167 55.4073 38.4456 54.8353 38.3745 54.2734Z" fill="#B5744E"/>
<path id="Vector_86" d="M14.8955 54.4395C18.919 54.3271 22.9425 54.2352 26.966 54.4293C26.9863 55.1137 26.9964 55.8084 27.0066 56.4928C23.5013 56.4111 19.996 56.4928 16.4907 56.4826C15.7794 56.4928 14.9768 56.4213 14.418 56.9729C14.5399 56.125 14.7228 55.2874 14.8955 54.4395Z" fill="#F6B557"/>
<g id="Group_9">
<path id="Vector_87" d="M14.4035 56.97C14.9522 56.4183 15.7549 56.4898 16.4762 56.4796C19.9816 56.4898 23.4869 56.4081 26.9922 56.4898C27.0125 58.4205 27.0125 60.3512 26.9922 62.282C23.8222 62.6599 20.6217 62.4454 17.4415 62.6701C16.08 62.7927 14.6982 62.6191 13.3672 62.9562C13.672 60.954 14.1597 58.9824 14.4035 56.97ZM23.0093 60.9642C23.0805 61.8325 24.0254 61.5465 24.6045 61.4749C24.6045 61.1174 24.6045 60.7701 24.6147 60.4125C24.0254 60.3308 23.1719 60.1878 23.0093 60.9642Z" fill="#E8A04B"/>
</g>
<path id="Vector_88" d="M23.0098 60.965C23.1723 60.1886 24.0258 60.3419 24.6151 60.4134C24.6049 60.7607 24.5948 61.1182 24.6049 61.4758C24.0258 61.5473 23.0809 61.8231 23.0098 60.965Z" fill="#D48E48"/>
<path id="Vector_89" d="M39.5518 61.0547C39.6839 61.8719 39.7246 62.6994 39.7042 63.537C35.5385 63.9865 31.3423 63.915 27.1562 64.15C27.1562 63.4451 27.1664 62.7402 27.1867 62.0456C28.66 61.9843 30.1332 62.0149 31.5963 61.8106C34.238 61.4837 36.9102 61.4633 39.5518 61.0547Z" fill="#A46544"/>
<path id="Vector_90" d="M17.4423 62.6733C20.6225 62.4486 23.823 62.6631 26.993 62.2852C26.9828 62.9083 26.9727 63.5417 26.9625 64.1648C22.3904 64.2772 17.8182 64.2261 13.2461 64.175C13.2766 63.7664 13.3172 63.368 13.368 62.9594C14.699 62.6223 16.0808 62.7959 17.4423 62.6733Z" fill="#D78A42"/>
</g>
</g>
</g>
</svg>
