<svg width="49" height="52" viewBox="0 0 49 52" fill="none" xmlns="http://www.w3.org/2000/svg">
<g id="Group">
<path id="Vector" d="M0.598035 48.6824C0.559801 49.2176 3.42738 51.1676 4.345 51.0911C4.95675 51.0147 10.9978 50.2882 11.3419 50.0588C11.686 49.8294 12.4124 46.3883 12.9095 46.1207C13.4065 45.853 16.0065 45.6618 16.3506 45.853C16.6565 46.0442 16.4653 46.5412 16.9241 47.153C17.3829 47.7647 18.377 50.4794 19.4093 50.6323C20.4417 50.7853 26.0621 50.7852 26.4445 50.5941C26.8651 50.4029 27.2474 49.3323 27.515 49.3323C31.1473 49.447 36.5384 50.8235 39.6353 48.5294C40.2471 48.0706 41.8912 44.706 39.903 40.0032C38.3354 36.2944 34.7796 33.1592 34.0914 32.6239C32.1032 31.0181 29.0444 29.6799 28.7003 29.3358C28.2415 28.8387 27.7062 20.7713 28.3562 16.4125C28.3944 16.1831 32.0649 17.1772 32.2943 17.789C32.5237 18.4007 32.3708 20.5801 32.4855 21.5359C32.6002 22.4918 34.5119 24.5182 35.0854 24.8241C37.0736 25.8564 43.3823 25.9329 44.2999 25.0917C46.5558 22.9889 48.8116 10.1421 48.9263 4.82752C48.9263 4.10107 46.097 0.239391 45.3705 0.277626C42.3882 0.468798 38.4883 2.38052 35.009 3.29815C34.2825 5.78338 33.9384 7.04511 33.3267 9.49212C31.0708 8.95683 30.2297 8.9186 27.8974 8.23038C27.8974 8.23038 28.0886 3.87166 27.9356 3.33638C27.7827 2.83933 24.6857 1.08055 24.5328 1.19525C23.271 2.18935 22.621 26.1623 21.7416 38.015C18.4917 38.0914 16.8859 38.1679 13.636 38.4738C13.636 38.4738 13.9036 35.568 13.5977 34.765C13.3301 33.9239 12.2213 32.5475 11.8007 32.6622C8.47431 33.7327 0.865676 45.6618 0.598035 48.6824Z" fill="url(#paint0_linear_1028_51393)"/>
<path id="Vector_2" d="M18.5671 18.057C15.4701 15.0747 15.126 21.0775 17.0377 23.0657C17.0377 23.0657 13.0231 24.7098 11.3408 18.707C10.1173 14.3865 13.8643 11.1748 17.9554 11.6719C18.223 14.1953 18.3377 15.4953 18.5671 18.057Z" fill="url(#paint1_linear_1028_51393)"/>
<path id="Vector_3" d="M32.409 15.687C32.3707 16.2223 32.256 21.231 32.4854 21.5369C32.8296 21.881 41.1264 22.2251 41.4705 21.7281C43.497 18.784 46.4028 1.46384 45.3704 0.240337C44.7205 -0.562585 36.0412 0.775618 33.4413 2.34323C32.8678 2.68734 32.8678 6.66371 32.6001 6.62548C31.6443 6.51078 25.3356 5.82256 24.7239 5.28728C24.418 5.01963 24.9915 1.5403 24.5327 1.15796C23.9974 0.699147 16.8093 -0.256712 16.7329 0.584444C16.6564 1.3109 16.6947 4.06378 16.6947 4.06378C11.036 3.22262 0.445026 1.96088 2.01264 10.8695C3.54201 19.5487 9.96539 26.5838 17.6887 30.5984C17.6887 30.5984 17.3064 36.4865 17.1917 37.2512C17.1152 37.6336 12.3742 37.7865 11.7624 37.6336C11.2271 37.4806 12.3359 32.816 11.8007 32.6631C9.736 32.0513 2.7391 31.9366 1.78324 33.3513C0.0244569 35.8748 -0.0520166 48.0716 0.559734 48.7598C1.09502 49.3333 9.2007 47.8804 10.0419 47.2686C10.4242 46.9628 11.1124 44.2481 11.1124 44.2481C11.1124 44.2481 16.4652 43.7128 16.6182 44.0187C16.9623 44.7452 16.3888 46.1598 16.8093 46.5422C17.2299 46.9628 24.2268 46.7716 24.7239 46.5804C25.068 46.4275 24.9915 44.5158 24.9915 44.5158C28.5473 45.1657 41.1264 47.8039 39.2529 40.4247C37.1883 32.2425 25.1444 26.3927 24.8386 25.7044C24.6092 25.1309 24.7621 14.9988 24.915 14.0047C24.9915 13.5077 32.4472 15.1135 32.409 15.687ZM17.8417 23.0663C17.2299 23.5251 12.833 19.7399 12.833 16.7958C12.833 13.1636 17.4211 12.3989 17.574 13.0871C17.7652 15.9929 18.2623 22.7222 17.8417 23.0663ZM24.2268 33.9631C24.2651 33.5042 26.0621 34.6513 26.0621 35.8366C26.0238 37.0218 24.418 37.5189 24.1121 37.5189C23.8063 37.5189 24.2268 33.9631 24.2268 33.9631Z" fill="url(#paint2_linear_1028_51393)"/>
<path id="Vector_4" opacity="0.5" d="M17.5707 16.836C17.5325 14.389 17.7237 13.2038 16.6149 13.1655C15.5061 13.1273 12.9826 13.8155 13.1356 16.7213C13.2885 19.5889 14.8943 20.8124 15.0473 20.1624C15.2002 19.5125 15.4678 17.5625 16.4237 17.2184C17.4178 16.9125 17.5707 17.3331 17.5707 16.836Z" fill="#B82774"/>
<path id="Vector_5" opacity="0.5" d="M44.417 24.4041C42.62 21.9571 42.2759 21.613 42.6965 20.3512C43.1171 19.0895 44.3788 14.9984 45.0288 10.7162C45.6405 6.4339 45.7935 2.68693 46.4434 2.8781C47.0934 3.06928 48.6611 4.33101 48.7758 5.82215C48.8522 7.27506 48.0111 13.1632 46.864 17.9807C45.6023 22.7982 44.7229 24.8246 44.417 24.4041Z" fill="#FF3355"/>
<path id="Vector_6" opacity="0.3" d="M34.7413 2.68751C33.4413 5.0198 32.0649 19.8548 33.3648 20.7341C34.6648 21.6135 40.4 20.9253 42.2735 17.4077C44.1469 13.8902 45.5234 1.73165 44.491 1.2346C43.4205 0.737551 35.8118 0.737552 34.7413 2.68751Z" fill="#FFC055"/>
<path id="Vector_7" d="M24.7617 5.25C26.9028 7.84994 33.4792 6.66467 32.638 6.5882C31.7969 6.51173 24.7617 5.25 24.7617 5.25Z" fill="url(#paint3_linear_1028_51393)"/>
<path id="Vector_8" d="M11.8008 37.5559C12.986 39.1235 16.8477 38.2441 17.1918 37.5559C17.5742 36.8677 11.8008 37.5559 11.8008 37.5559Z" fill="url(#paint4_linear_1028_51393)"/>
<path id="Vector_9" d="M17.5709 12.8583C18.1062 12.8583 16.3856 11.2525 14.818 12.2466C13.3651 13.1642 12.8298 15.8024 13.1357 15.3053C14.1298 13.6612 15.4298 12.8583 17.5709 12.8583Z" fill="url(#paint5_linear_1028_51393)"/>
<path id="Vector_10" opacity="0.3" d="M16.3887 9.87472C17.9563 2.99253 7.86244 2.80135 4.34487 5.24835C0.865543 7.69535 2.58608 17.3304 7.93889 22.3009C13.2917 27.2714 11.7623 18.5922 11.8006 15.6099C11.8388 12.6658 15.777 12.5894 16.3887 9.87472Z" fill="#FFC055"/>
<path id="Vector_11" opacity="0.3" d="M25.0325 27.3111C22.662 29.414 24.8413 32.2051 26.6383 34.5374C28.4353 36.8697 25.5295 36.908 24.3443 39.0873C23.1972 41.3049 23.9237 43.4843 27.6324 44.249C31.3412 45.0137 38.0322 45.7019 38.338 41.6873C38.7204 37.7109 27.3648 25.2465 25.0325 27.3111Z" fill="#FFC055"/>
<path id="Vector_12" d="M33.6703 2.7261C34.9703 6.35837 39.4054 1.31142 37.9908 1.23495C36.5379 1.15849 33.4409 2.07612 33.6703 2.7261Z" fill="#FFFFDB"/>
<path id="Vector_13" d="M26.3701 35.9537C25.6054 37.4067 23.9996 37.3684 24.5349 38.0949C25.0701 38.8213 28.3965 38.3625 28.1289 37.2537C27.8613 36.1449 26.5995 35.5332 26.3701 35.9537Z" fill="#FFFFDB"/>
<path id="Vector_14" opacity="0.3" d="M2.54992 33.6939C-0.470598 38.932 0.599969 47.5729 1.28819 47.8788C1.93817 48.1847 9.01154 47.9171 9.77623 45.9289C10.5409 43.9407 12.4526 34.038 10.5409 33.1203C8.6292 32.2027 3.27637 32.3939 2.54992 33.6939Z" fill="#FFC055"/>
<path id="Vector_15" opacity="0.5" d="M25.4116 44.8605C26.444 47.3075 26.0234 48.6839 27.4763 49.0662C28.9292 49.4486 36.6525 50.4809 38.7172 48.8368C40.7436 47.1928 40.8201 45.7781 34.6261 45.6251C28.4322 45.434 25.144 44.2105 25.4116 44.8605Z" fill="#B82774"/>
<path id="Vector_16" opacity="0.5" d="M11.1476 49.7126C10.1535 47.9921 8.92999 47.9539 8.58588 47.9921C6.21535 48.2597 1.32136 48.8333 1.3596 49.2156C1.39783 49.5979 3.15661 50.8979 4.34188 50.8979C5.52714 50.9361 11.3388 50.0567 11.1476 49.7126Z" fill="#B82774"/>
<path id="Vector_17" opacity="0.5" d="M25.219 14.2365C27.0161 15.7659 27.9337 16.0335 28.4307 16.1482C28.9278 16.2629 32.1395 17.41 32.1777 17.0658C32.2159 16.7217 32.5218 15.9953 31.413 15.4218C30.266 14.81 24.1867 13.3571 25.219 14.2365Z" fill="#B82774"/>
<path id="Vector_18" opacity="0.5" d="M32.9844 21.9954C32.9844 22.5306 33.9402 24.213 36.0049 24.8629C38.0696 25.5129 43.69 25.5129 43.8812 24.8629C44.0723 24.213 42.3901 23.1424 40.9371 22.5689C40.2872 22.3012 32.9844 21.5748 32.9844 21.9954Z" fill="#B82774"/>
</g>
<defs>
<linearGradient id="paint0_linear_1028_51393" x1="24.7696" y1="51.0718" x2="24.7696" y2="0.207274" gradientUnits="userSpaceOnUse">
<stop offset="0.0502793" stop-color="#FF4B00"/>
<stop offset="1" stop-color="#FF7204"/>
</linearGradient>
<linearGradient id="paint1_linear_1028_51393" x1="14.824" y1="23.24" x2="14.824" y2="11.5825" gradientUnits="userSpaceOnUse">
<stop offset="0.0502793" stop-color="#FF4B00"/>
<stop offset="1" stop-color="#FF7204"/>
</linearGradient>
<linearGradient id="paint2_linear_1028_51393" x1="22.9332" y1="48.7998" x2="22.9332" y2="-0.03174" gradientUnits="userSpaceOnUse">
<stop stop-color="#FFA200"/>
<stop offset="1" stop-color="#FFB82F"/>
</linearGradient>
<linearGradient id="paint3_linear_1028_51393" x1="28.743" y1="6.93128" x2="28.743" y2="5.2609" gradientUnits="userSpaceOnUse">
<stop stop-color="#FFDE00"/>
<stop offset="1" stop-color="#FFE834"/>
</linearGradient>
<linearGradient id="paint4_linear_1028_51393" x1="14.5107" y1="38.4478" x2="14.5107" y2="37.2607" gradientUnits="userSpaceOnUse">
<stop stop-color="#FFDE00"/>
<stop offset="1" stop-color="#FFE834"/>
</linearGradient>
<linearGradient id="paint5_linear_1028_51393" x1="15.3549" y1="15.3884" x2="15.3549" y2="11.9325" gradientUnits="userSpaceOnUse">
<stop stop-color="#FFDE00"/>
<stop offset="1" stop-color="#FFE834"/>
</linearGradient>
</defs>
</svg>
