<svg width="41" height="41" viewBox="0 0 41 41" fill="none" xmlns="http://www.w3.org/2000/svg">
<g id="delivered 1" clip-path="url(#clip0_3042_52969)">
<path id="Vector" d="M35.4196 1.84847C35.1124 1.71897 34.7586 1.86286 34.6291 2.1691C34.4987 2.47627 34.6426 2.83005 34.9491 2.95956C37.7393 4.13727 39.8073 6.92624 39.8073 10.2936C39.8073 17.5901 30.7219 21.0672 25.884 15.57C23.1488 12.4876 23.1801 7.70012 26.2159 4.66434C28.0098 2.86947 30.4356 2.10872 32.7892 2.38775C33.1198 2.4256 33.4198 2.19099 33.4592 1.85973C33.4986 1.5291 33.2621 1.22912 32.9315 1.1897C25.0297 0.250661 19.8053 9.15216 24.3472 15.57C23.8633 15.57 12.2363 15.57 11.708 15.57C11.1443 15.57 10.687 16.0282 10.687 16.591V24.3936L9.55401 26.6201C9.33943 27.0424 8.98158 27.3574 8.5571 27.5185C8.5571 26.5879 7.82733 25.9423 7.01153 25.9423H4.6852C3.88285 25.9423 3.139 26.5648 3.139 27.5498H1.64348C0.737282 27.5498 0 28.2871 0 29.1939V29.9243C0 30.2571 0.269325 30.5271 0.603089 30.5271C0.935913 30.5271 1.20618 30.2571 1.20618 29.9243V29.1939C1.20618 28.9521 1.40231 28.756 1.64348 28.756H3.139V37.1044H1.64348C1.40231 37.1044 1.20618 36.9083 1.20618 36.6671V32.3364C1.20618 32.0026 0.935913 31.7333 0.603089 31.7333C0.269325 31.7333 0 32.0026 0 32.3364V36.6671C0 37.5733 0.737282 38.3106 1.64348 38.3106H3.139C3.139 39.2963 3.8841 39.9188 4.6852 39.9188H7.01153C7.72003 39.9188 8.31812 39.4395 8.49986 38.7883C9.24152 38.9866 7.19859 38.9081 34.1924 38.9081C34.814 38.9081 35.3198 38.4023 35.3198 37.7807V18.7822C42.8199 15.7126 42.9328 5.03033 35.4196 1.84847ZM7.35092 32.8953C7.35092 33.5369 7.35092 33.7462 7.35092 33.7408V38.3726C7.35092 38.5568 7.19577 38.7129 7.01153 38.7129H4.6852C4.50127 38.7129 4.34518 38.5568 4.34518 38.3726C4.34518 37.8586 4.34518 27.9956 4.34518 27.4888C4.34518 27.3036 4.50127 27.1485 4.6852 27.1485H7.01153C7.19577 27.1485 7.35092 27.3036 7.35092 27.4888V32.8953ZM18.3711 16.7759H22.9699V21.508L21.1822 20.1094C20.881 19.8739 20.4575 19.8751 20.1584 20.1094L18.3711 21.508V16.7759ZM18.2325 37.6988C8.65751 37.7022 9.12359 37.7623 8.5571 37.5396V28.7751C9.44766 28.5786 10.1856 28.0353 10.687 27.0528C10.8202 26.7909 11.814 24.8381 12.0555 24.3639C12.2554 23.9644 13.3846 24.9742 12.8522 26.0196L12.2701 27.1638C11.8778 27.9352 12.4371 28.8476 13.3027 28.8476L20.8575 28.8451C21.2313 28.8451 21.5507 29.1517 21.5467 29.5086C21.5426 29.8627 21.2504 30.152 20.8951 30.1539H16.1808C15.8477 30.1539 15.5777 30.4239 15.5777 30.757C15.5777 31.0901 15.8477 31.3601 16.1808 31.3601C16.1839 31.3601 23.2186 31.3595 23.2202 31.3595C23.5239 31.3595 23.8408 31.6385 23.8899 31.9094C23.9775 32.3467 23.721 32.667 23.2693 32.667C23.2674 32.667 22.334 32.6676 16.1301 32.6676C15.797 32.6676 15.527 32.9376 15.527 33.2707C15.527 33.6035 15.797 33.8735 16.1301 33.8735C16.1336 33.8735 22.1738 33.8735 22.1773 33.8738C22.7563 33.8951 23.0121 34.5948 22.6139 34.9905C22.4907 35.1144 22.3268 35.1819 22.1522 35.1819C17.5293 35.1848 18.8118 35.1844 15.5508 35.1844C15.2177 35.1844 14.9477 35.4544 14.9477 35.7875C14.9477 36.1207 15.2177 36.3906 15.5508 36.3906C18.4227 36.3906 18.4386 36.3265 18.6954 36.5817C19.104 36.9915 18.8137 37.6988 18.2325 37.6988ZM34.1136 37.7019H30.6546V26.1071C30.6546 25.7743 30.3843 25.5041 30.0515 25.5041C29.7178 25.5041 29.4484 25.7743 29.4484 26.1071V37.7019H19.9701C20.1372 37.2637 20.1346 36.8029 19.9779 36.3897L22.1522 36.3881C23.4914 36.3881 24.3904 35.014 23.8577 33.7862C25.198 33.3714 25.524 31.6995 24.5555 30.7273C23.9043 30.076 23.2546 30.1533 22.633 30.1533C23.0991 28.9255 22.1585 27.639 20.8575 27.639L13.3806 27.6415L13.9273 26.5673C14.8445 24.7636 13.2598 22.7748 11.8932 23.0998V16.7759H17.1649V22.2781C17.1649 22.7364 17.5381 23.1092 17.9966 23.1092C18.3682 23.1092 18.2929 23.1001 20.6705 21.2405C23.0156 23.0751 22.9643 23.1092 23.344 23.1092C23.8029 23.1092 24.1761 22.7364 24.1761 22.2781V16.7759H25.3644C26.5153 17.9267 27.9182 18.734 29.4484 19.1447V23.6951C29.4484 24.0279 29.7178 24.2982 30.0515 24.2982C30.3843 24.2982 30.6546 24.0279 30.6546 23.6951V19.3843C31.8023 19.5329 32.9853 19.4654 34.1136 19.1794V37.7019Z" fill="#C3B8A2"/>
<path id="Vector_2" d="M27.867 10.1847C27.6461 9.93504 27.2648 9.9122 27.0158 10.133C26.7662 10.3539 26.7434 10.7349 26.9642 10.9842L29.3932 13.7265C29.8611 14.2546 30.6847 14.2536 31.1521 13.7291L36.73 7.46888C36.9518 7.22051 36.9296 6.8392 36.6809 6.61774C36.4322 6.39627 36.0512 6.41785 35.8294 6.66653L30.2737 12.9014L27.867 10.1847Z" fill="#C3B8A2"/>
</g>
<defs>
<clipPath id="clip0_3042_52969">
<rect width="41" height="41" fill="white"/>
</clipPath>
</defs>
</svg>
