<svg width="35" height="36" viewBox="0 0 35 36" fill="none" xmlns="http://www.w3.org/2000/svg">
<g id="tools 1" clip-path="url(#clip0_3042_53040)">
<path id="Vector" d="M23.7943 10.9082C23.4163 10.9082 23.1094 11.2224 23.1094 11.6111C23.1094 11.9994 23.4163 12.3142 23.7943 12.3142C24.1732 12.3142 24.4792 11.9994 24.4792 11.6111C24.4792 11.2224 24.1732 10.9082 23.7943 10.9082Z" fill="#C3B8A2"/>
<path id="Vector_2" d="M11.3412 23.6836C10.9623 23.6836 10.6562 23.9986 10.6562 24.3867C10.6562 24.7756 10.9623 25.0898 11.3412 25.0898C11.7192 25.0898 12.0261 24.7756 12.0261 24.3867C12.0261 23.9986 11.7192 23.6836 11.3412 23.6836Z" fill="#C3B8A2"/>
<path id="Vector_3" d="M34.2476 4.32566C34.0164 4.27046 33.7735 4.34214 33.6065 4.51518L30.767 7.4532H29.4057L27.9072 5.85935V4.44239L30.706 1.52634C30.8716 1.35386 30.9391 1.10584 30.8842 0.86991C30.8296 0.634253 30.6605 0.444189 30.4369 0.366736C29.7337 0.123388 28.998 6.67067e-05 28.2496 6.67067e-05C26.0188 6.67067e-05 23.9921 1.06794 22.6891 2.92985C21.4696 4.67283 21.0937 6.80885 21.6323 8.85313L16.5871 14.0324L8.18167 5.38392V3.68653C8.18167 3.43961 8.05538 3.21055 7.8491 3.08366L3.00615 0.100317C2.73646 -0.0658513 2.39159 -0.0221806 2.16952 0.206061L0.232449 2.19431C0.010381 2.42255 -0.0321597 2.77659 0.129441 3.05344L3.03505 8.02503C3.15866 8.2368 3.38153 8.36616 3.62206 8.36644L5.27499 8.36698L13.6812 17.0154L8.65523 22.1749C6.66385 21.6223 4.58203 22.0087 2.88335 23.2614C1.07069 24.5982 0.03125 26.6782 0.03125 28.9683C0.03125 29.7362 0.151381 30.4918 0.388431 31.2133C0.464148 31.4443 0.651166 31.6187 0.882331 31.6737C1.11376 31.7289 1.35643 31.6572 1.52365 31.4842L4.36291 28.5464H5.7317L7.29126 30.1474V31.5525L4.42953 34.4672C4.26097 34.6389 4.19114 34.888 4.24492 35.1256C4.29843 35.3629 4.46832 35.5549 4.69333 35.6326C5.39619 35.8759 6.13222 35.9993 6.8803 35.9993C9.11114 35.9993 11.137 34.9319 12.4395 33.0711C13.6598 31.3273 14.0362 29.1905 13.4979 27.1462L17.5345 23.0024L18.4591 24.0335L18.0348 24.4688C17.7672 24.7435 17.7672 25.1887 18.0348 25.4634C18.3023 25.7378 18.7358 25.7378 19.0036 25.4634L19.3878 25.069L28.0634 34.743C28.0698 34.7501 28.0765 34.757 28.0832 34.7639C29.6885 36.4118 32.2894 36.4124 33.8955 34.7636C35.4971 33.1186 35.4971 30.4421 33.8955 28.7972C33.8885 28.79 33.8813 28.7832 33.8741 28.7763L24.4357 19.8873L24.8156 19.4972C25.0832 19.2229 25.0832 18.7776 24.8156 18.503C24.5481 18.2283 24.1146 18.2283 23.8468 18.503L23.4254 18.9358L22.4191 17.9877L26.4752 13.8239C27.0518 13.9821 27.6468 14.0623 28.2496 14.0623C32.0264 14.0623 35.0987 10.9081 35.0987 7.03132C35.0987 6.2631 34.9785 5.50779 34.7415 4.78599C34.6658 4.555 34.4788 4.38059 34.2476 4.32566ZM6.04393 7.16728C5.91551 7.03517 5.74133 6.96788 5.5594 6.96788L4.01027 6.96733L1.5793 2.80076L2.76001 1.58869L6.8118 4.08479V5.67506C6.8118 5.86128 6.88378 6.0398 7.01193 6.17164L15.6185 15.0269L14.6497 16.0212L6.04393 7.16728ZM23.4661 20.8826L32.9366 29.8016C33.9945 30.8991 33.9913 32.6762 32.9267 33.7696C31.8597 34.8649 30.1324 34.8682 29.0611 33.7792L20.3571 24.0736L23.4661 20.8826ZM22.4558 19.9309L19.4285 23.0381L18.5038 22.0071L21.4495 18.9828L22.4558 19.9309ZM28.2496 12.656C27.6506 12.656 27.0614 12.5574 26.499 12.363C26.2526 12.2781 25.9803 12.3435 25.7962 12.5322C22.3624 16.0571 14.9636 23.6523 12.2391 26.4494C12.055 26.6384 11.9911 26.918 12.0743 27.1712C12.6436 28.9068 12.3713 30.758 11.3267 32.2507C10.2852 33.7391 8.66433 34.593 6.8803 34.593C6.6799 34.593 6.48058 34.5818 6.28312 34.5601L8.45858 32.3441C8.58808 32.2123 8.66112 32.0326 8.66112 31.8451V29.856C8.66112 29.6695 8.58888 29.4907 8.46046 29.3589L6.49957 27.3459C6.37115 27.214 6.19697 27.1399 6.0153 27.1399H4.0777C3.89496 27.1399 3.71998 27.2149 3.59129 27.3478L1.43295 29.581C1.41155 29.3784 1.40085 29.1737 1.40085 28.968C1.40085 27.1363 2.2324 25.4727 3.68252 24.4035C5.1364 23.3312 6.93996 23.0513 8.63089 23.6361C8.8773 23.7215 9.14967 23.6558 9.33374 23.4669C9.37147 23.4284 22.8812 9.55955 22.8908 9.54966C23.0749 9.3607 23.1386 9.08137 23.0557 8.82814C22.486 7.09257 22.7579 5.24192 23.8016 3.75025C24.844 2.26051 26.4651 1.40632 28.2494 1.40632C28.4559 1.40632 28.6611 1.41813 28.8645 1.4412L26.7342 3.66071C26.6079 3.79227 26.5373 3.96943 26.5373 4.154V6.14308C26.5373 6.32545 26.6061 6.50041 26.7294 6.63142L28.6218 8.64439C28.7507 8.78172 28.9287 8.85917 29.1146 8.85917H31.0522C31.2347 8.85917 31.4097 8.78447 31.5384 8.65126L33.6967 6.41828C33.7181 6.62098 33.7288 6.8256 33.7288 7.03132C33.7288 10.1328 31.2708 12.656 28.2496 12.656Z" fill="#C3B8A2"/>
<path id="Vector_4" d="M21.3652 13.1025L12.7942 21.9012C12.5269 22.1755 12.5269 22.6208 12.7942 22.8954C13.0618 23.1701 13.4955 23.1701 13.763 22.8954L22.334 14.0967C22.6016 13.8224 22.6016 13.3771 22.334 13.1025C22.0665 12.8278 21.6328 12.8278 21.3652 13.1025Z" fill="#C3B8A2"/>
<path id="Vector_5" d="M30.0235 31.7801C30.2911 32.0539 30.7248 32.0539 30.9923 31.7785C31.2593 31.5035 31.2585 31.0583 30.9907 30.7842L24.817 24.4668C24.5491 24.1927 24.1152 24.1935 23.8484 24.4684C23.5811 24.7436 23.582 25.1886 23.8498 25.4627L30.0235 31.7801Z" fill="#C3B8A2"/>
</g>
<defs>
<clipPath id="clip0_3042_53040">
<rect width="35" height="36" fill="white"/>
</clipPath>
</defs>
</svg>
