<svg width="43" height="43" viewBox="0 0 43 43" fill="none" xmlns="http://www.w3.org/2000/svg">
<g id="credit-card (1) 1">
<g id="g15">
<g id="g17">
<path id="path19" d="M32.6626 10.9287L14.5 17.5391" stroke="#EBE2D0" stroke-width="2" stroke-miterlimit="10" stroke-linecap="round" stroke-linejoin="round"/>
</g>
<g id="g21">
<path id="path23" d="M10.6758 18.9313L2.88281 21.7676" stroke="#EBE2D0" stroke-width="2" stroke-miterlimit="10" stroke-linecap="round" stroke-linejoin="round"/>
</g>
<g id="g25">
<g id="Clip path group">
<mask id="mask0_3042_53007" style="mask-type:luminance" maskUnits="userSpaceOnUse" x="0" y="0" width="43" height="43">
<g id="clipPath31">
<path id="path29" d="M0 7.62939e-06H43V43H0V7.62939e-06Z" fill="white"/>
</g>
</mask>
<g mask="url(#mask0_3042_53007)">
<g id="g27">
<g id="g33">
<path id="path35" d="M31.2739 7.11538L1.49219 17.9551" stroke="#EBE2D0" stroke-width="2" stroke-miterlimit="10" stroke-linecap="round" stroke-linejoin="round"/>
</g>
<g id="g37">
<path id="path39" d="M5.81495 12.6479L1.40577 14.2528C0.790167 14.4771 0.472706 15.1583 0.696944 15.7739L7.17214 33.5669C7.39638 34.1825 8.07749 34.5 8.69394 34.2757L10.6719 33.556" stroke="#EBE2D0" stroke-width="2" stroke-miterlimit="10" stroke-linecap="round" stroke-linejoin="round"/>
</g>
<g id="g41">
<path id="path43" d="M8.57812 11.6417L28.9579 4.22409C29.5735 3.99986 30.2547 4.31732 30.4788 4.93376L35.067 17.5391" stroke="#EBE2D0" stroke-width="2" stroke-miterlimit="10" stroke-linecap="round" stroke-linejoin="round"/>
</g>
<g id="g45">
<path id="path47" d="M32.757 38.8477H11.8588C11.2032 38.8477 10.6719 38.3162 10.6719 37.6607V18.7263C10.6719 18.0707 11.2032 17.5393 11.8588 17.5393H41.1779C41.8335 17.5393 42.3649 18.0707 42.3649 18.7263V37.6607C42.3649 38.3162 41.8335 38.8477 41.1779 38.8477H35.6964" stroke="#EBE2D0" stroke-width="2" stroke-miterlimit="10" stroke-linecap="round" stroke-linejoin="round"/>
</g>
<g id="g49">
<path id="path51" d="M15.6328 22.2386V26.3828C15.6328 26.6589 15.8567 26.8828 16.1329 26.8828H22.0841C22.3602 26.8828 22.5841 26.6589 22.5841 26.3828V22.2386C22.5841 21.9623 22.3602 21.7384 22.0841 21.7384H16.1329C15.8567 21.7384 15.6328 21.9623 15.6328 22.2386Z" stroke="#EBE2D0" stroke-width="2" stroke-miterlimit="10" stroke-linecap="round" stroke-linejoin="round"/>
</g>
<g id="g53">
<path id="path55" d="M15.6328 34.6484H18.8122" stroke="#EBE2D0" stroke-width="2" stroke-miterlimit="10" stroke-linecap="round" stroke-linejoin="round"/>
</g>
<g id="g57">
<path id="path59" d="M34.2266 34.6484H37.406" stroke="#EBE2D0" stroke-width="2" stroke-miterlimit="10" stroke-linecap="round" stroke-linejoin="round"/>
</g>
<g id="g61">
<path id="path63" d="M21.9062 34.6484H31.1302" stroke="#EBE2D0" stroke-width="2" stroke-miterlimit="10" stroke-linecap="round" stroke-linejoin="round"/>
</g>
<g id="g65">
<path id="path67" d="M33.084 24.1408L35.1737 26.2306C35.3377 26.3945 35.6036 26.3945 35.7676 26.2306L37.8574 24.1408C38.0214 23.9768 38.0214 23.7109 37.8574 23.5469L35.7676 21.4571C35.6036 21.2931 35.3377 21.2931 35.1737 21.4571L33.084 23.5469C32.9199 23.7109 32.9199 23.9768 33.084 24.1408Z" stroke="#EBE2D0" stroke-width="2" stroke-miterlimit="10" stroke-linecap="round" stroke-linejoin="round"/>
</g>
</g>
</g>
</g>
</g>
</g>
</g>
</svg>
