<svg width="50" height="50" viewBox="0 0 50 50" fill="none" xmlns="http://www.w3.org/2000/svg">
<g id="affiliate-program 1">
<path id="Vector" d="M45.8385 24.9994C45.8385 13.5202 36.4844 4.16602 25.0052 4.16602C22.026 4.16602 19.0677 4.85352 16.3594 6.08268C15.0677 4.89518 13.3594 4.16602 11.4635 4.16602C7.44271 4.16602 4.17188 7.43685 4.17188 11.4577C4.17188 13.3535 4.92188 15.0618 6.08854 16.3535C4.85938 19.0618 4.17188 21.9993 4.17188 24.9994C4.17188 36.4785 13.526 45.8327 25.0052 45.8327C27.9844 45.8327 30.9427 45.1452 33.651 43.916C34.9427 45.1035 36.651 45.8327 38.5469 45.8327C42.5677 45.8327 45.8385 42.5619 45.8385 38.541C45.8385 36.6452 45.0885 34.9368 43.9219 33.6452C45.151 30.9368 45.8385 27.9994 45.8385 24.9994ZM8.33854 11.4577C8.33854 9.72852 9.73438 8.33268 11.4635 8.33268C13.1927 8.33268 14.5885 9.72852 14.5885 11.4577C14.5885 13.1868 13.1927 14.5827 11.4635 14.5827C9.73438 14.5827 8.33854 13.1868 8.33854 11.4577ZM24.526 35.2285C23.2969 36.166 21.8385 36.6244 20.3594 36.6244C18.5677 36.6244 16.776 35.9369 15.4219 34.5827C14.1094 33.2702 13.3802 31.5202 13.3802 29.6869C13.3802 27.8535 14.1094 26.1035 15.4219 24.791L18.8594 21.3535C21.2969 18.916 25.2135 18.6452 27.9427 20.7285C28.8594 21.4368 29.026 22.7285 28.3385 23.6452C27.651 24.5619 26.3385 24.7285 25.4219 24.041C24.3385 23.2285 22.7969 23.3327 21.8177 24.3119L18.3802 27.7493C17.8594 28.2702 17.5677 28.9785 17.5677 29.7077C17.5677 30.4369 17.8594 31.1452 18.3802 31.666C19.3594 32.6452 20.9219 32.7702 21.9844 31.9369C22.901 31.2285 24.2135 31.416 24.901 32.3327C25.6094 33.2494 25.4219 34.5619 24.5052 35.2494L24.526 35.2285ZM31.1094 28.666C29.776 29.9994 27.9844 30.6868 26.1927 30.6868C24.7344 30.6868 23.2552 30.2285 22.026 29.291C21.1094 28.5827 20.9427 27.291 21.6302 26.3743C22.3177 25.4577 23.6302 25.291 24.5469 25.9785C25.6302 26.8119 27.1719 26.6869 28.151 25.7077L31.5885 22.2702C32.1094 21.7493 32.401 21.041 32.401 20.3118C32.401 19.5827 32.1094 18.8744 31.5885 18.3535C30.6094 17.3744 29.0469 17.2494 27.9844 18.0827C27.0677 18.791 25.7552 18.6035 25.0677 17.6868C24.3594 16.7702 24.5469 15.4577 25.4635 14.7702C28.1927 12.6868 32.1094 12.9577 34.5469 15.416C35.8594 16.7285 36.5885 18.4785 36.5885 20.3118C36.5885 22.1452 35.8594 23.8952 34.5469 25.2077L31.1094 28.6452V28.666ZM38.5469 41.666C36.8177 41.666 35.4219 40.2702 35.4219 38.541C35.4219 36.8119 36.8177 35.416 38.5469 35.416C40.276 35.416 41.6719 36.8119 41.6719 38.541C41.6719 40.2702 40.276 41.666 38.5469 41.666Z" fill="#161513"/>
</g>
</svg>
