<svg width="18" height="18" viewBox="0 0 18 18" fill="none" xmlns="http://www.w3.org/2000/svg">
<g id="sad 1" clip-path="url(#clip0_2837_51859)">
<path id="Vector" d="M9 0.5625C7.33122 0.5625 5.69992 1.05735 4.31238 1.98448C2.92484 2.9116 1.84338 4.22936 1.20477 5.77111C0.566156 7.31286 0.399065 9.00936 0.724628 10.6461C1.05019 12.2828 1.85378 13.7862 3.03379 14.9662C4.2138 16.1462 5.71721 16.9498 7.35393 17.2754C8.99064 17.6009 10.6871 17.4338 12.2289 16.7952C13.7706 16.1566 15.0884 15.0752 16.0155 13.6876C16.9427 12.3001 17.4375 10.6688 17.4375 9C17.435 6.76301 16.5452 4.61837 14.9634 3.03658C13.3816 1.45479 11.237 0.565031 9 0.5625ZM11.25 5.625C11.4725 5.625 11.69 5.69098 11.875 5.8146C12.06 5.93821 12.2042 6.11391 12.2894 6.31948C12.3745 6.52505 12.3968 6.75125 12.3534 6.96948C12.31 7.18771 12.2028 7.38816 12.0455 7.5455C11.8882 7.70283 11.6877 7.80998 11.4695 7.85338C11.2513 7.89679 11.0251 7.87451 10.8195 7.78936C10.6139 7.70422 10.4382 7.56002 10.3146 7.37502C10.191 7.19001 10.125 6.9725 10.125 6.75C10.125 6.45163 10.2435 6.16548 10.4545 5.9545C10.6655 5.74353 10.9516 5.625 11.25 5.625ZM6.75 5.625C6.97251 5.625 7.19001 5.69098 7.37502 5.8146C7.56003 5.93821 7.70422 6.11391 7.78937 6.31948C7.87452 6.52505 7.8968 6.75125 7.85339 6.96948C7.80998 7.18771 7.70283 7.38816 7.5455 7.5455C7.38816 7.70283 7.18771 7.80998 6.96948 7.85338C6.75125 7.89679 6.52505 7.87451 6.31949 7.78936C6.11392 7.70422 5.93822 7.56002 5.8146 7.37502C5.69098 7.19001 5.625 6.9725 5.625 6.75C5.625 6.45163 5.74353 6.16548 5.95451 5.9545C6.16549 5.74353 6.45164 5.625 6.75 5.625ZM12.3981 13.3099C12.3492 13.3653 12.2899 13.4105 12.2235 13.443C12.1571 13.4755 12.085 13.4946 12.0112 13.4992C11.9374 13.5038 11.8635 13.4938 11.7936 13.4698C11.7237 13.4458 11.6592 13.4083 11.6038 13.3594C10.8846 12.7254 9.95878 12.3755 9 12.3755C8.04123 12.3755 7.1154 12.7254 6.39619 13.3594C6.2843 13.4581 6.13776 13.5084 5.98881 13.4991C5.83986 13.4898 5.7007 13.4218 5.60194 13.3099C5.50318 13.198 5.45291 13.0514 5.4622 12.9025C5.47148 12.7535 5.53955 12.6144 5.65144 12.5156C6.57624 11.7 7.76693 11.25 9 11.25C10.2331 11.25 11.4238 11.7 12.3486 12.5156C12.404 12.5645 12.4492 12.6238 12.4817 12.6902C12.5142 12.7566 12.5333 12.8287 12.5379 12.9025C12.5425 12.9763 12.5325 13.0502 12.5085 13.1201C12.4845 13.19 12.447 13.2545 12.3981 13.3099Z" fill="#847F7D"/>
</g>
<defs>
<clipPath id="clip0_2837_51859">
<rect width="18" height="18" fill="white"/>
</clipPath>
</defs>
</svg>
