<svg width="36" height="36" viewBox="0 0 36 36" fill="none" xmlns="http://www.w3.org/2000/svg">
<g id="google 1" clip-path="url(#clip0_1028_49688)">
<g id="Group">
<path id="Vector" d="M8.4375 18.0005C8.4375 16.2169 8.92891 14.5461 9.78265 13.1154V7.04688H3.71412C1.30556 10.1749 0 13.9872 0 18.0005C0 22.0138 1.30556 25.8261 3.71412 28.9541H9.78265V22.8856C8.92891 21.455 8.4375 19.7841 8.4375 18.0005Z" fill="#FBBD00"/>
<path id="Vector_2" d="M18 27.5613L13.7812 31.7801L18 35.9988C22.0134 35.9988 25.8256 34.6933 28.9536 32.2847V26.2227H22.8916C21.4484 27.0795 19.7705 27.5613 18 27.5613Z" fill="#0F9D58"/>
<path id="Vector_3" d="M9.78337 22.8867L3.71484 28.9553C4.1917 29.5746 4.71096 30.1676 5.27283 30.7296C8.67258 34.1293 13.1928 36.0016 18.0007 36.0016V27.5641C14.5115 27.5641 11.4534 25.6854 9.78337 22.8867Z" fill="#31AA52"/>
<path id="Vector_4" d="M36 18.0007C36 16.9055 35.9009 15.8084 35.7053 14.7398L35.547 13.875H18V22.3125H26.5396C25.7103 23.9621 24.4353 25.308 22.8915 26.2245L28.9536 32.2866C29.5729 31.8097 30.166 31.2905 30.7279 30.7286C34.1276 27.3288 36 22.8086 36 18.0007Z" fill="#3C79E6"/>
<path id="Vector_5" d="M24.7617 11.2383L25.5075 11.984L31.4737 6.01784L30.728 5.2721C27.3282 1.87235 22.808 0 18 0L13.7812 4.21875L18 8.4375C20.5542 8.4375 22.9556 9.43214 24.7617 11.2383Z" fill="#CF2D48"/>
<path id="Vector_6" d="M18.0008 8.4375V0C13.1928 0 8.67265 1.87235 5.27283 5.27203C4.71096 5.8339 4.1917 6.42698 3.71484 7.04637L9.78338 13.1149C11.4535 10.3162 14.5116 8.4375 18.0008 8.4375Z" fill="#EB4132"/>
</g>
</g>
<defs>
<clipPath id="clip0_1028_49688">
<rect width="36" height="36" fill="white"/>
</clipPath>
</defs>
</svg>
