<svg width="20" height="20" viewBox="0 0 20 20" fill="none" xmlns="http://www.w3.org/2000/svg">
<g id="Group">
<g id="Group_2">
<g id="Group_3">
<path id="Vector" d="M8.71484 2.42188H11.2852C15.4297 2.42188 18.7891 5.78125 18.7891 9.92578V12.4961C18.7891 16.6406 15.4297 20 11.2852 20H8.71484C4.57031 20 1.21094 16.6406 1.21094 12.4961V9.92578C1.21094 5.78125 4.57031 2.42188 8.71484 2.42188Z" fill="url(#paint0_linear_1073_58332)"/>
<path id="Vector_2" d="M1.21094 9.92578V12.4961C1.21094 16.6406 4.57031 20 8.71484 20H11.2852C15.4297 20 18.7891 16.6406 18.7891 12.4961V9.92578C18.7891 9.84375 18.7891 9.76172 18.7852 9.68359H1.21484C1.21094 9.76172 1.21094 9.84375 1.21094 9.92578Z" fill="url(#paint1_linear_1073_58332)"/>
<path id="Vector_3" d="M11.2852 2.42188H8.71484C8.41797 2.42188 8.12891 2.44141 7.84375 2.47266V19.9492C8.12891 19.9805 8.42188 20 8.71484 20H11.2852C15.4297 20 18.7891 16.6406 18.7891 12.4961V9.92578C18.7891 5.78125 15.4297 2.42188 11.2852 2.42188Z" fill="url(#paint2_linear_1073_58332)"/>
<path id="Vector_4" d="M14.3086 3.05469L1.84766 15.5156C3.00781 18.1562 5.64453 20 8.71484 20H11.2852C15.4297 20 18.7891 16.6406 18.7891 12.4961V9.92578C18.7891 6.85547 16.9453 4.21875 14.3086 3.05469Z" fill="url(#paint3_linear_1073_58332)"/>
<path id="Vector_5" d="M8.85547 3.375H11.1484C14.8438 3.375 17.8398 6.37109 17.8398 10.0664V12.3594C17.8398 16.0547 14.8438 19.0508 11.1484 19.0508H8.85547C5.16016 19.0508 2.16406 16.0547 2.16406 12.3594V10.0664C2.16406 6.37109 5.16016 3.375 8.85547 3.375Z" fill="url(#paint4_linear_1073_58332)"/>
<path id="Vector_6" d="M8.71484 2.42188H11.2852C15.4297 2.42188 18.7891 5.78125 18.7891 9.92578V12.4961C18.7891 16.6406 15.4297 20 11.2852 20H8.71484C4.57031 20 1.21094 16.6406 1.21094 12.4961V9.92578C1.21094 5.78125 4.57031 2.42188 8.71484 2.42188Z" fill="url(#paint5_linear_1073_58332)"/>
</g>
<g id="Group_4">
<path id="Vector_7" d="M15.5078 13.832C15.0156 16.4258 12.7344 18.3828 10 18.3828C7.26562 18.3828 4.98438 16.4219 4.49219 13.832H15.5078Z" fill="url(#paint6_linear_1073_58332)"/>
<path id="Vector_8" d="M15.5078 13.832C15.0156 16.4258 12.7344 18.3828 10 18.3828C7.26562 18.3828 4.98438 16.4219 4.49219 13.832H15.5078Z" fill="url(#paint7_linear_1073_58332)"/>
<path id="Vector_9" d="M15.5078 13.832C15.0156 16.4258 12.7344 18.3828 10 18.3828C7.26562 18.3828 4.98438 16.4219 4.49219 13.832H15.5078Z" fill="url(#paint8_linear_1073_58332)"/>
<path id="Vector_10" d="M10 14.8764C11.6289 14.8764 13.2031 14.7787 14.6836 14.6029C15.0977 14.5521 15.4297 14.2396 15.5078 13.8334C15.5742 13.4896 15.6055 13.1381 15.6055 12.7787V12.7748C15.6055 12.5404 15.3945 12.3568 15.1641 12.3959C13.5625 12.6459 11.8203 12.7826 10 12.7826C8.17969 12.7826 6.43359 12.6459 4.83594 12.3959C4.60156 12.3607 4.39453 12.5404 4.39453 12.7748V12.7787C4.39453 13.1381 4.42969 13.4935 4.49219 13.8334C4.57031 14.2435 4.90234 14.556 5.31641 14.6029C6.79688 14.7826 8.37109 14.8764 10 14.8764Z" fill="url(#paint9_linear_1073_58332)"/>
<path id="Vector_11" d="M10 14.8764C11.6289 14.8764 13.2031 14.7787 14.6836 14.6029C15.0977 14.5521 15.4297 14.2396 15.5078 13.8334C15.5742 13.4896 15.6055 13.1381 15.6055 12.7787V12.7748C15.6055 12.5404 15.3945 12.3568 15.1641 12.3959C13.5625 12.6459 11.8203 12.7826 10 12.7826C8.17969 12.7826 6.43359 12.6459 4.83594 12.3959C4.60156 12.3607 4.39453 12.5404 4.39453 12.7748V12.7787C4.39453 13.1381 4.42969 13.4935 4.49219 13.8334C4.57031 14.2435 4.90234 14.556 5.31641 14.6029C6.79688 14.7826 8.37109 14.8764 10 14.8764Z" fill="url(#paint10_linear_1073_58332)"/>
<path id="Vector_12" d="M10 14.8764C11.6289 14.8764 13.2031 14.7787 14.6836 14.6029C15.0977 14.5521 15.4297 14.2396 15.5078 13.8334C15.5742 13.4896 15.6055 13.1381 15.6055 12.7787V12.7748C15.6055 12.5404 15.3945 12.3568 15.1641 12.3959C13.5625 12.6459 11.8203 12.7826 10 12.7826C8.17969 12.7826 6.43359 12.6459 4.83594 12.3959C4.60156 12.3607 4.39453 12.5404 4.39453 12.7748V12.7787C4.39453 13.1381 4.42969 13.4935 4.49219 13.8334C4.57031 14.2435 4.90234 14.556 5.31641 14.6029C6.79688 14.7826 8.37109 14.8764 10 14.8764Z" fill="url(#paint11_linear_1073_58332)"/>
<path id="Vector_13" d="M7.23828 12.6684V14.7817C6.58203 14.7387 5.94141 14.6762 5.31641 14.602C4.90234 14.5512 4.57031 14.2387 4.49219 13.8325C4.42578 13.4887 4.39453 13.1371 4.39453 12.7778V12.7739C4.39453 12.5395 4.60547 12.3559 4.83594 12.391C5.60547 12.5082 6.40625 12.602 7.23828 12.6684Z" fill="url(#paint12_linear_1073_58332)"/>
</g>
<g id="Group_5">
<g id="Group_6">
<path id="Vector_14" d="M6.45703 8.83203C5.18359 8.83203 4.15234 9.86328 4.15234 11.1367V11.1445C4.15234 11.4062 4.48828 11.5195 4.65234 11.3164C5.07422 10.7852 5.72656 10.4453 6.45703 10.4453C7.1875 10.4453 7.83984 10.7852 8.26172 11.3164C8.42578 11.5234 8.76172 11.4102 8.76172 11.1445C8.76172 11.1406 8.76172 11.1406 8.76172 11.1367C8.76172 9.86328 7.73047 8.83203 6.45703 8.83203Z" fill="url(#paint13_linear_1073_58332)"/>
<path id="Vector_15" d="M6.45703 8.83203C5.18359 8.83203 4.15234 9.86328 4.15234 11.1367V11.1445C4.15234 11.4062 4.48828 11.5195 4.65234 11.3164C5.07422 10.7852 5.72656 10.4453 6.45703 10.4453C7.1875 10.4453 7.83984 10.7852 8.26172 11.3164C8.42578 11.5234 8.76172 11.4102 8.76172 11.1445C8.76172 11.1406 8.76172 11.1406 8.76172 11.1367C8.76172 9.86328 7.73047 8.83203 6.45703 8.83203Z" fill="url(#paint14_linear_1073_58332)"/>
<path id="Vector_16" d="M6.45703 8.83203C5.18359 8.83203 4.15234 9.86328 4.15234 11.1367V11.1445C4.15234 11.4062 4.48828 11.5195 4.65234 11.3164C5.07422 10.7852 5.72656 10.4453 6.45703 10.4453C7.1875 10.4453 7.83984 10.7852 8.26172 11.3164C8.42578 11.5234 8.76172 11.4102 8.76172 11.1445C8.76172 11.1406 8.76172 11.1406 8.76172 11.1367C8.76172 9.86328 7.73047 8.83203 6.45703 8.83203Z" fill="url(#paint15_linear_1073_58332)"/>
</g>
<g id="Group_7">
<path id="Vector_17" d="M13.543 8.83203C12.2695 8.83203 11.2383 9.86328 11.2383 11.1367V11.1445C11.2383 11.4062 11.5742 11.5195 11.7383 11.3164C12.1602 10.7852 12.8125 10.4453 13.543 10.4453C14.2734 10.4453 14.9258 10.7852 15.3477 11.3164C15.5117 11.5234 15.8477 11.4102 15.8477 11.1445C15.8477 11.1406 15.8477 11.1406 15.8477 11.1367C15.8477 9.86328 14.8164 8.83203 13.543 8.83203Z" fill="url(#paint16_linear_1073_58332)"/>
<path id="Vector_18" d="M13.543 8.83203C12.2695 8.83203 11.2383 9.86328 11.2383 11.1367V11.1445C11.2383 11.4062 11.5742 11.5195 11.7383 11.3164C12.1602 10.7852 12.8125 10.4453 13.543 10.4453C14.2734 10.4453 14.9258 10.7852 15.3477 11.3164C15.5117 11.5234 15.8477 11.4102 15.8477 11.1445C15.8477 11.1406 15.8477 11.1406 15.8477 11.1367C15.8477 9.86328 14.8164 8.83203 13.543 8.83203Z" fill="url(#paint17_linear_1073_58332)"/>
<path id="Vector_19" d="M13.543 8.83203C12.2695 8.83203 11.2383 9.86328 11.2383 11.1367V11.1445C11.2383 11.4062 11.5742 11.5195 11.7383 11.3164C12.1602 10.7852 12.8125 10.4453 13.543 10.4453C14.2734 10.4453 14.9258 10.7852 15.3477 11.3164C15.5117 11.5234 15.8477 11.4102 15.8477 11.1445C15.8477 11.1406 15.8477 11.1406 15.8477 11.1367C15.8477 9.86328 14.8164 8.83203 13.543 8.83203Z" fill="url(#paint18_linear_1073_58332)"/>
</g>
</g>
</g>
<path id="Vector_20" d="M11.8711 0.337529L11.1758 0.767216C10.457 1.20862 9.54688 1.20862 8.82812 0.767216L8.13281 0.337529C7.03906 -0.334346 5.60938 0.0289351 4.97266 1.14222L2.16406 6.04456L10 8.06409L17.8359 6.04456L15.0312 1.14612C14.3945 0.0328413 12.9609 -0.334346 11.8711 0.337529Z" fill="url(#paint19_linear_1073_58332)"/>
<path id="Vector_21" d="M11.8711 0.337529L11.1758 0.767216C10.457 1.20862 9.54688 1.20862 8.82812 0.767216L8.13281 0.337529C7.03906 -0.334346 5.60938 0.0289351 4.97266 1.14222L2.16406 6.04456L10 8.06409L17.8359 6.04456L15.0312 1.14612C14.3945 0.0328413 12.9609 -0.334346 11.8711 0.337529Z" fill="url(#paint20_linear_1073_58332)"/>
<path id="Vector_22" d="M11.8711 0.337529L11.1758 0.767216C10.457 1.20862 9.54688 1.20862 8.82812 0.767216L8.13281 0.337529C7.03906 -0.334346 5.60938 0.0289351 4.97266 1.14222L2.16406 6.04456L10 8.06409L17.8359 6.04456L15.0312 1.14612C14.3945 0.0328413 12.9609 -0.334346 11.8711 0.337529Z" fill="url(#paint21_linear_1073_58332)"/>
<path id="Vector_23" d="M11.8711 0.336481L11.1758 0.766169C10.457 1.20757 9.54688 1.20757 8.82813 0.766169L8.17969 0.367731V7.59429L10 8.06304L17.8359 6.04351L15.0313 1.14507C14.3945 0.0317935 12.9609 -0.335394 11.8711 0.336481Z" fill="url(#paint22_linear_1073_58332)"/>
<path id="Vector_24" d="M12.4219 0.660156C12.4219 0.472656 12.3945 0.289062 12.3398 0.117188C12.1797 0.171875 12.0195 0.242188 11.8711 0.335938L11.1758 0.765625C10.457 1.20703 9.54687 1.20703 8.82812 0.765625L8.13281 0.335938C7.98047 0.242188 7.82422 0.171875 7.66406 0.117188C7.60937 0.289062 7.58203 0.472656 7.58203 0.660156C7.58203 1.82422 8.66797 2.76562 10.0039 2.76562C11.3398 2.76562 12.4219 1.82422 12.4219 0.660156Z" fill="url(#paint23_linear_1073_58332)"/>
<g id="Group_8">
<path id="Vector_25" d="M19.375 6.61192C13.293 8.88926 6.70703 8.88926 0.625 6.61192C0.25 6.47129 0 6.11192 0 5.70957V5.69004C0 5.02989 0.652344 4.56895 1.27734 4.78379C6.96094 6.74864 13.043 6.74864 18.7266 4.78379C19.3516 4.56895 20.0039 5.02989 20.0039 5.69004V5.70957C20 6.11192 19.75 6.47129 19.375 6.61192Z" fill="url(#paint24_linear_1073_58332)"/>
<path id="Vector_26" d="M19.375 6.61192C13.293 8.88926 6.70703 8.88926 0.625 6.61192C0.25 6.47129 0 6.11192 0 5.70957V5.69004C0 5.02989 0.652344 4.56895 1.27734 4.78379C6.96094 6.74864 13.043 6.74864 18.7266 4.78379C19.3516 4.56895 20.0039 5.02989 20.0039 5.69004V5.70957C20 6.11192 19.75 6.47129 19.375 6.61192Z" fill="url(#paint25_linear_1073_58332)"/>
<path id="Vector_27" d="M18.7227 4.78379C17.1523 5.32676 15.5547 5.71739 13.9414 5.95957V8.02207C15.7773 7.74473 17.5977 7.27598 19.375 6.61192C19.75 6.47129 20 6.11192 20 5.70957V5.69004C20 5.02989 19.3477 4.56895 18.7227 4.78379Z" fill="url(#paint26_linear_1073_58332)"/>
</g>
</g>
<defs>
<linearGradient id="paint0_linear_1073_58332" x1="3.76395" y1="4.97488" x2="15.9954" y2="17.2063" gradientUnits="userSpaceOnUse">
<stop stop-color="#FEF48B"/>
<stop offset="0.1646" stop-color="#FDF286"/>
<stop offset="0.3352" stop-color="#FDEE7A"/>
<stop offset="0.5086" stop-color="#FCE765"/>
<stop offset="0.6839" stop-color="#FCDE48"/>
<stop offset="0.8589" stop-color="#FBD123"/>
<stop offset="1" stop-color="#FAC600"/>
</linearGradient>
<linearGradient id="paint1_linear_1073_58332" x1="9.77402" y1="13.5185" x2="9.07352" y2="20.3836" gradientUnits="userSpaceOnUse">
<stop stop-color="#FE9738" stop-opacity="0"/>
<stop offset="0.1207" stop-color="#FE9738" stop-opacity="0.016"/>
<stop offset="0.2459" stop-color="#FE9738" stop-opacity="0.065"/>
<stop offset="0.3731" stop-color="#FE9738" stop-opacity="0.147"/>
<stop offset="0.5018" stop-color="#FE9738" stop-opacity="0.262"/>
<stop offset="0.6317" stop-color="#FE9738" stop-opacity="0.41"/>
<stop offset="0.7625" stop-color="#FE9738" stop-opacity="0.59"/>
<stop offset="0.8916" stop-color="#FE9738" stop-opacity="0.8"/>
<stop offset="1" stop-color="#FE9738"/>
</linearGradient>
<linearGradient id="paint2_linear_1073_58332" x1="10.7884" y1="11.0978" x2="19.1013" y2="9.88352" gradientUnits="userSpaceOnUse">
<stop stop-color="#FE9738" stop-opacity="0"/>
<stop offset="0.1207" stop-color="#FE9738" stop-opacity="0.016"/>
<stop offset="0.2459" stop-color="#FE9738" stop-opacity="0.065"/>
<stop offset="0.3731" stop-color="#FE9738" stop-opacity="0.147"/>
<stop offset="0.5018" stop-color="#FE9738" stop-opacity="0.262"/>
<stop offset="0.6317" stop-color="#FE9738" stop-opacity="0.41"/>
<stop offset="0.7625" stop-color="#FE9738" stop-opacity="0.59"/>
<stop offset="0.8916" stop-color="#FE9738" stop-opacity="0.8"/>
<stop offset="1" stop-color="#FE9738"/>
</linearGradient>
<linearGradient id="paint3_linear_1073_58332" x1="14.4586" y1="15.6695" x2="16.7042" y2="17.9152" gradientUnits="userSpaceOnUse">
<stop stop-color="#FEF48B" stop-opacity="0"/>
<stop offset="0.1207" stop-color="#FEF38B" stop-opacity="0.016"/>
<stop offset="0.2459" stop-color="#FEF38D" stop-opacity="0.065"/>
<stop offset="0.3731" stop-color="#FEF390" stop-opacity="0.147"/>
<stop offset="0.5018" stop-color="#FEF294" stop-opacity="0.262"/>
<stop offset="0.6317" stop-color="#FEF299" stop-opacity="0.41"/>
<stop offset="0.7625" stop-color="#FEF19F" stop-opacity="0.59"/>
<stop offset="0.8916" stop-color="#FEF0A7" stop-opacity="0.8"/>
<stop offset="1" stop-color="#FEF0AE"/>
</linearGradient>
<linearGradient id="paint4_linear_1073_58332" x1="9.94684" y1="11.1347" x2="4.99648" y2="4.03609" gradientUnits="userSpaceOnUse">
<stop stop-color="#FEF48B" stop-opacity="0"/>
<stop offset="0.1205" stop-color="#FEF48B" stop-opacity="0.016"/>
<stop offset="0.2454" stop-color="#FEF48E" stop-opacity="0.065"/>
<stop offset="0.3724" stop-color="#FEF493" stop-opacity="0.147"/>
<stop offset="0.5008" stop-color="#FEF49A" stop-opacity="0.261"/>
<stop offset="0.6304" stop-color="#FEF4A3" stop-opacity="0.408"/>
<stop offset="0.761" stop-color="#FEF4AD" stop-opacity="0.588"/>
<stop offset="0.8898" stop-color="#FEF4BA" stop-opacity="0.797"/>
<stop offset="1" stop-color="#FFF5C6"/>
</linearGradient>
<linearGradient id="paint5_linear_1073_58332" x1="10" y1="9.83563" x2="10" y2="6.99406" gradientUnits="userSpaceOnUse">
<stop stop-color="#FE9738" stop-opacity="0"/>
<stop offset="0.1207" stop-color="#FE9738" stop-opacity="0.016"/>
<stop offset="0.2459" stop-color="#FE9738" stop-opacity="0.065"/>
<stop offset="0.3731" stop-color="#FE9738" stop-opacity="0.147"/>
<stop offset="0.5018" stop-color="#FE9738" stop-opacity="0.262"/>
<stop offset="0.6317" stop-color="#FE9738" stop-opacity="0.41"/>
<stop offset="0.7625" stop-color="#FE9738" stop-opacity="0.59"/>
<stop offset="0.8916" stop-color="#FE9738" stop-opacity="0.8"/>
<stop offset="1" stop-color="#FE9738"/>
</linearGradient>
<linearGradient id="paint6_linear_1073_58332" x1="9.88223" y1="13.5138" x2="11.4975" y2="18.6901" gradientUnits="userSpaceOnUse">
<stop stop-color="#CA2E43"/>
<stop offset="0.2024" stop-color="#C52E41"/>
<stop offset="0.412" stop-color="#B92E3D"/>
<stop offset="0.6251" stop-color="#A43037"/>
<stop offset="0.8391" stop-color="#87312E"/>
<stop offset="1" stop-color="#6D3326"/>
</linearGradient>
<linearGradient id="paint7_linear_1073_58332" x1="10" y1="17.1117" x2="10" y2="14.6751" gradientUnits="userSpaceOnUse">
<stop stop-color="#6D3326" stop-opacity="0"/>
<stop offset="0.2414" stop-color="#6A3124" stop-opacity="0.063"/>
<stop offset="0.4916" stop-color="#622E1F" stop-opacity="0.252"/>
<stop offset="0.7457" stop-color="#542816" stop-opacity="0.565"/>
<stop offset="1" stop-color="#42210B"/>
</linearGradient>
<linearGradient id="paint8_linear_1073_58332" x1="8.06281" y1="15.9943" x2="4.72207" y2="16.7286" gradientUnits="userSpaceOnUse">
<stop stop-color="#6D3326" stop-opacity="0"/>
<stop offset="0.2414" stop-color="#6A3124" stop-opacity="0.063"/>
<stop offset="0.4916" stop-color="#622E1F" stop-opacity="0.252"/>
<stop offset="0.7457" stop-color="#542816" stop-opacity="0.565"/>
<stop offset="1" stop-color="#42210B"/>
</linearGradient>
<linearGradient id="paint9_linear_1073_58332" x1="10" y1="12.8178" x2="10" y2="14.6665" gradientUnits="userSpaceOnUse">
<stop stop-color="#F5FBFF"/>
<stop offset="0.2414" stop-color="#F0F8FE"/>
<stop offset="0.4916" stop-color="#E4F2FE"/>
<stop offset="0.7457" stop-color="#CFE8FE"/>
<stop offset="1" stop-color="#B3DAFE"/>
</linearGradient>
<linearGradient id="paint10_linear_1073_58332" x1="10" y1="13.9803" x2="10" y2="14.9107" gradientUnits="userSpaceOnUse">
<stop stop-color="#8AC9FE" stop-opacity="0"/>
<stop offset="0.1291" stop-color="#89C8FD" stop-opacity="0.019"/>
<stop offset="0.2629" stop-color="#88C6FB" stop-opacity="0.075"/>
<stop offset="0.3989" stop-color="#87C4F8" stop-opacity="0.168"/>
<stop offset="0.5365" stop-color="#85C0F4" stop-opacity="0.298"/>
<stop offset="0.6753" stop-color="#83BBEF" stop-opacity="0.466"/>
<stop offset="0.8151" stop-color="#7FB5E9" stop-opacity="0.672"/>
<stop offset="0.9532" stop-color="#7CAEE1" stop-opacity="0.911"/>
<stop offset="1" stop-color="#7BACDF"/>
</linearGradient>
<linearGradient id="paint11_linear_1073_58332" x1="10" y1="13.5887" x2="10" y2="12.3123" gradientUnits="userSpaceOnUse">
<stop stop-color="#8AC9FE" stop-opacity="0"/>
<stop offset="0.1291" stop-color="#89C8FD" stop-opacity="0.019"/>
<stop offset="0.2629" stop-color="#88C6FB" stop-opacity="0.075"/>
<stop offset="0.3989" stop-color="#87C4F8" stop-opacity="0.168"/>
<stop offset="0.5365" stop-color="#85C0F4" stop-opacity="0.298"/>
<stop offset="0.6753" stop-color="#83BBEF" stop-opacity="0.466"/>
<stop offset="0.8151" stop-color="#7FB5E9" stop-opacity="0.672"/>
<stop offset="0.9532" stop-color="#7CAEE1" stop-opacity="0.911"/>
<stop offset="1" stop-color="#7BACDF"/>
</linearGradient>
<linearGradient id="paint12_linear_1073_58332" x1="5.7202" y1="13.5613" x2="4.25172" y2="13.4389" gradientUnits="userSpaceOnUse">
<stop stop-color="#8AC9FE" stop-opacity="0"/>
<stop offset="0.1291" stop-color="#89C8FD" stop-opacity="0.019"/>
<stop offset="0.2629" stop-color="#88C6FB" stop-opacity="0.075"/>
<stop offset="0.3989" stop-color="#87C4F8" stop-opacity="0.168"/>
<stop offset="0.5365" stop-color="#85C0F4" stop-opacity="0.298"/>
<stop offset="0.6753" stop-color="#83BBEF" stop-opacity="0.466"/>
<stop offset="0.8151" stop-color="#7FB5E9" stop-opacity="0.672"/>
<stop offset="0.9532" stop-color="#7CAEE1" stop-opacity="0.911"/>
<stop offset="1" stop-color="#7BACDF"/>
</linearGradient>
<linearGradient id="paint13_linear_1073_58332" x1="6.45758" y1="8.41656" x2="6.45758" y2="11.0995" gradientUnits="userSpaceOnUse">
<stop stop-color="#766E6E"/>
<stop offset="0.2493" stop-color="#716B6B"/>
<stop offset="0.5076" stop-color="#656464"/>
<stop offset="0.769" stop-color="#505757"/>
<stop offset="1" stop-color="#384949"/>
</linearGradient>
<linearGradient id="paint14_linear_1073_58332" x1="6.45758" y1="12.0022" x2="6.45758" y2="8.70586" gradientUnits="userSpaceOnUse">
<stop stop-color="#464646" stop-opacity="0"/>
<stop offset="0.6727" stop-color="#252529" stop-opacity="0.463"/>
<stop offset="1" stop-color="#000009"/>
</linearGradient>
<linearGradient id="paint15_linear_1073_58332" x1="7.02742" y1="11.4079" x2="4.98855" y2="9.08785" gradientUnits="userSpaceOnUse">
<stop stop-color="#464646" stop-opacity="0"/>
<stop offset="0.6727" stop-color="#252529" stop-opacity="0.463"/>
<stop offset="1" stop-color="#000009"/>
</linearGradient>
<linearGradient id="paint16_linear_1073_58332" x1="13.5424" y1="8.41656" x2="13.5424" y2="11.0995" gradientUnits="userSpaceOnUse">
<stop stop-color="#766E6E"/>
<stop offset="0.2493" stop-color="#716B6B"/>
<stop offset="0.5076" stop-color="#656464"/>
<stop offset="0.769" stop-color="#505757"/>
<stop offset="1" stop-color="#384949"/>
</linearGradient>
<linearGradient id="paint17_linear_1073_58332" x1="13.5424" y1="12.0022" x2="13.5424" y2="8.70586" gradientUnits="userSpaceOnUse">
<stop stop-color="#464646" stop-opacity="0"/>
<stop offset="0.6727" stop-color="#252529" stop-opacity="0.463"/>
<stop offset="1" stop-color="#000009"/>
</linearGradient>
<linearGradient id="paint18_linear_1073_58332" x1="14.1122" y1="11.4079" x2="12.0734" y2="9.08785" gradientUnits="userSpaceOnUse">
<stop stop-color="#464646" stop-opacity="0"/>
<stop offset="0.6727" stop-color="#252529" stop-opacity="0.463"/>
<stop offset="1" stop-color="#000009"/>
</linearGradient>
<linearGradient id="paint19_linear_1073_58332" x1="2.83145" y1="4.03222" x2="17.2575" y2="4.03222" gradientUnits="userSpaceOnUse">
<stop stop-color="#F89580"/>
<stop offset="0.1839" stop-color="#F3917C"/>
<stop offset="0.3745" stop-color="#E78873"/>
<stop offset="0.5682" stop-color="#D27864"/>
<stop offset="0.764" stop-color="#B5624F"/>
<stop offset="0.9596" stop-color="#904534"/>
<stop offset="1" stop-color="#883F2E"/>
</linearGradient>
<linearGradient id="paint20_linear_1073_58332" x1="10.2763" y1="3.43421" x2="9.90039" y2="6.98464" gradientUnits="userSpaceOnUse">
<stop stop-color="#6D3326" stop-opacity="0"/>
<stop offset="0.1865" stop-color="#6D3326" stop-opacity="0.038"/>
<stop offset="0.3798" stop-color="#6D3326" stop-opacity="0.152"/>
<stop offset="0.5761" stop-color="#6D3326" stop-opacity="0.343"/>
<stop offset="0.7747" stop-color="#6D3326" stop-opacity="0.609"/>
<stop offset="0.9732" stop-color="#6D3326" stop-opacity="0.949"/>
<stop offset="1" stop-color="#6D3326"/>
</linearGradient>
<linearGradient id="paint21_linear_1073_58332" x1="9.3216" y1="2.71097" x2="10.2823" y2="7.43093" gradientUnits="userSpaceOnUse">
<stop stop-color="#6D3326" stop-opacity="0"/>
<stop offset="0.1865" stop-color="#6D3326" stop-opacity="0.038"/>
<stop offset="0.3798" stop-color="#6D3326" stop-opacity="0.152"/>
<stop offset="0.5761" stop-color="#6D3326" stop-opacity="0.343"/>
<stop offset="0.7747" stop-color="#6D3326" stop-opacity="0.609"/>
<stop offset="0.9732" stop-color="#6D3326" stop-opacity="0.949"/>
<stop offset="1" stop-color="#6D3326"/>
</linearGradient>
<linearGradient id="paint22_linear_1073_58332" x1="10.3784" y1="3.97218" x2="16.3932" y2="2.21785" gradientUnits="userSpaceOnUse">
<stop stop-color="#6D3326" stop-opacity="0"/>
<stop offset="0.1865" stop-color="#6D3326" stop-opacity="0.038"/>
<stop offset="0.3798" stop-color="#6D3326" stop-opacity="0.152"/>
<stop offset="0.5761" stop-color="#6D3326" stop-opacity="0.343"/>
<stop offset="0.7747" stop-color="#6D3326" stop-opacity="0.609"/>
<stop offset="0.9732" stop-color="#6D3326" stop-opacity="0.949"/>
<stop offset="1" stop-color="#6D3326"/>
</linearGradient>
<linearGradient id="paint23_linear_1073_58332" x1="9.995" y1="0.651836" x2="10.8675" y2="3.02805" gradientUnits="userSpaceOnUse">
<stop stop-color="#6D3326" stop-opacity="0"/>
<stop offset="0.1865" stop-color="#6D3326" stop-opacity="0.038"/>
<stop offset="0.3798" stop-color="#6D3326" stop-opacity="0.152"/>
<stop offset="0.5761" stop-color="#6D3326" stop-opacity="0.343"/>
<stop offset="0.7747" stop-color="#6D3326" stop-opacity="0.609"/>
<stop offset="0.9732" stop-color="#6D3326" stop-opacity="0.949"/>
<stop offset="1" stop-color="#6D3326"/>
</linearGradient>
<linearGradient id="paint24_linear_1073_58332" x1="10" y1="4.97301" x2="10" y2="8.31696" gradientUnits="userSpaceOnUse">
<stop stop-color="#F89580"/>
<stop offset="0.1839" stop-color="#F3917C"/>
<stop offset="0.3745" stop-color="#E78873"/>
<stop offset="0.5682" stop-color="#D27864"/>
<stop offset="0.764" stop-color="#B5624F"/>
<stop offset="0.9596" stop-color="#904534"/>
<stop offset="1" stop-color="#883F2E"/>
</linearGradient>
<linearGradient id="paint25_linear_1073_58332" x1="10.5341" y1="7.45575" x2="11.1189" y2="9.37715" gradientUnits="userSpaceOnUse">
<stop stop-color="#6D3326" stop-opacity="0"/>
<stop offset="0.1865" stop-color="#6D3326" stop-opacity="0.038"/>
<stop offset="0.3798" stop-color="#6D3326" stop-opacity="0.152"/>
<stop offset="0.5761" stop-color="#6D3326" stop-opacity="0.343"/>
<stop offset="0.7747" stop-color="#6D3326" stop-opacity="0.609"/>
<stop offset="0.9732" stop-color="#6D3326" stop-opacity="0.949"/>
<stop offset="1" stop-color="#6D3326"/>
</linearGradient>
<linearGradient id="paint26_linear_1073_58332" x1="17.5025" y1="6.60438" x2="19.9669" y2="7.18918" gradientUnits="userSpaceOnUse">
<stop stop-color="#6D3326" stop-opacity="0"/>
<stop offset="0.1865" stop-color="#6D3326" stop-opacity="0.038"/>
<stop offset="0.3798" stop-color="#6D3326" stop-opacity="0.152"/>
<stop offset="0.5761" stop-color="#6D3326" stop-opacity="0.343"/>
<stop offset="0.7747" stop-color="#6D3326" stop-opacity="0.609"/>
<stop offset="0.9732" stop-color="#6D3326" stop-opacity="0.949"/>
<stop offset="1" stop-color="#6D3326"/>
</linearGradient>
</defs>
</svg>
