<svg width="62" height="38" viewBox="0 0 62 38" fill="none" xmlns="http://www.w3.org/2000/svg">
<g id="Group">
<g id="Group_2">
<path id="Vector" d="M30.7439 36.7376L49.5944 23.0505L42.405 0.914062H19.1074L11.918 23.0505L30.7439 36.7376Z" fill="#54101A"/>
<path id="Vector_2" d="M43.0732 0H18.4415L10.832 23.4212L30.745 37.8988L50.6579 23.4212L43.0732 0ZM14.785 22.1365L20.8873 3.36H40.6521L46.7544 22.1365L30.7697 33.7482L14.785 22.1365Z" fill="url(#paint0_radial_1028_46473)"/>
<path id="Vector_3" opacity="0.3" d="M20.8867 3.33594L30.7444 33.7489L40.6267 3.33594H20.8867Z" fill="#8C1919"/>
<path id="Vector_4" d="M43.0734 0H18.4416L16.6875 5.41059C17.7746 5.46 18.911 5.60823 20.0722 5.83059L20.8875 3.36H40.6522L46.7545 22.1365L44.4322 23.8165C44.951 24.8294 45.4204 25.8671 45.8157 26.9541L50.6828 23.4212L43.0734 0Z" fill="url(#paint1_radial_1028_46473)"/>
<path id="Vector_5" d="M43.0734 0H18.4416L16.6875 5.41059C17.7746 5.46 18.911 5.60823 20.0722 5.83059L20.8875 3.36H40.6522L46.7545 22.1365L44.4322 23.8165C44.951 24.8294 45.4204 25.8671 45.8157 26.9541L50.6828 23.4212L43.0734 0Z" fill="url(#paint2_linear_1028_46473)"/>
<path id="Vector_6" d="M41.7144 29.9176C41.5909 28.6082 41.3932 27.3729 41.1462 26.187L30.7697 33.7223L14.785 22.1105L19.1579 8.62109C17.9226 8.6458 16.6873 8.79404 15.5014 9.04109L10.832 23.3952L30.745 37.8729L41.7144 29.9176Z" fill="url(#paint3_linear_1028_46473)"/>
<path id="Vector_7" d="M14.7852 22.1371L16.3663 21.7665L21.8511 4.843H39.664L45.1487 21.7665L46.7299 22.1371L40.6275 3.33594H20.8875L14.7852 22.1371Z" fill="#9B1B2E"/>
<path id="Vector_8" opacity="0.2" d="M16.3652 21.7673L19.4535 13.8614C21.2817 9.19198 25.7782 7.1661 30.7935 7.1661C35.8335 7.1661 40.3547 9.21669 42.1582 13.9355L45.1723 21.7673L39.6629 4.84375H21.85L16.3652 21.7673Z" fill="#2753A0"/>
<path id="Vector_9" d="M14.7852 22.1362L16.3663 21.7656L30.7452 32.2409L45.1487 21.7656L46.7299 22.1362L30.7452 33.748L14.7852 22.1362Z" fill="url(#paint4_linear_1028_46473)"/>
<path id="Vector_10" opacity="0.6" d="M16.3652 21.7646L22.0229 7.26229C22.2947 6.57052 22.9617 6.10111 23.7276 6.10111H37.9335C38.6994 6.10111 39.3664 6.57052 39.6382 7.26229L45.197 21.7399L39.6876 4.81641H21.8747L16.3652 21.7646Z" fill="#2753A0"/>
<path id="Vector_11" d="M20.8867 3.33594L21.8503 4.843H39.6632L40.6267 3.33594H20.8867Z" fill="#661625"/>
<path id="Vector_12" opacity="0.35" d="M13.5751 15.0195L11.6727 22.1595C11.5245 22.7772 11.8209 23.5925 12.315 23.9631L30.7704 37.8725L10.8574 23.3948L13.5751 15.0195Z" fill="#9E2C19"/>
<path id="Vector_13" opacity="0.6" d="M16.3652 21.7656L30.1017 31.0303C30.4723 31.2774 31.0652 31.2774 31.4358 31.0303L45.1723 21.7656L30.7688 32.2409L16.3652 21.7656Z" fill="#2753A0"/>
<path id="Vector_14" opacity="0.35" d="M30.7441 37.8749L48.4829 24.1631C49.7182 23.249 49.99 23.0514 49.4218 21.2725L45.7159 8.20312L50.6571 23.3972L30.7441 37.8749Z" fill="#9E2C19"/>
<path id="Vector_15" d="M21.9492 27.3498L30.7445 33.7486L42.6528 25.1016L30.7445 34.2922L21.9492 27.3498Z" fill="#F3FEFF"/>
<path id="Vector_16" d="M30.0781 0H43.0734L45.7417 8.22706L42.5793 0.444705L30.0781 0Z" fill="#F3FEFF"/>
<path id="Vector_17" d="M35.2655 0C35.1667 1.06235 35.6114 2.27294 36.5255 3.36H40.6514L41.6643 6.49765C42.949 6.81882 44.1843 6.81882 45.1973 6.54706L43.0725 0H35.2655Z" fill="white"/>
<path id="Vector_18" d="M20.8878 26.5586C20.5666 27.3492 21.1349 28.5598 22.2713 29.3751C23.4078 30.1904 24.7172 30.3633 25.3843 29.8198L20.8878 26.5586Z" fill="white"/>
<path id="Vector_19" d="M25.4078 32.0174C25.2102 32.3138 24.6914 32.3138 24.222 31.9926C23.7526 31.6962 23.5549 31.2268 23.7279 30.9303C23.9255 30.6338 24.4443 30.6338 24.9137 30.955C25.3831 31.2515 25.6055 31.7209 25.4078 32.0174Z" fill="white"/>
<path id="Vector_20" d="M16.5143 0.147069L15.7484 6.37295C13.9696 6.37295 12.4625 6.34824 9.79428 6.34824C0.307218 6.34824 0.257812 0.0976562 0.257812 0.0976562L16.5143 0.147069Z" fill="#661625"/>
<path id="Vector_21" d="M16.5143 0.147069L14.9084 5.01413C13.1296 5.01413 12.8331 4.98942 10.1402 4.98942C0.653106 4.98942 0.257812 0.0976562 0.257812 0.0976562L16.5143 0.147069Z" fill="url(#paint5_radial_1028_46473)"/>
<path id="Vector_22" d="M14.0929 7.56113L13.3517 13.787C11.5729 13.787 13.747 13.787 11.054 13.787C1.56698 13.787 1.51758 7.51172 1.51758 7.51172L14.0929 7.56113Z" fill="#661625"/>
<path id="Vector_23" d="M14.0929 7.55986L12.5117 12.4516C10.7329 12.4516 14.0929 12.4269 11.4246 12.4269C1.93757 12.4269 1.51758 7.53516 1.51758 7.53516L14.0929 7.55986Z" fill="url(#paint6_radial_1028_46473)"/>
<path id="Vector_24" d="M11.6972 14.9466L5.00195 14.9219C5.00195 14.9219 6.0396 19.616 10.9314 21.1972L11.6972 14.9466Z" fill="#661625"/>
<path id="Vector_25" d="M11.6972 14.9466L5.00195 14.9219C5.00195 14.9219 5.19959 18.2572 10.0914 19.8383L11.6972 14.9466Z" fill="url(#paint7_radial_1028_46473)"/>
<path id="Vector_26" d="M16.5141 0.148438L17.3047 1.70491L15.7482 6.39902L14.9082 5.0155L16.5141 0.148438Z" fill="#9B1B2E"/>
<path id="Vector_27" d="M14.0929 7.55859L14.9082 9.09036L13.3517 13.7845L12.5117 12.4257L14.0929 7.55859Z" fill="#9B1B2E"/>
<path id="Vector_28" d="M11.6964 14.9453L12.487 16.4771L10.9552 21.1959L10.1152 19.8371L11.6964 14.9453Z" fill="#9B1B2E"/>
<path id="Vector_29" d="M45.0254 0.147069L45.7913 6.37295C47.5701 6.37295 49.0772 6.34824 51.7454 6.34824C61.2325 6.34824 61.2819 0.0976562 61.2819 0.0976562L45.0254 0.147069Z" fill="#661625"/>
<path id="Vector_30" d="M45.0254 0.147069L46.6313 5.01413C48.4101 5.01413 48.7066 4.98942 51.3995 4.98942C60.8866 4.98942 61.2819 0.0976562 61.2819 0.0976562L45.0254 0.147069Z" fill="url(#paint8_radial_1028_46473)"/>
<path id="Vector_31" d="M47.4219 7.56113L48.1631 13.787C49.9419 13.787 47.7677 13.787 50.4607 13.787C59.9477 13.787 59.9971 7.51172 59.9971 7.51172L47.4219 7.56113Z" fill="#661625"/>
<path id="Vector_32" d="M47.4219 7.55986L49.003 12.4516C50.7819 12.4516 47.4219 12.4269 50.0901 12.4269C59.5772 12.4269 59.9971 7.53516 59.9971 7.53516L47.4219 7.55986Z" fill="url(#paint9_radial_1028_46473)"/>
<path id="Vector_33" d="M49.8184 14.9466L56.5136 14.9219C56.5136 14.9219 55.476 19.616 50.5842 21.1972L49.8184 14.9466Z" fill="#661625"/>
<path id="Vector_34" d="M49.8184 14.9466L56.5136 14.9219C56.5136 14.9219 56.316 18.2572 51.4242 19.8383L49.8184 14.9466Z" fill="url(#paint10_radial_1028_46473)"/>
<path id="Vector_35" d="M45.0254 0.147069L46.6313 5.01413C48.4101 5.01413 48.7066 4.98942 51.3995 4.98942C60.8866 4.98942 61.2819 0.0976562 61.2819 0.0976562L45.0254 0.147069Z" fill="url(#paint11_linear_1028_46473)"/>
<path id="Vector_36" d="M47.4219 7.55986L49.003 12.4516C50.7819 12.4516 47.4219 12.4269 50.0901 12.4269C59.5772 12.4269 59.9971 7.53516 59.9971 7.53516L47.4219 7.55986Z" fill="url(#paint12_linear_1028_46473)"/>
<path id="Vector_37" d="M49.8184 14.9466L56.5136 14.9219C56.5136 14.9219 56.316 18.2572 51.4242 19.8383L49.8184 14.9466Z" fill="url(#paint13_linear_1028_46473)"/>
<path id="Vector_38" d="M45.0243 0.148438L44.209 1.70491L45.7654 6.39902L46.6054 5.0155L45.0243 0.148438Z" fill="#9B1B2E"/>
<path id="Vector_39" d="M47.4208 7.55859L46.6055 9.09036L48.162 13.7845L49.0019 12.4257L47.4208 7.55859Z" fill="#9B1B2E"/>
<path id="Vector_40" d="M49.8179 14.9453L49.0273 16.4771L50.5591 21.1959L51.3991 19.8371L49.8179 14.9453Z" fill="#9B1B2E"/>
<path id="Vector_41" d="M16.5143 0.149706L0.257812 0.125C0.257812 0.125 0.653106 5.01676 10.1402 5.01676C12.8084 5.01676 13.1049 5.01676 14.9084 5.04147L16.5143 0.149706Z" fill="url(#paint14_linear_1028_46473)"/>
<path id="Vector_42" d="M11.6972 14.9466L5.00195 14.9219C5.00195 14.9219 5.19959 18.2572 10.0914 19.8383L11.6972 14.9466Z" fill="url(#paint15_linear_1028_46473)"/>
<path id="Vector_43" d="M12.5118 12.4284L13.4506 9.5625C12.1906 9.9825 10.9801 10.526 9.86829 11.1931C9.39888 11.4649 8.88005 11.8107 8.28711 12.206C9.20123 12.3296 10.2389 12.4037 11.4247 12.4037C14.093 12.4284 10.733 12.4284 12.5118 12.4284Z" fill="url(#paint16_linear_1028_46473)"/>
<path id="Vector_44" opacity="0.35" d="M14.0195 13.6376L18.1701 1.7047C18.5901 0.494116 18.9113 0.172941 20.196 0.123529L30.7454 0H18.4419L14.0195 13.6376Z" fill="#9E2C19"/>
<path id="Vector_45" d="M34.4752 1.85132C33.6105 1.23368 32.5728 1.18426 32.1528 1.7525C31.8564 2.1725 31.9552 2.79015 32.3505 3.33368H35.4387C35.3893 2.83956 35.0434 2.27132 34.4752 1.85132Z" fill="white"/>
<path id="Vector_46" opacity="0.35" fill-rule="evenodd" clip-rule="evenodd" d="M48.6812 4.64491C47.5941 4.54608 46.8529 4.15079 46.3588 3.18726L45 0.148438L46.6059 5.0155C48.3847 5.0155 48.6812 4.99079 51.3741 4.99079C52.8812 4.99079 54.1659 4.86726 55.2529 4.66961C52.9059 4.96608 50.4847 4.84255 48.6812 4.64491Z" fill="#9E2C19"/>
<path id="Vector_47" opacity="0.35" fill-rule="evenodd" clip-rule="evenodd" d="M50.0894 12.4257C52.3871 12.4257 54.1412 12.1539 55.5 11.7092C53.5483 12.2527 51.9177 12.2033 50.6577 12.1292C49.793 12.0798 49.1012 11.4374 48.7306 10.6715L47.3965 7.55859L48.9777 12.4504C50.7812 12.4257 47.4212 12.4257 50.0894 12.4257Z" fill="#9E2C19"/>
<path id="Vector_48" opacity="0.35" fill-rule="evenodd" clip-rule="evenodd" d="M51.3995 19.8397C52.4619 19.4938 53.3019 19.0738 53.969 18.6291C53.1784 18.9256 51.696 19.148 51.696 19.148L49.8184 14.9727L51.3995 19.8397Z" fill="#9E2C19"/>
<path id="Vector_49" opacity="0.35" d="M10.1402 5.01559C12.8084 5.01559 13.1049 5.01559 14.9084 5.04029L16.1684 1.18618L15.2296 3.28618C14.7849 4.39794 14.5131 4.76853 13.4013 4.76853C12.2154 4.76853 9.96722 4.74382 8.80604 4.71912C3.81545 4.52147 0.900165 2.37206 0.257812 0.148531C0.257812 0.123825 0.653106 5.01559 10.1402 5.01559Z" fill="#9E2C19"/>
<path id="Vector_50" opacity="0.35" d="M12.7349 10.9952C12.4384 11.6375 12.1172 12.1564 11.4007 12.1317C10.6843 12.107 8.63366 12.0823 7.49719 11.8352C4.80425 11.2175 3.19839 10.2293 2.11133 8.99402C3.02545 10.427 5.39719 12.4281 11.4501 12.4281C14.1184 12.4281 10.7584 12.4281 12.5372 12.4528L13.8466 8.42578L12.7349 10.9952Z" fill="#9E2C19"/>
<path id="Vector_51" opacity="0.35" d="M10.1144 19.8372L11.4979 15.5878C11.2261 16.1313 10.732 17.3913 10.1885 18.5525C9.84259 19.3431 9.49671 19.2443 8.95318 19.0219C6.23554 17.8854 5.59318 16.5266 5.02494 14.9454C5.00024 14.9207 5.22261 18.256 10.1144 19.8372Z" fill="#9E2C19"/>
<path id="Vector_52" d="M45.0254 0.147069L59.8736 0.394128C60.4666 0.394128 60.7383 0.86354 60.4913 1.38236C60.2195 1.9506 59.7995 2.61766 59.083 3.18589C61.1336 1.80236 61.2819 0.0976562 61.2819 0.0976562L45.0254 0.147069Z" fill="#F3FEFF"/>
<path id="Vector_53" d="M47.4219 7.56113L58.3913 7.80819C59.676 7.8329 59.4536 8.37643 59.1324 9.04348C58.9348 9.46348 58.6383 9.90819 58.2677 10.2788C59.8983 8.96937 60.0219 7.51172 60.0219 7.51172L47.4219 7.56113Z" fill="#F3FEFF"/>
<path id="Vector_54" d="M55.3525 17.3678C56.4395 16.0831 56.4889 14.9219 56.4889 14.9219L49.8184 14.9466L55.3278 15.1689C56.1431 15.2183 55.9948 15.5148 55.896 15.9101C55.7972 16.4042 55.6242 16.9231 55.3525 17.3678Z" fill="#F3FEFF"/>
<path id="Vector_55" opacity="0.5" d="M4.58203 0.125L16.515 0.149706L16.1197 1.36029C16.1197 0.742647 15.8232 0.42147 15.1067 0.42147L4.58203 0.125Z" fill="#F3FAFF"/>
<path id="Vector_56" opacity="0.5" d="M4.58203 7.55859H14.0938L13.6491 8.91742L13.6985 8.47271C13.7232 8.05271 13.575 7.83036 12.8091 7.78095L4.58203 7.55859Z" fill="#F3FAFF"/>
<path id="Vector_57" opacity="0.5" d="M6.31055 14.9219L11.6964 14.9466L11.2764 16.2066L11.2517 15.6136C11.227 15.2925 11.1529 15.1689 10.7082 15.1442L6.31055 14.9219Z" fill="#F3FAFF"/>
<path id="Vector_58" opacity="0.6" d="M27.952 18.627L29.4591 16.0082V14.7729L26.4449 16.0082L24.9379 13.4141L23.4308 16.0082L20.4414 14.7729V16.0082L21.9238 18.627L20.4414 19.9858V21.2211H23.4308L24.9379 23.8399L26.4449 21.2211H29.4591V19.9858L27.952 18.627Z" fill="#2753A0"/>
<path id="Vector_59" d="M27.952 17.3692L29.4591 14.7751V13.7868L26.4449 14.7751L24.9379 12.1562L23.4308 14.7751L20.4414 13.7868V14.7751L21.9238 17.3692L20.4414 18.9998V19.988H23.4308L24.9379 22.5821L26.4449 19.988H29.4591V18.9998L27.952 17.3692Z" fill="#9B1B2E"/>
<path id="Vector_60" d="M27.952 16.4043L29.4591 13.7855H26.4449L24.9379 11.1914L23.4308 13.7855H20.4414L21.9238 16.4043L20.4414 18.9985H23.4308L24.9379 21.6173L26.4449 18.9985H29.4591L27.952 16.4043Z" fill="url(#paint17_radial_1028_46473)"/>
<path id="Vector_61" d="M27.952 16.4043L29.4591 13.7855H26.4449L24.9379 11.1914L23.4308 13.7855H20.4414L21.9238 16.4043L20.4414 18.9985H23.4308L24.9379 21.6173L26.4449 18.9985H29.4591L27.952 16.4043Z" fill="url(#paint18_linear_1028_46473)"/>
<path id="Vector_62" d="M29.4594 19H26.4453V19.9635H29.4594V19Z" fill="#661625"/>
<path id="Vector_63" d="M23.4308 19.9882L24.9379 22.5824V21.6188L23.4308 19H20.4414V19.9882H23.4308Z" fill="#661625"/>
<path id="Vector_64" d="M20.4414 13.7852L21.9238 16.404L21.652 16.8981L20.4414 14.7734V13.7852Z" fill="#661625"/>
<path id="Vector_65" opacity="0.35" d="M20.4414 13.7852L22.492 16.404L20.4414 18.9981L21.9238 16.404L20.4414 13.7852Z" fill="#9E2C19"/>
<path id="Vector_66" opacity="0.8" d="M24.9395 11.1914L26.3971 14.0573L29.4606 13.7855H26.4465L24.9395 11.1914Z" fill="#F3FAFF"/>
<path id="Vector_67" opacity="0.5" d="M20.4414 18.9983L23.7273 18.7266L24.9379 21.6172L23.4308 18.9983H20.4414Z" fill="#F3FAFF"/>
<path id="Vector_68" opacity="0.35" d="M24.9395 21.618L26.2488 18.4062L29.4606 18.9992H26.4465L24.9395 21.618Z" fill="#9E2C19"/>
<path id="Vector_69" opacity="0.5" d="M27.9034 16.3056C27.5328 16.948 26.4457 16.9974 25.4575 16.4538C24.4692 15.8856 23.9751 14.9221 24.3457 14.2797C24.7163 13.6374 25.8034 13.588 26.7916 14.1315C27.7798 14.675 28.2739 15.6633 27.9034 16.3056Z" fill="#FCE265"/>
<path id="Vector_70" opacity="0.5" d="M24.3696 16.6785C24.2461 16.8761 23.8508 16.8761 23.5049 16.6785C23.1343 16.4808 22.9367 16.1349 23.0602 15.9373C23.1837 15.7397 23.579 15.7397 23.9249 15.9373C24.2708 16.1349 24.4932 16.4808 24.3696 16.6785Z" fill="#FCE265"/>
<path id="Vector_71" opacity="0.6" d="M39.465 18.627L40.972 16.0082V14.7729L37.9579 16.0082L36.4509 13.4141L34.9438 16.0082L31.9297 14.7729V16.0082L33.4367 18.627L31.9297 19.9858V21.2211H34.9438L36.4509 23.8399L37.9579 21.2211H40.972V19.9858L39.465 18.627Z" fill="#2753A0"/>
<path id="Vector_72" d="M39.465 17.3692L40.972 14.7751V13.7868L37.9579 14.7751L36.4509 12.1562L34.9438 14.7751L31.9297 13.7868V14.7751L33.4367 17.3692L31.9297 18.9998V19.988H34.9438L36.4509 22.5821L37.9579 19.988H40.972V18.9998L39.465 17.3692Z" fill="#9B1B2E"/>
<path id="Vector_73" d="M39.465 16.4043L40.972 13.7855H37.9579L36.4509 11.1914L34.9438 13.7855H31.9297L33.4367 16.4043L31.9297 18.9985H34.9438L36.4509 21.6173L37.9579 18.9985H40.972L39.465 16.4043Z" fill="url(#paint19_radial_1028_46473)"/>
<path id="Vector_74" d="M33.9803 13.7852H31.9297L33.4367 16.404L31.9297 19.0228H34.9438L36.4509 21.6416L37.9579 19.0228H38.4026C37.1674 16.9722 35.6603 15.2181 33.9803 13.7852Z" fill="url(#paint20_linear_1028_46473)"/>
<path id="Vector_75" d="M37.9589 13.7868L36.4518 11.168L35.4883 12.848C36.9953 14.0586 38.4283 15.368 39.7377 16.8256L39.4906 16.3809L40.9977 13.7621H37.9589V13.7868Z" fill="url(#paint21_linear_1028_46473)"/>
<path id="Vector_76" d="M40.9731 19H37.959V19.9635H40.9731V19Z" fill="#661625"/>
<path id="Vector_77" d="M34.9438 19.9882L36.4509 22.5824V21.6188L34.9438 19H31.9297V19.9882H34.9438Z" fill="#661625"/>
<path id="Vector_78" d="M31.9297 13.7852L33.4367 16.404L33.165 16.8981L31.9297 14.7734V13.7852Z" fill="#661625"/>
<path id="Vector_79" opacity="0.35" d="M31.9297 13.7852L34.005 16.404L31.9297 18.9981L33.4367 16.404L31.9297 13.7852Z" fill="#9E2C19"/>
<path id="Vector_80" opacity="0.8" d="M36.4512 11.1914L37.9088 14.0573L40.9723 13.7855H37.9582L36.4512 11.1914Z" fill="#F3FAFF"/>
<path id="Vector_81" opacity="0.5" d="M31.9297 18.9983L35.2403 18.7266L36.4509 21.6172L34.9438 18.9983H31.9297Z" fill="#F3FAFF"/>
<path id="Vector_82" opacity="0.35" d="M36.4512 21.618L37.7606 18.4062L40.9723 18.9992H37.9582L36.4512 21.618Z" fill="#9E2C19"/>
<path id="Vector_83" opacity="0.5" d="M36.6494 18.7756C36.4023 19.2203 35.6612 19.245 34.9941 18.8744C34.327 18.4791 34.0059 17.8368 34.2529 17.3921C34.5 16.9474 35.2412 16.9226 35.9082 17.2932C36.5753 17.6638 36.8964 18.3309 36.6494 18.7756Z" fill="#FCE265"/>
<path id="Vector_84" d="M46.6066 5.01676C47.8666 5.01676 48.3854 5.01676 49.5466 4.99206C51.2266 3.92971 52.3383 2.37323 52.5113 0.544999C52.5113 0.396764 52.536 0.248529 52.536 0.125L45.0254 0.149706L46.6066 5.01676Z" fill="white"/>
</g>
<path id="Vector_85" d="M1.51758 7.53516C1.51758 7.53516 1.59169 8.32574 2.28345 9.28927C3.3211 8.69633 4.48229 8.10339 5.69288 7.55986L1.51758 7.53516Z" fill="url(#paint22_linear_1028_46473)"/>
</g>
<defs>
<radialGradient id="paint0_radial_1028_46473" cx="0" cy="0" r="1" gradientUnits="userSpaceOnUse" gradientTransform="translate(41.4012 1.25565) scale(31.6024 31.6024)">
<stop offset="0.0139665" stop-color="#E85621"/>
<stop offset="1" stop-color="#E33A0B"/>
</radialGradient>
<radialGradient id="paint1_radial_1028_46473" cx="0" cy="0" r="1" gradientUnits="userSpaceOnUse" gradientTransform="translate(47.1509 -3.04661) scale(43.7201 43.7201)">
<stop offset="0.0139665" stop-color="#E85621"/>
<stop offset="1" stop-color="#E33A0B"/>
</radialGradient>
<linearGradient id="paint2_linear_1028_46473" x1="49.0375" y1="-6.15717" x2="29.2212" y2="18.2868" gradientUnits="userSpaceOnUse">
<stop stop-color="#FFA369"/>
<stop offset="0.1319" stop-color="#FE9E66"/>
<stop offset="0.2926" stop-color="#FA8F5C"/>
<stop offset="0.4684" stop-color="#F3764C"/>
<stop offset="0.6548" stop-color="#EA5436"/>
<stop offset="0.8476" stop-color="#DF281A"/>
<stop offset="1" stop-color="#D40000"/>
</linearGradient>
<linearGradient id="paint3_linear_1028_46473" x1="17.4807" y1="33.4326" x2="34.805" y2="11.7178" gradientUnits="userSpaceOnUse">
<stop stop-color="#D40000"/>
<stop offset="1" stop-color="#FFAF47"/>
</linearGradient>
<linearGradient id="paint4_linear_1028_46473" x1="30.7569" y1="19.005" x2="30.7569" y2="25.6063" gradientUnits="userSpaceOnUse">
<stop offset="0.6285" stop-color="#F7814A"/>
<stop offset="1" stop-color="#F7E399"/>
</linearGradient>
<radialGradient id="paint5_radial_1028_46473" cx="0" cy="0" r="1" gradientUnits="userSpaceOnUse" gradientTransform="translate(21.9425 -4.95541) scale(35.0737 35.0738)">
<stop offset="0.0139665" stop-color="#E85621"/>
<stop offset="1" stop-color="#E33A0B"/>
</radialGradient>
<radialGradient id="paint6_radial_1028_46473" cx="0" cy="0" r="1" gradientUnits="userSpaceOnUse" gradientTransform="translate(21.9423 -4.9544) scale(35.0738 35.0738)">
<stop offset="0.0139665" stop-color="#E85621"/>
<stop offset="1" stop-color="#E33A0B"/>
</radialGradient>
<radialGradient id="paint7_radial_1028_46473" cx="0" cy="0" r="1" gradientUnits="userSpaceOnUse" gradientTransform="translate(21.9431 -4.95476) scale(35.0738 35.0738)">
<stop offset="0.0139665" stop-color="#E85621"/>
<stop offset="1" stop-color="#E33A0B"/>
</radialGradient>
<radialGradient id="paint8_radial_1028_46473" cx="0" cy="0" r="1" gradientUnits="userSpaceOnUse" gradientTransform="translate(43.2227 0.740257) scale(36.2473 36.2472)">
<stop offset="0.0139665" stop-color="#E85621"/>
<stop offset="1" stop-color="#E33A0B"/>
</radialGradient>
<radialGradient id="paint9_radial_1028_46473" cx="0" cy="0" r="1" gradientUnits="userSpaceOnUse" gradientTransform="translate(43.2227 0.741313) scale(36.2471 36.2472)">
<stop offset="0.0139665" stop-color="#E85621"/>
<stop offset="1" stop-color="#E33A0B"/>
</radialGradient>
<radialGradient id="paint10_radial_1028_46473" cx="0" cy="0" r="1" gradientUnits="userSpaceOnUse" gradientTransform="translate(43.2228 0.740937) scale(36.2472 36.2472)">
<stop offset="0.0139665" stop-color="#E85621"/>
<stop offset="1" stop-color="#E33A0B"/>
</radialGradient>
<linearGradient id="paint11_linear_1028_46473" x1="55.1874" y1="-2.29711" x2="36.0238" y2="23.7488" gradientUnits="userSpaceOnUse">
<stop stop-color="#FFA369"/>
<stop offset="0.1319" stop-color="#FE9E66"/>
<stop offset="0.2926" stop-color="#FA8F5C"/>
<stop offset="0.4684" stop-color="#F3764C"/>
<stop offset="0.6548" stop-color="#EA5436"/>
<stop offset="0.8476" stop-color="#DF281A"/>
<stop offset="1" stop-color="#D40000"/>
</linearGradient>
<linearGradient id="paint12_linear_1028_46473" x1="59.0913" y1="0.576302" x2="39.9277" y2="26.6221" gradientUnits="userSpaceOnUse">
<stop stop-color="#FFA369"/>
<stop offset="0.1319" stop-color="#FE9E66"/>
<stop offset="0.2926" stop-color="#FA8F5C"/>
<stop offset="0.4684" stop-color="#F3764C"/>
<stop offset="0.6548" stop-color="#EA5436"/>
<stop offset="0.8476" stop-color="#DF281A"/>
<stop offset="1" stop-color="#D40000"/>
</linearGradient>
<linearGradient id="paint13_linear_1028_46473" x1="62.32" y1="2.9515" x2="43.1564" y2="28.9973" gradientUnits="userSpaceOnUse">
<stop stop-color="#FFA369"/>
<stop offset="0.1319" stop-color="#FE9E66"/>
<stop offset="0.2926" stop-color="#FA8F5C"/>
<stop offset="0.4684" stop-color="#F3764C"/>
<stop offset="0.6548" stop-color="#EA5436"/>
<stop offset="0.8476" stop-color="#DF281A"/>
<stop offset="1" stop-color="#D40000"/>
</linearGradient>
<linearGradient id="paint14_linear_1028_46473" x1="26.6258" y1="-23.3087" x2="7.46214" y2="2.73716" gradientUnits="userSpaceOnUse">
<stop stop-color="#FFA369"/>
<stop offset="0.1319" stop-color="#FE9E66"/>
<stop offset="0.2926" stop-color="#FA8F5C"/>
<stop offset="0.4684" stop-color="#F3764C"/>
<stop offset="0.6548" stop-color="#EA5436"/>
<stop offset="0.8476" stop-color="#DF281A"/>
<stop offset="1" stop-color="#D40000"/>
</linearGradient>
<linearGradient id="paint15_linear_1028_46473" x1="2.67251" y1="24.7403" x2="17.5446" y2="2.35316" gradientUnits="userSpaceOnUse">
<stop stop-color="#D40000"/>
<stop offset="1" stop-color="#FFAF47"/>
</linearGradient>
<linearGradient id="paint16_linear_1028_46473" x1="2.30816" y1="24.5005" x2="17.1801" y2="2.11342" gradientUnits="userSpaceOnUse">
<stop stop-color="#D40000"/>
<stop offset="1" stop-color="#FFAF47"/>
</linearGradient>
<radialGradient id="paint17_radial_1028_46473" cx="0" cy="0" r="1" gradientUnits="userSpaceOnUse" gradientTransform="translate(40.7575 2.95615) scale(37.1587)">
<stop offset="0.0139665" stop-color="#E85621"/>
<stop offset="1" stop-color="#E33A0B"/>
</radialGradient>
<linearGradient id="paint18_linear_1028_46473" x1="14.2301" y1="30.9387" x2="35.747" y2="1.74837" gradientUnits="userSpaceOnUse">
<stop stop-color="#D40000"/>
<stop offset="1" stop-color="#FFAF47"/>
</linearGradient>
<radialGradient id="paint19_radial_1028_46473" cx="0" cy="0" r="1" gradientUnits="userSpaceOnUse" gradientTransform="translate(40.7576 2.95615) scale(37.1587 37.1588)">
<stop offset="0.0139665" stop-color="#E85621"/>
<stop offset="1" stop-color="#E33A0B"/>
</radialGradient>
<linearGradient id="paint20_linear_1028_46473" x1="20.8522" y1="35.8197" x2="42.3691" y2="6.62928" gradientUnits="userSpaceOnUse">
<stop stop-color="#D40000"/>
<stop offset="1" stop-color="#FFAF47"/>
</linearGradient>
<linearGradient id="paint21_linear_1028_46473" x1="47.5835" y1="3.364" x2="31.9995" y2="20.8466" gradientUnits="userSpaceOnUse">
<stop stop-color="#FFA369"/>
<stop offset="0.1319" stop-color="#FE9E66"/>
<stop offset="0.2926" stop-color="#FA8F5C"/>
<stop offset="0.4684" stop-color="#F3764C"/>
<stop offset="0.6548" stop-color="#EA5436"/>
<stop offset="0.8476" stop-color="#DF281A"/>
<stop offset="1" stop-color="#D40000"/>
</linearGradient>
<linearGradient id="paint22_linear_1028_46473" x1="26.4159" y1="-23.4642" x2="7.25243" y2="2.58149" gradientUnits="userSpaceOnUse">
<stop stop-color="#FFA369"/>
<stop offset="0.1319" stop-color="#FE9E66"/>
<stop offset="0.2926" stop-color="#FA8F5C"/>
<stop offset="0.4684" stop-color="#F3764C"/>
<stop offset="0.6548" stop-color="#EA5436"/>
<stop offset="0.8476" stop-color="#DF281A"/>
<stop offset="1" stop-color="#D40000"/>
</linearGradient>
</defs>
</svg>
