<svg width="62" height="43" viewBox="0 0 62 43" fill="none" xmlns="http://www.w3.org/2000/svg">
<g id="Group">
<g id="Group_2">
<path id="Vector" d="M31.0869 37.0071L49.9128 23.3201L42.7234 1.18359H19.4257L12.2363 23.3201L31.0869 37.0071Z" fill="#54101A"/>
<path id="Vector_2" opacity="0.3" d="M21.2051 3.60547L31.0874 33.9937L40.9698 3.60547H21.2051Z" fill="#8C1919"/>
<path id="Vector_3" d="M43.3916 0.246094H18.7598L11.1504 23.6673L31.0633 38.1449L50.9763 23.6673L43.3916 0.246094ZM15.1033 22.4073L21.2057 3.6308H40.9704L47.0727 22.4073L31.088 34.019L15.1033 22.4073Z" fill="url(#paint0_radial_1028_46110)"/>
<path id="Vector_4" d="M43.3917 0.246094H18.76L17.0059 5.65668C18.0929 5.70609 19.2294 5.85433 20.3906 6.07668L21.2059 3.6061H40.9706L47.0729 22.3826L44.7506 24.0626C45.2694 25.0755 45.7388 26.1132 46.1341 27.2002L51.0012 23.6673L43.3917 0.246094Z" fill="url(#paint1_radial_1028_46110)"/>
<path id="Vector_5" d="M43.3917 0.246094H18.76L17.0059 5.65668C18.0929 5.70609 19.2294 5.85433 20.3906 6.07668L21.2059 3.6061H40.9706L47.0729 22.3826L44.7506 24.0626C45.2694 25.0755 45.7388 26.1132 46.1341 27.2002L51.0012 23.6673L43.3917 0.246094Z" fill="url(#paint2_linear_1028_46110)"/>
<path id="Vector_6" d="M42.0328 30.191C41.9092 28.8816 41.7116 27.6463 41.4645 26.4604L31.088 33.9957L15.1033 22.3839L19.4763 8.89453C18.241 8.91924 17.0057 9.06748 15.8198 9.31453L11.1504 23.6686L31.0633 38.1463L42.0328 30.191Z" fill="url(#paint3_linear_1028_46110)"/>
<path id="Vector_7" d="M15.1035 22.4066L16.6847 22.0361L22.1694 5.11253H39.9823L45.4918 22.0361L47.0482 22.4066L40.9459 3.60547H21.2059L15.1035 22.4066Z" fill="#9E2C19"/>
<path id="Vector_8" opacity="0.2" d="M16.6836 22.0368L19.7718 14.1309C21.6001 9.46152 26.0965 7.43563 31.1118 7.43563C36.1518 7.43563 40.673 9.48622 42.4765 14.205L45.4907 22.0368L39.9812 5.11328H22.1683L16.6836 22.0368Z" fill="#892334"/>
<path id="Vector_9" d="M15.1035 22.4057L16.6847 22.0352L31.0882 32.5104L45.4918 22.0352L47.0482 22.4057L31.0882 33.9928L15.1035 22.4057Z" fill="url(#paint4_linear_1028_46110)"/>
<path id="Vector_10" opacity="0.6" d="M16.6836 22.0381L22.3412 7.53572C22.613 6.84396 23.2801 6.37455 24.0459 6.37455H38.2518C39.0177 6.37455 39.6848 6.84396 39.9565 7.53572L45.5154 22.0134L40.006 5.08984H22.1683L16.6836 22.0381Z" fill="#892334"/>
<path id="Vector_11" d="M21.2051 3.60547L22.1686 5.11253H39.9815L40.9451 3.60547H21.2051Z" fill="#681D15"/>
<path id="Vector_12" opacity="0.35" d="M13.8934 15.2656L11.9911 22.4056C11.8428 23.0233 12.1393 23.8386 12.6334 24.2092L31.0887 38.1186L11.1758 23.6409L13.8934 15.2656Z" fill="#9E2C19"/>
<path id="Vector_13" opacity="0.6" d="M16.6836 22.0352L30.4201 31.2999C30.7907 31.5469 31.3836 31.5469 31.7542 31.2999L45.4907 22.0352L31.0871 32.5104L16.6836 22.0352Z" fill="#892334"/>
<path id="Vector_14" opacity="0.35" d="M31.0879 38.1444L48.8267 24.4327C50.062 23.5185 50.3338 23.3209 49.7655 21.5421L46.0597 8.47266L51.0008 23.6668L31.0879 38.1444Z" fill="#9E2C19"/>
<path id="Vector_15" d="M22.2676 27.6193L31.0876 33.9934L42.9711 25.3711L31.0876 34.537L22.2676 27.6193Z" fill="#FFF5CC"/>
<path id="Vector_16" d="M30.4219 0.246094H43.3925L46.0607 8.49786L42.8983 0.715504L30.4219 0.246094Z" fill="#FFF5CC"/>
<path id="Vector_17" d="M35.5838 0.246094C35.485 1.30845 35.9297 2.51904 36.8439 3.6061H40.945L41.958 6.74374C43.2427 7.06491 44.478 7.06492 45.4909 6.79315L43.3662 0.246094H35.5838Z" fill="#FFF2BB"/>
<path id="Vector_18" d="M21.2062 26.8281C20.885 27.6187 21.4532 28.8293 22.5897 29.6446C23.7262 30.4599 25.0356 30.6328 25.7026 30.0893L21.2062 26.8281Z" fill="#FFF2BB"/>
<path id="Vector_19" d="M25.7262 32.2908C25.5286 32.5873 25.0098 32.5873 24.5403 32.2661C24.0709 31.9449 23.8733 31.5002 24.0462 31.2037C24.2439 30.9073 24.7627 30.9073 25.2321 31.2284C25.7015 31.5249 25.9239 31.9943 25.7262 32.2908Z" fill="#FFF2BB"/>
<path id="Vector_20" d="M16.8326 0.420509L16.0668 6.64639C14.2879 6.64639 12.7809 6.62168 10.1126 6.62168C0.625585 6.62168 0.576172 0.371094 0.576172 0.371094L16.8326 0.420509Z" fill="#681D15"/>
<path id="Vector_21" d="M16.8326 0.420509L15.2268 5.28756C13.4479 5.28756 13.1515 5.26286 10.4585 5.26286C0.971466 5.26286 0.576172 0.371094 0.576172 0.371094L16.8326 0.420509Z" fill="url(#paint5_radial_1028_46110)"/>
<path id="Vector_22" d="M14.4112 7.83066L13.6701 14.0565C11.8912 14.0565 14.0653 14.0565 11.3724 14.0565C1.88534 14.0565 1.83594 7.78125 1.83594 7.78125L14.4112 7.83066Z" fill="#681D15"/>
<path id="Vector_23" d="M14.4112 7.82939L12.8301 12.7212C11.0512 12.7212 14.4112 12.6964 11.743 12.6964C2.25593 12.6964 1.83594 7.80469 1.83594 7.80469L14.4112 7.82939Z" fill="url(#paint6_radial_1028_46110)"/>
<path id="Vector_24" d="M12.0156 15.2161L5.32031 15.1914C5.32031 15.1914 6.35796 19.8855 11.2497 21.4667L12.0156 15.2161Z" fill="#681D15"/>
<path id="Vector_25" d="M12.0156 15.2161L5.32031 15.1914C5.32031 15.1914 5.51796 18.5267 10.4097 20.1079L12.0156 15.2161Z" fill="url(#paint7_radial_1028_46110)"/>
<path id="Vector_26" d="M16.8324 0.417969L17.623 1.97444L16.0666 6.64385L15.2266 5.28502L16.8324 0.417969Z" fill="#9E2C19"/>
<path id="Vector_27" d="M14.4113 7.83203L15.2265 9.36379L13.6701 14.0579L12.8301 12.6991L14.4113 7.83203Z" fill="#9E2C19"/>
<path id="Vector_28" d="M12.0155 15.2188L12.8061 16.7505L10.4837 23.8164L9.05078 24.2611L12.0155 15.2188Z" fill="#9E2C19"/>
<path id="Vector_29" d="M45.3438 0.420509L46.1096 6.64639C47.8885 6.64639 49.3955 6.62168 52.0638 6.62168C61.5508 6.62168 61.6002 0.371094 61.6002 0.371094L45.3438 0.420509Z" fill="#681D15"/>
<path id="Vector_30" d="M45.3438 0.420509L46.9496 5.28756C48.7285 5.28756 49.0249 5.26286 51.7179 5.26286C61.2049 5.26286 61.6002 0.371094 61.6002 0.371094L45.3438 0.420509Z" fill="url(#paint8_radial_1028_46110)"/>
<path id="Vector_31" d="M47.7402 7.83066L48.4814 14.0565C50.2602 14.0565 48.0861 14.0565 50.7791 14.0565C60.2661 14.0565 60.3155 7.78125 60.3155 7.78125L47.7402 7.83066Z" fill="#681D15"/>
<path id="Vector_32" d="M47.7402 7.82939L49.3214 12.7212C51.1002 12.7212 47.7402 12.6964 50.4085 12.6964C59.8955 12.6964 60.3155 7.80469 60.3155 7.80469L47.7402 7.82939Z" fill="url(#paint9_radial_1028_46110)"/>
<path id="Vector_33" d="M50.1367 15.2161L56.832 15.1914C56.832 15.1914 55.7944 19.8855 50.9026 21.4667L50.1367 15.2161Z" fill="#681D15"/>
<path id="Vector_34" d="M50.1367 15.2161L56.832 15.1914C56.832 15.1914 56.6344 18.5267 51.7426 20.1079L50.1367 15.2161Z" fill="url(#paint10_radial_1028_46110)"/>
<path id="Vector_35" d="M45.3438 0.420509L46.9496 5.28756C48.7285 5.28756 49.0249 5.26286 51.7179 5.26286C61.2049 5.26286 61.6002 0.371094 61.6002 0.371094L45.3438 0.420509Z" fill="url(#paint11_linear_1028_46110)"/>
<path id="Vector_36" d="M47.7402 7.82939L49.3214 12.7212C51.1002 12.7212 47.7402 12.6964 50.4085 12.6964C59.8955 12.6964 60.3155 7.80469 60.3155 7.80469L47.7402 7.82939Z" fill="url(#paint12_linear_1028_46110)"/>
<path id="Vector_37" d="M45.3426 0.417969L44.5273 1.97444L46.0838 6.64385L46.9238 5.28502L45.3426 0.417969Z" fill="#9E2C19"/>
<path id="Vector_38" d="M47.7391 7.83203L46.9238 9.36379L48.4803 14.0579L49.3203 12.6991L47.7391 7.83203Z" fill="#9E2C19"/>
<path id="Vector_39" d="M50.1363 15.2188L49.3457 16.7505L51.6681 23.8658L53.1257 24.2611L50.1363 15.2188Z" fill="#9E2C19"/>
<path id="Vector_40" d="M16.8326 0.419239L0.576172 0.394531C0.576172 0.394531 0.971466 5.28629 10.4585 5.28629C13.1268 5.28629 13.4232 5.28629 15.2268 5.311L16.8326 0.419239Z" fill="url(#paint13_linear_1028_46110)"/>
<path id="Vector_41" d="M12.8302 12.6979L13.769 9.83203C12.509 10.252 11.2984 10.7956 10.1866 11.4626C9.71723 11.7344 9.19841 12.0803 8.60547 12.4756C9.51959 12.5991 10.5572 12.6732 11.7431 12.6732C14.4113 12.6732 11.0514 12.6979 12.8302 12.6979Z" fill="url(#paint14_linear_1028_46110)"/>
<path id="Vector_42" opacity="0.35" d="M14.3379 13.9072L18.4885 1.97424C18.9085 0.763647 19.2297 0.442472 20.5144 0.393061L31.0638 0.269531H18.7602L14.3379 13.9072Z" fill="#9E2C19"/>
<path id="Vector_43" d="M34.7936 2.12476C33.9288 1.50711 32.8912 1.4577 32.4712 2.02594C32.1747 2.44594 32.2736 3.06358 32.6689 3.60711H35.7571C35.7077 3.11299 35.3618 2.54476 34.7936 2.12476Z" fill="#FFF2BB"/>
<path id="Vector_44" opacity="0.35" fill-rule="evenodd" clip-rule="evenodd" d="M48.9995 4.91443C47.9125 4.81561 47.1713 4.42032 46.6772 3.45679L45.3184 0.417969L46.9242 5.28502C48.7031 5.28502 48.9995 5.26032 51.6925 5.26032C53.1995 5.26032 54.4842 5.13679 55.5713 4.93914C53.2242 5.23561 50.8031 5.08738 48.9995 4.91443Z" fill="#9E2C19"/>
<path id="Vector_45" opacity="0.35" fill-rule="evenodd" clip-rule="evenodd" d="M50.4078 12.6991C52.7054 12.6991 54.4595 12.4273 55.8184 11.9826C53.8666 12.5261 52.236 12.4767 50.976 12.4026C50.1113 12.3532 49.4195 11.7108 49.049 10.945L47.7148 7.83203L49.296 12.7238C51.0995 12.6991 47.7395 12.6744 50.4078 12.6991Z" fill="#9E2C19"/>
<path id="Vector_46" opacity="0.35" fill-rule="evenodd" clip-rule="evenodd" d="M51.7179 20.1092C52.7802 19.7634 53.6202 19.3434 54.2873 18.8987C53.4967 19.1951 52.0144 19.4175 52.0144 19.4175L50.1367 15.2422L51.7179 20.1092Z" fill="#9E2C19"/>
<path id="Vector_47" opacity="0.35" d="M10.4585 5.28512C13.1268 5.28512 13.4232 5.28512 15.2268 5.30982L16.4868 1.4557L15.5479 3.5557C15.1032 4.66747 14.8315 5.03806 13.7197 5.03806C12.5338 5.03806 10.2856 5.01336 9.12441 4.98865C4.13382 4.791 1.21852 2.64159 0.576172 0.418062C0.576172 0.393356 0.971466 5.28512 10.4585 5.28512Z" fill="#9E2C19"/>
<path id="Vector_48" opacity="0.35" d="M13.0532 11.2647C12.7567 11.9071 12.4356 12.4259 11.7191 12.4012C11.0026 12.3765 8.95204 12.3518 7.81557 12.1047C5.12263 11.4871 3.51675 10.4988 2.42969 9.26354C3.34381 10.6965 5.71557 12.6977 11.7685 12.6977C14.4367 12.6977 11.0767 12.6977 12.8556 12.7224L14.165 8.69531L13.0532 11.2647Z" fill="#9E2C19"/>
<path id="Vector_49" opacity="0.35" d="M10.4332 20.1106L11.8167 15.8612C11.5449 16.4048 11.0508 17.6648 10.5073 18.8259C10.1614 19.6165 9.81551 19.5177 9.27198 19.2954C6.55434 18.1589 5.91199 16.8001 5.34375 15.2189C5.34375 15.1942 5.5414 18.5295 10.4332 20.1106Z" fill="#9E2C19"/>
<path id="Vector_50" d="M45.3438 0.420509L60.192 0.667567C60.7849 0.667567 61.0567 1.13698 60.8096 1.6558C60.5379 2.22404 60.1179 2.89109 59.4014 3.45933C61.452 2.0758 61.6002 0.371094 61.6002 0.371094L45.3438 0.420509Z" fill="#FFF5CC"/>
<path id="Vector_51" d="M47.7402 7.83066L58.7097 8.07772C59.9944 8.10243 59.772 8.64596 59.4508 9.31302C59.2532 9.73302 58.9567 10.1777 58.5861 10.5483C60.2167 9.2389 60.3402 7.78125 60.3402 7.78125L47.7402 7.83066Z" fill="#FFF5CC"/>
<path id="Vector_52" opacity="0.5" d="M4.90039 0.394531L16.8333 0.419239L16.438 1.62983C16.438 1.01218 16.1416 0.690997 15.4251 0.690997L4.90039 0.394531Z" fill="#FFE67B"/>
<path id="Vector_53" opacity="0.5" d="M4.90039 7.83203H14.4122L13.9674 9.19085L14.0169 8.74614C14.0416 8.32614 13.8933 8.10379 13.1274 8.05438L4.90039 7.83203Z" fill="#FFE67B"/>
<g id="Group_3">
<path id="Vector_54" opacity="0.6" d="M34.3736 14.6524L36.0288 11.8112V10.4524L32.7183 11.8112L31.0877 8.94531L29.4324 11.8112L26.1465 10.4524V11.8112L27.7771 14.6524L26.1465 16.1347V17.5182H29.4324L31.0877 20.3594L32.7183 17.5182H36.0288V16.1347L34.3736 14.6524Z" fill="#892334"/>
<path id="Vector_55" d="M34.3736 13.293L36.0288 10.4518V9.36476L32.7183 10.4518L31.0877 7.58594L29.4324 10.4518L26.1465 9.36476V10.4518L27.7771 13.293L26.1465 15.0718V16.1342H29.4324L31.0877 19.0001L32.7183 16.1342H36.0288V15.0718L34.3736 13.293Z" fill="#9E2C19"/>
<path id="Vector_56" d="M34.3736 12.2305L36.0288 9.36461H32.7183L31.0877 6.52344L29.4324 9.36461H26.1465L27.7771 12.2305L26.1465 15.0717H29.4324L31.0877 17.9376L32.7183 15.0717H36.0288L34.3736 12.2305Z" fill="url(#paint15_radial_1028_46110)"/>
<path id="Vector_57" d="M36.0046 15.0703H32.7188V16.1327H36.0046V15.0703Z" fill="#681D15"/>
<path id="Vector_58" d="M29.4324 16.1327L31.0877 18.9985V17.9362L29.4324 15.0703H26.1465V16.1327H29.4324Z" fill="#681D15"/>
<path id="Vector_59" d="M26.1465 9.36328L27.7771 12.2292L27.4806 12.748L26.1465 10.4503V9.36328Z" fill="#681D15"/>
<path id="Vector_60" opacity="0.8" d="M31.0879 6.52344L32.6691 9.66109L36.0291 9.36461H32.7185L31.0879 6.52344Z" fill="#FFE67B"/>
<path id="Vector_61" d="M29.4324 15.0716L31.0877 17.9127L32.743 15.0716H34.6206C32.2736 12.9221 29.5312 11.2916 26.6653 10.2539L27.8018 12.2304L26.1465 15.0716H29.4324Z" fill="url(#paint16_linear_1028_46110)"/>
<path id="Vector_62" opacity="0.35" d="M26.1465 9.36328L28.3947 12.2292L26.1465 15.0703L27.7771 12.2292L26.1465 9.36328Z" fill="#9E2C19"/>
<path id="Vector_63" d="M31.0873 6.52344L29.7285 8.8705C31.4085 9.7105 33.0391 10.7234 34.5956 11.8352L36.0285 9.36461H32.7426L31.0873 6.52344Z" fill="url(#paint17_linear_1028_46110)"/>
<path id="Vector_64" opacity="0.5" d="M31.2362 13.6638C31.0633 14.2073 30.2233 14.4544 29.3833 14.1826C28.5433 13.9109 27.9998 13.2438 28.1727 12.7003C28.3457 12.1567 29.1857 11.9097 30.0257 12.1815C30.8657 12.4532 31.4092 13.1203 31.2362 13.6638Z" fill="#FCE265"/>
<path id="Vector_65" opacity="0.35" d="M31.0879 17.9379L32.5208 14.4297L36.0291 15.072H32.7185L31.0879 17.9379Z" fill="#9E2C19"/>
<path id="Vector_66" opacity="0.5" d="M31.4587 15.0713C31.434 15.3183 31.1128 15.4666 30.7423 15.4171C30.3717 15.3677 30.0999 15.1454 30.1246 14.8983C30.1493 14.6513 30.4705 14.503 30.8411 14.5524C31.2117 14.6018 31.4834 14.8242 31.4587 15.0713Z" fill="#FCE265"/>
<path id="Vector_67" opacity="0.5" d="M26.1465 15.0699L29.7288 14.7734L31.0877 17.9358L29.4324 15.0699H26.1465Z" fill="#FFE67B"/>
</g>
<path id="Vector_68" d="M46.9242 5.28629C48.2089 5.28629 48.7278 5.26159 49.9136 5.26159C51.5936 4.19923 52.7054 2.64276 52.8784 0.814527C52.8784 0.666291 52.9031 0.518061 52.9031 0.394531L45.3184 0.419239L46.9242 5.28629Z" fill="#FFF2BB"/>
<path id="Vector_69" opacity="0.6" d="M30.9894 26.0128L19.8965 20.2563V21.7387L30.9894 29.7928L42.2553 21.6152V20.1328L30.9894 26.0128Z" fill="#892334"/>
<path id="Vector_70" d="M30.9894 24.5333L19.8965 18.5298V20.2592L30.9894 28.3133L42.2553 20.1357V18.4062L30.9894 24.5333Z" fill="#9E2C19"/>
<path id="Vector_71" d="M30.9894 22.801L20.8847 15.4634L19.8965 18.5269L30.9894 26.581L42.2553 18.4034L41.2671 15.3398L30.9894 22.801Z" fill="url(#paint18_radial_1028_46110)"/>
<path id="Vector_72" d="M54.9795 18.3538C56.7336 16.822 56.8324 15.1914 56.8324 15.1914L50.1371 15.2161L53.1019 24.2585L31.8301 39.7243V42.1949L58.883 27.1491L54.9795 18.3538Z" fill="url(#paint19_radial_1028_46110)"/>
<path id="Vector_73" d="M9.04944 24.2585L12.0388 15.2161L5.34355 15.1914C5.34355 15.1914 5.44238 16.822 7.1965 18.3538L3.29297 27.1243L30.3212 42.1949V39.7243L9.04944 24.2585Z" fill="url(#paint20_radial_1028_46110)"/>
<path id="Vector_74" d="M9.04944 24.2585L12.0388 15.2161L5.34355 15.1914C5.34355 15.1914 5.44238 16.822 7.1965 18.3538L3.29297 27.1243L30.3212 42.1949V39.7243L9.04944 24.2585Z" fill="url(#paint21_linear_1028_46110)"/>
<path id="Vector_75" d="M10.4837 23.8164L30.3225 38.9117V39.727L9.05078 24.2611L10.4837 23.8164Z" fill="url(#paint22_linear_1028_46110)"/>
<path id="Vector_76" d="M51.6689 23.8633L31.8301 38.9092V39.7245L53.1266 24.2586L51.6689 23.8633Z" fill="url(#paint23_linear_1028_46110)"/>
<path id="Vector_77" d="M54.9777 18.3538C56.7319 16.822 56.8307 15.1914 56.8307 15.1914L50.1354 15.2161L53.1001 24.2585L46.7754 28.8538C46.8495 29.1008 46.8989 29.3726 46.973 29.6196C47.3189 30.9785 47.6154 32.1891 47.8625 33.2514L58.8813 27.1243L54.9777 18.3538Z" fill="url(#paint24_linear_1028_46110)"/>
<path id="Vector_78" d="M42.1324 34.4396C42.1818 33.6738 42.2065 32.9326 42.2065 32.1914L31.8301 39.7267V42.1973L41.663 36.7126C41.9101 36.0208 42.083 35.2549 42.1324 34.4396Z" fill="url(#paint25_linear_1028_46110)"/>
<path id="Vector_79" d="M39.7852 16.4295C40.4769 17.1707 41.144 17.9613 41.7616 18.7766L42.2557 18.406L41.2675 15.3672L39.7852 16.4295Z" fill="url(#paint26_linear_1028_46110)"/>
<path id="Vector_80" d="M39.1177 20.6765C38.5988 19.7871 38.0306 18.9471 37.413 18.1318L30.9894 22.8012L20.8847 15.4883L19.8965 18.5271L30.9894 26.5812L39.1177 20.6765Z" fill="url(#paint27_linear_1028_46110)"/>
<path id="Vector_81" d="M19.8965 18.5273L30.9894 26.5815V28.3109L19.8965 20.2568V18.5273Z" fill="#681D15"/>
<path id="Vector_82" d="M24.5156 18.108L30.9886 23.5432L38.8945 17.0703L30.9886 22.8021L24.5156 18.108Z" fill="#FFF5CC"/>
<path id="Vector_83" opacity="0.35" d="M20.9101 15.4648L20.5889 17.466C20.5395 17.886 20.6383 18.4048 20.9595 18.6766L30.9901 26.5825L19.9219 18.5284L20.9101 15.4648Z" fill="#9E2C19"/>
<path id="Vector_84" opacity="0.35" d="M36.7207 22.4312L41.1678 18.5524C41.5878 18.2065 41.736 17.8112 41.6866 17.2677L41.4642 15.9336L42.2548 18.3795L36.7207 22.4312Z" fill="#9E2C19"/>
<path id="Vector_85" opacity="0.35" d="M7.17306 18.3538L3.26953 27.1243L17.3272 34.9561C17.3272 34.9561 7.7413 29.2243 4.65306 27.2726C4.10953 26.9267 3.91189 26.6302 4.18365 26.0373C5.09777 23.9126 7.17306 18.922 7.56835 18.1561C6.33306 17.1926 5.81424 16.2785 5.34482 15.1914C5.34482 15.1914 5.44365 16.822 7.17306 18.3538Z" fill="#9E2C19"/>
<path id="Vector_86" opacity="0.5" d="M6.62891 15.1914L12.0148 15.2161L9.91479 21.6149L11.5701 15.8832C11.5454 15.562 11.4713 15.4385 11.0266 15.4138L6.62891 15.1914Z" fill="#FFE67B"/>
<path id="Vector_87" d="M55.6708 17.6373C56.7579 16.3526 56.8073 15.1914 56.8073 15.1914L50.1367 15.2161L55.6461 15.4385C56.4614 15.4879 56.3132 15.7843 56.2144 16.1796C56.1155 16.6738 55.9426 17.1926 55.6708 17.6373Z" fill="#FFF5CC"/>
<path id="Vector_88" opacity="0.35" d="M45.8125 34.4162L56.1149 28.1903C57.9431 27.0786 58.116 26.8809 57.3254 24.8797L55.596 19.7656L58.8819 27.1527L45.8125 34.4162Z" fill="#9E2C19"/>
<path id="Vector_89" opacity="0.35" d="M31.8301 39.7247C31.8301 39.7247 31.9042 40.0706 31.9536 40.3423C32.1513 41.5282 32.4724 41.4541 33.1642 41.1329L37.043 39.3047L31.8548 42.1953V39.7247H31.8301Z" fill="#9E2C19"/>
<path id="Vector_90" opacity="0.35" d="M20.6621 36.8125L29.1115 41.0866C29.9762 41.556 30.0751 41.309 30.248 40.3207C30.2727 40.1972 30.3221 39.8019 30.3221 39.8019V42.1984L20.6621 36.8125Z" fill="#9E2C19"/>
<path id="Vector_91" d="M1.83594 7.78125C1.83594 7.78125 1.91005 8.57184 2.60181 9.53537C3.63946 8.94243 4.80064 8.34949 6.01123 7.80596L1.83594 7.78125Z" fill="url(#paint28_linear_1028_46110)"/>
</g>
</g>
<defs>
<radialGradient id="paint0_radial_1028_46110" cx="0" cy="0" r="1" gradientUnits="userSpaceOnUse" gradientTransform="translate(31.0773 19.2028) scale(19.4395 19.4395)">
<stop offset="0.0139665" stop-color="#E85621"/>
<stop offset="1" stop-color="#E33A0B"/>
</radialGradient>
<radialGradient id="paint1_radial_1028_46110" cx="0" cy="0" r="1" gradientUnits="userSpaceOnUse" gradientTransform="translate(34.002 13.738) scale(15.3398)">
<stop offset="0.0139665" stop-color="#E85621"/>
<stop offset="1" stop-color="#E33A0B"/>
</radialGradient>
<linearGradient id="paint2_linear_1028_46110" x1="49.358" y1="-5.8905" x2="29.5417" y2="18.5535" gradientUnits="userSpaceOnUse">
<stop stop-color="#FFA369"/>
<stop offset="0.1319" stop-color="#FE9E66"/>
<stop offset="0.2926" stop-color="#FA8F5C"/>
<stop offset="0.4684" stop-color="#F3764C"/>
<stop offset="0.6548" stop-color="#EA5436"/>
<stop offset="0.8476" stop-color="#DF281A"/>
<stop offset="1" stop-color="#D40000"/>
</linearGradient>
<linearGradient id="paint3_linear_1028_46110" x1="17.8011" y1="33.7019" x2="35.1255" y2="11.9871" gradientUnits="userSpaceOnUse">
<stop stop-color="#D40000"/>
<stop offset="1" stop-color="#FFAF47"/>
</linearGradient>
<linearGradient id="paint4_linear_1028_46110" x1="31.0774" y1="19.2704" x2="31.0774" y2="25.8717" gradientUnits="userSpaceOnUse">
<stop offset="0.6285" stop-color="#F7814A"/>
<stop offset="1" stop-color="#F7E399"/>
</linearGradient>
<radialGradient id="paint5_radial_1028_46110" cx="0" cy="0" r="1" gradientUnits="userSpaceOnUse" gradientTransform="translate(8.703 2.84205) scale(5.99861)">
<stop offset="0.0139665" stop-color="#E85621"/>
<stop offset="1" stop-color="#E33A0B"/>
</radialGradient>
<radialGradient id="paint6_radial_1028_46110" cx="0" cy="0" r="1" gradientUnits="userSpaceOnUse" gradientTransform="translate(8.12914 10.2458) scale(4.77545)">
<stop offset="0.0139665" stop-color="#E85621"/>
<stop offset="1" stop-color="#E33A0B"/>
</radialGradient>
<radialGradient id="paint7_radial_1028_46110" cx="0" cy="0" r="1" gradientUnits="userSpaceOnUse" gradientTransform="translate(8.67599 17.6462) scale(2.93195 2.93194)">
<stop offset="0.0139665" stop-color="#E85621"/>
<stop offset="1" stop-color="#E33A0B"/>
</radialGradient>
<radialGradient id="paint8_radial_1028_46110" cx="0" cy="0" r="1" gradientUnits="userSpaceOnUse" gradientTransform="translate(53.4559 2.84205) scale(5.99861)">
<stop offset="0.0139665" stop-color="#E85621"/>
<stop offset="1" stop-color="#E33A0B"/>
</radialGradient>
<radialGradient id="paint9_radial_1028_46110" cx="0" cy="0" r="1" gradientUnits="userSpaceOnUse" gradientTransform="translate(54.0296 10.2458) scale(4.77545 4.77545)">
<stop offset="0.0139665" stop-color="#E85621"/>
<stop offset="1" stop-color="#E33A0B"/>
</radialGradient>
<radialGradient id="paint10_radial_1028_46110" cx="0" cy="0" r="1" gradientUnits="userSpaceOnUse" gradientTransform="translate(53.4836 17.6462) scale(2.93194 2.93194)">
<stop offset="0.0139665" stop-color="#E85621"/>
<stop offset="1" stop-color="#E33A0B"/>
</radialGradient>
<linearGradient id="paint11_linear_1028_46110" x1="55.5079" y1="-2.02777" x2="36.3443" y2="24.0181" gradientUnits="userSpaceOnUse">
<stop stop-color="#FFA369"/>
<stop offset="0.1319" stop-color="#FE9E66"/>
<stop offset="0.2926" stop-color="#FA8F5C"/>
<stop offset="0.4684" stop-color="#F3764C"/>
<stop offset="0.6548" stop-color="#EA5436"/>
<stop offset="0.8476" stop-color="#DF281A"/>
<stop offset="1" stop-color="#D40000"/>
</linearGradient>
<linearGradient id="paint12_linear_1028_46110" x1="59.4118" y1="0.841731" x2="40.2483" y2="26.8875" gradientUnits="userSpaceOnUse">
<stop stop-color="#FFA369"/>
<stop offset="0.1319" stop-color="#FE9E66"/>
<stop offset="0.2926" stop-color="#FA8F5C"/>
<stop offset="0.4684" stop-color="#F3764C"/>
<stop offset="0.6548" stop-color="#EA5436"/>
<stop offset="0.8476" stop-color="#DF281A"/>
<stop offset="1" stop-color="#D40000"/>
</linearGradient>
<linearGradient id="paint13_linear_1028_46110" x1="26.9463" y1="-23.0433" x2="7.78266" y2="3.00261" gradientUnits="userSpaceOnUse">
<stop stop-color="#FFA369"/>
<stop offset="0.1319" stop-color="#FE9E66"/>
<stop offset="0.2926" stop-color="#FA8F5C"/>
<stop offset="0.4684" stop-color="#F3764C"/>
<stop offset="0.6548" stop-color="#EA5436"/>
<stop offset="0.8476" stop-color="#DF281A"/>
<stop offset="1" stop-color="#D40000"/>
</linearGradient>
<linearGradient id="paint14_linear_1028_46110" x1="2.62862" y1="24.766" x2="17.5007" y2="2.37882" gradientUnits="userSpaceOnUse">
<stop stop-color="#D40000"/>
<stop offset="1" stop-color="#FFAF47"/>
</linearGradient>
<radialGradient id="paint15_radial_1028_46110" cx="0" cy="0" r="1" gradientUnits="userSpaceOnUse" gradientTransform="translate(31.0769 12.2252) scale(5.33719 5.33719)">
<stop offset="0.0139665" stop-color="#E85621"/>
<stop offset="1" stop-color="#E33A0B"/>
</radialGradient>
<linearGradient id="paint16_linear_1028_46110" x1="17.8813" y1="32.1521" x2="32.8351" y2="9.28156" gradientUnits="userSpaceOnUse">
<stop stop-color="#D40000"/>
<stop offset="1" stop-color="#FFAF47"/>
</linearGradient>
<linearGradient id="paint17_linear_1028_46110" x1="46.2568" y1="-13.7768" x2="28.3708" y2="16.8151" gradientUnits="userSpaceOnUse">
<stop stop-color="#FFA369"/>
<stop offset="0.1319" stop-color="#FE9E66"/>
<stop offset="0.2926" stop-color="#FA8F5C"/>
<stop offset="0.4684" stop-color="#F3764C"/>
<stop offset="0.6548" stop-color="#EA5436"/>
<stop offset="0.8476" stop-color="#DF281A"/>
<stop offset="1" stop-color="#D40000"/>
</linearGradient>
<radialGradient id="paint18_radial_1028_46110" cx="0" cy="0" r="1" gradientUnits="userSpaceOnUse" gradientTransform="translate(31.0775 20.964) scale(8.84011)">
<stop offset="0.0139665" stop-color="#E85621"/>
<stop offset="1" stop-color="#E33A0B"/>
</radialGradient>
<radialGradient id="paint19_radial_1028_46110" cx="0" cy="0" r="1" gradientUnits="userSpaceOnUse" gradientTransform="translate(45.3564 28.6917) scale(13.5112 13.5112)">
<stop offset="0.0139665" stop-color="#E85621"/>
<stop offset="1" stop-color="#E33A0B"/>
</radialGradient>
<radialGradient id="paint20_radial_1028_46110" cx="0" cy="0" r="1" gradientUnits="userSpaceOnUse" gradientTransform="translate(16.798 28.6917) scale(13.5112)">
<stop offset="0.0139665" stop-color="#E85621"/>
<stop offset="1" stop-color="#E33A0B"/>
</radialGradient>
<linearGradient id="paint21_linear_1028_46110" x1="13.306" y1="35.7881" x2="30.801" y2="8.32391" gradientUnits="userSpaceOnUse">
<stop stop-color="#D40000"/>
<stop offset="1" stop-color="#FFAF47"/>
</linearGradient>
<linearGradient id="paint22_linear_1028_46110" x1="9.04011" y1="31.7793" x2="30.3218" y2="31.7793" gradientUnits="userSpaceOnUse">
<stop offset="0.0921788" stop-color="#F7814A"/>
<stop offset="0.1308" stop-color="#F7874F"/>
<stop offset="0.3944" stop-color="#F7AF6F"/>
<stop offset="0.6359" stop-color="#F7CB86"/>
<stop offset="0.8457" stop-color="#F7DD94"/>
<stop offset="1" stop-color="#F7E399"/>
</linearGradient>
<linearGradient id="paint23_linear_1028_46110" x1="53.1157" y1="31.7917" x2="31.834" y2="31.7917" gradientUnits="userSpaceOnUse">
<stop offset="0.0921788" stop-color="#F7814A"/>
<stop offset="0.1308" stop-color="#F7874F"/>
<stop offset="0.3944" stop-color="#F7AF6F"/>
<stop offset="0.6359" stop-color="#F7CB86"/>
<stop offset="0.8457" stop-color="#F7DD94"/>
<stop offset="1" stop-color="#F7E399"/>
</linearGradient>
<linearGradient id="paint24_linear_1028_46110" x1="65.6988" y1="8.86255" x2="45.2716" y2="31.3422" gradientUnits="userSpaceOnUse">
<stop stop-color="#FFA369"/>
<stop offset="0.1319" stop-color="#FE9E66"/>
<stop offset="0.2926" stop-color="#FA8F5C"/>
<stop offset="0.4684" stop-color="#F3764C"/>
<stop offset="0.6548" stop-color="#EA5436"/>
<stop offset="0.8476" stop-color="#DF281A"/>
<stop offset="1" stop-color="#D40000"/>
</linearGradient>
<linearGradient id="paint25_linear_1028_46110" x1="31.0902" y1="47.118" x2="48.5853" y2="19.6537" gradientUnits="userSpaceOnUse">
<stop stop-color="#D40000"/>
<stop offset="1" stop-color="#FFAF47"/>
</linearGradient>
<linearGradient id="paint26_linear_1028_46110" x1="54.7912" y1="-6.14833" x2="36.9052" y2="24.4436" gradientUnits="userSpaceOnUse">
<stop stop-color="#FFA369"/>
<stop offset="0.1319" stop-color="#FE9E66"/>
<stop offset="0.2926" stop-color="#FA8F5C"/>
<stop offset="0.4684" stop-color="#F3764C"/>
<stop offset="0.6548" stop-color="#EA5436"/>
<stop offset="0.8476" stop-color="#DF281A"/>
<stop offset="1" stop-color="#D40000"/>
</linearGradient>
<linearGradient id="paint27_linear_1028_46110" x1="19.9303" y1="33.4882" x2="34.8841" y2="10.6177" gradientUnits="userSpaceOnUse">
<stop stop-color="#D40000"/>
<stop offset="1" stop-color="#FFAF47"/>
</linearGradient>
<linearGradient id="paint28_linear_1028_46110" x1="26.7365" y1="-23.1978" x2="7.57288" y2="2.84805" gradientUnits="userSpaceOnUse">
<stop stop-color="#FFA369"/>
<stop offset="0.1319" stop-color="#FE9E66"/>
<stop offset="0.2926" stop-color="#FA8F5C"/>
<stop offset="0.4684" stop-color="#F3764C"/>
<stop offset="0.6548" stop-color="#EA5436"/>
<stop offset="0.8476" stop-color="#DF281A"/>
<stop offset="1" stop-color="#D40000"/>
</linearGradient>
</defs>
</svg>
