<svg width="41" height="39" viewBox="0 0 41 39" fill="none" xmlns="http://www.w3.org/2000/svg">
<g id="Group">
<g id="Group_2">
<path id="Vector" d="M20.8747 36.9602L39.7006 23.2732L32.5112 1.13672H9.23823L2.04883 23.2732L20.8747 36.9602Z" fill="#54101A"/>
<path id="Vector_2" d="M33.1774 0.222656H8.54565L0.960938 23.6438L20.8739 38.1215L40.7868 23.6438L33.1774 0.222656ZM4.88918 22.3591L10.9915 3.58266H30.7562L36.8586 22.3591L20.8739 33.9709L4.88918 22.3591Z" fill="url(#paint0_radial_1028_46245)"/>
<path id="Vector_3" opacity="0.3" d="M10.9922 3.55859L20.8745 33.9715L30.7569 3.55859H10.9922Z" fill="#8C1919"/>
<path id="Vector_4" d="M33.1769 0.222656H8.54513L6.79102 5.63324C7.87807 5.68266 9.01453 5.83089 10.1757 6.05325L10.991 3.58266H30.7557L36.8581 22.3591L34.5357 24.0391C35.0545 25.0521 35.5239 26.0897 35.9192 27.1768L40.7863 23.6438L33.1769 0.222656Z" fill="url(#paint1_radial_1028_46245)"/>
<path id="Vector_5" d="M33.1769 0.222656H8.54513L6.79102 5.63324C7.87807 5.68266 9.01453 5.83089 10.1757 6.05325L10.991 3.58266H30.7557L36.8581 22.3591L34.5357 24.0391C35.0545 25.0521 35.5239 26.0897 35.9192 27.1768L40.7863 23.6438L33.1769 0.222656Z" fill="url(#paint2_linear_1028_46245)"/>
<path id="Vector_6" d="M31.8433 30.1402C31.7198 28.8308 31.5221 27.5955 31.2751 26.4096L20.8986 33.9449L4.91388 22.3332L9.28682 8.84375C8.05153 8.86846 6.81624 9.01669 5.63036 9.26375L0.960938 23.6426L20.8739 38.1202L31.8433 30.1402Z" fill="url(#paint3_linear_1028_46245)"/>
<path id="Vector_7" d="M4.88867 22.3598L6.46984 21.9892L11.9793 5.06565H29.7675L35.2769 21.9892L36.8581 22.3598L30.7557 3.55859H10.991L4.88867 22.3598Z" fill="#9B1B2E"/>
<path id="Vector_8" opacity="0.2" d="M6.4707 21.9899L9.55894 14.0841C11.3872 9.41464 15.8837 7.38876 20.8989 7.38876C25.9389 7.38876 30.4601 9.43935 32.2637 14.1582L35.2778 21.9899L29.7684 5.06641H11.9554L6.4707 21.9899Z" fill="#892334"/>
<path id="Vector_9" d="M4.88867 22.3589L6.46984 21.9883L20.8734 32.4636L35.2769 21.9883L36.8581 22.3589L20.8734 33.9706L4.88867 22.3589Z" fill="url(#paint4_linear_1028_46245)"/>
<path id="Vector_10" opacity="0.6" d="M6.4707 21.9873L12.1284 7.48495C12.4001 6.79318 13.0672 6.32377 13.8331 6.32377H28.0389C28.8048 6.32377 29.4719 6.79318 29.7436 7.48495L35.3025 21.9626L29.7931 5.03906H11.9801L6.4707 21.9873Z" fill="#892334"/>
<path id="Vector_11" d="M10.9922 3.55859L11.9804 5.06565H29.7687L30.7569 3.55859H10.9922Z" fill="#661625"/>
<path id="Vector_12" opacity="0.35" d="M3.67858 15.2422L1.77623 22.3822C1.62799 22.9998 1.92447 23.8151 2.41859 24.1857L20.8739 38.0951L0.960938 23.6422L3.67858 15.2422Z" fill="#9B1B2E"/>
<path id="Vector_13" opacity="0.6" d="M6.4707 21.9883L20.2072 31.253C20.5778 31.5 21.1707 31.5 21.5413 31.253L35.2778 21.9883L20.8742 32.4636L6.4707 21.9883Z" fill="#892334"/>
<path id="Vector_14" opacity="0.35" d="M20.873 38.0975L38.6119 24.3858C39.8472 23.4717 40.1189 23.274 39.5507 21.4952L35.8448 8.42578L40.786 23.6199L20.873 38.0975Z" fill="#9B1B2E"/>
<path id="Vector_15" opacity="0.35" d="M4.12305 13.8603L8.29835 1.92736C8.71835 0.716774 9.03953 0.395597 10.3242 0.346186L20.8736 0.222656H8.57011L4.12305 13.8603Z" fill="#9B1B2E"/>
<path id="Vector_16" d="M12.0781 27.5725L20.8734 33.9713L32.757 25.3242L20.8734 34.5148L12.0781 27.5725Z" fill="#FFF5CC"/>
<path id="Vector_17" d="M20.207 0.222656H33.1776L35.8706 8.44972L32.6835 0.667363L20.207 0.222656Z" fill="#FFF5CC"/>
<path id="Vector_18" d="M25.371 0.222656C25.2721 1.28501 25.7168 2.4956 26.631 3.58266H30.7568L31.7698 6.7203C33.0545 7.04148 34.2898 7.04148 35.3027 6.76972L33.178 0.222656H25.371Z" fill="#FFF2BB"/>
<path id="Vector_19" d="M24.3814 2.07398C23.5167 1.45633 22.4791 1.40692 22.0591 1.97516C21.7626 2.39516 21.8615 3.0128 22.2567 3.55633H25.345C25.2956 3.06221 24.9497 2.49398 24.3814 2.07398Z" fill="#FFF2BB"/>
<path id="Vector_20" d="M10.9913 26.7812C10.6701 27.5718 11.2384 28.7824 12.3748 29.5977C13.5113 30.413 14.8207 30.586 15.4878 30.0424L10.9913 26.7812Z" fill="#FFF2BB"/>
<path id="Vector_21" opacity="0.6" d="M20.9477 28.041L8.8418 21.8398V22.8775L20.9477 31.6728L33.0536 22.8775V21.8398L20.9477 28.041Z" fill="#892334"/>
<path id="Vector_22" opacity="0.6" d="M20.9487 21.4216L10.5723 16.4805V17.3946L20.9487 24.9299L31.3005 17.3946V16.4805L20.9487 21.4216Z" fill="#892334"/>
<path id="Vector_23" opacity="0.6" d="M12.375 10.9961V12.0584L20.9479 18.2843L29.5209 12.0584V10.9961H12.375Z" fill="#892334"/>
<path id="Vector_24" d="M15.5368 32.24C15.3391 32.5365 14.8203 32.5365 14.3509 32.2153C13.8815 31.9188 13.6838 31.4494 13.8568 31.153C14.0544 30.8565 14.5732 30.8565 15.0426 31.1777C15.4874 31.4741 15.7097 31.9435 15.5368 32.24Z" fill="#FFF2BB"/>
<path id="Vector_25" d="M20.9477 26.8542L8.8418 20.1836V21.8389L20.9477 30.6342L33.0536 21.8389V20.1836L20.9477 26.8542Z" fill="#9B1B2E"/>
<path id="Vector_26" d="M20.9487 20.2335L10.5723 14.8477V16.4782L20.9487 24.0135L31.3005 16.4782V14.8477L20.9487 20.2335Z" fill="#9B1B2E"/>
<path id="Vector_27" d="M12.375 9.33984V10.9951L20.9479 17.221L29.5209 10.9951V9.33984H12.375Z" fill="#9B1B2E"/>
<path id="Vector_28" d="M20.9477 25.1987L9.83003 17.1445L8.8418 20.1834L20.9477 28.9787L33.0536 20.1834L32.0653 17.1445L20.9477 25.1987Z" fill="url(#paint5_radial_1028_46245)"/>
<path id="Vector_29" d="M20.9487 18.5793L11.5852 11.7852L10.5723 14.8487L20.9487 22.3593L31.3005 14.8487L30.3123 11.7852L20.9487 18.5793Z" fill="url(#paint6_radial_1028_46245)"/>
<path id="Vector_30" d="M13.4621 5.95312L12.375 9.33783L20.9479 15.5884L29.5209 9.33783L28.4338 5.95312H13.4621Z" fill="url(#paint7_radial_1028_46245)"/>
<path id="Vector_31" d="M13.2148 6.74635C17.1431 7.93223 21.1948 9.98282 24.8513 12.7499L29.5207 9.36517L28.409 5.98047H13.4619L13.2148 6.74635Z" fill="url(#paint8_linear_1028_46245)"/>
<path id="Vector_32" d="M26.8027 14.3299C27.5933 14.9969 28.3345 15.7134 29.051 16.4546L31.2992 14.824L30.311 11.7852L26.8027 14.3299Z" fill="url(#paint9_linear_1028_46245)"/>
<path id="Vector_33" d="M30.6328 18.1822C31.2999 18.9481 31.9175 19.7634 32.4858 20.6034L33.054 20.1834L32.0658 17.1445L30.6328 18.1822Z" fill="url(#paint10_linear_1028_46245)"/>
<path id="Vector_34" d="M23.6162 13.6382C20.3303 10.9946 16.4021 9.46287 12.4985 8.96875L12.375 9.33934L20.9479 15.5652L23.6162 13.6382Z" fill="url(#paint11_linear_1028_46245)"/>
<path id="Vector_35" d="M27.4204 17.6652C26.8028 16.8252 26.1604 16.0346 25.4439 15.3181L20.9475 18.5793L11.5839 11.7852L10.5957 14.824L20.9475 22.3593L27.4204 17.6652Z" fill="url(#paint12_linear_1028_46245)"/>
<path id="Vector_36" d="M30.0394 22.3822C29.6441 21.3939 29.1994 20.4551 28.6806 19.5904L20.9477 25.1987L9.83003 17.1445L8.8418 20.1834L20.9477 28.9787L30.0394 22.3822Z" fill="url(#paint13_linear_1028_46245)"/>
<path id="Vector_37" d="M20.9479 15.5904V17.221L12.375 10.9951V9.33984L20.9479 15.5904Z" fill="#661625"/>
<path id="Vector_38" d="M10.5723 14.8477L20.9487 22.3582V24.0135L10.5723 16.4782V14.8477Z" fill="#661625"/>
<path id="Vector_39" d="M8.8418 20.1836L20.9477 28.9789V30.6342L8.8418 21.8389V20.1836Z" fill="#661625"/>
<path id="Vector_40" d="M13.6094 19.8867L20.8729 25.915L27.5682 20.3808L20.947 25.1985L13.6094 19.8867Z" fill="#FFF5CC"/>
<path id="Vector_41" d="M13.6094 13.2656L20.8729 19.1456L26.4564 14.5997L20.947 18.5774L13.6094 13.2656Z" fill="#FFF5CC"/>
<path id="Vector_42" d="M21.1211 5.95312L27.4211 6.20018C27.9152 6.22489 28.1128 6.42254 28.3846 6.94136L29.5211 9.33783L28.4093 5.95312H21.1211Z" fill="#FFF5CC"/>
<path id="Vector_43" opacity="0.35" d="M11.5839 11.7852L11.1639 14.2063C11.1392 14.4534 11.1886 14.7499 11.3863 14.9228L19.6133 21.3957L10.5957 14.8487L11.5839 11.7852Z" fill="#9B1B2E"/>
<path id="Vector_44" opacity="0.35" d="M9.83003 17.1445L9.41003 19.3928C9.33591 19.7634 9.41004 20.0598 9.63239 20.2575L17.2418 26.3104L8.8418 20.2081L9.83003 17.1445Z" fill="#9B1B2E"/>
<path id="Vector_45" opacity="0.35" d="M27.8164 17.3921L30.4105 15.0451C30.6823 14.7733 30.7317 14.3039 30.6823 13.9086L30.3364 11.8086L31.3246 14.8474L27.8164 17.3921Z" fill="#9B1B2E"/>
<path id="Vector_46" opacity="0.35" d="M27.2734 24.3834L32.0417 20.3563C32.3381 20.0845 32.4864 19.8128 32.3876 19.2198L32.0417 17.1445L33.0299 20.1834L27.2734 24.3834Z" fill="#9B1B2E"/>
<path id="Vector_47" opacity="0.35" d="M13.4614 5.95312L13.0908 7.9296C12.9178 8.7696 13.3131 9.31312 13.8567 9.80724L19.9096 14.8225L12.3496 9.33783L13.4614 5.95312Z" fill="#9B1B2E"/>
</g>
</g>
<defs>
<radialGradient id="paint0_radial_1028_46245" cx="0" cy="0" r="1" gradientUnits="userSpaceOnUse" gradientTransform="translate(31.5153 1.4787) scale(31.6024 31.6024)">
<stop offset="0.0139665" stop-color="#E85621"/>
<stop offset="1" stop-color="#E33A0B"/>
</radialGradient>
<radialGradient id="paint1_radial_1028_46245" cx="0" cy="0" r="1" gradientUnits="userSpaceOnUse" gradientTransform="translate(37.2643 -2.82353) scale(43.72 43.7201)">
<stop offset="0.0139665" stop-color="#E85621"/>
<stop offset="1" stop-color="#E33A0B"/>
</radialGradient>
<linearGradient id="paint2_linear_1028_46245" x1="39.1509" y1="-5.9341" x2="19.3347" y2="18.5099" gradientUnits="userSpaceOnUse">
<stop stop-color="#FFA369"/>
<stop offset="0.1319" stop-color="#FE9E66"/>
<stop offset="0.2926" stop-color="#FA8F5C"/>
<stop offset="0.4684" stop-color="#F3764C"/>
<stop offset="0.6548" stop-color="#EA5436"/>
<stop offset="0.8476" stop-color="#DF281A"/>
<stop offset="1" stop-color="#D40000"/>
</linearGradient>
<linearGradient id="paint3_linear_1028_46245" x1="7.59481" y1="33.6557" x2="24.9192" y2="11.9409" gradientUnits="userSpaceOnUse">
<stop stop-color="#D40000"/>
<stop offset="1" stop-color="#FFAF47"/>
</linearGradient>
<linearGradient id="paint4_linear_1028_46245" x1="20.8704" y1="19.228" x2="20.8704" y2="25.8294" gradientUnits="userSpaceOnUse">
<stop offset="0.6285" stop-color="#F7814A"/>
<stop offset="1" stop-color="#F7E399"/>
</linearGradient>
<radialGradient id="paint5_radial_1028_46245" cx="0" cy="0" r="1" gradientUnits="userSpaceOnUse" gradientTransform="translate(34.0649 -1.28176) scale(42.0609 42.061)">
<stop offset="0.0139665" stop-color="#E85621"/>
<stop offset="1" stop-color="#E33A0B"/>
</radialGradient>
<radialGradient id="paint6_radial_1028_46245" cx="0" cy="0" r="1" gradientUnits="userSpaceOnUse" gradientTransform="translate(34.066 -1.28003) scale(42.0612 42.0612)">
<stop offset="0.0139665" stop-color="#E85621"/>
<stop offset="1" stop-color="#E33A0B"/>
</radialGradient>
<radialGradient id="paint7_radial_1028_46245" cx="0" cy="0" r="1" gradientUnits="userSpaceOnUse" gradientTransform="translate(34.0652 -1.28147) scale(42.0612 42.0612)">
<stop offset="0.0139665" stop-color="#E85621"/>
<stop offset="1" stop-color="#E33A0B"/>
</radialGradient>
<linearGradient id="paint8_linear_1028_46245" x1="32.7721" y1="-8.67254" x2="15.2896" y2="16.6415" gradientUnits="userSpaceOnUse">
<stop stop-color="#FFA369"/>
<stop offset="0.1319" stop-color="#FE9E66"/>
<stop offset="0.2926" stop-color="#FA8F5C"/>
<stop offset="0.4684" stop-color="#F3764C"/>
<stop offset="0.6548" stop-color="#EA5436"/>
<stop offset="0.8476" stop-color="#DF281A"/>
<stop offset="1" stop-color="#D40000"/>
</linearGradient>
<linearGradient id="paint9_linear_1028_46245" x1="41.1352" y1="-2.89772" x2="23.6527" y2="22.4164" gradientUnits="userSpaceOnUse">
<stop stop-color="#FFA369"/>
<stop offset="0.1319" stop-color="#FE9E66"/>
<stop offset="0.2926" stop-color="#FA8F5C"/>
<stop offset="0.4684" stop-color="#F3764C"/>
<stop offset="0.6548" stop-color="#EA5436"/>
<stop offset="0.8476" stop-color="#DF281A"/>
<stop offset="1" stop-color="#D40000"/>
</linearGradient>
<linearGradient id="paint10_linear_1028_46245" x1="45.1669" y1="-0.115739" x2="27.6843" y2="25.1984" gradientUnits="userSpaceOnUse">
<stop stop-color="#FFA369"/>
<stop offset="0.1319" stop-color="#FE9E66"/>
<stop offset="0.2926" stop-color="#FA8F5C"/>
<stop offset="0.4684" stop-color="#F3764C"/>
<stop offset="0.6548" stop-color="#EA5436"/>
<stop offset="0.8476" stop-color="#DF281A"/>
<stop offset="1" stop-color="#D40000"/>
</linearGradient>
<linearGradient id="paint11_linear_1028_46245" x1="5.41745" y1="33.158" x2="18.8656" y2="9.90056" gradientUnits="userSpaceOnUse">
<stop stop-color="#D40000"/>
<stop offset="1" stop-color="#FFAF47"/>
</linearGradient>
<linearGradient id="paint12_linear_1028_46245" x1="7.98352" y1="34.6419" x2="21.4316" y2="11.3846" gradientUnits="userSpaceOnUse">
<stop stop-color="#D40000"/>
<stop offset="1" stop-color="#FFAF47"/>
</linearGradient>
<linearGradient id="paint13_linear_1028_46245" x1="10.4901" y1="36.0894" x2="23.9383" y2="12.832" gradientUnits="userSpaceOnUse">
<stop stop-color="#D40000"/>
<stop offset="1" stop-color="#FFAF47"/>
</linearGradient>
</defs>
</svg>
