<svg width="40" height="39" viewBox="0 0 40 39" fill="none" xmlns="http://www.w3.org/2000/svg">
<g id="Group">
<g id="Group_2">
<path id="Vector" d="M19.9274 36.9602L38.7533 23.2732L31.5639 1.13672H8.29097L1.10156 23.2732L19.9274 36.9602Z" fill="#54101A"/>
<path id="Vector_2" d="M32.2301 0.222656H7.59838L0.0136719 23.6438L19.9266 38.1215L39.8396 23.6438L32.2301 0.222656ZM3.94191 22.3591L10.0443 3.58266H29.809L35.9113 22.3591L19.9266 33.9709L3.94191 22.3591Z" fill="url(#paint0_radial_1028_46204)"/>
<path id="Vector_3" opacity="0.3" d="M10.0449 3.55859L19.9273 33.9715L29.8096 3.55859H10.0449Z" fill="#8C1919"/>
<path id="Vector_4" d="M32.2296 0.222656H7.59787L5.84375 5.63324C6.93081 5.68266 8.06728 5.83089 9.22846 6.05325L10.0437 3.58266H29.8085L35.9108 22.3591L33.5885 24.0391C34.1073 25.0521 34.5767 26.0897 34.972 27.1768L39.839 23.6438L32.2296 0.222656Z" fill="url(#paint1_radial_1028_46204)"/>
<path id="Vector_5" d="M32.2296 0.222656H7.59787L5.84375 5.63324C6.93081 5.68266 8.06728 5.83089 9.22846 6.05325L10.0437 3.58266H29.8085L35.9108 22.3591L33.5885 24.0391C34.1073 25.0521 34.5767 26.0897 34.972 27.1768L39.839 23.6438L32.2296 0.222656Z" fill="url(#paint2_linear_1028_46204)"/>
<path id="Vector_6" d="M30.896 30.1402C30.7725 28.8308 30.5749 27.5955 30.3278 26.4096L19.9513 33.9449L3.96661 22.3332L8.33956 8.84375C7.10426 8.86846 5.86897 9.01669 4.68309 9.26375L0.0136719 23.6426L19.9266 38.1202L30.896 30.1402Z" fill="url(#paint3_linear_1028_46204)"/>
<path id="Vector_7" d="M3.94141 22.3598L5.52258 21.9892L11.032 5.06565H28.8202L34.3296 21.9892L35.9108 22.3598L29.8085 3.55859H10.0438L3.94141 22.3598Z" fill="#9B1B2E"/>
<path id="Vector_8" opacity="0.2" d="M5.52344 21.9899L8.61167 14.0841C10.4399 9.41464 14.9364 7.38876 19.9517 7.38876C24.9917 7.38876 29.5128 9.43935 31.3164 14.1582L34.3305 21.9899L28.8211 5.06641H11.0081L5.52344 21.9899Z" fill="#892334"/>
<path id="Vector_9" d="M3.94141 22.3589L5.52258 21.9883L19.9261 32.4636L34.3296 21.9883L35.9108 22.3589L19.9261 33.9706L3.94141 22.3589Z" fill="url(#paint4_linear_1028_46204)"/>
<path id="Vector_10" opacity="0.6" d="M5.52344 21.9873L11.1811 7.48495C11.4528 6.79318 12.1199 6.32377 12.8858 6.32377H27.0917C27.8576 6.32377 28.5246 6.79318 28.7964 7.48495L34.3552 21.9626L28.8458 5.03906H11.0328L5.52344 21.9873Z" fill="#892334"/>
<path id="Vector_11" d="M10.0449 3.55859L11.0332 5.06565H28.8214L29.8096 3.55859H10.0449Z" fill="#661625"/>
<path id="Vector_12" opacity="0.35" d="M2.73132 15.2422L0.82897 22.3822C0.680735 22.9998 0.977207 23.8151 1.47132 24.1857L19.9266 38.0951L0.0136719 23.6422L2.73132 15.2422Z" fill="#9B1B2E"/>
<path id="Vector_13" opacity="0.6" d="M5.52344 21.9883L19.2599 31.253C19.6305 31.5 20.2234 31.5 20.594 31.253L34.3305 21.9883L19.927 32.4636L5.52344 21.9883Z" fill="#892334"/>
<path id="Vector_14" opacity="0.35" d="M19.9258 38.0975L37.6646 24.3858C38.8999 23.4717 39.1717 23.274 38.6034 21.4952L34.8975 8.42578L39.8387 23.6199L19.9258 38.0975Z" fill="#9B1B2E"/>
<path id="Vector_15" opacity="0.35" d="M3.17578 13.8603L7.32637 1.92736C7.74637 0.716774 8.06755 0.395597 9.35225 0.346186L19.9017 0.222656H7.59813L3.17578 13.8603Z" fill="#9B1B2E"/>
<path id="Vector_16" d="M11.1309 27.5725L19.9262 33.9713L31.8097 25.3242L19.9262 34.5148L11.1309 27.5725Z" fill="#FFF5CC"/>
<path id="Vector_17" d="M19.2598 0.222656H32.2304L34.8986 8.44972L31.7362 0.667363L19.2598 0.222656Z" fill="#FFF5CC"/>
<path id="Vector_18" d="M24.4237 0.222656C24.3249 1.28501 24.7696 2.4956 25.6837 3.58266H29.8096L30.8225 6.7203C32.1072 7.04148 33.3425 7.04148 34.3555 6.76972L32.2308 0.222656H24.4237Z" fill="#FFF2BB"/>
<path id="Vector_19" d="M23.4342 2.07398C22.5695 1.45633 21.5318 1.40692 21.1118 1.97516C20.8154 2.39516 20.9142 3.0128 21.3095 3.55633H24.3977C24.3483 3.06221 24.0024 2.49398 23.4342 2.07398Z" fill="#FFF2BB"/>
<path id="Vector_20" d="M10.0441 26.7812C9.72288 27.5718 10.2911 28.7824 11.4276 29.5977C12.5641 30.413 13.8735 30.586 14.5405 30.0424L10.0441 26.7812Z" fill="#FFF2BB"/>
<path id="Vector_21" d="M14.5661 32.24C14.3684 32.5365 13.8496 32.5365 13.3802 32.2153C12.9108 31.9188 12.7131 31.4494 12.8861 31.153C13.0837 30.8565 13.6025 30.8565 14.072 31.1777C14.5414 31.4741 14.7637 31.9435 14.5661 32.24Z" fill="#FFF2BB"/>
<path id="Vector_22" opacity="0.6" d="M19.9268 18.4551L10.6621 14.1562V15.3668L19.9268 22.0868L29.1915 15.3668V14.1562L19.9268 18.4551Z" fill="#892334"/>
<path id="Vector_23" opacity="0.6" d="M19.926 26.0416L8.66016 20.2852V21.4957L19.926 29.6734L31.1672 21.4957V20.2852L19.926 26.0416Z" fill="#892334"/>
<path id="Vector_24" d="M19.9268 17.1198L10.6621 12.3516V14.1551L19.9268 20.8998L29.1915 14.1551V12.3516L19.9268 17.1198Z" fill="#9B1B2E"/>
<path id="Vector_25" d="M19.926 24.6816L8.66016 18.4805V20.284L19.926 28.4616L31.1672 20.284V18.4805L19.926 24.6816Z" fill="#9B1B2E"/>
<path id="Vector_26" d="M19.9268 15.316L11.6503 9.3125L10.6621 12.3513L19.9268 19.096L29.1915 12.3513L28.2033 9.3125L19.9268 15.316Z" fill="url(#paint5_radial_1028_46204)"/>
<path id="Vector_27" d="M19.926 22.8779L9.64839 15.4414L8.66016 18.4802L19.926 26.6579L31.1672 18.4802L30.179 15.4414L19.926 22.8779Z" fill="url(#paint6_radial_1028_46204)"/>
<path id="Vector_28" d="M28.2021 9.3125L23.6562 12.5984C24.4963 13.216 25.3116 13.8831 26.1021 14.5996L29.1657 12.376L28.2021 9.3125Z" fill="url(#paint7_linear_1028_46204)"/>
<path id="Vector_29" d="M28.377 16.7743C29.0687 17.5154 29.7605 18.2813 30.3781 19.0966L31.1934 18.5037L30.2052 15.4648L28.377 16.7743Z" fill="url(#paint8_linear_1028_46204)"/>
<path id="Vector_30" d="M24.7445 15.5878C24.028 14.8219 23.2374 14.1054 22.4468 13.4878L19.9515 15.2913L11.6503 9.3125L10.6621 12.3513L19.9268 19.096L24.7445 15.5878Z" fill="url(#paint9_linear_1028_46204)"/>
<path id="Vector_31" d="M19.926 26.6579L28.2519 20.6049C27.7825 19.6661 27.239 18.8014 26.6708 17.9861L19.926 22.8779L9.64839 15.4414L8.66016 18.4802L19.926 26.6579Z" fill="url(#paint10_linear_1028_46204)"/>
<path id="Vector_32" d="M10.6621 12.3516L19.9268 19.0963V20.8998L10.6621 14.1551V12.3516Z" fill="#661625"/>
<path id="Vector_33" d="M8.66016 18.4805L19.926 26.6581V28.4616L8.66016 20.284V18.4805Z" fill="#661625"/>
<path id="Vector_34" d="M13.0586 10.3281L19.9268 15.8375L25.8809 10.9952L19.9268 15.3187L13.0586 10.3281Z" fill="#FFF5CC"/>
<path id="Vector_35" d="M13.4531 18.1848L19.9261 23.6201L27.832 17.1719L19.9261 22.8789L13.4531 18.1848Z" fill="#FFF5CC"/>
<path id="Vector_36" opacity="0.35" d="M11.6497 9.3125L11.3038 11.3137C11.2544 11.9313 11.3779 12.2525 11.8473 12.6478L19.9014 19.0713L10.6367 12.3266L11.6497 9.3125Z" fill="#9B1B2E"/>
<path id="Vector_37" opacity="0.35" d="M9.64965 15.4414L9.32848 17.4426C9.27907 17.8626 9.37789 18.3814 9.69907 18.6532L19.9026 26.6579L8.63672 18.4802L9.64965 15.4414Z" fill="#9B1B2E"/>
<path id="Vector_38" opacity="0.35" d="M25.5352 15.0203L27.8575 12.8956C28.3516 12.4509 28.5987 11.7838 28.5246 11.1414L28.3763 9.83203L29.1916 12.3767L25.5352 15.0203Z" fill="#9B1B2E"/>
<path id="Vector_39" opacity="0.35" d="M25.5352 22.5797L30.1057 18.6514C30.5257 18.3056 30.674 17.9103 30.6246 17.3667L30.4022 16.082L31.1928 18.4785L25.5352 22.5797Z" fill="#9B1B2E"/>
</g>
</g>
<defs>
<radialGradient id="paint0_radial_1028_46204" cx="0" cy="0" r="1" gradientUnits="userSpaceOnUse" gradientTransform="translate(30.5668 1.4787) scale(31.6024 31.6024)">
<stop offset="0.0139665" stop-color="#E85621"/>
<stop offset="1" stop-color="#E33A0B"/>
</radialGradient>
<radialGradient id="paint1_radial_1028_46204" cx="0" cy="0" r="1" gradientUnits="userSpaceOnUse" gradientTransform="translate(36.3158 -2.82353) scale(43.7201)">
<stop offset="0.0139665" stop-color="#E85621"/>
<stop offset="1" stop-color="#E33A0B"/>
</radialGradient>
<linearGradient id="paint2_linear_1028_46204" x1="38.2024" y1="-5.9341" x2="18.3861" y2="18.5099" gradientUnits="userSpaceOnUse">
<stop stop-color="#FFA369"/>
<stop offset="0.1319" stop-color="#FE9E66"/>
<stop offset="0.2926" stop-color="#FA8F5C"/>
<stop offset="0.4684" stop-color="#F3764C"/>
<stop offset="0.6548" stop-color="#EA5436"/>
<stop offset="0.8476" stop-color="#DF281A"/>
<stop offset="1" stop-color="#D40000"/>
</linearGradient>
<linearGradient id="paint3_linear_1028_46204" x1="6.64624" y1="33.6557" x2="23.9706" y2="11.9409" gradientUnits="userSpaceOnUse">
<stop stop-color="#D40000"/>
<stop offset="1" stop-color="#FFAF47"/>
</linearGradient>
<linearGradient id="paint4_linear_1028_46204" x1="19.9219" y1="19.228" x2="19.9219" y2="25.8294" gradientUnits="userSpaceOnUse">
<stop offset="0.6285" stop-color="#F7814A"/>
<stop offset="1" stop-color="#F7E399"/>
</linearGradient>
<radialGradient id="paint5_radial_1028_46204" cx="0" cy="0" r="1" gradientUnits="userSpaceOnUse" gradientTransform="translate(29.8858 2.8611) scale(32.0237 32.0237)">
<stop offset="0.0139665" stop-color="#E85621"/>
<stop offset="1" stop-color="#E33A0B"/>
</radialGradient>
<radialGradient id="paint6_radial_1028_46204" cx="0" cy="0" r="1" gradientUnits="userSpaceOnUse" gradientTransform="translate(29.885 2.86298) scale(32.0237 32.0236)">
<stop offset="0.0139665" stop-color="#E85621"/>
<stop offset="1" stop-color="#E33A0B"/>
</radialGradient>
<linearGradient id="paint7_linear_1028_46204" x1="37.8963" y1="-4.80177" x2="19.9392" y2="22.2526" gradientUnits="userSpaceOnUse">
<stop stop-color="#FFA369"/>
<stop offset="0.1319" stop-color="#FE9E66"/>
<stop offset="0.2926" stop-color="#FA8F5C"/>
<stop offset="0.4684" stop-color="#F3764C"/>
<stop offset="0.6548" stop-color="#EA5436"/>
<stop offset="0.8476" stop-color="#DF281A"/>
<stop offset="1" stop-color="#D40000"/>
</linearGradient>
<linearGradient id="paint8_linear_1028_46204" x1="42.5919" y1="-1.68577" x2="24.6347" y2="25.3688" gradientUnits="userSpaceOnUse">
<stop stop-color="#FFA369"/>
<stop offset="0.1319" stop-color="#FE9E66"/>
<stop offset="0.2926" stop-color="#FA8F5C"/>
<stop offset="0.4684" stop-color="#F3764C"/>
<stop offset="0.6548" stop-color="#EA5436"/>
<stop offset="0.8476" stop-color="#DF281A"/>
<stop offset="1" stop-color="#D40000"/>
</linearGradient>
<linearGradient id="paint9_linear_1028_46204" x1="2.88677" y1="30.5547" x2="20.2111" y2="10.0661" gradientUnits="userSpaceOnUse">
<stop stop-color="#D40000"/>
<stop offset="1" stop-color="#FFAF47"/>
</linearGradient>
<linearGradient id="paint10_linear_1028_46204" x1="6.07869" y1="33.2561" x2="23.403" y2="12.7675" gradientUnits="userSpaceOnUse">
<stop stop-color="#D40000"/>
<stop offset="1" stop-color="#FFAF47"/>
</linearGradient>
</defs>
</svg>
