<svg width="62" height="38" viewBox="0 0 62 38" fill="none" xmlns="http://www.w3.org/2000/svg">
<g id="Group">
<g id="Group_2">
<path id="Vector" d="M30.5114 36.7845L49.362 23.0974L42.1479 0.960938H18.875L11.6855 23.0974L30.5114 36.7845Z" fill="#54101A"/>
<path id="Vector_2" opacity="0.3" d="M20.6543 3.38281L30.5366 33.771L40.3943 3.38281H20.6543Z" fill="#8C1919"/>
<path id="Vector_3" d="M42.8408 0.0234375H18.209L10.5996 23.4446L30.5126 37.9223L50.4255 23.4446L42.8408 0.0234375ZM14.5278 22.1599L20.6302 3.38344H40.3949L46.4973 22.1599L30.5126 33.7717L14.5278 22.1599Z" fill="url(#paint0_radial_1028_46560)"/>
<path id="Vector_4" d="M42.839 0.0234375H18.2072L16.4531 5.43402C17.5402 5.48344 18.6767 5.63167 19.8378 5.85403L20.6531 3.38344H40.4178L46.5202 22.1599L44.1978 23.8399C44.7167 24.8528 45.1861 25.8905 45.5814 26.9776L50.4484 23.4446L42.839 0.0234375Z" fill="url(#paint1_radial_1028_46560)"/>
<path id="Vector_5" d="M42.839 0.0234375H18.2072L16.4531 5.43402C17.5402 5.48344 18.6767 5.63167 19.8378 5.85403L20.6531 3.38344H40.4178L46.5202 22.1599L44.1978 23.8399C44.7167 24.8528 45.1861 25.8905 45.5814 26.9776L50.4484 23.4446L42.839 0.0234375Z" fill="url(#paint2_linear_1028_46560)"/>
<path id="Vector_6" d="M41.482 29.9683C41.3584 28.6589 41.1608 27.4236 40.9137 26.2378L30.5373 33.7731L14.5526 22.1613L18.9255 8.67188C17.6902 8.69658 16.4549 8.84481 15.269 9.09187L10.5996 23.446L30.5126 37.9236L41.482 29.9683Z" fill="url(#paint3_linear_1028_46560)"/>
<path id="Vector_7" d="M14.5273 22.1593L16.1085 21.8134L21.6179 4.88987H39.4309L44.9156 21.8134L46.4968 22.1593L40.3944 3.38281H20.6297L14.5273 22.1593Z" fill="#9B1B2E"/>
<path id="Vector_8" opacity="0.2" d="M16.1074 21.8142L19.1957 13.9083C21.0239 9.23886 25.5204 7.21298 30.5357 7.21298C35.5757 7.21298 40.0968 9.26357 41.9004 13.9824L44.9145 21.8142L39.4051 4.89062H21.5921L16.1074 21.8142Z" fill="#2753A0"/>
<path id="Vector_9" d="M14.5273 22.1584L16.1085 21.8125L30.5121 32.2878L44.9156 21.8125L46.4968 22.1584L30.5121 33.7702L14.5273 22.1584Z" fill="url(#paint4_linear_1028_46560)"/>
<path id="Vector_10" opacity="0.6" d="M16.1074 21.8154L21.7651 7.31307C22.0368 6.6213 22.7039 6.15189 23.4698 6.15189H37.651C38.4168 6.15189 39.0839 6.6213 39.3557 7.31307L44.9145 21.7907L39.4051 4.86719H21.5921L16.1074 21.8154Z" fill="#2753A0"/>
<path id="Vector_11" d="M20.6289 3.38281L21.6171 4.88987H39.4301L40.3936 3.38281H20.6289Z" fill="#661625"/>
<path id="Vector_12" opacity="0.35" d="M13.3173 15.043L11.4149 22.183C11.2667 22.8006 11.5631 23.6159 12.0573 23.9865L30.5126 37.8959L10.5996 23.4183L13.3173 15.043Z" fill="#9E2C19"/>
<path id="Vector_13" opacity="0.6" d="M16.1074 21.8125L29.8439 31.0772C30.2145 31.3243 30.8074 31.3243 31.178 31.0772L44.9145 21.8125L30.511 32.2878L16.1074 21.8125Z" fill="#2753A0"/>
<path id="Vector_14" opacity="0.35" d="M30.5117 37.9218L48.2505 24.21C49.4858 23.2959 49.7576 23.0982 49.1894 21.3194L45.4835 8.25L50.4247 23.4441L30.5117 37.9218Z" fill="#9E2C19"/>
<path id="Vector_15" d="M21.7168 27.3967L30.5121 33.7708L42.3956 25.1484L30.5121 34.3143L21.7168 27.3967Z" fill="#F3FEFF"/>
<path id="Vector_16" d="M29.8457 0.0234375H42.841L45.5092 8.2752L42.3469 0.492848L29.8457 0.0234375Z" fill="#F3FEFF"/>
<path id="Vector_17" d="M35.0077 0.0234375C34.9088 1.08579 35.3536 2.29638 36.2677 3.38344H40.3936L41.4065 6.52108C42.6912 6.84226 43.9265 6.84226 44.9394 6.5705L42.8147 0.0234375H35.0077Z" fill="white"/>
<path id="Vector_18" d="M20.6534 26.6055C20.3323 27.3961 20.9005 28.6066 22.037 29.4219C23.1734 30.2372 24.4828 30.4102 25.1499 29.8666L20.6534 26.6055Z" fill="white"/>
<path id="Vector_19" d="M25.1754 32.0681C24.9778 32.3646 24.459 32.3646 23.9896 32.0434C23.5201 31.747 23.3225 31.2775 23.4954 30.9811C23.6931 30.6846 24.2119 30.6846 24.6813 31.0058C25.1507 31.3023 25.3731 31.7717 25.1754 32.0681Z" fill="white"/>
<path id="Vector_20" d="M16.2565 0.197845L15.4906 6.42373C13.7118 6.42373 12.2047 6.39902 9.53647 6.39902C0.049411 6.39902 0 0.148438 0 0.148438L16.2565 0.197845Z" fill="#661625"/>
<path id="Vector_21" d="M16.2565 0.197845L14.6506 5.06491C12.8718 5.06491 12.5753 5.0402 9.88235 5.0402C0.395296 5.0402 0 0.148438 0 0.148438L16.2565 0.197845Z" fill="url(#paint5_radial_1028_46560)"/>
<path id="Vector_22" d="M13.8604 7.608L13.1193 13.8339C11.3404 13.8339 13.5146 13.8339 10.8216 13.8339C1.33457 13.8339 1.28516 7.55859 1.28516 7.55859L13.8604 7.608Z" fill="#661625"/>
<path id="Vector_23" d="M13.8604 7.60673L12.2793 12.4985C10.5005 12.4985 13.8604 12.4738 11.1922 12.4738C1.70515 12.4738 1.28516 7.58203 1.28516 7.58203L13.8604 7.60673Z" fill="url(#paint6_radial_1028_46560)"/>
<path id="Vector_24" d="M11.4629 14.9974L4.76758 14.9727C4.76758 14.9727 5.80522 19.6668 10.697 21.2479L11.4629 14.9974Z" fill="#661625"/>
<path id="Vector_25" d="M11.4629 14.9974L4.76758 14.9727C4.76758 14.9727 4.96522 18.3079 9.85699 19.8891L11.4629 14.9974Z" fill="url(#paint7_radial_1028_46560)"/>
<path id="Vector_26" d="M16.257 0.195312L17.0723 1.75179L15.5158 6.4212L14.6758 5.06237L16.257 0.195312Z" fill="#9B1B2E"/>
<path id="Vector_27" d="M13.8605 7.60938L14.6758 9.14114L13.1193 13.8353L12.2793 12.4764L13.8605 7.60938Z" fill="#9B1B2E"/>
<path id="Vector_28" d="M11.464 14.9961L12.2546 16.5279L10.7228 21.2467L9.88281 19.8879L11.464 14.9961Z" fill="#9B1B2E"/>
<path id="Vector_29" d="M44.7676 0.197845L45.5335 6.42373C47.3123 6.42373 48.8193 6.39902 51.4876 6.39902C60.9746 6.39902 61.0241 0.148438 61.0241 0.148438L44.7676 0.197845Z" fill="#661625"/>
<path id="Vector_30" d="M44.7676 0.197845L46.3735 5.06491C48.1523 5.06491 48.4488 5.0402 51.1417 5.0402C60.6288 5.0402 61.0241 0.148438 61.0241 0.148438L44.7676 0.197845Z" fill="url(#paint8_radial_1028_46560)"/>
<path id="Vector_31" d="M47.1875 7.608L47.9287 13.8339C49.7075 13.8339 47.5334 13.8339 50.2263 13.8339C59.7134 13.8339 59.7628 7.55859 59.7628 7.55859L47.1875 7.608Z" fill="#661625"/>
<path id="Vector_32" d="M47.1875 7.60673L48.7687 12.4985C50.5475 12.4985 47.1875 12.4738 49.8557 12.4738C59.3428 12.4738 59.7628 7.58203 59.7628 7.58203L47.1875 7.60673Z" fill="url(#paint9_radial_1028_46560)"/>
<path id="Vector_33" d="M49.584 14.9974L56.2793 14.9727C56.2793 14.9727 55.2416 19.6668 50.3499 21.2479L49.584 14.9974Z" fill="#661625"/>
<path id="Vector_34" d="M49.584 14.9974L56.2793 14.9727C56.2793 14.9727 56.0816 18.3079 51.1899 19.8891L49.584 14.9974Z" fill="url(#paint10_radial_1028_46560)"/>
<path id="Vector_35" d="M44.7676 0.197845L46.3735 5.06491C48.1523 5.06491 48.4488 5.0402 51.1417 5.0402C60.6288 5.0402 61.0241 0.148438 61.0241 0.148438L44.7676 0.197845Z" fill="url(#paint11_linear_1028_46560)"/>
<path id="Vector_36" d="M47.1875 7.60673L48.7687 12.4985C50.5475 12.4985 47.1875 12.4738 49.8557 12.4738C59.3428 12.4738 59.7628 7.58203 59.7628 7.58203L47.1875 7.60673Z" fill="url(#paint12_linear_1028_46560)"/>
<path id="Vector_37" d="M49.584 14.9974L56.2793 14.9727C56.2793 14.9727 56.0816 18.3079 51.1899 19.8891L49.584 14.9974Z" fill="url(#paint13_linear_1028_46560)"/>
<path id="Vector_38" d="M44.7671 0.195312L43.9766 1.75179L45.533 6.4212L46.373 5.06237L44.7671 0.195312Z" fill="#9B1B2E"/>
<path id="Vector_39" d="M47.1883 7.60938L46.373 9.14114L47.9295 13.8353L48.7695 12.4764L47.1883 7.60938Z" fill="#9B1B2E"/>
<path id="Vector_40" d="M49.5855 14.9961L48.7949 16.5279L50.3267 21.2467L51.1667 19.8879L49.5855 14.9961Z" fill="#9B1B2E"/>
<path id="Vector_41" d="M16.2565 0.196575L0 0.171875C0 0.171875 0.395296 5.06364 9.88235 5.06364C12.5506 5.06364 12.8471 5.06364 14.6506 5.08834L16.2565 0.196575Z" fill="url(#paint14_linear_1028_46560)"/>
<path id="Vector_42" d="M1.28516 7.55859C1.28516 7.55859 1.35927 8.34918 2.05104 9.31271C3.08869 8.71977 4.24986 8.12683 5.46045 7.5833L1.28516 7.55859Z" fill="url(#paint15_linear_1028_46560)"/>
<path id="Vector_43" d="M11.4629 14.9974L4.76758 14.9727C4.76758 14.9727 4.96522 18.3079 9.85699 19.8891L11.4629 14.9974Z" fill="url(#paint16_linear_1028_46560)"/>
<path id="Vector_44" d="M12.2794 12.4753L13.2182 9.60938C11.9582 10.0294 10.7476 10.5729 9.63587 11.24C9.16645 11.5117 8.64763 11.8576 8.05469 12.2529C8.96881 12.3764 10.0065 12.4506 11.1923 12.4506C13.8606 12.4506 10.5006 12.4753 12.2794 12.4753Z" fill="url(#paint17_linear_1028_46560)"/>
<path id="Vector_45" opacity="0.35" d="M13.7852 13.6845L17.9357 1.75158C18.3557 0.540991 18.6769 0.219816 19.9616 0.170404L30.511 0.046875H18.2075L13.7852 13.6845Z" fill="#9E2C19"/>
<path id="Vector_46" d="M34.2428 1.90211C33.3781 1.28446 32.3404 1.23504 31.9204 1.80328C31.624 2.22328 31.7228 2.84093 32.1181 3.38446H35.2063C35.1569 2.89034 34.811 2.32211 34.2428 1.90211Z" fill="white"/>
<path id="Vector_47" opacity="0.35" fill-rule="evenodd" clip-rule="evenodd" d="M48.4488 4.69179C47.3617 4.59296 46.6205 4.19767 46.1264 3.23414L44.7676 0.195312L46.3735 5.06237C48.1523 5.06237 48.4488 5.03767 51.1417 5.03767C52.6488 5.03767 53.9335 4.91414 55.0205 4.71649C52.6488 5.01296 50.2523 4.86473 48.4488 4.69179Z" fill="#9E2C19"/>
<path id="Vector_48" opacity="0.35" fill-rule="evenodd" clip-rule="evenodd" d="M49.857 12.4764C52.1546 12.4764 53.9088 12.2047 55.2676 11.76C53.3158 12.3035 51.6852 12.2541 50.4252 12.18C49.5605 12.1306 48.8688 11.4882 48.4982 10.7223L47.1641 7.60938L48.7452 12.5011C50.5488 12.4764 47.1888 12.4517 49.857 12.4764Z" fill="#9E2C19"/>
<path id="Vector_49" opacity="0.35" fill-rule="evenodd" clip-rule="evenodd" d="M51.1652 19.8866C52.2275 19.5407 53.0675 19.1207 53.7346 18.676C52.944 18.9725 51.4616 19.1948 51.4616 19.1948L49.584 15.0195L51.1652 19.8866Z" fill="#9E2C19"/>
<path id="Vector_50" opacity="0.35" d="M9.90774 5.06247C12.576 5.06247 12.8724 5.06247 14.676 5.08717L15.936 1.23306L14.9972 3.33306C14.5525 4.44482 14.2807 4.81541 13.1689 4.81541C11.983 4.81541 9.7348 4.7907 8.57363 4.76599C3.58304 4.56835 0.667744 2.41894 0.0253906 0.195406C0.0253906 0.1707 0.420684 5.06247 9.90774 5.06247Z" fill="#9E2C19"/>
<path id="Vector_51" opacity="0.35" d="M12.477 11.0421C12.1806 11.6844 11.8594 12.2032 11.1429 12.1785C10.4265 12.1538 8.37587 12.1291 7.2394 11.8821C4.54646 11.2644 2.94057 10.2762 1.85352 9.0409C2.76763 10.4738 5.1394 12.475 11.1923 12.475C13.8606 12.475 10.5006 12.475 12.2794 12.4997L13.5888 8.47266L12.477 11.0421Z" fill="#9E2C19"/>
<path id="Vector_52" opacity="0.35" d="M9.88193 19.888L11.2655 15.6386C10.9937 16.1821 10.4996 17.4421 9.95605 18.6033C9.61016 19.3939 9.26428 19.2951 8.72075 19.0727C6.00311 17.9362 5.36075 16.5774 4.79252 14.9962C4.76781 14.9715 4.99017 18.3068 9.88193 19.888Z" fill="#9E2C19"/>
<path id="Vector_53" d="M44.7676 0.197845L59.6158 0.444904C60.2088 0.444904 60.4805 0.914315 60.2335 1.43314C59.9617 2.00137 59.5417 2.66844 58.8252 3.23667C60.8758 1.85314 61.0241 0.148438 61.0241 0.148438L44.7676 0.197845Z" fill="#F3FEFF"/>
<path id="Vector_54" d="M47.1875 7.608L58.1569 7.85506C59.4416 7.87977 59.2193 8.4233 58.8981 9.09035C58.7004 9.51035 58.404 9.95506 58.0334 10.3256C59.664 9.01624 59.7875 7.55859 59.7875 7.55859L47.1875 7.608Z" fill="#F3FEFF"/>
<path id="Vector_55" d="M55.1181 17.4185C56.2052 16.1338 56.2546 14.9727 56.2546 14.9727L49.584 14.9974L55.0934 15.2197C55.9087 15.2691 55.7605 15.5656 55.6616 15.9609C55.5628 16.4303 55.3899 16.9738 55.1181 17.4185Z" fill="#F3FEFF"/>
<path id="Vector_56" opacity="0.5" d="M4.34766 0.171875L16.2806 0.196575L15.8853 1.40717C15.8853 0.789522 15.5888 0.468341 14.8724 0.468341L4.34766 0.171875Z" fill="#F3FAFF"/>
<path id="Vector_57" opacity="0.5" d="M4.34766 7.60938H13.8594L13.4147 8.9682L13.4641 8.5235C13.4888 8.1035 13.3406 7.88115 12.5747 7.83173L4.34766 7.60938Z" fill="#F3FAFF"/>
<path id="Vector_58" opacity="0.5" d="M6.05273 14.9727L11.4386 14.9974L11.0186 16.2574L10.9939 15.6644C10.9692 15.3432 10.8951 15.2197 10.4504 15.195L6.05273 14.9727Z" fill="#F3FAFF"/>
<path id="Vector_59" opacity="0.6" d="M38.9608 22.1337L40.4184 19.6137V18.4032L37.5279 19.6137L36.0702 17.0938L34.6126 19.6137L31.6973 18.4032V19.6137L33.1549 22.1337L31.6973 23.4432V24.6537H34.6126L36.0702 27.1737L37.5279 24.6537H40.4184V23.4432L38.9608 22.1337Z" fill="#2753A0"/>
<path id="Vector_60" d="M38.9608 20.9267L40.4184 18.4067V17.4679L37.5279 18.4067L36.0702 15.8867L34.6126 18.4067L31.6973 17.4679V18.4067L33.1549 20.9267L31.6973 22.5079V23.4467H34.6126L36.0702 25.9667L37.5279 23.4467H40.4184V22.5079L38.9608 20.9267Z" fill="#9B1B2E"/>
<path id="Vector_61" d="M38.9608 19.9853L40.4184 17.4653H37.5279L36.0702 14.9453L34.6126 17.4653H31.6973L33.1549 19.9853L31.6973 22.5053H34.6126L36.0702 25.0253L37.5279 22.5053H40.4184L38.9608 19.9853Z" fill="url(#paint18_radial_1028_46560)"/>
<path id="Vector_62" d="M35.4031 16.1055L34.6126 17.4643H31.6973L33.1549 19.9843L31.6973 22.5043H34.6126L36.0702 25.0243L37.5279 22.5043H39.2326C38.2443 20.0337 36.9349 17.8843 35.4031 16.1055Z" fill="url(#paint19_linear_1028_46560)"/>
<path id="Vector_63" d="M40.4446 22.5078H37.5293V23.4466H40.4446V22.5078Z" fill="#661625"/>
<path id="Vector_64" d="M34.6126 23.4466L36.0702 25.9666V25.0278L34.6126 22.5078H31.6973V23.4466H34.6126Z" fill="#661625"/>
<path id="Vector_65" d="M31.6973 17.4648L33.1549 19.9848L32.8831 20.4542L31.6973 18.4037V17.4648Z" fill="#661625"/>
<path id="Vector_66" opacity="0.35" d="M31.6973 17.4648L33.6984 19.9848L31.6973 22.5048L33.1549 19.9848L31.6973 17.4648Z" fill="#9E2C19"/>
<path id="Vector_67" opacity="0.8" d="M36.0703 14.9453L37.4538 17.7124L40.4185 17.4653H37.528L36.0703 14.9453Z" fill="#F3FAFF"/>
<path id="Vector_68" opacity="0.5" d="M31.6973 22.5061L34.8843 22.2344L36.0702 25.0261L34.6126 22.5061H31.6973Z" fill="#F3FAFF"/>
<path id="Vector_69" opacity="0.35" d="M36.0703 25.027L37.3303 21.9141L40.4185 22.507H37.528L36.0703 25.027Z" fill="#9E2C19"/>
<path id="Vector_70" opacity="0.6" d="M27.8937 22.1337L29.3513 19.6137V18.4032L26.4361 19.6137L24.9784 17.0938L23.5208 19.6137L20.6055 18.4032V19.6137L22.0631 22.1337L20.6055 23.4432V24.6537H23.5208L24.9784 27.1737L26.4361 24.6537H29.3513V23.4432L27.8937 22.1337Z" fill="#2753A0"/>
<path id="Vector_71" d="M27.8937 20.9267L29.3513 18.4067V17.4679L26.4361 18.4067L24.9784 15.8867L23.5208 18.4067L20.6055 17.4679V18.4067L22.0631 20.9267L20.6055 22.5079V23.4467H23.5208L24.9784 25.9667L26.4361 23.4467H29.3513V22.5079L27.8937 20.9267Z" fill="#9B1B2E"/>
<path id="Vector_72" d="M27.8937 19.9853L29.3513 17.4653H26.4361L24.9784 14.9453L23.5208 17.4653H20.6055L22.0631 19.9853L20.6055 22.5053H23.5208L24.9784 25.0253L26.4361 22.5053H29.3513L27.8937 19.9853Z" fill="url(#paint20_radial_1028_46560)"/>
<path id="Vector_73" d="M27.8937 19.9853L29.3513 17.4653H26.4361L24.9784 14.9453L23.5208 17.4653H20.6055L22.0631 19.9853L20.6055 22.5053H23.5208L24.9784 25.0253L26.4361 22.5053H29.3513L27.8937 19.9853Z" fill="url(#paint21_linear_1028_46560)"/>
<path id="Vector_74" d="M29.3508 22.5078H26.4355V23.4466H29.3508V22.5078Z" fill="#661625"/>
<path id="Vector_75" d="M23.5208 23.4466L24.9784 25.9666V25.0278L23.5208 22.5078H20.6055V23.4466H23.5208Z" fill="#661625"/>
<path id="Vector_76" d="M20.6055 17.4648L22.0631 19.9848L21.7914 20.4542L20.6055 18.4037V17.4648Z" fill="#661625"/>
<path id="Vector_77" opacity="0.35" d="M20.6055 17.4648L22.6066 19.9848L20.6055 22.5048L22.0631 19.9848L20.6055 17.4648Z" fill="#9E2C19"/>
<path id="Vector_78" opacity="0.8" d="M24.9785 14.9453L26.3868 17.7124L29.3515 17.4653H26.4362L24.9785 14.9453Z" fill="#F3FAFF"/>
<path id="Vector_79" opacity="0.5" d="M20.6055 22.5061L23.7925 22.2344L24.9784 25.0261L23.5208 22.5061H20.6055Z" fill="#F3FAFF"/>
<path id="Vector_80" opacity="0.35" d="M24.9785 25.027L26.2385 21.9141L29.3515 22.507H26.4362L24.9785 25.027Z" fill="#9E2C19"/>
<path id="Vector_81" opacity="0.6" d="M33.451 12.5478L34.9087 10.0278V8.84193L31.9934 10.0278L30.5604 7.50781L29.1028 10.0278L26.1875 8.84193V10.0278L27.6451 12.5478L26.1875 13.8819V15.0678H29.1028L30.5604 17.5878L31.9934 15.0678H34.9087V13.8819L33.451 12.5478Z" fill="#2753A0"/>
<path id="Vector_82" d="M33.451 11.3642L34.9087 8.84421V7.90539L31.9934 8.84421L30.5604 6.32422L29.1028 8.84421L26.1875 7.90539V8.84421L27.6451 11.3642L26.1875 12.9454V13.8842H29.1028L30.5604 16.4042L31.9934 13.8842H34.9087V12.9454L33.451 11.3642Z" fill="#9B1B2E"/>
<path id="Vector_83" d="M33.451 10.4267L34.9087 7.90672H31.9934L30.5604 5.38672L29.1028 7.90672H26.1875L27.6451 10.4267L26.1875 12.9467H29.1028L30.5604 15.442L31.9934 12.9467H34.9087L33.451 10.4267Z" fill="url(#paint22_radial_1028_46560)"/>
<path id="Vector_84" d="M30.5611 15.4384L32.0188 12.9184C30.6352 11.9055 29.1776 11.0655 27.6458 10.3984L26.2129 12.8937H29.1282L30.5611 15.4384Z" fill="url(#paint23_linear_1028_46560)"/>
<path id="Vector_85" d="M31.9949 7.90672L30.5372 5.38672L29.0796 7.90672H26.8066C29.5243 9.0679 32.1925 10.5997 34.6384 12.4526L33.4525 10.402L34.9102 7.88201H31.9949V7.90672Z" fill="url(#paint24_linear_1028_46560)"/>
<path id="Vector_86" d="M34.9094 12.9453H31.9941V13.8841H34.9094V12.9453Z" fill="#661625"/>
<path id="Vector_87" d="M29.1028 13.8841L30.5604 16.4041V15.4406L29.1028 12.9453H26.1875V13.8841H29.1028Z" fill="#661625"/>
<path id="Vector_88" d="M26.1875 7.90625L27.6451 10.4263L27.3734 10.8957L26.1875 8.84507V7.90625Z" fill="#661625"/>
<path id="Vector_89" opacity="0.35" d="M26.1875 7.90625L28.164 10.4263L26.1875 12.9462L27.6451 10.4263L26.1875 7.90625Z" fill="#9E2C19"/>
<path id="Vector_90" opacity="0.8" d="M30.5605 5.38672L31.9441 8.15378L34.9088 7.90672H31.9935L30.5605 5.38672Z" fill="#F3FAFF"/>
<path id="Vector_91" opacity="0.5" d="M26.1875 12.9449L29.3746 12.6484L30.5604 15.4402L29.1028 12.9449H26.1875Z" fill="#F3FAFF"/>
<path id="Vector_92" opacity="0.35" d="M30.5605 15.4398L31.8205 12.3516L34.9088 12.9445H31.9935L30.5605 15.4398Z" fill="#9E2C19"/>
<path id="Vector_93" opacity="0.5" d="M27.0538 20.3081C26.7079 20.9258 25.6456 20.9752 24.6821 20.4317C23.7432 19.8881 23.2491 18.9493 23.6197 18.3317C23.9903 17.714 25.0279 17.6646 25.9915 18.2081C26.9303 18.7269 27.4244 19.6905 27.0538 20.3081Z" fill="#FCE265"/>
<path id="Vector_94" opacity="0.5" d="M25.4474 21.8881C25.3238 22.0858 24.9532 22.0858 24.6074 21.8881C24.2615 21.6905 24.0638 21.3693 24.1874 21.1717C24.3109 20.974 24.6815 20.974 25.0274 21.1717C25.3732 21.3693 25.5709 21.6905 25.4474 21.8881Z" fill="#FCE265"/>
<path id="Vector_95" opacity="0.5" d="M31.9936 9.06602C31.7959 9.4119 31.1536 9.3872 30.5853 9.04131C29.9924 8.69543 29.6712 8.1519 29.8689 7.83073C30.0665 7.50955 30.7089 7.50955 31.2771 7.83073C31.87 8.17661 32.1912 8.72014 31.9936 9.06602Z" fill="#FCE265"/>
<path id="Vector_96" d="M46.3735 5.06364C47.6582 5.06364 48.177 5.03893 49.3629 5.03893C51.0429 3.97658 52.1546 2.42011 52.3276 0.59187C52.3276 0.443635 52.3523 0.295404 52.3523 0.171875L44.7676 0.196575L46.3735 5.06364Z" fill="white"/>
</g>
</g>
<defs>
<radialGradient id="paint0_radial_1028_46560" cx="0" cy="0" r="1" gradientUnits="userSpaceOnUse" gradientTransform="translate(41.1634 1.29927) scale(31.6024 31.6024)">
<stop offset="0.0139665" stop-color="#E85621"/>
<stop offset="1" stop-color="#E33A0B"/>
</radialGradient>
<radialGradient id="paint1_radial_1028_46560" cx="0" cy="0" r="1" gradientUnits="userSpaceOnUse" gradientTransform="translate(46.9111 -3.00296) scale(43.7201 43.7201)">
<stop offset="0.0139665" stop-color="#E85621"/>
<stop offset="1" stop-color="#E33A0B"/>
</radialGradient>
<linearGradient id="paint2_linear_1028_46560" x1="48.7977" y1="-6.11355" x2="28.9815" y2="18.3304" gradientUnits="userSpaceOnUse">
<stop stop-color="#FFA369"/>
<stop offset="0.1319" stop-color="#FE9E66"/>
<stop offset="0.2926" stop-color="#FA8F5C"/>
<stop offset="0.4684" stop-color="#F3764C"/>
<stop offset="0.6548" stop-color="#EA5436"/>
<stop offset="0.8476" stop-color="#DF281A"/>
<stop offset="1" stop-color="#D40000"/>
</linearGradient>
<linearGradient id="paint3_linear_1028_46560" x1="17.2428" y1="33.4789" x2="34.5672" y2="11.7641" gradientUnits="userSpaceOnUse">
<stop stop-color="#D40000"/>
<stop offset="1" stop-color="#FFAF47"/>
</linearGradient>
<linearGradient id="paint4_linear_1028_46560" x1="30.5184" y1="19.0473" x2="30.5184" y2="25.6486" gradientUnits="userSpaceOnUse">
<stop offset="0.6285" stop-color="#F7814A"/>
<stop offset="1" stop-color="#F7E399"/>
</linearGradient>
<radialGradient id="paint5_radial_1028_46560" cx="0" cy="0" r="1" gradientUnits="userSpaceOnUse" gradientTransform="translate(21.704 -4.90915) scale(35.0738 35.0738)">
<stop offset="0.0139665" stop-color="#E85621"/>
<stop offset="1" stop-color="#E33A0B"/>
</radialGradient>
<radialGradient id="paint6_radial_1028_46560" cx="0" cy="0" r="1" gradientUnits="userSpaceOnUse" gradientTransform="translate(21.7045 -4.91205) scale(35.0738 35.0738)">
<stop offset="0.0139665" stop-color="#E85621"/>
<stop offset="1" stop-color="#E33A0B"/>
</radialGradient>
<radialGradient id="paint7_radial_1028_46560" cx="0" cy="0" r="1" gradientUnits="userSpaceOnUse" gradientTransform="translate(21.7034 -4.90846) scale(35.0738 35.0738)">
<stop offset="0.0139665" stop-color="#E85621"/>
<stop offset="1" stop-color="#E33A0B"/>
</radialGradient>
<radialGradient id="paint8_radial_1028_46560" cx="0" cy="0" r="1" gradientUnits="userSpaceOnUse" gradientTransform="translate(42.9842 0.786516) scale(36.2472 36.2472)">
<stop offset="0.0139665" stop-color="#E85621"/>
<stop offset="1" stop-color="#E33A0B"/>
</radialGradient>
<radialGradient id="paint9_radial_1028_46560" cx="0" cy="0" r="1" gradientUnits="userSpaceOnUse" gradientTransform="translate(42.983 0.783668) scale(36.2472 36.2472)">
<stop offset="0.0139665" stop-color="#E85621"/>
<stop offset="1" stop-color="#E33A0B"/>
</radialGradient>
<radialGradient id="paint10_radial_1028_46560" cx="0" cy="0" r="1" gradientUnits="userSpaceOnUse" gradientTransform="translate(42.983 0.787209) scale(36.2472 36.2472)">
<stop offset="0.0139665" stop-color="#E85621"/>
<stop offset="1" stop-color="#E33A0B"/>
</radialGradient>
<linearGradient id="paint11_linear_1028_46560" x1="54.9489" y1="-2.25085" x2="35.7853" y2="23.795" gradientUnits="userSpaceOnUse">
<stop stop-color="#FFA369"/>
<stop offset="0.1319" stop-color="#FE9E66"/>
<stop offset="0.2926" stop-color="#FA8F5C"/>
<stop offset="0.4684" stop-color="#F3764C"/>
<stop offset="0.6548" stop-color="#EA5436"/>
<stop offset="0.8476" stop-color="#DF281A"/>
<stop offset="1" stop-color="#D40000"/>
</linearGradient>
<linearGradient id="paint12_linear_1028_46560" x1="58.8516" y1="0.618656" x2="39.688" y2="26.6645" gradientUnits="userSpaceOnUse">
<stop stop-color="#FFA369"/>
<stop offset="0.1319" stop-color="#FE9E66"/>
<stop offset="0.2926" stop-color="#FA8F5C"/>
<stop offset="0.4684" stop-color="#F3764C"/>
<stop offset="0.6548" stop-color="#EA5436"/>
<stop offset="0.8476" stop-color="#DF281A"/>
<stop offset="1" stop-color="#D40000"/>
</linearGradient>
<linearGradient id="paint13_linear_1028_46560" x1="62.0803" y1="2.99774" x2="42.9166" y2="29.0437" gradientUnits="userSpaceOnUse">
<stop stop-color="#FFA369"/>
<stop offset="0.1319" stop-color="#FE9E66"/>
<stop offset="0.2926" stop-color="#FA8F5C"/>
<stop offset="0.4684" stop-color="#F3764C"/>
<stop offset="0.6548" stop-color="#EA5436"/>
<stop offset="0.8476" stop-color="#DF281A"/>
<stop offset="1" stop-color="#D40000"/>
</linearGradient>
<linearGradient id="paint14_linear_1028_46560" x1="26.3873" y1="-23.2664" x2="7.22369" y2="2.77953" gradientUnits="userSpaceOnUse">
<stop stop-color="#FFA369"/>
<stop offset="0.1319" stop-color="#FE9E66"/>
<stop offset="0.2926" stop-color="#FA8F5C"/>
<stop offset="0.4684" stop-color="#F3764C"/>
<stop offset="0.6548" stop-color="#EA5436"/>
<stop offset="0.8476" stop-color="#DF281A"/>
<stop offset="1" stop-color="#D40000"/>
</linearGradient>
<linearGradient id="paint15_linear_1028_46560" x1="26.1781" y1="-23.4207" x2="7.01456" y2="2.62503" gradientUnits="userSpaceOnUse">
<stop stop-color="#FFA369"/>
<stop offset="0.1319" stop-color="#FE9E66"/>
<stop offset="0.2926" stop-color="#FA8F5C"/>
<stop offset="0.4684" stop-color="#F3764C"/>
<stop offset="0.6548" stop-color="#EA5436"/>
<stop offset="0.8476" stop-color="#DF281A"/>
<stop offset="1" stop-color="#D40000"/>
</linearGradient>
<linearGradient id="paint16_linear_1028_46560" x1="2.43275" y1="24.7866" x2="17.3048" y2="2.39941" gradientUnits="userSpaceOnUse">
<stop stop-color="#D40000"/>
<stop offset="1" stop-color="#FFAF47"/>
</linearGradient>
<linearGradient id="paint17_linear_1028_46560" x1="2.07035" y1="24.5429" x2="16.9424" y2="2.15578" gradientUnits="userSpaceOnUse">
<stop stop-color="#D40000"/>
<stop offset="1" stop-color="#FFAF47"/>
</linearGradient>
<radialGradient id="paint18_radial_1028_46560" cx="0" cy="0" r="1" gradientUnits="userSpaceOnUse" gradientTransform="translate(41.972 -2.22142) scale(50.268 50.268)">
<stop offset="0.0139665" stop-color="#E85621"/>
<stop offset="1" stop-color="#E33A0B"/>
</radialGradient>
<linearGradient id="paint19_linear_1028_46560" x1="22.2696" y1="36.9029" x2="42.7978" y2="10.5604" gradientUnits="userSpaceOnUse">
<stop stop-color="#D40000"/>
<stop offset="1" stop-color="#FFAF47"/>
</linearGradient>
<radialGradient id="paint20_radial_1028_46560" cx="0" cy="0" r="1" gradientUnits="userSpaceOnUse" gradientTransform="translate(41.973 -2.22142) scale(50.268 50.268)">
<stop offset="0.0139665" stop-color="#E85621"/>
<stop offset="1" stop-color="#E33A0B"/>
</radialGradient>
<linearGradient id="paint21_linear_1028_46560" x1="15.7492" y1="31.8217" x2="36.2773" y2="5.47933" gradientUnits="userSpaceOnUse">
<stop stop-color="#D40000"/>
<stop offset="1" stop-color="#FFAF47"/>
</linearGradient>
<radialGradient id="paint22_radial_1028_46560" cx="0" cy="0" r="1" gradientUnits="userSpaceOnUse" gradientTransform="translate(41.9716 -2.21892) scale(50.2682 50.2682)">
<stop offset="0.0139665" stop-color="#E85621"/>
<stop offset="1" stop-color="#E33A0B"/>
</radialGradient>
<linearGradient id="paint23_linear_1028_46560" x1="14.8942" y1="31.1551" x2="35.4223" y2="4.81261" gradientUnits="userSpaceOnUse">
<stop stop-color="#D40000"/>
<stop offset="1" stop-color="#FFAF47"/>
</linearGradient>
<linearGradient id="paint24_linear_1028_46560" x1="41.3373" y1="-4.61385" x2="17.9613" y2="27.9583" gradientUnits="userSpaceOnUse">
<stop stop-color="#D40000"/>
<stop offset="1" stop-color="#FFAF47"/>
</linearGradient>
</defs>
</svg>
