<svg width="38" height="54" viewBox="0 0 38 54" fill="none" xmlns="http://www.w3.org/2000/svg">
<g id="Group">
<path id="Vector" d="M37.0279 24.5091C36.8368 20.6856 19.9371 0.0390625 18.5989 0.0390625C17.2607 0.0390625 0.399377 20.7239 0.169971 24.5091C-0.0212013 28.2943 4.49045 46.2262 4.49045 46.2262H18.5989H32.7074C32.7074 46.188 37.2573 28.2943 37.0279 24.5091Z" fill="url(#paint0_linear_1028_51346)"/>
<path id="Vector_2" d="M32.7092 46.1862H4.53045C4.53045 46.1862 0.133502 29.0189 0.20997 24.469C0.20997 24.469 0.707008 23.322 2.15991 22.5191C3.45988 21.7926 5.52454 21.3338 8.65976 22.2515C9.46268 22.4809 10.3803 22.825 11.3362 23.2455C11.5273 23.322 11.7567 23.4367 11.9479 23.5514C11.9479 23.5514 12.5597 22.2132 14.0508 21.1044C15.1214 20.3015 16.6125 19.6133 18.6389 19.6133C21.2389 19.6133 22.9594 20.7603 24.03 21.7926C24.4123 22.2132 24.7182 22.5956 24.9476 22.9014C25.2153 23.2838 25.33 23.5514 25.33 23.5514C25.9417 23.2455 26.5152 23.0161 27.0505 22.7867C33.4357 20.3015 35.9974 22.9014 36.8003 24.0102C36.9915 24.2779 37.0679 24.469 37.0679 24.469C37.1444 29.0189 32.7092 46.1862 32.7092 46.1862Z" fill="url(#paint1_linear_1028_51346)"/>
<path id="Vector_3" opacity="0.5" d="M7.05392 46.1866H4.53045C4.53045 46.1866 0.133502 29.0194 0.20997 24.4695C0.20997 24.4695 0.707008 23.3225 2.15991 22.5195C-0.134149 29.0958 4.30105 41.2544 5.56278 44.1984C5.98336 45.1925 6.48041 45.8425 7.05392 46.1866Z" fill="#912790"/>
<path id="Vector_4" opacity="0.5" d="M7.05273 46.1875H10.4174C9.38503 46.6845 8.16153 46.9522 7.05273 46.1875Z" fill="#912790"/>
<path id="Vector_5" opacity="0.5" d="M25.0199 42.8608C24.5228 44.0843 25.3258 45.3461 25.8993 46.1872H10.3379C11.1026 45.8049 11.7143 45.3078 11.982 45.0402C12.7467 44.2755 12.0584 24.126 11.2938 23.2466C11.4849 23.3231 11.7143 23.4378 11.9055 23.5525C11.9055 23.5525 12.5172 22.2143 14.0084 21.1055C13.4731 34.3346 15.1937 43.2814 15.8819 44.0461C16.5701 44.7726 21.617 43.9696 21.7317 43.7402C23.9876 39.0756 24.9817 23.1319 24.9817 23.1319C24.9817 23.1319 24.9434 23.0554 24.9052 22.9025C25.1728 23.2848 25.2875 23.5525 25.2875 23.5525C25.8993 23.2466 26.4728 23.0172 27.0081 22.7878C28.3463 24.8524 29.1492 32.4611 25.0199 42.8608Z" fill="#912790"/>
<path id="Vector_6" opacity="0.5" d="M25.9395 46.1875H30.757C30.6423 46.3787 30.4893 46.5316 30.3746 46.6081C28.5394 47.9463 26.8953 47.5257 25.9395 46.1875Z" fill="#912790"/>
<path id="Vector_7" opacity="0.5" d="M32.7117 46.1838H30.7617C32.7499 43.3162 35.5028 29.2077 36.7645 24.0078C36.9557 24.2755 37.0322 24.4666 37.0322 24.4666C37.1469 29.0165 32.7117 46.1838 32.7117 46.1838Z" fill="#912790"/>
<path id="Vector_8" opacity="0.74" d="M11.9453 23.5547C12.6718 46.3424 12.71 46.9159 12.71 46.9159C12.71 46.9159 13.7806 46.1512 13.6276 36.975C13.4747 27.8369 11.9453 23.5547 11.9453 23.5547Z" fill="#CA2790"/>
<path id="Vector_9" opacity="0.74" d="M25.2874 23.5547L22.9551 46.113C22.9551 46.113 24.5991 41.1807 25.2874 33.3045C25.9756 25.4282 25.2874 23.5547 25.2874 23.5547Z" fill="#CA2790"/>
<path id="Vector_10" opacity="0.8" d="M0.282353 25.5799C1.84996 36.1326 4.2205 43.4354 4.79402 46.1118C5.36753 48.7882 18.7878 48.7882 18.6349 46.6853C17.029 23.7829 19.7819 17.3213 19.2466 17.0537C18.7496 16.786 15.0026 17.5125 11.3321 24.0506C11.3321 24.0506 9.07627 18.2389 5.17636 19.8448C1.27645 21.4506 -0.0617563 23.4771 0.282353 25.5799Z" fill="#912774"/>
<path id="Vector_11" d="M0.208984 24.5099C3.03833 19.0042 11.6028 25.0452 11.9469 24.8923C12.291 24.7393 14.3557 20.0747 18.1409 19.6542C21.8879 19.1953 25.0613 24.8158 25.9407 24.5099C26.8201 24.204 29.4965 21.1071 32.7082 22.1776C36.5699 23.4394 36.9905 25.6187 36.9905 25.6187L37.0287 24.5482C37.0287 24.5482 35.9199 19.4248 32.0582 19.1571C28.1966 18.8895 26.8201 23.1335 26.5142 22.6747C26.2084 22.2159 21.0467 15.5631 18.1027 16.1366C15.8086 16.5954 11.5264 23.6688 11.297 23.2864C6.44119 15.8307 2.61775 19.6924 1.31778 21.7953C0.36192 23.2864 0.208984 24.5099 0.208984 24.5099Z" fill="url(#paint2_linear_1028_51346)"/>
<path id="Vector_12" d="M11.2949 7.91452C11.2949 7.91452 17.9095 4.66459 25.9005 7.91452C25.9005 7.91452 20.1653 0 18.5977 0C17.183 0 11.2949 7.91452 11.2949 7.91452Z" fill="url(#paint3_linear_1028_51346)"/>
<path id="Vector_13" d="M4.5293 46.1875C4.5293 46.1875 5.25575 51.6168 6.59395 52.305C7.93216 52.9932 14.6232 53.2991 18.6378 53.2991C22.6524 53.2991 29.3434 52.9932 30.6816 52.305C32.0198 51.6168 32.7463 46.1875 32.7463 46.1875H4.5293Z" fill="#FF7A00"/>
<path id="Vector_14" d="M35.3874 43.817C35.0815 41.867 18.6407 41.9817 18.6407 41.9817C18.6407 41.9817 2.19994 41.867 1.85583 43.817C1.54995 45.767 3.07933 47.6787 4.53223 48.0228C5.98514 48.3669 31.2963 48.3669 32.711 48.0228C34.1639 47.6787 35.6933 45.767 35.3874 43.817Z" fill="url(#paint4_linear_1028_51346)"/>
<path id="Vector_15" opacity="0.8" d="M6.06217 44.5806C5.83276 47.2188 7.89742 47.8305 11.912 48.0217C15.6208 48.1746 21.4324 48.5952 22.1971 47.6011C22.9618 46.607 23.0382 44.1218 21.7 43.7394C20.4383 43.3571 6.21511 42.8983 6.06217 44.5806Z" fill="#E6B7CB"/>
<path id="Vector_16" d="M2.16211 45.8789C5.83261 48.1347 9.12078 46.873 21.4322 47.4083C32.7496 47.8671 34.279 46.9495 35.0437 45.8789C35.0437 45.8789 34.3172 47.5612 32.3673 48.0583C32.3673 48.0583 23.2293 50.9258 14.7795 50.4288C6.29142 49.97 4.83852 48.0583 4.83852 48.0583C4.83852 48.0583 3.88266 47.7524 3.00327 47.1024C2.16211 46.4142 2.16211 45.8789 2.16211 45.8789Z" fill="#DEA0BB"/>
<path id="Vector_17" opacity="0.5" d="M2.15938 43.9315C2.54173 46.6079 5.52401 46.4932 5.67695 46.0343C5.82989 45.6138 5.63872 42.7844 4.52992 42.8609C3.42112 42.9756 2.08291 43.3197 2.15938 43.9315Z" fill="white"/>
<path id="Vector_18" opacity="0.7" d="M25.6718 43.9336C24.7925 44.3924 24.6395 47.26 25.9777 47.4129C27.3159 47.5658 32.4776 47.4129 32.8982 46.5335C33.2805 45.6541 33.8922 44.0483 32.057 43.7041C30.1835 43.3218 26.5512 43.4365 25.6718 43.9336Z" fill="white"/>
<path id="Vector_19" opacity="0.3" d="M5.36914 48.4817C5.36914 50.9669 6.325 51.6169 7.28086 52.1904C8.23672 52.7257 21.2746 54.0257 23.6452 52.6875C26.0157 51.3493 25.1363 49.2464 22.9187 48.9788C20.6629 48.7111 5.36914 47.6023 5.36914 48.4817Z" fill="#BE2F55"/>
<path id="Vector_20" opacity="0.8" d="M4.94797 42.6726C13.3978 42.8255 34.159 43.5138 32.515 42.902C30.8709 42.252 23.5681 41.9844 15.6536 41.9844C7.70084 41.9844 3.91564 42.6344 4.94797 42.6726Z" fill="white"/>
<path id="Vector_21" opacity="0.5" d="M5.14258 48.1409C16.1541 46.5351 31.6773 47.9498 31.0655 48.1409C30.4538 48.3321 24.5274 48.9439 15.1982 48.638C5.83079 48.3321 5.14258 48.1409 5.14258 48.1409Z" fill="#BE2F55"/>
<path id="Vector_22" opacity="0.8" d="M18.637 8.48608C18.637 11.2772 18.4458 14.2212 20.2046 15.3683C25.2133 18.5417 33.2807 19.9564 31.4837 16.5918C25.5956 5.58027 18.637 5.88614 18.637 8.48608Z" fill="#FFF886"/>
<path id="Vector_23" opacity="0.3" d="M1.89226 21.8317C6.48039 20.1876 9.19503 24.8139 11.0685 23.5522C16.4213 19.9964 19.2889 1.83507 17.5684 1.7586C15.886 1.68213 11.6038 7.18788 9.3862 10.2849C7.20684 13.3819 1.12757 22.0993 1.89226 21.8317Z" fill="#BD3EA9"/>
<path id="Vector_24" d="M28.0422 43.4729C29.7627 46.4169 31.8656 43.4729 31.4068 43.167C30.948 42.8611 27.4686 42.4788 28.0422 43.4729Z" fill="white"/>
<path id="Vector_25" d="M18.482 0.421498C17.9085 1.7597 17.9849 6.00371 19.1702 6.27135C22.1907 6.92134 24.8671 7.91543 24.3318 6.46253C23.3377 3.97729 18.8261 -0.381424 18.482 0.421498Z" fill="#A2FFFF"/>
<path id="Vector_26" d="M20.1635 19.727C22.4576 18.3888 23.7575 21.9064 23.337 22.5182C22.8782 23.1299 18.1753 20.9123 20.1635 19.727Z" fill="white"/>
<path id="Vector_27" d="M21.3528 3.55414C18.6 5.77174 23.0352 6.26878 23.2646 5.65703C23.494 5.08352 22.1175 2.94239 21.3528 3.55414Z" fill="white"/>
<path id="Vector_28" opacity="0.5" d="M32.7043 20.1112C27.8867 24.8523 27.4279 41.5989 28.6896 41.9048C29.9514 42.2107 32.8954 42.8607 33.2778 41.9813C34.4248 39.3049 37.5982 26.3052 36.5659 23.7817C35.5336 21.22 33.5454 19.3083 32.7043 20.1112Z" fill="#6D2F55"/>
<path id="Vector_29" d="M3.95309 42.4437C10.8735 29.7499 1.8502 21.5295 0.932573 24.4736C-0.0232865 27.4559 3.57074 43.0937 3.95309 42.4437Z" fill="#FFA5FF"/>
</g>
<defs>
<linearGradient id="paint0_linear_1028_51346" x1="0.205376" y1="23.1088" x2="37.042" y2="23.1088" gradientUnits="userSpaceOnUse">
<stop stop-color="#FFA274"/>
<stop offset="1" stop-color="#FFC488"/>
</linearGradient>
<linearGradient id="paint1_linear_1028_51346" x1="18.625" y1="19.6001" x2="18.625" y2="46.1991" gradientUnits="userSpaceOnUse">
<stop stop-color="#902EF6"/>
<stop offset="1" stop-color="#682EFF"/>
</linearGradient>
<linearGradient id="paint2_linear_1028_51346" x1="18.624" y1="16.0818" x2="18.624" y2="25.5798" gradientUnits="userSpaceOnUse">
<stop stop-color="#BC4BF6"/>
<stop offset="1" stop-color="#7E41E9"/>
</linearGradient>
<linearGradient id="paint3_linear_1028_51346" x1="25.9311" y1="3.96701" x2="11.3138" y2="3.96701" gradientUnits="userSpaceOnUse">
<stop stop-color="#902EF6"/>
<stop offset="1" stop-color="#682EFF"/>
</linearGradient>
<linearGradient id="paint4_linear_1028_51346" x1="35.4323" y1="45.1292" x2="1.82218" y2="45.1292" gradientUnits="userSpaceOnUse">
<stop stop-color="#E0D9E1"/>
<stop offset="1" stop-color="#B9A4A8"/>
</linearGradient>
</defs>
</svg>
