<svg width="59" height="52" viewBox="0 0 59 52" fill="none" xmlns="http://www.w3.org/2000/svg">
<g id="Group">
<path id="Vector" d="M0.927836 6.53808C0.927836 6.53808 3.566 37.7756 3.48953 44.6195C3.48953 45.346 4.98067 46.1871 14.004 47.9077C23.0655 49.6282 32.1653 51.5017 33.2359 51.6164C34.2682 51.7311 36.4093 50.4694 56.6736 46.1107C57.2471 45.996 55.7177 42.5549 55.5648 41.3696C55.2589 38.8079 56.6736 18.1231 58.3941 7.87628C58.6235 6.49985 49.3326 6.84396 33.58 0C33.58 0 25.9714 1.49114 12.8187 5.46752C11.6335 5.8881 0.889602 5.39105 0.927836 6.53808Z" fill="url(#paint0_linear_1028_51376)"/>
<path id="Vector_2" d="M43.4828 3.78516C44.3622 14.7967 43.0622 24.0494 43.4828 24.7758C43.9034 25.5023 49.8297 25.8846 49.8297 25.8846L51.4738 5.96452L43.4828 3.78516Z" fill="#EFDFE6"/>
<path id="Vector_3" opacity="0.3" d="M32.7808 50.6221C33.7749 45.8428 34.1955 1.68205 31.9779 1.56734C27.3515 1.33794 20.7752 3.55553 18.0606 4.28198C16.1489 4.81727 5.36678 9.32892 4.9462 9.09952C3.30212 8.29659 1.12275 4.47316 1.19922 7.60838C1.27569 10.7436 3.9521 43.5487 4.60208 44.734C5.25207 45.881 32.5514 51.7309 32.7808 50.6221Z" fill="#C60055"/>
<path id="Vector_4" d="M8.65209 42.6712C9.26384 44.5064 11.5961 43.8182 11.7491 43.4741C12.1314 42.633 11.5961 36.5537 11.7108 35.7125C11.7873 35.2537 13.7755 36.0184 13.7755 35.2919C13.7755 34.5655 10.602 25.3128 9.68442 25.6951C8.76679 26.0775 6.20509 33.8773 6.58743 34.2214C7.19918 34.7949 8.30798 34.6802 8.46091 35.2155C8.61385 35.7508 8.42268 42.0594 8.65209 42.6712Z" fill="#6B0045"/>
<path id="Vector_5" d="M17.2128 44.9262C17.901 47.0291 20.5392 46.2262 20.6921 45.8056C21.1127 44.8497 20.5392 37.9676 20.6539 37.0117C20.7304 36.4764 22.9862 37.3558 22.9862 36.5529C22.9862 35.7117 19.4304 25.2355 18.3981 25.6943C17.3658 26.1531 14.4982 34.947 14.9188 35.3676C15.5687 36.0176 16.8687 35.8647 17.0216 36.5147C17.1746 37.0882 16.9834 44.238 17.2128 44.9262Z" fill="#6B0045"/>
<path id="Vector_6" opacity="0.2" d="M2.68623 15.6752C4.1009 35.8247 2.95388 43.5099 4.55973 44.7334C6.16557 45.9569 31.4767 52.0361 32.2414 50.2391C33.0061 48.4421 33.5032 5.23724 30.9032 3.93727C28.3033 2.6373 2.60977 7.49306 1.95978 9.13714C1.38627 10.743 2.648 14.8341 2.68623 15.6752Z" fill="#C60055"/>
<path id="Vector_7" opacity="0.3" d="M32.2808 50.2017C32.0896 44.3901 21.2311 41.6755 14.1959 42.2107C7.1608 42.746 2.11387 44.543 3.98735 45.3077C5.86084 46.0724 32.319 51.6929 32.2808 50.2017Z" fill="#AB2781"/>
<path id="Vector_8" opacity="0.5" d="M35.1459 4.20556C34.993 9.71131 34.3048 27.8344 36.8665 28.1785C38.74 28.4462 53.8043 31.0079 54.6072 29.2109C57.5895 22.2904 56.9013 10.1319 54.7984 9.17603C52.6955 8.22017 35.2224 1.26151 35.1459 4.20556Z" fill="#FFBA81"/>
<path id="Vector_9" opacity="0.2" d="M35.0328 30.2436C34.0387 34.1435 35.2239 44.8109 36.2563 45.4226C38.1297 46.5314 53.0794 38.464 53.8441 37.814C54.5323 37.164 55.5646 30.2436 52.6971 30.2436C49.8295 30.2436 35.4534 28.676 35.0328 30.2436Z" fill="#CC6081"/>
<path id="Vector_10" opacity="0.1" d="M31.7481 45.1545C35.648 32.0401 32.3981 1.45254 32.2834 1.91136C24.3688 26.7255 30.104 50.7367 31.7481 45.1545Z" fill="#BB519A"/>
<path id="Vector_11" opacity="0.3" d="M19.3972 4.20618C14.9238 10.2854 9.30331 18.5058 8.15627 18.9647C7.69746 19.1558 4.98282 9.32959 5.32693 9.17665C11.5209 6.34731 19.8178 3.63266 19.3972 4.20618Z" fill="#FFB64A"/>
<path id="Vector_12" opacity="0.5" d="M43.6742 6.64844C43.6742 6.64844 42.7566 25.2686 43.4066 25.498C44.0566 25.7274 49.83 25.8421 49.83 25.8421C49.83 25.8421 44.4007 25.6509 43.7889 24.848C43.1772 24.0833 43.6742 6.64844 43.6742 6.64844Z" fill="#AB2781"/>
<path id="Vector_13" opacity="0.2" d="M4.36641 43.7772C12.3574 17.8161 1.76646 16.0573 1.99587 18.1984C3.29584 29.1717 4.0223 44.9625 4.36641 43.7772Z" fill="#FFB64A"/>
<path id="Vector_14" opacity="0.3" d="M56.137 45.4223C55.1811 41.4842 54.5694 37.9284 45.0108 42.5165C33.2346 48.1369 33.0052 50.6222 34.7257 50.4692C36.4463 50.3163 56.4046 46.5311 56.137 45.4223Z" fill="#FFB64A"/>
<path id="Vector_15" opacity="0.3" d="M7.38768 18.963C2.76132 14.4131 1.27018 6.80446 1.46135 6.42212C1.69075 6.00154 4.02305 8.2956 4.94068 9.09853C5.32302 9.44264 7.73179 19.3071 7.38768 18.963Z" fill="#AB2781"/>
<path id="Vector_16" opacity="0.1" d="M5.40375 16.6319C6.43608 17.9319 5.63316 11.3938 5.28905 10.7056C3.91262 7.64686 2.07737 9.52035 2.84206 11.8526C3.60674 14.1849 5.02141 16.0967 5.40375 16.6319Z" fill="#FFB64A"/>
</g>
<defs>
<linearGradient id="paint0_linear_1028_51376" x1="29.6666" y1="51.6737" x2="29.6666" y2="0.0610594" gradientUnits="userSpaceOnUse">
<stop stop-color="#FFA274"/>
<stop offset="1" stop-color="#FFC488"/>
</linearGradient>
</defs>
</svg>
