<svg width="41" height="39" viewBox="0 0 41 39" fill="none" xmlns="http://www.w3.org/2000/svg">
<rect width="41" height="39" fill="#3F3F3F"/>
<g id="Group">
<g id="Group_2">
<g id="Group_3">
<g id="Group_4">
<g id="Group_5">
<path id="Vector" d="M20.624 36.9602L39.4499 23.2732L32.2605 1.13672H8.96285L1.77344 23.2732L20.624 36.9602Z" fill="#54101A"/>
<path id="Vector_2" d="M32.9267 0.222656H8.29496L0.685547 23.6438L20.5985 38.1215L40.5114 23.6438L32.9267 0.222656ZM4.63849 22.3591L10.7408 3.58266H30.5055L36.6079 22.3591L20.6232 33.9709L4.63849 22.3591Z" fill="url(#paint0_radial_286_15044)"/>
<path id="Vector_3" opacity="0.3" d="M10.7402 3.55859L20.6226 33.9715L30.4802 3.55859H10.7402Z" fill="#8C1919"/>
<path id="Vector_4" opacity="0.6" d="M20.6226 22.6571L10.2461 17.543V18.9018L20.6226 26.4371L30.9743 18.9018V17.543L20.6226 22.6571Z" fill="#892334"/>
<path id="Vector_5" d="M32.9269 0.222656H8.29513L6.54102 5.63324C7.62807 5.68266 8.76454 5.83089 9.92572 6.05325L10.741 3.58266H30.5057L36.6081 22.3591L34.2857 24.0391C34.8045 25.0521 35.274 26.0897 35.6692 27.1768L40.5363 23.6438L32.9269 0.222656Z" fill="url(#paint1_radial_286_15044)"/>
<path id="Vector_6" d="M32.9269 0.222656H8.29513L6.54102 5.63324C7.62807 5.68266 8.76454 5.83089 9.92572 6.05325L10.741 3.58266H30.5057L36.6081 22.3591L34.2857 24.0391C34.8045 25.0521 35.274 26.0897 35.6692 27.1768L40.5363 23.6438L32.9269 0.222656Z" fill="url(#paint2_linear_286_15044)"/>
<path id="Vector_7" d="M31.5679 30.1402C31.4444 28.8308 31.2467 27.5955 30.9997 26.4096L20.6232 33.9449L4.63849 22.3332L9.01143 8.84375C7.77613 8.86846 6.54084 9.01669 5.35496 9.26375L0.685547 23.6426L20.5985 38.1202L31.5679 30.1402Z" fill="url(#paint3_linear_286_15044)"/>
<path id="Vector_8" d="M4.63867 22.3598L6.21985 21.9892L11.7046 5.06565H29.5175L35.0022 21.9892L36.5834 22.3598L30.481 3.55859H10.741L4.63867 22.3598Z" fill="#9B1B2E"/>
<path id="Vector_9" opacity="0.2" d="M6.2207 21.9899L9.30894 14.0841C11.1372 9.41464 15.6336 7.38876 20.6489 7.38876C25.6889 7.38876 30.2101 9.43935 32.0136 14.1582L35.0278 21.9899L29.5184 5.06641H11.7054L6.2207 21.9899Z" fill="#892334"/>
<path id="Vector_10" d="M4.63867 22.3589L6.21985 21.9883L20.6234 32.4636L35.0022 21.9883L36.5834 22.3589L20.6234 33.9706L4.63867 22.3589Z" fill="url(#paint4_linear_286_15044)"/>
<path id="Vector_11" d="M10.2461 15.7617V17.5405L20.6226 25.0758L30.9743 17.5405V15.7617L20.6226 23.2723L10.2461 15.7617Z" fill="#9B1B2E"/>
<path id="Vector_12" opacity="0.6" d="M6.2207 21.9873L11.8784 7.48495C12.1501 6.79318 12.8172 6.32377 13.5831 6.32377H27.7889C28.5548 6.32377 29.2219 6.79318 29.4936 7.48495L35.0525 21.9626L29.5431 5.03906H11.7301L6.2207 21.9873Z" fill="#892334"/>
<path id="Vector_13" d="M10.7402 3.55859L11.7038 5.06565H29.5167L30.4802 3.55859H10.7402Z" fill="#661625"/>
<path id="Vector_14" d="M20.6226 23.2723V25.0758L10.2461 17.5405V15.7617L20.6226 23.2723Z" fill="#661625"/>
<path id="Vector_15" d="M20.6226 19.4933L11.2343 12.6992L10.2461 15.7628L20.6226 23.2733L30.9743 15.7628L29.9861 12.6992L20.6226 19.4933Z" fill="url(#paint5_radial_286_15044)"/>
<path id="Vector_16" d="M20.6226 23.2733L27.5649 18.2333C26.972 17.3686 26.3543 16.578 25.6626 15.8369L20.6226 19.4933L11.2343 12.6992L10.2461 15.738L20.6226 23.2733Z" fill="url(#paint6_linear_286_15044)"/>
<path id="Vector_17" d="M27.0723 14.8227C27.8381 15.5144 28.5793 16.2309 29.2711 16.9968L30.9758 15.7615L29.9876 12.7227L27.0723 14.8227Z" fill="url(#paint7_linear_286_15044)"/>
<path id="Vector_18" opacity="0.35" d="M11.2343 12.6992L10.8637 14.7745C10.7896 15.1945 10.9379 15.6145 11.2837 15.8616L20.6226 23.2733L10.2461 15.738L11.2343 12.6992Z" fill="#9B1B2E"/>
<path id="Vector_19" opacity="0.35" d="M3.4279 15.2422L1.52555 22.3822C1.37731 22.9998 1.67378 23.8151 2.1679 24.1857L20.6232 38.0951L0.685547 23.6422L3.4279 15.2422Z" fill="#9B1B2E"/>
<path id="Vector_20" opacity="0.6" d="M6.2207 21.9883L19.9572 31.253C20.3278 31.5 20.9207 31.5 21.2913 31.253L35.0278 21.9883L20.6242 32.4636L6.2207 21.9883Z" fill="#892334"/>
<path id="Vector_21" opacity="0.35" d="M20.623 38.0975L38.3619 24.3858C39.5972 23.4717 39.8689 23.274 39.3007 21.4952L35.5948 8.42578L40.536 23.6199L20.623 38.0975Z" fill="#9B1B2E"/>
<path id="Vector_22" opacity="0.35" d="M3.87305 13.8603L8.02364 1.92736C8.44364 0.716774 8.76481 0.395597 10.0495 0.346186L20.5989 0.222656H8.2954L3.87305 13.8603Z" fill="#9B1B2E"/>
<path id="Vector_23" d="M11.8027 27.5725L20.6227 33.9713L32.5063 25.3242L20.6227 34.5148L11.8027 27.5725Z" fill="#FFF5CC"/>
<path id="Vector_24" d="M13.6309 14.4534L20.6226 19.4934L28.6273 13.6875L20.6226 20.111L13.6309 14.4534Z" fill="#FFF5CC"/>
<path id="Vector_25" d="M19.957 0.222656H32.9276L35.5959 8.44972L32.4335 0.667363L19.957 0.222656Z" fill="#FFF5CC"/>
<path id="Vector_26" d="M25.119 0.222656C25.0202 1.28501 25.4649 2.4956 26.379 3.58266H30.5049L31.5178 6.7203C32.8025 7.04148 34.0378 7.04148 35.0508 6.76972L32.9261 0.222656H25.119Z" fill="#FFF2BB"/>
<path id="Vector_27" d="M24.1315 2.07398C23.2667 1.45633 22.2291 1.40692 21.8091 1.97516C21.5126 2.39516 21.6115 3.0128 22.0067 3.55633H25.095C25.0456 3.06221 24.6997 2.49398 24.1315 2.07398Z" fill="#FFF2BB"/>
<path id="Vector_28" d="M10.7413 26.7812C10.4201 27.5718 10.9884 28.7824 12.1248 29.5977C13.2613 30.413 14.5707 30.586 15.2378 30.0424L10.7413 26.7812Z" fill="#FFF2BB"/>
<path id="Vector_29" d="M15.2614 32.24C15.0637 32.5365 14.5449 32.5365 14.0755 32.2153C13.6061 31.9188 13.4084 31.4494 13.5814 31.153C13.779 30.8565 14.2979 30.8565 14.7673 31.1777C15.2367 31.4741 15.459 31.9435 15.2614 32.24Z" fill="#FFF2BB"/>
<path id="Vector_30" opacity="0.35" d="M26.5273 18.9992L29.9121 16.0839C30.2826 15.7627 30.4309 15.2933 30.3568 14.8239L29.9862 12.6992L30.9744 15.738L26.5273 18.9992Z" fill="#9B1B2E"/>
</g>
</g>
</g>
</g>
</g>
<defs>
<radialGradient id="paint0_radial_286_15044" cx="0" cy="0" r="1" gradientUnits="userSpaceOnUse" gradientTransform="translate(31.2567 1.4787) scale(31.6024 31.6024)">
<stop offset="0.0139665" stop-color="#E85621"/>
<stop offset="1" stop-color="#E33A0B"/>
</radialGradient>
<radialGradient id="paint1_radial_286_15044" cx="0" cy="0" r="1" gradientUnits="userSpaceOnUse" gradientTransform="translate(37.0064 -2.82353) scale(43.7201)">
<stop offset="0.0139665" stop-color="#E85621"/>
<stop offset="1" stop-color="#E33A0B"/>
</radialGradient>
<linearGradient id="paint2_linear_286_15044" x1="38.893" y1="-5.9341" x2="19.0768" y2="18.5099" gradientUnits="userSpaceOnUse">
<stop stop-color="#FFA369"/>
<stop offset="0.1319" stop-color="#FE9E66"/>
<stop offset="0.2926" stop-color="#FA8F5C"/>
<stop offset="0.4684" stop-color="#F3764C"/>
<stop offset="0.6548" stop-color="#EA5436"/>
<stop offset="0.8476" stop-color="#DF281A"/>
<stop offset="1" stop-color="#D40000"/>
</linearGradient>
<linearGradient id="paint3_linear_286_15044" x1="7.3362" y1="33.6557" x2="24.6606" y2="11.9409" gradientUnits="userSpaceOnUse">
<stop stop-color="#D40000"/>
<stop offset="1" stop-color="#FFAF47"/>
</linearGradient>
<linearGradient id="paint4_linear_286_15044" x1="20.6125" y1="19.228" x2="20.6125" y2="25.8294" gradientUnits="userSpaceOnUse">
<stop offset="0.6285" stop-color="#F7814A"/>
<stop offset="1" stop-color="#F7E399"/>
</linearGradient>
<radialGradient id="paint5_radial_286_15044" cx="0" cy="0" r="1" gradientUnits="userSpaceOnUse" gradientTransform="translate(28.0523 10.319) scale(18.3011 18.3011)">
<stop offset="0.0139665" stop-color="#E85621"/>
<stop offset="1" stop-color="#E33A0B"/>
</radialGradient>
<linearGradient id="paint6_linear_286_15044" x1="5.89909" y1="32.3847" x2="23.156" y2="10.7545" gradientUnits="userSpaceOnUse">
<stop stop-color="#D40000"/>
<stop offset="1" stop-color="#FFAF47"/>
</linearGradient>
<linearGradient id="paint7_linear_286_15044" x1="40.701" y1="0.880186" x2="24.3354" y2="21.0676" gradientUnits="userSpaceOnUse">
<stop stop-color="#FFA369"/>
<stop offset="0.1319" stop-color="#FE9E66"/>
<stop offset="0.2926" stop-color="#FA8F5C"/>
<stop offset="0.4684" stop-color="#F3764C"/>
<stop offset="0.6548" stop-color="#EA5436"/>
<stop offset="0.8476" stop-color="#DF281A"/>
<stop offset="1" stop-color="#D40000"/>
</linearGradient>
</defs>
</svg>
