<svg width="53" height="54" viewBox="0 0 53 54" fill="none" xmlns="http://www.w3.org/2000/svg">
<g id="Group">
<path id="Vector" d="M48.3312 47.8041C48.2547 47.7659 48.1783 47.7659 48.0636 47.7277C46.3048 47.3453 39.6902 46.313 39.6902 46.313C39.6902 46.313 39.1549 47.613 37.702 48.9894C36.2491 50.3276 33.9168 51.7041 30.2846 51.9717C25.5817 52.2776 22.8671 51.9335 21.4907 51.6276C20.726 51.4746 20.3819 51.3217 20.3819 51.3217C20.3819 51.3217 20.9554 53.4246 15.6408 53.6922C15.4114 53.6922 15.2202 53.6922 15.029 53.7305C10.4409 53.8834 8.94979 53.0805 8.10863 50.1364L7.99394 49.7159C7.99394 49.7159 5.85279 49.257 4.24695 46.8483C3.25285 45.3571 3.21464 44.2483 3.21464 43.4837C3.21464 43.0248 3.21464 42.6425 3.02347 42.4131C2.56465 41.7631 -0.341169 40.8837 0.576456 37.4044C1.53232 33.9251 2.71758 33.8868 2.87052 33.0074C2.98522 32.3957 1.60878 31.2487 1.26467 29.1075C1.11173 27.9987 1.34113 26.6605 1.95289 24.94C2.98521 22.0724 7.57335 19.0901 12.0468 17.7137C15.7173 16.5666 18.1643 16.4519 18.929 16.0696C19.0819 15.9931 19.1966 15.8784 19.1966 15.7637C19.1966 15.0755 15.7937 13.0491 17.3996 7.69627C19.0054 2.34346 21.9495 0.278801 23.4024 0.0493946C24.8553 -0.180012 27.3405 0.35527 27.4552 2.38169C27.5317 3.29932 27.6464 4.90516 28.067 6.62571C28.5258 8.65213 29.3669 10.8315 30.8198 12.3609C33.4963 15.152 39.1932 17.5607 40.149 19.5872C41.1049 21.6136 40.7608 27.5782 43.1313 29.4899C45.5019 31.4016 49.3635 29.9869 49.8606 30.6369C51.9252 33.428 52.3841 36.6015 52.0782 39.469C51.6194 44.1719 49.0194 47.9953 48.3312 47.8041Z" fill="url(#paint0_linear_1028_51545)"/>
<path id="Vector_2" opacity="0.2" d="M40.8343 29.5636C39.8785 40.4986 30.9316 41.9133 26.4965 36.1399C22.0995 30.3665 17.5878 17.5962 22.4436 21.0755C25.4641 23.2549 29.8993 32.3164 35.4051 29.8694C38.2344 28.6077 41.6755 20.0432 40.8343 29.5636Z" fill="#EF7A98"/>
<path id="Vector_3" opacity="0.3" d="M32.4642 43.6C28.679 38.2854 21.8733 41.3824 20.9174 45.9705C20.4586 48.1116 23.9762 47.4616 27.532 45.8558C30.2849 44.6323 33.7642 45.4352 32.4642 43.6Z" fill="#FFB311"/>
<path id="Vector_4" opacity="0.3" d="M48.3322 47.8043C47.2234 47.4985 39.653 46.3132 39.653 46.3132C39.653 46.3132 37.5883 51.4748 30.2473 51.9719C22.868 52.4689 20.3828 51.3219 20.3828 51.3219C20.3828 51.3219 20.9563 53.4248 15.6418 53.6924C10.5566 53.9601 8.79781 53.0807 7.99489 49.6778C7.99489 49.6778 5.28024 49.0278 3.90381 46.2367C3.29206 45.0132 6.65668 49.1425 14.2271 47.0014C18.5093 45.7779 17.8593 44.7073 16.6741 44.7073C11.5124 44.8221 3.25382 43.4456 3.25382 43.4456H3.17734C3.17734 42.9868 3.17734 42.6045 2.98617 42.375C8.9125 44.7838 14.3418 44.5544 16.9035 43.2162C19.4652 41.878 19.1593 38.2457 17.6299 37.1369C16.0623 36.0281 14.7241 37.5575 10.1742 36.7546C5.58611 35.9517 2.87147 32.9312 2.87147 32.9312C2.98618 32.3194 1.60973 31.1724 1.26562 29.0312C4.74495 34.537 13.233 36.7164 15.9859 35.6458C18.7005 34.5752 18.2035 30.6371 18.2035 30.6371C19.924 33.8488 17.7829 34.9193 17.8211 35.9899C17.8593 37.0605 19.0064 36.6781 19.3505 38.934C19.6946 41.228 18.1652 44.0574 18.1652 44.0574C19.8858 45.4338 18.8152 47.6514 18.8152 47.6514C22.7534 48.3396 26.6533 51.5895 29.9032 51.666C33.1531 51.7425 37.0148 48.5308 39.1559 45.7397C41.297 42.9103 40.3794 37.2516 42.2911 37.0605C43.3999 36.9458 48.2557 47.8043 52.0409 39.3928C51.6203 44.1721 49.0204 47.9955 48.3322 47.8043Z" fill="#D60066"/>
<path id="Vector_5" opacity="0.3" d="M17.2511 28.6076C13.0453 26.0077 9.18361 26.9636 7.92188 26.1224C7.92188 26.1224 11.0189 26.2371 11.4394 23.9813C11.8218 21.7637 17.2511 28.6076 17.2511 28.6076Z" fill="#D60066"/>
<path id="Vector_6" opacity="0.5" d="M23.2495 1.19527C22.4849 2.38054 23.3643 6.85396 24.4348 7.69512C25.1613 8.26863 27.6465 8.15393 27.7612 6.81572C27.9141 4.44519 27.3406 1.46291 27.1495 1.2335C26.8053 0.812925 23.9378 0.124706 23.2495 1.19527Z" fill="#FFB311"/>
<path id="Vector_7" opacity="0.2" d="M22.6023 17.7901C24.3994 10.0285 30.861 12.3225 30.861 12.3225C29.4081 10.7932 28.6052 8.6138 28.1081 6.58738C26.7699 12.8196 23.8641 9.30202 22.87 6.35798C21.8759 3.37569 19.1995 1.65515 17.4407 7.65794C15.8349 13.0108 19.2377 14.9989 19.2377 15.7254C19.2377 15.7636 19.2377 15.8019 19.1995 15.8401V15.8783C19.1995 15.9166 19.1613 15.9166 19.123 15.9548C19.123 15.9548 19.123 15.9548 19.0848 15.993C18.4731 16.4519 15.9496 16.5283 12.0879 17.7136C19.0083 15.993 20.8053 16.2989 21.2259 18.2489C21.6465 20.1988 19.8877 18.9753 20.3848 23.0664C21.1494 28.9545 27.2287 37.0602 27.2287 37.0602C27.2287 37.0602 20.8818 25.2458 22.6023 17.7901Z" fill="#EF7A98"/>
<path id="Vector_8" opacity="0.2" d="M39.7643 25.3202C35.5585 34.8788 25.8087 31.7818 26.4587 34.8406C27.1087 37.8993 31.0086 39.4287 33.9909 39.1993C38.7702 38.817 39.5349 33.5406 40.1466 30.0995C40.7584 26.6584 40.4525 23.7908 39.7643 25.3202Z" fill="#D60066"/>
<path id="Vector_9" opacity="0.2" d="M37.0492 39.2012C36.0933 41.1512 32.0787 56.789 39.6874 46.3128C40.5285 45.1658 47.1431 48.1863 48.6342 47.154C49.9342 46.2746 44.3137 44.8599 42.3255 29.6044C42.0961 27.9985 37.7757 37.7101 37.0492 39.2012Z" fill="#EF7A98"/>
<path id="Vector_10" opacity="0.5" d="M25.6561 18.3614C26.3061 20.2349 39.2675 22.1466 40.0322 20.1202C40.5293 18.782 34.6029 14.4998 30.206 13.2763C26.9943 12.3969 24.8149 15.9909 25.6561 18.3614Z" fill="#FFB311"/>
<path id="Vector_11" opacity="0.3" d="M7.19046 27.0418C3.86407 28.5712 19.8843 37.3651 18.0873 29.8711C17.7049 28.2653 9.86687 25.8183 7.19046 27.0418Z" fill="#FFB311"/>
<path id="Vector_12" opacity="0.3" d="M6.54353 38.629C9.48758 41.7642 18.9315 38.5525 16.8668 37.9025C14.8404 37.2908 5.35826 37.329 6.54353 38.629Z" fill="#FFB311"/>
<path id="Vector_13" d="M24.5461 7.15744C25.8843 8.99269 28.0637 7.53978 27.7578 6.7751C27.4519 6.04864 23.9726 6.39275 24.5461 7.15744Z" fill="white"/>
<path id="Vector_14" d="M34.2209 19.9703C34.8326 21.3849 39.3825 20.3908 38.6943 19.435C38.0826 18.4409 31.7356 14.0822 34.2209 19.9703Z" fill="white"/>
<path id="Vector_15" opacity="0.8" d="M2.87305 32.6641C7.99645 37.3669 14.9551 35.8758 16.4845 35.4169C17.6697 35.0728 18.5491 34.4228 18.5491 34.4228C18.5491 34.4228 17.6698 35.4934 17.8992 36.2199C17.8992 36.2199 14.0757 37.8639 9.25819 36.564C4.40243 35.264 2.87305 32.6641 2.87305 32.6641Z" fill="#D42F55"/>
<g id="Group_2">
<path id="Vector_16" opacity="0.8" d="M21.4923 51.6279C20.6894 50.4426 19.8865 49.2956 19.4659 48.9132C18.4336 47.9574 19.2747 47.0015 19.313 46.0074C19.3512 45.0133 18.7012 44.0957 18.663 43.6751C18.6247 43.2545 20.0012 41.3428 19.4277 39.3164C19.4277 39.3164 19.1982 41.1899 18.3953 42.7575C17.5542 43.1398 15.566 43.9045 12.3161 44.0957C7.76617 44.3633 3.10156 42.3369 3.10156 42.3369C7.11617 44.3251 13.1955 45.2427 17.363 44.2869C17.363 44.2869 18.663 45.8545 18.8159 47.6897C15.2601 50.5573 10.5191 50.0985 8.76027 49.7926C10.1749 50.0603 13.4249 50.5573 16.1395 50.1367C17.6689 49.9073 18.3953 49.4103 18.7012 48.9132C18.7012 48.9132 19.6188 49.7926 19.5423 51.322C19.4659 52.3926 16.6366 53.272 15.0689 53.6925C15.2601 53.6925 15.4895 53.6925 15.6807 53.6543C20.9953 53.3867 20.4218 51.2838 20.4218 51.2838C20.4218 51.2838 20.7276 51.4749 21.4923 51.6279Z" fill="#D42F55"/>
</g>
<path id="Vector_17" opacity="0.8" d="M48.0627 47.7266C46.3039 47.3442 39.6894 46.3119 39.6894 46.3119C39.6894 46.3119 39.1541 47.6119 37.7012 48.9883C39.4217 46.8472 39.7658 44.859 40.4158 45.0884C41.1423 45.3178 48.0627 47.7266 48.0627 47.7266Z" fill="#D42F55"/>
<path id="Vector_18" opacity="0.8" d="M18.7015 14.806C17.7074 13.5443 22.5249 15.953 22.6014 18.0559C22.6779 20.1971 19.3133 18.9736 20.8809 24.9381C20.8809 24.9381 19.8485 22.0705 20.5368 20.3118C21.2632 18.5912 21.4544 17.8648 20.6897 17.0618C19.925 16.2589 16.1016 16.6413 16.1016 16.6413C16.1016 16.6413 19.3133 16.2589 19.275 15.6854C19.2368 15.5325 18.7015 14.806 18.7015 14.806Z" fill="#D42F55"/>
<path id="Vector_19" opacity="0.8" d="M12.5437 23.6388C15.2965 25.4358 14.8377 27.1564 12.6584 26.8505C10.479 26.5828 7.95554 26.5446 8.79669 26.2005C9.63785 25.8181 10.6702 25.7417 11.1672 24.6711C11.626 23.6388 11.779 23.18 12.5437 23.6388Z" fill="#D42F55"/>
<path id="Vector_20" opacity="0.8" d="M41.8691 27.4609C42.5191 31.0932 41.3721 33.0814 43.5132 32.4314C45.6926 31.7814 47.5661 30.4432 49.3631 31.3991C51.1983 32.3549 52.0013 35.7578 52.0013 35.7578C52.0013 35.7578 51.1601 31.7814 49.8984 30.5962C49.1337 29.8697 45.9602 31.055 43.8956 29.9079C42.7103 29.258 41.8691 27.4609 41.8691 27.4609Z" fill="#D42F55"/>
<path id="Vector_21" opacity="0.2" d="M14.0346 24.943C22.752 29.9135 23.7461 35.0369 27.7989 37.4839C31.8518 39.9692 38.1222 34.9987 38.1987 37.9045C38.2752 40.8103 39.3457 52.1277 31.2783 51.5159C23.2108 50.9042 17.6286 50.5219 18.7756 44.0602C19.3874 40.6956 19.1197 38.5163 17.8962 36.184C17.5139 35.4957 19.6932 32.6282 18.0874 29.837C16.0992 26.3195 11.664 26.7018 12.0846 26.0136C12.5052 25.4019 13.1552 24.446 14.0346 24.943Z" fill="#EF7A98"/>
<path id="Vector_22" opacity="0.5" d="M15.5643 31.5917C15.5643 31.5917 14.9526 33.3122 15.5643 35.1475C15.5643 35.1475 12.0085 35.4916 11.2056 34.3063C10.3644 33.1593 10.938 30.5976 15.5643 31.5917Z" fill="#FFB311"/>
<path id="Vector_23" opacity="0.5" d="M16.0991 38.5156C16.0991 38.5156 15.5638 41.3832 16.5579 42.8743C16.5579 42.8743 13.6903 43.7537 12.505 42.8743C11.3198 41.995 11.9698 39.548 13.0021 39.2038C14.0344 38.8597 16.0991 38.5156 16.0991 38.5156Z" fill="#FFB311"/>
<path id="Vector_24" opacity="0.5" d="M16.5563 45.4727C16.5563 45.4727 16.2504 46.4668 17.0151 47.8814C17.0151 47.8814 15.0269 48.952 13.7651 48.4932C12.5416 48.0344 12.924 46.5815 13.7651 46.1226C14.6063 45.6638 16.5563 45.4727 16.5563 45.4727Z" fill="#FFB311"/>
<path id="Vector_25" opacity="0.5" d="M17.8194 50.25L18.5458 52.4294C18.5458 52.4294 15.6018 53.997 14.9901 52.9646C14.3783 51.9323 15.5636 50.7853 17.8194 50.25Z" fill="#FFB311"/>
</g>
<defs>
<linearGradient id="paint0_linear_1028_51545" x1="22.9393" y1="55.4901" x2="32.2576" y2="1.27428" gradientUnits="userSpaceOnUse">
<stop stop-color="#FFA200"/>
<stop offset="1" stop-color="#FFB82F"/>
</linearGradient>
</defs>
</svg>
