<svg width="21" height="27" viewBox="0 0 21 27" fill="none" xmlns="http://www.w3.org/2000/svg">
<path d="M17.7695 1.00391L17.8674 1.05114C17.8948 1.08656 17.9535 1.15347 17.9809 1.1889C18.9166 2.43268 19.5194 3.92049 19.7269 5.4634C19.4255 5.43191 19.1319 5.34139 18.8461 5.23905C19.0575 5.23118 19.2689 5.21543 19.4803 5.19969C19.5077 4.66046 19.312 4.14878 19.0849 3.67252C18.8931 3.30647 18.7091 2.92074 18.4155 2.62161C18.2706 2.46023 18.1258 2.29492 18.0005 2.1178C17.8165 1.7793 17.7813 1.3857 17.7695 1.00391Z" fill="#F79D1B"/>
<path d="M18.0044 2.11719C18.1297 2.29431 18.2745 2.45962 18.4194 2.621C18.2119 2.68791 17.9927 2.69972 17.7734 2.68791C17.8596 2.50292 17.93 2.31005 18.0044 2.11719Z" fill="#F7C24B"/>
<path d="M18.4168 2.62109C18.7105 2.92023 18.8905 3.30202 19.0863 3.67201C19.3133 4.14826 19.5091 4.65995 19.4817 5.19918C19.2703 5.21492 19.0589 5.23067 18.8475 5.23854C18.6322 5.22673 18.4168 5.21886 18.2054 5.21099C18.1663 5.20705 18.0919 5.19918 18.0528 5.19131C17.8296 4.60484 17.5595 4.01444 17.1406 3.53818C17.3599 3.26266 17.5947 2.99501 17.7709 2.68801C17.9901 2.69981 18.2094 2.68801 18.4168 2.62109Z" fill="#F57F0D"/>
<path d="M18.0547 5.19531C18.0938 5.19925 18.1682 5.20712 18.2074 5.21499C18.407 5.42754 18.6693 5.55743 18.9394 5.65189C19.233 5.75029 19.464 5.96283 19.7028 6.15176C19.7341 6.15176 19.7968 6.1557 19.832 6.15963L19.879 6.16357C19.9534 6.34463 20.1217 6.5493 20.0121 6.75397C19.7811 7.09247 19.4992 7.39554 19.3035 7.75765C19.2291 7.74978 19.0843 7.7301 19.0099 7.72223C18.9747 7.45458 18.9042 7.18693 18.7515 6.95864C18.4971 6.55323 18.3835 6.08091 18.1291 5.67551L18.0664 5.5653C18.0586 5.43541 18.0586 5.31339 18.0547 5.19531Z" fill="#FD9A11"/>
<path d="M18.2109 5.21094C18.4263 5.21881 18.6376 5.22275 18.853 5.23849C19.1387 5.34083 19.4284 5.43135 19.7338 5.46284C19.7534 5.69507 19.7925 5.92336 19.8356 6.15164C19.8043 6.15164 19.7416 6.14771 19.7064 6.14377C19.4676 5.95484 19.2366 5.74623 18.943 5.6439C18.669 5.55337 18.4106 5.42348 18.2109 5.21094Z" fill="#FEB517"/>
<path d="M18.1276 5.66797C18.386 6.06944 18.4956 6.5457 18.7501 6.95111C18.9028 7.1794 18.9693 7.44704 19.0085 7.71469C18.4252 7.69501 17.8419 7.76586 17.2585 7.73044C17.145 7.70682 17.0315 7.67533 16.9219 7.63991C17.3134 6.97866 17.9436 6.4473 18.1276 5.66797Z" fill="#FDC52F"/>
<path d="M17.2539 7.7302C17.8372 7.76563 18.4205 7.69478 19.0039 7.71446C19.0782 7.72233 19.2231 7.74201 19.2975 7.74988C18.9334 7.86403 18.5458 7.75775 18.17 7.79318C18.1543 7.92307 18.1426 8.05296 18.1309 8.18678L18.0956 8.18284C18.0604 8.17891 17.986 8.17497 17.9469 8.17497C17.7081 8.14742 17.4732 8.10019 17.2383 8.04902C17.2422 7.9703 17.25 7.80892 17.2539 7.7302Z" fill="#BD6A21"/>
<path d="M2.26116 0C3.51389 0.023616 4.76663 0.0157441 6.01936 0.0157441L5.96064 0.0393601C5.35776 0.0472321 4.7588 0.0590401 4.15592 0.0984002C3.72138 0.0747841 3.28684 0.0944642 2.85229 0.0984002C2.67613 0.0787201 2.49605 0.051168 2.31988 0.0275519C2.33163 0.188928 2.33946 0.350305 2.3512 0.511681C2.47256 0.515617 2.59 0.519553 2.71136 0.527425C2.58609 0.708481 2.46864 0.905282 2.42167 1.12176C2.38643 1.27527 2.3512 1.42877 2.31597 1.58227C1.95581 2.07034 1.58782 2.55447 1.29812 3.08977C1.1063 3.39677 0.906643 3.69591 0.726562 4.01079C1.08281 2.95594 1.59956 1.92077 2.3786 1.11783C2.31205 0.747841 2.28073 0.373921 2.26116 0Z" fill="#FDE68C"/>
<path d="M1.8125 7.69925L1.84773 7.69531C2.01215 8.19519 2.28227 8.64389 2.49759 9.12015C2.53282 9.27365 2.56023 9.43109 2.59154 9.5846C2.55631 9.57672 2.48976 9.56098 2.45453 9.55311C2.17658 9.1477 1.97692 8.68719 1.87905 8.20306C1.85165 8.04168 1.83599 7.87243 1.8125 7.69925Z" fill="#FDE68C"/>
<path d="M2.32812 0.0273438C2.50429 0.0548958 2.68046 0.082448 2.86054 0.098192C3.02496 0.36584 3.23244 0.617745 3.52214 0.755505C3.55737 0.889329 3.5926 1.01922 3.62784 1.14911C3.58477 1.12943 3.50256 1.08613 3.4595 1.06645C3.20504 0.897201 2.98189 0.680721 2.7196 0.523281C2.59825 0.515409 2.4808 0.511473 2.35944 0.507537C2.3477 0.350097 2.33595 0.18872 2.32812 0.0273438Z" fill="#F7FCEC"/>
<path d="M2.85156 0.0984104C3.2861 0.0905384 3.72065 0.0747943 4.15519 0.0984104C4.05732 0.129898 3.95945 0.165322 3.85766 0.200747C3.97119 0.251915 4.22565 0.271595 4.13561 0.464459C4.10038 0.704556 4.03383 0.93678 3.98685 1.17294C3.98294 1.20049 3.97119 1.24772 3.96728 1.27528C3.9203 1.01944 3.77545 0.810828 3.51316 0.755724C3.22738 0.617963 3.0199 0.366059 2.85156 0.0984104Z" fill="#FAE380"/>
<path d="M4.1608 0.0981026C4.76367 0.0548065 5.36264 0.0429985 5.96552 0.0390625L6.09079 0.0429984C6.09862 0.200439 6.10645 0.361815 6.11428 0.519255L6.10645 0.597975C6.08687 0.542871 6.04381 0.432663 6.02424 0.377559C5.35872 0.668824 4.7167 1.03094 3.99638 1.17263C4.04727 0.936472 4.11382 0.704248 4.14514 0.464151C4.23126 0.271287 3.98072 0.251607 3.86719 0.200439C3.96506 0.165015 4.06293 0.129591 4.1608 0.0981026Z" fill="#FCC950"/>
<path d="M6.08594 0.0390625C6.33257 0.0508705 6.5792 0.0587425 6.82583 0.0587425C6.83758 0.350007 6.85324 0.641271 6.8689 0.932536C7.61662 1.07817 8.18818 1.69612 8.97114 1.71187C9.05726 1.73548 9.14339 1.7591 9.2256 1.77878C9.44483 1.84175 9.66406 1.90867 9.88328 1.98345C9.84805 2.01494 9.76976 2.07791 9.73452 2.1094C9.39785 2.07398 9.06118 2.011 8.72059 1.99526C8.67753 1.97951 8.59532 1.95196 8.55617 1.93622C8.36826 1.86537 8.18035 1.80633 7.98461 1.75516C7.3739 1.58591 6.77103 1.34975 6.24644 0.991576C6.19555 0.838072 6.14857 0.680632 6.10551 0.523191C6.1016 0.357879 6.09377 0.200439 6.08594 0.0390625Z" fill="#FAF8E2"/>
<path d="M6.82812 0.0607615C7.91644 0.0607615 9.00866 0.0410816 10.097 0.0725697C9.83077 0.178842 9.55282 0.257562 9.26704 0.253626C8.47234 0.206394 7.6698 0.245754 6.91425 0.521274C7.58368 0.946363 8.26877 1.35177 8.97735 1.71388C8.19439 1.69814 7.62283 1.08019 6.8751 0.934555C6.85553 0.643291 6.83987 0.352026 6.82812 0.0607615Z" fill="#FEECA7"/>
<path d="M10.0929 0.0744272C10.3238 0.0665552 10.5587 0.0547473 10.7897 0.0508112C11.6979 0.0586833 12.6101 0.046875 13.5183 0.046875C13.5692 0.310587 13.6749 0.558556 13.8706 0.743548C13.8158 0.775037 13.7062 0.841948 13.6514 0.873437C13.5888 0.704188 13.5418 0.531004 13.4831 0.35782C13.44 0.031131 13.072 0.133467 12.8449 0.109851C11.9367 0.133467 11.0285 0.0822991 10.1203 0.161019C10.0694 0.782908 10.1046 1.41267 10.1398 2.03456V2.05817C10.1124 2.8375 10.0733 3.61683 10.1124 4.39616L10.0537 4.38436C9.95975 4.36074 9.86188 4.33319 9.76792 4.30563C10.132 3.7113 9.91277 3.0225 9.8423 2.38093C9.81882 2.24317 9.64656 2.24317 9.54478 2.21168C9.26291 2.15657 8.98105 2.10147 8.71484 1.99126C9.05543 2.00701 9.38819 2.06998 9.72877 2.10541C9.76792 2.07392 9.8423 2.01094 9.87754 1.97945C9.65831 1.90861 9.44299 1.83776 9.21985 1.77478C9.35687 1.76297 9.49389 1.75117 9.63482 1.73542C9.49389 1.68819 9.34904 1.64489 9.21202 1.58192C9.10632 1.24342 9.08675 0.881309 8.96148 0.542812C9.05935 0.444412 9.15722 0.346012 9.25509 0.247612C9.54869 0.25942 9.82664 0.180699 10.0929 0.0744272Z" fill="#FDE181"/>
<path d="M13.5234 0.048011C13.8405 0.040139 14.1576 0.0322672 14.4786 0.0362032C14.4865 0.240876 14.4786 0.449484 14.5178 0.654156C14.5883 0.847021 14.7801 1.01233 14.7096 1.23669C14.4317 1.07925 14.1498 0.925741 13.8797 0.74862C13.68 0.559692 13.5704 0.311724 13.5234 0.048011Z" fill="#FAF9E9"/>
<path d="M14.4727 0.0351859C15.5688 0.046994 16.6649 0.03125 17.7572 0.03125C17.7533 0.180818 17.7454 0.330387 17.7415 0.483891C17.7298 0.389427 17.7024 0.200498 17.6906 0.10997C17.1386 0.0942261 16.5866 0.0981619 16.0307 0.121778C16.0112 0.578355 16.0268 1.03493 16.019 1.49151C15.9916 2.015 15.9916 2.54242 16.0347 3.06591C15.9524 3.0541 15.8702 3.03836 15.7919 3.02262C15.8037 2.58572 15.7645 2.15276 15.7136 1.7198C15.3731 1.56236 15.0286 1.42066 14.6997 1.23567C14.7702 1.01525 14.5784 0.849939 14.5079 0.653139C14.4766 0.448467 14.4805 0.239858 14.4727 0.0351859Z" fill="#FBE898"/>
<path d="M10.1281 0.160543C11.0324 0.0818228 11.9445 0.132991 12.8528 0.109375C13.0798 0.129055 13.4478 0.0306547 13.4909 0.357343C12.4221 0.994976 11.3769 1.74282 10.1476 2.03408C10.1085 1.41219 10.0772 0.786368 10.1281 0.160543Z" fill="#FDB92A"/>
<path d="M16.0352 0.118911C16.5872 0.0952947 17.1392 0.0913586 17.6951 0.107103C17.7068 0.201567 17.7342 0.390495 17.746 0.481023L17.742 0.544C17.1392 0.807712 16.6459 1.26822 16.0195 1.48864C16.0313 1.036 16.0156 0.575488 16.0352 0.118911Z" fill="#FCD146"/>
<path d="M6.91016 0.52296C7.66571 0.247439 8.46824 0.208079 9.26294 0.255311C9.16508 0.353711 9.06721 0.452111 8.96934 0.550512C9.09461 0.889008 9.11418 1.25112 9.21988 1.58962C9.3569 1.65259 9.50175 1.69589 9.64268 1.74312C9.50566 1.75887 9.36864 1.77067 9.22771 1.78248C9.14159 1.75887 9.05546 1.73919 8.97325 1.71557C8.26467 1.35346 7.57959 0.948048 6.91016 0.52296Z" fill="#FDE38E"/>
<path d="M3.98903 1.17398C4.70935 1.03228 5.35138 0.670171 6.01689 0.378906C6.03647 0.43401 6.07953 0.544218 6.0991 0.599323C6.02864 1.27238 5.76243 1.92969 5.27308 2.40201C5.07343 2.54371 4.86986 2.68147 4.65455 2.80742C4.42357 2.9137 4.18086 2.99242 3.94206 3.07507C3.84027 3.05539 3.7424 3.03178 3.64453 3.0121C3.69151 3.01603 3.78938 3.01997 3.83636 3.0239C3.88725 2.44137 3.90682 1.85884 3.96946 1.28025C3.97729 1.24876 3.98512 1.20153 3.98903 1.17398Z" fill="#FDBD1D"/>
<path d="M10.1447 2.03611C11.374 1.74485 12.4192 1.00094 13.4879 0.359375C13.5427 0.532559 13.5936 0.705744 13.6563 0.874992C13.7072 1.00488 13.7659 1.1269 13.8324 1.25285C13.7933 1.43391 13.7502 1.6189 13.6484 1.77634C13.5036 2.00463 13.4175 2.2644 13.3431 2.52024C13.3039 2.63832 13.2648 2.76034 13.2257 2.87842C12.7911 3.84668 11.7811 4.35049 10.9238 4.87398C10.8729 4.89366 10.7711 4.93302 10.7202 4.9527C10.5049 5.01174 10.2896 5.05897 10.0782 5.11801C10.0703 4.87398 10.0664 4.62994 10.0625 4.38197L10.1212 4.39378C10.5753 4.35442 10.9746 4.1222 11.3661 3.90572C11.9612 3.55148 12.5758 3.15788 12.932 2.54386C13.3118 1.92197 13.5036 1.19774 13.5232 0.469583C13.0769 0.520751 12.7637 0.878928 12.3879 1.08754C11.6871 1.50082 10.9472 1.88261 10.1447 2.05579V2.03611Z" fill="#AF561A"/>
<path d="M2.42188 1.12168C2.46885 0.901264 2.5863 0.7084 2.71157 0.527344C2.97386 0.684784 3.197 0.901264 3.45147 1.07051C3.53759 1.51528 3.36142 1.93643 3.19309 2.33791C2.91514 1.94824 2.64893 1.54677 2.42188 1.12168Z" fill="#FBE38B"/>
<path d="M6.10067 0.598251L6.1085 0.519531C6.15156 0.676972 6.19463 0.834412 6.24943 0.987916C6.28467 1.09419 6.3199 1.20046 6.36296 1.30673C6.2925 1.44843 6.22594 1.59406 6.15939 1.73576C5.97931 2.13329 5.78749 2.52689 5.57217 2.90869C5.29814 3.34558 5.00453 3.77067 4.71875 4.1997C4.82445 3.57387 5.22767 3.03464 5.27465 2.39701C5.76008 1.92469 6.02629 1.26737 6.10067 0.598251Z" fill="#C08B39"/>
<path d="M12.3848 1.09061C12.7606 0.882001 13.0738 0.523824 13.52 0.472656C13.5005 1.20082 13.3086 1.92504 12.9289 2.54693C12.5727 3.16095 11.958 3.55455 11.363 3.90879C10.9715 4.12527 10.5722 4.36143 10.1181 4.39685C10.0789 3.61753 10.1181 2.8382 10.1455 2.05887C10.9402 1.88568 11.6801 1.50783 12.3848 1.09061Z" fill="#FCBC18"/>
<path d="M16.0225 1.49152C16.6489 1.2711 17.1421 0.810587 17.745 0.546875C17.7372 0.621659 17.7254 0.775163 17.7215 0.853883C17.6276 1.75523 17.0599 2.5503 16.3122 3.0305C16.2222 3.0423 16.1321 3.05411 16.0421 3.06198C15.9951 2.53849 15.9951 2.01501 16.0225 1.49152Z" fill="#FCC324"/>
<path d="M3.52023 0.757812C3.78252 0.812917 3.92737 1.02153 3.97435 1.27737C3.91171 1.85596 3.89214 2.44242 3.84124 3.02102C3.79427 3.01708 3.6964 3.01314 3.64942 3.00921C3.50066 2.78486 3.35581 2.5605 3.19922 2.34009C3.36755 1.93861 3.54372 1.51746 3.45759 1.07269C3.50066 1.09237 3.58678 1.13567 3.62593 1.15535C3.5907 1.02153 3.55546 0.891637 3.52023 0.757812Z" fill="#FBE8A3"/>
<path d="M13.6562 0.872076C13.7111 0.840588 13.8207 0.773676 13.8755 0.742188C14.1456 0.915372 14.4235 1.07281 14.7054 1.23025C15.0303 1.41524 15.3788 1.55694 15.7193 1.71438C15.7702 2.14734 15.8094 2.5803 15.7976 3.0172L15.6176 2.96997C15.3592 2.84402 15.1126 2.69838 14.8816 2.52913C14.494 2.13553 14.0869 1.74587 13.8324 1.24993C13.7659 1.12398 13.7071 1.00196 13.6562 0.872076Z" fill="#FBD350"/>
<path d="M17.7179 0.855469C17.7688 0.922381 17.8158 0.989293 17.8706 1.05227L17.7727 1.00504C17.7805 1.38683 17.8158 1.78043 18.0076 2.11893C17.9332 2.31179 17.8627 2.50466 17.7805 2.69358C17.6005 3.00059 17.3656 3.26824 17.1503 3.54376C17.0994 3.53195 16.9937 3.50834 16.9428 3.49259C16.6922 3.40207 16.4456 3.27611 16.3164 3.03208C17.0563 2.54795 17.6239 1.75681 17.7179 0.855469Z" fill="#B75911"/>
<path d="M6.24609 0.988281C6.77068 1.34646 7.37355 1.58262 7.98426 1.75187C8.07039 1.95654 8.12911 2.17302 8.17609 2.39344C8.40314 2.3462 8.46187 2.11792 8.55191 1.93292C8.59497 1.94867 8.67718 1.97622 8.71633 1.99196C8.98253 2.09824 9.2644 2.15728 9.54626 2.21238C9.64805 2.24387 9.8203 2.24387 9.84379 2.38163C9.91425 3.0232 10.1335 3.712 9.7694 4.30633C8.87683 4.01507 8.01166 3.55062 7.37747 2.8382C6.97033 2.37769 6.60625 1.87388 6.35571 1.3071C6.32047 1.20476 6.28133 1.09455 6.24609 0.988281Z" fill="#FDD04A"/>
<path d="M2.49619 9.125C2.82503 9.53828 3.14604 9.97518 3.60407 10.2468C3.70977 10.3924 3.79981 10.542 3.9016 10.6915C3.33004 10.4514 2.84852 10.0342 2.45312 9.5619C2.48836 9.56977 2.55491 9.58551 2.59014 9.59339C2.56274 9.43595 2.53142 9.2785 2.49619 9.125Z" fill="#FDCF63"/>
<path d="M2.42339 1.12109C2.65045 1.54618 2.91666 1.94765 3.19461 2.33732C3.34729 2.55774 3.49605 2.78602 3.64481 3.00644C3.39035 3.1442 3.24942 3.43547 2.95972 3.52599C2.93623 3.49057 2.89317 3.41972 2.86968 3.3843C2.77573 3.16782 2.67786 2.95527 2.5839 2.74273C2.43122 2.37274 2.30204 1.98702 2.3177 1.58161C2.35684 1.4281 2.38816 1.2746 2.42339 1.12109Z" fill="#BA7E25"/>
<path d="M13.8324 1.25C14.0869 1.74594 14.494 2.1356 14.8816 2.5292C14.909 2.726 14.9481 2.91887 15.0225 3.10386C14.9286 3.17077 14.8346 3.23768 14.7367 3.3046C14.3531 2.80866 13.9851 2.30485 13.6484 1.77349C13.7502 1.61605 13.7933 1.43106 13.8324 1.25Z" fill="#C96F29"/>
<path d="M6.15625 1.74152C6.2228 1.59589 6.28935 1.4542 6.35982 1.3125C6.61037 1.87929 6.97444 2.38309 7.38158 2.84361C8.01186 3.55602 8.87703 4.02047 9.77352 4.31174C9.86747 4.33929 9.96143 4.36684 10.0593 4.39046C10.0632 4.63449 10.0671 4.87852 10.075 5.12649C8.95533 4.91788 7.94139 4.31567 7.13103 3.52454C7.05665 3.42614 6.9901 3.3238 6.91963 3.22146C6.59471 2.76489 6.37548 2.24927 6.15625 1.74152Z" fill="#CE9441"/>
<path d="M1.30078 3.08562C1.59048 2.55032 1.95847 2.07013 2.31863 1.57812C2.30688 1.98353 2.43216 2.36926 2.58483 2.73925C2.51437 2.69989 2.4439 2.66446 2.37343 2.62904C2.24816 2.79435 2.18552 3.08168 1.93106 3.06987C1.81362 3.03838 1.70009 2.99509 1.58656 2.95179C1.49261 2.99509 1.39474 3.03838 1.30078 3.08562Z" fill="#FDD335"/>
<path d="M6.15752 1.74219C6.37675 2.24993 6.59598 2.76555 6.91699 3.21819C6.87784 3.26149 6.80346 3.34808 6.76432 3.38744C6.59598 3.56456 6.43547 3.77317 6.19667 3.84402C5.7543 3.74562 5.81694 3.20638 5.57422 2.91118C5.78562 2.53332 5.97744 2.13972 6.15752 1.74219Z" fill="#FDE283"/>
<path d="M7.98438 1.75C8.1762 1.80117 8.36802 1.86021 8.55593 1.93106C8.46589 2.11605 8.40717 2.34434 8.18011 2.39157C8.12922 2.17509 8.0705 1.95861 7.98438 1.75Z" fill="#F7E58E"/>
<path d="M13.3359 2.52516C13.4142 2.26538 13.4964 2.00954 13.6413 1.78125C13.974 2.31261 14.346 2.81642 14.7296 3.31236C15.3247 4.0602 15.6966 4.9458 16.1859 5.76055C16.2603 5.8314 16.3464 5.89044 16.4286 5.95735C16.3582 6.05969 16.2916 6.16596 16.2329 6.27617C16.1154 6.35489 15.998 6.42968 15.8766 6.50446C15.3442 6.81934 14.847 7.21688 14.2403 7.37825C14.3107 6.51233 14.1228 5.65822 14.021 4.8041C13.9897 4.56007 13.931 4.31997 13.8683 4.08381C13.7196 3.55245 13.6687 2.98173 13.3359 2.52516Z" fill="#FB9E19"/>
<path d="M4.66072 2.80385C4.87212 2.67789 5.07569 2.54407 5.27926 2.39844C5.23228 3.03607 4.82906 3.5753 4.72336 4.20113C4.69987 4.2523 4.64898 4.3507 4.62157 4.40187C4.59417 4.46091 4.53153 4.58292 4.50413 4.64196C4.32405 5.01588 4.15963 5.39374 4.00695 5.77947C3.98738 5.55512 3.95997 5.32289 4.02652 5.10247C4.20269 4.32708 4.42583 3.5635 4.66072 2.80385Z" fill="#95491E"/>
<path d="M1.92921 3.07365C2.18367 3.08545 2.2463 2.79812 2.37158 2.63281C2.44204 2.66824 2.51251 2.70366 2.58298 2.74302C2.67693 2.95557 2.7748 3.16811 2.86876 3.38459C3.00577 4.01829 2.46162 4.49454 2.23064 5.03378C1.59253 5.06526 0.985741 5.27781 0.359375 5.37621C0.457245 4.9157 0.539455 4.44338 0.727365 4.00648C0.907446 3.69553 1.1071 3.39246 1.29892 3.08545C1.39288 3.03822 1.49075 2.99493 1.5847 2.95163C1.69823 2.99493 1.81176 3.04216 1.92921 3.07365Z" fill="#FBC618"/>
<path d="M13.2216 2.88161C13.2607 2.76353 13.2999 2.64152 13.339 2.52344C13.6679 2.98001 13.7227 3.55074 13.8714 4.07816C13.9341 4.31432 13.9928 4.55442 14.0241 4.79845C14.1259 5.65256 14.3099 6.50668 14.2434 7.3726C14.1964 7.52217 14.1377 7.6678 14.0907 7.8213C13.8754 7.84098 13.6561 7.85673 13.4447 7.9197C12.3799 8.27788 11.2525 8.47468 10.1289 8.43532C10.1328 8.23065 10.1367 8.02991 10.1407 7.82524C11.2055 7.94725 12.2742 7.77013 13.296 7.47493C13.4682 7.40802 13.7109 7.33324 13.7344 7.11282C13.8166 6.34924 13.7227 5.57778 13.6131 4.81813C13.4956 4.16869 13.2999 3.53499 13.2216 2.88161Z" fill="#FCAA14"/>
<path d="M14.875 2.53125C15.106 2.7005 15.3526 2.84613 15.611 2.97208C15.654 3.45228 15.7832 3.92066 15.9046 4.38511C15.9281 4.46777 15.979 4.62521 16.0025 4.70786C15.9751 4.71967 15.9163 4.74722 15.8889 4.76297C15.6423 4.18831 15.3487 3.63727 15.012 3.10984C14.9416 2.92091 14.9024 2.72805 14.875 2.53125Z" fill="#84421B"/>
<path d="M3.94716 3.07234C4.18596 2.98968 4.42868 2.90702 4.65965 2.80469C4.42476 3.56434 4.20162 4.32792 4.01762 5.10332C3.95499 5.32373 3.98239 5.55596 3.99805 5.78031C3.97848 5.85903 3.95499 5.93381 3.93933 6.01253L3.91192 6.12274C3.82188 6.08338 3.73184 6.04796 3.6418 6.01253C3.69661 5.93775 3.7475 5.86297 3.79448 5.78424C3.76708 5.05215 3.43432 4.38303 3.10156 3.74933C3.38343 3.52104 3.65746 3.28488 3.94716 3.07234Z" fill="#D36B17"/>
<path d="M10.9183 4.87837C11.7796 4.35488 12.7857 3.84713 13.2202 2.88281C13.2985 3.53619 13.4943 4.16989 13.6156 4.81933C13.416 4.98858 13.1772 5.09091 12.9462 5.20899C12.68 5.33888 12.4725 5.61047 12.1554 5.61047C11.6895 5.65376 11.0867 5.79546 10.75 5.36643C10.887 5.30739 11.0201 5.23655 11.1532 5.16963C11.0749 5.07123 10.9966 4.97283 10.9183 4.87837Z" fill="#F18212"/>
<path d="M2.96094 3.52737C3.25063 3.43684 3.39156 3.14557 3.64603 3.00781C3.7439 3.02749 3.84568 3.05111 3.94355 3.07079C3.65386 3.28727 3.37982 3.51949 3.10187 3.74385L3.07447 3.69661C3.04706 3.65725 2.99226 3.57066 2.96094 3.52737Z" fill="#B16616"/>
<path d="M5.5685 2.91406C5.81513 3.20533 5.74858 3.74456 6.19095 3.8469C6.43367 3.77605 6.59417 3.5635 6.75859 3.39032C6.66073 4.05157 6.38277 4.66165 6.24967 5.31503C6.20269 5.33077 6.10482 5.35832 6.05393 5.37407C5.94823 5.06312 5.85819 4.74037 5.79947 4.41762C5.93257 4.26805 6.14397 3.87838 5.83079 3.81934C5.70943 3.89019 5.5959 3.98072 5.47846 4.05944C5.18876 4.18146 4.89515 4.27986 4.60938 4.40975C4.63678 4.35858 4.68767 4.26018 4.71116 4.20901C5.00085 3.77605 5.29055 3.35096 5.5685 2.91406Z" fill="#FDE896"/>
<path d="M15.6094 2.97266L15.7895 3.01989C15.8717 3.03563 15.95 3.05138 16.0322 3.06318C16.1222 3.05531 16.2123 3.0435 16.3023 3.0317C16.4354 3.27573 16.6781 3.40168 16.9287 3.49221L16.9756 3.57487C16.5998 3.82283 16.2162 4.05899 15.903 4.38568C15.7816 3.92123 15.6524 3.45679 15.6094 2.97266Z" fill="#D47618"/>
<path d="M15.0162 3.10547C15.3529 3.63289 15.6465 4.18393 15.8932 4.75859C15.9206 4.74678 15.9793 4.71923 16.0067 4.70349C16.1202 5.04198 16.1554 5.39623 16.1907 5.75047C15.7013 4.93965 15.3294 4.05011 14.7344 3.30227C14.8283 3.23929 14.9223 3.17238 15.0162 3.10547Z" fill="#BF5F1D"/>
<path d="M6.76354 3.388C6.80269 3.3447 6.87707 3.25811 6.91621 3.21875C6.98277 3.32109 7.05323 3.42342 7.12761 3.52182C7.04149 3.76585 6.95536 4.01382 6.8849 4.26573C6.66567 4.93091 6.50516 5.61184 6.3838 6.30064C6.34465 6.64701 6.18415 7.05636 6.39555 7.3673C6.69699 7.51293 7.02974 7.56804 7.33901 7.69005C7.06106 7.76877 6.7792 7.82782 6.4895 7.8593C6.45427 7.8593 6.3838 7.85537 6.34857 7.85537C6.41512 8.7449 6.61478 9.62263 6.87315 10.4728C6.89664 10.5476 6.94753 10.7011 6.97494 10.7759C6.89664 10.7798 6.81834 10.7838 6.74005 10.7916C6.32117 9.72891 6.04322 8.61502 5.92969 7.47751C6.05496 6.76116 6.10194 6.02906 6.25462 5.31664C6.38772 4.65933 6.66175 4.04531 6.76354 3.388Z" fill="#FBF6C6"/>
<path d="M2.87338 3.38281C2.89687 3.41824 2.93993 3.48908 2.96342 3.52451C2.99082 3.56781 3.04954 3.6544 3.07695 3.69769C2.77551 4.25267 2.46233 4.79978 2.20395 5.37443C1.81639 5.57517 1.41708 5.75229 1.00211 5.90186C0.669352 6.00813 0.497101 6.33875 0.238725 6.5513C0.187833 6.53162 0.0860485 6.48832 0.0351562 6.46471C0.254385 6.13802 0.379658 5.77197 0.363999 5.3705C0.990365 5.2721 1.59716 5.05955 2.23527 5.02806C2.46233 4.49277 3.0104 4.01257 2.87338 3.38281Z" fill="#FAD664"/>
<path d="M16.9351 3.49219C16.986 3.504 17.0917 3.52761 17.1426 3.54336C17.5615 4.01961 17.8316 4.61001 18.0548 5.19648C18.0587 5.3185 18.0587 5.44051 18.0626 5.56253C17.5811 6.12931 17.1583 6.75514 16.5476 7.19597C16.4693 7.00311 16.4027 6.80237 16.3401 6.60163C16.3088 6.49143 16.2735 6.38122 16.2344 6.27101C16.297 6.16474 16.3596 6.05453 16.4301 5.95219C16.9508 5.80656 17.4754 5.68454 17.9843 5.49955C17.8042 4.7832 17.2953 4.22822 16.9782 3.57484L16.9351 3.49219Z" fill="#FDCE3D"/>
<path d="M6.88672 4.26344C6.95718 4.01153 7.0394 3.76356 7.12944 3.51953C7.9398 4.31067 8.95373 4.91288 10.0734 5.12149C10.0616 5.30254 10.046 5.48753 10.0342 5.66859C9.75235 6.13304 9.94809 6.7077 9.87762 7.21938C9.83456 7.2548 9.74843 7.32959 9.70928 7.36501C9.34129 7.12885 8.94198 6.95173 8.52702 6.82971C8.31953 6.63685 8.19817 6.35739 7.95154 6.20782C7.73623 6.05826 7.46611 5.95986 7.32126 5.73157C7.23514 5.45605 7.22339 5.13723 6.98067 4.94437C6.93761 4.71608 6.90629 4.49173 6.88672 4.26344ZM7.64619 4.72001C7.63444 4.86565 7.65793 5.00734 7.68534 5.14904C7.79495 5.15297 7.90456 5.15691 8.01418 5.16085C8.08856 5.05457 8.16294 4.9483 8.23341 4.84597C8.05333 4.75937 7.84976 4.72789 7.64619 4.72001ZM8.35868 5.38913C8.42132 5.51509 8.59357 5.44424 8.70318 5.46785C8.69535 5.33797 8.71493 5.20021 8.65229 5.07819C8.45655 5.00734 8.3117 5.21595 8.35868 5.38913Z" fill="#FEDE77"/>
<path d="M15.9102 4.38504C16.2233 4.05835 16.6109 3.82219 16.9828 3.57422C17.2999 4.2276 17.8088 4.78257 17.9889 5.49893C17.48 5.68392 16.9554 5.80593 16.4347 5.95157C16.3525 5.88859 16.2664 5.82955 16.192 5.75477C16.1568 5.40053 16.1216 5.04629 16.008 4.70779C15.9806 4.62513 15.9336 4.46769 15.9102 4.38504Z" fill="#FA9311"/>
<path d="M3.07222 3.69922L3.09962 3.74645C3.43238 4.38015 3.76513 5.05321 3.79254 5.78137C3.74556 5.86009 3.69467 5.93487 3.63986 6.00965C3.29145 5.87977 2.94303 5.75381 2.57895 5.67509C2.70814 6.13954 2.98609 6.54495 3.33451 6.87164C3.43238 6.86377 3.53025 6.8559 3.62812 6.85196C3.5185 7.02908 3.38931 7.19439 3.26013 7.35577C2.90388 6.90313 2.53981 6.44655 2.33624 5.89945C2.31275 5.83647 2.26577 5.71052 2.24228 5.64361C2.23054 5.57669 2.21096 5.43893 2.19922 5.37202C2.45759 4.8013 2.77078 4.2542 3.07222 3.69922Z" fill="#F17C0E"/>
<path d="M5.48445 4.04869C5.6019 3.96997 5.71542 3.87944 5.83678 3.80859C6.14997 3.86763 5.93465 4.2573 5.80546 4.40687C5.68802 4.47378 5.56666 4.53282 5.44922 4.5958C5.46096 4.41474 5.47271 4.23368 5.48445 4.04869Z" fill="#FBF7D8"/>
<path d="M4.61744 4.40499C4.90322 4.2751 5.19683 4.1767 5.48653 4.05469C5.47478 4.23574 5.46304 4.42074 5.44738 4.60179C5.56874 4.53882 5.6901 4.47978 5.80363 4.41286C5.86235 4.73955 5.94847 5.05837 6.05809 5.36931C6.10506 5.35357 6.20293 5.32602 6.25383 5.31027C6.10115 6.02269 6.05417 6.75479 5.9289 7.47114C5.41998 7.29008 4.89931 7.07754 4.5 6.69575C4.88756 6.79808 5.23598 7.01063 5.62746 7.10509C5.49827 6.71543 5.23207 6.39661 4.96195 6.09354C5.21641 5.78653 5.41606 5.38506 5.23598 4.98359C5.189 4.84189 5.12637 4.70019 5.04024 4.57424C4.87582 4.44435 4.67617 4.60179 4.5 4.63722C4.5274 4.58211 4.59004 4.46403 4.61744 4.40499Z" fill="#FDF0A8"/>
<path d="M6.38281 6.29663C6.50026 5.60783 6.66468 4.9269 6.88391 4.26172C6.90348 4.49001 6.9348 4.71436 6.97395 4.93871C7.22058 5.13551 7.22841 5.45039 7.31453 5.72591C7.46329 5.9542 7.7295 6.0526 7.94481 6.20217C8.19145 6.35174 8.3128 6.63119 8.52029 6.82406C8.93917 6.94608 9.33848 7.11926 9.70256 7.35936C9.74562 7.32393 9.83174 7.24915 9.87089 7.21372C9.83957 7.45382 9.82783 7.84742 9.51073 7.87497C8.7082 7.89859 7.92915 7.64668 7.17752 7.39478C7.16577 7.20192 7.15403 7.00905 7.14228 6.81619C7.08748 6.78864 6.97395 6.73747 6.91914 6.70992C6.82518 6.79651 6.73123 6.88704 6.63727 6.97363C6.51983 6.76502 6.42588 6.53673 6.38281 6.29663Z" fill="#FDE387"/>
<path d="M4.49731 4.64236C4.67348 4.61087 4.87313 4.45343 5.03756 4.57938C5.12368 4.70534 5.18632 4.8431 5.2333 4.98873C5.26853 5.50041 4.93186 5.93731 4.53255 6.21283C4.31332 6.33484 4.12541 6.09868 3.9375 6.01209C3.95707 5.93337 3.97665 5.85465 3.99622 5.77987C4.15281 5.39414 4.31723 5.01234 4.49731 4.64236Z" fill="#FBFBF6"/>
<path d="M7.6437 4.71875C7.84727 4.72269 8.05084 4.75417 8.23484 4.8447C8.16045 4.95097 8.08607 5.05331 8.01561 5.15958C7.90599 5.15565 7.79638 5.15171 7.68676 5.14778C7.65545 5.01001 7.63196 4.86438 7.6437 4.71875Z" fill="#F8F3D4"/>
<path d="M13.6148 4.81641C13.7244 5.57212 13.8183 6.34751 13.7361 7.1111C13.7126 7.33152 13.4699 7.4063 13.2977 7.47321C12.2759 7.76841 11.2072 7.94553 10.1423 7.82352C10.1384 8.02819 10.1345 8.22892 10.1306 8.4336C11.2541 8.47296 12.3816 8.27616 13.4464 7.91798C13.6578 7.855 13.8731 7.83926 14.0924 7.81958C13.9318 8.48083 13.7087 9.12633 13.5169 9.77577C13.2898 10.2166 13.1489 10.7007 12.9453 11.1534C12.3542 12.6058 11.4225 13.8732 10.5925 15.1917C10.4125 15.2311 10.2363 15.2822 10.0562 15.3295C9.98183 14.192 10.0601 13.0505 10.0405 11.913C10.0366 11.8619 10.0327 11.7556 10.0327 11.7044C10.0327 11.5273 10.0405 11.3541 10.0445 11.1809C10.068 10.559 10.0562 9.93715 10.0523 9.31526C10.0993 8.09904 10.0014 6.88675 10.0288 5.67446C10.0405 5.4934 10.0562 5.30841 10.068 5.12735C10.2794 5.07225 10.4947 5.02108 10.71 4.96204C10.7178 5.06438 10.7374 5.26905 10.7452 5.37138C11.0858 5.80041 11.6848 5.65478 12.1506 5.61542C12.4677 5.61148 12.6752 5.34383 12.9414 5.21394C13.1763 5.08799 13.4151 4.98172 13.6148 4.81641ZM10.205 5.37138C10.1697 5.57606 10.3068 5.67446 10.4751 5.7453C10.6121 5.52489 10.4907 5.26118 10.205 5.37138ZM11.3912 11.4879C11.2072 11.6769 11.6574 11.8776 11.72 11.6257C11.8453 11.425 11.489 11.3462 11.3912 11.4879Z" fill="#FC900F"/>
<path d="M10.7148 4.95372C10.7657 4.93404 10.8675 4.89468 10.9184 4.875C10.9967 4.96946 11.075 5.06786 11.1533 5.16626C11.0202 5.23318 10.8871 5.30403 10.7501 5.36307C10.7422 5.26073 10.7227 5.05606 10.7148 4.95372Z" fill="#F8BD48"/>
<path d="M5.23336 4.99219C5.41344 5.38972 5.2177 5.79513 4.95932 6.10214C5.22944 6.40521 5.49565 6.7201 5.62483 7.1137C5.23336 7.01923 4.88494 6.80669 4.49737 6.70435C4.36427 6.59021 4.24291 6.46032 4.11764 6.3383C4.04717 6.26745 3.98062 6.19661 3.91016 6.12969L3.93756 6.01948C4.12156 6.10214 4.31338 6.34224 4.53261 6.22022C4.93192 5.94077 5.26859 5.49993 5.23336 4.99219Z" fill="#FCFAD7"/>
<path d="M8.35934 5.38764C8.31628 5.21445 8.45721 5.00584 8.65295 5.07669C8.71559 5.19871 8.69601 5.33647 8.70384 5.46636C8.59423 5.44274 8.42198 5.51359 8.35934 5.38764Z" fill="#FAEAA8"/>
<path d="M0.998272 5.90242C1.40932 5.75286 1.80863 5.57574 2.20011 5.375C2.21186 5.44191 2.23143 5.57967 2.24317 5.64658C1.92999 5.96146 1.65596 6.31964 1.34669 6.64239C1.06091 6.94547 0.892572 7.33907 0.626366 7.65788C0.446286 7.24067 0.109614 6.89823 0 6.45347L0.0352332 6.46921C0.0861254 6.48889 0.18791 6.53219 0.238802 6.5558C0.493264 6.33932 0.665514 6.01263 0.998272 5.90242Z" fill="#FBB718"/>
<path d="M10.2087 5.37355C10.4945 5.26334 10.6158 5.52706 10.4788 5.74747C10.3105 5.67662 10.1735 5.57822 10.2087 5.37355Z" fill="#FDB636"/>
<path d="M16.5469 7.19204C17.1576 6.75514 17.5804 6.12538 18.0619 5.55859L18.1245 5.6688C17.9405 6.44813 17.3103 6.97949 16.9188 7.64468C16.7622 7.52266 16.633 7.36916 16.5469 7.19204Z" fill="#EC9111"/>
<path d="M1.34542 6.64034C1.65078 6.31759 1.92481 5.96335 2.24191 5.64453C2.2654 5.70751 2.31238 5.83346 2.33587 5.90037C2.11272 6.47109 1.99528 7.07724 1.99136 7.69126L1.84652 7.69913L1.81128 7.70306C1.40023 7.71487 0.989178 7.69126 0.578125 7.71881L0.625103 7.65977C0.891308 7.33701 1.05964 6.94341 1.34542 6.64034Z" fill="#FDC61A"/>
<path d="M2.58203 5.67578C2.94611 5.75844 3.29452 5.88045 3.64294 6.01034C3.73298 6.04577 3.82302 6.08119 3.91306 6.12055C3.98353 6.1914 4.05008 6.25831 4.12054 6.32916C4.02267 6.76999 4.07748 7.22657 3.98744 7.6674C3.90523 7.25412 3.86217 6.8369 3.86608 6.41575C3.7917 6.56138 3.71341 6.70702 3.62728 6.84871C3.52941 6.85658 3.43154 6.86052 3.33367 6.86839C2.98917 6.54564 2.71122 6.14023 2.58203 5.67578Z" fill="#F9B024"/>
<path d="M9.87625 7.21876C9.94672 6.70707 9.75098 6.13242 10.0328 5.66797C10.0015 6.88419 10.1033 8.09649 10.0563 9.30878C10.0054 9.45441 9.94672 9.5961 9.888 9.7378C9.83711 9.31271 9.81753 8.88762 9.79796 8.46253C9.53567 8.44679 9.26946 8.44285 9.00717 8.43892C8.16549 8.2618 7.31598 8.10829 6.49388 7.85245C6.77965 7.82096 7.06543 7.76192 7.34338 7.6832C7.03412 7.56119 6.69744 7.50608 6.39992 7.36045C6.18852 7.04951 6.34903 6.63623 6.38818 6.29379C6.43124 6.53783 6.52519 6.76218 6.64264 6.97866C6.73659 6.89207 6.83055 6.80154 6.9245 6.71495C6.97931 6.7425 7.09284 6.79367 7.14765 6.82122C7.15939 7.01408 7.17113 7.20695 7.18288 7.39981C7.93452 7.65172 8.71356 7.90362 9.51609 7.88001C9.83319 7.85245 9.84494 7.45885 9.87625 7.21876Z" fill="#FCEFAA"/>
<path d="M2.33668 5.89844C2.54025 6.44554 2.90432 6.90212 3.26057 7.35476L3.30755 7.4571C3.19793 7.54762 3.08441 7.63815 2.96305 7.71294C2.64203 7.67751 2.31711 7.66964 1.99609 7.68932C1.99609 7.0753 2.11354 6.46916 2.33668 5.89844Z" fill="#FCB211"/>
<path d="M15.879 6.49391C15.9964 6.41913 16.1178 6.34435 16.2353 6.26562C16.2705 6.37583 16.3057 6.48604 16.341 6.59625C16.1844 7.21027 16.0473 7.82822 15.8555 8.43043C15.5071 8.41075 15.5267 8.79254 15.4327 9.02477C15.1665 9.8159 14.7555 10.6031 14.043 11.0754C14.2779 10.6503 14.5088 10.2252 14.7007 9.77654C15.0021 9.18614 15.3035 8.59181 15.468 7.9463C15.5932 7.45824 15.7616 6.98198 15.879 6.49391Z" fill="#E9790A"/>
<path d="M3.99219 7.67418C4.08223 7.23335 4.02742 6.77677 4.12529 6.33594C4.25056 6.45795 4.37192 6.58391 4.50503 6.70199C4.90433 7.08378 5.425 7.29239 5.93392 7.47738C6.04745 8.61489 6.3254 9.72878 6.74429 10.7915C6.9596 11.378 7.22972 11.9447 7.46461 12.5233C7.46852 12.8422 7.53899 13.1531 7.63686 13.4562C7.40588 13.1216 7.04181 12.9287 6.7756 12.6257C6.70514 12.5115 6.57986 12.5194 6.46633 12.5273H6.45459C6.10617 12.1337 5.80474 11.7047 5.51504 11.2638C5.46806 11.1733 5.37802 11.1261 5.28798 11.0906C5.35453 10.7167 5.0531 10.4569 4.88867 10.1578C4.45805 9.38634 4.13703 8.54797 3.99219 7.67418ZM5.44849 8.59914C5.54244 8.64244 5.6364 8.6818 5.73035 8.72509C5.83997 8.5834 5.85954 8.41415 5.84388 8.23703C5.609 8.20554 5.38977 8.33149 5.44849 8.59914Z" fill="#FC9F0E"/>
<path d="M14.2399 7.36989C14.8467 7.21245 15.3438 6.81491 15.8762 6.49609C15.7588 6.98416 15.5905 7.46042 15.4613 7.94848C15.1951 8.0272 14.8623 8.01539 14.6861 8.26336C14.4513 8.53888 14.3338 8.89706 14.0715 9.14896C13.8758 9.3497 13.7035 9.57011 13.5156 9.77479C13.7074 9.12141 13.9306 8.47984 14.0911 7.81859C14.1381 7.66509 14.1929 7.51946 14.2399 7.36989Z" fill="#C1510D"/>
<path d="M1.84766 7.69985L1.9925 7.69197C2.31352 7.66836 2.63844 7.68017 2.95946 7.71559C2.84593 7.75101 2.7324 7.78644 2.61496 7.81793C2.79895 8.43588 3.08473 9.0499 3.58191 9.47892C3.95381 9.80561 4.43533 9.95518 4.88162 10.152C4.6389 10.2819 4.37661 10.3685 4.11041 10.4275C3.94207 10.3645 3.77373 10.3094 3.6054 10.2464C3.14737 9.97486 2.82635 9.53402 2.49751 9.12468C2.28611 8.64842 2.01208 8.19972 1.84766 7.69985Z" fill="#F0A020"/>
<path d="M6.35156 7.85156C6.3868 7.85156 6.45726 7.8555 6.4925 7.8555C7.3146 8.11528 8.16411 8.26484 9.00579 8.44196C9.10366 8.4892 9.20153 8.54036 9.2994 8.5876C9.25634 8.62302 9.17804 8.68993 9.13498 8.72536C9.21719 8.8395 9.29548 8.95758 9.3777 9.07566C9.48731 9.07566 9.59692 9.07566 9.70654 9.07566C9.73786 9.78414 9.67913 10.5084 9.85139 11.205C9.90228 11.1972 10.0001 11.1775 10.0471 11.1696C10.0393 11.3428 10.0354 11.516 10.0354 11.6931C9.65173 11.4688 9.24851 11.272 8.92749 10.9571C8.38334 10.4336 7.55732 10.4533 6.98184 9.99669C6.94661 10.1502 6.90746 10.3076 6.87614 10.4611C6.61777 9.61489 6.41811 8.7411 6.35156 7.85156Z" fill="#FEDE76"/>
<path d="M14.6886 8.26019C14.8648 8.01222 15.1975 8.02403 15.4637 7.94531C15.3032 8.59082 15.0018 9.18909 14.6965 9.77556C14.5085 10.2243 14.2776 10.6493 14.0388 11.0744C13.7608 11.4208 13.4907 11.775 13.2715 12.1608C13.0327 12.6174 12.6451 12.9677 12.3946 13.4164C12.1949 13.7863 11.7251 13.9871 11.6703 14.4319L11.6625 14.4712C11.5333 14.6287 11.2475 14.7192 11.2867 14.9593C11.0948 15.0301 10.9069 15.1049 10.7112 15.1639L10.5938 15.1876C11.4237 13.869 12.3554 12.6016 12.9465 11.1492C13.1501 10.6966 13.291 10.2164 13.5181 9.77162C13.706 9.56695 13.8783 9.3426 14.074 9.14579C14.3363 8.88995 14.4537 8.53178 14.6886 8.26019Z" fill="#D7610A"/>
<path d="M17.2357 8.05078C17.4706 8.10195 17.7055 8.14918 17.9443 8.17673C17.6311 8.72384 17.3531 9.31818 16.8481 9.72358C16.3744 10.0936 15.8459 10.3848 15.3174 10.6722C15.1608 10.7115 15.0043 10.7391 14.8438 10.7666C15.0199 10.4006 15.4271 10.3179 15.7442 10.129C16.026 9.93613 16.347 9.80624 16.6289 9.61338C17.0321 9.26307 17.3179 8.80256 17.6428 8.38141C17.4745 8.3696 17.3062 8.35779 17.1417 8.34598C17.1809 8.24758 17.2122 8.14918 17.2357 8.05078Z" fill="#DF8515"/>
<path d="M17.951 8.17578C17.9863 8.17972 18.0606 8.18365 18.0998 8.18365C17.908 9.09681 17.3247 9.93518 16.5104 10.3878C16.1737 10.5886 15.8136 10.7539 15.4338 10.868C15.4064 10.8168 15.3555 10.7184 15.3281 10.6712C15.8566 10.3839 16.3851 10.0926 16.8588 9.72263C17.3599 9.31722 17.6379 8.72289 17.951 8.17578Z" fill="#FEBA2C"/>
<path d="M5.44819 8.59732C5.38555 8.32967 5.6087 8.20372 5.84358 8.23521C5.85924 8.41233 5.83575 8.57764 5.73005 8.72327C5.64001 8.67998 5.54606 8.64062 5.44819 8.59732Z" fill="#F8D45B"/>
<path d="M17.1448 8.33984C17.3131 8.35165 17.4814 8.36346 17.6459 8.37527C17.3209 8.79642 17.0351 9.253 16.6319 9.60724C16.3501 9.80404 16.029 9.92999 15.7472 10.1229C15.5788 10.115 15.4144 10.1071 15.25 10.0992C15.2617 10.0638 15.2852 9.98903 15.3009 9.95361C16.1034 9.7017 16.859 9.16641 17.1448 8.33984Z" fill="#F8A115"/>
<path d="M9.00781 8.44141C9.2701 8.44534 9.53631 8.44928 9.7986 8.46502C9.81817 8.89011 9.84166 9.3152 9.88864 9.74029C9.94736 9.59859 10.0061 9.45296 10.057 9.31126C10.0648 9.93315 10.0726 10.555 10.0491 11.1769C9.99825 11.1848 9.90038 11.2045 9.85341 11.2124C9.68116 10.5157 9.74379 9.79146 9.70856 9.08297C9.59895 9.08297 9.48933 9.08297 9.37972 9.08297C9.29751 8.96489 9.21921 8.85075 9.137 8.73267C9.18006 8.69725 9.25836 8.63033 9.30142 8.59491C9.20355 8.53981 9.10568 8.48864 9.00781 8.44141Z" fill="#FCE689"/>
<path d="M15.4301 9.02476C15.524 8.79253 15.5045 8.41074 15.8529 8.43042C15.7119 8.95391 15.4692 9.44197 15.3009 9.95365C15.2891 9.98908 15.2617 10.0639 15.25 10.0993C15.4144 10.1072 15.5828 10.119 15.7472 10.1229C15.4262 10.3118 15.019 10.3945 14.8468 10.7605C15.0034 10.733 15.1639 10.7054 15.3205 10.6661C15.3479 10.7172 15.3988 10.8156 15.4262 10.8629L15.4379 10.8865C15.1678 10.9731 14.8703 10.9888 14.6119 11.103C13.8289 12.3664 12.815 13.4882 11.6719 14.4328C11.7267 13.9881 12.1965 13.7873 12.3961 13.4173C12.6467 12.9686 13.0342 12.6144 13.273 12.1618C13.4962 11.776 13.7663 11.4218 14.0403 11.0754C14.7528 10.607 15.1639 9.81983 15.4301 9.02476Z" fill="#F18810"/>
<path d="M6.875 10.4684C6.90632 10.3109 6.94547 10.1574 6.9807 10.0039C7.56009 10.4605 8.38611 10.4408 8.92635 10.9643C9.24736 11.2792 9.65059 11.472 10.0342 11.7003C10.0382 11.7515 10.0421 11.8578 10.0421 11.9089C9.37655 11.7751 8.75801 11.4405 8.07293 11.3815C7.84587 11.354 7.62664 11.2674 7.41524 11.1886C7.37218 11.3146 7.32912 11.4445 7.28997 11.5704C7.18035 11.3067 7.07074 11.043 6.97287 10.7754C6.94938 10.6966 6.89849 10.5431 6.875 10.4684Z" fill="#FDD45A"/>
<path d="M4.8845 10.1562C5.04892 10.4515 5.35036 10.7152 5.28381 11.0891C5.11939 11.0694 4.95888 11.0458 4.79446 11.0182L4.79055 10.9986C4.79055 10.6443 4.35992 10.5656 4.10938 10.4318C4.3795 10.3727 4.64179 10.2861 4.8845 10.1562Z" fill="#F18D0D"/>
<path d="M3.60547 10.2461C3.7738 10.3091 3.94214 10.3642 4.11048 10.4272C4.36102 10.561 4.79556 10.6397 4.79165 10.9939C4.49021 10.9113 4.16528 10.8601 3.90299 10.6869C3.80512 10.5413 3.71117 10.3917 3.60547 10.2461Z" fill="#FDB62F"/>
<path d="M6.74219 10.7853C6.82048 10.7813 6.89878 10.7735 6.97707 10.7695C7.07494 11.0372 7.18064 11.3048 7.29417 11.5646C7.5917 12.2849 8.01058 12.9422 8.40597 13.6113C8.67218 14.06 9.048 14.4458 9.23199 14.9417L9.17327 15.0125C9.13021 14.9968 9.04408 14.9693 9.00102 14.9574C8.90707 14.8787 8.81311 14.7961 8.71916 14.7134C8.31202 13.9734 7.82658 13.2768 7.45859 12.5171C7.22371 11.9385 6.95359 11.3757 6.74219 10.7853Z" fill="#EBF0BC"/>
<path d="M7.41824 11.1875C7.63356 11.2702 7.84887 11.3528 8.07593 11.3804C8.76102 11.4394 9.37564 11.77 10.0451 11.9078C10.0646 13.0453 9.98634 14.1867 10.0607 15.3242C9.69665 15.4187 9.32083 15.3557 8.97241 15.2377C9.03896 15.1629 9.10552 15.092 9.17207 15.0172L9.23079 14.9464C9.04679 14.4504 8.66706 14.0647 8.40477 13.616C8.00938 12.9508 7.58658 12.2896 7.29297 11.5693C7.33212 11.4433 7.37518 11.3174 7.41824 11.1875Z" fill="#FDCD49"/>
<path d="M11.3929 11.49C11.4908 11.3483 11.8509 11.427 11.7217 11.6277C11.6591 11.8796 11.205 11.6789 11.3929 11.49Z" fill="#FDB222"/>
<path d="M6.46094 12.5235C6.57447 12.5157 6.70365 12.5078 6.77021 12.6219C7.0325 12.925 7.40049 13.1218 7.63146 13.4524C7.53359 13.1494 7.46312 12.8384 7.45921 12.5196C7.8272 13.2832 8.31263 13.9759 8.71977 14.7159C8.62973 14.6411 8.54361 14.5703 8.45357 14.4994C8.21868 14.2947 7.99162 14.0783 7.76065 13.8696C7.45138 13.5587 7.14211 13.2438 6.82501 12.9447C6.69191 12.8148 6.57447 12.6692 6.46094 12.5235Z" fill="#FBB616"/>
<path d="M7.21094 14.75C7.25791 14.7579 7.35187 14.7697 7.39885 14.7736C7.52412 15.0452 7.62591 15.3286 7.71986 15.612C7.75901 15.8678 7.79033 16.1197 7.81773 16.3795C7.73552 16.3677 7.57893 16.3401 7.49672 16.3283C7.40668 15.8048 7.29706 15.2814 7.21094 14.75Z" fill="#F0F8E1"/>
<path d="M7.39844 14.7773C7.45324 14.7813 7.56677 14.7852 7.62158 14.7892C7.60984 14.8324 7.58635 14.923 7.5746 14.9663C8.13833 15.1867 8.63551 15.5449 9.17967 15.8086C9.07005 15.844 8.95652 15.8794 8.84691 15.9188C8.51807 15.6511 8.12267 15.4976 7.75077 15.3126C7.74294 15.3874 7.72728 15.5409 7.71945 15.6157C7.6255 15.3323 7.52371 15.0489 7.39844 14.7773Z" fill="#F6DF7A"/>
<path d="M7.61727 14.7891C8.08313 14.8127 8.53725 14.915 9.00311 14.9622C9.04617 14.978 9.1323 15.0055 9.17536 15.0174C9.10881 15.0921 9.04226 15.1669 8.97571 15.2378C9.32412 15.3558 9.69994 15.4188 10.064 15.3244C10.2402 15.2771 10.4203 15.226 10.6003 15.1866L10.7178 15.163L10.8431 15.1945C10.7804 15.2693 10.7217 15.344 10.6591 15.4188C10.1736 15.5212 9.68037 15.5999 9.18319 15.6314C9.19885 15.6707 9.23408 15.7494 9.25366 15.7888L9.18319 15.8085C8.63903 15.5448 8.14185 15.1866 7.57812 14.9662C7.58204 14.9229 7.60553 14.8324 7.61727 14.7891Z" fill="#F8B817"/>
<path d="M11.292 14.9586C11.7892 14.7697 12.3334 14.7618 12.858 14.75C12.6387 15.3719 12.5839 16.0371 12.4234 16.6747C12.2825 16.8046 12.1415 16.9266 12.0006 17.0526C12.0084 16.5645 12.1181 16.0804 12.0593 15.5884C11.8871 15.6474 11.7187 15.7065 11.5504 15.7694C11.0337 15.9859 10.4856 16.1197 9.92969 16.1788C9.93752 16.1315 9.95709 16.041 9.96492 15.9938C10.6931 15.793 11.5034 15.6513 12.0789 15.1239C11.9184 15.1042 11.754 15.0255 11.5935 15.057C11.292 15.2026 10.9945 15.368 10.6578 15.4112C10.7205 15.3365 10.7831 15.2617 10.8418 15.1869L10.7166 15.1554C10.9084 15.1042 11.1002 15.0295 11.292 14.9586Z" fill="#F49E22"/>
<path d="M11.5873 15.062C11.7478 15.0305 11.9122 15.1093 12.0727 15.1289C11.4973 15.6564 10.6869 15.7941 9.95874 15.9988C9.71602 15.9398 9.48113 15.861 9.24625 15.7902C9.23059 15.7508 9.19536 15.6721 9.17578 15.6328C9.67296 15.6013 10.1662 15.5265 10.6517 15.4202C10.9883 15.373 11.2859 15.2037 11.5873 15.062Z" fill="#E98710"/>
<path d="M7.74274 15.3125C8.11465 15.4975 8.51396 15.651 8.83888 15.9186C9.08943 16.2571 9.48874 16.4028 9.89196 16.4421C9.88022 16.7137 9.88413 16.9814 9.88413 17.253C9.17947 17.3159 8.57268 16.8751 7.96589 16.576C7.82495 16.4933 7.66053 16.5602 7.51177 16.5681C7.50394 16.509 7.4922 16.391 7.48828 16.3319C7.57049 16.3437 7.72708 16.3674 7.80929 16.3831C7.78581 16.1273 7.75057 15.8714 7.71142 15.6156C7.71925 15.5408 7.73491 15.3873 7.74274 15.3125Z" fill="#FEC942"/>
<path d="M11.5469 15.7709C11.7152 15.7079 11.8875 15.6489 12.0558 15.5898C12.1145 16.0779 12.0049 16.566 11.9971 17.054C11.8953 17.1328 11.7778 17.1879 11.6682 17.2508C11.6604 16.7746 11.7191 16.3023 11.7348 15.8299C11.6878 15.8142 11.5939 15.7827 11.5469 15.7709Z" fill="#EA8A18"/>
<path d="M9.1765 15.8048L9.24696 15.7852C9.48185 15.856 9.72065 15.9308 9.95946 15.9938C9.95163 16.041 9.93205 16.1315 9.92422 16.1788C9.91639 16.2417 9.90465 16.3716 9.90074 16.4385C9.4936 16.4031 9.09429 16.2575 8.84766 15.915C8.95336 15.8757 9.06297 15.8403 9.1765 15.8048Z" fill="#FAD463"/>
<path d="M9.92459 16.1789C10.4805 16.1198 11.0286 15.986 11.5453 15.7695C11.5923 15.7853 11.6862 15.8128 11.7332 15.8286C11.7176 16.3009 11.6628 16.7732 11.6667 17.2495C11.7763 17.1865 11.8937 17.1314 11.9955 17.0527C12.1364 16.9307 12.2813 16.8047 12.4183 16.6748C12.2852 16.9779 11.9994 17.1983 11.7215 17.3597L11.6314 17.399C11.4396 17.4896 11.2987 17.6509 11.1538 17.7966C10.8093 18.0406 10.3748 18.0721 9.96765 18.0524C9.89719 18.0485 9.75234 18.0367 9.67796 18.0327L9.56835 18.0091C9.41175 17.9698 9.25516 17.9225 9.09857 17.8674C8.96938 17.8163 8.84019 17.7611 8.71101 17.7021L8.67969 17.5211C9.079 17.6195 9.47439 17.7454 9.87761 17.832C9.88153 17.6352 9.88153 17.4384 9.88544 17.2416C9.88544 16.97 9.88153 16.7024 9.89327 16.4308C9.90502 16.3717 9.91676 16.2419 9.92459 16.1789Z" fill="#CF6A14"/>
<path d="M7.51562 16.5653C7.66439 16.5535 7.82881 16.4905 7.96974 16.5732C8.57262 16.8723 9.17941 17.3132 9.88799 17.2502C9.88799 17.447 9.88407 17.6438 9.88016 17.8406C9.47694 17.7579 9.08154 17.628 8.68223 17.5296L8.71355 17.7107C8.58436 17.6517 8.45517 17.5966 8.3299 17.5336C8.3025 17.4903 8.23986 17.3998 8.21246 17.3565C8.1968 17.3289 8.16157 17.2738 8.14199 17.2462C7.9071 17.0455 7.66047 16.8448 7.51562 16.5653Z" fill="#F6AE26"/>
<path d="M8.21698 17.3555C8.24438 17.3988 8.30702 17.4893 8.33442 17.5326C8.26787 17.8357 8.16217 18.1269 8.0369 18.4143C7.88422 18.7685 7.98992 19.1621 8.02124 19.5281C7.97426 19.5124 7.88422 19.477 7.84116 19.4612C7.6415 18.7409 7.81375 17.9774 8.21698 17.3555Z" fill="#F7D142"/>
<path d="M11.1562 17.8038C11.3011 17.6542 11.442 17.4968 11.6339 17.4062C11.8218 18.0439 12.0919 18.6855 11.9901 19.3624C12.0214 19.3743 12.0801 19.4018 12.1075 19.4175C12.1898 19.453 12.272 19.4923 12.3542 19.5278C12.1232 19.5514 11.9001 19.6065 11.6847 19.6852C11.6887 19.1066 11.6065 18.5241 11.3911 17.9848C11.352 17.8746 11.2737 17.8156 11.1562 17.8038Z" fill="#C86615"/>
<path d="M11.6328 17.3987L11.7229 17.3594C12.1104 17.9498 12.3257 18.7094 12.1065 19.41C12.0752 19.3982 12.0165 19.3707 11.9891 19.3549C12.0908 18.6779 11.8207 18.0364 11.6328 17.3987Z" fill="#E48C2C"/>
<path d="M8.33503 17.5312C8.4603 17.5942 8.58949 17.6493 8.71868 17.7084C8.84787 17.7674 8.97314 17.8225 9.10624 17.8737C8.99271 18.0784 8.87527 18.287 8.8048 18.5113C8.73825 18.9089 8.64038 19.5662 9.21194 19.5858C9.46249 19.6488 9.72087 19.6921 9.97924 19.7354C9.97533 19.7905 9.96358 19.9047 9.95967 19.9598C9.42334 19.9007 8.88702 19.822 8.37418 19.6449C8.26065 19.6095 8.14321 19.5701 8.02968 19.5307C7.99836 19.1608 7.89266 18.7672 8.04534 18.4169C8.15886 18.1295 8.26848 17.8343 8.33503 17.5312Z" fill="#FBBD1B"/>
<path d="M9.96488 18.0605C10.372 18.0802 10.8066 18.0487 11.1511 17.8047C11.2685 17.8204 11.3468 17.8795 11.3859 17.9818C11.6013 18.521 11.6796 19.1036 11.6796 19.6822C11.1315 19.9065 10.5364 19.9656 9.94922 19.9616C9.95313 19.9065 9.96488 19.7924 9.96879 19.7373C10.004 19.1744 9.97271 18.6194 9.96488 18.0605ZM10.1136 19.2335C10.1254 19.3948 10.1371 19.5562 10.1606 19.7176C10.3133 19.6979 10.466 19.6664 10.6108 19.6153C10.6147 19.4932 10.6186 19.3673 10.6186 19.2453C10.4503 19.2413 10.282 19.2374 10.1136 19.2335Z" fill="#ED8217"/>
<path d="M8.80469 18.5087C8.87124 18.2844 8.9926 18.0758 9.10613 17.8711C9.2588 17.9262 9.41539 17.9734 9.5759 18.0128C9.52892 18.4576 9.23531 18.8 8.92213 19.0873C8.86341 18.8984 8.81643 18.7055 8.80469 18.5087Z" fill="#F7EBB6"/>
<path d="M9.57258 18.0117L9.6822 18.0353C9.69394 18.5195 9.61173 18.9997 9.61173 19.4838C9.47863 19.5192 9.34552 19.5507 9.20851 19.5822C8.63695 19.5625 8.73482 18.9052 8.80137 18.5077C8.81703 18.7045 8.864 18.8973 8.91881 19.0863C9.232 18.7989 9.5256 18.4565 9.57258 18.0117Z" fill="#FCE383"/>
<path d="M9.68071 18.0352C9.75118 18.0391 9.89603 18.0509 9.97041 18.0548C9.97432 18.6137 10.0056 19.1687 9.97824 19.7276C9.71986 19.6843 9.4654 19.641 9.21094 19.5781C9.34404 19.5466 9.47714 19.5151 9.61416 19.4797C9.61025 18.9995 9.69246 18.5193 9.68071 18.0352Z" fill="#F9D95F"/>
<path d="M10.1172 19.2305C10.2855 19.2344 10.4539 19.2383 10.6222 19.2423C10.6183 19.3643 10.6144 19.4902 10.6144 19.6123C10.4695 19.6634 10.3168 19.6949 10.1642 19.7146C10.1407 19.5532 10.1289 19.3918 10.1172 19.2305Z" fill="#FDBC2B"/>
<path d="M7.84238 19.4648C7.88936 19.4806 7.9794 19.516 8.02246 19.5318C8.13599 19.5711 8.24952 19.6065 8.36696 19.6459C8.37871 19.7522 8.38654 19.8624 8.39828 19.9726C8.0068 20.0434 7.56052 19.9529 7.21993 20.1851C7.18078 20.2127 7.10249 20.2678 7.06334 20.2914C6.93806 20.3347 6.80888 20.3662 6.67969 20.3977C6.96155 19.9805 7.32171 19.5554 7.84238 19.4648Z" fill="#F4E8CA"/>
<path d="M11.6835 19.6809C11.8988 19.5982 12.1258 19.5431 12.3529 19.5234C12.576 19.5667 12.7522 19.7163 12.9245 19.858C12.3999 19.8659 11.9497 20.1611 11.4447 20.2516C10.9631 20.3697 10.462 20.3933 9.96487 20.35V20.228C9.96095 20.1611 9.95704 20.0233 9.95312 19.9564C10.5403 19.9643 11.1354 19.9013 11.6835 19.6809Z" fill="#FDCD54"/>
<path d="M8.36579 19.6445C8.87863 19.8217 9.41496 19.8964 9.95128 19.9594C9.9552 20.0263 9.95911 20.1641 9.96303 20.231C9.55197 20.1956 9.14483 20.1129 8.73378 20.0814C8.22486 20.0421 7.72377 20.1916 7.21484 20.1838C7.55543 19.9515 8.00563 20.0421 8.3932 19.9712C8.38537 19.861 8.37754 19.7508 8.36579 19.6445Z" fill="#FADC78"/>
<path d="M11.4417 20.2491C11.9467 20.1586 12.4008 19.8634 12.9214 19.8555L12.9371 19.8516C13.125 20.0366 13.2934 20.2491 13.4108 20.4892C12.9528 20.4498 12.5182 20.6191 12.0759 20.7175C11.4025 20.8474 10.7174 20.9103 10.0323 20.93C9.864 20.9182 9.69958 20.8946 9.53516 20.871C9.66826 20.8513 9.79745 20.8277 9.93055 20.8041C9.94621 20.6506 9.95795 20.501 9.96578 20.3475C10.459 20.3908 10.9601 20.3672 11.4417 20.2491Z" fill="#F2A331"/>
<path d="M7.21908 20.1794C7.72801 20.1833 8.22518 20.0377 8.73802 20.0771C9.14907 20.1086 9.55621 20.1912 9.96727 20.2266V20.3487C9.95944 20.5022 9.94378 20.6517 9.93203 20.8052C9.79893 20.8288 9.66974 20.8525 9.53664 20.8721C8.70279 20.7383 7.85719 20.6045 7.06641 20.2857C7.10164 20.2621 7.17993 20.207 7.21908 20.1794Z" fill="#FCC517"/>
<path d="M6.64062 20.4032L6.67977 20.3953C6.80896 20.3678 6.93815 20.3324 7.06342 20.2891C7.85421 20.6079 8.6998 20.7417 9.53365 20.8755C9.69808 20.8991 9.86641 20.9228 10.0308 20.9346C10.023 21.0645 10.0152 21.1943 10.0073 21.3242C9.27919 21.3085 8.55496 21.218 7.83072 21.151C7.43533 21.1196 7.04776 21.0094 6.67194 20.8795C6.66803 20.722 6.65237 20.5606 6.64062 20.4032Z" fill="#D18139"/>
<path d="M12.0781 20.7224C12.5166 20.624 12.9511 20.4548 13.4131 20.4941C13.4092 20.7224 13.3896 20.9546 13.3426 21.1829C12.9355 20.9743 12.4383 21.0176 12.0781 20.7224Z" fill="#BE6A35"/>
<path d="M10.0308 20.9313C10.7159 20.9116 11.4009 20.8486 12.0743 20.7188C12.4384 21.0179 12.9316 20.9707 13.3388 21.1753L13.4249 21.2659C12.7946 21.5296 12.1056 21.5059 11.4401 21.5925C11.0447 21.6476 10.6493 21.5571 10.2539 21.5532C10.203 21.5965 10.1051 21.687 10.0543 21.7303C9.02466 21.6949 7.98724 21.5886 7.00855 21.258C6.89502 21.2265 6.80889 21.1438 6.73451 21.0572C6.71885 21.0139 6.68753 20.9234 6.67188 20.8801C7.04769 21.01 7.43134 21.1202 7.83065 21.1517C8.55489 21.2186 9.27913 21.3091 10.0073 21.3249C10.0151 21.1911 10.0229 21.0612 10.0308 20.9313Z" fill="#A35A32"/>
<path d="M6.73655 21.0625C6.81485 21.1491 6.90097 21.2278 7.01058 21.2632C7.98928 21.5939 9.0267 21.7001 10.0563 21.7356C10.7649 21.7631 11.4695 21.83 12.1781 21.8576C11.4656 21.9599 10.7453 21.9284 10.0289 21.956C8.49429 21.9127 6.95578 21.8891 5.42118 21.9638C5.36246 22.2315 5.31157 22.4991 5.27242 22.7707C5.15889 23.5461 5.02187 24.3176 4.88094 25.0851C4.84571 25.278 4.81439 25.4748 4.79481 25.6716C4.7909 25.7424 4.78307 25.8841 4.77915 25.955L4.77524 26.014C4.5012 26.0101 4.22325 26.0101 3.94922 26.014C4.35244 24.4396 4.58733 22.8298 4.93966 21.2436C5.55037 21.2357 6.16108 21.2514 6.77178 21.2396C6.76787 21.1924 6.74438 21.1058 6.73655 21.0625Z" fill="#F8EAB8"/>
<path d="M13.4251 21.2694C13.9849 21.1749 14.5643 21.2379 15.132 21.2576C15.3081 22.1707 15.5117 23.076 15.7348 23.9774C15.8719 24.678 16.0833 25.3589 16.2594 26.0477C12.4347 26.0359 8.60992 26.0123 4.78125 26.0083L4.78517 25.9493C6.53116 25.965 8.28107 25.9926 10.0271 25.9611C10.0388 25.8903 10.0662 25.7446 10.078 25.6738C11.6752 25.6344 13.2763 25.599 14.8658 25.4573C14.8462 25.1582 14.8149 24.863 14.7757 24.5638C14.7405 23.9104 14.5017 23.2886 14.4899 22.6352C14.4978 22.3597 14.4978 21.9306 14.1572 21.8598C13.4995 21.7968 12.8379 21.8401 12.1802 21.848C11.4716 21.8165 10.767 21.7496 10.0584 21.726C10.1093 21.6827 10.2071 21.5921 10.258 21.5488C10.6534 21.5528 11.0449 21.6472 11.4442 21.5882C12.1058 21.5095 12.7987 21.5331 13.4251 21.2694Z" fill="#83503A"/>
<path d="M12.1766 21.8528C12.8342 21.841 13.4958 21.7977 14.1535 21.8646C14.4941 21.9355 14.4941 22.3645 14.4863 22.64C13.0026 22.6007 11.5189 22.7109 10.0352 22.6715C10.0313 22.4314 10.0312 22.1913 10.0312 21.9551C10.7437 21.9237 11.4641 21.9591 12.1766 21.8528Z" fill="#CF9062"/>
<path d="M5.42611 21.9625C6.9607 21.8877 8.49922 21.9113 10.0338 21.9546C10.0338 22.1947 10.0377 22.4309 10.0377 22.671V22.7457C8.45224 22.7182 6.86283 22.7536 5.27734 22.7654C5.31649 22.4978 5.36738 22.2301 5.42611 21.9625Z" fill="#F5B65A"/>
<path d="M10.0312 22.6729C11.515 22.7123 12.9987 22.6021 14.4824 22.6414C14.4941 23.2948 14.7329 23.9167 14.7681 24.5701C14.2279 24.5386 13.6837 24.5662 13.1435 24.5701C12.8851 24.5898 12.6737 24.4323 12.4467 24.3457C12.2196 24.3221 12.1766 24.5976 12.0748 24.7393C11.3936 24.763 10.7124 24.7944 10.0352 24.881C10.0234 24.1726 10.0469 23.4601 10.0312 22.7517V22.6729Z" fill="#B6754F"/>
<path d="M5.27821 22.7728C6.8637 22.757 8.4531 22.7255 10.0386 22.7531C10.0543 23.4616 10.0347 24.174 10.0425 24.8825V24.9769C9.31044 24.9691 8.57446 25.0005 7.84239 25.0675C6.85587 25.1029 5.86934 25.1068 4.88281 25.0871C5.02766 24.3196 5.16468 23.5482 5.27821 22.7728ZM7.16514 23.5049C6.91067 23.6505 6.54268 23.8434 6.53877 24.174C6.80889 24.54 7.32173 24.5322 7.72104 24.4298C7.99899 24.3117 8.0303 23.93 7.90895 23.6859C7.76801 23.4261 7.41568 23.4104 7.16514 23.5049ZM8.80935 24.2763C8.76628 24.5794 9.12253 24.5637 9.33001 24.5676C9.37699 24.4141 9.50227 24.2133 9.34567 24.0795C9.17342 23.8867 8.75846 23.9772 8.80935 24.2763Z" fill="#E79F4B"/>
<path d="M7.16543 23.502C7.41598 23.4075 7.76831 23.4233 7.90924 23.687C8.02668 23.9271 7.99928 24.3128 7.72133 24.4309C7.32202 24.5332 6.8131 24.5411 6.53906 24.1751C6.54298 23.8366 6.91097 23.6476 7.16543 23.502Z" fill="#CF8748"/>
<path d="M8.80898 24.275C8.75809 23.9758 9.17306 23.8853 9.34139 24.0782C9.49798 24.212 9.37271 24.4088 9.32573 24.5662C9.12216 24.5623 8.76592 24.578 8.80898 24.275Z" fill="#D58947"/>
<path d="M12.0784 24.7388C12.1802 24.5971 12.2233 24.3216 12.4503 24.3452C12.6774 24.4318 12.8927 24.5931 13.1472 24.5695C13.6874 24.5656 14.2316 24.538 14.7718 24.5695C14.8149 24.8647 14.8423 25.1639 14.8618 25.463C13.2724 25.6047 11.6713 25.6401 10.074 25.6795C10.0623 25.7503 10.0349 25.896 10.0232 25.9668C8.27716 25.9983 6.52725 25.9707 4.78125 25.955C4.78516 25.8842 4.79299 25.7425 4.79691 25.6716C6.53899 25.6795 8.28107 25.6834 10.0192 25.6598C10.031 25.4315 10.0388 25.2032 10.0388 24.9749V24.8805C10.7161 24.7939 11.3972 24.7624 12.0784 24.7388Z" fill="#A56546"/>
<path d="M7.83867 25.0644C8.57073 24.9975 9.3028 24.966 10.0388 24.9738C10.0388 25.2021 10.0309 25.4304 10.0192 25.6587C8.27712 25.6823 6.53896 25.6784 4.79688 25.6705C4.81645 25.4737 4.84777 25.2808 4.883 25.084C5.86953 25.1077 6.85606 25.0998 7.83867 25.0644Z" fill="#D88A41"/>
</svg>
