<svg width="52" height="54" viewBox="0 0 52 54" fill="none" xmlns="http://www.w3.org/2000/svg">
<g id="Group">
<path id="Vector" d="M3.33337 0.668396C2.30104 0.936037 -0.14596 8.96526 0.0834459 9.88288C0.312852 10.8005 1.68929 13.7828 2.37751 13.821C3.06573 13.8593 6.88917 12.9034 7.23328 15.2357C7.57739 17.568 5.13038 22.4238 5.13038 22.4238C8.60971 19.6327 12.242 15.6945 12.6626 11.3358C13.1214 6.70943 4.25099 0.400756 3.33337 0.668396Z" fill="url(#paint0_linear_1028_51309)"/>
<path id="Vector_2" d="M47.9897 0.668542C49.0221 0.936183 51.4691 8.9654 51.2397 9.88303C51.0103 10.8007 49.6338 13.7829 48.9456 13.8212C48.2574 13.8594 44.4339 12.9035 44.0898 15.2358C43.7457 17.5681 46.1927 22.4239 46.1927 22.4239C42.8281 19.7093 39.0047 15.7329 38.6605 11.3359C38.2782 6.59487 47.0721 0.400901 47.9897 0.668542Z" fill="url(#paint1_linear_1028_51309)"/>
<path id="Vector_3" d="M47.991 0.67142C49.8263 2.65961 48.144 9.8859 47.1881 9.69473C46.2322 9.50356 40.4588 9.6565 40.8794 12.7917C41.7206 18.9092 49.3675 23.3062 50.591 30.8001C50.8968 32.5971 50.8968 34.5089 50.591 36.3823C48.9086 48.6173 35.756 53.779 25.6621 53.779C15.1477 53.779 2.95091 48.5791 0.733313 36.3823C0.427437 34.5089 0.427437 32.5971 0.733313 30.8001C1.95681 23.3062 9.64192 18.9092 10.4448 12.7917C10.8654 9.6565 5.0538 9.50356 4.13617 9.69473C3.21855 9.8859 1.57447 2.54491 3.33325 0.67142C4.59499 -0.666783 13.3124 0.174373 16.2947 1.62728C17.0976 2.00962 18.8182 9.19769 17.6329 10.23C13.7712 13.5564 12.3183 20.5533 11.936 25.6385C11.4007 32.4442 20.3093 35.9235 25.7004 35.9618C31.1679 35.9618 40.0383 32.6736 39.4647 25.6385C39.0442 20.5533 37.5913 13.5564 33.7678 10.23C32.5826 9.19769 34.3413 2.00962 35.106 1.62728C38.0118 0.174373 46.8057 -0.590315 47.991 0.67142Z" fill="url(#paint2_linear_1028_51309)"/>
<path id="Vector_4" d="M50.5959 36.4219C48.9136 48.6569 35.761 53.8185 25.6671 53.8185C15.1526 53.8185 2.95588 48.6186 0.738281 36.4219C5.02053 45.6364 16.3379 48.8481 25.6671 48.8481C34.9581 48.8481 46.3519 45.6364 50.5959 36.4219Z" fill="url(#paint3_linear_1028_51309)"/>
<path id="Vector_5" opacity="0.2" d="M10.8268 25.7945C8.1504 21.8946 3.06522 25.6798 1.84172 29.0444C-1.1788 37.456 5.09164 42.5029 11.8974 45.1411C21.1501 48.7733 36.2909 49.3851 45.0466 42.0441C49.2141 38.5648 52.4641 28.662 47.1495 26.215C43.976 24.7621 39.0438 29.8473 36.4056 32.3325C29.9822 38.3736 19.7354 38.1059 13.9238 31.4149C12.3562 29.6944 11.2474 26.4062 10.8268 25.7945Z" fill="#FF4D74"/>
<path id="Vector_6" opacity="0.3" d="M20.1974 47.2806C20.9239 46.3248 7.88597 27.1693 3.10667 30.1899C-0.907939 32.7516 2.64786 40.0161 6.08895 42.769C9.68299 45.6366 19.7004 47.9306 20.1974 47.2806Z" fill="#D42F55"/>
<g id="Group_2">
<path id="Vector_7" opacity="0.5" d="M21.6028 42.3824C21.794 48.8823 30.5496 49.7234 29.8232 42.1912C29.4408 38.3678 21.4881 38.6354 21.6028 42.3824Z" fill="#D42F55"/>
<path id="Vector_8" d="M29.8281 41.3882C30.0958 43.2234 28.834 45.5557 25.8135 45.5557C22.8695 45.5557 21.5312 43.5293 21.5312 41.6176C21.5312 39.9735 23.4047 38.75 25.6606 38.75C27.9164 38.75 29.484 39.1706 29.8281 41.3882Z" fill="url(#paint4_linear_1028_51309)"/>
<path id="Vector_9" d="M29.7905 41.273C29.8287 43.1847 27.9552 44.7141 25.6612 44.7141C23.3289 44.7141 21.4936 43.1847 21.5318 41.273C21.5701 39.3613 23.4053 37.7937 25.6612 37.7937C27.917 37.7554 29.7905 39.323 29.7905 41.273Z" fill="#FFCE32"/>
<path id="Vector_10" d="M21.4919 41.2731C21.4536 42.879 22.0654 39.629 25.1241 38.7496C27.3417 38.0997 28.6799 38.8643 29.7123 40.6614C29.7123 40.6614 29.0623 37.6026 25.6212 37.7555C22.2566 37.9085 21.5301 40.5084 21.4919 41.2731Z" fill="#FFFF36"/>
</g>
<g id="Group_3">
<path id="Vector_11" opacity="0.5" d="M40.3869 32.677C41.1516 38.9474 49.7544 41.0121 48.2632 32.6387C47.6132 28.8918 39.9281 28.5476 40.3869 32.677Z" fill="#D42F55"/>
<path id="Vector_12" d="M48.1831 31.7568C48.6037 33.6685 47.6096 36.0391 44.7038 35.9626C41.8362 35.8861 40.4215 33.7832 40.2304 31.8333C40.0774 30.151 41.7597 28.9275 43.9009 28.9657C46.042 29.0039 47.6861 29.4628 48.1831 31.7568Z" fill="url(#paint5_linear_1028_51309)"/>
<path id="Vector_13" d="M48.1833 31.6049C48.4127 33.5931 46.7686 35.1607 44.5128 35.0843C42.2952 35.046 40.3835 33.4402 40.2306 31.4902C40.0776 29.5403 41.7217 27.9727 43.8628 27.9727C46.004 28.0109 47.9539 29.6167 48.1833 31.6049Z" fill="#FFCE32"/>
<path id="Vector_14" d="M40.2282 31.4894C40.3429 33.1335 40.6488 29.8453 43.4781 28.9659C45.5428 28.3159 46.881 29.1189 48.0663 30.9923C48.0663 30.9923 47.1104 27.8571 43.8605 27.9718C40.6106 28.1248 40.1517 30.7247 40.2282 31.4894Z" fill="#FFFF36"/>
</g>
<g id="Group_4">
<path id="Vector_15" opacity="0.5" d="M2.91663 32.7901C2.45781 40.2458 10.8311 39.5958 10.8311 32.4842C10.8311 28.2784 3.14603 29.1196 2.91663 32.7901Z" fill="#D42F55"/>
<path id="Vector_16" d="M10.9058 31.6452C10.9823 33.5186 9.60585 35.8892 6.70003 35.9656C3.83245 36.0421 2.72366 33.9775 2.95306 31.9893C3.106 30.2687 5.01772 29.007 7.19708 28.9688C9.33821 28.9687 10.7911 29.4276 10.9058 31.6452Z" fill="url(#paint6_linear_1028_51309)"/>
<path id="Vector_17" d="M10.9073 31.4917C10.7544 33.4417 8.84264 35.0475 6.62505 35.124C4.40745 35.1622 2.72514 33.6329 2.95455 31.6447C3.18395 29.6565 5.13391 28.0124 7.27503 28.0124C9.41616 27.9742 11.0602 29.5418 10.9073 31.4917Z" fill="#FFCE32"/>
<path id="Vector_18" d="M2.95381 31.6056C2.76263 33.2879 3.68026 29.8851 6.70078 28.9674C8.88014 28.2792 10.0654 29.0821 10.9066 30.8792C10.9066 30.8792 10.5624 27.7822 7.31253 27.9733C4.02437 28.1645 3.03027 30.8409 2.95381 31.6056Z" fill="#FFFF36"/>
</g>
<path id="Vector_19" opacity="0.5" d="M2.29883 13.5563C2.49 11.6063 3.63703 10.0769 4.24878 9.92401C4.86053 9.80931 7.88105 9.42696 9.14278 10.9563C10.3663 12.4857 6.69578 13.7857 5.89286 13.6327C4.43995 13.3651 2.29883 13.8239 2.29883 13.5563Z" fill="#D42F55"/>
<path id="Vector_20" opacity="0.5" d="M2.03471 13.3646C-0.10642 10.7647 0.0465174 9.96174 0.352393 8.73824C0.620033 7.55298 1.46119 4.76187 2.11117 3.69131C2.76116 2.62074 2.79939 7.36181 2.87586 8.58531C2.95233 9.84704 2.22588 13.594 2.03471 13.3646Z" fill="#FF3355"/>
<path id="Vector_21" opacity="0.5" d="M48.9839 13.5563C48.7928 11.6063 47.6457 10.0769 47.034 9.92401C46.4222 9.80931 43.4017 9.42696 42.14 10.9563C40.9165 12.4857 44.587 13.7857 45.3899 13.6327C46.881 13.3651 49.0222 13.8239 48.9839 13.5563Z" fill="#D42F55"/>
<path id="Vector_22" opacity="0.5" d="M49.2901 13.3646C51.4313 10.7647 51.2783 9.96174 50.9724 8.73824C50.7048 7.55298 49.8636 4.76187 49.2137 3.69131C48.5637 2.62074 48.5254 7.36181 48.449 8.58531C48.3725 9.84704 49.099 13.594 49.2901 13.3646Z" fill="#FF3355"/>
<path id="Vector_23" d="M3.94698 1.17055C2.41761 2.62346 3.48817 8.97037 4.17639 9.1233C7.77042 9.92622 15.7996 11.0733 17.2143 9.16154C17.7496 8.43509 16.6408 2.12641 15.6849 2.01171C12.0909 1.59113 5.20872 -0.0147171 3.94698 1.17055Z" fill="white"/>
<path id="Vector_24" d="M35.409 2.31784C34.1473 2.89135 33.4208 8.85592 34.0708 9.16179C36.9384 10.5 44.8911 10.2324 47.5675 8.58828C48.2558 8.1677 47.7205 1.01787 46.8793 0.788461C44.0117 -0.0526957 38.2766 0.979633 35.409 2.31784Z" fill="#FFC600"/>
<path id="Vector_25" opacity="0.2" d="M16.5645 10.6528C17.138 9.88815 10.1793 9.81168 10.447 11.3411C10.7146 12.8704 10.5999 14.4763 12.6263 15.8909C13.5057 16.5027 14.7292 13.1763 16.5645 10.6528Z" fill="#D42F55"/>
<path id="Vector_26" opacity="0.2" d="M34.6117 10.6528C34.0382 9.88815 40.9969 9.81168 40.7292 11.3411C40.4616 12.8704 40.5763 14.4763 38.5499 15.8909C37.6705 16.5027 36.447 13.1763 34.6117 10.6528Z" fill="#D42F55"/>
<path id="Vector_27" opacity="0.5" d="M14.7268 47.8158C13.9621 48.7716 14.2298 53.4745 26.006 53.4745C37.6675 53.4745 37.8969 48.3893 37.3998 47.854C36.7881 47.1658 29.4471 48.6952 25.6236 48.6569C22.2208 48.6187 15.1092 47.3187 14.7268 47.8158Z" fill="#D42F55"/>
<path id="Vector_28" opacity="0.5" d="M34.1129 41.3118C34.7629 47.6204 41.4156 43.4529 40.1157 41.8853C38.8157 40.3559 33.9217 39.5148 34.1129 41.3118Z" fill="#E56D8D"/>
<path id="Vector_29" opacity="0.5" d="M35.7143 38.8285C34.9879 39.5932 37.3966 40.5873 37.5496 39.3256C37.7025 38.0256 36.2878 38.2167 35.7143 38.8285Z" fill="#E56D8D"/>
<path id="Vector_30" d="M41.9905 1.20631C42.1817 5.33562 47.1521 1.85629 46.7698 1.28278C46.3874 0.709261 41.9522 0.632793 41.9905 1.20631Z" fill="white"/>
<path id="Vector_31" d="M11.4375 1.35872C11.4375 4.60865 16.2168 2.54399 15.8345 2.08518C15.4521 1.5499 11.4375 0.632269 11.4375 1.35872Z" fill="white"/>
<path id="Vector_32" opacity="0.8" d="M28.8023 48.7325C31.8993 48.7707 26.3553 53.703 22.5319 53.3206C15.9556 52.6324 12.8968 45.712 6.3205 44.7179C5.13524 44.5267 9.95277 49.7266 9.95277 49.7266C9.95277 49.7266 2.91764 46.2091 0.738281 36.3828C0.738281 36.3828 2.99411 40.8945 6.74108 43.4562C13.2027 47.8531 21.2701 48.6178 28.8023 48.7325Z" fill="#D42F55"/>
<path id="Vector_33" opacity="0.5" d="M15.1074 32.3672C15.1074 32.3672 24.3219 43.1875 35.3716 32.9789C35.3716 32.9789 29.0247 35.8848 25.6601 35.8848C21.9896 35.8848 15.1074 32.3672 15.1074 32.3672Z" fill="white"/>
</g>
<defs>
<linearGradient id="paint0_linear_1028_51309" x1="0.0546554" y1="11.5429" x2="12.6696" y2="11.5429" gradientUnits="userSpaceOnUse">
<stop stop-color="#FA9300"/>
<stop offset="0.4469" stop-color="#F66A00"/>
<stop offset="1" stop-color="#F63F00"/>
</linearGradient>
<linearGradient id="paint1_linear_1028_51309" x1="51.275" y1="11.5429" x2="38.6651" y2="11.5429" gradientUnits="userSpaceOnUse">
<stop stop-color="#FA9300"/>
<stop offset="0.4469" stop-color="#F66A00"/>
<stop offset="1" stop-color="#F63F00"/>
</linearGradient>
<linearGradient id="paint2_linear_1028_51309" x1="0.507003" y1="26.9075" x2="50.8188" y2="26.9075" gradientUnits="userSpaceOnUse">
<stop stop-color="#FF9600"/>
<stop offset="1" stop-color="#FFA900"/>
</linearGradient>
<linearGradient id="paint3_linear_1028_51309" x1="25.668" y1="53.8242" x2="25.668" y2="36.4122" gradientUnits="userSpaceOnUse">
<stop stop-color="#F95E00"/>
<stop offset="1" stop-color="#F63F00"/>
</linearGradient>
<linearGradient id="paint4_linear_1028_51309" x1="25.6847" y1="45.5529" x2="25.6847" y2="38.7334" gradientUnits="userSpaceOnUse">
<stop stop-color="#D41B00"/>
<stop offset="0.7905" stop-color="#FE6800"/>
</linearGradient>
<linearGradient id="paint5_linear_1028_51309" x1="44.2727" y1="35.9819" x2="44.2727" y2="28.9793" gradientUnits="userSpaceOnUse">
<stop stop-color="#D41B00"/>
<stop offset="0.7905" stop-color="#FE6800"/>
</linearGradient>
<linearGradient id="paint6_linear_1028_51309" x1="6.90761" y1="35.9829" x2="6.90761" y2="28.9837" gradientUnits="userSpaceOnUse">
<stop stop-color="#D41B00"/>
<stop offset="0.7905" stop-color="#FE6800"/>
</linearGradient>
</defs>
</svg>
