<svg width="24" height="28" viewBox="0 0 24 28" fill="none" xmlns="http://www.w3.org/2000/svg">
<path d="M11.4347 0.751777C11.6383 0.492001 11.8457 0.23616 12.0767 0C13.122 1.27527 14.175 2.5466 15.1929 3.84548C14.1163 2.73946 13.1102 1.57047 12.1198 0.385729C12.1198 0.436897 12.1159 0.535297 12.1159 0.586465C12.112 0.637633 12.108 0.739969 12.108 0.791138C12.0532 0.814754 11.9436 0.861986 11.8888 0.889538C11.7831 1.33037 11.5326 1.7161 11.2468 2.05853C11.0354 2.30256 10.6322 2.18448 10.4247 2.44032C10.0723 2.86935 9.70827 3.38103 9.14062 3.51485C9.87661 2.56628 10.687 1.68461 11.4347 0.751777Z" fill="#CBFBF9"/>
<path d="M12.1189 0.382812C13.1094 1.56755 14.1155 2.73654 15.192 3.84256C15.7049 4.41722 16.1668 5.03911 16.6601 5.63345C16.6405 5.79876 16.6249 5.96013 16.6014 6.12151C16.3743 6.46001 16.1277 6.78276 15.8497 7.07796C14.9063 5.44845 13.7318 3.96458 12.7766 2.33901C12.5652 1.95722 12.2168 1.57542 12.3499 1.1031C12.2599 0.933854 12.1737 0.764605 12.1189 0.579613C12.115 0.536317 12.1189 0.433981 12.1189 0.382812Z" fill="#24DAF5"/>
<path d="M12.116 0.585938C12.1708 0.77093 12.2569 0.940178 12.3469 1.10943C12.2138 1.58175 12.5623 1.9596 12.7737 2.34533C13.7289 3.9709 14.9033 5.45478 15.8468 7.08429C16.1247 6.78909 16.3713 6.4624 16.5984 6.12784C16.9429 6.29315 17.1073 6.64739 17.3031 6.9544C17.2365 7.12365 17.17 7.29683 17.1073 7.46608C16.6571 7.56054 16.0308 7.63533 15.9564 8.19818C15.5571 9.9497 15.424 11.7563 15.009 13.5078C14.9933 13.6968 14.8563 13.9487 14.9699 14.1101C15.0051 14.1337 15.0834 14.1848 15.1186 14.2124C15.0012 14.2596 14.8876 14.3029 14.7741 14.3502C14.7389 14.3383 14.6645 14.3108 14.6293 14.2951C13.7798 14.5942 12.9537 14.976 12.0886 15.22C11.9868 14.2557 12.0807 13.2796 12.0142 12.3152C11.5601 12.209 11.1803 11.9571 10.8828 11.5989C11.2586 11.8114 11.6579 12.0437 12.1042 12.0279C12.3704 11.9531 12.6562 11.835 12.7971 11.5753C13.3726 11.4178 13.8581 11.04 14.3591 10.7251C14.4257 9.94183 14.4492 9.15069 14.4453 8.36349C14.4609 8.13913 14.2691 7.98957 14.1282 7.84787C13.7719 7.53693 13.3844 7.26141 13.0359 6.94259C12.7306 6.69068 12.4331 6.36006 12.0103 6.35219C12.1003 4.65971 12.0142 2.96722 12.0572 1.27474C12.0768 1.11336 12.1003 0.951986 12.116 0.79061C12.1081 0.739442 12.116 0.637106 12.116 0.585938Z" fill="#40E5F6"/>
<path d="M11.8927 0.887463C11.9475 0.863847 12.0571 0.816615 12.1119 0.789062C12.0963 0.950439 12.0688 1.11181 12.0532 1.27319C11.787 1.54871 11.6656 1.9305 11.4072 2.2139C10.7848 3.05227 10.2602 3.95755 9.69257 4.83134C9.27369 5.51227 8.70213 6.11448 8.47899 6.90168C8.25976 6.70095 8.0601 6.47659 7.88785 6.2365C7.743 6.02789 7.59425 5.82715 7.422 5.6461L7.36719 5.58312C7.98181 4.914 8.52205 4.17009 9.1445 3.51672C9.71215 3.38289 10.0762 2.87121 10.4286 2.44219C10.6321 2.18635 11.0393 2.30443 11.2507 2.06039C11.5325 1.71402 11.787 1.3283 11.8927 0.887463Z" fill="#B1FAFA"/>
<path d="M0.851562 6.25773C1.24696 5.74605 1.63843 5.22256 2.06906 4.73449C2.03774 4.82502 2.01034 4.91555 1.98294 5.00608C2.11213 4.91161 2.24132 4.82109 2.36659 4.71875C2.19434 5.0415 1.97902 5.3367 1.72848 5.60435C1.43878 5.90742 1.19998 6.26167 0.855476 6.5057C0.855476 6.44666 0.855477 6.32071 0.851562 6.25773Z" fill="#B1FAFA"/>
<path d="M11.4048 2.21414C11.6632 1.93075 11.7846 1.54896 12.0508 1.27344C12.0038 2.96592 12.0938 4.6584 12.0038 6.35089C11.3187 6.50439 10.618 6.76417 10.1403 7.3034C9.83108 7.63403 9.47092 7.98827 9.43177 8.46846C9.38479 9.16907 9.42003 9.87361 9.4396 10.5742C9.37305 10.4994 9.3065 10.4247 9.24386 10.3459C9.16165 10.401 9.08336 10.4561 9.00506 10.5152C8.94242 10.4128 8.8837 10.3144 8.82498 10.2121C8.80149 10.3814 8.77408 10.5506 8.75843 10.7238C8.61749 9.59809 8.6723 8.46059 8.52354 7.33489C8.50788 7.18926 8.49222 7.04362 8.47656 6.90193C8.69971 6.11473 9.27126 5.51252 9.69015 4.83159C10.2539 3.95779 10.7824 3.05251 11.4048 2.21414Z" fill="#86F8EE"/>
<path d="M2.0744 4.73376C2.30146 4.43069 2.53635 4.13155 2.77124 3.83242C2.92783 3.76157 3.10791 3.79699 3.27233 3.78912C4.14533 3.79699 5.02224 3.79699 5.89916 3.78125C5.97745 3.87571 6.05575 3.97018 6.13796 4.06464C5.10837 4.0922 4.07878 4.11187 3.04919 4.08826C3.04136 4.32442 3.03353 4.56452 3.02961 4.80068C2.9983 4.78493 2.93175 4.75738 2.90043 4.74557C2.86128 4.60388 2.82213 4.45824 2.7869 4.31655C2.63422 4.43463 2.48938 4.56845 2.37193 4.72196C2.24666 4.82429 2.11747 4.91482 1.98828 5.00928C2.01568 4.91482 2.047 4.82429 2.0744 4.73376Z" fill="#E9FEF8"/>
<path d="M17.6579 4.43073C17.8301 4.23 17.9241 3.96235 18.1316 3.80097C19.1299 3.77736 20.132 3.80884 21.1303 3.78916C21.2869 3.75768 21.373 3.91905 21.467 4.01745C22.0777 4.74561 22.6806 5.48558 23.2482 6.24917C23.3461 6.35938 23.3148 6.51682 23.3304 6.65064C23.3265 7.17413 23.3422 7.69762 23.2991 8.21717C23.2717 8.18175 23.2169 8.1109 23.1895 8.07941C23.166 7.51263 23.2365 6.93403 23.0995 6.37906C22.9076 6.0012 22.6101 5.69026 22.34 5.37144C22.0072 4.96997 21.6823 4.56062 21.3221 4.1867C21.0794 4.06862 20.8015 4.09224 20.5392 4.0883C19.7836 4.10011 19.0281 4.06468 18.2725 4.09617C18.2647 4.45041 18.3547 4.79285 18.48 5.12347C18.4369 5.12347 18.3547 5.12347 18.3117 5.12741C18.1629 4.86763 18.0494 4.58817 17.9202 4.32052C17.6931 4.60785 17.4739 4.89518 17.2312 5.16677C17.1255 5.28485 17.0198 5.40686 16.9062 5.52101C17.1294 5.13528 17.376 4.76923 17.6579 4.43073Z" fill="#E4FEF6"/>
<path d="M3.0511 4.09002C4.08069 4.11364 5.11028 4.09396 6.13987 4.06641H6.1986L6.15945 4.11757C6.14379 4.13725 6.10856 4.18055 6.0929 4.20417L6.042 4.27108C5.85409 4.64894 5.66227 5.02679 5.45479 5.39678C5.39215 5.39284 5.26296 5.38497 5.20032 5.3771C4.52698 5.32593 3.85364 5.34167 3.18029 5.35348C3.05502 5.16849 2.94541 4.97169 2.90234 4.74733C2.93366 4.76308 3.00021 4.79063 3.03153 4.80244C3.03544 4.56234 3.04327 4.32618 3.0511 4.09002Z" fill="#96F3F4"/>
<path d="M6.1603 4.11328C6.51655 4.60135 6.91977 5.05792 7.23295 5.57748C7.27993 5.59322 7.37389 5.62471 7.42086 5.63652C7.5892 5.82151 7.74187 6.02224 7.88672 6.22692C7.95327 6.42372 8.012 6.62445 8.07072 6.82519C7.94545 6.72285 7.81625 6.62445 7.69098 6.52605C7.37388 6.6953 7.01764 6.75434 6.66139 6.76221C6.66139 6.68743 6.66531 6.52999 6.66531 6.45521C6.82973 6.18756 7.04896 5.95533 7.25644 5.72311C7.11942 5.53812 6.98241 5.34919 6.84539 5.16813C6.60267 4.83751 6.36779 4.50295 6.09375 4.19987C6.10941 4.18019 6.14073 4.1369 6.1603 4.11328Z" fill="#E4FEFC"/>
<path d="M18.2739 4.09291C19.0295 4.06535 19.785 4.10078 20.5406 4.08503C20.8029 4.08897 21.0769 4.06535 21.3235 4.18343C21.21 4.58491 21.0103 4.95489 20.8616 5.34456C20.1021 5.34849 19.3348 5.26584 18.5793 5.37604C18.4814 5.30126 18.3874 5.2186 18.317 5.11627C18.36 5.11627 18.4422 5.11233 18.4853 5.11233C18.3561 4.78958 18.2661 4.44715 18.2739 4.09291Z" fill="#9EF6F7"/>
<path d="M6.04111 4.26613L6.09201 4.19922C6.36604 4.50229 6.60484 4.83685 6.84364 5.16748C6.5931 5.61225 6.31906 6.05308 5.93541 6.39551C5.83363 6.06489 5.71227 5.74213 5.56351 5.43119C5.43824 5.73033 5.2973 6.02159 5.10156 6.28137C5.15637 5.98223 5.17203 5.67916 5.19552 5.37608C5.25816 5.38002 5.38734 5.39183 5.44998 5.39576C5.66138 5.02578 5.8532 4.64792 6.04111 4.26613Z" fill="#108FB2"/>
<path d="M20.8555 5.34472C21.0042 4.95505 21.2 4.58507 21.3174 4.18359C21.6776 4.56145 22.0025 4.96686 22.3353 5.36833C21.9164 5.33291 21.7324 4.86059 21.3996 4.64804C21.2548 5.01015 21.4857 5.3762 21.5288 5.73832C21.3526 5.63598 21.1765 5.53364 21.0003 5.43131C20.9651 5.41163 20.8946 5.36833 20.8555 5.34472Z" fill="#0CC4E0"/>
<path d="M2.37442 4.71791C2.49187 4.5644 2.6328 4.43058 2.78939 4.3125C2.82854 4.4542 2.86377 4.59983 2.90292 4.74153C2.94598 4.96194 3.0556 5.16268 3.18087 5.34767L3.12606 5.43426C2.61322 6.00892 2.17869 6.68198 2.05733 7.46131C2.51144 7.44556 2.91858 7.18972 3.37661 7.20153C3.36487 7.22515 3.33746 7.27238 3.32572 7.29993C2.90683 7.36684 2.49187 7.44163 2.08082 7.52822C2.0769 7.57545 2.06907 7.66991 2.06516 7.71715C1.66193 7.85491 1.25088 7.96512 0.847656 8.09894C0.890719 7.56758 0.88289 7.03622 0.863316 6.50486C1.20782 6.26082 1.44662 5.90658 1.73631 5.60351C1.98294 5.33586 2.19826 5.04066 2.37442 4.71791Z" fill="#7BF2F3"/>
<path d="M17.2305 5.16265C17.4693 4.89106 17.6924 4.5998 17.9195 4.31641C18.0526 4.58405 18.1661 4.86351 18.3109 5.12329C18.3814 5.22562 18.4793 5.30434 18.5732 5.38306L18.5928 5.44998C18.4597 5.66252 18.307 5.86326 18.1778 6.0758C18.08 6.07974 17.8803 6.08367 17.7825 6.08367C17.6337 5.75698 17.4419 5.44998 17.2305 5.16265Z" fill="#1DCCE6"/>
<path d="M21.5285 5.74262C21.4854 5.3805 21.2545 5.01446 21.3993 4.65234C21.7281 4.86489 21.9121 5.33721 22.3349 5.37263C22.6051 5.69145 22.9026 6.00239 23.0944 6.38025C23.2314 6.93523 23.161 7.51382 23.1844 8.08061C22.8869 7.87593 22.5542 7.73424 22.2057 7.63977C22.0178 7.2816 21.9748 6.86438 21.7712 6.51408C21.5559 6.12441 21.2349 5.81347 21.0039 5.43561C21.1762 5.53795 21.3523 5.64028 21.5285 5.74262Z" fill="#2CD1E5"/>
<path d="M5.9375 6.396C6.32115 6.05357 6.59518 5.61274 6.84573 5.16797C6.98275 5.35296 7.11976 5.53795 7.25678 5.72295C7.0493 5.95911 6.83007 6.18739 6.66565 6.45504C6.63433 6.54951 6.61476 6.64791 6.60693 6.74631C6.59518 7.87201 6.56778 8.9977 6.55995 10.1234C6.50123 9.83214 6.43468 9.54087 6.40336 9.24567C6.28983 8.28922 6.23111 7.31703 5.9375 6.396Z" fill="#087CA1"/>
<path d="M17.2316 5.16406C17.443 5.45533 17.6348 5.7584 17.7875 6.08115C17.8462 6.2071 17.901 6.33306 17.9597 6.45507L17.9441 6.48656C17.6701 7.04154 17.901 7.69098 17.7679 8.28138C17.6975 8.04916 17.6661 7.80512 17.6622 7.56109C17.6622 9.27325 17.674 10.9815 17.6544 12.6936C17.6505 12.8432 17.6387 12.9928 17.6231 13.1384L17.5761 13.0558L17.5683 13.0085C17.5761 11.1743 17.5174 9.34017 17.5056 7.50599L17.5135 7.41939C17.5174 7.19504 17.5761 6.9392 17.4469 6.73847C17.2238 6.38029 16.9419 6.06147 16.7148 5.70723C16.7657 5.66 16.8636 5.5616 16.9145 5.51437C17.0202 5.40416 17.1259 5.28214 17.2316 5.16406Z" fill="#0D6892"/>
<path d="M3.18371 5.35041C3.85705 5.3386 4.53039 5.32679 5.20374 5.37402C5.18025 5.67709 5.16067 5.98017 5.10978 6.2793L5.05498 6.36983C4.96102 6.55876 4.95711 6.76737 4.96494 6.97204C4.93362 6.81854 4.89838 6.66503 4.87098 6.51153C4.43644 6.48791 4.0019 6.48791 3.57127 6.53121C3.37162 6.18877 3.22677 5.81879 3.13281 5.43306L3.18371 5.35041Z" fill="#0A7A9C"/>
<path d="M18.5781 5.37904C19.3337 5.26883 20.101 5.34755 20.8604 5.34755C20.7704 5.8553 20.5747 6.35517 20.6138 6.87866C20.5786 6.74483 20.5355 6.61495 20.4964 6.48506C20.0579 6.48112 19.6195 6.48112 19.1849 6.49293C19.1419 6.65431 19.1027 6.81568 19.0675 6.97706C19.0244 6.43783 18.7504 5.95763 18.6016 5.44595L18.5781 5.37904Z" fill="#0A7699"/>
<path d="M20.8533 5.34375C20.8885 5.36737 20.9629 5.41066 20.9982 5.43428C21.2291 5.81213 21.5501 6.12308 21.7655 6.51274C21.969 6.86305 22.016 7.28027 22.2 7.63844C22.1178 7.67387 22.0356 7.71323 21.9573 7.74865C21.5932 7.60302 21.1195 7.20942 20.7594 7.55185C20.7085 7.3275 20.6615 7.10315 20.6067 6.87879C20.5675 6.35137 20.7633 5.85543 20.8533 5.34375Z" fill="#13A7C6"/>
<path d="M19.646 10.0756C20.3036 9.56394 20.8439 8.92237 21.4389 8.33984C21.4624 8.4225 21.4859 8.50516 21.5094 8.59175C21.7913 8.69802 22.1044 8.81216 22.1984 9.13492C22.2806 9.11524 22.3589 9.09556 22.4411 9.07588C22.0105 9.61511 21.4859 10.0756 21.0161 10.5794C20.6207 10.9534 20.2958 11.4335 19.783 11.654C19.2506 11.898 18.7377 12.1814 18.2171 12.449C18.0683 12.3979 17.9861 12.268 18.0017 12.1105C17.9822 11.6461 18.0213 11.1777 18.0017 10.7133C18.5616 10.5361 19.1135 10.3275 19.646 10.0756Z" fill="#0F86AA"/>
<path d="M2.05469 7.46454C2.17213 6.68521 2.60667 6.01609 3.12342 5.4375C3.21738 5.82323 3.36223 6.19321 3.56188 6.53565C3.51099 6.76 3.45227 6.98435 3.37397 7.20477C2.91594 7.19296 2.5088 7.4488 2.05469 7.46454Z" fill="#13B4CC"/>
<path d="M5.10167 6.27986C5.2935 6.02009 5.43834 5.72882 5.56362 5.42969C5.70846 5.74063 5.82982 6.06338 5.93552 6.39401C6.22913 7.31503 6.29177 8.28723 6.40138 9.24368C6.4053 9.55856 6.39355 9.8695 6.38181 10.1844C6.09603 9.96003 5.7985 9.73962 5.61059 9.4208C5.58319 9.35389 5.52839 9.224 5.50098 9.15709C5.43835 8.94454 5.38353 8.72413 5.34047 8.50764C5.35222 8.21244 5.33265 7.92118 5.34439 7.62598C5.50098 7.50003 5.70063 7.4528 5.88463 7.37801C5.83374 7.30716 5.78676 7.23631 5.73978 7.16547C5.82591 6.79548 5.68106 6.43731 5.5049 6.11849C5.4266 6.23263 5.35222 6.34678 5.27784 6.45698C5.21911 6.43337 5.10559 6.39007 5.05078 6.37039L5.10167 6.27986Z" fill="#23CCE4"/>
<path d="M18.1841 6.07504C18.3133 5.85856 18.466 5.66176 18.5991 5.44922C18.7478 5.9609 19.0258 6.43716 19.0649 6.98033C18.8888 7.78721 18.693 8.59015 18.5678 9.40491C18.5991 9.43639 18.6656 9.49937 18.7009 9.53086C18.4934 9.63713 18.2859 9.73947 18.0784 9.8418C18.1136 9.18449 18.0862 8.52718 18.1019 7.86593C18.0862 7.40541 18.1685 6.91735 17.9453 6.49226L17.961 6.46077C18.0314 6.33088 18.1058 6.201 18.1841 6.07504Z" fill="#0F90B6"/>
<path d="M16.6564 5.63672L16.7073 5.7115C16.9343 6.06574 17.2162 6.38456 17.4393 6.74274C17.5725 6.94347 17.5098 7.19931 17.5059 7.42367C17.3689 7.43547 17.2358 7.44728 17.1027 7.46303C17.1653 7.29378 17.2319 7.12059 17.2984 6.95134C17.1027 6.64434 16.9383 6.2901 16.5938 6.12478C16.6251 5.96341 16.6407 5.7981 16.6564 5.63672Z" fill="#5AE5F2"/>
<path d="M17.7891 6.08209C17.8869 6.07815 18.0866 6.07422 18.1845 6.07422C18.1062 6.20017 18.0318 6.33006 17.9613 6.45995C17.9026 6.33399 17.8478 6.20804 17.7891 6.08209Z" fill="#41C1D8"/>
<path d="M5.2768 6.45959C5.35118 6.34545 5.42948 6.2313 5.50386 6.12109C5.68394 6.43991 5.82487 6.79809 5.73875 7.16807C5.78572 7.23892 5.83661 7.30977 5.88359 7.38062C5.6996 7.4554 5.49994 7.50657 5.34335 7.62858C5.33552 7.92378 5.35118 8.21505 5.33943 8.51025C5.20242 8.0025 5.07715 7.49082 4.95579 6.97521C4.94796 6.77053 4.95187 6.55799 5.04582 6.373C5.10846 6.39661 5.22199 6.43991 5.2768 6.45959Z" fill="#14BCD7"/>
<path d="M0.843367 8.17071C0.792475 7.53701 0.839449 6.89545 0.855109 6.25781C0.855109 6.32079 0.859022 6.4428 0.859022 6.50578C0.878596 7.03714 0.88643 7.5685 0.843367 8.09986C1.24659 7.96604 1.65764 7.85583 2.06087 7.71807C2.90255 8.47772 3.73248 9.25311 4.58199 10.0049C5.00087 10.3513 5.58418 10.5008 5.8817 10.9889C6.13616 11.414 6.53156 11.7879 6.56679 12.3114C6.55896 12.3822 6.54722 12.5318 6.53939 12.6066L6.52373 12.6892C5.83864 12.3744 5.17312 12.0162 4.49586 11.6816C4.25315 11.5636 4.01435 11.4337 3.82644 11.2447C2.82425 10.2214 1.80641 9.22163 0.843367 8.17071Z" fill="#19D3E7"/>
<path d="M7.88158 6.23047C8.05383 6.4745 8.25348 6.69492 8.47271 6.89565C8.48445 7.04129 8.50403 7.18692 8.51969 7.32861C8.48837 7.67105 8.41007 8.01742 8.21433 8.30474C8.19476 7.82849 7.81111 7.33255 7.3061 7.37191C7.26696 7.37191 7.19257 7.37191 7.15343 7.37191C7.00075 7.22234 6.84024 7.07671 6.68365 6.93108C6.67582 6.88778 6.66408 6.80119 6.65625 6.75789C7.0125 6.75002 7.36874 6.69492 7.68584 6.52173C7.81111 6.62013 7.9403 6.72247 8.06557 6.82087C8.00685 6.63194 7.94813 6.43121 7.88158 6.23047Z" fill="#CBFEFC"/>
<path d="M10.1372 7.30017C10.6148 6.76094 11.3195 6.50116 12.0007 6.34766C11.9889 6.4067 11.9654 6.52084 11.9537 6.57594C11.4056 6.87902 10.697 6.94199 10.2899 7.46155C10.0863 7.70951 9.86709 7.96142 9.75356 8.26843C9.70659 8.5164 9.72225 8.7683 9.7105 9.02021C9.69093 9.46497 9.69484 9.91368 9.69875 10.3584C10.4426 10.8268 11.1277 11.3897 11.8675 11.8659C12.0633 11.8856 12.2473 11.803 12.4039 11.6888C12.5331 11.6416 12.6623 11.6062 12.7914 11.5668C12.6505 11.8266 12.3647 11.9447 12.0985 12.0194C11.6522 12.0352 11.2529 11.803 10.8771 11.5904C10.3995 11.244 9.88275 10.9528 9.43255 10.5671C9.41689 9.86645 9.37774 9.1619 9.42472 8.46129C9.46778 7.98503 9.82794 7.63079 10.1372 7.30017Z" fill="#05C2D3"/>
<path d="M12.004 6.34766C12.4268 6.35553 12.7243 6.68615 13.0297 6.93806C13.3781 7.25687 13.7657 7.53239 14.1219 7.84334C14.2628 7.98504 14.4586 8.1346 14.439 8.35896C14.4429 9.14616 14.4234 9.93729 14.3529 10.7206C13.8518 11.0354 13.3703 11.4133 12.7909 11.5707C13.2215 11.1456 13.8244 10.9646 14.2589 10.5434C14.1141 9.76411 14.1493 8.97297 14.118 8.18577C14.0632 8.15822 13.9536 8.09524 13.8988 8.06769C13.245 7.57963 12.6539 7.00497 11.957 6.57988C11.9688 6.52084 11.9923 6.4067 12.004 6.34766Z" fill="#03ADD4"/>
<path d="M6.60166 6.7522C6.60949 6.6538 6.62906 6.5554 6.66038 6.46094C6.66038 6.53966 6.65646 6.69316 6.65646 6.76795C6.66429 6.81124 6.67604 6.89783 6.68387 6.94113C6.84046 7.08676 7.00096 7.22846 7.15364 7.38196C7.19279 7.38196 7.26717 7.38196 7.30632 7.38196C7.31023 8.30299 7.23194 9.22008 7.14973 10.1332C6.95399 10.1568 6.75825 10.1765 6.56251 10.2001L6.55859 10.1254C6.56642 9.0036 6.59383 7.8779 6.60166 6.7522Z" fill="#AAFEF8"/>
<path d="M11.9568 6.57812C12.6536 7.00321 13.2447 7.57787 13.8985 8.06594C13.969 8.1604 14.0394 8.25486 14.1021 8.35326C14.0551 8.38869 13.9572 8.45954 13.9102 8.49496C13.8398 8.47528 13.691 8.43986 13.6205 8.42018C13.5422 8.22338 13.4052 8.062 13.2408 7.92424C12.8337 7.57394 12.4539 7.19214 11.9842 6.92449C11.5692 7.14491 11.0955 7.20395 10.6766 7.41256C10.5592 7.47947 10.4222 7.50309 10.293 7.46373C10.7001 6.94417 11.4087 6.8812 11.9568 6.57812Z" fill="#ECFDF8"/>
<path d="M17.7659 8.28701C17.899 7.69661 17.668 7.04716 17.942 6.49219C18.1652 6.91728 18.083 7.40534 18.0986 7.86585C18.083 8.52317 18.1143 9.18442 18.0751 9.84173C18.0321 10.1291 17.989 10.4203 18.0008 10.7116C18.0203 11.176 17.9812 11.6444 18.0008 12.1089C17.9851 12.2663 18.0673 12.3962 18.2161 12.4474C18.036 12.5458 17.8442 12.6284 17.6523 12.6993C17.668 10.9871 17.6602 9.27888 17.6602 7.56672C17.668 7.81075 17.6954 8.05085 17.7659 8.28701Z" fill="#0C6684"/>
<path d="M10.6797 7.41775C11.0986 7.20914 11.5723 7.15404 11.9872 6.92969C11.9598 7.26425 11.9598 7.60274 11.9755 7.94124C11.768 7.97667 11.5605 8.01209 11.353 8.05145C11.1103 7.85465 10.8872 7.64604 10.6797 7.41775Z" fill="#98DCF9"/>
<path d="M11.9833 6.92969C12.453 7.19734 12.8367 7.57913 13.2399 7.92943C13.4004 8.06326 13.5413 8.22463 13.6196 8.42537C13.4826 8.55919 13.3652 8.70876 13.2595 8.8662C12.8249 8.59462 12.4413 8.24825 11.9754 8.02783L11.9715 7.9373C11.9559 7.60274 11.9559 7.26425 11.9833 6.92969Z" fill="#8697D9"/>
<path d="M2.07818 7.52907C2.49315 7.43854 2.90811 7.36769 3.32308 7.30078C3.44052 7.56843 3.61278 7.80459 3.82809 8.00139C4.3331 8.48552 4.78721 9.02869 5.35877 9.43016C5.38617 9.4341 5.43707 9.44197 5.46447 9.4459C5.47622 9.37506 5.49187 9.23336 5.4997 9.16251C5.52711 9.22942 5.58192 9.36325 5.60932 9.42622C5.50753 9.54824 5.3392 9.56005 5.19827 9.61515C4.96338 9.69387 4.77547 9.86706 4.57581 10.0048C3.7263 9.25304 2.89637 8.47765 2.05469 7.718C2.06643 7.67077 2.07427 7.5763 2.07818 7.52907Z" fill="#0D9BBA"/>
<path d="M7.3064 7.38111C7.81141 7.34175 8.19506 7.83768 8.21463 8.31394C8.45735 10.215 8.47301 12.1555 8.96236 14.0211C8.74704 13.966 8.53565 13.9109 8.32033 13.8519C7.69397 13.5449 7.08718 13.1907 6.51953 12.7813C6.52345 12.738 6.53127 12.6475 6.53519 12.6042C6.54302 12.5294 6.55476 12.3838 6.56259 12.309C6.55476 11.6044 6.55476 10.8999 6.55868 10.1993C6.75442 10.1757 6.95016 10.1521 7.1459 10.1324C7.23202 9.21922 7.31423 8.30213 7.3064 7.38111Z" fill="#97F8F0"/>
<path d="M8.52036 7.33203C8.66912 8.45773 8.61432 9.59524 8.75525 10.7209C8.86095 11.8033 8.95491 12.8975 9.26026 13.9485C9.29158 14.098 9.40119 14.2043 9.53821 14.2594C10.3564 14.6569 11.2177 14.9561 12.0867 15.2159C12.9558 14.9758 13.7818 14.594 14.6274 14.2909C14.6627 14.3027 14.737 14.3303 14.7723 14.346C13.8719 14.6924 12.995 15.086 12.0906 15.4166L12.0124 15.4599C11.613 15.3575 11.2255 15.2237 10.8457 15.0663C10.697 15.0033 10.5443 14.9443 10.3955 14.8892C10.0002 14.7199 9.59693 14.5625 9.17804 14.4601C8.83354 14.2948 8.49296 14.1177 8.14062 13.9603C8.1876 13.9327 8.27373 13.8776 8.32071 13.854C8.53211 13.913 8.74742 13.9681 8.96273 14.0232C8.47338 12.1576 8.45772 10.2171 8.21501 8.31603C8.41075 8.02083 8.48904 7.6784 8.52036 7.33203Z" fill="#AEFAF2"/>
<path d="M10.2942 7.46523C10.4273 7.50459 10.5604 7.48097 10.6779 7.41406C10.8815 7.64235 11.1085 7.8549 11.3473 8.04776C11.1477 8.38232 10.9245 8.75624 10.4978 8.80741C10.3334 8.71688 10.169 8.63029 10.0006 8.54763C9.90276 8.70507 9.80489 8.86251 9.71094 9.02389C9.71877 8.77199 9.70702 8.52008 9.754 8.27211C9.87144 7.9651 10.0907 7.7132 10.2942 7.46523Z" fill="#D4F8F9"/>
<path d="M15.9569 8.19333C16.0313 7.63048 16.6577 7.55176 17.1079 7.46124C17.241 7.44549 17.3741 7.43368 17.5111 7.42188L17.5033 7.50847C17.378 7.7092 17.2136 7.91781 17.2684 8.16972C17.3663 8.83884 17.2214 9.5119 17.2332 10.185C17.2332 10.8305 17.1901 11.476 17.2958 12.1175C17.3545 12.46 17.3193 12.8103 17.2645 13.1488C16.505 13.4794 15.7299 13.7746 14.9743 14.1092C14.8608 13.9438 14.9978 13.6959 15.0135 13.5069C15.4284 11.7515 15.5576 9.94879 15.9569 8.19333Z" fill="#16BADB"/>
<path d="M20.7654 7.55201C21.1255 7.20564 21.5953 7.60317 21.9633 7.74881C21.7949 7.94954 21.6227 8.15028 21.4426 8.33921C20.8515 8.92174 20.3073 9.5633 19.6496 10.075C19.4774 9.79553 19.2934 9.52395 19.0977 9.26023C19.6966 8.74068 20.2525 8.16602 20.7654 7.55201Z" fill="#36E7F1"/>
<path d="M17.2666 8.16906C17.2118 7.91716 17.3801 7.70855 17.5015 7.50781C17.5132 9.34199 17.5758 11.1762 17.5641 13.0104C17.4623 13.0576 17.3605 13.1009 17.2587 13.1442C17.3096 12.8017 17.3449 12.4554 17.2901 12.1129C17.1844 11.4753 17.2274 10.8259 17.2274 10.1804C17.2235 9.51124 17.3644 8.84212 17.2666 8.16906Z" fill="#2DB8D6"/>
<path d="M21.9621 7.74693C22.0443 7.7115 22.1226 7.67214 22.2048 7.63672C22.5532 7.73118 22.886 7.87288 23.1835 8.07755C23.2109 8.11298 23.2657 8.18382 23.2931 8.21531C23.0073 8.4987 22.7529 8.82146 22.4397 9.06943C22.3575 9.08911 22.2792 9.11272 22.197 9.12847C22.1069 8.80571 21.7898 8.69157 21.508 8.5853C21.4845 8.50264 21.4571 8.41998 21.4375 8.33339C21.6215 8.15234 21.7937 7.9516 21.9621 7.74693Z" fill="#0D91B3"/>
<path d="M11.35 8.04771C11.5575 8.00835 11.7649 7.97292 11.9724 7.9375L11.9763 8.02803C11.9842 8.95693 11.992 9.88976 11.9607 10.8187C11.9489 10.9131 11.9372 11.0115 11.9294 11.1099C11.4518 10.7675 10.9507 10.4565 10.52 10.0551C10.4535 9.64179 10.5005 9.22457 10.5005 8.80736C10.9272 8.75619 11.1503 8.38227 11.35 8.04771Z" fill="#BBDDFD"/>
<path d="M11.9766 8.02344C12.4425 8.24385 12.8261 8.59022 13.2607 8.86181C13.2998 9.20818 13.3116 9.55848 13.335 9.90485C12.967 10.3221 12.4425 10.5622 11.957 10.8141C11.9923 9.88517 11.9844 8.95234 11.9766 8.02344Z" fill="#ABBAF1"/>
<path d="M13.9017 8.07031C13.9565 8.1018 14.0661 8.16084 14.1209 8.18839C14.1522 8.97559 14.117 9.76673 14.2619 10.5461C13.8273 10.9672 13.2244 11.1483 12.7938 11.5734C12.6646 11.6127 12.5354 11.6481 12.4062 11.6954C12.7977 11.3254 13.3027 11.1286 13.7373 10.8176C13.8743 10.7311 13.9565 10.5894 14.0231 10.4437C13.9957 10.3965 13.9369 10.306 13.9095 10.2627C13.8547 9.6762 13.8547 9.0858 13.9134 8.49934C13.9604 8.46391 14.0583 8.39307 14.1053 8.35764C14.0426 8.2553 13.9722 8.16084 13.9017 8.07031Z" fill="#7096C5"/>
<path d="M13.2617 8.86271C13.3674 8.70527 13.4849 8.5557 13.6219 8.42188C13.6963 8.44156 13.8411 8.47698 13.9116 8.49666C13.8568 9.08313 13.8568 9.67353 13.9077 10.26C13.802 10.1065 13.7002 9.95692 13.5984 9.80341C13.5083 9.8349 13.4222 9.87033 13.3361 9.90575C13.3126 9.55938 13.3009 9.20908 13.2617 8.86271Z" fill="#6D81C4"/>
<path d="M9.71446 9.02313C9.80841 8.86176 9.90628 8.70432 10.0042 8.54688C10.1686 8.63347 10.3369 8.71612 10.5013 8.80665C10.4974 9.22387 10.4504 9.64108 10.5209 10.0544C10.9515 10.4519 11.4526 10.7668 11.9302 11.1092C11.9107 11.3651 11.9028 11.617 11.8754 11.8728C11.1316 11.3965 10.4504 10.8337 9.70663 10.3653C9.70271 9.91267 9.6988 9.4679 9.71446 9.02313Z" fill="#C8F3F8"/>
<path d="M6.40241 9.24609C6.43373 9.54129 6.50028 9.83256 6.559 10.1238L6.56291 10.1986C6.559 10.9032 6.559 11.6077 6.56683 12.3083C6.53551 11.7848 6.1362 11.4109 5.88174 10.9858C5.58422 10.4977 5.00091 10.3521 4.58203 10.0018C4.78169 9.86405 4.96959 9.69086 5.20448 9.61214C5.3415 9.5531 5.50983 9.54523 5.61553 9.42321C5.80344 9.73809 6.10097 9.96245 6.38675 10.1868C6.39458 9.87585 6.40632 9.56097 6.40241 9.24609Z" fill="#10AECA"/>
<path d="M18.6988 9.52543C18.8358 9.45065 18.9689 9.36012 19.0942 9.26172C19.2938 9.5215 19.4778 9.79308 19.6462 10.0765C19.1138 10.3284 18.5618 10.537 18.002 10.7102C17.9902 10.415 18.0333 10.1276 18.0763 9.84031C18.2838 9.73404 18.4913 9.6317 18.6988 9.52543Z" fill="#16B5D3"/>
<path d="M13.3352 9.90702C13.4214 9.8716 13.5114 9.83618 13.5975 9.80469C13.6993 9.95819 13.805 10.1078 13.9068 10.2613C13.9342 10.3085 13.9929 10.399 14.0203 10.4423C13.9538 10.584 13.8716 10.7296 13.7345 10.8162C13.3 11.1233 12.795 11.324 12.4035 11.694C12.2469 11.8081 12.0629 11.8908 11.8672 11.8711C11.8946 11.6192 11.9024 11.3633 11.922 11.1075C11.9298 11.0091 11.9416 10.9146 11.9533 10.8162C12.4466 10.5683 12.9672 10.3282 13.3352 9.90702Z" fill="#727DB3"/>
<path d="M8.82436 10.2109C8.88308 10.3093 8.9418 10.4117 9.00444 10.514C9.08274 10.4589 9.16104 10.4038 9.24325 10.3448C9.30588 10.4195 9.37244 10.4983 9.43899 10.573C9.88919 10.9548 10.4059 11.25 10.8835 11.5964C11.1811 11.9546 11.5608 12.2065 12.0149 12.3128C12.0854 13.281 11.9914 14.2532 12.0893 15.2175C11.2202 14.9578 10.359 14.6586 9.54077 14.2611C9.40375 14.206 9.29414 14.0958 9.26282 13.9501C8.95747 12.8992 8.86351 11.805 8.75781 10.7226C8.77739 10.5494 8.80087 10.3802 8.82436 10.2109Z" fill="#7AF8ED"/>
<path d="M6.52344 12.7812C7.09108 13.1906 7.69787 13.5448 8.32424 13.8518C8.27726 13.8794 8.19114 13.9345 8.14416 13.9581C7.59609 13.7298 7.07151 13.4543 6.54693 13.1788C6.5391 13.0489 6.53127 12.9151 6.52344 12.7812Z" fill="#D1FAF1"/>
<path d="M17.2628 13.1494C17.3646 13.1062 17.4664 13.0589 17.5681 13.0156L17.576 13.0629L17.5877 13.1337C17.5094 13.1652 17.3567 13.2242 17.2784 13.2518C16.5816 13.5627 15.877 13.8619 15.1919 14.1886L15.1292 14.2122C15.094 14.1886 15.0157 14.1374 14.9805 14.1098C15.7282 13.7713 16.5033 13.4761 17.2628 13.1494Z" fill="#64E3FA"/>
<path d="M6.55025 13.1797C7.07483 13.4552 7.59942 13.7307 8.14749 13.959C8.4959 14.1165 8.83649 14.2936 9.18491 14.4589C9.29061 14.8486 9.47069 15.2146 9.7134 15.5374C9.41588 15.5767 9.12227 15.6318 8.82866 15.6791C8.06919 15.3799 7.36453 14.9312 6.62463 14.577C6.46413 14.1519 6.58548 13.6363 6.55025 13.1797Z" fill="#14CBE3"/>
<path d="M17.2739 13.2509C17.3522 13.2194 17.5049 13.1604 17.5832 13.1328C17.591 13.6366 17.591 14.1444 17.5871 14.6482C17.5245 14.6836 17.3992 14.7505 17.3365 14.7859C17.2661 14.7623 17.1251 14.723 17.0586 14.6993C17.176 14.2231 17.2348 13.739 17.2739 13.2509Z" fill="#158DAF"/>
<path d="M15.1875 14.1868C15.8765 13.8561 16.5773 13.5609 17.2741 13.25C17.2389 13.7381 17.1762 14.2222 17.0549 14.6985C17.1253 14.7181 17.2663 14.7614 17.3328 14.785C16.8435 15.0763 16.3267 15.3203 15.8178 15.5722C15.7003 15.5211 15.5868 15.4699 15.4694 15.4187C15.4889 15.3676 15.5085 15.3203 15.532 15.2692C15.3323 14.8913 15.5672 14.5017 15.7121 14.1513C15.5398 14.1632 15.3598 14.171 15.1875 14.1868Z" fill="#097FA3"/>
<path d="M15.1868 14.1839C15.3629 14.1681 15.5391 14.1563 15.7153 14.1484C15.5704 14.4987 15.3355 14.8845 15.5352 15.2663C15.5117 15.3174 15.4921 15.3647 15.4726 15.4158C15.5861 15.467 15.7035 15.5182 15.821 15.5693C15.1202 15.959 14.4156 16.3526 13.6835 16.6832C13.5661 16.3251 13.8558 16.0338 14.028 15.7543C14.3216 15.3096 14.6348 14.8687 14.7757 14.3492C14.8893 14.3019 15.0028 14.2586 15.1202 14.2114L15.1868 14.1839Z" fill="#0B7494"/>
<path d="M12.0932 15.4143C12.9975 15.0837 13.8783 14.6901 14.7748 14.3438C14.6339 14.8672 14.3207 15.3081 14.0271 15.7489C13.5299 15.9614 12.9975 16.0559 12.4847 16.2134C12.2694 16.2606 12.1911 16.4849 12.0932 16.6542C12.0932 16.5715 12.0932 16.4102 12.0893 16.3275C12.0815 16.0244 12.0893 15.7174 12.0932 15.4143Z" fill="#0A9ABA"/>
<path d="M9.17969 14.457C9.59857 14.5594 10.0018 14.7168 10.3972 14.8861L10.2954 14.9648C10.4324 15.0829 10.5734 15.1931 10.7182 15.3072C10.7613 15.6733 10.9687 15.9527 11.2506 16.1692C10.6986 16.0983 10.0879 15.9999 9.7121 15.5394C9.46547 15.2167 9.2893 14.8467 9.17969 14.457Z" fill="#4AE3EC"/>
<path d="M10.293 14.9654L10.3948 14.8867C10.5435 14.9418 10.6962 15.0009 10.845 15.0638C10.8019 15.2803 11.0329 15.359 11.1738 15.4574C11.4048 15.607 11.671 15.6857 11.9372 15.729C11.9568 15.6621 11.992 15.5283 12.0116 15.4614L12.0899 15.4181C12.0859 15.7251 12.082 16.0282 12.0859 16.3352C11.8041 16.2879 11.5222 16.2368 11.2443 16.1699C10.9624 15.9494 10.7549 15.6739 10.7119 15.3079C10.5709 15.1937 10.43 15.0835 10.293 14.9654Z" fill="#2CD0DE"/>
<path d="M11.1779 15.4561C11.0369 15.3577 10.806 15.2829 10.849 15.0625C11.2288 15.2199 11.6202 15.3577 12.0156 15.4561C11.996 15.523 11.9608 15.6568 11.9412 15.7237C11.6711 15.6844 11.4088 15.6057 11.1779 15.4561Z" fill="#08CCDF"/>
<path d="M8.82031 15.6808C9.11392 15.6296 9.40753 15.5784 9.70505 15.5391C10.0809 15.9996 10.6916 16.098 11.2436 16.1688C11.5215 16.2357 11.8034 16.2869 12.0852 16.3341C12.0852 16.4168 12.0892 16.5782 12.0892 16.6608C12.0852 16.7789 12.0852 16.9049 12.0852 17.0229C11.7447 16.9954 11.408 16.956 11.0713 16.9088C10.8834 16.8576 10.6994 16.7946 10.5232 16.7081C10.0456 16.2239 9.36838 16.0626 8.82031 15.6808Z" fill="#10BDD1"/>
<path d="M12.4852 16.2144C12.9981 16.057 13.5305 15.9625 14.0277 15.75C13.8554 16.0334 13.5657 16.3207 13.6832 16.6789L13.6871 16.7025C13.6049 16.734 13.5266 16.7616 13.4483 16.7891C13.002 16.9032 12.5479 16.9938 12.0859 17.0174C12.0859 16.8954 12.0859 16.7734 12.0899 16.6553C12.1916 16.49 12.2738 16.2656 12.4852 16.2144Z" fill="#0D8CAD"/>
<path d="M10.5248 16.7031C10.701 16.7897 10.885 16.8527 11.0729 16.9039C10.8458 17.3171 10.654 17.7462 10.5052 18.1909C10.3369 18.124 10.1725 18.0571 10.0081 17.9863C9.97675 17.9745 9.91803 17.9469 9.89062 17.9351C10.0746 17.5139 10.2938 17.1046 10.5248 16.7031Z" fill="#A1F6F0"/>
<path d="M13.4499 16.7936C13.5282 16.7661 13.6065 16.7385 13.6887 16.707C13.9588 17.0731 14.0998 17.51 14.3033 17.9114L14.2211 17.9469C14.0919 18.002 13.9628 18.0453 13.8336 18.0886C13.7514 18.0807 13.5869 18.0689 13.5008 18.061C13.2503 17.8209 13.2268 17.4391 13.1289 17.1203C13.2503 17.0298 13.3521 16.9117 13.4499 16.7936Z" fill="#1BBCD2"/>
<path d="M12.0855 17.0252C12.5474 17.0015 13.0015 16.911 13.4478 16.7969C13.35 16.915 13.2521 17.033 13.1268 17.1236C12.7588 17.1905 12.3869 17.2495 12.0189 17.3125C11.9876 17.714 11.9876 18.1194 12.0033 18.5208C11.4983 18.4618 10.9854 18.3831 10.5078 18.1981C10.6527 17.7494 10.8484 17.3204 11.0755 16.911C11.4082 16.9583 11.7449 16.9976 12.0855 17.0252Z" fill="#4AE1EB"/>
<path d="M12.0174 17.31C12.3893 17.251 12.7573 17.188 13.1253 17.1211C13.2192 17.4399 13.2466 17.8217 13.4972 18.0618C13.5794 18.0697 13.7438 18.0815 13.8299 18.0894C13.2427 18.3216 12.6242 18.4397 12.0057 18.542V18.5184C11.9861 18.113 11.9861 17.7115 12.0174 17.31Z" fill="#0C95B5"/>
<path d="M13.8282 18.0909C13.9574 18.0476 14.0905 18.0004 14.2158 17.9492C13.977 18.2995 13.609 18.5396 13.3819 18.9017L13.3467 18.8978C12.9043 18.8309 12.4659 18.9726 12.0196 18.9686C12.0117 18.8269 12.0078 18.6853 12.0039 18.5436C12.6224 18.4412 13.2449 18.3231 13.8282 18.0909Z" fill="#10617C"/>
<path d="M10.0078 17.9922C10.1722 18.063 10.3367 18.1299 10.505 18.1969C10.9826 18.3819 11.4954 18.4606 12.0004 18.5196V18.5432C12.0044 18.6849 12.0083 18.8266 12.0161 18.9683C12.4585 18.9723 12.8969 18.8266 13.3432 18.8975C13.2884 19.1533 13.2649 19.4131 13.2962 19.6768C13.2532 19.543 13.214 19.4091 13.1788 19.2793C12.8304 19.4367 12.4585 19.5705 12.0709 19.5351C12.0396 19.3816 12.0044 19.2281 11.973 19.0785C11.6599 19.047 11.3467 19.0195 11.0296 19.0037C10.9826 19.0392 10.8847 19.11 10.8377 19.1454L10.8417 19.1533C10.8143 19.0313 10.7869 18.9093 10.7516 18.7873C10.5989 18.437 10.0548 18.4015 10.0078 17.9922Z" fill="#0E7C96"/>
<path d="M11.0317 18.9922C11.3448 19.0079 11.658 19.0355 11.9751 19.067C12.0064 19.2205 12.0378 19.37 12.073 19.5235C12.4645 19.5629 12.8325 19.4251 13.1809 19.2677C13.2161 19.4015 13.2553 19.5354 13.2983 19.6652C13.6428 20.6532 14.8407 20.8579 15.3732 21.7002C14.277 22.0701 13.1887 22.4677 12.0534 22.7038C12.0417 22.204 12.0573 21.708 12.0495 21.2082C12.3705 21.1609 12.6915 21.1176 13.0086 21.0783C13.2513 21.0468 13.4941 20.9956 13.7329 20.9366C13.5528 20.7555 13.3531 20.5981 13.1574 20.4367C12.9617 20.2005 12.8207 19.9211 12.6837 19.6456C12.4723 19.6338 12.2609 19.6219 12.0534 19.6023C11.6619 19.5196 11.1452 19.618 10.9103 19.2126L10.8438 19.126C10.8868 19.1024 10.9847 19.0315 11.0317 18.9922Z" fill="#1195B3"/>
<path d="M10.9078 19.2227C11.1427 19.6281 11.6595 19.5297 12.051 19.6123C12.0314 20.1476 12.0314 20.6829 12.047 21.2143C12.0549 21.7141 12.0392 22.2101 12.051 22.71L12.0236 22.7139C11.4089 22.6037 10.7904 22.5407 10.1797 22.4226C10.7238 22.3124 11.2602 22.4974 11.8004 22.525C11.6947 22.0723 11.7652 21.6197 11.8474 21.171C11.7378 20.9781 11.4872 21.0253 11.3071 21.0096C10.9744 21.0175 10.6495 20.9545 10.3363 20.8561C10.5124 20.6987 10.6651 20.5097 10.7199 20.2736C10.8452 19.939 10.9157 19.5848 10.9078 19.2227Z" fill="#51F1F2"/>
<path d="M12.0537 19.6133C12.2612 19.633 12.4726 19.6448 12.684 19.6566C12.821 19.9282 12.962 20.2076 13.1577 20.4477C13.0442 20.5146 12.8602 20.5146 12.8289 20.6681C12.8759 20.8138 12.9463 20.9515 13.0129 21.0893C12.6919 21.1326 12.3708 21.1719 12.0537 21.2192C12.0342 20.6799 12.0342 20.1446 12.0537 19.6133Z" fill="#19CFE0"/>
<path d="M8.82065 21.714C9.43528 21.2141 10.1713 20.8638 10.7115 20.2734C10.6567 20.5096 10.504 20.6985 10.3278 20.856C10.1556 21.0095 9.97943 21.159 9.79544 21.3047C9.56838 21.466 9.34524 21.6392 9.16124 21.8518C9.1769 21.8833 9.20039 21.9423 9.21605 21.9738C9.32958 22.0604 9.45093 21.9895 9.56838 21.9502C9.47834 22.0171 9.3883 22.0879 9.30609 22.1588C9.12601 22.0683 8.92635 22.0171 8.7267 22.0446H8.66406C8.6993 21.9226 8.70713 21.7849 8.82065 21.714Z" fill="#AEFFF4"/>
<path d="M12.8281 20.6657C12.8594 20.5122 13.0434 20.5122 13.157 20.4453C13.3527 20.6028 13.5524 20.7602 13.7324 20.9452C13.4936 21.0042 13.2509 21.0515 13.0082 21.0869C12.9456 20.9491 12.8751 20.8114 12.8281 20.6657Z" fill="#28C4D8"/>
<path d="M10.3332 20.8555C10.6464 20.9539 10.9713 21.0208 11.3041 21.009C11.4881 21.0247 11.7347 20.9775 11.8443 21.1703C11.7621 21.6191 11.6955 22.0717 11.7973 22.5243C11.2571 22.4968 10.7208 22.3079 10.1766 22.422C10.2118 22.3157 10.251 22.2095 10.2901 22.1071C10.2236 22.0245 10.1609 21.9418 10.0983 21.8592C10.2706 21.6112 10.5133 21.4341 10.7521 21.2569C10.4311 21.0444 10.1296 21.3829 9.79688 21.3042C9.98087 21.1585 10.1609 21.009 10.3332 20.8555Z" fill="#1FE9F0"/>
<path d="M9.80217 21.2999C10.1349 21.3825 10.4364 21.044 10.7574 21.2526C10.5147 21.4258 10.2759 21.6069 10.1036 21.8549C10.1662 21.9375 10.2328 22.0202 10.2954 22.1028C10.2563 22.2091 10.2211 22.3114 10.1819 22.4177C9.87655 22.3823 9.57903 22.2996 9.30891 22.154C9.39503 22.0831 9.48507 22.0123 9.5712 21.9454C9.45375 21.9847 9.33239 22.0556 9.21887 21.969C9.20321 21.9375 9.17972 21.8745 9.16406 21.847C9.35197 21.6344 9.57511 21.4613 9.80217 21.2999Z" fill="#34EFF2"/>
<path d="M15.3732 21.7071L15.4045 21.6953C15.3967 21.9708 15.3771 22.2464 15.3301 22.5179C14.4728 22.6872 13.6154 22.8328 12.7581 23.0021C12.1122 23.0099 11.4701 22.9352 10.8359 22.8525C11.2313 22.7659 11.6463 22.8682 12.026 22.7147L12.0534 22.7108C13.1887 22.4746 14.281 22.0771 15.3732 21.7071Z" fill="#0C728E"/>
<path d="M8.72656 22.0426C8.93013 22.0151 9.12587 22.0662 9.30595 22.1568C9.57607 22.3063 9.8736 22.385 10.179 22.4205C10.7897 22.5386 11.4121 22.6015 12.0228 22.7117C11.6431 22.8652 11.2242 22.7668 10.8327 22.8495C10.3434 22.8141 9.86577 22.6921 9.39991 22.5464C9.19243 22.4677 8.97711 22.4362 8.7618 22.4205C8.75005 22.326 8.73439 22.1371 8.72656 22.0426Z" fill="#0CB2C7"/>
<path d="M6.88886 22.4855C7.53089 22.4776 8.17292 22.513 8.81103 22.4658C9.01068 22.4579 9.20642 22.5012 9.39825 22.5484C9.86411 22.6941 10.3417 22.8161 10.8311 22.8515C11.4692 22.9381 12.1112 23.0089 12.7532 23.0011C13.5753 23.0444 14.3974 23.0955 15.2195 23.0916C14.7537 23.1192 14.2878 23.1231 13.8259 23.1939C13.0155 23.1861 12.2052 23.2569 11.3948 23.2136C10.0598 23.1585 8.72099 23.1664 7.38604 23.1939C7.33515 23.4576 7.28817 23.7253 7.24119 23.9929C7.08852 24.7723 6.93976 25.5516 6.82231 26.3349C6.78708 26.5238 6.75185 26.7127 6.72444 26.9056C6.72053 26.9882 6.71661 27.1536 6.7127 27.2362L6.62657 27.2441C6.38777 27.252 6.14114 27.2756 5.90625 27.2087C6.26641 25.6421 6.56785 24.0599 6.88886 22.4855Z" fill="#F7EAB6"/>
<path d="M12.7594 23.0022C13.6168 22.833 14.4741 22.6834 15.3315 22.5181C15.9226 22.4748 16.5176 22.4827 17.1088 22.4906C17.2654 23.3486 17.4846 24.1948 17.6803 25.045C17.8565 25.7929 18.0092 26.5486 18.2323 27.2885C14.3684 27.3043 10.5045 27.261 6.64062 27.2492L6.72675 27.2413C8.50798 27.1508 10.297 27.2649 12.0783 27.202C12.0822 27.1311 12.09 26.9855 12.0939 26.9146C13.0687 26.9225 14.0435 26.8516 15.0183 26.8241C15.676 26.8044 16.3376 26.7965 16.9952 26.7218C16.9678 26.3518 16.9326 25.9818 16.87 25.6197C16.7995 25.0175 16.5646 24.431 16.5881 23.8209C16.5881 23.5336 16.502 23.077 16.134 23.1046C15.8326 23.077 15.5311 23.0928 15.2297 23.1006C14.4037 23.1006 13.5815 23.0455 12.7594 23.0022Z" fill="#844F38"/>
<path d="M15.2233 23.0954C15.5248 23.0875 15.8262 23.0678 16.1276 23.0993C16.4956 23.0717 16.5818 23.5283 16.5818 23.8157C15.0824 23.9259 13.5791 23.9022 12.0758 23.9495C12.0719 23.7251 12.0758 23.5008 12.0798 23.2764C12.6631 23.2253 13.2542 23.3197 13.8297 23.1977C14.2916 23.1269 14.7614 23.1229 15.2233 23.0954Z" fill="#D39260"/>
<path d="M7.39093 23.1932C8.72587 23.1656 10.0647 23.1578 11.3997 23.2129C12.21 23.2601 13.0204 23.1853 13.8308 23.1932C13.2553 23.3113 12.6642 23.2207 12.0809 23.2719C12.0769 23.4963 12.0769 23.7206 12.0769 23.945C11.5524 24.0198 11.0199 23.9686 10.4954 23.9725C9.41488 23.9765 8.33048 23.9961 7.25 23.9883C7.29306 23.7285 7.34395 23.4608 7.39093 23.1932Z" fill="#F7B457"/>
<path d="M12.0824 23.9502C13.5818 23.903 15.089 23.9266 16.5883 23.8164C16.5609 24.4304 16.7958 25.013 16.8702 25.6152C16.8467 25.6585 16.8036 25.745 16.7801 25.7883C15.9306 25.7765 15.089 25.9261 14.2394 25.9143C14.0672 25.745 13.9067 25.4459 13.6209 25.5128C13.3625 25.5522 13.433 25.8907 13.3547 26.0796C12.9319 26.1072 12.5091 26.115 12.0863 26.119C12.0785 25.3947 12.0746 24.6705 12.0824 23.9502Z" fill="#B5754F"/>
<path d="M10.4924 23.9768C11.0209 23.9689 11.5494 24.024 12.0739 23.9492C12.0661 24.6734 12.07 25.3937 12.0779 26.118V26.2282C10.9308 26.2203 9.78771 26.3777 8.64067 26.303C8.61719 26.1494 8.59761 25.9959 8.56238 25.8464C8.4097 25.7795 8.23354 25.8228 8.07303 25.8149C8.06129 25.9841 8.04954 26.1534 8.0378 26.3226C7.63457 26.362 7.23135 26.3777 6.82812 26.3384C6.94557 25.5551 7.09433 24.7718 7.24701 23.9965C8.32749 24.0004 9.41189 23.9807 10.4924 23.9768Z" fill="#E79F4B"/>
<path d="M13.3543 26.0765C13.4326 25.8876 13.3622 25.553 13.6205 25.5097C13.9063 25.4428 14.0668 25.738 14.2391 25.9112C15.0886 25.923 15.9303 25.7773 16.7798 25.7852C16.8033 25.7419 16.8463 25.6553 16.8698 25.612C16.9324 25.9781 16.9677 26.3481 16.9951 26.7141C16.3374 26.7889 15.6758 26.7968 15.0181 26.8164C14.0433 26.844 13.0725 26.9148 12.0938 26.907C12.0899 26.6787 12.0859 26.4504 12.0859 26.2221V26.1119C12.5048 26.1158 12.9315 26.104 13.3543 26.0765Z" fill="#A56545"/>
<path d="M8.07324 25.8113C8.23375 25.8192 8.40992 25.7759 8.56259 25.8428C8.59783 25.9923 8.6174 26.1458 8.64089 26.2994C9.78792 26.3741 10.931 26.2206 12.0781 26.2246C12.0781 26.4529 12.082 26.6811 12.0859 26.9094C10.3008 26.8858 8.51561 26.9016 6.73047 26.9055C6.75396 26.7126 6.79311 26.5237 6.82834 26.3348C7.23156 26.3702 7.63479 26.3545 8.03801 26.319C8.04975 26.1498 8.0615 25.9805 8.07324 25.8113Z" fill="#D58A44"/>
<path d="M6.73049 26.9072C8.51564 26.9033 10.3008 26.8875 12.0859 26.9112C12.082 26.982 12.0742 27.1276 12.0703 27.1985C10.289 27.2615 8.49998 27.1473 6.71875 27.2379C6.72266 27.1591 6.72658 26.9899 6.73049 26.9072Z" fill="#AC6D41"/>
</svg>
