<svg width="20" height="26" viewBox="0 0 20 26" fill="none" xmlns="http://www.w3.org/2000/svg">
<path d="M9.88672 18.8422C10.5679 18.8461 11.2647 18.7753 11.9067 18.5352C12.31 18.669 12.6858 18.9051 12.9559 19.2358C13.1908 19.4522 13.0616 19.8026 13.1125 20.082C13.0655 19.8183 13.0185 19.5506 12.9285 19.2987C12.678 19.0626 12.4039 18.7753 12.0359 18.7753C11.3234 18.7753 10.6266 18.9721 9.91412 18.9878L9.88672 18.8422Z" fill="#FDCF63"/>
<path d="M1.19531 2.25391C4.11575 2.28539 7.04009 2.24997 9.96052 2.29327C9.96052 2.37199 9.95662 2.52943 9.95662 2.60815C9.9527 2.92696 9.94879 3.24578 9.91747 3.5646L9.91355 3.60002C9.77653 4.12351 9.81959 4.66274 9.81176 5.1941C9.72955 5.10357 9.64735 5.01305 9.56514 4.92252C9.5025 5.0957 9.44377 5.26889 9.38505 5.44601C8.82524 5.47356 8.53946 5.97737 8.26934 6.39852C8.12057 6.37491 7.97181 6.35129 7.82696 6.32767C7.76824 6.41426 7.70952 6.50086 7.6508 6.58745C7.44331 6.63075 7.20843 6.61894 7.03618 6.7567C7.14579 7.04796 7.24758 7.3471 7.21234 7.66592C6.98137 7.63443 6.81695 7.47699 6.66819 7.31561C6.52334 7.46911 6.53509 7.68166 6.53117 7.87846C6.33543 7.5872 6.21407 7.2487 5.97527 6.98892C5.8774 7.0086 5.79127 7.05977 5.70123 7.09519C5.83825 7.30774 5.94395 7.53996 6.01441 7.78006C5.46243 7.22115 4.87913 6.69372 4.3428 6.11906C3.71252 5.56015 3.21142 4.85561 2.51068 4.37541C2.49893 4.19042 2.47936 4.00543 2.50677 3.82437C2.52634 3.5764 2.80429 3.51736 2.96088 3.37173C2.9922 3.24972 2.97654 3.11983 2.97262 2.99388C2.92956 2.95845 2.85127 2.89154 2.8082 2.85612C2.31103 2.87973 1.76687 2.80495 1.31276 3.04504C1.26969 2.78133 1.22663 2.51762 1.19531 2.25391ZM9.38113 2.95845C9.22846 3.11589 9.29893 3.34812 9.28718 3.54492C9.47901 3.52917 9.76087 3.663 9.86265 3.41896C9.89006 3.22216 9.85092 3.02143 9.8196 2.82463C9.67084 2.86005 9.50249 2.86399 9.38113 2.95845ZM6.26105 4.08021C6.40981 4.07234 6.55466 4.04479 6.6995 3.99756C6.70342 3.82831 6.65252 3.58821 6.42547 3.65119C6.18666 3.65119 6.26496 3.93064 6.26105 4.08021ZM3.63423 4.21404C3.63814 4.44626 3.91609 4.36361 4.06486 4.37935C4.07269 4.22585 4.08051 4.07628 4.08834 3.92277C3.88477 3.84405 3.55202 3.92671 3.63423 4.21404ZM7.8896 4.52892C8.06186 4.92646 8.64124 4.78082 8.75869 4.41477C8.79 4.13925 8.54337 3.95032 8.32023 3.85192C8.06186 3.97394 7.77608 4.19829 7.8896 4.52892ZM7.11839 4.50924C6.93831 4.73753 7.09881 4.95794 7.36894 4.89103C7.44723 4.69817 7.40809 4.35573 7.11839 4.50924ZM5.84217 4.96581C5.66992 5.04847 5.70907 5.39878 5.92438 5.3909C6.11621 5.46175 6.29629 5.22559 6.17884 5.05634C6.12012 4.91858 5.96353 4.95401 5.84217 4.96581Z" fill="#FDE68C"/>
<path d="M3.63503 4.2179C3.5489 3.93057 3.88166 3.84792 4.09306 3.92664C4.08131 4.07621 4.07739 4.22971 4.06957 4.38322C3.9208 4.37141 3.63894 4.45013 3.63503 4.2179Z" fill="#FAF8E2"/>
<path d="M0.535388 0C2.37534 0.0511681 4.2153 0.031488 6.05133 0.0629761C6.18052 0.0669121 6.31362 0.0669122 6.44672 0.0708482C8.12617 0.110208 9.80562 0.051168 11.4851 0.106272L11.5594 0.114144C11.3794 0.110208 11.1993 0.106272 11.0192 0.106272C10.7491 0.106272 10.4829 0.106272 10.2167 0.106272C9.75864 0.110208 9.29669 0.106272 8.83866 0.106272C7.30798 0.133824 5.77338 0.0865923 4.24661 0.228289C3.43233 0.240097 2.62197 0.322753 1.80769 0.326689C1.46319 0.342433 1.11478 0.318816 0.778112 0.381793C0.496247 0.488065 0.507992 0.846241 0.425781 1.09027C0.484503 0.728161 0.500155 0.362113 0.535388 0Z" fill="#D2CDCA"/>
<path d="M11.4805 0.105855C14.076 0.125535 16.6715 0.0901116 19.267 0.0546875C19.2866 0.330208 19.3375 0.605729 19.357 0.881249C19.3453 0.956033 19.3296 1.11347 19.3179 1.18826C19.2748 0.841889 19.2318 0.499456 19.173 0.157024C18.6445 0.113728 18.1121 0.14128 17.5836 0.133408C16.9768 0.1216 16.37 0.1216 15.7632 0.14128C15.3913 0.145216 15.0194 0.137344 14.6514 0.14128C13.9155 0.145216 13.1834 0.129472 12.4474 0.153088C12.1499 0.16096 11.8524 0.145216 11.5548 0.113728L11.4805 0.105855Z" fill="#FDCF63"/>
<path d="M4.24667 0.227485C5.77343 0.085789 7.30803 0.133021 8.83872 0.105469C8.48639 0.357373 8.47073 0.841502 8.15363 1.12883C8.05576 1.27053 7.87176 1.24691 7.723 1.26266C5.74995 1.25872 3.77298 1.29414 1.79992 1.32563C1.33015 1.34137 0.8408 1.26659 0.402344 1.45946C0.402344 1.4201 0.402344 1.34138 0.402344 1.30202C0.410173 1.25085 0.418007 1.14457 0.425836 1.09341C0.508047 0.845438 0.496303 0.491198 0.778167 0.384925C1.11484 0.321949 1.46325 0.345565 1.80775 0.329821C2.62203 0.321949 3.43239 0.235357 4.24667 0.227485Z" fill="#FCBD32"/>
<path d="M8.83887 0.105469C9.2969 0.105469 9.75493 0.109405 10.2169 0.105469C9.98199 0.479389 10.0642 0.963518 9.75885 1.30595C9.97025 1.30989 10.1816 1.31382 10.393 1.30595C10.7845 1.30201 11.1721 1.3335 11.5636 1.3335C10.9881 1.40435 10.4087 1.45552 9.83323 1.54211C8.35343 1.64838 6.86973 1.55786 5.38994 1.66019C3.81619 1.69955 2.24636 1.65232 0.672616 1.70349C0.551258 1.672 0.44556 1.61296 0.332031 1.56179C0.351605 1.4752 0.375092 1.38861 0.398581 1.30202C0.398581 1.34138 0.398581 1.4201 0.398581 1.45946C0.840952 1.26659 1.33031 1.34137 1.79617 1.32563C3.76922 1.29808 5.74618 1.25872 7.71924 1.26266C7.868 1.25085 8.052 1.27053 8.14987 1.12883C8.47088 0.841502 8.48654 0.357373 8.83887 0.105469Z" fill="#EBA030"/>
<path d="M10.2197 0.105469C10.486 0.105469 10.7522 0.105469 11.0223 0.105469C10.8735 0.428221 10.8422 0.782462 10.8148 1.13277C10.6739 1.19181 10.5329 1.25085 10.3959 1.30595C10.1845 1.31382 9.97312 1.30989 9.76172 1.30595C10.0632 0.963518 9.98486 0.475453 10.2197 0.105469Z" fill="#D68C30"/>
<path d="M11.017 0.105469C11.1971 0.105469 11.3732 0.109405 11.5572 0.113341C11.8547 0.144829 12.1523 0.160573 12.4498 0.152701C12.3715 0.534494 12.3128 0.928094 12.1523 1.28627C11.9565 1.29414 11.7569 1.31382 11.565 1.3335C11.1736 1.3335 10.786 1.30201 10.3945 1.30595C10.5355 1.25085 10.6764 1.19181 10.8134 1.13277C10.8369 0.782462 10.8682 0.428221 11.017 0.105469Z" fill="#C57D2D"/>
<path d="M12.4499 0.152433C13.1859 0.132753 13.9179 0.144561 14.6539 0.140625C14.7674 0.51061 14.7987 0.955379 15.1432 1.19941C14.145 1.23877 13.1506 1.28994 12.1523 1.28994C12.3089 0.927827 12.3716 0.534226 12.4499 0.152433Z" fill="#B26D2A"/>
<path d="M14.6562 0.141761C15.0282 0.137825 15.3961 0.145697 15.768 0.141761C15.7837 0.48813 15.8346 0.834499 15.9207 1.173C15.6623 1.18087 15.404 1.19267 15.1456 1.19661C14.8011 0.956514 14.7698 0.511746 14.6562 0.141761Z" fill="#BF782D"/>
<path d="M15.7687 0.14093C16.3755 0.12125 16.9823 0.121251 17.5891 0.133059C17.5774 0.471555 17.5539 0.806116 17.5226 1.14461C17.3033 1.19578 17.0841 1.24695 16.8688 1.29812C17.0136 1.40832 17.1546 1.5146 17.2994 1.62874C15.7805 1.66023 14.2576 1.67991 12.7387 1.67597C10.2919 1.6681 7.84128 1.71927 5.39453 1.66417C6.87432 1.56183 8.35803 1.65629 9.83782 1.54609C10.4133 1.45556 10.9888 1.40439 11.5682 1.33748C11.7639 1.3178 11.9596 1.30205 12.1554 1.29024C13.1536 1.29418 14.1519 1.23908 15.1463 1.19972C15.4047 1.19184 15.663 1.18397 15.9214 1.1761C15.8353 0.837604 15.7844 0.491235 15.7687 0.14093Z" fill="#D5872F"/>
<path d="M17.5914 0.134328C18.1199 0.1422 18.6523 0.114647 19.1808 0.157943C19.2395 0.500376 19.2826 0.846745 19.3257 1.18918C19.3374 1.11439 19.3531 0.956953 19.3648 0.882169C19.4392 1.11439 19.4666 1.36236 19.4783 1.60639C19.4274 1.61033 19.3257 1.6182 19.2748 1.62214C18.6171 1.64182 17.9594 1.61427 17.3017 1.62607C17.1569 1.51587 17.0159 1.40566 16.8711 1.29545C17.0903 1.24428 17.3056 1.19311 17.5249 1.14195C17.5562 0.807385 17.5797 0.472824 17.5914 0.134328Z" fill="#EE9F2C"/>
<path d="M12.7333 1.67226C14.2523 1.68013 15.7751 1.65652 17.2941 1.62503C17.9518 1.61322 18.6094 1.63684 19.2671 1.62109C19.1105 1.70375 18.9265 1.75492 18.813 1.89661C18.77 2.60903 18.907 3.33719 18.7621 4.04174C18.7543 3.45527 18.7856 2.87274 18.7582 2.28628L18.6369 2.27447C15.7438 2.2666 12.8508 2.28234 9.95776 2.29021C7.03733 2.24692 4.11298 2.28628 1.19254 2.25085L1.11034 2.24298L1.06335 2.23905C3.98379 2.17607 6.90422 2.25479 9.82466 2.18394L9.8638 2.03831C9.80117 1.94385 9.75028 1.82183 9.62109 1.81789C9.21787 1.76279 8.81856 1.88481 8.41925 1.88874C7.4797 1.89268 6.54015 1.89661 5.60843 1.79821C4.09732 1.78641 2.5823 1.77066 1.07119 1.79821C0.926344 1.81396 0.801063 1.75098 0.671875 1.69981C2.24562 1.64865 3.81545 1.69588 5.3892 1.65652C7.83594 1.71556 10.2866 1.66439 12.7333 1.67226Z" fill="#A7631F"/>
<path d="M1.07422 1.79656C2.58533 1.76901 4.10035 1.78475 5.61146 1.79656C6.54709 1.89496 7.48664 1.89102 8.42228 1.88709C8.82159 1.88315 9.22089 1.76114 9.62412 1.81624C9.7533 1.82018 9.8042 1.94219 9.86683 2.03666C7.51404 2.04846 5.15734 2.07995 2.80455 2.04846C2.24082 2.03666 1.6771 2.07208 1.11337 2.00517C1.10945 1.954 1.08596 1.85166 1.07422 1.79656Z" fill="#96602B"/>
<path d="M1.12119 2.01172C1.68101 2.07469 2.24865 2.03927 2.81238 2.05501C5.16517 2.0865 7.52187 2.05895 9.87466 2.04321L9.83551 2.18884C6.91508 2.25969 3.99465 2.18097 1.07422 2.24394C1.08205 2.1849 1.10554 2.06682 1.12119 2.01172Z" fill="#E2A752"/>
<path d="M1.11647 2.24609L1.19868 2.25397C1.23391 2.51768 1.27697 2.78533 1.32395 3.0451C1.78198 2.80501 2.32222 2.87979 2.8194 2.85617C2.70978 2.91128 2.60017 2.96638 2.49447 3.02542C2.56494 3.16712 2.608 3.35605 2.792 3.38754C2.88204 3.27339 2.9251 3.12776 2.97991 2.99394C2.97991 3.11989 2.99557 3.24584 2.96816 3.37179C2.81157 3.51742 2.53753 3.57646 2.51404 3.82443C2.48273 4.00549 2.50622 4.19442 2.51796 4.37547C3.21479 4.85567 3.71589 5.56021 4.35009 6.11912C4.33443 6.16636 4.29919 6.26082 4.27962 6.31199C4.08388 6.2372 3.88422 6.17816 3.68065 6.11912C3.46925 5.94988 3.26568 5.76882 3.06211 5.59564C2.9525 5.50117 2.8468 5.40671 2.74893 5.30437C2.38486 4.89503 2.00904 4.49355 1.59799 4.1275C1.78981 4.68248 2.02862 5.21778 2.27525 5.74914C3.01123 7.29206 3.74721 8.83891 4.49493 10.3779C4.78071 10.9486 5.05083 11.5272 5.40708 12.0546C5.50495 12.4207 5.81421 12.6844 5.90034 13.0583C5.52452 12.6804 5.11738 12.3183 4.80811 11.8854C3.61802 9.44111 2.45533 6.98505 1.32395 4.51717C0.948131 3.8205 1.10472 2.99787 1.11647 2.24609ZM1.73109 4.00549C1.94248 4.06453 2.1578 4.04091 2.36137 3.95826C2.41618 3.65518 2.33397 3.32062 2.00121 3.23403C1.56276 3.16318 1.67628 3.74178 1.73109 4.00549Z" fill="#FAEEAD"/>
<path d="M9.95975 2.29523C12.8528 2.28736 15.7458 2.27162 18.6388 2.27949C18.6036 2.84234 18.6506 3.40912 18.6075 3.97197C18.5723 3.97197 18.494 3.97591 18.4548 3.97591C18.2474 3.94048 18.1182 4.13335 17.9812 4.24749C16.1373 6.02657 14.3169 7.82926 12.4691 9.60046C12.246 9.82088 12.0189 10.0452 11.7645 10.2342C11.42 10.3247 11.1303 10.5608 10.868 10.797C10.59 11.1512 10.3551 11.5488 9.99499 11.8282C9.93626 11.5842 9.90103 11.3323 9.91277 11.0804C9.90886 8.58891 9.88929 6.09742 9.91669 3.60199L9.9206 3.56656C10.0576 3.55869 10.1907 3.54688 10.3277 3.53114C10.5078 3.37764 10.5078 3.11786 10.4765 2.90138C10.3356 2.75575 10.1359 2.69671 9.95584 2.61011C9.95584 2.52746 9.95583 2.37002 9.95975 2.29523ZM12.2851 3.36189C12.3008 3.49572 12.2225 3.67284 12.3556 3.7673C12.473 3.78304 12.5983 3.79092 12.7197 3.79485C12.7118 3.64528 12.704 3.49572 12.7001 3.34221C12.5592 3.35008 12.4222 3.35402 12.2851 3.36189ZM13.7101 4.38919C13.7219 4.47578 13.7375 4.6529 13.7493 4.73949C13.8667 4.76705 13.9881 4.75917 14.1094 4.71981C14.1094 4.64897 14.1133 4.50333 14.1133 4.42855C13.9842 4.37738 13.8471 4.36164 13.7101 4.38919ZM10.4608 4.84577C10.4178 4.9914 10.4334 5.1449 10.4569 5.29053C10.5705 5.29447 10.684 5.30234 10.8014 5.30628C10.8093 5.17245 10.8132 5.03863 10.8249 4.90087C10.7036 4.88906 10.5822 4.86545 10.4608 4.84577ZM11.8428 5.14097C11.6392 5.27479 11.7527 5.70775 12.0307 5.63297C12.3595 5.56999 12.1285 4.90874 11.8428 5.14097ZM11.326 6.12497C11.4004 6.13284 11.5531 6.14858 11.6314 6.15646C11.9093 6.10529 11.8036 5.65658 11.5335 5.77073C11.3534 5.77466 11.373 6.00295 11.326 6.12497Z" fill="#FE9F13"/>
<path d="M18.6415 2.28125L18.7629 2.29306C18.7903 2.87952 18.759 3.46205 18.7668 4.04852C18.7394 4.20596 18.665 4.35159 18.6024 4.49722C18.5711 4.32404 18.5906 4.14692 18.6102 3.97373C18.6533 3.41088 18.6063 2.8441 18.6415 2.28125Z" fill="#FAB638"/>
<path d="M9.96102 2.60547C10.1372 2.69206 10.3368 2.7511 10.4817 2.89673C10.5091 3.11321 10.513 3.37299 10.3329 3.52649C10.1959 3.54617 10.0589 3.55798 9.92578 3.56192C9.94927 3.24704 9.95319 2.92822 9.96102 2.60547Z" fill="#F5C355"/>
<path d="M9.3828 2.96195C9.50808 2.86748 9.67251 2.86355 9.82127 2.82812C9.84867 3.02493 9.89173 3.22566 9.86433 3.42246C9.76254 3.66649 9.48459 3.53267 9.28885 3.54841C9.3006 3.35161 9.22621 3.11939 9.3828 2.96195Z" fill="#F8F4DC"/>
<path d="M2.48828 3.02862C2.59398 2.96958 2.7036 2.91448 2.81321 2.85938C2.85627 2.8948 2.93457 2.96171 2.97763 2.99714C2.92282 3.13096 2.87976 3.27266 2.78972 3.39074C2.60572 3.35925 2.56266 3.17032 2.48828 3.02862Z" fill="#F9F3D0"/>
<path d="M1.73072 4.00789C1.67591 3.74418 1.56238 3.16558 2.00084 3.23643C2.3336 3.32302 2.41581 3.65759 2.361 3.96066C2.16135 4.04331 1.94211 4.06299 1.73072 4.00789Z" fill="#FAFAF4"/>
<path d="M12.2847 3.35949C12.4217 3.35162 12.5587 3.34769 12.6997 3.34375C12.7075 3.49332 12.7114 3.64289 12.7192 3.79639C12.594 3.79245 12.4726 3.78065 12.3552 3.76884C12.226 3.67044 12.3004 3.49332 12.2847 3.35949Z" fill="#F1C776"/>
<path d="M6.26316 4.08381C6.26707 3.9303 6.18877 3.65085 6.42757 3.65872C6.65072 3.59574 6.70161 3.83584 6.70161 4.00509C6.55676 4.04838 6.41192 4.07987 6.26316 4.08381Z" fill="#F8F7DA"/>
<path d="M9.80975 5.19565C9.81758 4.66428 9.77452 4.12112 9.91154 3.60156C9.88805 6.09305 9.90762 8.58848 9.90762 11.08C9.89979 11.3319 9.93111 11.5838 9.98983 11.8278C10.35 11.5444 10.5849 11.1508 10.8628 10.7966C11.1212 10.5604 11.4109 10.3243 11.7593 10.2337L11.6536 10.3243C11.5714 10.399 11.4931 10.4817 11.4187 10.5644C11.3952 10.588 11.3522 10.6352 11.3326 10.6588C11.1251 10.8635 10.902 11.0446 10.6906 11.2414C10.4205 11.4893 10.1621 11.753 9.89588 12.0128C9.87631 11.7845 9.83324 11.5562 9.79409 11.3279C9.73929 11.387 9.68448 11.446 9.62967 11.5051C9.19122 10.9973 8.78407 10.4542 8.24383 10.0448C7.49219 9.3009 6.73272 8.55699 6.0124 7.78554C5.93802 7.5415 5.83232 7.31322 5.69922 7.10067C5.78926 7.06525 5.87538 7.01014 5.97325 6.9944C6.21206 7.25418 6.33342 7.59267 6.52916 7.88394C6.53308 7.68714 6.52133 7.47459 6.66618 7.32109C6.81494 7.4864 6.97936 7.64384 7.21033 7.67139C7.24556 7.35258 7.14378 7.05344 7.03417 6.76218C7.20642 6.62442 7.4413 6.63622 7.64879 6.59293C7.70751 6.50634 7.76623 6.41974 7.82495 6.33315C7.9698 6.35677 8.11856 6.38038 8.26733 6.404C8.53745 5.98678 8.82714 5.47904 9.38304 5.45149C9.44176 5.2783 9.5044 5.10512 9.56312 4.928C9.64142 5.01459 9.72754 5.10512 9.80975 5.19565ZM8.62748 6.45517C8.61182 6.60867 8.61183 6.76611 8.62357 6.92355C8.77234 6.91174 8.92501 6.89994 9.07768 6.89206C9.0816 6.78973 9.08551 6.68346 9.08551 6.58112C8.99156 6.41581 8.78016 6.48272 8.62748 6.45517ZM7.62921 6.94323C7.61747 7.01802 7.59789 7.17152 7.59006 7.2463C7.66053 7.49821 8.11856 7.30535 8.00112 7.06525C7.90325 6.96291 7.75057 6.97472 7.62921 6.94323Z" fill="#FDE280"/>
<path d="M7.89279 4.52853C7.77926 4.1979 8.06504 3.97748 8.32341 3.85547C8.54656 3.95387 8.78927 4.1428 8.76187 4.41832C8.64443 4.78043 8.06112 4.92606 7.89279 4.52853Z" fill="#FCFBF4"/>
<path d="M17.9825 4.24461C18.1235 4.13047 18.2527 3.9376 18.4562 3.97303C18.284 4.3194 18.1235 4.6697 17.963 5.02001C17.9082 5.00033 17.7985 4.9649 17.7437 4.94522C16.9177 5.8505 16.0447 6.71249 15.1913 7.59022C14.424 8.49156 13.5432 9.2827 12.7406 10.1526C12.6232 10.2549 12.5018 10.3533 12.3805 10.4556C12.1417 10.3966 11.899 10.3651 11.6602 10.3218L11.7659 10.2313C12.0203 10.0424 12.2474 9.818 12.4705 9.59758C14.3183 7.82638 16.1387 6.02369 17.9825 4.24461Z" fill="#B74B0D"/>
<path d="M18.4602 3.97269C18.4993 3.97269 18.5737 3.97269 18.6128 3.96875C18.5933 4.14193 18.5737 4.31905 18.605 4.49224C17.9943 5.8108 17.4032 7.14511 16.7768 8.45973C16.2131 9.60905 15.7237 10.8056 15.0739 11.9077C14.2948 12.8012 13.4414 13.6316 12.6232 14.4897C12.3413 14.7455 12.1299 15.0801 11.7972 15.269L11.7776 15.2375C11.7346 15.1391 11.6915 15.0407 11.6523 14.9423C12.5958 13.9701 13.5236 12.9783 14.4632 12.0021C14.886 11.5849 15.1482 11.0457 15.387 10.5143C16.2835 8.69983 17.1135 6.85778 17.9669 5.01966C18.1274 4.66936 18.2879 4.31905 18.4602 3.97269Z" fill="#F4B11D"/>
<path d="M1.59766 4.12891C2.00871 4.49495 2.38061 4.89643 2.7486 5.30577C2.64682 5.40811 2.54895 5.51045 2.45108 5.61278C2.40802 5.56161 2.36887 5.51044 2.32972 5.45928C2.31798 5.53012 2.29058 5.67969 2.27492 5.75054C2.02829 5.21918 1.7934 4.68388 1.59766 4.12891Z" fill="#F3BB2C"/>
<path d="M13.7148 4.38828C13.8519 4.36073 13.9889 4.37647 14.1181 4.43158C14.1181 4.50242 14.1142 4.64806 14.1142 4.72284C13.9928 4.7622 13.8714 4.77007 13.754 4.74252C13.7422 4.65199 13.7227 4.47487 13.7148 4.38828Z" fill="#F7CE63"/>
<path d="M7.11935 4.50974C7.40513 4.36017 7.44819 4.69867 7.3699 4.89153C7.09978 4.95451 6.93927 4.73409 7.11935 4.50974Z" fill="#FBF1C1"/>
<path d="M10.4607 4.84375C10.5821 4.86343 10.7034 4.88705 10.8248 4.90279C10.8169 5.03661 10.8091 5.17044 10.8013 5.3082C10.6838 5.30426 10.5703 5.29639 10.4568 5.29245C10.4333 5.14289 10.4176 4.99332 10.4607 4.84375Z" fill="#F5D07C"/>
<path d="M5.84485 4.96776C5.9623 4.95201 6.11889 4.92052 6.18153 5.05828C6.29897 5.23147 6.11889 5.46369 5.92707 5.39285C5.71567 5.40465 5.6726 5.05041 5.84485 4.96776Z" fill="#FCEFB0"/>
<path d="M15.1882 7.59422C16.0416 6.71255 16.9146 5.8545 17.7406 4.94922C17.7954 4.9689 17.905 5.00432 17.9598 5.024C17.1103 6.85818 16.2804 8.70417 15.38 10.5187C15.1373 11.054 14.8789 11.5893 14.4561 12.0065C13.5166 12.9865 12.5887 13.9745 11.6453 14.9467C11.0228 14.5216 10.2516 14.4114 9.51172 14.4704C9.57044 14.4547 9.6918 14.4232 9.75052 14.4074C9.78184 14.3956 9.84448 14.3681 9.87971 14.3563C9.89929 13.8958 9.87579 13.4353 9.9032 12.9747C9.96192 12.959 10.0794 12.9275 10.1381 12.9118L10.2281 12.8881C10.2477 13.0062 10.3886 13.1479 10.51 13.0495C10.6431 12.9354 10.5061 12.774 10.3691 12.774C10.3025 12.6913 10.236 12.6048 10.1733 12.5221C10.3495 12.1049 10.5648 11.6995 10.8701 11.361C11.2107 11.4751 11.6962 11.6562 11.9585 11.3059C12.1699 11.0225 12.3695 10.7155 12.714 10.5856C12.7571 10.5344 12.8432 10.436 12.8863 10.3848C12.851 10.3258 12.7767 10.2117 12.7375 10.1566C13.54 9.2867 14.4248 8.49556 15.1882 7.59422ZM13.9785 11.2272C13.8219 11.361 14.0529 11.6129 14.1938 11.4476C14.3269 11.3177 14.1077 11.1012 13.9785 11.2272Z" fill="#E15A06"/>
<path d="M11.8459 5.1393C12.1317 4.90707 12.3627 5.56439 12.0339 5.6313C11.7559 5.70608 11.6424 5.27312 11.8459 5.1393Z" fill="#F7D186"/>
<path d="M2.74673 5.30469C2.8446 5.40702 2.9503 5.50149 3.05992 5.59595C2.91899 5.67467 2.79763 5.77701 2.6841 5.88722C2.60581 5.79275 2.52751 5.70222 2.45312 5.6117C2.54708 5.50936 2.64495 5.40702 2.74673 5.30469Z" fill="#FCD66A"/>
<path d="M2.32824 5.46094C2.36739 5.51211 2.41045 5.56327 2.4496 5.61444C2.52398 5.70891 2.60227 5.79943 2.68057 5.88996C2.7941 5.77975 2.91546 5.67742 3.05639 5.5987C3.25996 5.77188 3.46353 5.95294 3.67493 6.12219C4.49704 7.0196 5.41701 7.82648 6.23912 8.72782C7.07297 9.48747 7.88724 10.2707 8.67412 11.0816L8.69369 11.239C8.5371 11.2351 8.3805 11.2311 8.22783 11.2272C8.22783 11.3649 8.22783 11.4988 8.23566 11.6365C8.37268 11.6405 8.51361 11.6444 8.65454 11.6483C8.68586 11.487 8.725 11.3295 8.7759 11.176C9.07342 11.4673 9.38661 11.7467 9.66456 12.0616C10.0286 12.4434 9.85638 13.022 9.88378 13.4983C9.84855 13.7974 9.97383 14.1556 9.75851 14.4075C9.69979 14.4232 9.57843 14.4547 9.51971 14.4705C9.06559 14.5452 8.58799 14.6869 8.27089 15.0491C7.31177 14.0572 6.40745 13.0141 5.40918 12.0616C5.05293 11.5342 4.78282 10.9556 4.49704 10.3849C3.74931 8.8459 3.01332 7.30299 2.27734 5.75614C2.28909 5.67742 2.31649 5.53179 2.32824 5.46094ZM5.67538 8.91675C5.62841 9.18834 5.59318 9.51896 5.90244 9.64491C6.12559 9.56619 6.48575 9.49534 6.37614 9.16472C6.34873 8.79867 5.92202 8.89314 5.67538 8.91675ZM6.13733 10.6092C6.16865 10.7116 6.1295 10.8729 6.24695 10.9281C6.35265 10.9399 6.46226 10.9477 6.57579 10.9517C6.5797 10.8297 6.58362 10.7116 6.58753 10.5896C6.43877 10.5187 6.28218 10.562 6.13733 10.6092ZM6.8694 11.2311C6.97509 11.2272 7.15517 11.3059 7.18258 11.1485C7.22956 11.0186 7.25696 10.6565 7.02599 10.7431C6.80676 10.8178 6.87722 11.0579 6.8694 11.2311Z" fill="#FCAB0D"/>
<path d="M11.3281 6.12554C11.3751 6.00352 11.3516 5.77523 11.5356 5.76736C11.8057 5.65715 11.9114 6.10586 11.6335 6.15309C11.5591 6.14915 11.4064 6.13341 11.3281 6.12554Z" fill="#F1C96D"/>
<path d="M3.67969 6.12109C3.87934 6.18013 4.08291 6.23917 4.27865 6.31396C4.29823 6.26673 4.32955 6.16833 4.34912 6.12109C4.88545 6.69575 5.47266 7.21924 6.02073 7.78209C6.74106 8.55748 7.50052 9.29745 8.25216 10.0414C8.78849 10.4507 9.19954 10.9939 9.638 11.5016C9.6928 11.4426 9.7437 11.3835 9.80243 11.3245C9.84157 11.5528 9.88463 11.7771 9.9042 12.0094C9.90812 12.277 9.90812 12.5447 9.91595 12.8084C9.97467 12.832 10.0921 12.8832 10.1469 12.9068C10.0882 12.9225 9.97075 12.954 9.91203 12.9697C9.88463 13.4303 9.90421 13.8908 9.88855 14.3513C9.85723 14.3631 9.79459 14.3906 9.75936 14.4025C9.97467 14.1505 9.8494 13.7924 9.88463 13.4932C9.86114 13.017 10.0295 12.4423 9.66541 12.0566C9.38746 11.7417 9.07427 11.4662 8.77674 11.171C8.74151 11.1395 8.71019 11.108 8.67887 11.0765C7.892 10.2657 7.07773 9.48244 6.24388 8.72279C5.42177 7.82539 4.50179 7.02244 3.67969 6.12109Z" fill="#FDE9A0"/>
<path d="M8.6321 6.45312C8.78477 6.48068 8.99225 6.41377 9.09012 6.57514C9.09012 6.67748 9.08621 6.78375 9.0823 6.88609C8.92962 6.89789 8.78086 6.90577 8.62819 6.91757C8.61644 6.76407 8.62035 6.60663 8.6321 6.45312Z" fill="#FBF0B6"/>
<path d="M7.6329 6.94141C7.75426 6.97289 7.90693 6.96109 8.0048 7.05949C8.12225 7.29958 7.66422 7.49245 7.59375 7.24054C7.60158 7.16969 7.62507 7.01619 7.6329 6.94141Z" fill="#FBE9A2"/>
<path d="M12.3789 10.4554C12.4963 10.3531 12.6216 10.2586 12.7391 10.1523C12.7743 10.2114 12.8487 10.3255 12.8878 10.3806C12.8448 10.4318 12.7586 10.5302 12.7156 10.5814C12.6021 10.5381 12.4924 10.4987 12.3789 10.4554Z" fill="#EEA260"/>
<path d="M11.4235 10.5604C11.4979 10.4778 11.5761 10.3951 11.6584 10.3203C11.8972 10.3636 12.1399 10.3951 12.3787 10.4541C12.4883 10.4935 12.6018 10.5368 12.7154 10.5801C12.3708 10.71 12.1712 11.017 11.9598 11.3004C11.6975 11.6467 11.2121 11.4696 10.8715 11.3555C10.8245 11.3279 10.7384 11.2689 10.6914 11.2413C10.9028 11.0445 11.1299 10.8635 11.3334 10.6588C11.2904 10.773 11.2512 10.8871 11.216 11.0012C11.2825 11.0918 11.3491 11.1862 11.4156 11.2768C11.6192 11.1941 11.8737 11.1666 12.0107 10.9698C12.0146 10.7808 11.8698 10.6431 11.7719 10.4974C11.6858 10.5132 11.5096 10.5447 11.4235 10.5604Z" fill="#DA6923"/>
<path d="M6.13672 10.6061C6.28157 10.5589 6.43816 10.5195 6.58692 10.5864C6.57909 10.7084 6.57517 10.8265 6.57517 10.9485C6.46556 10.9446 6.35595 10.9367 6.24633 10.9249C6.12889 10.8698 6.16804 10.7084 6.13672 10.6061Z" fill="#F6DD79"/>
<path d="M11.4223 10.5591C11.5085 10.5433 11.6846 10.5118 11.7707 10.4961C11.8686 10.6417 12.0135 10.7795 12.0095 10.9684C11.8725 11.1613 11.6181 11.1928 11.4145 11.2754C11.348 11.181 11.2814 11.0904 11.2148 10.9999C11.2501 10.8858 11.2931 10.7716 11.3323 10.6575C11.3558 10.6339 11.3988 10.5827 11.4223 10.5591Z" fill="#E2AA93"/>
<path d="M6.86811 11.2279C6.87594 11.0547 6.80547 10.8146 7.0247 10.7398C7.25959 10.6532 7.22827 11.0153 7.18129 11.1452C7.14997 11.3066 6.96989 11.2239 6.86811 11.2279Z" fill="#F6E58A"/>
<path d="M8.68067 11.0781C8.71199 11.1096 8.74331 11.1411 8.77854 11.1726C8.72765 11.3261 8.6885 11.4835 8.65719 11.6449C8.51625 11.641 8.37532 11.637 8.23831 11.6331C8.23048 11.4953 8.23047 11.3615 8.23047 11.2238C8.38315 11.2277 8.53974 11.2316 8.69633 11.2356L8.68067 11.0781Z" fill="#FAD574"/>
<path d="M13.9798 11.2255C14.109 11.0996 14.3282 11.316 14.1951 11.4459C14.0542 11.6113 13.8193 11.3593 13.9798 11.2255Z" fill="#F7851A"/>
<path d="M9.90234 12.0097C10.1685 11.7539 10.423 11.4902 10.697 11.2383C10.7401 11.2658 10.8301 11.3249 10.8771 11.3524C10.5718 11.6909 10.3565 12.0963 10.1803 12.5135C10.2429 12.6001 10.3056 12.6828 10.376 12.7655C10.3408 12.793 10.2742 12.852 10.239 12.8796L10.149 12.9032C10.0902 12.8796 9.97281 12.8284 9.918 12.8048C9.90625 12.545 9.90626 12.2774 9.90234 12.0097Z" fill="#C6580D"/>
<path d="M5.40625 12.0547C6.40452 13.0072 7.30883 14.0502 8.26796 15.0421C8.17792 15.1248 8.09962 15.235 7.97827 15.2625C7.31275 14.5029 6.54936 13.822 5.89951 13.0544C5.8173 12.6805 5.50803 12.4207 5.40625 12.0547Z" fill="#F7E797"/>
<path d="M10.3714 12.7656C10.5084 12.7656 10.6454 12.9309 10.5123 13.0411C10.391 13.1395 10.25 12.9939 10.2305 12.8798C10.2657 12.8522 10.3362 12.7932 10.3714 12.7656Z" fill="#F2811F"/>
<path d="M8.26624 15.0428C8.57942 14.6807 9.05703 14.543 9.51506 14.4642C10.255 14.4052 11.0223 14.5115 11.6486 14.9405C11.6878 15.0389 11.7269 15.1373 11.7739 15.2357C11.3942 14.972 10.9557 14.7791 10.4938 14.7358C9.64425 14.6492 8.66555 14.7752 8.0431 15.4207C8.02744 15.3813 7.99613 15.3065 7.98047 15.2672C8.10183 15.2357 8.1762 15.1255 8.26624 15.0428Z" fill="#A86118"/>
<path d="M8.04707 15.4187C8.66952 14.7732 9.64823 14.6512 10.4977 14.7338C10.3059 14.785 10.118 14.844 9.92617 14.8834C9.79698 14.8952 9.66779 14.907 9.54252 14.9188C9.07666 14.9228 8.66561 15.1668 8.45813 15.5879C8.28979 15.5722 8.12145 15.5564 7.95703 15.5446L8.04707 15.4187Z" fill="#F5D057"/>
<path d="M10.4927 14.7344C10.9547 14.7777 11.3892 14.9705 11.7729 15.2342L11.7924 15.2657C11.8198 15.3169 11.8786 15.4153 11.906 15.4625C11.491 15.5846 11.0604 15.5649 10.6336 15.5964C9.90941 15.6436 9.17735 15.6869 8.45703 15.5885C8.66452 15.1673 9.07557 14.9233 9.54143 14.9194C9.63147 15.0965 9.7215 15.2775 9.81154 15.4547C9.88984 15.4625 9.96814 15.4743 10.0503 15.4822C10.156 15.1201 10.5201 15.0532 10.8372 14.9705C10.5358 14.9233 10.2304 14.8839 9.92508 14.8839C10.113 14.8446 10.3009 14.7855 10.4927 14.7344Z" fill="#FBC039"/>
<path d="M9.53906 14.9221C9.66434 14.9103 9.79353 14.8985 9.92271 14.8867C10.2281 14.8867 10.5334 14.9261 10.8349 14.9733C10.5178 15.056 10.1498 15.1229 10.048 15.485C9.96577 15.4771 9.88748 15.4692 9.80919 15.4574C9.71915 15.2803 9.6291 15.1032 9.53906 14.9221Z" fill="#E99E23"/>
<path d="M11.9032 15.465L11.9619 15.4492C11.8601 15.7995 11.449 15.9176 11.2063 16.1577C11.0145 16.1616 10.8227 16.1656 10.6309 16.1695C10.7914 16.1853 10.9558 16.1971 11.1202 16.2089C11.1163 16.2443 11.1124 16.3191 11.1085 16.3545L11.0536 16.3584C10.6191 16.3821 10.1924 16.5867 9.75393 16.4726C9.46815 16.4175 9.18237 16.3742 8.89268 16.3624C8.71651 15.9373 8.14887 15.9412 7.94922 15.5437C8.11364 15.5555 8.28198 15.5712 8.45031 15.587C9.17455 15.6854 9.9027 15.6421 10.6269 15.5949C11.0576 15.5673 11.4921 15.587 11.9032 15.465Z" fill="#9B5B29"/>
<path d="M8.89844 16.3672C9.18813 16.3829 9.47391 16.4223 9.75969 16.4774C9.79101 16.6152 9.82233 16.749 9.86148 16.8867C9.6031 16.8671 9.34472 16.8316 9.09026 16.7844C9.05503 16.871 9.02371 16.9615 8.99631 17.0481C8.98065 16.8198 8.94933 16.5915 8.89844 16.3672Z" fill="#EDA82A"/>
<path d="M9.76172 16.4774C10.2002 16.5876 10.6269 16.383 11.0614 16.3633C10.8696 17.182 11.2376 18.0558 11.907 18.5399C11.265 18.78 10.5682 18.8508 9.88699 18.8469L9.76172 18.843C10.0906 18.5911 10.5251 18.6422 10.9127 18.595C10.7091 18.2211 10.4899 17.8511 10.2902 17.4772C10.2237 17.2922 10.0123 17.2804 9.85567 17.2213V17.1465C9.94571 17.1111 10.0358 17.0757 10.1258 17.0403C10.0358 16.9891 9.94571 16.9419 9.85959 16.8946C9.82436 16.749 9.79304 16.6112 9.76172 16.4774Z" fill="#C76D1C"/>
<path d="M8.98962 17.045C9.01703 16.9544 9.05227 16.8678 9.08358 16.7812C9.15796 16.9781 9.26758 17.1749 9.27932 17.3913C9.05618 17.7731 8.81738 18.2218 8.37109 18.3596C8.6647 17.9699 8.89175 17.5291 8.98962 17.045Z" fill="#F6E499"/>
<path d="M9.08432 16.7812C9.33878 16.8285 9.59716 16.8639 9.85553 16.8836C9.94166 16.9308 10.0317 16.982 10.1217 17.0292C10.0278 17.0646 9.93774 17.1001 9.85162 17.1355V17.2103C9.87902 17.6787 9.91425 18.1431 9.91034 18.6154C9.56975 18.6233 9.20568 18.58 8.90033 18.7689C8.66544 18.702 8.44229 18.5879 8.21915 18.4895C8.17217 18.5013 8.08213 18.5249 8.03516 18.5367C8.14477 18.4737 8.25439 18.4108 8.37183 18.3596C8.82203 18.2218 9.05692 17.7731 9.28006 17.3913C9.26832 17.1749 9.16262 16.982 9.08432 16.7812Z" fill="#FDC93A"/>
<path d="M9.85755 17.2148C10.0141 17.2699 10.2255 17.2818 10.2921 17.4707C10.4917 17.8485 10.711 18.2146 10.9145 18.5885C10.527 18.6357 10.0924 18.5846 9.76359 18.8365C9.52479 18.8247 9.2899 18.8247 9.0511 18.8089L8.90625 18.7735C9.20769 18.5846 9.57568 18.6239 9.91627 18.62C9.92018 18.1477 9.88495 17.6793 9.85755 17.2148Z" fill="#F09923"/>
<path d="M7.25391 18.996C7.50054 18.8189 7.755 18.6496 8.04078 18.5394C8.08776 18.5276 8.1778 18.5079 8.22478 18.4922C8.44792 18.5906 8.66714 18.7008 8.90595 18.7716L9.05079 18.8071C9.02339 18.8582 8.96858 18.9606 8.94509 19.0157C8.37745 19.0432 7.81764 18.9803 7.25391 18.996Z" fill="#F3F3E1"/>
<path d="M9.05163 18.8125C9.28652 18.8282 9.52533 18.8282 9.76413 18.8401L9.8894 18.844L9.9168 18.9896C9.92855 19.2769 9.91288 19.5643 9.91288 19.8516C9.51749 19.8201 9.11818 19.7965 8.73062 19.7217C8.11208 19.6194 7.50529 19.3911 6.87109 19.4265C7.00028 19.2848 7.12556 19.1392 7.25866 18.9975C7.82239 18.9778 8.3822 19.0408 8.94593 19.0172C8.96942 18.966 9.02423 18.8637 9.05163 18.8125Z" fill="#FBC124"/>
<path d="M9.91017 18.986C10.6227 18.9742 11.3195 18.7734 12.032 18.7734C12.4039 18.7734 12.6779 19.0608 12.9246 19.2969C11.9654 19.663 10.9241 19.8165 9.90234 19.848C9.91017 19.5646 9.92192 19.2733 9.91017 18.986Z" fill="#CA7A1F"/>
<path d="M6.86719 19.4256C7.50138 19.3901 8.10818 19.6184 8.72671 19.7208C8.46442 19.7798 8.31565 20.012 8.12383 20.1734C7.70495 20.2679 7.28998 20.0829 6.89459 19.9648C6.88284 19.7877 6.8711 19.6066 6.86719 19.4256Z" fill="#D88836"/>
<path d="M8.12378 20.1753C8.31561 20.0139 8.46438 19.7817 8.72667 19.7227C9.11815 19.7974 9.51354 19.8211 9.90893 19.8525C9.9011 20.0769 9.89327 20.3013 9.88936 20.5256C9.50571 20.5177 9.11423 20.4862 8.75407 20.6476C8.13162 20.6201 7.56789 20.3209 6.95327 20.2461C6.93761 20.1753 6.90628 20.0375 6.89062 19.9667C7.28993 20.0848 7.7049 20.2698 8.12378 20.1753Z" fill="#AF6738"/>
<path d="M9.90486 19.8518C10.9266 19.8203 11.964 19.6668 12.9271 19.3008C13.021 19.5527 13.0641 19.8203 13.1111 20.084C13.1189 20.1273 13.1346 20.2061 13.1424 20.2494C13.7296 20.273 14.3247 20.2061 14.908 20.3045C14.7396 20.4225 14.5321 20.3714 14.3442 20.3674C13.8588 20.332 13.3734 20.3556 12.8918 20.3714C12.8958 20.4619 12.8997 20.5524 12.9075 20.643C12.61 20.7059 12.3164 20.7847 12.0228 20.8673C10.9344 20.8004 9.84222 20.7768 8.75391 20.6508C9.11015 20.4895 9.50555 20.5209 9.8892 20.5288C9.89311 20.3005 9.89703 20.0762 9.90486 19.8518Z" fill="#8C5234"/>
<path d="M4.91624 20.2422C5.59741 20.2501 6.27467 20.2619 6.95584 20.2461C7.56655 20.3209 8.13419 20.62 8.75664 20.6476C9.84104 20.7775 10.9333 20.8011 12.0255 20.8641C11.3326 20.9782 10.6279 21.0018 9.92717 20.994C8.42781 20.9152 6.92844 20.9271 5.42907 20.9664C5.36252 21.2577 5.30381 21.5489 5.26074 21.8402C5.13547 22.6195 4.97888 23.391 4.84969 24.1703C4.81837 24.3435 4.79096 24.5167 4.7753 24.6938C4.77139 24.7607 4.77139 24.8985 4.76748 24.9654V25.0284C4.4817 25.0205 4.19983 25.0205 3.91797 25.0284C4.10196 24.5324 4.14894 24.0011 4.26638 23.4894C4.46604 22.4031 4.71267 21.3246 4.91624 20.2422Z" fill="#F9E9B3"/>
<path d="M14.9089 20.3008C15.0302 21.1431 15.2181 21.9736 15.4178 22.8001C15.5744 23.5637 15.7858 24.3076 15.9424 25.0712C12.2155 25.0594 8.4886 25.0437 4.76172 25.0279V24.9649C6.46465 24.9768 8.16759 24.9964 9.87052 24.9571C9.92924 24.8744 9.98796 24.7957 10.0467 24.713C11.5735 24.6422 13.1002 24.5792 14.627 24.5635C14.6309 24.2329 14.6231 23.9062 14.5644 23.5795C14.4743 22.9497 14.3451 22.3278 14.169 21.7177C14.2159 21.6784 14.306 21.5997 14.353 21.5603C14.2433 21.3241 14.1651 21.0329 13.9302 20.8872C13.2921 20.8361 12.6539 20.8754 12.0158 20.8676C12.3094 20.7849 12.5991 20.7062 12.9006 20.6432C12.8927 20.5527 12.8888 20.4622 12.8849 20.3716C13.3703 20.3559 13.8558 20.3323 14.3373 20.3677C14.533 20.3638 14.7405 20.4189 14.9089 20.3008Z" fill="#824E38"/>
<path d="M12.0202 20.8626C12.6583 20.8704 13.3003 20.8311 13.9345 20.8822C14.1694 21.0279 14.2477 21.3152 14.3573 21.5553C12.8854 21.6183 11.4134 21.7049 9.93754 21.6813C9.93363 21.453 9.9258 21.2207 9.91797 20.9925C10.6226 21.0003 11.3273 20.9767 12.0202 20.8626Z" fill="#CE9061"/>
<path d="M5.42615 20.9666C6.92552 20.9312 8.42488 20.9155 9.92424 20.9942C9.93207 21.2225 9.9399 21.4547 9.94381 21.683V21.7696C9.07082 21.7302 8.1939 21.7617 7.32091 21.746C7.06644 21.7342 6.8159 21.7932 6.56927 21.8641C6.50663 21.8641 6.38527 21.868 6.32263 21.8719C5.96639 21.8483 5.61406 21.8208 5.25781 21.8444C5.30088 21.5492 5.35568 21.254 5.42615 20.9666Z" fill="#F5B359"/>
<path d="M9.94141 21.6806C11.4173 21.7043 12.8892 21.6177 14.3612 21.5547C14.3142 21.594 14.2242 21.6728 14.1772 21.7121C14.3534 22.3222 14.4786 22.9441 14.5726 23.5739C14.2712 23.5699 13.9697 23.6014 13.6722 23.5502C13.4686 23.3849 13.2611 23.1566 12.9715 23.2196C12.6935 23.2314 12.6935 23.566 12.6035 23.7628C11.7148 23.7667 10.8379 23.936 9.94923 23.8809C9.94532 23.1763 9.95314 22.4718 9.94532 21.7672L9.94141 21.6806Z" fill="#B6754F"/>
<path d="M5.25871 21.8421C5.61496 21.8224 5.96728 21.85 6.32353 21.8696C6.1826 22.0743 5.90465 22.279 6.04167 22.5545C6.16694 22.7907 6.41357 22.9402 6.65629 23.0347C7.0047 23.1095 7.35312 22.9875 7.69371 22.9324C7.76809 22.6411 7.7955 22.279 7.51363 22.0861C7.22785 21.9248 6.87943 21.9405 6.56625 21.8618C6.80896 21.7909 7.05952 21.7319 7.31789 21.7437C8.19089 21.7594 9.0678 21.728 9.9408 21.7673C9.94863 22.4719 9.93688 23.1764 9.94471 23.881V23.9912C8.24569 24.0345 6.55059 24.188 4.84766 24.1683C4.97293 23.3929 5.12952 22.6214 5.25871 21.8421ZM8.35139 23.6684C8.51581 23.8573 8.79768 23.7747 9.01691 23.7786C9.0678 23.6212 9.1735 23.4322 9.0404 23.2827C8.79377 23.0268 8.21438 23.2866 8.35139 23.6684Z" fill="#E89F4A"/>
<path d="M6.32064 21.8712C6.38328 21.8712 6.50464 21.8672 6.56727 21.8633C6.88046 21.942 7.22887 21.9263 7.51465 22.0876C7.79651 22.2766 7.77303 22.6387 7.69473 22.9339C7.35415 22.989 7.00182 23.111 6.65731 23.0362C6.4146 22.9417 6.16405 22.7922 6.04269 22.556C5.90176 22.2766 6.17971 22.0719 6.32064 21.8712Z" fill="#CF8A4C"/>
<path d="M8.34881 23.6677C8.21179 23.2859 8.79118 23.0261 9.03782 23.282C9.17092 23.4315 9.06522 23.6205 9.01432 23.7779C8.7951 23.774 8.51323 23.8566 8.34881 23.6677Z" fill="#CE8B4B"/>
<path d="M12.9632 23.2215C13.2529 23.1585 13.4604 23.3908 13.664 23.5521C13.9615 23.6033 14.2629 23.5757 14.5644 23.5757C14.6192 23.8985 14.6309 24.2291 14.627 24.5598C13.1002 24.5794 11.5735 24.6385 10.0467 24.7093C9.98796 24.792 9.92533 24.8707 9.87052 24.9534C8.16759 24.9927 6.46465 24.973 4.76172 24.9612C4.76563 24.8943 4.76564 24.7566 4.76956 24.6896C6.48815 24.7211 8.20673 24.729 9.92924 24.7172C9.93316 24.4732 9.94099 24.2331 9.94099 23.993V23.8828C10.8296 23.9379 11.7066 23.7686 12.5952 23.7647C12.6853 23.5679 12.6853 23.2333 12.9632 23.2215Z" fill="#A56444"/>
<path d="M4.84391 24.1693C6.54293 24.189 8.24194 24.0355 9.94096 23.9922C9.93705 24.2323 9.93313 24.4763 9.92922 24.7164C8.21062 24.7282 6.48812 24.7243 4.76953 24.6889C4.78519 24.5157 4.8165 24.3425 4.84391 24.1693Z" fill="#D58841"/>
</svg>
