<svg width="57" height="62" viewBox="0 0 57 62" fill="none" xmlns="http://www.w3.org/2000/svg">
<g id="Group">
<path id="Vector" d="M27.4648 0.879391C30.103 5.00871 31.0588 5.77339 32.397 5.08517C33.7352 4.43519 34.997 0 34.997 0C34.997 0 36.0675 6.61455 39.6233 7.95275C43.1409 9.29096 51.5907 9.82624 51.5907 9.82624C51.5907 9.82624 40.8851 11.3556 39.9674 13.382C39.0116 15.4085 40.7704 20.6466 40.7704 20.6466C40.7704 20.6466 36.0293 12.5026 30.4471 16.5173C30.4471 16.5173 30.9823 10.2086 22.9531 9.32919C22.9531 9.32919 26.5854 9.13802 27.4648 6.61455C28.3442 4.09108 27.4648 0.879391 27.4648 0.879391Z" fill="url(#paint0_linear_1028_51412)"/>
<path id="Vector_2" opacity="0.64" d="M31.1717 6.15602C33.9628 8.75595 34.9569 5.96484 34.9569 5.96484C34.9569 5.96484 35.7599 10.1706 42.642 10.1706C42.642 10.1706 35.9128 10.3618 37.0981 14.9117C37.0981 14.9117 33.3511 12.1588 32.9305 13.5353C32.9305 13.5353 31.6688 10.0559 28.1895 9.67358C28.1895 9.67358 29.5277 9.29124 30.2159 8.56478C31.5541 7.07364 31.1717 6.15602 31.1717 6.15602Z" fill="#FF6934"/>
<path id="Vector_3" d="M15.3449 21.7555C2.00108 25.5407 -1.32531 34.8699 0.433475 41.5992C2.65107 50.1255 10.1832 60.0664 30.8298 61.0987C54.1528 62.284 58.1674 44.4285 55.491 35.8258C52.8528 27.2613 37.3679 15.4851 15.3449 21.7555Z" fill="url(#paint1_linear_1028_51412)"/>
<path id="Vector_4" d="M41.5749 26.4994C41.5749 26.4994 38.1338 30.0934 28.7664 30.0934C19.3989 30.0934 14.5814 26.5759 14.1608 26.0406C13.7403 25.5435 15.1167 21.0701 15.6137 19.426C15.652 19.3113 15.6902 19.1966 15.7667 19.0819C16.5696 17.9349 19.896 17.132 28.0782 17.7055C34.6162 18.1643 39.472 21.0701 39.8161 21.5672C40.1984 22.1024 41.5749 26.4994 41.5749 26.4994Z" fill="#62006B"/>
<path id="Vector_5" opacity="0.3" d="M39.8533 21.6023C37.2916 28.5227 21.7302 26.3051 15.7656 19.1171C16.5685 17.97 19.8949 17.1671 28.0771 17.7406C34.6534 18.1612 39.5092 21.067 39.8533 21.6023Z" fill="white"/>
<path id="Vector_6" opacity="0.5" d="M20.428 19.995C24.4809 22.8626 35.5688 21.8303 34.6894 21.1803C32.2807 19.3833 19.1281 19.0774 20.428 19.995Z" fill="#912774"/>
<path id="Vector_7" opacity="0.5" d="M38.055 22.7106C33.2375 21.9459 22.5701 22.443 23.2583 23.8194C23.9466 25.1958 30.4082 26.1899 33.9257 25.6164C37.4433 25.0429 39.8138 22.9782 38.055 22.7106Z" fill="white"/>
<path id="Vector_8" d="M34.1147 13.2662C34.1147 13.2662 34.1147 15.4838 31.4765 16.0573C31.4765 16.0573 32.6235 18.3896 30.4442 20.416C30.4442 20.416 31.0559 20.6837 30.9412 21.8307C30.9412 21.8307 27.3089 22.1366 24.7855 21.4866C24.7855 21.4866 23.9061 20.9131 23.4473 19.8043C23.2179 19.269 23.0649 18.5808 23.1796 17.7778C23.3326 16.822 24.4796 16.172 25.0531 15.9044C25.0531 15.9044 24.8237 15.4073 24.709 14.7573C24.5561 13.9926 24.5178 12.9985 25.0914 12.1956C25.7031 11.278 26.4296 10.9721 26.9266 10.8574C27.309 10.7809 27.5383 10.8192 27.5383 10.8192C27.5383 10.8192 27.1942 9.90156 27.4237 9.0604C27.5384 8.71629 27.7295 8.33395 28.1119 8.06631C28.8001 7.56926 29.5265 7.45456 30.0236 7.49279C30.4059 7.53103 30.6353 7.60749 30.6353 7.60749C30.6353 7.60749 30.7883 7.41632 31.2089 7.26338C31.4383 7.18692 31.7824 7.11045 32.2412 7.07221C33.3882 7.03398 35.1088 7.56926 35.797 8.98393C35.8734 9.13687 35.9117 9.28981 35.9882 9.48098C36.4087 11.278 35.2617 12.9221 34.1147 13.2662Z" fill="url(#paint2_linear_1028_51412)"/>
<path id="Vector_9" opacity="0.5" d="M20.8104 30.0882C15.0752 34.0646 17.1016 51.5377 31.6307 55.3229C39.0099 57.2346 53.5772 52.4553 54.6096 41.5967C55.6419 30.7382 45.2039 24.9265 39.5452 28.3676C32.3189 32.7646 23.4868 28.2912 20.8104 30.0882Z" fill="white"/>
<path id="Vector_10" opacity="0.5" d="M3.68135 30.1294C-3.00967 37.2027 1.7314 51.8083 16.7575 58.2316C31.7836 64.655 51.742 59.1875 54.1125 48.5966C54.9537 44.8114 39.354 65.1138 22.5691 50.6612C5.82247 36.2086 8.80476 24.7383 3.68135 30.1294Z" fill="#912774"/>
<path id="Vector_11" opacity="0.3" d="M11.5616 51.5796C11.0646 47.4121 5.59705 23.7832 1.73538 32.9977C-1.82042 41.4475 2.5383 48.4826 7.12642 52.3443C9.7646 54.5619 12.0587 55.6707 11.5616 51.5796Z" fill="white"/>
<path id="Vector_12" d="M49.9064 55.6679C52.6975 51.4621 40.5007 57.7707 36.0656 58.5737C22.607 60.9824 14.6543 57.6943 14.6543 57.6943C14.6543 57.6943 25.3982 62.3206 36.4097 60.9824C45.2418 59.8736 49.4858 56.3178 49.9064 55.6679Z" fill="#A2FFFF"/>
<path id="Vector_13" d="M11.4068 23.168C0.0129233 37.9264 6.28336 48.7085 4.40988 47.9439C2.53639 47.1792 -1.93703 39.0735 1.31289 32.3825C4.63928 25.5385 11.4068 23.168 11.4068 23.168Z" fill="#FFA5FF"/>
<path id="Vector_14" opacity="0.3" d="M34.1166 13.2684C34.1166 13.2684 34.1166 15.486 31.4784 16.0595C31.4784 16.0595 32.6255 18.3918 30.4461 20.4183C30.4461 20.4183 31.0579 20.6859 30.9432 21.8329C30.9432 21.8329 27.3109 22.1388 24.7874 21.4888C24.7874 21.4888 23.908 20.9153 23.4492 19.8065C27.005 21.4506 29.2226 21.3741 29.2608 20.6477C29.2991 19.9212 26.3933 16.4801 25.0551 15.8684C25.0551 15.8684 24.8257 15.3713 24.7109 14.7213C24.7874 14.7978 27.1197 17.2448 28.5344 18.6212C29.9873 20.0359 31.5549 18.3154 31.3637 17.1301C31.2108 15.9448 29.4903 11.5479 26.8903 10.8214C27.2727 10.745 27.5021 10.7832 27.5021 10.7832C27.5021 10.7832 27.1579 9.86556 27.3874 9.02441L27.5021 9.10088C27.5021 9.10088 29.8344 14.1478 31.1726 14.9125C32.5108 15.6772 33.9637 13.4978 33.5049 11.7773C33.046 10.0567 31.4784 8.14502 29.9873 7.49503C30.3696 7.53327 30.599 7.60973 30.599 7.60973C30.599 7.60973 30.752 7.41856 31.1726 7.26562C31.1726 7.26562 33.5049 11.4332 34.4225 11.9302C35.3019 12.389 35.8754 10.3626 35.7607 9.02441C35.8372 9.17734 35.8754 9.33028 35.9519 9.52145C36.4107 11.2802 35.2636 12.9243 34.1166 13.2684Z" fill="#A42F55"/>
<path id="Vector_15" opacity="0.5" d="M37.5194 32.2706C41.4193 44.4292 52.3926 34.7176 47.575 32.2706C42.7957 29.7854 36.8312 30.0913 37.5194 32.2706Z" fill="white"/>
<path id="Vector_16" opacity="0.8" d="M14.2764 24.3555C12.3647 25.0819 11.0647 25.9613 10.7588 26.4201C10.4912 26.8407 14.4293 29.3259 23.7203 30.1289C35.7641 31.123 42.4169 26.6878 42.6463 26.229C42.8757 25.7701 41.3081 25.6172 41.3081 25.6172L41.4611 26.1907C41.4611 26.1907 35.2288 30.6641 27.3526 29.8612C19.4763 29.0583 14.1235 26.2672 14.0852 25.8466C14.0088 25.3496 14.2764 24.3555 14.2764 24.3555Z" fill="#6D2F55"/>
<path id="Vector_17" opacity="0.5" d="M14.349 25.5394C15.5725 26.457 22.5694 29.6305 25.1311 28.9805C27.6928 28.3305 23.4106 24.9277 20.6195 23.3601C17.8283 21.7924 16.1843 20.1484 15.4578 21.2572C14.7696 22.3277 13.7755 25.1188 14.349 25.5394Z" fill="#BE5286"/>
<path id="Vector_18" opacity="0.3" d="M26.662 25.8081C24.3679 25.4257 26.9679 29.2492 28.1149 29.5933C29.2619 29.9374 33.506 29.211 34.3089 28.7904C35.1118 28.3698 35.1118 25.6552 34.7677 25.8081C34.4236 25.961 28.5355 26.114 26.662 25.8081Z" fill="#FFFEE0"/>
<path id="Vector_19" d="M21.8828 23.5895C21.8828 23.5895 25.5916 26.5335 31.6708 26.2277C37.7501 25.96 39.3177 22.6719 39.3177 22.6719C39.3177 22.6719 37.0619 25.3865 31.5561 25.31C26.0504 25.2718 21.8828 23.5895 21.8828 23.5895Z" fill="#B12FB1"/>
<path id="Vector_20" opacity="0.3" d="M29.9912 20.2242C26.5883 16.8214 30.2206 14.4509 30.947 15.5214C31.6735 16.592 31.9029 17.7008 31.2911 18.8478C30.6794 19.9948 30.3353 20.5301 29.9912 20.2242Z" fill="#A42F55"/>
<path id="Vector_21" opacity="0.3" d="M30.3739 21.6784C29.2651 19.9961 24.2564 19.7284 24.3329 20.4931C24.4476 21.2578 26.5887 21.7931 28.4622 21.8695C30.3357 21.9078 30.5651 21.946 30.3739 21.6784Z" fill="#A42F55"/>
<path id="Vector_22" opacity="0.3" d="M32.5851 10.3242C30.7116 10.3242 29.8705 15.4859 31.5146 15.677C33.1586 15.8682 33.9616 13.6888 33.8851 12.8477C33.8086 12.0065 33.1969 10.3242 32.5851 10.3242Z" fill="#A42F55"/>
<path id="Vector_23" opacity="0.5" d="M25.0191 14.1858C25.5161 17.5505 30.0278 13.9182 28.5749 12.5418C27.122 11.0888 24.5603 10.9741 25.0191 14.1858Z" fill="white"/>
<path id="Vector_24" opacity="0.5" d="M28.1172 8.71859C27.9642 12.4273 32.3612 10.5538 31.8259 9.44504C31.2906 8.33624 28.1937 6.65393 28.1172 8.71859Z" fill="white"/>
<path id="Vector_25" opacity="0.5" d="M23.6809 18.8898C26.9691 21.1456 27.5426 17.3986 25.7838 16.7869C23.9868 16.1369 22.3045 17.9339 23.6809 18.8898Z" fill="white"/>
</g>
<defs>
<linearGradient id="paint0_linear_1028_51412" x1="22.9803" y1="10.332" x2="51.5989" y2="10.332" gradientUnits="userSpaceOnUse">
<stop stop-color="#D31326"/>
<stop offset="1" stop-color="#ED2425"/>
</linearGradient>
<linearGradient id="paint1_linear_1028_51412" x1="28.1163" y1="61.2011" x2="28.1163" y2="19.9979" gradientUnits="userSpaceOnUse">
<stop stop-color="#1D0066"/>
<stop offset="1" stop-color="#A31C7F"/>
</linearGradient>
<linearGradient id="paint2_linear_1028_51412" x1="29.6071" y1="21.9441" x2="29.6071" y2="7.08823" gradientUnits="userSpaceOnUse">
<stop stop-color="#FF7900"/>
<stop offset="1" stop-color="#FFA900"/>
</linearGradient>
</defs>
</svg>
