<svg width="134" height="45" viewBox="0 0 134 45" fill="none" xmlns="http://www.w3.org/2000/svg">
<g id="Group 144497" opacity="0.16">
<g id="Group 144492">
<rect id="Rectangle 424" y="9.20703" width="41" height="20" rx="10" transform="rotate(-12.9783 0 9.20703)" fill="#FF7347"/>
<g id="Vector">
<path d="M36.0054 12.9183C35.8332 13.9223 35.3269 14.8386 34.5686 15.5188C33.8103 16.1989 32.8444 16.6029 31.8277 16.6653C30.811 16.7277 29.803 16.4448 28.9673 15.8625C28.1315 15.2802 27.5169 14.4327 27.2233 13.4573C26.9296 12.4819 26.974 11.4359 27.3494 10.489C27.7247 9.54203 28.409 8.74964 29.2911 8.24032C30.1733 7.731 31.2016 7.53461 32.2093 7.68302C33.2171 7.83142 34.1452 8.31591 34.8431 9.05791L31.5509 12.1543L36.0054 12.9183Z" fill="white"/>
<path d="M36.9641 7.86474C35.8853 6.50427 34.3394 5.59326 32.6266 5.30865C30.9138 5.02404 29.1564 5.38613 27.6956 6.32461C26.2348 7.26309 25.1749 8.71097 24.7218 10.3871C24.2687 12.0632 24.4546 13.8479 25.2435 15.3946C26.0324 16.9413 27.368 18.1396 28.9909 18.7568C30.6138 19.374 32.4081 19.366 34.0254 18.7344C35.6428 18.1028 36.9677 16.8927 37.7428 15.3391C38.518 13.7855 38.6713 11.9264 38.2033 10.2544L36.835 10.5698C36.531 10.6398 33.6223 11.3102 33.6223 11.3102C33.6223 11.3102 36.7226 12.0194 37.0514 12.0946C37.0644 13.003 36.8787 13.9223 36.485 14.7115C35.8655 15.9531 34.8066 16.9202 33.5141 17.425C32.2216 17.9297 30.7876 17.936 29.4906 17.4428C28.1936 16.9496 27.1263 15.9919 26.4958 14.7558C25.8653 13.5197 25.7167 12.0935 26.0788 10.754C26.441 9.41445 27.288 8.25734 28.4554 7.50733C29.6229 6.75732 31.0274 6.46794 32.3962 6.6954C33.765 6.92286 35.0549 7.73099 35.917 8.81825L36.9641 7.86474Z" fill="white"/>
</g>
<path id="+" d="M19.5121 13.7218L20.01 15.8822L10.2655 18.128L9.76756 15.9676L19.5121 13.7218ZM15.0303 10.8726L17.2761 20.6171L14.8058 21.1864L12.56 11.4419L15.0303 10.8726Z" fill="white"/>
</g>
<g id="Group 144493">
<rect id="Rectangle 424_2" x="40.8867" y="28.3477" width="24.7545" height="12.0754" rx="6.03769" transform="rotate(10.3325 40.8867 28.3477)" fill="#FF7347"/>
<g id="Vector_2">
<path d="M59.9639 39.0089C59.6285 39.5245 59.1288 39.9116 58.5459 40.1076C57.9629 40.3035 57.3308 40.2968 56.7522 40.0885C56.1735 39.8802 55.6822 39.4825 55.3579 38.9599C55.0336 38.4373 54.8954 37.8205 54.9656 37.2096C55.0358 36.5986 55.3103 36.0292 55.7447 35.5938C56.179 35.1584 56.7478 34.8825 57.3586 34.8109C57.9694 34.7392 58.5865 34.876 59.1099 35.1991C59.6332 35.5222 60.032 36.0125 60.2417 36.5907L57.6765 37.521L59.9639 39.0089Z" fill="white"/>
<path d="M61.7029 36.4359C61.4298 35.4238 60.7902 34.5493 59.9085 33.9822C59.0268 33.4152 57.9658 33.1961 56.9316 33.3674C55.8974 33.5388 54.9638 34.0884 54.3121 34.9095C53.6604 35.7306 53.3371 36.7646 53.405 37.8107C53.4729 38.8568 53.9271 39.8404 54.6795 40.5704C55.4319 41.3003 56.4288 41.7246 57.4764 41.7608C58.5241 41.7971 59.5479 41.4426 60.3489 40.7664C61.1499 40.0901 61.6791 39.0959 61.8191 38.057L60.985 37.9049C60.7997 37.8711 59.0267 37.5479 59.0267 37.5479C59.0267 37.5479 60.5763 38.6819 60.7407 38.8021C60.5309 39.3089 60.2082 39.7743 59.8014 40.1178C59.1612 40.6583 58.343 40.9415 57.5058 40.9126C56.6685 40.8836 55.8718 40.5446 55.2705 39.9612C54.6692 39.3778 54.3062 38.5918 54.2519 37.7558C54.1977 36.9197 54.456 36.0934 54.9769 35.4372C55.4977 34.781 56.2438 34.3417 57.0704 34.2048C57.8969 34.0678 58.7448 34.243 59.4494 34.6961C60.1541 35.1493 60.6762 35.9056 60.8945 36.7144L61.7029 36.4359Z" fill="white"/>
</g>
<path id="+_2" d="M50.6278 35.5135L50.3877 36.8304L44.4479 35.7475L44.688 34.4306L50.6278 35.5135ZM48.8234 32.8629L47.7405 38.8026L46.2347 38.5281L47.3176 32.5883L48.8234 32.8629Z" fill="white"/>
</g>
<g id="Group 144494">
<rect id="Rectangle 424_3" x="76.7227" y="16.457" width="16.785" height="8.18783" rx="4.09391" transform="rotate(-21.3454 76.7227 16.457)" fill="#FF7347"/>
<g id="Vector_3">
<path d="M91.5269 15.8175C91.517 16.2344 91.3665 16.6357 91.0999 16.9564C90.8333 17.277 90.4661 17.4982 90.0581 17.584C89.65 17.6699 89.2249 17.6153 88.8517 17.4293C88.4784 17.2432 88.179 16.9365 88.002 16.559C87.8249 16.1814 87.7806 15.7551 87.8762 15.3492C87.9718 14.9433 88.2018 14.5816 88.5287 14.3227C88.8557 14.0639 89.2605 13.9231 89.6775 13.9232C90.0945 13.9232 90.4993 14.0642 90.8262 14.3231L89.6772 15.7734L91.5269 15.8175Z" fill="white"/>
<path d="M91.6142 13.7135C91.0962 13.2267 90.4158 12.9498 89.7051 12.9366C88.9944 12.9234 88.3042 13.1747 87.7684 13.6419C87.2326 14.109 86.8896 14.7586 86.8059 15.4644C86.7222 16.1703 86.9038 16.8821 87.3155 17.4616C87.7272 18.041 88.3395 18.4468 89.0336 18.6001C89.7277 18.7534 90.454 18.6433 91.0715 18.2912C91.6889 17.939 92.1535 17.3699 92.3749 16.6945C92.5963 16.019 92.5476 15.2569 92.2585 14.6076L91.723 14.8168C91.6041 14.8633 90.4659 15.3081 90.4659 15.3081C90.4659 15.3081 91.7639 15.4107 91.9015 15.4216C91.9609 15.7887 91.9405 16.1721 91.828 16.5152C91.651 17.055 91.2798 17.5098 90.7863 17.7912C90.2929 18.0727 89.7125 18.1607 89.1578 18.0382C88.6031 17.9156 88.1137 17.5914 87.7847 17.1283C87.4557 16.6652 87.3105 16.0963 87.3774 15.5322C87.4443 14.9681 87.7184 14.449 88.1466 14.0756C88.5748 13.7023 89.1264 13.5014 89.6944 13.512C90.2623 13.5226 90.8329 13.7731 91.2469 14.1621L91.6142 13.7135Z" fill="white"/>
</g>
<path id="+_3" d="M84.8944 17.1242L85.2247 17.9696L81.4117 19.4597L81.0813 18.6144L84.8944 17.1242ZM82.9094 16.2372L84.3995 20.0503L83.4328 20.428L81.9427 16.6149L82.9094 16.2372Z" fill="white"/>
</g>
<g id="Group 144495">
<rect id="Rectangle 424_4" x="99.0312" y="38.2969" width="13.0357" height="6.35886" rx="3.17943" transform="rotate(-10.6681 99.0312 38.2969)" fill="#FF7347"/>
<g id="Vector_4">
<path d="M110.423 39.9397C110.355 40.2565 110.182 40.5411 109.933 40.7474C109.683 40.9538 109.371 41.0697 109.047 41.0765C108.724 41.0833 108.407 40.9805 108.149 40.7848C107.891 40.5891 107.706 40.312 107.626 39.9984C107.545 39.6848 107.572 39.353 107.704 39.057C107.835 38.761 108.063 38.518 108.349 38.3675C108.636 38.217 108.965 38.1678 109.284 38.2279C109.602 38.2879 109.891 38.4538 110.103 38.6984L109.017 39.6399L110.423 39.9397Z" fill="white"/>
<path d="M110.792 38.3466C110.467 37.9005 109.987 37.5913 109.447 37.4789C108.906 37.3666 108.343 37.4591 107.867 37.7385C107.391 38.0179 107.036 38.4643 106.87 38.991C106.705 39.5176 106.741 40.087 106.972 40.5885C107.203 41.0899 107.612 41.4877 108.119 41.7046C108.627 41.9215 109.197 41.9419 109.719 41.762C110.241 41.5821 110.677 41.2147 110.943 40.731C111.21 40.2474 111.282 39.6588 111.155 39.1216L110.716 39.2042C110.619 39.2226 109.686 39.3983 109.686 39.3983C109.686 39.3983 110.662 39.6633 110.765 39.6914C110.758 39.9802 110.687 40.2699 110.552 40.5155C110.339 40.902 109.99 41.1957 109.573 41.3395C109.156 41.4833 108.701 41.4669 108.295 41.2936C107.889 41.1203 107.562 40.8023 107.378 40.4016C107.193 40.0008 107.165 39.5458 107.297 39.1249C107.429 38.704 107.713 38.3473 108.093 38.124C108.474 37.9007 108.924 37.8267 109.356 37.9165C109.788 38.0063 110.187 38.2796 110.447 38.6361L110.792 38.3466Z" fill="white"/>
</g>
<path id="+_4" d="M105.171 39.984L105.302 40.6767L102.177 41.2653L102.047 40.5726L105.171 39.984ZM103.784 39.0214L104.373 42.1459L103.581 42.2951L102.992 39.1706L103.784 39.0214Z" fill="white"/>
</g>
<g id="Group 144496">
<rect id="Rectangle 424_5" x="121.199" y="6.45312" width="13.0357" height="6.35886" rx="3.17943" transform="rotate(16.0456 121.199 6.45312)" fill="#FF7347"/>
<g id="Vector_5">
<path d="M130.636 13.0387C130.434 13.2913 130.151 13.4679 129.836 13.54C129.52 13.6121 129.189 13.5755 128.897 13.436C128.605 13.2965 128.368 13.0624 128.225 12.7716C128.083 12.4807 128.043 12.1503 128.112 11.8338C128.18 11.5174 128.354 11.2334 128.605 11.0281C128.855 10.8227 129.167 10.7079 129.491 10.7024C129.815 10.6969 130.131 10.8009 130.389 10.9976C130.646 11.1944 130.829 11.4722 130.909 11.7861L129.516 12.1392L130.636 13.0387Z" fill="white"/>
<path d="M131.682 11.7816C131.592 11.237 131.303 10.7452 130.871 10.4019C130.439 10.0586 129.894 9.88813 129.343 9.92371C128.792 9.95928 128.274 10.1983 127.89 10.5944C127.505 10.9905 127.282 11.5153 127.262 12.067C127.243 12.6187 127.43 13.1579 127.786 13.5798C128.142 14.0018 128.642 14.2763 129.189 14.3502C129.736 14.4241 130.291 14.2921 130.746 13.9797C131.201 13.6674 131.531 13.1742 131.658 12.6371L131.229 12.5137C131.134 12.4863 130.222 12.224 130.222 12.224C130.222 12.224 130.974 12.8994 131.054 12.9711C130.918 13.2256 130.724 13.4525 130.493 13.6112C130.129 13.8608 129.686 13.9664 129.249 13.9073C128.811 13.8483 128.412 13.6288 128.127 13.2916C127.843 12.9544 127.694 12.5235 127.709 12.0826C127.724 11.6417 127.903 11.2223 128.21 10.9057C128.518 10.5892 128.932 10.3982 129.372 10.3697C129.812 10.3413 130.247 10.4775 130.593 10.7519C130.938 11.0263 131.172 11.4499 131.244 11.8852L131.682 11.7816Z" fill="white"/>
</g>
<path id="+_5" d="M125.926 10.7183L125.731 11.3957L122.676 10.5169L122.871 9.83952L125.926 10.7183ZM125.12 9.23482L124.241 12.2904L123.466 12.0676L124.345 9.01204L125.12 9.23482Z" fill="white"/>
</g>
</g>
</svg>
