<svg width="518" height="218" viewBox="0 0 518 218" fill="none" xmlns="http://www.w3.org/2000/svg">
<path d="M39.982 163.911C39.888 158.693 39.272 153.417 38.261 148.091C37.438 144.391 34.476 141.095 29.7431 140.854C26.2492 140.71 25.5736 142.701 21.6149 142.662C20.5307 142.655 19.4473 142.655 18.3632 142.662C14.4037 142.701 13.7265 140.71 10.2342 140.854C5.50069 141.095 2.44649 144.382 1.71309 148.091C0.701489 153.417 0.0851947 158.692 -0.00770528 163.91C-0.0304053 167.543 3.5565 169.96 5.9232 170.125C10.4951 170.471 14.1272 162.409 16.8947 162.408C18.9576 162.42 21.0197 162.42 23.0826 162.408C25.8509 162.408 29.4799 170.471 34.055 170.126C36.421 169.961 40.1 167.527 39.982 163.911ZM14.9036 153.73H12.7712V155.862C12.7712 156.762 12.0417 157.492 11.1418 157.492C10.242 157.492 9.51239 156.762 9.51239 155.862V153.73H7.37999C6.48019 153.73 5.7506 153 5.7506 152.1C5.7506 151.201 6.48019 150.471 7.37999 150.471H9.51239V148.339C9.51239 147.439 10.242 146.709 11.1418 146.709C12.0417 146.709 12.7712 147.439 12.7712 148.339V150.471H14.9036C15.8035 150.471 16.533 151.201 16.533 152.1C16.533 153 15.8035 153.73 14.9036 153.73ZM28.0708 157.491C26.7952 157.525 25.7345 156.518 25.7001 155.243C25.6665 153.963 26.6749 152.901 27.9497 152.868C29.226 152.836 30.2883 153.843 30.3211 155.119C30.3532 156.396 29.3463 157.458 28.0708 157.491ZM31.9177 151.332C30.6422 151.368 29.5791 150.359 29.5439 149.084C29.5119 147.806 30.5187 146.745 31.7951 146.71C33.073 146.676 34.134 147.685 34.168 148.961C34.202 150.237 33.1925 151.3 31.9177 151.332Z" fill="#3A3731"/>
<path d="M126.978 163.911C126.884 158.693 126.268 153.417 125.257 148.091C124.434 144.391 121.472 141.095 116.739 140.854C113.245 140.71 112.57 142.701 108.611 142.662C107.527 142.655 106.443 142.655 105.359 142.662C101.4 142.701 100.723 140.71 97.23 140.854C92.497 141.095 89.443 144.382 88.709 148.091C87.698 153.417 87.081 158.692 86.988 163.91C86.966 167.543 90.553 169.96 92.919 170.125C97.491 170.471 101.123 162.409 103.891 162.408C105.954 162.42 108.016 162.42 110.079 162.408C112.847 162.408 116.476 170.471 121.051 170.126C123.417 169.961 127.097 167.527 126.979 163.911H126.978ZM101.9 153.73H99.767V155.862C99.767 156.762 99.038 157.492 98.138 157.492C97.238 157.492 96.509 156.762 96.509 155.862V153.73H94.376C93.476 153.73 92.747 153 92.747 152.1C92.747 151.201 93.476 150.471 94.376 150.471H96.509V148.339C96.509 147.439 97.238 146.709 98.138 146.709C99.038 146.709 99.767 147.439 99.767 148.339V150.471H101.9C102.8 150.471 103.529 151.201 103.529 152.1C103.529 153 102.8 153.73 101.9 153.73ZM115.067 157.491C113.791 157.525 112.731 156.518 112.696 155.243C112.663 153.963 113.671 152.901 114.946 152.868C116.222 152.836 117.284 153.843 117.317 155.119C117.349 156.396 116.342 157.458 115.067 157.491ZM118.914 151.332C117.638 151.368 116.575 150.359 116.54 149.084C116.508 147.806 117.515 146.745 118.791 146.71C120.069 146.676 121.13 147.685 121.164 148.961C121.198 150.237 120.189 151.3 118.914 151.332Z" fill="#3A3731"/>
<path d="M213.974 163.911C213.88 158.693 213.264 153.417 212.253 148.091C211.43 144.391 208.468 141.095 203.735 140.854C200.241 140.71 199.566 142.701 195.607 142.662C194.523 142.655 193.44 142.655 192.355 142.662C188.396 142.701 187.719 140.71 184.226 140.854C179.493 141.095 176.439 144.382 175.705 148.091C174.694 153.417 174.077 158.692 173.984 163.91C173.962 167.543 177.549 169.96 179.915 170.125C184.487 170.471 188.119 162.409 190.887 162.408C192.95 162.42 195.012 162.42 197.075 162.408C199.843 162.408 203.472 170.471 208.047 170.126C210.413 169.961 214.093 167.527 213.975 163.911H213.974ZM188.896 153.73H186.763V155.862C186.763 156.762 186.034 157.492 185.134 157.492C184.234 157.492 183.505 156.762 183.505 155.862V153.73H181.372C180.472 153.73 179.743 153 179.743 152.1C179.743 151.201 180.472 150.471 181.372 150.471H183.505V148.339C183.505 147.439 184.234 146.709 185.134 146.709C186.034 146.709 186.763 147.439 186.763 148.339V150.471H188.896C189.796 150.471 190.525 151.201 190.525 152.1C190.525 153 189.796 153.73 188.896 153.73ZM202.063 157.491C200.787 157.525 199.727 156.518 199.692 155.243C199.659 153.963 200.667 152.901 201.942 152.868C203.218 152.836 204.281 153.843 204.313 155.119C204.345 156.396 203.338 157.458 202.063 157.491ZM205.91 151.332C204.634 151.368 203.571 150.359 203.536 149.084C203.504 147.806 204.511 146.745 205.787 146.71C207.065 146.676 208.126 147.685 208.16 148.961C208.194 150.237 207.185 151.3 205.91 151.332Z" fill="#3A3731"/>
<path d="M300.966 163.911C300.873 158.693 300.256 153.417 299.245 148.091C298.422 144.391 295.46 141.095 290.727 140.854C287.234 140.71 286.558 142.701 282.599 142.662C281.515 142.655 280.432 142.655 279.348 142.662C275.388 142.701 274.711 140.71 271.219 140.854C266.485 141.095 263.431 144.382 262.697 148.091C261.686 153.417 261.07 158.692 260.977 163.91C260.954 167.543 264.541 169.96 266.908 170.125C271.479 170.471 275.112 162.409 277.879 162.408C279.942 162.42 282.004 162.42 284.067 162.408C286.835 162.408 290.464 170.471 295.039 170.126C297.405 169.961 301.085 167.527 300.967 163.911H300.966ZM275.888 153.73H273.756V155.862C273.756 156.762 273.026 157.492 272.126 157.492C271.226 157.492 270.497 156.762 270.497 155.862V153.73H268.364C267.465 153.73 266.735 153 266.735 152.1C266.735 151.201 267.465 150.471 268.364 150.471H270.497V148.339C270.497 147.439 271.226 146.709 272.126 146.709C273.026 146.709 273.756 147.439 273.756 148.339V150.471H275.888C276.788 150.471 277.517 151.201 277.517 152.1C277.517 153 276.788 153.73 275.888 153.73ZM289.055 157.491C287.78 157.525 286.719 156.518 286.684 155.243C286.651 153.963 287.659 152.901 288.934 152.868C290.21 152.836 291.273 153.843 291.306 155.119C291.338 156.396 290.331 157.458 289.055 157.491ZM292.902 151.332C291.627 151.368 290.563 150.359 290.528 149.084C290.496 147.806 291.503 146.745 292.779 146.71C294.057 146.676 295.118 147.685 295.152 148.961C295.186 150.237 294.177 151.3 292.902 151.332Z" fill="#3A3731"/>
<path d="M387.958 163.911C387.865 158.693 387.248 153.417 386.238 148.091C385.414 144.391 382.452 141.095 377.72 140.854C374.226 140.71 373.55 142.701 369.591 142.662C368.507 142.655 367.424 142.655 366.34 142.662C362.38 142.701 361.703 140.71 358.211 140.854C353.477 141.095 350.423 144.382 349.69 148.091C348.678 153.417 348.062 158.692 347.969 163.91C347.946 167.543 351.533 169.96 353.9 170.125C358.472 170.471 362.104 162.409 364.871 162.408C366.934 162.42 368.996 162.42 371.059 162.408C373.827 162.408 377.456 170.471 382.031 170.126C384.397 169.961 388.077 167.527 387.959 163.911H387.958ZM362.88 153.73H360.748V155.862C360.748 156.762 360.018 157.492 359.118 157.492C358.219 157.492 357.489 156.762 357.489 155.862V153.73H355.357C354.457 153.73 353.727 153 353.727 152.1C353.727 151.201 354.457 150.471 355.357 150.471H357.489V148.339C357.489 147.439 358.219 146.709 359.118 146.709C360.018 146.709 360.748 147.439 360.748 148.339V150.471H362.88C363.78 150.471 364.51 151.201 364.51 152.1C364.51 153 363.78 153.73 362.88 153.73ZM376.047 157.491C374.772 157.525 373.711 156.518 373.677 155.243C373.643 153.963 374.651 152.901 375.926 152.868C377.203 152.836 378.265 153.843 378.298 155.119C378.33 156.396 377.323 157.458 376.047 157.491ZM379.894 151.332C378.619 151.368 377.556 150.359 377.52 149.084C377.488 147.806 378.495 146.745 379.772 146.71C381.05 146.676 382.11 147.685 382.145 148.961C382.178 150.237 381.169 151.3 379.894 151.332Z" fill="#3A3731"/>
<path d="M474.955 163.911C474.861 158.693 474.244 153.417 473.234 148.091C472.41 144.391 469.448 141.095 464.716 140.854C461.222 140.71 460.546 142.701 456.588 142.662C455.503 142.655 454.42 142.655 453.336 142.662C449.376 142.701 448.699 140.71 445.207 140.854C440.473 141.095 437.419 144.382 436.686 148.091C435.674 153.417 435.058 158.692 434.965 163.91C434.942 167.543 438.529 169.96 440.896 170.125C445.468 170.471 449.1 162.409 451.867 162.408C453.93 162.42 455.992 162.42 458.055 162.408C460.824 162.408 464.453 170.471 469.027 170.126C471.393 169.961 475.073 167.527 474.955 163.911ZM449.876 153.73H447.744V155.862C447.744 156.762 447.014 157.492 446.114 157.492C445.215 157.492 444.485 156.762 444.485 155.862V153.73H442.353C441.453 153.73 440.723 153 440.723 152.1C440.723 151.201 441.453 150.471 442.353 150.471H444.485V148.339C444.485 147.439 445.215 146.709 446.114 146.709C447.014 146.709 447.744 147.439 447.744 148.339V150.471H449.876C450.776 150.471 451.506 151.201 451.506 152.1C451.506 153 450.776 153.73 449.876 153.73ZM463.043 157.491C461.768 157.525 460.707 156.518 460.673 155.243C460.639 153.963 461.648 152.901 462.922 152.868C464.199 152.836 465.261 153.843 465.294 155.119C465.326 156.396 464.319 157.458 463.043 157.491ZM466.89 151.332C465.615 151.368 464.552 150.359 464.517 149.084C464.485 147.806 465.491 146.745 466.768 146.71C468.046 146.676 469.106 147.685 469.141 148.961C469.174 150.237 468.165 151.3 466.89 151.332Z" fill="#3A3731"/>
<path d="M39.982 69.9108C39.888 64.693 39.272 59.4167 38.261 54.0911C37.438 50.391 34.476 47.0955 29.7431 46.8541C26.2492 46.7104 25.5736 48.7006 21.6149 48.6624C20.5307 48.6553 19.4473 48.6553 18.3632 48.6624C14.4037 48.7006 13.7265 46.7104 10.2342 46.8541C5.50069 47.0955 2.44649 50.3824 1.71309 54.0911C0.701489 59.4167 0.0851947 64.6923 -0.00770528 69.9101C-0.0304053 73.543 3.5565 75.9597 5.9232 76.1253C10.4951 76.4706 14.1272 68.4088 16.8947 68.408C18.9576 68.4197 21.0197 68.4205 23.0826 68.408C25.8509 68.408 29.4799 76.4714 34.055 76.1261C36.421 75.9605 40.1 73.5274 39.982 69.9108ZM14.9036 59.7299H12.7712V61.8623C12.7712 62.7621 12.0417 63.4917 11.1418 63.4917C10.242 63.4917 9.51239 62.7621 9.51239 61.8623V59.7299H7.37999C6.48019 59.7299 5.7506 59.0003 5.7506 58.1005C5.7506 57.2007 6.48019 56.4711 7.37999 56.4711H9.51239V54.3387C9.51239 53.4388 10.242 52.7093 11.1418 52.7093C12.0417 52.7093 12.7712 53.4388 12.7712 54.3387V56.4711H14.9036C15.8035 56.4711 16.533 57.2007 16.533 58.1005C16.533 59.0003 15.8035 59.7299 14.9036 59.7299ZM28.0708 63.4909C26.7952 63.5253 25.7345 62.5177 25.7001 61.2429C25.6665 59.9634 26.6749 58.9011 27.9497 58.8683C29.226 58.8363 30.2883 59.8431 30.3211 61.1195C30.3532 62.3958 29.3463 63.4581 28.0708 63.4909ZM31.9177 57.3319C30.6422 57.3678 29.5791 56.3594 29.5439 55.0839C29.5119 53.806 30.5187 52.7452 31.7951 52.7101C33.073 52.6765 34.134 53.6849 34.168 54.9612C34.202 56.2368 33.1925 57.2999 31.9177 57.3319Z" fill="#3A3731"/>
<path d="M126.978 69.9108C126.884 64.693 126.268 59.4167 125.257 54.0911C124.434 50.391 121.472 47.0955 116.739 46.8541C113.245 46.7104 112.57 48.7006 108.611 48.6624C107.527 48.6553 106.443 48.6553 105.359 48.6624C101.4 48.7006 100.723 46.7104 97.23 46.8541C92.497 47.0955 89.443 50.3824 88.709 54.0911C87.698 59.4167 87.081 64.6923 86.988 69.9101C86.966 73.543 90.553 75.9597 92.919 76.1253C97.491 76.4706 101.123 68.4088 103.891 68.408C105.954 68.4197 108.016 68.4205 110.079 68.408C112.847 68.408 116.476 76.4714 121.051 76.1261C123.417 75.9605 127.097 73.5274 126.979 69.9108H126.978ZM101.9 59.7299H99.767V61.8623C99.767 62.7621 99.038 63.4917 98.138 63.4917C97.238 63.4917 96.509 62.7621 96.509 61.8623V59.7299H94.376C93.476 59.7299 92.747 59.0003 92.747 58.1005C92.747 57.2007 93.476 56.4711 94.376 56.4711H96.509V54.3387C96.509 53.4388 97.238 52.7093 98.138 52.7093C99.038 52.7093 99.767 53.4388 99.767 54.3387V56.4711H101.9C102.8 56.4711 103.529 57.2007 103.529 58.1005C103.529 59.0003 102.8 59.7299 101.9 59.7299ZM115.067 63.4909C113.791 63.5253 112.731 62.5177 112.696 61.2429C112.663 59.9634 113.671 58.9011 114.946 58.8683C116.222 58.8363 117.284 59.8431 117.317 61.1195C117.349 62.3958 116.342 63.4581 115.067 63.4909ZM118.914 57.3319C117.638 57.3678 116.575 56.3594 116.54 55.0839C116.508 53.806 117.515 52.7452 118.791 52.7101C120.069 52.6765 121.13 53.6849 121.164 54.9612C121.198 56.2368 120.189 57.2999 118.914 57.3319Z" fill="#3A3731"/>
<path d="M213.974 69.9108C213.88 64.693 213.264 59.4167 212.253 54.0911C211.43 50.391 208.468 47.0955 203.735 46.8541C200.241 46.7104 199.566 48.7006 195.607 48.6624C194.523 48.6553 193.44 48.6553 192.355 48.6624C188.396 48.7006 187.719 46.7104 184.226 46.8541C179.493 47.0955 176.439 50.3824 175.705 54.0911C174.694 59.4167 174.077 64.6923 173.984 69.9101C173.962 73.543 177.549 75.9597 179.915 76.1253C184.487 76.4706 188.119 68.4088 190.887 68.408C192.95 68.4197 195.012 68.4205 197.075 68.408C199.843 68.408 203.472 76.4714 208.047 76.1261C210.413 75.9605 214.093 73.5274 213.975 69.9108H213.974ZM188.896 59.7299H186.763V61.8623C186.763 62.7621 186.034 63.4917 185.134 63.4917C184.234 63.4917 183.505 62.7621 183.505 61.8623V59.7299H181.372C180.472 59.7299 179.743 59.0003 179.743 58.1005C179.743 57.2007 180.472 56.4711 181.372 56.4711H183.505V54.3387C183.505 53.4388 184.234 52.7093 185.134 52.7093C186.034 52.7093 186.763 53.4388 186.763 54.3387V56.4711H188.896C189.796 56.4711 190.525 57.2007 190.525 58.1005C190.525 59.0003 189.796 59.7299 188.896 59.7299ZM202.063 63.4909C200.787 63.5253 199.727 62.5177 199.692 61.2429C199.659 59.9634 200.667 58.9011 201.942 58.8683C203.218 58.8363 204.281 59.8431 204.313 61.1195C204.345 62.3958 203.338 63.4581 202.063 63.4909ZM205.91 57.3319C204.634 57.3678 203.571 56.3594 203.536 55.0839C203.504 53.806 204.511 52.7452 205.787 52.7101C207.065 52.6765 208.126 53.6849 208.16 54.9612C208.194 56.2368 207.185 57.2999 205.91 57.3319Z" fill="#3A3731"/>
<path d="M300.966 69.9108C300.873 64.693 300.256 59.4167 299.245 54.0911C298.422 50.391 295.46 47.0955 290.727 46.8541C287.234 46.7104 286.558 48.7006 282.599 48.6624C281.515 48.6553 280.432 48.6553 279.348 48.6624C275.388 48.7006 274.711 46.7104 271.219 46.8541C266.485 47.0955 263.431 50.3824 262.697 54.0911C261.686 59.4167 261.07 64.6923 260.977 69.9101C260.954 73.543 264.541 75.9597 266.908 76.1253C271.479 76.4706 275.112 68.4088 277.879 68.408C279.942 68.4197 282.004 68.4205 284.067 68.408C286.835 68.408 290.464 76.4714 295.039 76.1261C297.405 75.9605 301.085 73.5274 300.967 69.9108H300.966ZM275.888 59.7299H273.756V61.8623C273.756 62.7621 273.026 63.4917 272.126 63.4917C271.226 63.4917 270.497 62.7621 270.497 61.8623V59.7299H268.364C267.465 59.7299 266.735 59.0003 266.735 58.1005C266.735 57.2007 267.465 56.4711 268.364 56.4711H270.497V54.3387C270.497 53.4388 271.226 52.7093 272.126 52.7093C273.026 52.7093 273.756 53.4388 273.756 54.3387V56.4711H275.888C276.788 56.4711 277.517 57.2007 277.517 58.1005C277.517 59.0003 276.788 59.7299 275.888 59.7299ZM289.055 63.4909C287.78 63.5253 286.719 62.5177 286.684 61.2429C286.651 59.9634 287.659 58.9011 288.934 58.8683C290.21 58.8363 291.273 59.8431 291.306 61.1195C291.338 62.3958 290.331 63.4581 289.055 63.4909ZM292.902 57.3319C291.627 57.3678 290.563 56.3594 290.528 55.0839C290.496 53.806 291.503 52.7452 292.779 52.7101C294.057 52.6765 295.118 53.6849 295.152 54.9612C295.186 56.2368 294.177 57.2999 292.902 57.3319Z" fill="#3A3731"/>
<path d="M387.958 69.9108C387.865 64.693 387.248 59.4167 386.238 54.0911C385.414 50.391 382.452 47.0955 377.72 46.8541C374.226 46.7104 373.55 48.7006 369.591 48.6624C368.507 48.6553 367.424 48.6553 366.34 48.6624C362.38 48.7006 361.703 46.7104 358.211 46.8541C353.477 47.0955 350.423 50.3824 349.69 54.0911C348.678 59.4167 348.062 64.6923 347.969 69.9101C347.946 73.543 351.533 75.9597 353.9 76.1253C358.472 76.4706 362.104 68.4088 364.871 68.408C366.934 68.4197 368.996 68.4205 371.059 68.408C373.827 68.408 377.456 76.4714 382.031 76.1261C384.397 75.9605 388.077 73.5274 387.959 69.9108H387.958ZM362.88 59.7299H360.748V61.8623C360.748 62.7621 360.018 63.4917 359.118 63.4917C358.219 63.4917 357.489 62.7621 357.489 61.8623V59.7299H355.357C354.457 59.7299 353.727 59.0003 353.727 58.1005C353.727 57.2007 354.457 56.4711 355.357 56.4711H357.489V54.3387C357.489 53.4388 358.219 52.7093 359.118 52.7093C360.018 52.7093 360.748 53.4388 360.748 54.3387V56.4711H362.88C363.78 56.4711 364.51 57.2007 364.51 58.1005C364.51 59.0003 363.78 59.7299 362.88 59.7299ZM376.047 63.4909C374.772 63.5253 373.711 62.5177 373.677 61.2429C373.643 59.9634 374.651 58.9011 375.926 58.8683C377.203 58.8363 378.265 59.8431 378.298 61.1195C378.33 62.3958 377.323 63.4581 376.047 63.4909ZM379.894 57.3319C378.619 57.3678 377.556 56.3594 377.52 55.0839C377.488 53.806 378.495 52.7452 379.772 52.7101C381.05 52.6765 382.11 53.6849 382.145 54.9612C382.178 56.2368 381.169 57.2999 379.894 57.3319Z" fill="#3A3731"/>
<path d="M474.955 69.9108C474.861 64.693 474.244 59.4167 473.234 54.0911C472.41 50.391 469.448 47.0955 464.716 46.8541C461.222 46.7104 460.546 48.7006 456.588 48.6624C455.503 48.6553 454.42 48.6553 453.336 48.6624C449.376 48.7006 448.699 46.7104 445.207 46.8541C440.473 47.0955 437.419 50.3824 436.686 54.0911C435.674 59.4167 435.058 64.6923 434.965 69.9101C434.942 73.543 438.529 75.9597 440.896 76.1253C445.468 76.4706 449.1 68.4088 451.867 68.408C453.93 68.4197 455.992 68.4205 458.055 68.408C460.824 68.408 464.453 76.4714 469.027 76.1261C471.393 75.9605 475.073 73.5274 474.955 69.9108ZM449.876 59.7299H447.744V61.8623C447.744 62.7621 447.014 63.4917 446.114 63.4917C445.215 63.4917 444.485 62.7621 444.485 61.8623V59.7299H442.353C441.453 59.7299 440.723 59.0003 440.723 58.1005C440.723 57.2007 441.453 56.4711 442.353 56.4711H444.485V54.3387C444.485 53.4388 445.215 52.7093 446.114 52.7093C447.014 52.7093 447.744 53.4388 447.744 54.3387V56.4711H449.876C450.776 56.4711 451.506 57.2007 451.506 58.1005C451.506 59.0003 450.776 59.7299 449.876 59.7299ZM463.043 63.4909C461.768 63.5253 460.707 62.5177 460.673 61.2429C460.639 59.9634 461.648 58.9011 462.922 58.8683C464.199 58.8363 465.261 59.8431 465.294 61.1195C465.326 62.3958 464.319 63.4581 463.043 63.4909ZM466.89 57.3319C465.615 57.3678 464.552 56.3594 464.517 55.0839C464.485 53.806 465.491 52.7452 466.768 52.7101C468.046 52.6765 469.106 53.6849 469.141 54.9612C469.174 56.2368 468.165 57.2999 466.89 57.3319Z" fill="#3A3731"/>
<path d="M82.974 211.064C82.88 205.846 82.264 200.57 81.253 195.244C80.43 191.544 77.468 188.249 72.735 188.007C69.241 187.864 68.566 189.854 64.607 189.816C63.523 189.809 62.44 189.809 61.355 189.816C57.396 189.854 56.719 187.864 53.226 188.007C48.493 188.249 45.439 191.536 44.705 195.244C43.694 200.57 43.077 205.846 42.984 211.063C42.962 214.696 46.549 217.113 48.915 217.279C53.487 217.624 57.119 209.562 59.887 209.561C61.95 209.573 64.012 209.574 66.075 209.561C68.843 209.561 72.472 217.625 77.047 217.279C79.413 217.114 83.093 214.681 82.975 211.064H82.974ZM57.896 200.883H55.763V203.016C55.763 203.915 55.034 204.645 54.134 204.645C53.234 204.645 52.505 203.915 52.505 203.016V200.883H50.372C49.472 200.883 48.743 200.154 48.743 199.254C48.743 198.354 49.472 197.624 50.372 197.624H52.505V195.492C52.505 194.592 53.234 193.863 54.134 193.863C55.034 193.863 55.763 194.592 55.763 195.492V197.624H57.896C58.796 197.624 59.525 198.354 59.525 199.254C59.525 200.154 58.796 200.883 57.896 200.883ZM71.063 204.644C69.787 204.679 68.727 203.671 68.692 202.396C68.659 201.117 69.667 200.054 70.942 200.022C72.218 199.99 73.281 200.996 73.313 202.273C73.345 203.549 72.338 204.611 71.063 204.644ZM74.91 198.485C73.634 198.521 72.571 197.513 72.536 196.237C72.504 194.959 73.511 193.899 74.787 193.863C76.065 193.83 77.126 194.838 77.16 196.115C77.194 197.39 76.185 198.453 74.91 198.485Z" fill="#3A3731"/>
<path d="M169.97 211.064C169.876 205.846 169.26 200.57 168.249 195.244C167.426 191.544 164.464 188.249 159.731 188.007C156.237 187.864 155.562 189.854 151.603 189.816C150.519 189.809 149.436 189.809 148.351 189.816C144.392 189.854 143.715 187.864 140.222 188.007C135.489 188.249 132.435 191.536 131.701 195.244C130.69 200.57 130.074 205.846 129.981 211.063C129.958 214.696 133.545 217.113 135.912 217.279C140.483 217.624 144.115 209.562 146.883 209.561C148.946 209.573 151.008 209.574 153.071 209.561C155.839 209.561 159.468 217.625 164.043 217.279C166.409 217.114 170.088 214.681 169.97 211.064ZM144.892 200.883H142.759V203.016C142.759 203.915 142.03 204.645 141.13 204.645C140.23 204.645 139.501 203.915 139.501 203.016V200.883H137.368C136.468 200.883 135.739 200.154 135.739 199.254C135.739 198.354 136.468 197.624 137.368 197.624H139.501V195.492C139.501 194.592 140.23 193.863 141.13 193.863C142.03 193.863 142.759 194.592 142.759 195.492V197.624H144.892C145.792 197.624 146.521 198.354 146.521 199.254C146.521 200.154 145.792 200.883 144.892 200.883ZM158.059 204.644C156.783 204.679 155.723 203.671 155.688 202.396C155.655 201.117 156.663 200.054 157.938 200.022C159.214 199.99 160.277 200.996 160.309 202.273C160.341 203.549 159.335 204.611 158.059 204.644ZM161.906 198.485C160.63 198.521 159.567 197.513 159.532 196.237C159.5 194.959 160.507 193.899 161.783 193.863C163.061 193.83 164.122 194.838 164.156 196.115C164.19 197.39 163.181 198.453 161.906 198.485Z" fill="#3A3731"/>
<path d="M256.966 211.064C256.873 205.846 256.256 200.57 255.245 195.244C254.422 191.544 251.46 188.249 246.727 188.007C243.234 187.864 242.558 189.854 238.599 189.816C237.515 189.809 236.432 189.809 235.348 189.816C231.388 189.854 230.711 187.864 227.219 188.007C222.485 188.249 219.431 191.536 218.697 195.244C217.686 200.57 217.07 205.846 216.977 211.063C216.954 214.696 220.541 217.113 222.908 217.279C227.479 217.624 231.112 209.562 233.879 209.561C235.942 209.573 238.004 209.574 240.067 209.561C242.835 209.561 246.464 217.625 251.039 217.279C253.405 217.114 257.085 214.681 256.967 211.064H256.966ZM231.888 200.883H229.756V203.016C229.756 203.915 229.026 204.645 228.126 204.645C227.226 204.645 226.497 203.915 226.497 203.016V200.883H224.364C223.465 200.883 222.735 200.154 222.735 199.254C222.735 198.354 223.465 197.624 224.364 197.624H226.497V195.492C226.497 194.592 227.226 193.863 228.126 193.863C229.026 193.863 229.756 194.592 229.756 195.492V197.624H231.888C232.788 197.624 233.517 198.354 233.517 199.254C233.517 200.154 232.788 200.883 231.888 200.883ZM245.055 204.644C243.78 204.679 242.719 203.671 242.684 202.396C242.651 201.117 243.659 200.054 244.934 200.022C246.21 199.99 247.273 200.996 247.306 202.273C247.338 203.549 246.331 204.611 245.055 204.644ZM248.902 198.485C247.627 198.521 246.563 197.513 246.528 196.237C246.496 194.959 247.503 193.899 248.779 193.863C250.057 193.83 251.118 194.838 251.152 196.115C251.186 197.39 250.177 198.453 248.902 198.485Z" fill="#3A3731"/>
<path d="M343.958 211.064C343.865 205.846 343.248 200.57 342.238 195.244C341.414 191.544 338.452 188.249 333.72 188.007C330.226 187.864 329.55 189.854 325.591 189.816C324.507 189.809 323.424 189.809 322.34 189.816C318.38 189.854 317.703 187.864 314.211 188.007C309.477 188.249 306.423 191.536 305.69 195.244C304.678 200.57 304.062 205.846 303.969 211.063C303.946 214.696 307.533 217.113 309.9 217.279C314.472 217.624 318.104 209.562 320.871 209.561C322.934 209.573 324.996 209.574 327.059 209.561C329.827 209.561 333.456 217.625 338.031 217.279C340.397 217.114 344.077 214.681 343.959 211.064H343.958ZM318.88 200.883H316.748V203.016C316.748 203.915 316.018 204.645 315.118 204.645C314.219 204.645 313.489 203.915 313.489 203.016V200.883H311.357C310.457 200.883 309.727 200.154 309.727 199.254C309.727 198.354 310.457 197.624 311.357 197.624H313.489V195.492C313.489 194.592 314.219 193.863 315.118 193.863C316.018 193.863 316.748 194.592 316.748 195.492V197.624H318.88C319.78 197.624 320.51 198.354 320.51 199.254C320.51 200.154 319.78 200.883 318.88 200.883ZM332.047 204.644C330.772 204.679 329.711 203.671 329.677 202.396C329.643 201.117 330.651 200.054 331.926 200.022C333.203 199.99 334.265 200.996 334.298 202.273C334.33 203.549 333.323 204.611 332.047 204.644ZM335.894 198.485C334.619 198.521 333.556 197.513 333.52 196.237C333.488 194.959 334.495 193.899 335.772 193.863C337.05 193.83 338.11 194.838 338.145 196.115C338.178 197.39 337.169 198.453 335.894 198.485Z" fill="#3A3731"/>
<path d="M430.951 211.064C430.857 205.846 430.241 200.57 429.23 195.244C428.407 191.544 425.445 188.249 420.712 188.007C417.218 187.864 416.542 189.854 412.584 189.816C411.499 189.809 410.416 189.809 409.332 189.816C405.372 189.854 404.695 187.864 401.203 188.007C396.469 188.249 393.415 191.536 392.682 195.244C391.67 200.57 391.054 205.846 390.961 211.063C390.938 214.696 394.525 217.113 396.892 217.279C401.464 217.624 405.096 209.562 407.863 209.561C409.926 209.573 411.988 209.574 414.051 209.561C416.82 209.561 420.449 217.625 425.024 217.279C427.39 217.114 431.069 214.681 430.951 211.064ZM405.872 200.883H403.74V203.016C403.74 203.915 403.01 204.645 402.111 204.645C401.211 204.645 400.481 203.915 400.481 203.016V200.883H398.349C397.449 200.883 396.719 200.154 396.719 199.254C396.719 198.354 397.449 197.624 398.349 197.624H400.481V195.492C400.481 194.592 401.211 193.863 402.111 193.863C403.01 193.863 403.74 194.592 403.74 195.492V197.624H405.872C406.772 197.624 407.502 198.354 407.502 199.254C407.502 200.154 406.772 200.883 405.872 200.883ZM419.04 204.644C417.764 204.679 416.703 203.671 416.669 202.396C416.635 201.117 417.644 200.054 418.918 200.022C420.195 199.99 421.257 200.996 421.29 202.273C421.322 203.549 420.315 204.611 419.04 204.644ZM422.886 198.485C421.611 198.521 420.548 197.513 420.513 196.237C420.481 194.959 421.487 193.899 422.764 193.863C424.042 193.83 425.102 194.838 425.137 196.115C425.17 197.39 424.161 198.453 422.886 198.485Z" fill="#3A3731"/>
<path d="M517.947 211.064C517.853 205.846 517.237 200.57 516.226 195.244C515.403 191.544 512.441 188.249 507.708 188.007C504.214 187.864 503.538 189.854 499.58 189.816C498.496 189.809 497.412 189.809 496.328 189.816C492.369 189.854 491.691 187.864 488.199 188.007C483.466 188.249 480.411 191.536 479.678 195.244C478.666 200.57 478.05 205.846 477.957 211.063C477.934 214.696 481.521 217.113 483.888 217.279C488.46 217.624 492.092 209.562 494.86 209.561C496.922 209.573 498.985 209.574 501.047 209.561C503.816 209.561 507.445 217.625 512.02 217.279C514.386 217.114 518.065 214.681 517.947 211.064ZM492.868 200.883H490.736V203.016C490.736 203.915 490.006 204.645 489.107 204.645C488.207 204.645 487.477 203.915 487.477 203.016V200.883H485.345C484.445 200.883 483.715 200.154 483.715 199.254C483.715 198.354 484.445 197.624 485.345 197.624H487.477V195.492C487.477 194.592 488.207 193.863 489.107 193.863C490.006 193.863 490.736 194.592 490.736 195.492V197.624H492.868C493.768 197.624 494.498 198.354 494.498 199.254C494.498 200.154 493.768 200.883 492.868 200.883ZM506.036 204.644C504.76 204.679 503.699 203.671 503.665 202.396C503.631 201.117 504.64 200.054 505.915 200.022C507.191 199.99 508.253 200.996 508.286 202.273C508.318 203.549 507.311 204.611 506.036 204.644ZM509.883 198.485C508.607 198.521 507.544 197.513 507.509 196.237C507.477 194.959 508.484 193.899 509.76 193.863C511.038 193.83 512.099 194.838 512.133 196.115C512.167 197.39 511.157 198.453 509.883 198.485Z" fill="#3A3731"/>
<path d="M82.974 117.064C82.88 111.846 82.264 106.57 81.253 101.244C80.43 97.5443 77.468 94.2488 72.735 94.0074C69.241 93.8637 68.566 95.854 64.607 95.8157C63.523 95.8087 62.44 95.8087 61.355 95.8157C57.396 95.854 56.719 93.8637 53.226 94.0074C48.493 94.2488 45.439 97.5357 44.705 101.244C43.694 106.57 43.077 111.846 42.984 117.063C42.962 120.696 46.549 123.113 48.915 123.279C53.487 123.624 57.119 115.562 59.887 115.561C61.95 115.573 64.012 115.574 66.075 115.561C68.843 115.561 72.472 123.625 77.047 123.279C79.413 123.114 83.093 120.681 82.975 117.064H82.974ZM57.896 106.883H55.763V109.016C55.763 109.915 55.034 110.645 54.134 110.645C53.234 110.645 52.505 109.915 52.505 109.016V106.883H50.372C49.472 106.883 48.743 106.154 48.743 105.254C48.743 104.354 49.472 103.624 50.372 103.624H52.505V101.492C52.505 100.592 53.234 99.8626 54.134 99.8626C55.034 99.8626 55.763 100.592 55.763 101.492V103.624H57.896C58.796 103.624 59.525 104.354 59.525 105.254C59.525 106.154 58.796 106.883 57.896 106.883ZM71.063 110.644C69.787 110.679 68.727 109.671 68.692 108.396C68.659 107.117 69.667 106.054 70.942 106.022C72.218 105.99 73.281 106.996 73.313 108.273C73.345 109.549 72.338 110.611 71.063 110.644ZM74.91 104.485C73.634 104.521 72.571 103.513 72.536 102.237C72.504 100.959 73.511 99.8985 74.787 99.8634C76.065 99.8298 77.126 100.838 77.16 102.115C77.194 103.39 76.185 104.453 74.91 104.485Z" fill="#3A3731"/>
<path d="M169.97 117.064C169.876 111.846 169.26 106.57 168.249 101.244C167.426 97.5443 164.464 94.2488 159.731 94.0074C156.237 93.8637 155.562 95.854 151.603 95.8157C150.519 95.8087 149.436 95.8087 148.351 95.8157C144.392 95.854 143.715 93.8637 140.222 94.0074C135.489 94.2488 132.435 97.5357 131.701 101.244C130.69 106.57 130.074 111.846 129.981 117.063C129.958 120.696 133.545 123.113 135.912 123.279C140.483 123.624 144.115 115.562 146.883 115.561C148.946 115.573 151.008 115.574 153.071 115.561C155.839 115.561 159.468 123.625 164.043 123.279C166.409 123.114 170.088 120.681 169.97 117.064ZM144.892 106.883H142.759V109.016C142.759 109.915 142.03 110.645 141.13 110.645C140.23 110.645 139.501 109.915 139.501 109.016V106.883H137.368C136.468 106.883 135.739 106.154 135.739 105.254C135.739 104.354 136.468 103.624 137.368 103.624H139.501V101.492C139.501 100.592 140.23 99.8626 141.13 99.8626C142.03 99.8626 142.759 100.592 142.759 101.492V103.624H144.892C145.792 103.624 146.521 104.354 146.521 105.254C146.521 106.154 145.792 106.883 144.892 106.883ZM158.059 110.644C156.783 110.679 155.723 109.671 155.688 108.396C155.655 107.117 156.663 106.054 157.938 106.022C159.214 105.99 160.277 106.996 160.309 108.273C160.341 109.549 159.335 110.611 158.059 110.644ZM161.906 104.485C160.63 104.521 159.567 103.513 159.532 102.237C159.5 100.959 160.507 99.8985 161.783 99.8634C163.061 99.8298 164.122 100.838 164.156 102.115C164.19 103.39 163.181 104.453 161.906 104.485Z" fill="#3A3731"/>
<path d="M256.966 117.064C256.873 111.846 256.256 106.57 255.245 101.244C254.422 97.5443 251.46 94.2488 246.727 94.0074C243.234 93.8637 242.558 95.854 238.599 95.8157C237.515 95.8087 236.432 95.8087 235.348 95.8157C231.388 95.854 230.711 93.8637 227.219 94.0074C222.485 94.2488 219.431 97.5357 218.697 101.244C217.686 106.57 217.07 111.846 216.977 117.063C216.954 120.696 220.541 123.113 222.908 123.279C227.479 123.624 231.112 115.562 233.879 115.561C235.942 115.573 238.004 115.574 240.067 115.561C242.835 115.561 246.464 123.625 251.039 123.279C253.405 123.114 257.085 120.681 256.967 117.064H256.966ZM231.888 106.883H229.756V109.016C229.756 109.915 229.026 110.645 228.126 110.645C227.226 110.645 226.497 109.915 226.497 109.016V106.883H224.364C223.465 106.883 222.735 106.154 222.735 105.254C222.735 104.354 223.465 103.624 224.364 103.624H226.497V101.492C226.497 100.592 227.226 99.8626 228.126 99.8626C229.026 99.8626 229.756 100.592 229.756 101.492V103.624H231.888C232.788 103.624 233.517 104.354 233.517 105.254C233.517 106.154 232.788 106.883 231.888 106.883ZM245.055 110.644C243.78 110.679 242.719 109.671 242.684 108.396C242.651 107.117 243.659 106.054 244.934 106.022C246.21 105.99 247.273 106.996 247.306 108.273C247.338 109.549 246.331 110.611 245.055 110.644ZM248.902 104.485C247.627 104.521 246.563 103.513 246.528 102.237C246.496 100.959 247.503 99.8985 248.779 99.8634C250.057 99.8298 251.118 100.838 251.152 102.115C251.186 103.39 250.177 104.453 248.902 104.485Z" fill="#3A3731"/>
<path d="M343.958 117.064C343.865 111.846 343.248 106.57 342.238 101.244C341.414 97.5443 338.452 94.2488 333.72 94.0074C330.226 93.8637 329.55 95.854 325.591 95.8157C324.507 95.8087 323.424 95.8087 322.34 95.8157C318.38 95.854 317.703 93.8637 314.211 94.0074C309.477 94.2488 306.423 97.5357 305.69 101.244C304.678 106.57 304.062 111.846 303.969 117.063C303.946 120.696 307.533 123.113 309.9 123.279C314.472 123.624 318.104 115.562 320.871 115.561C322.934 115.573 324.996 115.574 327.059 115.561C329.827 115.561 333.456 123.625 338.031 123.279C340.397 123.114 344.077 120.681 343.959 117.064H343.958ZM318.88 106.883H316.748V109.016C316.748 109.915 316.018 110.645 315.118 110.645C314.219 110.645 313.489 109.915 313.489 109.016V106.883H311.357C310.457 106.883 309.727 106.154 309.727 105.254C309.727 104.354 310.457 103.624 311.357 103.624H313.489V101.492C313.489 100.592 314.219 99.8626 315.118 99.8626C316.018 99.8626 316.748 100.592 316.748 101.492V103.624H318.88C319.78 103.624 320.51 104.354 320.51 105.254C320.51 106.154 319.78 106.883 318.88 106.883ZM332.047 110.644C330.772 110.679 329.711 109.671 329.677 108.396C329.643 107.117 330.651 106.054 331.926 106.022C333.203 105.99 334.265 106.996 334.298 108.273C334.33 109.549 333.323 110.611 332.047 110.644ZM335.894 104.485C334.619 104.521 333.556 103.513 333.52 102.237C333.488 100.959 334.495 99.8985 335.772 99.8634C337.05 99.8298 338.11 100.838 338.145 102.115C338.178 103.39 337.169 104.453 335.894 104.485Z" fill="#3A3731"/>
<path d="M430.951 117.064C430.857 111.846 430.241 106.57 429.23 101.244C428.407 97.5443 425.445 94.2488 420.712 94.0074C417.218 93.8637 416.542 95.854 412.584 95.8157C411.499 95.8087 410.416 95.8087 409.332 95.8157C405.372 95.854 404.695 93.8637 401.203 94.0074C396.469 94.2488 393.415 97.5357 392.682 101.244C391.67 106.57 391.054 111.846 390.961 117.063C390.938 120.696 394.525 123.113 396.892 123.279C401.464 123.624 405.096 115.562 407.863 115.561C409.926 115.573 411.988 115.574 414.051 115.561C416.82 115.561 420.449 123.625 425.024 123.279C427.39 123.114 431.069 120.681 430.951 117.064ZM405.872 106.883H403.74V109.016C403.74 109.915 403.01 110.645 402.111 110.645C401.211 110.645 400.481 109.915 400.481 109.016V106.883H398.349C397.449 106.883 396.719 106.154 396.719 105.254C396.719 104.354 397.449 103.624 398.349 103.624H400.481V101.492C400.481 100.592 401.211 99.8626 402.111 99.8626C403.01 99.8626 403.74 100.592 403.74 101.492V103.624H405.872C406.772 103.624 407.502 104.354 407.502 105.254C407.502 106.154 406.772 106.883 405.872 106.883ZM419.04 110.644C417.764 110.679 416.703 109.671 416.669 108.396C416.635 107.117 417.644 106.054 418.918 106.022C420.195 105.99 421.257 106.996 421.29 108.273C421.322 109.549 420.315 110.611 419.04 110.644ZM422.886 104.485C421.611 104.521 420.548 103.513 420.513 102.237C420.481 100.959 421.487 99.8985 422.764 99.8634C424.042 99.8298 425.102 100.838 425.137 102.115C425.17 103.39 424.161 104.453 422.886 104.485Z" fill="#3A3731"/>
<path d="M517.947 117.064C517.853 111.846 517.237 106.57 516.226 101.244C515.403 97.5443 512.441 94.2488 507.708 94.0074C504.214 93.8637 503.538 95.854 499.58 95.8157C498.496 95.8087 497.412 95.8087 496.328 95.8157C492.369 95.854 491.691 93.8637 488.199 94.0074C483.466 94.2488 480.411 97.5357 479.678 101.244C478.666 106.57 478.05 111.846 477.957 117.063C477.934 120.696 481.521 123.113 483.888 123.279C488.46 123.624 492.092 115.562 494.86 115.561C496.922 115.573 498.985 115.574 501.047 115.561C503.816 115.561 507.445 123.625 512.02 123.279C514.386 123.114 518.065 120.681 517.947 117.064ZM492.868 106.883H490.736V109.016C490.736 109.915 490.006 110.645 489.107 110.645C488.207 110.645 487.477 109.915 487.477 109.016V106.883H485.345C484.445 106.883 483.715 106.154 483.715 105.254C483.715 104.354 484.445 103.624 485.345 103.624H487.477V101.492C487.477 100.592 488.207 99.8626 489.107 99.8626C490.006 99.8626 490.736 100.592 490.736 101.492V103.624H492.868C493.768 103.624 494.498 104.354 494.498 105.254C494.498 106.154 493.768 106.883 492.868 106.883ZM506.036 110.644C504.76 110.679 503.699 109.671 503.665 108.396C503.631 107.117 504.64 106.054 505.915 106.022C507.191 105.99 508.253 106.996 508.286 108.273C508.318 109.549 507.311 110.611 506.036 110.644ZM509.883 104.485C508.607 104.521 507.544 103.513 507.509 102.237C507.477 100.959 508.484 99.8985 509.76 99.8634C511.038 99.8298 512.099 100.838 512.133 102.115C512.167 103.39 511.157 104.453 509.883 104.485Z" fill="#3A3731"/>
<path d="M82.974 23.0642C82.88 17.8464 82.264 12.57 81.253 7.24439C80.43 3.54428 77.468 0.248789 72.735 0.00742721C69.241 -0.136297 68.566 1.85397 64.607 1.81569C63.523 1.80866 62.44 1.80866 61.355 1.81569C57.396 1.85397 56.719 -0.136297 53.226 0.00742721C48.493 0.248789 45.439 3.53569 44.705 7.24439C43.694 12.57 43.077 17.8456 42.984 23.0634C42.962 26.6963 46.549 29.113 48.915 29.2786C53.487 29.6239 57.119 21.5621 59.887 21.5613C61.95 21.573 64.012 21.5738 66.075 21.5613C68.843 21.5613 72.472 29.6247 77.047 29.2794C79.413 29.1138 83.093 26.6807 82.975 23.0642H82.974ZM57.896 12.8832H55.763V15.0156C55.763 15.9155 55.034 16.645 54.134 16.645C53.234 16.645 52.505 15.9155 52.505 15.0156V12.8832H50.372C49.472 12.8832 48.743 12.1536 48.743 11.2538C48.743 10.354 49.472 9.62442 50.372 9.62442H52.505V7.492C52.505 6.59216 53.234 5.86261 54.134 5.86261C55.034 5.86261 55.763 6.59216 55.763 7.492V9.62442H57.896C58.796 9.62442 59.525 10.354 59.525 11.2538C59.525 12.1536 58.796 12.8832 57.896 12.8832ZM71.063 16.6442C69.787 16.6786 68.727 15.671 68.692 14.3962C68.659 13.1168 69.667 12.0544 70.942 12.0216C72.218 11.9896 73.281 12.9965 73.313 14.2728C73.345 15.5491 72.338 16.6114 71.063 16.6442ZM74.91 10.4852C73.634 10.5211 72.571 9.51272 72.536 8.23717C72.504 6.95928 73.511 5.89854 74.787 5.86339C76.065 5.8298 77.126 6.83821 77.16 8.11454C77.194 9.39009 76.185 10.4532 74.91 10.4852Z" fill="#3A3731"/>
<path d="M169.97 23.0642C169.876 17.8464 169.26 12.57 168.249 7.24439C167.426 3.54428 164.464 0.248789 159.731 0.00742721C156.237 -0.136297 155.562 1.85397 151.603 1.81569C150.519 1.80866 149.436 1.80866 148.351 1.81569C144.392 1.85397 143.715 -0.136297 140.222 0.00742721C135.489 0.248789 132.435 3.53569 131.701 7.24439C130.69 12.57 130.074 17.8456 129.981 23.0634C129.958 26.6963 133.545 29.113 135.912 29.2786C140.483 29.6239 144.115 21.5621 146.883 21.5613C148.946 21.573 151.008 21.5738 153.071 21.5613C155.839 21.5613 159.468 29.6247 164.043 29.2794C166.409 29.1138 170.088 26.6807 169.97 23.0642ZM144.892 12.8832H142.759V15.0156C142.759 15.9155 142.03 16.645 141.13 16.645C140.23 16.645 139.501 15.9155 139.501 15.0156V12.8832H137.368C136.468 12.8832 135.739 12.1536 135.739 11.2538C135.739 10.354 136.468 9.62442 137.368 9.62442H139.501V7.492C139.501 6.59216 140.23 5.86261 141.13 5.86261C142.03 5.86261 142.759 6.59216 142.759 7.492V9.62442H144.892C145.792 9.62442 146.521 10.354 146.521 11.2538C146.521 12.1536 145.792 12.8832 144.892 12.8832ZM158.059 16.6442C156.783 16.6786 155.723 15.671 155.688 14.3962C155.655 13.1168 156.663 12.0544 157.938 12.0216C159.214 11.9896 160.277 12.9965 160.309 14.2728C160.341 15.5491 159.335 16.6114 158.059 16.6442ZM161.906 10.4852C160.63 10.5211 159.567 9.51272 159.532 8.23717C159.5 6.95928 160.507 5.89854 161.783 5.86339C163.061 5.8298 164.122 6.83821 164.156 8.11454C164.19 9.39009 163.181 10.4532 161.906 10.4852Z" fill="#3A3731"/>
<path d="M256.966 23.0642C256.873 17.8464 256.256 12.57 255.245 7.24439C254.422 3.54428 251.46 0.248789 246.727 0.00742721C243.234 -0.136297 242.558 1.85397 238.599 1.81569C237.515 1.80866 236.432 1.80866 235.348 1.81569C231.388 1.85397 230.711 -0.136297 227.219 0.00742721C222.485 0.248789 219.431 3.53569 218.697 7.24439C217.686 12.57 217.07 17.8456 216.977 23.0634C216.954 26.6963 220.541 29.113 222.908 29.2786C227.479 29.6239 231.112 21.5621 233.879 21.5613C235.942 21.573 238.004 21.5738 240.067 21.5613C242.835 21.5613 246.464 29.6247 251.039 29.2794C253.405 29.1138 257.085 26.6807 256.967 23.0642H256.966ZM231.888 12.8832H229.756V15.0156C229.756 15.9155 229.026 16.645 228.126 16.645C227.226 16.645 226.497 15.9155 226.497 15.0156V12.8832H224.364C223.465 12.8832 222.735 12.1536 222.735 11.2538C222.735 10.354 223.465 9.62442 224.364 9.62442H226.497V7.492C226.497 6.59216 227.226 5.86261 228.126 5.86261C229.026 5.86261 229.756 6.59216 229.756 7.492V9.62442H231.888C232.788 9.62442 233.517 10.354 233.517 11.2538C233.517 12.1536 232.788 12.8832 231.888 12.8832ZM245.055 16.6442C243.78 16.6786 242.719 15.671 242.684 14.3962C242.651 13.1168 243.659 12.0544 244.934 12.0216C246.21 11.9896 247.273 12.9965 247.306 14.2728C247.338 15.5491 246.331 16.6114 245.055 16.6442ZM248.902 10.4852C247.627 10.5211 246.563 9.51272 246.528 8.23717C246.496 6.95928 247.503 5.89854 248.779 5.86339C250.057 5.8298 251.118 6.83821 251.152 8.11454C251.186 9.39009 250.177 10.4532 248.902 10.4852Z" fill="#3A3731"/>
<path d="M343.958 23.0642C343.865 17.8464 343.248 12.57 342.238 7.24439C341.414 3.54428 338.452 0.248789 333.72 0.00742721C330.226 -0.136297 329.55 1.85397 325.591 1.81569C324.507 1.80866 323.424 1.80866 322.34 1.81569C318.38 1.85397 317.703 -0.136297 314.211 0.00742721C309.477 0.248789 306.423 3.53569 305.69 7.24439C304.678 12.57 304.062 17.8456 303.969 23.0634C303.946 26.6963 307.533 29.113 309.9 29.2786C314.472 29.6239 318.104 21.5621 320.871 21.5613C322.934 21.573 324.996 21.5738 327.059 21.5613C329.827 21.5613 333.456 29.6247 338.031 29.2794C340.397 29.1138 344.077 26.6807 343.959 23.0642H343.958ZM318.88 12.8832H316.748V15.0156C316.748 15.9155 316.018 16.645 315.118 16.645C314.219 16.645 313.489 15.9155 313.489 15.0156V12.8832H311.357C310.457 12.8832 309.727 12.1536 309.727 11.2538C309.727 10.354 310.457 9.62442 311.357 9.62442H313.489V7.492C313.489 6.59216 314.219 5.86261 315.118 5.86261C316.018 5.86261 316.748 6.59216 316.748 7.492V9.62442H318.88C319.78 9.62442 320.51 10.354 320.51 11.2538C320.51 12.1536 319.78 12.8832 318.88 12.8832ZM332.047 16.6442C330.772 16.6786 329.711 15.671 329.677 14.3962C329.643 13.1168 330.651 12.0544 331.926 12.0216C333.203 11.9896 334.265 12.9965 334.298 14.2728C334.33 15.5491 333.323 16.6114 332.047 16.6442ZM335.894 10.4852C334.619 10.5211 333.556 9.51272 333.52 8.23717C333.488 6.95928 334.495 5.89854 335.772 5.86339C337.05 5.8298 338.11 6.83821 338.145 8.11454C338.178 9.39009 337.169 10.4532 335.894 10.4852Z" fill="#3A3731"/>
<path d="M430.951 23.0642C430.857 17.8464 430.241 12.57 429.23 7.24439C428.407 3.54428 425.445 0.248789 420.712 0.00742721C417.218 -0.136297 416.542 1.85397 412.584 1.81569C411.499 1.80866 410.416 1.80866 409.332 1.81569C405.372 1.85397 404.695 -0.136297 401.203 0.00742721C396.469 0.248789 393.415 3.53569 392.682 7.24439C391.67 12.57 391.054 17.8456 390.961 23.0634C390.938 26.6963 394.525 29.113 396.892 29.2786C401.464 29.6239 405.096 21.5621 407.863 21.5613C409.926 21.573 411.988 21.5738 414.051 21.5613C416.82 21.5613 420.449 29.6247 425.024 29.2794C427.39 29.1138 431.069 26.6807 430.951 23.0642ZM405.872 12.8832H403.74V15.0156C403.74 15.9155 403.01 16.645 402.111 16.645C401.211 16.645 400.481 15.9155 400.481 15.0156V12.8832H398.349C397.449 12.8832 396.719 12.1536 396.719 11.2538C396.719 10.354 397.449 9.62442 398.349 9.62442H400.481V7.492C400.481 6.59216 401.211 5.86261 402.111 5.86261C403.01 5.86261 403.74 6.59216 403.74 7.492V9.62442H405.872C406.772 9.62442 407.502 10.354 407.502 11.2538C407.502 12.1536 406.772 12.8832 405.872 12.8832ZM419.04 16.6442C417.764 16.6786 416.703 15.671 416.669 14.3962C416.635 13.1168 417.644 12.0544 418.918 12.0216C420.195 11.9896 421.257 12.9965 421.29 14.2728C421.322 15.5491 420.315 16.6114 419.04 16.6442ZM422.886 10.4852C421.611 10.5211 420.548 9.51272 420.513 8.23717C420.481 6.95928 421.487 5.89854 422.764 5.86339C424.042 5.8298 425.102 6.83821 425.137 8.11454C425.17 9.39009 424.161 10.4532 422.886 10.4852Z" fill="#3A3731"/>
<path d="M517.947 23.0642C517.853 17.8464 517.237 12.57 516.226 7.24439C515.403 3.54428 512.441 0.248789 507.708 0.00742721C504.214 -0.136297 503.538 1.85397 499.58 1.81569C498.496 1.80866 497.412 1.80866 496.328 1.81569C492.369 1.85397 491.691 -0.136297 488.199 0.00742721C483.466 0.248789 480.411 3.53569 479.678 7.24439C478.666 12.57 478.05 17.8456 477.957 23.0634C477.934 26.6963 481.521 29.113 483.888 29.2786C488.46 29.6239 492.092 21.5621 494.86 21.5613C496.922 21.573 498.985 21.5738 501.047 21.5613C503.816 21.5613 507.445 29.6247 512.02 29.2794C514.386 29.1138 518.065 26.6807 517.947 23.0642ZM492.868 12.8832H490.736V15.0156C490.736 15.9155 490.006 16.645 489.107 16.645C488.207 16.645 487.477 15.9155 487.477 15.0156V12.8832H485.345C484.445 12.8832 483.715 12.1536 483.715 11.2538C483.715 10.354 484.445 9.62442 485.345 9.62442H487.477V7.492C487.477 6.59216 488.207 5.86261 489.107 5.86261C490.006 5.86261 490.736 6.59216 490.736 7.492V9.62442H492.868C493.768 9.62442 494.498 10.354 494.498 11.2538C494.498 12.1536 493.768 12.8832 492.868 12.8832ZM506.036 16.6442C504.76 16.6786 503.699 15.671 503.665 14.3962C503.631 13.1168 504.64 12.0544 505.915 12.0216C507.191 11.9896 508.253 12.9965 508.286 14.2728C508.318 15.5491 507.311 16.6114 506.036 16.6442ZM509.883 10.4852C508.607 10.5211 507.544 9.51272 507.509 8.23717C507.477 6.95928 508.484 5.89854 509.76 5.86339C511.038 5.8298 512.099 6.83821 512.133 8.11454C512.167 9.39009 511.157 10.4532 509.883 10.4852Z" fill="#3A3731"/>
</svg>
