<svg width="94" height="62" viewBox="0 0 94 62" fill="none" xmlns="http://www.w3.org/2000/svg">
<g clip-path="url(#clip0_402_17683)">
<path d="M1.73645 7.71605C1.73645 3.88074 4.84558 0.771605 8.68089 0.771605H85.8414C89.6767 0.771605 92.7858 3.88074 92.7858 7.71605V54.0123C92.7858 57.8477 89.6767 60.9568 85.8414 60.9568H8.68089C4.84558 60.9568 1.73645 57.8477 1.73645 54.0123V7.71605Z" fill="#121110" stroke="#272423" stroke-width="1.54321"/>
<path d="M63.1867 19.3523C63.1867 19.5999 63.1866 19.8475 62.9391 20.095C60.9585 29.998 54.5216 33.2164 46.1041 33.2164H41.8953C40.905 33.2164 39.9147 33.9592 39.9147 34.9495L37.6865 48.8136L37.1914 52.7748C37.1914 53.5175 37.6865 54.0126 38.1817 54.0126H45.8565C46.8468 54.0126 47.5895 53.2699 47.5895 52.5272V52.032L49.075 43.1194V42.6242C49.3225 41.6339 50.0652 41.1388 50.808 41.1388H52.0458C59.4731 41.1388 65.1672 38.1679 66.6527 29.5028C67.3954 25.7892 66.9003 22.8183 65.1673 20.8377C64.6721 20.3426 63.9294 19.8474 63.1867 19.3523Z" fill="#2199D6"/>
<path d="M61.2054 18.6099C60.9578 18.6099 60.7103 18.3623 60.2151 18.3623C59.9675 18.3623 59.4724 18.1148 59.2248 18.1148C57.9869 17.8672 56.7491 17.8672 55.5112 17.8672H44.1228C43.8752 17.8672 43.6277 17.8672 43.3801 18.1148C42.8849 18.3623 42.3898 18.8575 42.3898 19.3526L39.9141 34.7022V35.1974C40.1616 34.2071 40.9043 33.4643 41.8946 33.4643H46.1034C54.5209 33.4643 60.9578 29.9983 62.9384 20.3429C62.9384 20.0954 62.9384 19.8478 63.186 19.6002C62.6908 19.3526 62.1957 19.1051 61.7005 18.8575C61.453 18.6099 61.2054 18.6099 61.2054 18.6099Z" fill="#252C5E"/>
<path d="M42.3896 19.352C42.3896 18.8569 42.8847 18.3617 43.3799 18.1142C43.6274 18.1142 43.875 17.8666 44.1226 17.8666H55.511C56.7488 17.8666 58.2343 17.8666 59.2246 18.1142C59.4722 18.1142 59.9673 18.1142 60.2149 18.3617C60.4625 18.3617 60.71 18.6093 61.2052 18.6093C61.4527 18.6093 61.4527 18.6093 61.7003 18.8569C62.1955 19.1045 62.6906 19.352 63.1858 19.5996C63.6809 15.886 63.1858 13.4103 61.2052 11.1821C58.977 8.70635 55.0158 7.71606 50.0644 7.71606H35.4575C34.4672 7.71606 33.4769 8.45878 33.4769 9.44907L27.5352 47.5754C27.5352 48.3182 28.0303 49.0609 28.773 49.0609H37.6857L39.9138 34.7016L42.3896 19.352Z" fill="#2C3E8B"/>
</g>
<defs>
<clipPath id="clip0_402_17683">
<rect width="92.5926" height="61.7284" fill="white" transform="translate(0.964844)"/>
</clipPath>
</defs>
</svg>
