<svg width="38" height="29" viewBox="0 0 38 29" fill="none" xmlns="http://www.w3.org/2000/svg">
<path d="M9 28.5C4.30558 28.5 0.5 24.6944 0.5 20L0.5 9C0.5 4.30558 4.30558 0.5 9 0.5L22.3697 0.5C26.0936 0.5 29.3839 2.92401 30.4877 6.48061L33.9015 17.4806C35.5991 22.9507 31.5109 28.5 25.7834 28.5L9 28.5Z" stroke="#FF6C3D"/>
<path d="M18 21C18 21.5523 17.5523 22 17 22C16.4477 22 16 21.5523 16 21L18 21ZM16.2929 8.29289C16.6834 7.90237 17.3166 7.90237 17.7071 8.29289L24.0711 14.6569C24.4616 15.0474 24.4616 15.6805 24.0711 16.0711C23.6805 16.4616 23.0474 16.4616 22.6569 16.0711L17 10.4142L11.3431 16.0711C10.9526 16.4616 10.3195 16.4616 9.92893 16.0711C9.53841 15.6805 9.53841 15.0474 9.92893 14.6569L16.2929 8.29289ZM16 21L16 9L18 9L18 21L16 21Z" fill="#FFFEFC"/>
</svg>
