<svg width="18" height="18" viewBox="0 0 18 18" fill="none" xmlns="http://www.w3.org/2000/svg">
<g id="life-ring 1" clip-path="url(#clip0_807_2355)">
<path id="Vector" d="M5.24995 9.00009C5.2501 8.2653 5.46746 7.54695 5.8747 6.93534L2.1337 3.19434C0.756273 4.8152 0 6.873 0 9.00009C0 11.1272 0.756273 13.185 2.1337 14.8058L5.8747 11.0648C5.46746 10.4532 5.2501 9.73488 5.24995 9.00009Z" fill="#FF6C3D"/>
<path id="Vector_2" d="M15.866 3.19434L12.125 6.93534C12.5324 7.54689 12.7497 8.26528 12.7497 9.00009C12.7497 9.73489 12.5324 10.4533 12.125 11.0648L15.866 14.8058C17.2434 13.185 17.9997 11.1272 17.9997 9.00009C17.9997 6.873 17.2434 4.8152 15.866 3.19434Z" fill="#FF6C3D"/>
<path id="Vector_3" d="M9.00106 12.7498C8.26627 12.7496 7.54792 12.5322 6.93631 12.125L3.19531 15.866C4.81617 17.2434 6.87397 17.9997 9.00106 17.9997C11.1282 17.9997 13.186 17.2434 14.8068 15.866L11.0658 12.125C10.4542 12.5322 9.73585 12.7496 9.00106 12.7498Z" fill="#FF6C3D"/>
<path id="Vector_4" d="M9.00106 5.24995C9.73585 5.2501 10.4542 5.46746 11.0658 5.8747L14.8068 2.1337C13.186 0.756273 11.1282 0 9.00106 0C6.87397 0 4.81617 0.756273 3.19531 2.1337L6.93631 5.8747C7.54792 5.46746 8.26627 5.2501 9.00106 5.24995Z" fill="#FF6C3D"/>
</g>
<defs>
<clipPath id="clip0_807_2355">
<rect width="18" height="18" fill="white"/>
</clipPath>
</defs>
</svg>
