<svg width="24" height="24" viewBox="0 0 24 24" fill="none" xmlns="http://www.w3.org/2000/svg">
<g id="vuesax/bold/empty-wallet-add">
<g id="empty-wallet-add">
<path id="Vector" d="M8.25864 21.2448C8.90561 20.5978 9.27728 19.7719 9.37364 18.9184C9.50441 17.7828 9.12586 16.6058 8.25864 15.7386C7.74244 15.2224 7.10923 14.8783 6.44161 14.72C5.16831 14.3965 3.75736 14.7337 2.75248 15.7386C2.05733 16.4338 1.67878 17.3216 1.6306 18.237C1.59619 18.6294 1.6306 19.0354 1.73385 19.4277C1.89215 20.0954 2.23628 20.7286 2.75248 21.2448C4.27356 22.7659 6.73756 22.7659 8.25864 21.2448ZM6.96469 17.7759C7.36389 17.7759 7.69426 18.1063 7.69426 18.5055C7.68738 18.9115 7.36389 19.235 6.95781 19.2419L6.23513 19.235L6.24201 19.9302C6.23513 20.3363 5.91164 20.6597 5.50556 20.6666C5.09948 20.6597 4.776 20.3363 4.76911 19.9302L4.776 19.235L4.05331 19.2419C3.64723 19.235 3.32375 18.9115 3.31686 18.5055C3.32375 18.3059 3.40634 18.1269 3.53711 17.9961C3.66788 17.8654 3.84683 17.7828 4.04643 17.7759L4.776 17.7759L4.776 17.0188C4.776 16.8123 4.85859 16.6334 4.98936 16.5026C5.12013 16.3718 5.29908 16.2892 5.50556 16.2892C5.90476 16.2892 6.23513 16.6196 6.23513 17.0188L6.23513 17.7759L6.96469 17.7759Z" fill="#847F7D"/>
<path id="Vector_2" d="M15.0952 3.84548V7.54425H13.6352V3.84548C13.6352 3.58267 13.4016 3.45613 13.2458 3.45613C13.1972 3.45613 13.1485 3.46587 13.0998 3.48533L5.38108 6.39568C4.8652 6.59035 4.53426 7.07703 4.53426 7.63185V8.284C3.6485 8.94589 3.07422 10.0068 3.07422 11.2041V7.63185C3.07422 6.47355 3.78477 5.44179 4.8652 5.03298L12.5937 2.1129C12.8078 2.03503 13.0317 1.99609 13.2458 1.99609C14.2192 1.99609 15.0952 2.78452 15.0952 3.84548Z" fill="#847F7D"/>
<path id="Vector_3" d="M21.5691 14.1151V15.0885C21.5691 15.3513 21.3647 15.5654 21.0921 15.5751H19.671C19.1551 15.5751 18.6879 15.1955 18.649 14.6894C18.6198 14.3876 18.7366 14.1054 18.9313 13.9107C19.1065 13.7258 19.3498 13.6284 19.6126 13.6284H21.0824C21.3647 13.6382 21.5691 13.8523 21.5691 14.1151Z" fill="#847F7D"/>
<path id="Vector_4" d="M19.6019 12.6049H20.5947C21.1301 12.6049 21.5681 12.1669 21.5681 11.6316V11.2033C21.5681 9.18844 19.9231 7.54346 17.9082 7.54346H6.73405C5.9067 7.54346 5.14748 7.816 4.53426 8.28321C3.6485 8.9451 3.07422 10.0061 3.07422 11.2033V12.9359C3.07422 13.3057 3.46356 13.5394 3.81397 13.4226C4.35905 13.2376 4.93334 13.1403 5.50762 13.1403C8.4569 13.1403 10.8611 15.5445 10.8611 18.4938C10.8611 19.1946 10.6762 19.9635 10.3842 20.6449C10.2284 20.9953 10.4718 21.4138 10.8514 21.4138H17.9082C19.9231 21.4138 21.5681 19.7689 21.5681 17.754V17.5691C21.5681 17.0337 21.1301 16.5957 20.5947 16.5957H19.7479C18.8135 16.5957 17.918 16.0214 17.6746 15.1162C17.4799 14.3764 17.7136 13.6562 18.2002 13.1889C18.5604 12.8191 19.0568 12.6049 19.6019 12.6049ZM14.2679 12.4103H9.40106C9.00198 12.4103 8.67104 12.0793 8.67104 11.6802C8.67104 11.2812 9.00198 10.9502 9.40106 10.9502H14.2679C14.6669 10.9502 14.9979 11.2812 14.9979 11.6802C14.9979 12.0793 14.6669 12.4103 14.2679 12.4103Z" fill="#847F7D"/>
</g>
</g>
</svg>
