<svg width="57" height="57" viewBox="0 0 57 57" fill="none" xmlns="http://www.w3.org/2000/svg">
<g id="coupon (1) 1">
<g id="g5340">
<g id="g5342">
<g id="Clip path group">
<mask id="mask0_402_17823" style="mask-type:luminance" maskUnits="userSpaceOnUse" x="4" y="8" width="49" height="49">
<g id="clipPath5348">
<path id="path5346" d="M4 8H53V57H4V8Z" fill="white"/>
</g>
</mask>
<g mask="url(#mask0_402_17823)">
<g id="g5344">
<g id="g5350">
<path id="path5352" d="M18.0948 31.8711H7.44665C6.07169 31.8711 4.95703 30.7564 4.95703 29.3815V11.4466C4.95703 10.0716 6.07169 8.95699 7.44665 8.95699H42.7824L47.9504 14.1251" stroke="#9D604D" stroke-width="2.5" stroke-miterlimit="10" stroke-linecap="round" stroke-linejoin="round"/>
</g>
<g id="g5354">
<path id="path5356" d="M36.5551 45.8163L27.0569 55.3145C26.0846 56.2868 24.5083 56.2868 23.5361 55.3145L10.8543 42.6326C9.88191 41.6604 9.88191 40.084 10.8543 39.1118L35.8403 14.1257H49.4L52.043 16.7687V30.3284L42.6456 39.7258" stroke="#9D604D" stroke-width="2.5" stroke-miterlimit="10" stroke-linecap="round" stroke-linejoin="round"/>
</g>
<g id="g5358">
<path id="path5360" d="M30.418 29.9416L35.8318 35.3555L37.9973 33.1899" stroke="#9D604D" stroke-width="2.5" stroke-miterlimit="10" stroke-linecap="round" stroke-linejoin="round"/>
</g>
<g id="g5362">
<path id="path5364" d="M42.5977 28.5881L40.7029 30.4829L35.2891 25.0691L37.1839 23.1743" stroke="#9D604D" stroke-width="2.5" stroke-miterlimit="10" stroke-linecap="round" stroke-linejoin="round"/>
</g>
<g id="g5366">
<path id="path5368" d="M37.9961 27.7759L39.8909 25.8811" stroke="#9D604D" stroke-width="2.5" stroke-miterlimit="10" stroke-linecap="round" stroke-linejoin="round"/>
</g>
<g id="g5370">
<path id="path5372" d="M33.1225 38.0621L25.9492 34.4077L29.6035 41.5811" stroke="#9D604D" stroke-width="2.5" stroke-miterlimit="10" stroke-linecap="round" stroke-linejoin="round"/>
</g>
<g id="g5374">
<path id="path5376" d="M29.0703 40.313L31.8696 37.5137" stroke="#9D604D" stroke-width="2.5" stroke-miterlimit="10" stroke-linecap="round" stroke-linejoin="round"/>
</g>
<g id="g5378">
<path id="path5380" d="M22.9088 42.8635L22.8378 42.9345C22.0904 43.682 20.8784 43.682 20.131 42.9345C19.3834 42.187 19.3834 40.9751 20.131 40.2277L21.4844 38.8741" stroke="#9D604D" stroke-width="2.5" stroke-miterlimit="10" stroke-linecap="round" stroke-linejoin="round"/>
</g>
<g id="g5382">
<path id="path5384" d="M24.1894 46.9951L25.5428 45.6417C26.2903 44.8941 26.2903 43.6823 25.5428 42.9348C24.7954 42.1873 23.5834 42.1873 22.8359 42.9348" stroke="#9D604D" stroke-width="2.5" stroke-miterlimit="10" stroke-linecap="round" stroke-linejoin="round"/>
</g>
<g id="g5386">
<path id="path5388" d="M47.832 20.2507C47.832 21.3079 46.9751 22.1648 45.918 22.1648C44.8608 22.1648 44.0039 21.3079 44.0039 20.2507C44.0039 19.1936 44.8608 18.3367 45.918 18.3367C46.9751 18.3367 47.832 19.1936 47.832 20.2507Z" stroke="#9D604D" stroke-width="2.5" stroke-miterlimit="10" stroke-linecap="round" stroke-linejoin="round"/>
</g>
<g id="g5390">
<path id="path5392" d="M13.7539 25.9463L19.9269 15.0118" stroke="#9D604D" stroke-width="2.5" stroke-miterlimit="10" stroke-linecap="round" stroke-linejoin="round"/>
</g>
<g id="g5394">
<path id="path5396" d="M23.1022 24.215C23.1022 23.1577 22.2451 22.3007 21.1879 22.3007C20.1306 22.3007 19.2734 23.1577 19.2734 24.215C19.2734 25.2724 20.1306 26.1294 21.1879 26.1294C22.2451 26.1294 23.1022 25.2724 23.1022 24.215Z" stroke="#9D604D" stroke-width="2.5" stroke-miterlimit="10" stroke-linecap="round" stroke-linejoin="round"/>
</g>
<g id="g5398">
<path id="path5400" d="M15.0241 16.613C15.0241 15.5557 14.167 14.6986 13.1098 14.6986C12.0524 14.6986 11.1953 15.5557 11.1953 16.613C11.1953 17.6703 12.0524 18.5273 13.1098 18.5273C14.167 18.5273 15.0241 17.6703 15.0241 16.613Z" stroke="#9D604D" stroke-width="2.5" stroke-miterlimit="10" stroke-linecap="round" stroke-linejoin="round"/>
</g>
<g id="g5402">
<path id="path5404" d="M47.2578 18.9106L52.0432 14.1253" stroke="#9D604D" stroke-width="2.5" stroke-miterlimit="10" stroke-linecap="round" stroke-linejoin="round"/>
</g>
</g>
</g>
</g>
</g>
</g>
</g>
</svg>
