<svg width="51" height="51" viewBox="0 0 51 51" fill="none" xmlns="http://www.w3.org/2000/svg">
<g id="best-price 1" clip-path="url(#clip0_402_17720)">
<g id="g8334">
<g id="g8336">
<path id="path8338" d="M23.5882 24.5959L21.123 27.061L15.4883 21.4263L17.9534 18.9612" stroke="#9D604D" stroke-width="2.5" stroke-miterlimit="22.926" stroke-linecap="round" stroke-linejoin="round"/>
</g>
<g id="g8340">
<path id="path8342" d="M18.6914 23.8562L20.0383 22.5094" stroke="#9D604D" stroke-width="2.5" stroke-miterlimit="22.926" stroke-linecap="round" stroke-linejoin="round"/>
</g>
<g id="g8344">
<path id="path8346" d="M25.5938 11.7488L31.0128 17.1677" stroke="#9D604D" stroke-width="2.5" stroke-miterlimit="22.926" stroke-linecap="round" stroke-linejoin="round"/>
</g>
<g id="g8348">
<path id="path8350" d="M24.1484 12.7656L26.6137 10.3004" stroke="#9D604D" stroke-width="2.5" stroke-miterlimit="22.926" stroke-linecap="round" stroke-linejoin="round"/>
</g>
<g id="g8352">
<g id="Clip path group">
<mask id="mask0_402_17720" style="mask-type:luminance" maskUnits="userSpaceOnUse" x="0" y="0" width="51" height="51">
<g id="clipPath8358">
<path id="path8356" d="M0 3.8147e-06H51V51H0V3.8147e-06Z" fill="white"/>
</g>
</mask>
<g mask="url(#mask0_402_17720)">
<g id="g8354">
<g id="g8360">
<path id="path8362" d="M10.3008 26.6122L11.7095 25.2034C12.4843 24.4287 13.752 24.4287 14.5268 25.2034C15.3017 25.9783 15.3017 27.246 14.5268 28.0209C15.3017 27.246 16.5694 27.246 17.3442 28.0209C18.119 28.7957 18.119 30.0634 17.3442 30.8382L15.9355 32.2468L10.3008 26.6122Z" stroke="#9D604D" stroke-width="2.5" stroke-miterlimit="22.926" stroke-linecap="round" stroke-linejoin="round"/>
</g>
<g id="g8364">
<path id="path8366" d="M13.4531 29.095L14.5272 28.0209" stroke="#9D604D" stroke-width="2.5" stroke-miterlimit="22.926" stroke-linecap="round" stroke-linejoin="round"/>
</g>
<g id="g8368">
<path id="path8370" d="M22.3543 15.0775L21.8248 15.2968C20.8301 15.7089 20.3534 16.8597 20.7655 17.8543C21.1775 18.8489 22.3282 19.3255 23.3228 18.9137L23.8526 18.6943L24.3821 18.4748C25.3767 18.0629 26.5275 18.5396 26.9395 19.5342C27.3515 20.5289 26.8748 21.6796 25.8801 22.0917L25.3506 22.311" stroke="#9D604D" stroke-width="2.5" stroke-miterlimit="22.926" stroke-linecap="round" stroke-linejoin="round"/>
</g>
<g id="g8372">
<path id="path8374" d="M36.419 25.852C37.1937 26.6268 37.1937 27.8946 36.419 28.6693C35.6442 29.4442 34.3764 29.4442 33.6016 28.6693L30.7843 25.8519C30.0094 25.0771 30.0094 23.8093 30.7843 23.0345C31.559 22.2598 32.8268 22.2598 33.6016 23.0345" stroke="#9D604D" stroke-width="2.5" stroke-miterlimit="22.926" stroke-linecap="round" stroke-linejoin="round"/>
</g>
<g id="g8376">
<path id="path8378" d="M27.6114 37.4736L21.9766 31.8387L23.3852 30.4301C24.16 29.6553 25.4278 29.6553 26.2025 30.4301C26.9774 31.2048 26.9774 32.4726 26.2025 33.2474L25.0581 34.392" stroke="#9D604D" stroke-width="2.5" stroke-miterlimit="22.926" stroke-linecap="round" stroke-linejoin="round"/>
</g>
<g id="g8380">
<path id="path8382" d="M26.2031 33.2474L30.4294 34.6562" stroke="#9D604D" stroke-width="2.5" stroke-miterlimit="22.926" stroke-linecap="round" stroke-linejoin="round"/>
</g>
<g id="g8384">
<path id="path8386" d="M26.9102 26.9085L32.5449 32.5432" stroke="#9D604D" stroke-width="2.5" stroke-miterlimit="22.926" stroke-linecap="round" stroke-linejoin="round"/>
</g>
<g id="g8388">
<path id="path8390" d="M22.6818 42.4041L17.0469 36.7693L18.4556 35.3605C19.2304 34.5857 20.4981 34.5857 21.2729 35.3605C22.0478 36.1352 22.0478 37.4032 21.2729 38.1779L20.1284 39.3224" stroke="#9D604D" stroke-width="2.5" stroke-miterlimit="22.926" stroke-linecap="round" stroke-linejoin="round"/>
</g>
<g id="g8392">
<path id="path8394" d="M42.4046 22.6822L39.9394 25.1475L34.3047 19.5128L36.7699 17.0475" stroke="#9D604D" stroke-width="2.5" stroke-miterlimit="22.926" stroke-linecap="round" stroke-linejoin="round"/>
</g>
<g id="g8396">
<path id="path8398" d="M37.5078 21.9429L38.8547 20.596" stroke="#9D604D" stroke-width="2.5" stroke-miterlimit="22.926" stroke-linecap="round" stroke-linejoin="round"/>
</g>
<g id="g8400">
<path id="path8402" d="M18.8085 12.4697L30.2824 0.995749H50.004V20.7174L20.7178 50.0037L0.996094 30.282L12.4694 18.8088" stroke="#9D604D" stroke-width="2.5" stroke-miterlimit="22.926" stroke-linecap="round" stroke-linejoin="round"/>
</g>
<g id="g8404">
<path id="path8406" d="M42.0119 5.81851C42.8872 4.94324 44.3062 4.94324 45.1815 5.81851C46.0567 6.69378 46.0567 8.11281 45.1815 8.98808C44.3062 9.86335 42.8872 9.86335 42.0119 8.98808C41.1367 8.11281 41.1367 6.69378 42.0119 5.81851Z" stroke="#9D604D" stroke-width="2.5" stroke-miterlimit="22.926" stroke-linecap="round" stroke-linejoin="round"/>
</g>
<g id="g8408">
<path id="path8410" d="M15.6415 15.6384L15.6406 15.6394" stroke="#9D604D" stroke-width="2.5" stroke-miterlimit="2.613" stroke-linecap="round" stroke-linejoin="round"/>
</g>
</g>
</g>
</g>
</g>
</g>
</g>
<defs>
<clipPath id="clip0_402_17720">
<rect width="51" height="51" fill="white"/>
</clipPath>
</defs>
</svg>
