<svg width="12" height="12" viewBox="0 0 12 12" fill="none" xmlns="http://www.w3.org/2000/svg">
<g id="thumbs-up 1" clip-path="url(#clip0_807_2370)">
<path id="Vector" d="M11.3865 3.8602C11.152 3.59 10.8623 3.37334 10.5368 3.22488C10.2113 3.07642 9.85774 2.99962 9.5 2.9997H7.5055L7.6735 1.9792C7.73294 1.61983 7.66123 1.25107 7.47143 0.94017C7.28164 0.629272 6.98641 0.396957 6.6396 0.285596C6.29279 0.174236 5.9175 0.191251 5.58219 0.333538C5.24688 0.475825 4.97388 0.733903 4.813 1.0607L4 2.7082V10.4997H9.15C9.75173 10.4972 10.3326 10.2789 10.7869 9.88428C11.2412 9.48971 11.5388 8.94516 11.6255 8.3497L11.978 5.8497C12.0278 5.49506 12.0008 5.13385 11.8988 4.79058C11.7967 4.44731 11.622 4.13 11.3865 3.8602Z" fill="#847F7D"/>
<path id="Vector_2" d="M0 5.5V8C0.000793929 8.6628 0.264441 9.29822 0.73311 9.76689C1.20178 10.2356 1.8372 10.4992 2.5 10.5H3V3H2.5C1.8372 3.00079 1.20178 3.26444 0.73311 3.73311C0.264441 4.20178 0.000793929 4.8372 0 5.5Z" fill="#847F7D"/>
</g>
<defs>
<clipPath id="clip0_807_2370">
<rect width="12" height="12" fill="white"/>
</clipPath>
</defs>
</svg>
