<svg width="58" height="76" viewBox="0 0 58 76" fill="none" xmlns="http://www.w3.org/2000/svg">
<path d="M57.5 67C57.5 71.6944 53.6944 75.5 49 75.5H9C4.30558 75.5 0.5 71.6944 0.5 67V24.6303C0.5 20.9064 2.924 17.6161 6.48061 16.5123L46.4806 4.09851C51.9507 2.4009 57.5 6.4891 57.5 12.2166V67Z" stroke="#847F7D"/>
<g clip-path="url(#clip0_402_18299)">
<path d="M22.341 47.5064L21.7786 55.4171C22.5833 55.4171 22.9318 55.0714 23.3497 54.6563L27.1223 51.0509L34.9394 56.7757C36.3731 57.5747 37.3832 57.1539 37.7699 55.4568L42.9011 31.4131L42.9025 31.4117C43.3573 29.2923 42.1361 28.4636 40.7393 28.9835L10.5784 40.5308C8.52 41.3298 8.55117 42.4773 10.2285 42.9972L17.9394 45.3956L35.8503 34.1883C36.6932 33.6302 37.4597 33.939 36.8292 34.4972L22.341 47.5064Z" fill="#4A86BC"/>
</g>
<defs>
<clipPath id="clip0_402_18299">
<rect width="34" height="34" fill="white" transform="translate(9 26)"/>
</clipPath>
</defs>
</svg>
