<svg width="58" height="76" viewBox="0 0 58 76" fill="none" xmlns="http://www.w3.org/2000/svg">
<path d="M57.5 67C57.5 71.6944 53.6944 75.5 49 75.5H9C4.30558 75.5 0.5 71.6944 0.5 67V24.6303C0.5 20.9064 2.924 17.6161 6.48061 16.5123L46.4806 4.09851C51.9507 2.4009 57.5 6.4891 57.5 12.2166V67Z" stroke="#847F7D"/>
<g clip-path="url(#clip0_402_18303)">
<path d="M30.004 27H29.996C21.174 27 14 34.176 14 43C14 46.5 15.128 49.744 17.046 52.378L15.052 58.322L21.202 56.356C23.732 58.032 26.75 59 30.004 59C38.826 59 46 51.822 46 43C46 34.178 38.826 27 30.004 27Z" fill="#4CAF50"/>
<path d="M39.3131 49.594C38.9271 50.684 37.3951 51.588 36.1731 51.852C35.3371 52.03 34.2451 52.172 30.5691 50.648C25.8671 48.7 22.8391 43.922 22.6031 43.612C22.3771 43.302 20.7031 41.082 20.7031 38.786C20.7031 36.49 21.8691 35.372 22.3391 34.892C22.7251 34.498 23.3631 34.318 23.9751 34.318C24.1731 34.318 24.3511 34.328 24.5111 34.336C24.9811 34.356 25.2171 34.384 25.5271 35.126C25.9131 36.056 26.8531 38.352 26.9651 38.588C27.0791 38.824 27.1931 39.144 27.0331 39.454C26.8831 39.774 26.7511 39.916 26.5151 40.188C26.2791 40.46 26.0551 40.668 25.8191 40.96C25.6031 41.214 25.3591 41.486 25.6311 41.956C25.9031 42.416 26.8431 43.95 28.2271 45.182C30.0131 46.772 31.4611 47.28 31.9791 47.496C32.3651 47.656 32.8251 47.618 33.1071 47.318C33.4651 46.932 33.9071 46.292 34.3571 45.662C34.6771 45.21 35.0811 45.154 35.5051 45.314C35.9371 45.464 38.2231 46.594 38.6931 46.828C39.1631 47.064 39.4731 47.176 39.5871 47.374C39.6991 47.572 39.6991 48.502 39.3131 49.594Z" fill="#FAFAFA"/>
</g>
<defs>
<clipPath id="clip0_402_18303">
<rect width="32" height="32" fill="white" transform="translate(14 27)"/>
</clipPath>
</defs>
</svg>
