<svg width="28" height="28" viewBox="0 0 28 28" fill="none" xmlns="http://www.w3.org/2000/svg">
<path d="M21.7814 2.33337H19.5647C17.0214 2.33337 15.6797 3.67504 15.6797 6.21837V8.43504C15.6797 10.9784 17.0214 12.32 19.5647 12.32H21.7814C24.3247 12.32 25.6664 10.9784 25.6664 8.43504V6.21837C25.6664 3.67504 24.3247 2.33337 21.7814 2.33337Z" fill="#847F7D"/>
<path d="M8.44536 15.6683H6.2287C3.6737 15.6683 2.33203 17.01 2.33203 19.5533V21.77C2.33203 24.325 3.6737 25.6667 6.21703 25.6667H8.4337C10.977 25.6667 12.3187 24.325 12.3187 21.7817V19.565C12.3304 17.01 10.9887 15.6683 8.44536 15.6683Z" fill="#847F7D"/>
<path d="M7.33703 12.3434C10.1012 12.3434 12.342 10.1026 12.342 7.33837C12.342 4.57419 10.1012 2.33337 7.33703 2.33337C4.57285 2.33337 2.33203 4.57419 2.33203 7.33837C2.33203 10.1026 4.57285 12.3434 7.33703 12.3434Z" fill="#847F7D"/>
<path d="M20.6612 25.6666C23.4254 25.6666 25.6662 23.4258 25.6662 20.6616C25.6662 17.8974 23.4254 15.6566 20.6612 15.6566C17.8971 15.6566 15.6562 17.8974 15.6562 20.6616C15.6562 23.4258 17.8971 25.6666 20.6612 25.6666Z" fill="#847F7D"/>
</svg>
