<svg width="20" height="20" viewBox="0 0 20 20" fill="none" xmlns="http://www.w3.org/2000/svg">
<g id="russia (4) 1" clip-path="url(#clip0_1028_63376)">
<g id="Layer 2">
<g id="Layer 1">
<g id="40.Russia">
<g id="Shape 01">
<path id="Vector" d="M18.5844 0H1.4156C0.633786 0 0 0.633786 0 1.4156V18.5844C0 19.3662 0.633786 20 1.4156 20H18.5844C19.3662 20 20 19.3662 20 18.5844V1.4156C20 0.633786 19.3662 0 18.5844 0Z" fill="#D52B1E"/>
</g>
<g id="Shape 02">
<path id="Vector_2" d="M0 6.66699H20V13.3338H0V6.66699Z" fill="#0039A6"/>
</g>
<g id="Shape 03">
<path id="Vector_3" d="M20 6.6668H5.65503e-08V1.4156C-5.24987e-05 1.22969 0.0365272 1.04558 0.107649 0.873811C0.178771 0.702039 0.283041 0.545964 0.414502 0.414502C0.545964 0.283041 0.702039 0.178771 0.873811 0.107649C1.04558 0.0365272 1.22969 -5.24987e-05 1.4156 5.65503e-08H18.5844C18.7703 -5.24987e-05 18.9544 0.0365272 19.1262 0.107649C19.298 0.178771 19.454 0.283041 19.5855 0.414502C19.717 0.545964 19.8212 0.702039 19.8924 0.873811C19.9635 1.04558 20.0001 1.22969 20 1.4156V6.6668Z" fill="white"/>
</g>
</g>
</g>
</g>
</g>
<defs>
<clipPath id="clip0_1028_63376">
<rect width="20" height="20" fill="white"/>
</clipPath>
</defs>
</svg>
