<svg width="46" height="25" viewBox="0 0 46 25" fill="none" xmlns="http://www.w3.org/2000/svg">
<path d="M20.8847 13.9881C20.5187 11.5274 20.913 9.01357 22.0147 6.7839C23.1165 4.55423 24.873 2.71549 27.0484 1.51454C29.2238 0.313593 31.7139 -0.192091 34.1846 0.0653801C36.6552 0.322853 38.9881 1.33116 40.87 2.95493C42.7519 4.5787 44.0928 6.74021 44.7126 9.14929C45.3324 11.5584 45.2015 14.0997 44.3375 16.4321C43.4734 18.7645 41.9176 20.7764 39.8788 22.1976C37.8401 23.6188 35.416 24.3813 32.932 24.3828L32.9285 18.5571C34.2255 18.5563 35.4913 18.1581 36.5558 17.4161C37.6203 16.674 38.4327 15.6235 38.8838 14.4057C39.335 13.1878 39.4034 11.8608 39.0797 10.603C38.7561 9.34507 38.056 8.21644 37.0733 7.3686C36.0907 6.52075 34.8726 5.99427 33.5826 5.85983C32.2925 5.7254 30.9923 5.98944 29.8564 6.61651C28.7205 7.24358 27.8034 8.20366 27.2281 9.36788C26.6528 10.5321 26.447 11.8447 26.6381 13.1295L20.8847 13.9881Z" fill="#32302C"/>
<path d="M33.076 24.3828H20.7518V23.8527C20.7518 20.9253 23.1214 18.5521 26.0444 18.5521H33.076V24.3828Z" fill="#32302C"/>
<path d="M21.2811 9.23815H33.7942V9.76822C33.7942 12.6957 31.4247 15.0688 28.5017 15.0688H22.3267C21.4258 15.0688 20.7248 14.285 20.8236 13.3882L21.2811 9.23815Z" fill="#32302C"/>
<path d="M24.2129 10.3948C24.579 12.8554 24.1847 15.3692 23.0829 17.5989C21.9812 19.8286 20.2247 21.6673 18.0493 22.8683C15.8739 24.0692 13.3837 24.5749 10.9131 24.3174C8.44243 24.06 6.10956 23.0517 4.22765 21.4279C2.34574 19.8041 1.00487 17.6426 0.385052 15.2335C-0.234766 12.8244 -0.103865 10.2831 0.760182 7.9507C1.62423 5.61828 3.18006 3.60643 5.21882 2.18522C7.25757 0.764017 9.68166 0.0014881 12.1657 2.17468e-06L12.1691 5.82574C10.8721 5.82651 9.60639 6.22466 8.54187 6.96674C7.47734 7.70882 6.66497 8.7593 6.21381 9.97716C5.76265 11.195 5.6943 12.522 6.01794 13.7799C6.34157 15.0377 7.0417 16.1664 8.02433 17.0142C9.00696 17.8621 10.2251 18.3885 11.5151 18.523C12.8051 18.6574 14.1054 18.3934 15.2412 17.7663C16.3771 17.1392 17.2943 16.1791 17.8695 15.0149C18.4448 13.8507 18.6507 12.5381 18.4596 11.2533L24.2129 10.3948Z" fill="#4A4842"/>
<path d="M12.0217 0H24.3458V0.530063C24.3458 3.45752 21.9763 5.83069 19.0533 5.83069H12.0217V0Z" fill="#4A4842"/>
<path d="M23.8166 15.1447H11.3034V14.6146C11.3034 11.6871 13.673 9.31396 16.596 9.31396H22.771C23.6718 9.31396 24.3729 10.0978 24.274 10.9946L23.8166 15.1447Z" fill="#4A4842"/>
</svg>
