<svg width="67" height="67" viewBox="0 0 67 67" fill="none" xmlns="http://www.w3.org/2000/svg">
<g id="Group 144739">
<path id="Rectangle 239" d="M0 10C0 4.47715 4.47715 0 10 0H57C62.5228 0 67 4.47715 67 10V57C67 62.5228 62.5228 67 57 67H10C4.47715 67 0 62.5228 0 57V10Z" fill="#2E2D2B"/>
<g id="Group 5">
<g id="Group 4">
<g id="Group 2">
<g id="Group 1">
<path id="Ellipse 1" d="M43.5274 37.5163C42.6004 39.7312 40.9524 41.568 38.8505 42.7288C36.7487 43.8896 34.3164 44.3064 31.948 43.9115C29.5796 43.5166 27.4141 42.3332 25.8026 40.5532C24.1912 38.7732 23.2282 36.5011 23.07 34.1052C22.9118 31.7094 23.5676 29.3303 24.9311 27.3539C26.2945 25.3775 28.2856 23.9196 30.5815 23.2167C32.8774 22.5138 35.3434 22.6071 37.5796 23.4815C39.8158 24.3558 41.6911 25.96 42.9013 28.0338L33.7002 33.4033L43.5274 37.5163Z" fill="#FF7347"/>
<g id="Vector">
<path d="M36.5234 28.3496C36.5234 29.0884 35.9244 29.6874 35.1855 29.6874C34.4466 29.6874 33.8477 29.0884 33.8477 28.3496C33.8477 27.6107 34.4466 27.0117 35.1855 27.0117C35.9244 27.0117 36.5234 27.6107 36.5234 28.3496Z" fill="white"/>
<path d="M36.5234 28.3496C36.5234 29.0884 35.9244 29.6874 35.1855 29.6874C34.4466 29.6874 33.8477 29.0884 33.8477 28.3496C33.8477 27.6107 34.4466 27.0117 35.1855 27.0117C35.9244 27.0117 36.5234 27.6107 36.5234 28.3496Z" fill="white"/>
<path d="M38.8274 41.5736C40.386 40.8182 41.6084 39.5107 42.2575 37.9049L41.2336 37.491C40.6871 38.843 40.1396 40.9376 38.8274 41.5736Z" fill="white"/>
<path d="M38.8274 41.5736C40.386 40.8182 41.6084 39.5107 42.2575 37.9049L41.2336 37.491C40.6871 38.843 40.1396 40.9376 38.8274 41.5736Z" fill="white"/>
<path d="M35.6585 35.0824L42.1369 37.864L41.7459 38.7746L35.6585 35.0824Z" fill="white"/>
<path d="M35.6585 35.0824L42.1369 37.864L41.7459 38.7746L35.6585 35.0824Z" fill="white"/>
</g>
</g>
<path id="Ellipse 3" d="M48.4012 26.4138C46.6435 22.7178 43.5749 19.8069 39.7914 18.2464C36.0078 16.686 31.7794 16.5873 27.9272 17.9697C24.075 19.352 20.874 22.1166 18.9459 25.7267C17.0177 29.3368 16.5001 33.5346 17.4934 37.5049C18.4867 41.4752 20.9201 44.9347 24.3211 47.2115C27.7221 49.4883 31.8478 50.4199 35.8971 49.8254C39.9464 49.2309 43.6302 47.1527 46.2332 43.9944C48.8362 40.8361 50.1725 36.647 49.9827 32.5587H46.6726C45.9373 32.5587 38.9012 32.5587 38.9012 32.5587C38.9012 32.5587 45.6471 35.8291 46.3626 36.1759C45.9115 38.2692 44.9983 40.2826 43.6761 41.8869C41.5959 44.4109 38.6518 46.0718 35.4157 46.5469C32.1796 47.022 28.8825 46.2775 26.1645 44.4579C23.4465 42.6384 21.5018 39.8737 20.7079 36.7007C19.9141 33.5277 20.3278 30.1729 21.8687 27.2878C23.4096 24.4027 25.9678 22.1933 29.0464 21.0886C32.125 19.9838 35.5042 20.0627 38.528 21.3097C41.5517 22.5568 44.0866 25.0959 45.4913 28.0497L48.4012 26.4138Z" fill="#FFFEFC"/>
</g>
</g>
</g>
</g>
</svg>
