<svg width="28" height="28" viewBox="0 0 28 28" fill="none" xmlns="http://www.w3.org/2000/svg">
<path id="Vector" d="M27.5333 9.8H26.1333V6.53335C26.1325 6.27594 25.9241 6.06742 25.6667 6.06671H24.2667V4.2C24.2667 3.94226 24.0578 3.73335 23.8 3.73335H22.4V2.33335C22.3992 2.07594 22.1908 1.86741 21.9334 1.8667H20.0667V0.466703C20.0659 0.209234 19.8574 0.000765625 19.6 0H7.9333C7.67589 0.000765625 7.46736 0.209234 7.46665 0.466649V1.86665H6.06665C5.80924 1.86741 5.60071 2.07588 5.6 2.3333V3.7333H4.19995C3.9422 3.7333 3.7333 3.9422 3.7333 4.19995V5.59995H2.3333C2.07588 5.60071 1.86736 5.80918 1.86665 6.0666V9.8H0.466649C0.209234 9.80077 0.000710938 10.0092 0 10.2667V25.6667C0.000765625 25.9241 0.209234 26.1326 0.466649 26.1333H1.86665V27.5333C1.86741 27.7907 2.07588 27.9992 2.3333 28H6.06665C6.32407 27.9992 6.53259 27.7907 6.5333 27.5333V26.1333H8.39995C8.65736 26.1325 8.86589 25.9241 8.8666 25.6667V24.2667H9.79995V25.6667C9.80071 25.9241 10.0092 26.1326 10.2666 26.1333H11.6666V27.5491C11.6666 27.6692 11.7145 27.7844 11.7998 27.869C11.885 27.9537 12.0005 28.0008 12.1206 28H15.8793C15.9994 28.0008 16.1149 27.9537 16.2001 27.869C16.2853 27.7844 16.3333 27.6692 16.3333 27.5491V26.1333H17.7333C17.9907 26.1325 18.1992 25.9241 18.2 25.6667V24.2667H19.1333V25.6667C19.1341 25.9241 19.3425 26.1326 19.6 26.1333H21.4666V27.5333C21.4674 27.7907 21.6758 27.9992 21.9333 28H25.6666C25.924 27.9992 26.1325 27.7907 26.1333 27.5333V26.1333H27.5333C27.7907 26.1325 27.9992 25.9241 27.9999 25.6667V10.2667C27.9992 10.0092 27.7907 9.80077 27.5333 9.8ZM13.5333 13.5334H12.5999V15.8773C12.6007 15.9981 12.5532 16.1141 12.4681 16.1997C12.3829 16.2853 12.2672 16.3334 12.1464 16.3333H8.38682C8.26607 16.3334 8.1503 16.2853 8.06515 16.1997C7.98 16.1141 7.93253 15.998 7.9333 15.8773V13.5334H6.99995V8.86671H8.39995C8.65736 8.86594 8.86589 8.65747 8.8666 8.40006V7H11.6666V8.41925C11.6667 8.53853 11.7143 8.65282 11.7989 8.73682C11.8836 8.82082 11.9983 8.86758 12.1175 8.86671H13.5333V13.5334ZM25.2 13.5334H24.2666V15.8667C24.2666 16.1245 24.0577 16.3334 23.8 16.3334H20.0539C19.9331 16.3335 19.8172 16.2855 19.732 16.1998C19.6468 16.1142 19.5992 15.9981 19.6 15.8773V13.5334H18.2V8.86671H20.0666C20.324 8.86594 20.5325 8.65747 20.5333 8.40006V7H23.3333V8.4C23.334 8.65742 23.5425 8.86594 23.7999 8.86665H25.1999L25.2 13.5334Z" fill="#FF6C3D"/>
</svg>
