<svg width="403" height="213" viewBox="0 0 403 213" fill="none" xmlns="http://www.w3.org/2000/svg">
<path d="M14.6158 187.681C7.07876 187.681 0.96875 193.283 0.96875 200.193C0.96875 207.103 7.07876 212.705 14.6158 212.705C22.1529 212.705 28.2629 207.103 28.2629 200.193C28.2629 193.283 22.1529 187.681 14.6158 187.681ZM19.2717 201.551L14.6577 204.608C14.4903 206.26 12.9491 207.553 11.0925 207.553C10.2769 207.554 9.48539 207.3 8.84817 206.833C8.21096 206.366 7.76596 205.715 7.58637 204.985L5.15872 204.101V199.988L9.2607 201.492C9.90086 201.142 10.6199 200.985 11.457 201.052L14.4509 197.156C14.4706 194.767 16.6225 192.832 19.2619 192.832C21.9161 192.832 24.068 194.79 24.0729 197.187C24.0729 199.602 21.9161 201.551 19.2717 201.551Z" fill="#3A3731"/>
<path d="M11.0919 201.892C10.8997 201.891 10.708 201.911 10.5207 201.95L11.6188 202.354C11.8737 202.445 12.1063 202.581 12.3032 202.755C12.5002 202.929 12.6575 203.137 12.766 203.367C12.8746 203.597 12.9322 203.845 12.9356 204.096C12.939 204.346 12.8881 204.595 12.7859 204.828C12.6822 205.062 12.5293 205.275 12.3357 205.454C12.1422 205.634 11.9119 205.777 11.6581 205.875C11.4042 205.973 11.1318 206.024 10.8563 206.025C10.5809 206.027 10.3078 205.978 10.0529 205.883C9.62446 205.73 9.18622 205.564 8.75781 205.416C8.97269 205.797 9.29434 206.118 9.68969 206.348C10.0851 206.577 10.5399 206.705 11.0074 206.72C11.4748 206.735 11.9382 206.635 12.3497 206.431C12.7612 206.227 13.1061 205.927 13.3489 205.56C13.5917 205.193 13.7236 204.774 13.7311 204.345C13.7386 203.916 13.6214 203.494 13.3916 203.12C13.1618 202.747 12.8276 202.436 12.4234 202.22C12.0193 202.004 11.5597 201.891 11.0919 201.892Z" fill="#3A3731"/>
<path d="M19.2655 194.269C17.478 194.269 16.0352 195.58 16.0352 197.191C16.0352 198.812 17.4829 200.114 19.2655 200.114C21.0333 200.119 22.4862 198.812 22.481 197.191C22.4811 195.58 21.0334 194.269 19.2655 194.269ZM19.2581 198.947C18.8803 198.943 18.5122 198.837 18.2 198.642C17.8879 198.446 17.6456 198.171 17.5039 197.85C17.3621 197.529 17.3271 197.177 17.4033 196.837C17.4795 196.498 17.6634 196.187 17.932 195.943C18.2006 195.7 18.5417 195.534 18.9126 195.468C19.2834 195.402 19.6673 195.438 20.016 195.571C20.3647 195.705 20.6625 195.93 20.8719 196.218C21.0814 196.506 21.1932 196.845 21.1932 197.191C21.1923 197.423 21.1415 197.652 21.0436 197.866C20.9458 198.08 20.8029 198.274 20.6232 198.437C20.4434 198.6 20.2303 198.729 19.996 198.817C19.7618 198.904 19.511 198.948 19.2582 198.947H19.2581Z" fill="#3A3731"/>
<path d="M78.5885 187.681C71.0514 187.681 64.9414 193.283 64.9414 200.193C64.9414 207.103 71.0514 212.705 78.5885 212.705C86.1255 212.705 92.2355 207.103 92.2355 200.193C92.2355 193.283 86.1255 187.681 78.5885 187.681ZM83.2444 201.551L78.6303 204.608C78.4629 206.26 76.9217 207.553 75.0651 207.553C74.2495 207.554 73.458 207.3 72.8208 206.833C72.1836 206.366 71.7386 205.715 71.559 204.985L69.1314 204.101V199.988L73.2334 201.492C73.8735 201.142 74.5926 200.985 75.4296 201.052L78.4236 197.156C78.4433 194.767 80.5952 192.832 83.2346 192.832C85.8888 192.832 88.0407 194.79 88.0456 197.187C88.0455 199.602 85.8887 201.551 83.2444 201.551Z" fill="#3A3731"/>
<path d="M75.0646 201.892C74.8723 201.891 74.6807 201.911 74.4933 201.95L75.5915 202.354C75.8463 202.445 76.079 202.581 76.2759 202.755C76.4728 202.929 76.6301 203.137 76.7387 203.367C76.8472 203.597 76.9049 203.845 76.9083 204.096C76.9117 204.346 76.8608 204.595 76.7585 204.828C76.6549 205.062 76.5019 205.275 76.3084 205.454C76.1149 205.634 75.8846 205.777 75.6307 205.875C75.3769 205.973 75.1044 206.024 74.829 206.025C74.5535 206.027 74.2805 205.978 74.0255 205.883C73.5971 205.73 73.1589 205.564 72.7305 205.416C72.9453 205.797 73.267 206.118 73.6624 206.348C74.0577 206.577 74.5125 206.705 74.98 206.72C75.4475 206.735 75.9108 206.635 76.3224 206.431C76.7339 206.227 77.0788 205.927 77.3215 205.56C77.5643 205.193 77.6963 204.774 77.7038 204.345C77.7113 203.916 77.5941 203.494 77.3643 203.12C77.1344 202.747 76.8003 202.436 76.3961 202.22C75.9919 202.004 75.5323 201.891 75.0646 201.892Z" fill="#3A3731"/>
<path d="M83.2381 194.269C81.4506 194.269 80.0078 195.58 80.0078 197.191C80.0078 198.812 81.4555 200.114 83.2381 200.114C85.006 200.119 86.4588 198.812 86.4537 197.191C86.4538 195.58 85.006 194.269 83.2381 194.269ZM83.2308 198.947C82.853 198.943 82.4848 198.837 82.1727 198.642C81.8605 198.446 81.6183 198.171 81.4765 197.85C81.3347 197.529 81.2997 197.177 81.3759 196.837C81.4521 196.498 81.6361 196.187 81.9046 195.943C82.1732 195.7 82.5144 195.534 82.8852 195.468C83.2561 195.402 83.64 195.438 83.9886 195.571C84.3373 195.705 84.6351 195.93 84.8446 196.218C85.0541 196.506 85.1659 196.845 85.1659 197.191C85.1649 197.423 85.1141 197.652 85.0163 197.866C84.9185 198.08 84.7756 198.274 84.5958 198.437C84.416 198.6 84.2029 198.729 83.9687 198.817C83.7344 198.904 83.4837 198.948 83.2308 198.947H83.2308Z" fill="#3A3731"/>
<path d="M142.557 187.681C135.02 187.681 128.91 193.283 128.91 200.193C128.91 207.103 135.02 212.705 142.557 212.705C150.094 212.705 156.204 207.103 156.204 200.193C156.204 193.283 150.094 187.681 142.557 187.681ZM147.213 201.551L142.599 204.608C142.432 206.26 140.89 207.553 139.034 207.553C138.218 207.554 137.427 207.3 136.79 206.833C136.152 206.366 135.707 205.715 135.528 204.985L133.1 204.101V199.988L137.202 201.492C137.842 201.142 138.561 200.985 139.398 201.052L142.392 197.156C142.412 194.767 144.564 192.832 147.203 192.832C149.858 192.832 152.009 194.79 152.014 197.187C152.014 199.602 149.857 201.551 147.213 201.551Z" fill="#3A3731"/>
<path d="M139.033 201.892C138.841 201.891 138.649 201.911 138.462 201.95L139.56 202.354C139.815 202.445 140.048 202.581 140.245 202.755C140.442 202.929 140.599 203.137 140.707 203.367C140.816 203.597 140.874 203.845 140.877 204.096C140.88 204.346 140.83 204.595 140.727 204.828C140.624 205.062 140.471 205.275 140.277 205.454C140.084 205.634 139.853 205.777 139.599 205.875C139.346 205.973 139.073 206.024 138.798 206.025C138.522 206.027 138.249 205.978 137.994 205.883C137.566 205.73 137.128 205.564 136.699 205.416C136.914 205.797 137.236 206.118 137.631 206.348C138.026 206.577 138.481 206.705 138.949 206.72C139.416 206.735 139.88 206.635 140.291 206.431C140.703 206.227 141.048 205.927 141.29 205.56C141.533 205.193 141.665 204.774 141.673 204.345C141.68 203.916 141.563 203.494 141.333 203.12C141.103 202.747 140.769 202.436 140.365 202.22C139.961 202.004 139.501 201.891 139.033 201.892Z" fill="#3A3731"/>
<path d="M147.207 194.269C145.419 194.269 143.977 195.58 143.977 197.191C143.977 198.812 145.424 200.114 147.207 200.114C148.975 200.119 150.428 198.812 150.422 197.191C150.423 195.58 148.975 194.269 147.207 194.269ZM147.2 198.947C146.822 198.943 146.454 198.837 146.141 198.642C145.829 198.446 145.587 198.171 145.445 197.85C145.303 197.529 145.268 197.177 145.345 196.837C145.421 196.498 145.605 196.187 145.873 195.943C146.142 195.7 146.483 195.534 146.854 195.468C147.225 195.402 147.609 195.438 147.957 195.571C148.306 195.705 148.604 195.93 148.813 196.218C149.023 196.506 149.135 196.845 149.135 197.191C149.134 197.423 149.083 197.652 148.985 197.866C148.887 198.08 148.744 198.274 148.565 198.437C148.385 198.6 148.172 198.729 147.937 198.817C147.703 198.904 147.452 198.948 147.2 198.947H147.2Z" fill="#3A3731"/>
<path d="M206.53 187.681C198.993 187.681 192.883 193.283 192.883 200.193C192.883 207.103 198.993 212.705 206.53 212.705C214.067 212.705 220.177 207.103 220.177 200.193C220.177 193.283 214.067 187.681 206.53 187.681ZM211.186 201.551L206.572 204.608C206.404 206.26 204.863 207.553 203.007 207.553C202.191 207.554 201.399 207.3 200.762 206.833C200.125 206.366 199.68 205.715 199.5 204.985L197.073 204.101V199.988L201.175 201.492C201.815 201.142 202.534 200.985 203.371 201.052L206.365 197.156C206.385 194.767 208.537 192.832 211.176 192.832C213.83 192.832 215.982 194.79 215.987 197.187C215.987 199.602 213.83 201.551 211.186 201.551Z" fill="#3A3731"/>
<path d="M203.006 201.892C202.814 201.891 202.622 201.911 202.435 201.95L203.533 202.354C203.788 202.445 204.02 202.581 204.217 202.755C204.414 202.929 204.572 203.137 204.68 203.367C204.789 203.597 204.846 203.845 204.85 204.096C204.853 204.346 204.802 204.595 204.7 204.828C204.596 205.062 204.443 205.275 204.25 205.454C204.056 205.634 203.826 205.777 203.572 205.875C203.318 205.973 203.046 206.024 202.77 206.025C202.495 206.027 202.222 205.978 201.967 205.883C201.539 205.73 201.1 205.564 200.672 205.416C200.887 205.797 201.208 206.118 201.604 206.348C201.999 206.577 202.454 206.705 202.921 206.72C203.389 206.735 203.852 206.635 204.264 206.431C204.675 206.227 205.02 205.927 205.263 205.56C205.506 205.193 205.638 204.774 205.645 204.345C205.653 203.916 205.535 203.494 205.306 203.12C205.076 202.747 204.742 202.436 204.337 202.22C203.933 202.004 203.474 201.891 203.006 201.892Z" fill="#3A3731"/>
<path d="M211.18 194.269C209.392 194.269 207.949 195.58 207.949 197.191C207.949 198.812 209.397 200.114 211.18 200.114C212.947 200.119 214.4 198.812 214.395 197.191C214.395 195.58 212.947 194.269 211.18 194.269ZM211.172 198.947C210.794 198.943 210.426 198.837 210.114 198.642C209.802 198.446 209.56 198.171 209.418 197.85C209.276 197.529 209.241 197.177 209.317 196.837C209.394 196.498 209.577 196.187 209.846 195.943C210.115 195.7 210.456 195.534 210.827 195.468C211.197 195.402 211.581 195.438 211.93 195.571C212.279 195.705 212.577 195.93 212.786 196.218C212.995 196.506 213.107 196.845 213.107 197.191C213.106 197.423 213.056 197.652 212.958 197.866C212.86 198.08 212.717 198.274 212.537 198.437C212.357 198.6 212.144 198.729 211.91 198.817C211.676 198.904 211.425 198.948 211.172 198.947H211.172Z" fill="#3A3731"/>
<path d="M270.499 187.681C262.962 187.681 256.852 193.283 256.852 200.193C256.852 207.103 262.962 212.705 270.499 212.705C278.036 212.705 284.146 207.103 284.146 200.193C284.146 193.283 278.036 187.681 270.499 187.681ZM275.155 201.551L270.54 204.608C270.373 206.26 268.832 207.553 266.975 207.553C266.16 207.554 265.368 207.3 264.731 206.833C264.094 206.366 263.649 205.715 263.469 204.985L261.042 204.101V199.988L265.144 201.492C265.784 201.142 266.503 200.985 267.34 201.052L270.334 197.156C270.353 194.767 272.505 192.832 275.145 192.832C277.799 192.832 279.951 194.79 279.956 197.187C279.956 199.602 277.799 201.551 275.155 201.551Z" fill="#3A3731"/>
<path d="M266.975 201.892C266.783 201.891 266.591 201.911 266.403 201.95L267.502 202.354C267.756 202.445 267.989 202.581 268.186 202.755C268.383 202.929 268.54 203.137 268.649 203.367C268.757 203.597 268.815 203.845 268.818 204.096C268.822 204.346 268.771 204.595 268.669 204.828C268.565 205.062 268.412 205.275 268.219 205.454C268.025 205.634 267.795 205.777 267.541 205.875C267.287 205.973 267.015 206.024 266.739 206.025C266.464 206.027 266.191 205.978 265.936 205.883C265.507 205.73 265.069 205.564 264.641 205.416C264.856 205.797 265.177 206.118 265.573 206.348C265.968 206.577 266.423 206.705 266.89 206.72C267.358 206.735 267.821 206.635 268.233 206.431C268.644 206.227 268.989 205.927 269.232 205.56C269.474 205.193 269.606 204.774 269.614 204.345C269.621 203.916 269.504 203.494 269.274 203.12C269.045 202.747 268.71 202.436 268.306 202.22C267.902 202.004 267.442 201.891 266.975 201.892Z" fill="#3A3731"/>
<path d="M275.148 194.269C273.361 194.269 271.918 195.58 271.918 197.191C271.918 198.812 273.366 200.114 275.148 200.114C276.916 200.119 278.369 198.812 278.364 197.191C278.364 195.58 276.916 194.269 275.148 194.269ZM275.141 198.947C274.763 198.943 274.395 198.837 274.083 198.642C273.771 198.446 273.528 198.171 273.387 197.85C273.245 197.529 273.21 197.177 273.286 196.837C273.362 196.498 273.546 196.187 273.815 195.943C274.083 195.7 274.425 195.534 274.795 195.468C275.166 195.402 275.55 195.438 275.899 195.571C276.247 195.705 276.545 195.93 276.755 196.218C276.964 196.506 277.076 196.845 277.076 197.191C277.075 197.423 277.024 197.652 276.926 197.866C276.829 198.08 276.686 198.274 276.506 198.437C276.326 198.6 276.113 198.729 275.879 198.817C275.645 198.904 275.394 198.948 275.141 198.947H275.141Z" fill="#3A3731"/>
<path d="M334.471 187.681C326.934 187.681 320.824 193.283 320.824 200.193C320.824 207.103 326.934 212.705 334.471 212.705C342.008 212.705 348.118 207.103 348.118 200.193C348.118 193.283 342.008 187.681 334.471 187.681ZM339.127 201.551L334.513 204.608C334.346 206.26 332.805 207.553 330.948 207.553C330.132 207.554 329.341 207.3 328.704 206.833C328.066 206.366 327.621 205.715 327.442 204.985L325.014 204.101V199.988L329.116 201.492C329.756 201.142 330.475 200.985 331.312 201.052L334.306 197.156C334.326 194.767 336.478 192.832 339.117 192.832C341.772 192.832 343.924 194.79 343.928 197.187C343.928 199.602 341.772 201.551 339.127 201.551Z" fill="#3A3731"/>
<path d="M330.947 201.892C330.755 201.891 330.564 201.911 330.376 201.95L331.474 202.354C331.729 202.445 331.962 202.581 332.159 202.755C332.356 202.929 332.513 203.137 332.621 203.367C332.73 203.597 332.788 203.845 332.791 204.096C332.795 204.346 332.744 204.595 332.641 204.828C332.538 205.062 332.385 205.275 332.191 205.454C331.998 205.634 331.767 205.777 331.514 205.875C331.26 205.973 330.987 206.024 330.712 206.025C330.436 206.027 330.163 205.978 329.908 205.883C329.48 205.73 329.042 205.564 328.613 205.416C328.828 205.797 329.15 206.118 329.545 206.348C329.941 206.577 330.395 206.705 330.863 206.72C331.33 206.735 331.794 206.635 332.205 206.431C332.617 206.227 332.962 205.927 333.204 205.56C333.447 205.193 333.579 204.774 333.587 204.345C333.594 203.916 333.477 203.494 333.247 203.12C333.017 202.747 332.683 202.436 332.279 202.22C331.875 202.004 331.415 201.891 330.947 201.892Z" fill="#3A3731"/>
<path d="M339.121 194.269C337.333 194.269 335.891 195.58 335.891 197.191C335.891 198.812 337.338 200.114 339.121 200.114C340.889 200.119 342.342 198.812 342.337 197.191C342.337 195.58 340.889 194.269 339.121 194.269ZM339.114 198.947C338.736 198.943 338.368 198.837 338.055 198.642C337.743 198.446 337.501 198.171 337.359 197.85C337.218 197.529 337.183 197.177 337.259 196.837C337.335 196.498 337.519 196.187 337.787 195.943C338.056 195.7 338.397 195.534 338.768 195.468C339.139 195.402 339.523 195.438 339.871 195.571C340.22 195.705 340.518 195.93 340.727 196.218C340.937 196.506 341.049 196.845 341.049 197.191C341.048 197.423 340.997 197.652 340.899 197.866C340.801 198.08 340.658 198.274 340.479 198.437C340.299 198.6 340.086 198.729 339.851 198.817C339.617 198.904 339.367 198.948 339.114 198.947H339.114Z" fill="#3A3731"/>
<path d="M398.44 187.681C390.903 187.681 384.793 193.283 384.793 200.193C384.793 207.103 390.903 212.705 398.44 212.705C405.977 212.705 412.087 207.103 412.087 200.193C412.087 193.283 405.977 187.681 398.44 187.681ZM403.096 201.551L398.482 204.608C398.314 206.26 396.773 207.553 394.917 207.553C394.101 207.554 393.31 207.3 392.672 206.833C392.035 206.366 391.59 205.715 391.411 204.985L388.983 204.101V199.988L393.085 201.492C393.725 201.142 394.444 200.985 395.281 201.052L398.275 197.156C398.295 194.767 400.447 192.832 403.086 192.832C405.74 192.832 407.892 194.79 407.897 197.187C407.897 199.602 405.74 201.551 403.096 201.551Z" fill="#3A3731"/>
<path d="M394.916 201.892C394.724 201.891 394.532 201.911 394.345 201.95L395.443 202.354C395.698 202.445 395.931 202.581 396.127 202.755C396.324 202.929 396.482 203.137 396.59 203.367C396.699 203.597 396.756 203.845 396.76 204.096C396.763 204.346 396.712 204.595 396.61 204.828C396.506 205.062 396.353 205.275 396.16 205.454C395.966 205.634 395.736 205.777 395.482 205.875C395.228 205.973 394.956 206.024 394.681 206.025C394.405 206.027 394.132 205.978 393.877 205.883C393.449 205.73 393.01 205.564 392.582 205.416C392.797 205.797 393.119 206.118 393.514 206.348C393.909 206.577 394.364 206.705 394.832 206.72C395.299 206.735 395.762 206.635 396.174 206.431C396.585 206.227 396.93 205.927 397.173 205.56C397.416 205.193 397.548 204.774 397.555 204.345C397.563 203.916 397.446 203.494 397.216 203.12C396.986 202.747 396.652 202.436 396.248 202.22C395.843 202.004 395.384 201.891 394.916 201.892Z" fill="#3A3731"/>
<path d="M403.09 194.269C401.302 194.269 399.859 195.58 399.859 197.191C399.859 198.812 401.307 200.114 403.09 200.114C404.858 200.119 406.31 198.812 406.305 197.191C406.305 195.58 404.858 194.269 403.09 194.269ZM403.082 198.947C402.705 198.943 402.336 198.837 402.024 198.642C401.712 198.446 401.47 198.171 401.328 197.85C401.186 197.529 401.151 197.177 401.227 196.837C401.304 196.498 401.488 196.187 401.756 195.943C402.025 195.7 402.366 195.534 402.737 195.468C403.108 195.402 403.492 195.438 403.84 195.571C404.189 195.705 404.487 195.93 404.696 196.218C404.906 196.506 405.017 196.845 405.017 197.191C405.017 197.423 404.966 197.652 404.868 197.866C404.77 198.08 404.627 198.274 404.447 198.437C404.268 198.6 404.054 198.729 403.82 198.817C403.586 198.904 403.335 198.948 403.082 198.947H403.082Z" fill="#3A3731"/>
<path d="M14.6158 112.608C7.07876 112.608 0.96875 118.21 0.96875 125.12C0.96875 132.031 7.07876 137.632 14.6158 137.632C22.1529 137.632 28.2629 132.031 28.2629 125.12C28.2629 118.21 22.1529 112.608 14.6158 112.608ZM19.2717 126.478L14.6577 129.536C14.4903 131.188 12.9491 132.481 11.0925 132.481C10.2769 132.481 9.48539 132.227 8.84817 131.761C8.21096 131.294 7.76596 130.642 7.58637 129.913L5.15872 129.029V124.916L9.2607 126.42C9.90086 126.07 10.6199 125.913 11.457 125.98L14.4509 122.083C14.4706 119.695 16.6225 117.76 19.2619 117.76C21.9161 117.76 24.068 119.717 24.0729 122.115C24.0729 124.53 21.9161 126.478 19.2717 126.478Z" fill="#3A3731"/>
<path d="M11.0919 126.819C10.8997 126.819 10.708 126.838 10.5207 126.878L11.6188 127.282C11.8737 127.373 12.1063 127.509 12.3032 127.683C12.5002 127.857 12.6575 128.065 12.766 128.295C12.8746 128.525 12.9322 128.773 12.9356 129.023C12.939 129.274 12.8881 129.523 12.7859 129.755C12.6822 129.989 12.5293 130.202 12.3357 130.382C12.1422 130.562 11.9119 130.705 11.6581 130.803C11.4042 130.901 11.1318 130.952 10.8563 130.953C10.5809 130.955 10.3078 130.906 10.0529 130.81C9.62446 130.658 9.18622 130.492 8.75781 130.344C8.97269 130.725 9.29434 131.046 9.68969 131.275C10.0851 131.505 10.5399 131.633 11.0074 131.648C11.4748 131.662 11.9382 131.563 12.3497 131.359C12.7612 131.155 13.1061 130.854 13.3489 130.488C13.5917 130.121 13.7236 129.702 13.7311 129.273C13.7386 128.844 13.6214 128.421 13.3916 128.048C13.1618 127.674 12.8276 127.364 12.4234 127.148C12.0193 126.932 11.5597 126.818 11.0919 126.819Z" fill="#3A3731"/>
<path d="M19.2655 119.196C17.478 119.196 16.0352 120.507 16.0352 122.119C16.0352 123.74 17.4829 125.042 19.2655 125.042C21.0333 125.046 22.4862 123.74 22.481 122.119C22.4811 120.507 21.0334 119.196 19.2655 119.196ZM19.2581 123.874C18.8803 123.871 18.5122 123.764 18.2 123.569C17.8879 123.374 17.6456 123.099 17.5039 122.778C17.3621 122.457 17.3271 122.104 17.4033 121.765C17.4795 121.426 17.6634 121.115 17.932 120.871C18.2006 120.627 18.5417 120.462 18.9126 120.396C19.2834 120.33 19.6673 120.366 20.016 120.499C20.3647 120.632 20.6625 120.857 20.8719 121.146C21.0814 121.434 21.1932 121.773 21.1932 122.119C21.1923 122.351 21.1415 122.58 21.0436 122.794C20.9458 123.008 20.8029 123.202 20.6232 123.365C20.4434 123.528 20.2303 123.657 19.996 123.744C19.7618 123.832 19.511 123.876 19.2582 123.874H19.2581Z" fill="#3A3731"/>
<path d="M78.5885 112.608C71.0514 112.608 64.9414 118.21 64.9414 125.12C64.9414 132.031 71.0514 137.632 78.5885 137.632C86.1255 137.632 92.2355 132.031 92.2355 125.12C92.2355 118.21 86.1255 112.608 78.5885 112.608ZM83.2444 126.478L78.6303 129.536C78.4629 131.188 76.9217 132.481 75.0651 132.481C74.2495 132.481 73.458 132.227 72.8208 131.761C72.1836 131.294 71.7386 130.642 71.559 129.913L69.1314 129.029V124.916L73.2334 126.42C73.8735 126.07 74.5926 125.913 75.4296 125.98L78.4236 122.083C78.4433 119.695 80.5952 117.76 83.2346 117.76C85.8888 117.76 88.0407 119.717 88.0456 122.115C88.0455 124.53 85.8887 126.478 83.2444 126.478Z" fill="#3A3731"/>
<path d="M75.0646 126.819C74.8723 126.819 74.6807 126.838 74.4933 126.878L75.5915 127.282C75.8463 127.373 76.079 127.509 76.2759 127.683C76.4728 127.857 76.6301 128.065 76.7387 128.295C76.8472 128.525 76.9049 128.773 76.9083 129.023C76.9117 129.274 76.8608 129.523 76.7585 129.755C76.6549 129.989 76.5019 130.202 76.3084 130.382C76.1149 130.562 75.8846 130.705 75.6307 130.803C75.3769 130.901 75.1044 130.952 74.829 130.953C74.5535 130.955 74.2805 130.906 74.0255 130.81C73.5971 130.658 73.1589 130.492 72.7305 130.344C72.9453 130.725 73.267 131.046 73.6624 131.275C74.0577 131.505 74.5125 131.633 74.98 131.648C75.4475 131.662 75.9108 131.563 76.3224 131.359C76.7339 131.155 77.0788 130.854 77.3215 130.488C77.5643 130.121 77.6963 129.702 77.7038 129.273C77.7113 128.844 77.5941 128.421 77.3643 128.048C77.1344 127.674 76.8003 127.364 76.3961 127.148C75.9919 126.932 75.5323 126.818 75.0646 126.819Z" fill="#3A3731"/>
<path d="M83.2381 119.196C81.4506 119.196 80.0078 120.507 80.0078 122.119C80.0078 123.74 81.4555 125.042 83.2381 125.042C85.006 125.046 86.4588 123.74 86.4537 122.119C86.4538 120.507 85.006 119.196 83.2381 119.196ZM83.2308 123.874C82.853 123.871 82.4848 123.764 82.1727 123.569C81.8605 123.374 81.6183 123.099 81.4765 122.778C81.3347 122.457 81.2997 122.104 81.3759 121.765C81.4521 121.426 81.6361 121.115 81.9046 120.871C82.1732 120.627 82.5144 120.462 82.8852 120.396C83.2561 120.33 83.64 120.366 83.9886 120.499C84.3373 120.632 84.6351 120.857 84.8446 121.146C85.0541 121.434 85.1659 121.773 85.1659 122.119C85.1649 122.351 85.1141 122.58 85.0163 122.794C84.9185 123.008 84.7756 123.202 84.5958 123.365C84.416 123.528 84.2029 123.657 83.9687 123.744C83.7344 123.832 83.4837 123.876 83.2308 123.874H83.2308Z" fill="#3A3731"/>
<path d="M142.557 112.608C135.02 112.608 128.91 118.21 128.91 125.12C128.91 132.031 135.02 137.632 142.557 137.632C150.094 137.632 156.204 132.031 156.204 125.12C156.204 118.21 150.094 112.608 142.557 112.608ZM147.213 126.478L142.599 129.536C142.432 131.188 140.89 132.481 139.034 132.481C138.218 132.481 137.427 132.227 136.79 131.761C136.152 131.294 135.707 130.642 135.528 129.913L133.1 129.029V124.916L137.202 126.42C137.842 126.07 138.561 125.913 139.398 125.98L142.392 122.083C142.412 119.695 144.564 117.76 147.203 117.76C149.858 117.76 152.009 119.717 152.014 122.115C152.014 124.53 149.857 126.478 147.213 126.478Z" fill="#3A3731"/>
<path d="M139.033 126.819C138.841 126.819 138.649 126.838 138.462 126.878L139.56 127.282C139.815 127.373 140.048 127.509 140.245 127.683C140.442 127.857 140.599 128.065 140.707 128.295C140.816 128.525 140.874 128.773 140.877 129.023C140.88 129.274 140.83 129.523 140.727 129.755C140.624 129.989 140.471 130.202 140.277 130.382C140.084 130.562 139.853 130.705 139.599 130.803C139.346 130.901 139.073 130.952 138.798 130.953C138.522 130.955 138.249 130.906 137.994 130.81C137.566 130.658 137.128 130.492 136.699 130.344C136.914 130.725 137.236 131.046 137.631 131.275C138.026 131.505 138.481 131.633 138.949 131.648C139.416 131.662 139.88 131.563 140.291 131.359C140.703 131.155 141.048 130.854 141.29 130.488C141.533 130.121 141.665 129.702 141.673 129.273C141.68 128.844 141.563 128.421 141.333 128.048C141.103 127.674 140.769 127.364 140.365 127.148C139.961 126.932 139.501 126.818 139.033 126.819Z" fill="#3A3731"/>
<path d="M147.207 119.196C145.419 119.196 143.977 120.507 143.977 122.119C143.977 123.74 145.424 125.042 147.207 125.042C148.975 125.046 150.428 123.74 150.422 122.119C150.423 120.507 148.975 119.196 147.207 119.196ZM147.2 123.874C146.822 123.871 146.454 123.764 146.141 123.569C145.829 123.374 145.587 123.099 145.445 122.778C145.303 122.457 145.268 122.104 145.345 121.765C145.421 121.426 145.605 121.115 145.873 120.871C146.142 120.627 146.483 120.462 146.854 120.396C147.225 120.33 147.609 120.366 147.957 120.499C148.306 120.632 148.604 120.857 148.813 121.146C149.023 121.434 149.135 121.773 149.135 122.119C149.134 122.351 149.083 122.58 148.985 122.794C148.887 123.008 148.744 123.202 148.565 123.365C148.385 123.528 148.172 123.657 147.937 123.744C147.703 123.832 147.452 123.876 147.2 123.874H147.2Z" fill="#3A3731"/>
<path d="M206.53 112.608C198.993 112.608 192.883 118.21 192.883 125.12C192.883 132.031 198.993 137.632 206.53 137.632C214.067 137.632 220.177 132.031 220.177 125.12C220.177 118.21 214.067 112.608 206.53 112.608ZM211.186 126.478L206.572 129.536C206.404 131.188 204.863 132.481 203.007 132.481C202.191 132.481 201.399 132.227 200.762 131.761C200.125 131.294 199.68 130.642 199.5 129.913L197.073 129.029V124.916L201.175 126.42C201.815 126.07 202.534 125.913 203.371 125.98L206.365 122.083C206.385 119.695 208.537 117.76 211.176 117.76C213.83 117.76 215.982 119.717 215.987 122.115C215.987 124.53 213.83 126.478 211.186 126.478Z" fill="#3A3731"/>
<path d="M203.006 126.819C202.814 126.819 202.622 126.838 202.435 126.878L203.533 127.282C203.788 127.373 204.02 127.509 204.217 127.683C204.414 127.857 204.572 128.065 204.68 128.295C204.789 128.525 204.846 128.773 204.85 129.023C204.853 129.274 204.802 129.523 204.7 129.755C204.596 129.989 204.443 130.202 204.25 130.382C204.056 130.562 203.826 130.705 203.572 130.803C203.318 130.901 203.046 130.952 202.77 130.953C202.495 130.955 202.222 130.906 201.967 130.81C201.539 130.658 201.1 130.492 200.672 130.344C200.887 130.725 201.208 131.046 201.604 131.275C201.999 131.505 202.454 131.633 202.921 131.648C203.389 131.662 203.852 131.563 204.264 131.359C204.675 131.155 205.02 130.854 205.263 130.488C205.506 130.121 205.638 129.702 205.645 129.273C205.653 128.844 205.535 128.421 205.306 128.048C205.076 127.674 204.742 127.364 204.337 127.148C203.933 126.932 203.474 126.818 203.006 126.819Z" fill="#3A3731"/>
<path d="M211.18 119.196C209.392 119.196 207.949 120.507 207.949 122.119C207.949 123.74 209.397 125.042 211.18 125.042C212.947 125.046 214.4 123.74 214.395 122.119C214.395 120.507 212.947 119.196 211.18 119.196ZM211.172 123.874C210.794 123.871 210.426 123.764 210.114 123.569C209.802 123.374 209.56 123.099 209.418 122.778C209.276 122.457 209.241 122.104 209.317 121.765C209.394 121.426 209.577 121.115 209.846 120.871C210.115 120.627 210.456 120.462 210.827 120.396C211.197 120.33 211.581 120.366 211.93 120.499C212.279 120.632 212.577 120.857 212.786 121.146C212.995 121.434 213.107 121.773 213.107 122.119C213.106 122.351 213.056 122.58 212.958 122.794C212.86 123.008 212.717 123.202 212.537 123.365C212.357 123.528 212.144 123.657 211.91 123.744C211.676 123.832 211.425 123.876 211.172 123.874H211.172Z" fill="#3A3731"/>
<path d="M270.499 112.608C262.962 112.608 256.852 118.21 256.852 125.12C256.852 132.031 262.962 137.632 270.499 137.632C278.036 137.632 284.146 132.031 284.146 125.12C284.146 118.21 278.036 112.608 270.499 112.608ZM275.155 126.478L270.54 129.536C270.373 131.188 268.832 132.481 266.975 132.481C266.16 132.481 265.368 132.227 264.731 131.761C264.094 131.294 263.649 130.642 263.469 129.913L261.042 129.029V124.916L265.144 126.42C265.784 126.07 266.503 125.913 267.34 125.98L270.334 122.083C270.353 119.695 272.505 117.76 275.145 117.76C277.799 117.76 279.951 119.717 279.956 122.115C279.956 124.53 277.799 126.478 275.155 126.478Z" fill="#3A3731"/>
<path d="M266.975 126.819C266.783 126.819 266.591 126.838 266.403 126.878L267.502 127.282C267.756 127.373 267.989 127.509 268.186 127.683C268.383 127.857 268.54 128.065 268.649 128.295C268.757 128.525 268.815 128.773 268.818 129.023C268.822 129.274 268.771 129.523 268.669 129.755C268.565 129.989 268.412 130.202 268.219 130.382C268.025 130.562 267.795 130.705 267.541 130.803C267.287 130.901 267.015 130.952 266.739 130.953C266.464 130.955 266.191 130.906 265.936 130.81C265.507 130.658 265.069 130.492 264.641 130.344C264.856 130.725 265.177 131.046 265.573 131.275C265.968 131.505 266.423 131.633 266.89 131.648C267.358 131.662 267.821 131.563 268.233 131.359C268.644 131.155 268.989 130.854 269.232 130.488C269.474 130.121 269.606 129.702 269.614 129.273C269.621 128.844 269.504 128.421 269.274 128.048C269.045 127.674 268.71 127.364 268.306 127.148C267.902 126.932 267.442 126.818 266.975 126.819Z" fill="#3A3731"/>
<path d="M275.148 119.196C273.361 119.196 271.918 120.507 271.918 122.119C271.918 123.74 273.366 125.042 275.148 125.042C276.916 125.046 278.369 123.74 278.364 122.119C278.364 120.507 276.916 119.196 275.148 119.196ZM275.141 123.874C274.763 123.871 274.395 123.764 274.083 123.569C273.771 123.374 273.528 123.099 273.387 122.778C273.245 122.457 273.21 122.104 273.286 121.765C273.362 121.426 273.546 121.115 273.815 120.871C274.083 120.627 274.425 120.462 274.795 120.396C275.166 120.33 275.55 120.366 275.899 120.499C276.247 120.632 276.545 120.857 276.755 121.146C276.964 121.434 277.076 121.773 277.076 122.119C277.075 122.351 277.024 122.58 276.926 122.794C276.829 123.008 276.686 123.202 276.506 123.365C276.326 123.528 276.113 123.657 275.879 123.744C275.645 123.832 275.394 123.876 275.141 123.874H275.141Z" fill="#3A3731"/>
<path d="M334.471 112.608C326.934 112.608 320.824 118.21 320.824 125.12C320.824 132.031 326.934 137.632 334.471 137.632C342.008 137.632 348.118 132.031 348.118 125.12C348.118 118.21 342.008 112.608 334.471 112.608ZM339.127 126.478L334.513 129.536C334.346 131.188 332.805 132.481 330.948 132.481C330.132 132.481 329.341 132.227 328.704 131.761C328.066 131.294 327.621 130.642 327.442 129.913L325.014 129.029V124.916L329.116 126.42C329.756 126.07 330.475 125.913 331.312 125.98L334.306 122.083C334.326 119.695 336.478 117.76 339.117 117.76C341.772 117.76 343.924 119.717 343.928 122.115C343.928 124.53 341.772 126.478 339.127 126.478Z" fill="#3A3731"/>
<path d="M330.947 126.819C330.755 126.819 330.564 126.838 330.376 126.878L331.474 127.282C331.729 127.373 331.962 127.509 332.159 127.683C332.356 127.857 332.513 128.065 332.621 128.295C332.73 128.525 332.788 128.773 332.791 129.023C332.795 129.274 332.744 129.523 332.641 129.755C332.538 129.989 332.385 130.202 332.191 130.382C331.998 130.562 331.767 130.705 331.514 130.803C331.26 130.901 330.987 130.952 330.712 130.953C330.436 130.955 330.163 130.906 329.908 130.81C329.48 130.658 329.042 130.492 328.613 130.344C328.828 130.725 329.15 131.046 329.545 131.275C329.941 131.505 330.395 131.633 330.863 131.648C331.33 131.662 331.794 131.563 332.205 131.359C332.617 131.155 332.962 130.854 333.204 130.488C333.447 130.121 333.579 129.702 333.587 129.273C333.594 128.844 333.477 128.421 333.247 128.048C333.017 127.674 332.683 127.364 332.279 127.148C331.875 126.932 331.415 126.818 330.947 126.819Z" fill="#3A3731"/>
<path d="M339.121 119.196C337.333 119.196 335.891 120.507 335.891 122.119C335.891 123.74 337.338 125.042 339.121 125.042C340.889 125.046 342.342 123.74 342.337 122.119C342.337 120.507 340.889 119.196 339.121 119.196ZM339.114 123.874C338.736 123.871 338.368 123.764 338.055 123.569C337.743 123.374 337.501 123.099 337.359 122.778C337.218 122.457 337.183 122.104 337.259 121.765C337.335 121.426 337.519 121.115 337.787 120.871C338.056 120.627 338.397 120.462 338.768 120.396C339.139 120.33 339.523 120.366 339.871 120.499C340.22 120.632 340.518 120.857 340.727 121.146C340.937 121.434 341.049 121.773 341.049 122.119C341.048 122.351 340.997 122.58 340.899 122.794C340.801 123.008 340.658 123.202 340.479 123.365C340.299 123.528 340.086 123.657 339.851 123.744C339.617 123.832 339.367 123.876 339.114 123.874H339.114Z" fill="#3A3731"/>
<path d="M398.44 112.608C390.903 112.608 384.793 118.21 384.793 125.12C384.793 132.031 390.903 137.632 398.44 137.632C405.977 137.632 412.087 132.031 412.087 125.12C412.087 118.21 405.977 112.608 398.44 112.608ZM403.096 126.478L398.482 129.536C398.314 131.188 396.773 132.481 394.917 132.481C394.101 132.481 393.31 132.227 392.672 131.761C392.035 131.294 391.59 130.642 391.411 129.913L388.983 129.029V124.916L393.085 126.42C393.725 126.07 394.444 125.913 395.281 125.98L398.275 122.083C398.295 119.695 400.447 117.76 403.086 117.76C405.74 117.76 407.892 119.717 407.897 122.115C407.897 124.53 405.74 126.478 403.096 126.478Z" fill="#3A3731"/>
<path d="M394.916 126.819C394.724 126.819 394.532 126.838 394.345 126.878L395.443 127.282C395.698 127.373 395.931 127.509 396.127 127.683C396.324 127.857 396.482 128.065 396.59 128.295C396.699 128.525 396.756 128.773 396.76 129.023C396.763 129.274 396.712 129.523 396.61 129.755C396.506 129.989 396.353 130.202 396.16 130.382C395.966 130.562 395.736 130.705 395.482 130.803C395.228 130.901 394.956 130.952 394.681 130.953C394.405 130.955 394.132 130.906 393.877 130.81C393.449 130.658 393.01 130.492 392.582 130.344C392.797 130.725 393.119 131.046 393.514 131.275C393.909 131.505 394.364 131.633 394.832 131.648C395.299 131.662 395.762 131.563 396.174 131.359C396.585 131.155 396.93 130.854 397.173 130.488C397.416 130.121 397.548 129.702 397.555 129.273C397.563 128.844 397.446 128.421 397.216 128.048C396.986 127.674 396.652 127.364 396.248 127.148C395.843 126.932 395.384 126.818 394.916 126.819Z" fill="#3A3731"/>
<path d="M403.09 119.196C401.302 119.196 399.859 120.507 399.859 122.119C399.859 123.74 401.307 125.042 403.09 125.042C404.858 125.046 406.31 123.74 406.305 122.119C406.305 120.507 404.858 119.196 403.09 119.196ZM403.082 123.874C402.705 123.871 402.336 123.764 402.024 123.569C401.712 123.374 401.47 123.099 401.328 122.778C401.186 122.457 401.151 122.104 401.227 121.765C401.304 121.426 401.488 121.115 401.756 120.871C402.025 120.627 402.366 120.462 402.737 120.396C403.108 120.33 403.492 120.366 403.84 120.499C404.189 120.632 404.487 120.857 404.696 121.146C404.906 121.434 405.017 121.773 405.017 122.119C405.017 122.351 404.966 122.58 404.868 122.794C404.77 123.008 404.627 123.202 404.447 123.365C404.268 123.528 404.054 123.657 403.82 123.744C403.586 123.832 403.335 123.876 403.082 123.874H403.082Z" fill="#3A3731"/>
<path d="M14.6158 37.5361C7.07876 37.5361 0.96875 43.138 0.96875 50.0482C0.96875 56.9584 7.07876 62.5602 14.6158 62.5602C22.1529 62.5602 28.2629 56.9584 28.2629 50.0482C28.2629 43.138 22.1529 37.5361 14.6158 37.5361ZM19.2717 51.4062L14.6577 54.4636C14.4903 56.1157 12.9491 57.4087 11.0925 57.4087C10.2769 57.4092 9.48539 57.1552 8.84817 56.6885C8.21096 56.2217 7.76596 55.5701 7.58637 54.8407L5.15872 53.9563V49.8439L9.2607 51.3479C9.90086 50.9975 10.6199 50.8405 11.457 50.9079L14.4509 47.011C14.4706 44.6226 16.6225 42.6876 19.2619 42.6876C21.9161 42.6876 24.068 44.6451 24.0729 47.0425C24.0729 49.4576 21.9161 51.4062 19.2717 51.4062Z" fill="#3A3731"/>
<path d="M11.0919 51.7471C10.8997 51.7465 10.708 51.7661 10.5207 51.8054L11.6188 52.2095C11.8737 52.3004 12.1063 52.4368 12.3032 52.6107C12.5002 52.7847 12.6575 52.9927 12.766 53.2228C12.8746 53.4529 12.9322 53.7005 12.9356 53.9512C12.939 54.2019 12.8881 54.4507 12.7859 54.6832C12.6822 54.9172 12.5293 55.1301 12.3357 55.3098C12.1422 55.4895 11.9119 55.6325 11.6581 55.7305C11.4042 55.8285 11.1318 55.8796 10.8563 55.8809C10.5809 55.8823 10.3078 55.8338 10.0529 55.7382C9.62446 55.5856 9.18622 55.4195 8.75781 55.2713C8.97269 55.6523 9.29434 55.9739 9.68969 56.2031C10.0851 56.4323 10.5399 56.5608 11.0074 56.5755C11.4748 56.5902 11.9382 56.4904 12.3497 56.2866C12.7612 56.0827 13.1061 55.782 13.3489 55.4154C13.5917 55.0488 13.7236 54.6296 13.7311 54.2008C13.7386 53.772 13.6214 53.349 13.3916 52.9755C13.1618 52.602 12.8276 52.2913 12.4234 52.0754C12.0193 51.8595 11.5597 51.7462 11.0919 51.7471Z" fill="#3A3731"/>
<path d="M19.2655 44.124C17.478 44.124 16.0352 45.435 16.0352 47.0468C16.0352 48.6675 17.4829 49.9696 19.2655 49.9696C21.0333 49.9742 22.4862 48.6677 22.481 47.0468C22.4811 45.435 21.0334 44.124 19.2655 44.124ZM19.2581 48.802C18.8803 48.7983 18.5122 48.6922 18.2 48.4971C17.8879 48.3019 17.6456 48.0265 17.5039 47.7054C17.3621 47.3843 17.3271 47.032 17.4033 46.6927C17.4795 46.3535 17.6634 46.0424 17.932 45.7988C18.2006 45.5552 18.5417 45.3899 18.9126 45.3237C19.2834 45.2575 19.6673 45.2933 20.016 45.4267C20.3647 45.5601 20.6625 45.7851 20.8719 46.0734C21.0814 46.3617 21.1932 46.7003 21.1932 47.0467C21.1923 47.2785 21.1415 47.508 21.0436 47.7218C20.9458 47.9356 20.8029 48.1296 20.6232 48.2927C20.4434 48.4557 20.2303 48.5847 19.996 48.6721C19.7618 48.7595 19.511 48.8036 19.2582 48.802H19.2581Z" fill="#3A3731"/>
<path d="M78.5885 37.5361C71.0514 37.5361 64.9414 43.138 64.9414 50.0482C64.9414 56.9584 71.0514 62.5602 78.5885 62.5602C86.1255 62.5602 92.2355 56.9584 92.2355 50.0482C92.2355 43.138 86.1255 37.5361 78.5885 37.5361ZM83.2444 51.4062L78.6303 54.4636C78.4629 56.1157 76.9217 57.4087 75.0651 57.4087C74.2495 57.4092 73.458 57.1552 72.8208 56.6885C72.1836 56.2217 71.7386 55.5701 71.559 54.8407L69.1314 53.9563V49.8439L73.2334 51.3479C73.8735 50.9975 74.5926 50.8405 75.4296 50.9079L78.4236 47.011C78.4433 44.6226 80.5952 42.6876 83.2346 42.6876C85.8888 42.6876 88.0407 44.6451 88.0456 47.0425C88.0455 49.4576 85.8887 51.4062 83.2444 51.4062Z" fill="#3A3731"/>
<path d="M75.0646 51.7471C74.8723 51.7465 74.6807 51.7661 74.4933 51.8054L75.5915 52.2095C75.8463 52.3004 76.079 52.4368 76.2759 52.6107C76.4728 52.7847 76.6301 52.9927 76.7387 53.2228C76.8472 53.4529 76.9049 53.7005 76.9083 53.9512C76.9117 54.2019 76.8608 54.4507 76.7585 54.6832C76.6549 54.9172 76.5019 55.1301 76.3084 55.3098C76.1149 55.4895 75.8846 55.6325 75.6307 55.7305C75.3769 55.8285 75.1044 55.8796 74.829 55.8809C74.5535 55.8823 74.2805 55.8338 74.0255 55.7382C73.5971 55.5856 73.1589 55.4195 72.7305 55.2713C72.9453 55.6523 73.267 55.9739 73.6624 56.2031C74.0577 56.4323 74.5125 56.5608 74.98 56.5755C75.4475 56.5902 75.9108 56.4904 76.3224 56.2866C76.7339 56.0827 77.0788 55.782 77.3215 55.4154C77.5643 55.0488 77.6963 54.6296 77.7038 54.2008C77.7113 53.772 77.5941 53.349 77.3643 52.9755C77.1344 52.602 76.8003 52.2913 76.3961 52.0754C75.9919 51.8595 75.5323 51.7462 75.0646 51.7471Z" fill="#3A3731"/>
<path d="M83.2381 44.124C81.4506 44.124 80.0078 45.435 80.0078 47.0468C80.0078 48.6675 81.4555 49.9696 83.2381 49.9696C85.006 49.9742 86.4588 48.6677 86.4537 47.0468C86.4538 45.435 85.006 44.124 83.2381 44.124ZM83.2308 48.802C82.853 48.7983 82.4848 48.6922 82.1727 48.4971C81.8605 48.3019 81.6183 48.0265 81.4765 47.7054C81.3347 47.3843 81.2997 47.032 81.3759 46.6927C81.4521 46.3535 81.6361 46.0424 81.9046 45.7988C82.1732 45.5552 82.5144 45.3899 82.8852 45.3237C83.2561 45.2575 83.64 45.2933 83.9886 45.4267C84.3373 45.5601 84.6351 45.7851 84.8446 46.0734C85.0541 46.3617 85.1659 46.7003 85.1659 47.0467C85.1649 47.2785 85.1141 47.508 85.0163 47.7218C84.9185 47.9356 84.7756 48.1296 84.5958 48.2927C84.416 48.4557 84.2029 48.5847 83.9687 48.6721C83.7344 48.7595 83.4837 48.8036 83.2308 48.802H83.2308Z" fill="#3A3731"/>
<path d="M142.557 37.5361C135.02 37.5361 128.91 43.138 128.91 50.0482C128.91 56.9584 135.02 62.5602 142.557 62.5602C150.094 62.5602 156.204 56.9584 156.204 50.0482C156.204 43.138 150.094 37.5361 142.557 37.5361ZM147.213 51.4062L142.599 54.4636C142.432 56.1157 140.89 57.4087 139.034 57.4087C138.218 57.4092 137.427 57.1552 136.79 56.6885C136.152 56.2217 135.707 55.5701 135.528 54.8407L133.1 53.9563V49.8439L137.202 51.3479C137.842 50.9975 138.561 50.8405 139.398 50.9079L142.392 47.011C142.412 44.6226 144.564 42.6876 147.203 42.6876C149.858 42.6876 152.009 44.6451 152.014 47.0425C152.014 49.4576 149.857 51.4062 147.213 51.4062Z" fill="#3A3731"/>
<path d="M139.033 51.7471C138.841 51.7465 138.649 51.7661 138.462 51.8054L139.56 52.2095C139.815 52.3004 140.048 52.4368 140.245 52.6107C140.442 52.7847 140.599 52.9927 140.707 53.2228C140.816 53.4529 140.874 53.7005 140.877 53.9512C140.88 54.2019 140.83 54.4507 140.727 54.6832C140.624 54.9172 140.471 55.1301 140.277 55.3098C140.084 55.4895 139.853 55.6325 139.599 55.7305C139.346 55.8285 139.073 55.8796 138.798 55.8809C138.522 55.8823 138.249 55.8338 137.994 55.7382C137.566 55.5856 137.128 55.4195 136.699 55.2713C136.914 55.6523 137.236 55.9739 137.631 56.2031C138.026 56.4323 138.481 56.5608 138.949 56.5755C139.416 56.5902 139.88 56.4904 140.291 56.2866C140.703 56.0827 141.048 55.782 141.29 55.4154C141.533 55.0488 141.665 54.6296 141.673 54.2008C141.68 53.772 141.563 53.349 141.333 52.9755C141.103 52.602 140.769 52.2913 140.365 52.0754C139.961 51.8595 139.501 51.7462 139.033 51.7471Z" fill="#3A3731"/>
<path d="M147.207 44.124C145.419 44.124 143.977 45.435 143.977 47.0468C143.977 48.6675 145.424 49.9696 147.207 49.9696C148.975 49.9742 150.428 48.6677 150.422 47.0468C150.423 45.435 148.975 44.124 147.207 44.124ZM147.2 48.802C146.822 48.7983 146.454 48.6922 146.141 48.4971C145.829 48.3019 145.587 48.0265 145.445 47.7054C145.303 47.3843 145.268 47.032 145.345 46.6927C145.421 46.3535 145.605 46.0424 145.873 45.7988C146.142 45.5552 146.483 45.3899 146.854 45.3237C147.225 45.2575 147.609 45.2933 147.957 45.4267C148.306 45.5601 148.604 45.7851 148.813 46.0734C149.023 46.3617 149.135 46.7003 149.135 47.0467C149.134 47.2785 149.083 47.508 148.985 47.7218C148.887 47.9356 148.744 48.1296 148.565 48.2927C148.385 48.4557 148.172 48.5847 147.937 48.6721C147.703 48.7595 147.452 48.8036 147.2 48.802H147.2Z" fill="#3A3731"/>
<path d="M206.53 37.5361C198.993 37.5361 192.883 43.138 192.883 50.0482C192.883 56.9584 198.993 62.5602 206.53 62.5602C214.067 62.5602 220.177 56.9584 220.177 50.0482C220.177 43.138 214.067 37.5361 206.53 37.5361ZM211.186 51.4062L206.572 54.4636C206.404 56.1157 204.863 57.4087 203.007 57.4087C202.191 57.4092 201.399 57.1552 200.762 56.6885C200.125 56.2217 199.68 55.5701 199.5 54.8407L197.073 53.9563V49.8439L201.175 51.3479C201.815 50.9975 202.534 50.8405 203.371 50.9079L206.365 47.011C206.385 44.6226 208.537 42.6876 211.176 42.6876C213.83 42.6876 215.982 44.6451 215.987 47.0425C215.987 49.4576 213.83 51.4062 211.186 51.4062Z" fill="#3A3731"/>
<path d="M203.006 51.7471C202.814 51.7465 202.622 51.7661 202.435 51.8054L203.533 52.2095C203.788 52.3004 204.02 52.4368 204.217 52.6107C204.414 52.7847 204.572 52.9927 204.68 53.2228C204.789 53.4529 204.846 53.7005 204.85 53.9512C204.853 54.2019 204.802 54.4507 204.7 54.6832C204.596 54.9172 204.443 55.1301 204.25 55.3098C204.056 55.4895 203.826 55.6325 203.572 55.7305C203.318 55.8285 203.046 55.8796 202.77 55.8809C202.495 55.8823 202.222 55.8338 201.967 55.7382C201.539 55.5856 201.1 55.4195 200.672 55.2713C200.887 55.6523 201.208 55.9739 201.604 56.2031C201.999 56.4323 202.454 56.5608 202.921 56.5755C203.389 56.5902 203.852 56.4904 204.264 56.2866C204.675 56.0827 205.02 55.782 205.263 55.4154C205.506 55.0488 205.638 54.6296 205.645 54.2008C205.653 53.772 205.535 53.349 205.306 52.9755C205.076 52.602 204.742 52.2913 204.337 52.0754C203.933 51.8595 203.474 51.7462 203.006 51.7471Z" fill="#3A3731"/>
<path d="M211.18 44.124C209.392 44.124 207.949 45.435 207.949 47.0468C207.949 48.6675 209.397 49.9696 211.18 49.9696C212.947 49.9742 214.4 48.6677 214.395 47.0468C214.395 45.435 212.947 44.124 211.18 44.124ZM211.172 48.802C210.794 48.7983 210.426 48.6922 210.114 48.4971C209.802 48.3019 209.56 48.0265 209.418 47.7054C209.276 47.3843 209.241 47.032 209.317 46.6927C209.394 46.3535 209.577 46.0424 209.846 45.7988C210.115 45.5552 210.456 45.3899 210.827 45.3237C211.197 45.2575 211.581 45.2933 211.93 45.4267C212.279 45.5601 212.577 45.7851 212.786 46.0734C212.995 46.3617 213.107 46.7003 213.107 47.0467C213.106 47.2785 213.056 47.508 212.958 47.7218C212.86 47.9356 212.717 48.1296 212.537 48.2927C212.357 48.4557 212.144 48.5847 211.91 48.6721C211.676 48.7595 211.425 48.8036 211.172 48.802H211.172Z" fill="#3A3731"/>
<path d="M270.499 37.5361C262.962 37.5361 256.852 43.138 256.852 50.0482C256.852 56.9584 262.962 62.5602 270.499 62.5602C278.036 62.5602 284.146 56.9584 284.146 50.0482C284.146 43.138 278.036 37.5361 270.499 37.5361ZM275.155 51.4062L270.54 54.4636C270.373 56.1157 268.832 57.4087 266.975 57.4087C266.16 57.4092 265.368 57.1552 264.731 56.6885C264.094 56.2217 263.649 55.5701 263.469 54.8407L261.042 53.9563V49.8439L265.144 51.3479C265.784 50.9975 266.503 50.8405 267.34 50.9079L270.334 47.011C270.353 44.6226 272.505 42.6876 275.145 42.6876C277.799 42.6876 279.951 44.6451 279.956 47.0425C279.956 49.4576 277.799 51.4062 275.155 51.4062Z" fill="#3A3731"/>
<path d="M266.975 51.7471C266.783 51.7465 266.591 51.7661 266.403 51.8054L267.502 52.2095C267.756 52.3004 267.989 52.4368 268.186 52.6107C268.383 52.7847 268.54 52.9927 268.649 53.2228C268.757 53.4529 268.815 53.7005 268.818 53.9512C268.822 54.2019 268.771 54.4507 268.669 54.6832C268.565 54.9172 268.412 55.1301 268.219 55.3098C268.025 55.4895 267.795 55.6325 267.541 55.7305C267.287 55.8285 267.015 55.8796 266.739 55.8809C266.464 55.8823 266.191 55.8338 265.936 55.7382C265.507 55.5856 265.069 55.4195 264.641 55.2713C264.856 55.6523 265.177 55.9739 265.573 56.2031C265.968 56.4323 266.423 56.5608 266.89 56.5755C267.358 56.5902 267.821 56.4904 268.233 56.2866C268.644 56.0827 268.989 55.782 269.232 55.4154C269.474 55.0488 269.606 54.6296 269.614 54.2008C269.621 53.772 269.504 53.349 269.274 52.9755C269.045 52.602 268.71 52.2913 268.306 52.0754C267.902 51.8595 267.442 51.7462 266.975 51.7471Z" fill="#3A3731"/>
<path d="M275.148 44.124C273.361 44.124 271.918 45.435 271.918 47.0468C271.918 48.6675 273.366 49.9696 275.148 49.9696C276.916 49.9742 278.369 48.6677 278.364 47.0468C278.364 45.435 276.916 44.124 275.148 44.124ZM275.141 48.802C274.763 48.7983 274.395 48.6922 274.083 48.4971C273.771 48.3019 273.528 48.0265 273.387 47.7054C273.245 47.3843 273.21 47.032 273.286 46.6927C273.362 46.3535 273.546 46.0424 273.815 45.7988C274.083 45.5552 274.425 45.3899 274.795 45.3237C275.166 45.2575 275.55 45.2933 275.899 45.4267C276.247 45.5601 276.545 45.7851 276.755 46.0734C276.964 46.3617 277.076 46.7003 277.076 47.0467C277.075 47.2785 277.024 47.508 276.926 47.7218C276.829 47.9356 276.686 48.1296 276.506 48.2927C276.326 48.4557 276.113 48.5847 275.879 48.6721C275.645 48.7595 275.394 48.8036 275.141 48.802H275.141Z" fill="#3A3731"/>
<path d="M334.471 37.5361C326.934 37.5361 320.824 43.138 320.824 50.0482C320.824 56.9584 326.934 62.5602 334.471 62.5602C342.008 62.5602 348.118 56.9584 348.118 50.0482C348.118 43.138 342.008 37.5361 334.471 37.5361ZM339.127 51.4062L334.513 54.4636C334.346 56.1157 332.805 57.4087 330.948 57.4087C330.132 57.4092 329.341 57.1552 328.704 56.6885C328.066 56.2217 327.621 55.5701 327.442 54.8407L325.014 53.9563V49.8439L329.116 51.3479C329.756 50.9975 330.475 50.8405 331.312 50.9079L334.306 47.011C334.326 44.6226 336.478 42.6876 339.117 42.6876C341.772 42.6876 343.924 44.6451 343.928 47.0425C343.928 49.4576 341.772 51.4062 339.127 51.4062Z" fill="#3A3731"/>
<path d="M330.947 51.7471C330.755 51.7465 330.564 51.7661 330.376 51.8054L331.474 52.2095C331.729 52.3004 331.962 52.4368 332.159 52.6107C332.356 52.7847 332.513 52.9927 332.621 53.2228C332.73 53.4529 332.788 53.7005 332.791 53.9512C332.795 54.2019 332.744 54.4507 332.641 54.6832C332.538 54.9172 332.385 55.1301 332.191 55.3098C331.998 55.4895 331.767 55.6325 331.514 55.7305C331.26 55.8285 330.987 55.8796 330.712 55.8809C330.436 55.8823 330.163 55.8338 329.908 55.7382C329.48 55.5856 329.042 55.4195 328.613 55.2713C328.828 55.6523 329.15 55.9739 329.545 56.2031C329.941 56.4323 330.395 56.5608 330.863 56.5755C331.33 56.5902 331.794 56.4904 332.205 56.2866C332.617 56.0827 332.962 55.782 333.204 55.4154C333.447 55.0488 333.579 54.6296 333.587 54.2008C333.594 53.772 333.477 53.349 333.247 52.9755C333.017 52.602 332.683 52.2913 332.279 52.0754C331.875 51.8595 331.415 51.7462 330.947 51.7471Z" fill="#3A3731"/>
<path d="M339.121 44.124C337.333 44.124 335.891 45.435 335.891 47.0468C335.891 48.6675 337.338 49.9696 339.121 49.9696C340.889 49.9742 342.342 48.6677 342.337 47.0468C342.337 45.435 340.889 44.124 339.121 44.124ZM339.114 48.802C338.736 48.7983 338.368 48.6922 338.055 48.4971C337.743 48.3019 337.501 48.0265 337.359 47.7054C337.218 47.3843 337.183 47.032 337.259 46.6927C337.335 46.3535 337.519 46.0424 337.787 45.7988C338.056 45.5552 338.397 45.3899 338.768 45.3237C339.139 45.2575 339.523 45.2933 339.871 45.4267C340.22 45.5601 340.518 45.7851 340.727 46.0734C340.937 46.3617 341.049 46.7003 341.049 47.0467C341.048 47.2785 340.997 47.508 340.899 47.7218C340.801 47.9356 340.658 48.1296 340.479 48.2927C340.299 48.4557 340.086 48.5847 339.851 48.6721C339.617 48.7595 339.367 48.8036 339.114 48.802H339.114Z" fill="#3A3731"/>
<path d="M398.44 37.5361C390.903 37.5361 384.793 43.138 384.793 50.0482C384.793 56.9584 390.903 62.5602 398.44 62.5602C405.977 62.5602 412.087 56.9584 412.087 50.0482C412.087 43.138 405.977 37.5361 398.44 37.5361ZM403.096 51.4062L398.482 54.4636C398.314 56.1157 396.773 57.4087 394.917 57.4087C394.101 57.4092 393.31 57.1552 392.672 56.6885C392.035 56.2217 391.59 55.5701 391.411 54.8407L388.983 53.9563V49.8439L393.085 51.3479C393.725 50.9975 394.444 50.8405 395.281 50.9079L398.275 47.011C398.295 44.6226 400.447 42.6876 403.086 42.6876C405.74 42.6876 407.892 44.6451 407.897 47.0425C407.897 49.4576 405.74 51.4062 403.096 51.4062Z" fill="#3A3731"/>
<path d="M394.916 51.7471C394.724 51.7465 394.532 51.7661 394.345 51.8054L395.443 52.2095C395.698 52.3004 395.931 52.4368 396.127 52.6107C396.324 52.7847 396.482 52.9927 396.59 53.2228C396.699 53.4529 396.756 53.7005 396.76 53.9512C396.763 54.2019 396.712 54.4507 396.61 54.6832C396.506 54.9172 396.353 55.1301 396.16 55.3098C395.966 55.4895 395.736 55.6325 395.482 55.7305C395.228 55.8285 394.956 55.8796 394.681 55.8809C394.405 55.8823 394.132 55.8338 393.877 55.7382C393.449 55.5856 393.01 55.4195 392.582 55.2713C392.797 55.6523 393.119 55.9739 393.514 56.2031C393.909 56.4323 394.364 56.5608 394.832 56.5755C395.299 56.5902 395.762 56.4904 396.174 56.2866C396.585 56.0827 396.93 55.782 397.173 55.4154C397.416 55.0488 397.548 54.6296 397.555 54.2008C397.563 53.772 397.446 53.349 397.216 52.9755C396.986 52.602 396.652 52.2913 396.248 52.0754C395.843 51.8595 395.384 51.7462 394.916 51.7471Z" fill="#3A3731"/>
<path d="M403.09 44.124C401.302 44.124 399.859 45.435 399.859 47.0468C399.859 48.6675 401.307 49.9696 403.09 49.9696C404.858 49.9742 406.31 48.6677 406.305 47.0468C406.305 45.435 404.858 44.124 403.09 44.124ZM403.082 48.802C402.705 48.7983 402.336 48.6922 402.024 48.4971C401.712 48.3019 401.47 48.0265 401.328 47.7054C401.186 47.3843 401.151 47.032 401.227 46.6927C401.304 46.3535 401.488 46.0424 401.756 45.7988C402.025 45.5552 402.366 45.3899 402.737 45.3237C403.108 45.2575 403.492 45.2933 403.84 45.4267C404.189 45.5601 404.487 45.7851 404.696 46.0734C404.906 46.3617 405.017 46.7003 405.017 47.0467C405.017 47.2785 404.966 47.508 404.868 47.7218C404.77 47.9356 404.627 48.1296 404.447 48.2927C404.268 48.4557 404.054 48.5847 403.82 48.6721C403.586 48.7595 403.335 48.8036 403.082 48.802H403.082Z" fill="#3A3731"/>
<path d="M46.1783 150.145C38.6413 150.145 32.5312 155.746 32.5312 162.657C32.5312 169.567 38.6413 175.169 46.1783 175.169C53.7154 175.169 59.8254 169.567 59.8254 162.657C59.8254 155.746 53.7154 150.145 46.1783 150.145ZM50.8342 164.015L46.2202 167.072C46.0528 168.724 44.5116 170.017 42.655 170.017C41.8394 170.018 41.0479 169.764 40.4107 169.297C39.7735 168.83 39.3285 168.178 39.1489 167.449L36.7212 166.565V162.452L40.8232 163.956C41.4634 163.606 42.1824 163.449 43.0195 163.516L46.0134 159.619C46.0331 157.231 48.185 155.296 50.8244 155.296C53.4786 155.296 55.6305 157.253 55.6354 159.651C55.6354 162.066 53.4786 164.015 50.8342 164.015Z" fill="#3A3731"/>
<path d="M42.6544 164.355C42.4622 164.355 42.2705 164.374 42.0832 164.414L43.1813 164.818C43.4362 164.909 43.6688 165.045 43.8657 165.219C44.0627 165.393 44.22 165.601 44.3285 165.831C44.4371 166.061 44.4947 166.309 44.4981 166.56C44.5015 166.81 44.4506 167.059 44.3484 167.292C44.2447 167.526 44.0918 167.739 43.8982 167.918C43.7047 168.098 43.4744 168.241 43.2206 168.339C42.9667 168.437 42.6943 168.488 42.4188 168.489C42.1434 168.491 41.8703 168.442 41.6154 168.347C41.187 168.194 40.7487 168.028 40.3203 167.88C40.5352 168.261 40.8568 168.582 41.2522 168.811C41.6476 169.041 42.1024 169.169 42.5699 169.184C43.0373 169.199 43.5007 169.099 43.9122 168.895C44.3237 168.691 44.6686 168.39 44.9114 168.024C45.1542 167.657 45.2861 167.238 45.2936 166.809C45.3011 166.38 45.1839 165.957 44.9541 165.584C44.7243 165.21 44.3901 164.9 43.9859 164.684C43.5818 164.468 43.1222 164.355 42.6544 164.355Z" fill="#3A3731"/>
<path d="M50.828 156.732C49.0405 156.732 47.5977 158.043 47.5977 159.655C47.5977 161.276 49.0454 162.578 50.828 162.578C52.5958 162.583 54.0487 161.276 54.0435 159.655C54.0436 158.043 52.5959 156.732 50.828 156.732ZM50.8206 161.41C50.4428 161.407 50.0747 161.301 49.7625 161.105C49.4504 160.91 49.2081 160.635 49.0664 160.314C48.9246 159.993 48.8896 159.64 48.9658 159.301C49.042 158.962 49.2259 158.651 49.4945 158.407C49.7631 158.164 50.1042 157.998 50.4751 157.932C50.8459 157.866 51.2298 157.902 51.5785 158.035C51.9272 158.169 52.225 158.394 52.4344 158.682C52.6439 158.97 52.7557 159.309 52.7557 159.655C52.7548 159.887 52.704 160.116 52.6061 160.33C52.5083 160.544 52.3654 160.738 52.1857 160.901C52.0059 161.064 51.7928 161.193 51.5585 161.28C51.3243 161.368 51.0735 161.412 50.8207 161.41H50.8206Z" fill="#3A3731"/>
<path d="M110.147 150.145C102.61 150.145 96.5 155.746 96.5 162.657C96.5 169.567 102.61 175.169 110.147 175.169C117.684 175.169 123.794 169.567 123.794 162.657C123.794 155.746 117.684 150.145 110.147 150.145ZM114.803 164.015L110.189 167.072C110.022 168.724 108.48 170.017 106.624 170.017C105.808 170.018 105.017 169.764 104.379 169.297C103.742 168.83 103.297 168.178 103.118 167.449L100.69 166.565V162.452L104.792 163.956C105.432 163.606 106.151 163.449 106.988 163.516L109.982 159.619C110.002 157.231 112.154 155.296 114.793 155.296C117.447 155.296 119.599 157.253 119.604 159.651C119.604 162.066 117.447 164.015 114.803 164.015Z" fill="#3A3731"/>
<path d="M106.623 164.355C106.431 164.355 106.239 164.374 106.052 164.414L107.15 164.818C107.405 164.909 107.638 165.045 107.834 165.219C108.031 165.393 108.189 165.601 108.297 165.831C108.406 166.061 108.463 166.309 108.467 166.56C108.47 166.81 108.419 167.059 108.317 167.292C108.213 167.526 108.061 167.739 107.867 167.918C107.673 168.098 107.443 168.241 107.189 168.339C106.935 168.437 106.663 168.488 106.388 168.489C106.112 168.491 105.839 168.442 105.584 168.347C105.156 168.194 104.717 168.028 104.289 167.88C104.504 168.261 104.826 168.582 105.221 168.811C105.616 169.041 106.071 169.169 106.539 169.184C107.006 169.199 107.469 169.099 107.881 168.895C108.292 168.691 108.637 168.39 108.88 168.024C109.123 167.657 109.255 167.238 109.262 166.809C109.27 166.38 109.153 165.957 108.923 165.584C108.693 165.21 108.359 164.9 107.955 164.684C107.551 164.468 107.091 164.355 106.623 164.355Z" fill="#3A3731"/>
<path d="M114.797 156.732C113.009 156.732 111.566 158.043 111.566 159.655C111.566 161.276 113.014 162.578 114.797 162.578C116.565 162.583 118.017 161.276 118.012 159.655C118.012 158.043 116.565 156.732 114.797 156.732ZM114.789 161.41C114.412 161.407 114.043 161.301 113.731 161.105C113.419 160.91 113.177 160.635 113.035 160.314C112.893 159.993 112.858 159.64 112.935 159.301C113.011 158.962 113.195 158.651 113.463 158.407C113.732 158.164 114.073 157.998 114.444 157.932C114.815 157.866 115.199 157.902 115.547 158.035C115.896 158.169 116.194 158.394 116.403 158.682C116.613 158.97 116.724 159.309 116.724 159.655C116.724 159.887 116.673 160.116 116.575 160.33C116.477 160.544 116.334 160.738 116.154 160.901C115.975 161.064 115.762 161.193 115.527 161.28C115.293 161.368 115.042 161.412 114.789 161.41H114.789Z" fill="#3A3731"/>
<path d="M174.116 150.145C166.579 150.145 160.469 155.746 160.469 162.657C160.469 169.567 166.579 175.169 174.116 175.169C181.653 175.169 187.763 169.567 187.763 162.657C187.763 155.746 181.653 150.145 174.116 150.145ZM178.772 164.015L174.158 167.072C173.99 168.724 172.449 170.017 170.592 170.017C169.777 170.018 168.985 169.764 168.348 169.297C167.711 168.83 167.266 168.178 167.086 167.449L164.659 166.565V162.452L168.761 163.956C169.401 163.606 170.12 163.449 170.957 163.516L173.951 159.619C173.971 157.231 176.123 155.296 178.762 155.296C181.416 155.296 183.568 157.253 183.573 159.651C183.573 162.066 181.416 164.015 178.772 164.015Z" fill="#3A3731"/>
<path d="M170.592 164.355C170.4 164.355 170.208 164.374 170.021 164.414L171.119 164.818C171.374 164.909 171.606 165.045 171.803 165.219C172 165.393 172.157 165.601 172.266 165.831C172.375 166.061 172.432 166.309 172.436 166.56C172.439 166.81 172.388 167.059 172.286 167.292C172.182 167.526 172.029 167.739 171.836 167.918C171.642 168.098 171.412 168.241 171.158 168.339C170.904 168.437 170.632 168.488 170.356 168.489C170.081 168.491 169.808 168.442 169.553 168.347C169.124 168.194 168.686 168.028 168.258 167.88C168.473 168.261 168.794 168.582 169.19 168.811C169.585 169.041 170.04 169.169 170.507 169.184C170.975 169.199 171.438 169.099 171.85 168.895C172.261 168.691 172.606 168.39 172.849 168.024C173.092 167.657 173.224 167.238 173.231 166.809C173.239 166.38 173.121 165.957 172.892 165.584C172.662 165.21 172.328 164.9 171.923 164.684C171.519 164.468 171.06 164.355 170.592 164.355Z" fill="#3A3731"/>
<path d="M178.765 156.732C176.978 156.732 175.535 158.043 175.535 159.655C175.535 161.276 176.983 162.578 178.765 162.578C180.533 162.583 181.986 161.276 181.981 159.655C181.981 158.043 180.533 156.732 178.765 156.732ZM178.758 161.41C178.38 161.407 178.012 161.301 177.7 161.105C177.388 160.91 177.146 160.635 177.004 160.314C176.862 159.993 176.827 159.64 176.903 159.301C176.979 158.962 177.163 158.651 177.432 158.407C177.701 158.164 178.042 157.998 178.413 157.932C178.783 157.866 179.167 157.902 179.516 158.035C179.865 158.169 180.162 158.394 180.372 158.682C180.581 158.97 180.693 159.309 180.693 159.655C180.692 159.887 180.641 160.116 180.544 160.33C180.446 160.544 180.303 160.738 180.123 160.901C179.943 161.064 179.73 161.193 179.496 161.28C179.262 161.368 179.011 161.412 178.758 161.41H178.758Z" fill="#3A3731"/>
<path d="M238.088 150.145C230.551 150.145 224.441 155.746 224.441 162.657C224.441 169.567 230.551 175.169 238.088 175.169C245.626 175.169 251.736 169.567 251.736 162.657C251.736 155.746 245.626 150.145 238.088 150.145ZM242.744 164.015L238.13 167.072C237.963 168.724 236.422 170.017 234.565 170.017C233.75 170.018 232.958 169.764 232.321 169.297C231.684 168.83 231.239 168.178 231.059 167.449L228.631 166.565V162.452L232.733 163.956C233.374 163.606 234.093 163.449 234.93 163.516L237.924 159.619C237.943 157.231 240.095 155.296 242.735 155.296C245.389 155.296 247.541 157.253 247.546 159.651C247.546 162.066 245.389 164.015 242.744 164.015Z" fill="#3A3731"/>
<path d="M234.565 164.355C234.372 164.355 234.181 164.374 233.993 164.414L235.091 164.818C235.346 164.909 235.579 165.045 235.776 165.219C235.973 165.393 236.13 165.601 236.239 165.831C236.347 166.061 236.405 166.309 236.408 166.56C236.412 166.81 236.361 167.059 236.259 167.292C236.155 167.526 236.002 167.739 235.808 167.918C235.615 168.098 235.385 168.241 235.131 168.339C234.877 168.437 234.604 168.488 234.329 168.489C234.054 168.491 233.78 168.442 233.526 168.347C233.097 168.194 232.659 168.028 232.23 167.88C232.445 168.261 232.767 168.582 233.162 168.811C233.558 169.041 234.013 169.169 234.48 169.184C234.948 169.199 235.411 169.099 235.822 168.895C236.234 168.691 236.579 168.39 236.822 168.024C237.064 167.657 237.196 167.238 237.204 166.809C237.211 166.38 237.094 165.957 236.864 165.584C236.634 165.21 236.3 164.9 235.896 164.684C235.492 164.468 235.032 164.355 234.565 164.355Z" fill="#3A3731"/>
<path d="M242.738 156.732C240.951 156.732 239.508 158.043 239.508 159.655C239.508 161.276 240.956 162.578 242.738 162.578C244.506 162.583 245.959 161.276 245.954 159.655C245.954 158.043 244.506 156.732 242.738 156.732ZM242.731 161.41C242.353 161.407 241.985 161.301 241.673 161.105C241.361 160.91 241.118 160.635 240.977 160.314C240.835 159.993 240.8 159.64 240.876 159.301C240.952 158.962 241.136 158.651 241.405 158.407C241.673 158.164 242.014 157.998 242.385 157.932C242.756 157.866 243.14 157.902 243.489 158.035C243.837 158.169 244.135 158.394 244.345 158.682C244.554 158.97 244.666 159.309 244.666 159.655C244.665 159.887 244.614 160.116 244.516 160.33C244.418 160.544 244.276 160.738 244.096 160.901C243.916 161.064 243.703 161.193 243.469 161.28C243.234 161.368 242.984 161.412 242.731 161.41H242.731Z" fill="#3A3731"/>
<path d="M302.057 150.145C294.52 150.145 288.41 155.746 288.41 162.657C288.41 169.567 294.52 175.169 302.057 175.169C309.594 175.169 315.704 169.567 315.704 162.657C315.704 155.746 309.594 150.145 302.057 150.145ZM306.713 164.015L302.099 167.072C301.932 168.724 300.39 170.017 298.534 170.017C297.718 170.018 296.927 169.764 296.29 169.297C295.652 168.83 295.207 168.178 295.028 167.449L292.6 166.565V162.452L296.702 163.956C297.342 163.606 298.061 163.449 298.898 163.516L301.892 159.619C301.912 157.231 304.064 155.296 306.703 155.296C309.358 155.296 311.509 157.253 311.514 159.651C311.514 162.066 309.357 164.015 306.713 164.015Z" fill="#3A3731"/>
<path d="M298.533 164.355C298.341 164.355 298.149 164.374 297.962 164.414L299.06 164.818C299.315 164.909 299.548 165.045 299.745 165.219C299.942 165.393 300.099 165.601 300.207 165.831C300.316 166.061 300.374 166.309 300.377 166.56C300.38 166.81 300.33 167.059 300.227 167.292C300.124 167.526 299.971 167.739 299.777 167.918C299.584 168.098 299.353 168.241 299.099 168.339C298.846 168.437 298.573 168.488 298.298 168.489C298.022 168.491 297.749 168.442 297.494 168.347C297.066 168.194 296.628 168.028 296.199 167.88C296.414 168.261 296.736 168.582 297.131 168.811C297.526 169.041 297.981 169.169 298.449 169.184C298.916 169.199 299.38 169.099 299.791 168.895C300.203 168.691 300.548 168.39 300.79 168.024C301.033 167.657 301.165 167.238 301.173 166.809C301.18 166.38 301.063 165.957 300.833 165.584C300.603 165.21 300.269 164.9 299.865 164.684C299.461 164.468 299.001 164.355 298.533 164.355Z" fill="#3A3731"/>
<path d="M306.707 156.732C304.919 156.732 303.477 158.043 303.477 159.655C303.477 161.276 304.924 162.578 306.707 162.578C308.475 162.583 309.928 161.276 309.922 159.655C309.923 158.043 308.475 156.732 306.707 156.732ZM306.7 161.41C306.322 161.407 305.954 161.301 305.641 161.105C305.329 160.91 305.087 160.635 304.945 160.314C304.803 159.993 304.768 159.64 304.845 159.301C304.921 158.962 305.105 158.651 305.373 158.407C305.642 158.164 305.983 157.998 306.354 157.932C306.725 157.866 307.109 157.902 307.457 158.035C307.806 158.169 308.104 158.394 308.313 158.682C308.523 158.97 308.635 159.309 308.635 159.655C308.634 159.887 308.583 160.116 308.485 160.33C308.387 160.544 308.244 160.738 308.065 160.901C307.885 161.064 307.672 161.193 307.437 161.28C307.203 161.368 306.952 161.412 306.7 161.41H306.7Z" fill="#3A3731"/>
<path d="M366.03 150.145C358.493 150.145 352.383 155.746 352.383 162.657C352.383 169.567 358.493 175.169 366.03 175.169C373.567 175.169 379.677 169.567 379.677 162.657C379.677 155.746 373.567 150.145 366.03 150.145ZM370.686 164.015L366.072 167.072C365.904 168.724 364.363 170.017 362.507 170.017C361.691 170.018 360.899 169.764 360.262 169.297C359.625 168.83 359.18 168.178 359 167.449L356.573 166.565V162.452L360.675 163.956C361.315 163.606 362.034 163.449 362.871 163.516L365.865 159.619C365.885 157.231 368.037 155.296 370.676 155.296C373.33 155.296 375.482 157.253 375.487 159.651C375.487 162.066 373.33 164.015 370.686 164.015Z" fill="#3A3731"/>
<path d="M362.506 164.355C362.314 164.355 362.122 164.374 361.935 164.414L363.033 164.818C363.288 164.909 363.52 165.045 363.717 165.219C363.914 165.393 364.072 165.601 364.18 165.831C364.289 166.061 364.346 166.309 364.35 166.56C364.353 166.81 364.302 167.059 364.2 167.292C364.096 167.526 363.943 167.739 363.75 167.918C363.556 168.098 363.326 168.241 363.072 168.339C362.818 168.437 362.546 168.488 362.27 168.489C361.995 168.491 361.722 168.442 361.467 168.347C361.039 168.194 360.6 168.028 360.172 167.88C360.387 168.261 360.708 168.582 361.104 168.811C361.499 169.041 361.954 169.169 362.421 169.184C362.889 169.199 363.352 169.099 363.764 168.895C364.175 168.691 364.52 168.39 364.763 168.024C365.006 167.657 365.138 167.238 365.145 166.809C365.153 166.38 365.035 165.957 364.806 165.584C364.576 165.21 364.242 164.9 363.837 164.684C363.433 164.468 362.974 164.355 362.506 164.355Z" fill="#3A3731"/>
<path d="M370.68 156.732C368.892 156.732 367.449 158.043 367.449 159.655C367.449 161.276 368.897 162.578 370.68 162.578C372.447 162.583 373.9 161.276 373.895 159.655C373.895 158.043 372.447 156.732 370.68 156.732ZM370.672 161.41C370.294 161.407 369.926 161.301 369.614 161.105C369.302 160.91 369.06 160.635 368.918 160.314C368.776 159.993 368.741 159.64 368.817 159.301C368.894 158.962 369.077 158.651 369.346 158.407C369.615 158.164 369.956 157.998 370.327 157.932C370.697 157.866 371.081 157.902 371.43 158.035C371.779 158.169 372.077 158.394 372.286 158.682C372.495 158.97 372.607 159.309 372.607 159.655C372.606 159.887 372.556 160.116 372.458 160.33C372.36 160.544 372.217 160.738 372.037 160.901C371.857 161.064 371.644 161.193 371.41 161.28C371.176 161.368 370.925 161.412 370.672 161.41H370.672Z" fill="#3A3731"/>
<path d="M46.1744 75.0713C38.6374 75.0713 32.5273 80.6731 32.5273 87.5833C32.5273 94.4935 38.6374 100.095 46.1744 100.095C53.7115 100.095 59.8215 94.4935 59.8215 87.5833C59.8215 80.6731 53.7115 75.0713 46.1744 75.0713ZM50.8303 88.9414L46.2163 91.9987C46.0488 93.6509 44.5077 94.9439 42.6511 94.9439C41.8355 94.9443 41.044 94.6903 40.4068 94.2236C39.7696 93.7569 39.3246 93.1052 39.145 92.3758L36.7173 91.4914V87.379L40.8193 88.883C41.4595 88.5327 42.1785 88.3757 43.0155 88.4431L46.0095 84.5462C46.0292 82.1578 48.1811 80.2228 50.8205 80.2228C53.4747 80.2228 55.6266 82.1802 55.6315 84.5776C55.6315 86.9928 53.4746 88.9414 50.8303 88.9414Z" fill="#3A3731"/>
<path d="M42.6505 89.2822C42.4583 89.2817 42.2666 89.3013 42.0793 89.3406L43.1774 89.7446C43.4323 89.8355 43.6649 89.9719 43.8618 90.1459C44.0587 90.3198 44.216 90.5279 44.3246 90.758C44.4332 90.9881 44.4908 91.2357 44.4942 91.4863C44.4976 91.737 44.4467 91.9858 44.3445 92.2184C44.2408 92.4523 44.0879 92.6653 43.8943 92.845C43.7008 93.0247 43.4705 93.1676 43.2167 93.2656C42.9628 93.3636 42.6903 93.4148 42.4149 93.4161C42.1395 93.4174 41.8664 93.3689 41.6115 93.2734C41.183 93.1207 40.7448 92.9546 40.3164 92.8065C40.5313 93.1874 40.8529 93.509 41.2483 93.7382C41.6436 93.9674 42.0984 94.096 42.5659 94.1107C43.0334 94.1253 43.4968 94.0256 43.9083 93.8217C44.3198 93.6178 44.6647 93.3171 44.9075 92.9506C45.1503 92.584 45.2822 92.1647 45.2897 91.7359C45.2972 91.3071 45.18 90.8842 44.9502 90.5107C44.7204 90.1371 44.3862 89.8264 43.982 89.6105C43.5779 89.3947 43.1183 89.2813 42.6505 89.2822Z" fill="#3A3731"/>
<path d="M50.8241 81.6592C49.0366 81.6592 47.5938 82.9701 47.5938 84.582C47.5938 86.2027 49.0415 87.5048 50.8241 87.5048C52.5919 87.5093 54.0448 86.2029 54.0396 84.582C54.0397 82.9701 52.592 81.6592 50.8241 81.6592ZM50.8167 86.3371C50.4389 86.3334 50.0708 86.2273 49.7586 86.0322C49.4465 85.8371 49.2042 85.5616 49.0625 85.2406C48.9207 84.9195 48.8857 84.5672 48.9619 84.2279C49.038 83.8886 49.222 83.5776 49.4906 83.334C49.7591 83.0904 50.1003 82.925 50.4712 82.8588C50.842 82.7926 51.2259 82.8285 51.5746 82.9619C51.9232 83.0953 52.2211 83.3203 52.4305 83.6086C52.64 83.8968 52.7518 84.2355 52.7518 84.5818C52.7509 84.8137 52.7001 85.0431 52.6022 85.2569C52.5044 85.4707 52.3615 85.6647 52.1817 85.8278C52.002 85.9909 51.7889 86.1198 51.5546 86.2072C51.3204 86.2946 51.0696 86.3388 50.8167 86.3371H50.8167Z" fill="#3A3731"/>
<path d="M110.147 75.0713C102.61 75.0713 96.5 80.6731 96.5 87.5833C96.5 94.4935 102.61 100.095 110.147 100.095C117.684 100.095 123.794 94.4935 123.794 87.5833C123.794 80.6731 117.684 75.0713 110.147 75.0713ZM114.803 88.9414L110.189 91.9987C110.022 93.6509 108.48 94.9439 106.624 94.9439C105.808 94.9443 105.017 94.6903 104.379 94.2236C103.742 93.7569 103.297 93.1052 103.118 92.3758L100.69 91.4914V87.379L104.792 88.883C105.432 88.5327 106.151 88.3757 106.988 88.4431L109.982 84.5462C110.002 82.1578 112.154 80.2228 114.793 80.2228C117.447 80.2228 119.599 82.1802 119.604 84.5776C119.604 86.9928 117.447 88.9414 114.803 88.9414Z" fill="#3A3731"/>
<path d="M106.623 89.2822C106.431 89.2817 106.239 89.3013 106.052 89.3406L107.15 89.7446C107.405 89.8355 107.638 89.9719 107.834 90.1459C108.031 90.3198 108.189 90.5279 108.297 90.758C108.406 90.9881 108.463 91.2357 108.467 91.4863C108.47 91.737 108.419 91.9858 108.317 92.2184C108.213 92.4523 108.061 92.6653 107.867 92.845C107.673 93.0247 107.443 93.1676 107.189 93.2656C106.935 93.3636 106.663 93.4148 106.388 93.4161C106.112 93.4174 105.839 93.3689 105.584 93.2734C105.156 93.1207 104.717 92.9546 104.289 92.8065C104.504 93.1874 104.826 93.509 105.221 93.7382C105.616 93.9674 106.071 94.096 106.539 94.1107C107.006 94.1253 107.469 94.0256 107.881 93.8217C108.292 93.6178 108.637 93.3171 108.88 92.9506C109.123 92.584 109.255 92.1647 109.262 91.7359C109.27 91.3071 109.153 90.8842 108.923 90.5107C108.693 90.1371 108.359 89.8264 107.955 89.6105C107.551 89.3947 107.091 89.2813 106.623 89.2822Z" fill="#3A3731"/>
<path d="M114.797 81.6592C113.009 81.6592 111.566 82.9701 111.566 84.582C111.566 86.2027 113.014 87.5048 114.797 87.5048C116.565 87.5093 118.017 86.2029 118.012 84.582C118.012 82.9701 116.565 81.6592 114.797 81.6592ZM114.789 86.3371C114.412 86.3334 114.043 86.2273 113.731 86.0322C113.419 85.8371 113.177 85.5616 113.035 85.2406C112.893 84.9195 112.858 84.5672 112.935 84.2279C113.011 83.8886 113.195 83.5776 113.463 83.334C113.732 83.0904 114.073 82.925 114.444 82.8588C114.815 82.7926 115.199 82.8285 115.547 82.9619C115.896 83.0953 116.194 83.3203 116.403 83.6086C116.613 83.8968 116.724 84.2355 116.724 84.5818C116.724 84.8137 116.673 85.0431 116.575 85.2569C116.477 85.4707 116.334 85.6647 116.154 85.8278C115.975 85.9909 115.762 86.1198 115.527 86.2072C115.293 86.2946 115.042 86.3388 114.789 86.3371H114.789Z" fill="#3A3731"/>
<path d="M174.116 75.0713C166.579 75.0713 160.469 80.6731 160.469 87.5833C160.469 94.4935 166.579 100.095 174.116 100.095C181.653 100.095 187.763 94.4935 187.763 87.5833C187.763 80.6731 181.653 75.0713 174.116 75.0713ZM178.772 88.9414L174.158 91.9987C173.99 93.6509 172.449 94.9439 170.592 94.9439C169.777 94.9443 168.985 94.6903 168.348 94.2236C167.711 93.7569 167.266 93.1052 167.086 92.3758L164.659 91.4914V87.379L168.761 88.883C169.401 88.5327 170.12 88.3757 170.957 88.4431L173.951 84.5462C173.971 82.1578 176.123 80.2228 178.762 80.2228C181.416 80.2228 183.568 82.1802 183.573 84.5776C183.573 86.9928 181.416 88.9414 178.772 88.9414Z" fill="#3A3731"/>
<path d="M170.592 89.2822C170.4 89.2817 170.208 89.3013 170.021 89.3406L171.119 89.7446C171.374 89.8355 171.606 89.9719 171.803 90.1459C172 90.3198 172.157 90.5279 172.266 90.758C172.375 90.9881 172.432 91.2357 172.436 91.4863C172.439 91.737 172.388 91.9858 172.286 92.2184C172.182 92.4523 172.029 92.6653 171.836 92.845C171.642 93.0247 171.412 93.1676 171.158 93.2656C170.904 93.3636 170.632 93.4148 170.356 93.4161C170.081 93.4174 169.808 93.3689 169.553 93.2734C169.124 93.1207 168.686 92.9546 168.258 92.8065C168.473 93.1874 168.794 93.509 169.19 93.7382C169.585 93.9674 170.04 94.096 170.507 94.1107C170.975 94.1253 171.438 94.0256 171.85 93.8217C172.261 93.6178 172.606 93.3171 172.849 92.9506C173.092 92.584 173.224 92.1647 173.231 91.7359C173.239 91.3071 173.121 90.8842 172.892 90.5107C172.662 90.1371 172.328 89.8264 171.923 89.6105C171.519 89.3947 171.06 89.2813 170.592 89.2822Z" fill="#3A3731"/>
<path d="M178.765 81.6592C176.978 81.6592 175.535 82.9701 175.535 84.582C175.535 86.2027 176.983 87.5048 178.765 87.5048C180.533 87.5093 181.986 86.2029 181.981 84.582C181.981 82.9701 180.533 81.6592 178.765 81.6592ZM178.758 86.3371C178.38 86.3334 178.012 86.2273 177.7 86.0322C177.388 85.8371 177.146 85.5616 177.004 85.2406C176.862 84.9195 176.827 84.5672 176.903 84.2279C176.979 83.8886 177.163 83.5776 177.432 83.334C177.701 83.0904 178.042 82.925 178.413 82.8588C178.783 82.7926 179.167 82.8285 179.516 82.9619C179.865 83.0953 180.162 83.3203 180.372 83.6086C180.581 83.8968 180.693 84.2355 180.693 84.5818C180.692 84.8137 180.641 85.0431 180.544 85.2569C180.446 85.4707 180.303 85.6647 180.123 85.8278C179.943 85.9909 179.73 86.1198 179.496 86.2072C179.262 86.2946 179.011 86.3388 178.758 86.3371H178.758Z" fill="#3A3731"/>
<path d="M238.088 75.0713C230.551 75.0713 224.441 80.6731 224.441 87.5833C224.441 94.4935 230.551 100.095 238.088 100.095C245.626 100.095 251.736 94.4935 251.736 87.5833C251.736 80.6731 245.626 75.0713 238.088 75.0713ZM242.744 88.9414L238.13 91.9987C237.963 93.6509 236.422 94.9439 234.565 94.9439C233.75 94.9443 232.958 94.6903 232.321 94.2236C231.684 93.7569 231.239 93.1052 231.059 92.3758L228.631 91.4914V87.379L232.733 88.883C233.374 88.5327 234.093 88.3757 234.93 88.4431L237.924 84.5462C237.943 82.1578 240.095 80.2228 242.735 80.2228C245.389 80.2228 247.541 82.1802 247.546 84.5776C247.546 86.9928 245.389 88.9414 242.744 88.9414Z" fill="#3A3731"/>
<path d="M234.565 89.2822C234.372 89.2817 234.181 89.3013 233.993 89.3406L235.091 89.7446C235.346 89.8355 235.579 89.9719 235.776 90.1459C235.973 90.3198 236.13 90.5279 236.239 90.758C236.347 90.9881 236.405 91.2357 236.408 91.4863C236.412 91.737 236.361 91.9858 236.259 92.2184C236.155 92.4523 236.002 92.6653 235.808 92.845C235.615 93.0247 235.385 93.1676 235.131 93.2656C234.877 93.3636 234.604 93.4148 234.329 93.4161C234.054 93.4174 233.78 93.3689 233.526 93.2734C233.097 93.1207 232.659 92.9546 232.23 92.8065C232.445 93.1874 232.767 93.509 233.162 93.7382C233.558 93.9674 234.013 94.096 234.48 94.1107C234.948 94.1253 235.411 94.0256 235.822 93.8217C236.234 93.6178 236.579 93.3171 236.822 92.9506C237.064 92.584 237.196 92.1647 237.204 91.7359C237.211 91.3071 237.094 90.8842 236.864 90.5107C236.634 90.1371 236.3 89.8264 235.896 89.6105C235.492 89.3947 235.032 89.2813 234.565 89.2822Z" fill="#3A3731"/>
<path d="M242.738 81.6592C240.951 81.6592 239.508 82.9701 239.508 84.582C239.508 86.2027 240.956 87.5048 242.738 87.5048C244.506 87.5093 245.959 86.2029 245.954 84.582C245.954 82.9701 244.506 81.6592 242.738 81.6592ZM242.731 86.3371C242.353 86.3334 241.985 86.2273 241.673 86.0322C241.361 85.8371 241.118 85.5616 240.977 85.2406C240.835 84.9195 240.8 84.5672 240.876 84.2279C240.952 83.8886 241.136 83.5776 241.405 83.334C241.673 83.0904 242.014 82.925 242.385 82.8588C242.756 82.7926 243.14 82.8285 243.489 82.9619C243.837 83.0953 244.135 83.3203 244.345 83.6086C244.554 83.8968 244.666 84.2355 244.666 84.5818C244.665 84.8137 244.614 85.0431 244.516 85.2569C244.418 85.4707 244.276 85.6647 244.096 85.8278C243.916 85.9909 243.703 86.1198 243.469 86.2072C243.234 86.2946 242.984 86.3388 242.731 86.3371H242.731Z" fill="#3A3731"/>
<path d="M302.057 75.0713C294.52 75.0713 288.41 80.6731 288.41 87.5833C288.41 94.4935 294.52 100.095 302.057 100.095C309.594 100.095 315.704 94.4935 315.704 87.5833C315.704 80.6731 309.594 75.0713 302.057 75.0713ZM306.713 88.9414L302.099 91.9987C301.932 93.6509 300.39 94.9439 298.534 94.9439C297.718 94.9443 296.927 94.6903 296.29 94.2236C295.652 93.7569 295.207 93.1052 295.028 92.3758L292.6 91.4914V87.379L296.702 88.883C297.342 88.5327 298.061 88.3757 298.898 88.4431L301.892 84.5462C301.912 82.1578 304.064 80.2228 306.703 80.2228C309.358 80.2228 311.509 82.1802 311.514 84.5776C311.514 86.9928 309.357 88.9414 306.713 88.9414Z" fill="#3A3731"/>
<path d="M298.533 89.2822C298.341 89.2817 298.149 89.3013 297.962 89.3406L299.06 89.7446C299.315 89.8355 299.548 89.9719 299.745 90.1459C299.942 90.3198 300.099 90.5279 300.207 90.758C300.316 90.9881 300.374 91.2357 300.377 91.4863C300.38 91.737 300.33 91.9858 300.227 92.2184C300.124 92.4523 299.971 92.6653 299.777 92.845C299.584 93.0247 299.353 93.1676 299.099 93.2656C298.846 93.3636 298.573 93.4148 298.298 93.4161C298.022 93.4174 297.749 93.3689 297.494 93.2734C297.066 93.1207 296.628 92.9546 296.199 92.8065C296.414 93.1874 296.736 93.509 297.131 93.7382C297.526 93.9674 297.981 94.096 298.449 94.1107C298.916 94.1253 299.38 94.0256 299.791 93.8217C300.203 93.6178 300.548 93.3171 300.79 92.9506C301.033 92.584 301.165 92.1647 301.173 91.7359C301.18 91.3071 301.063 90.8842 300.833 90.5107C300.603 90.1371 300.269 89.8264 299.865 89.6105C299.461 89.3947 299.001 89.2813 298.533 89.2822Z" fill="#3A3731"/>
<path d="M306.707 81.6592C304.919 81.6592 303.477 82.9701 303.477 84.582C303.477 86.2027 304.924 87.5048 306.707 87.5048C308.475 87.5093 309.928 86.2029 309.922 84.582C309.923 82.9701 308.475 81.6592 306.707 81.6592ZM306.7 86.3371C306.322 86.3334 305.954 86.2273 305.641 86.0322C305.329 85.8371 305.087 85.5616 304.945 85.2406C304.803 84.9195 304.768 84.5672 304.845 84.2279C304.921 83.8886 305.105 83.5776 305.373 83.334C305.642 83.0904 305.983 82.925 306.354 82.8588C306.725 82.7926 307.109 82.8285 307.457 82.9619C307.806 83.0953 308.104 83.3203 308.313 83.6086C308.523 83.8968 308.635 84.2355 308.635 84.5818C308.634 84.8137 308.583 85.0431 308.485 85.2569C308.387 85.4707 308.244 85.6647 308.065 85.8278C307.885 85.9909 307.672 86.1198 307.437 86.2072C307.203 86.2946 306.952 86.3388 306.7 86.3371H306.7Z" fill="#3A3731"/>
<path d="M366.03 75.0713C358.493 75.0713 352.383 80.6731 352.383 87.5833C352.383 94.4935 358.493 100.095 366.03 100.095C373.567 100.095 379.677 94.4935 379.677 87.5833C379.677 80.6731 373.567 75.0713 366.03 75.0713ZM370.686 88.9414L366.072 91.9987C365.904 93.6509 364.363 94.9439 362.507 94.9439C361.691 94.9443 360.899 94.6903 360.262 94.2236C359.625 93.7569 359.18 93.1052 359 92.3758L356.573 91.4914V87.379L360.675 88.883C361.315 88.5327 362.034 88.3757 362.871 88.4431L365.865 84.5462C365.885 82.1578 368.037 80.2228 370.676 80.2228C373.33 80.2228 375.482 82.1802 375.487 84.5776C375.487 86.9928 373.33 88.9414 370.686 88.9414Z" fill="#3A3731"/>
<path d="M362.506 89.2822C362.314 89.2817 362.122 89.3013 361.935 89.3406L363.033 89.7446C363.288 89.8355 363.52 89.9719 363.717 90.1459C363.914 90.3198 364.072 90.5279 364.18 90.758C364.289 90.9881 364.346 91.2357 364.35 91.4863C364.353 91.737 364.302 91.9858 364.2 92.2184C364.096 92.4523 363.943 92.6653 363.75 92.845C363.556 93.0247 363.326 93.1676 363.072 93.2656C362.818 93.3636 362.546 93.4148 362.27 93.4161C361.995 93.4174 361.722 93.3689 361.467 93.2734C361.039 93.1207 360.6 92.9546 360.172 92.8065C360.387 93.1874 360.708 93.509 361.104 93.7382C361.499 93.9674 361.954 94.096 362.421 94.1107C362.889 94.1253 363.352 94.0256 363.764 93.8217C364.175 93.6178 364.52 93.3171 364.763 92.9506C365.006 92.584 365.138 92.1647 365.145 91.7359C365.153 91.3071 365.035 90.8842 364.806 90.5107C364.576 90.1371 364.242 89.8264 363.837 89.6105C363.433 89.3947 362.974 89.2813 362.506 89.2822Z" fill="#3A3731"/>
<path d="M370.68 81.6592C368.892 81.6592 367.449 82.9701 367.449 84.582C367.449 86.2027 368.897 87.5048 370.68 87.5048C372.447 87.5093 373.9 86.2029 373.895 84.582C373.895 82.9701 372.447 81.6592 370.68 81.6592ZM370.672 86.3371C370.294 86.3334 369.926 86.2273 369.614 86.0322C369.302 85.8371 369.06 85.5616 368.918 85.2406C368.776 84.9195 368.741 84.5672 368.817 84.2279C368.894 83.8886 369.077 83.5776 369.346 83.334C369.615 83.0904 369.956 82.925 370.327 82.8588C370.697 82.7926 371.081 82.8285 371.43 82.9619C371.779 83.0953 372.077 83.3203 372.286 83.6086C372.495 83.8968 372.607 84.2355 372.607 84.5818C372.606 84.8137 372.556 85.0431 372.458 85.2569C372.36 85.4707 372.217 85.6647 372.037 85.8278C371.857 85.9909 371.644 86.1198 371.41 86.2072C371.176 86.2946 370.925 86.3388 370.672 86.3371H370.672Z" fill="#3A3731"/>
<path d="M46.1783 0C38.6413 0 32.5312 5.60184 32.5312 12.512C32.5312 19.4222 38.6413 25.0241 46.1783 25.0241C53.7154 25.0241 59.8254 19.4222 59.8254 12.512C59.8254 5.60184 53.7154 0 46.1783 0ZM50.8342 13.8701L46.2202 16.9274C46.0528 18.5796 44.5116 19.8726 42.655 19.8726C41.8394 19.8731 41.0479 19.6191 40.4107 19.1523C39.7735 18.6856 39.3285 18.034 39.1489 17.3045L36.7212 16.4201V12.3077L40.8232 13.8117C41.4634 13.4614 42.1824 13.3044 43.0195 13.3718L46.0134 9.47491C46.0331 7.08647 48.185 5.15151 50.8244 5.15151C53.4786 5.15151 55.6305 7.10894 55.6354 9.50634C55.6354 11.9215 53.4786 13.8701 50.8342 13.8701Z" fill="#3A3731"/>
<path d="M42.6544 14.2109C42.4622 14.2104 42.2705 14.23 42.0832 14.2693L43.1813 14.6733C43.4362 14.7642 43.6688 14.9006 43.8657 15.0746C44.0627 15.2485 44.22 15.4566 44.3285 15.6867C44.4371 15.9168 44.4947 16.1644 44.4981 16.4151C44.5015 16.6657 44.4506 16.9146 44.3484 17.1471C44.2447 17.3811 44.0918 17.594 43.8982 17.7737C43.7047 17.9534 43.4744 18.0964 43.2206 18.1944C42.9667 18.2924 42.6943 18.3435 42.4188 18.3448C42.1434 18.3461 41.8703 18.2976 41.6154 18.2021C41.187 18.0494 40.7487 17.8833 40.3203 17.7352C40.5352 18.1161 40.8568 18.4377 41.2522 18.6669C41.6476 18.8962 42.1024 19.0247 42.5699 19.0394C43.0373 19.054 43.5007 18.9543 43.9122 18.7504C44.3237 18.5465 44.6686 18.2458 44.9114 17.8793C45.1542 17.5127 45.2861 17.0934 45.2936 16.6646C45.3011 16.2358 45.1839 15.8129 44.9541 15.4394C44.7243 15.0658 44.3901 14.7552 43.9859 14.5393C43.5818 14.3234 43.1222 14.21 42.6544 14.2109Z" fill="#3A3731"/>
<path d="M50.828 6.58789C49.0405 6.58789 47.5977 7.89885 47.5977 9.5107C47.5977 11.1314 49.0454 12.4335 50.828 12.4335C52.5958 12.438 54.0487 11.1316 54.0435 9.5107C54.0436 7.89885 52.5959 6.58789 50.828 6.58789ZM50.8206 11.2658C50.4428 11.2621 50.0747 11.156 49.7625 10.9609C49.4504 10.7658 49.2081 10.4904 49.0664 10.1693C48.9246 9.84822 48.8896 9.49587 48.9658 9.1566C49.042 8.81733 49.2259 8.50631 49.4945 8.26269C49.7631 8.01907 50.1042 7.85375 50.4751 7.78753C50.8459 7.72132 51.2298 7.75718 51.5785 7.89059C51.9272 8.024 52.225 8.249 52.4344 8.53726C52.6439 8.82553 52.7557 9.16417 52.7557 9.51055C52.7548 9.74241 52.704 9.97182 52.6061 10.1856C52.5083 10.3994 52.3654 10.5934 52.1857 10.7565C52.0059 10.9196 51.7928 11.0485 51.5585 11.1359C51.3243 11.2233 51.0735 11.2675 50.8207 11.2658H50.8206Z" fill="#3A3731"/>
<path d="M110.147 0C102.61 0 96.5 5.60184 96.5 12.512C96.5 19.4222 102.61 25.0241 110.147 25.0241C117.684 25.0241 123.794 19.4222 123.794 12.512C123.794 5.60184 117.684 0 110.147 0ZM114.803 13.8701L110.189 16.9274C110.022 18.5796 108.48 19.8726 106.624 19.8726C105.808 19.8731 105.017 19.6191 104.379 19.1523C103.742 18.6856 103.297 18.034 103.118 17.3045L100.69 16.4201V12.3077L104.792 13.8117C105.432 13.4614 106.151 13.3044 106.988 13.3718L109.982 9.47491C110.002 7.08647 112.154 5.15151 114.793 5.15151C117.447 5.15151 119.599 7.10894 119.604 9.50634C119.604 11.9215 117.447 13.8701 114.803 13.8701Z" fill="#3A3731"/>
<path d="M106.623 14.2109C106.431 14.2104 106.239 14.23 106.052 14.2693L107.15 14.6733C107.405 14.7642 107.638 14.9006 107.834 15.0746C108.031 15.2485 108.189 15.4566 108.297 15.6867C108.406 15.9168 108.463 16.1644 108.467 16.4151C108.47 16.6657 108.419 16.9146 108.317 17.1471C108.213 17.3811 108.061 17.594 107.867 17.7737C107.673 17.9534 107.443 18.0964 107.189 18.1944C106.935 18.2924 106.663 18.3435 106.388 18.3448C106.112 18.3461 105.839 18.2976 105.584 18.2021C105.156 18.0494 104.717 17.8833 104.289 17.7352C104.504 18.1161 104.826 18.4377 105.221 18.6669C105.616 18.8962 106.071 19.0247 106.539 19.0394C107.006 19.054 107.469 18.9543 107.881 18.7504C108.292 18.5465 108.637 18.2458 108.88 17.8793C109.123 17.5127 109.255 17.0934 109.262 16.6646C109.27 16.2358 109.153 15.8129 108.923 15.4394C108.693 15.0658 108.359 14.7552 107.955 14.5393C107.551 14.3234 107.091 14.21 106.623 14.2109Z" fill="#3A3731"/>
<path d="M114.797 6.58789C113.009 6.58789 111.566 7.89885 111.566 9.5107C111.566 11.1314 113.014 12.4335 114.797 12.4335C116.565 12.438 118.017 11.1316 118.012 9.5107C118.012 7.89885 116.565 6.58789 114.797 6.58789ZM114.789 11.2658C114.412 11.2621 114.043 11.156 113.731 10.9609C113.419 10.7658 113.177 10.4904 113.035 10.1693C112.893 9.84822 112.858 9.49587 112.935 9.1566C113.011 8.81733 113.195 8.50631 113.463 8.26269C113.732 8.01907 114.073 7.85375 114.444 7.78753C114.815 7.72132 115.199 7.75718 115.547 7.89059C115.896 8.024 116.194 8.249 116.403 8.53726C116.613 8.82553 116.724 9.16417 116.724 9.51055C116.724 9.74241 116.673 9.97182 116.575 10.1856C116.477 10.3994 116.334 10.5934 116.154 10.7565C115.975 10.9196 115.762 11.0485 115.527 11.1359C115.293 11.2233 115.042 11.2675 114.789 11.2658H114.789Z" fill="#3A3731"/>
<path d="M174.116 0C166.579 0 160.469 5.60184 160.469 12.512C160.469 19.4222 166.579 25.0241 174.116 25.0241C181.653 25.0241 187.763 19.4222 187.763 12.512C187.763 5.60184 181.653 0 174.116 0ZM178.772 13.8701L174.158 16.9274C173.99 18.5796 172.449 19.8726 170.592 19.8726C169.777 19.8731 168.985 19.6191 168.348 19.1523C167.711 18.6856 167.266 18.034 167.086 17.3045L164.659 16.4201V12.3077L168.761 13.8117C169.401 13.4614 170.12 13.3044 170.957 13.3718L173.951 9.47491C173.971 7.08647 176.123 5.15151 178.762 5.15151C181.416 5.15151 183.568 7.10894 183.573 9.50634C183.573 11.9215 181.416 13.8701 178.772 13.8701Z" fill="#3A3731"/>
<path d="M170.592 14.2109C170.4 14.2104 170.208 14.23 170.021 14.2693L171.119 14.6733C171.374 14.7642 171.606 14.9006 171.803 15.0746C172 15.2485 172.157 15.4566 172.266 15.6867C172.375 15.9168 172.432 16.1644 172.436 16.4151C172.439 16.6657 172.388 16.9146 172.286 17.1471C172.182 17.3811 172.029 17.594 171.836 17.7737C171.642 17.9534 171.412 18.0964 171.158 18.1944C170.904 18.2924 170.632 18.3435 170.356 18.3448C170.081 18.3461 169.808 18.2976 169.553 18.2021C169.124 18.0494 168.686 17.8833 168.258 17.7352C168.473 18.1161 168.794 18.4377 169.19 18.6669C169.585 18.8962 170.04 19.0247 170.507 19.0394C170.975 19.054 171.438 18.9543 171.85 18.7504C172.261 18.5465 172.606 18.2458 172.849 17.8793C173.092 17.5127 173.224 17.0934 173.231 16.6646C173.239 16.2358 173.121 15.8129 172.892 15.4394C172.662 15.0658 172.328 14.7552 171.923 14.5393C171.519 14.3234 171.06 14.21 170.592 14.2109Z" fill="#3A3731"/>
<path d="M178.765 6.58789C176.978 6.58789 175.535 7.89885 175.535 9.5107C175.535 11.1314 176.983 12.4335 178.765 12.4335C180.533 12.438 181.986 11.1316 181.981 9.5107C181.981 7.89885 180.533 6.58789 178.765 6.58789ZM178.758 11.2658C178.38 11.2621 178.012 11.156 177.7 10.9609C177.388 10.7658 177.146 10.4904 177.004 10.1693C176.862 9.84822 176.827 9.49587 176.903 9.1566C176.979 8.81733 177.163 8.50631 177.432 8.26269C177.701 8.01907 178.042 7.85375 178.413 7.78753C178.783 7.72132 179.167 7.75718 179.516 7.89059C179.865 8.024 180.162 8.249 180.372 8.53726C180.581 8.82553 180.693 9.16417 180.693 9.51055C180.692 9.74241 180.641 9.97182 180.544 10.1856C180.446 10.3994 180.303 10.5934 180.123 10.7565C179.943 10.9196 179.73 11.0485 179.496 11.1359C179.262 11.2233 179.011 11.2675 178.758 11.2658H178.758Z" fill="#3A3731"/>
<path d="M238.088 0C230.551 0 224.441 5.60184 224.441 12.512C224.441 19.4222 230.551 25.0241 238.088 25.0241C245.626 25.0241 251.736 19.4222 251.736 12.512C251.736 5.60184 245.626 0 238.088 0ZM242.744 13.8701L238.13 16.9274C237.963 18.5796 236.422 19.8726 234.565 19.8726C233.75 19.8731 232.958 19.6191 232.321 19.1523C231.684 18.6856 231.239 18.034 231.059 17.3045L228.631 16.4201V12.3077L232.733 13.8117C233.374 13.4614 234.093 13.3044 234.93 13.3718L237.924 9.47491C237.943 7.08647 240.095 5.15151 242.735 5.15151C245.389 5.15151 247.541 7.10894 247.546 9.50634C247.546 11.9215 245.389 13.8701 242.744 13.8701Z" fill="#3A3731"/>
<path d="M234.565 14.2109C234.372 14.2104 234.181 14.23 233.993 14.2693L235.091 14.6733C235.346 14.7642 235.579 14.9006 235.776 15.0746C235.973 15.2485 236.13 15.4566 236.239 15.6867C236.347 15.9168 236.405 16.1644 236.408 16.4151C236.412 16.6657 236.361 16.9146 236.259 17.1471C236.155 17.3811 236.002 17.594 235.808 17.7737C235.615 17.9534 235.385 18.0964 235.131 18.1944C234.877 18.2924 234.604 18.3435 234.329 18.3448C234.054 18.3461 233.78 18.2976 233.526 18.2021C233.097 18.0494 232.659 17.8833 232.23 17.7352C232.445 18.1161 232.767 18.4377 233.162 18.6669C233.558 18.8962 234.013 19.0247 234.48 19.0394C234.948 19.054 235.411 18.9543 235.822 18.7504C236.234 18.5465 236.579 18.2458 236.822 17.8793C237.064 17.5127 237.196 17.0934 237.204 16.6646C237.211 16.2358 237.094 15.8129 236.864 15.4394C236.634 15.0658 236.3 14.7552 235.896 14.5393C235.492 14.3234 235.032 14.21 234.565 14.2109Z" fill="#3A3731"/>
<path d="M242.738 6.58789C240.951 6.58789 239.508 7.89885 239.508 9.5107C239.508 11.1314 240.956 12.4335 242.738 12.4335C244.506 12.438 245.959 11.1316 245.954 9.5107C245.954 7.89885 244.506 6.58789 242.738 6.58789ZM242.731 11.2658C242.353 11.2621 241.985 11.156 241.673 10.9609C241.361 10.7658 241.118 10.4904 240.977 10.1693C240.835 9.84822 240.8 9.49587 240.876 9.1566C240.952 8.81733 241.136 8.50631 241.405 8.26269C241.673 8.01907 242.014 7.85375 242.385 7.78753C242.756 7.72132 243.14 7.75718 243.489 7.89059C243.837 8.024 244.135 8.249 244.345 8.53726C244.554 8.82553 244.666 9.16417 244.666 9.51055C244.665 9.74241 244.614 9.97182 244.516 10.1856C244.418 10.3994 244.276 10.5934 244.096 10.7565C243.916 10.9196 243.703 11.0485 243.469 11.1359C243.234 11.2233 242.984 11.2675 242.731 11.2658H242.731Z" fill="#3A3731"/>
<path d="M302.057 0C294.52 0 288.41 5.60184 288.41 12.512C288.41 19.4222 294.52 25.0241 302.057 25.0241C309.594 25.0241 315.704 19.4222 315.704 12.512C315.704 5.60184 309.594 0 302.057 0ZM306.713 13.8701L302.099 16.9274C301.932 18.5796 300.39 19.8726 298.534 19.8726C297.718 19.8731 296.927 19.6191 296.29 19.1523C295.652 18.6856 295.207 18.034 295.028 17.3045L292.6 16.4201V12.3077L296.702 13.8117C297.342 13.4614 298.061 13.3044 298.898 13.3718L301.892 9.47491C301.912 7.08647 304.064 5.15151 306.703 5.15151C309.358 5.15151 311.509 7.10894 311.514 9.50634C311.514 11.9215 309.357 13.8701 306.713 13.8701Z" fill="#3A3731"/>
<path d="M298.533 14.2109C298.341 14.2104 298.149 14.23 297.962 14.2693L299.06 14.6733C299.315 14.7642 299.548 14.9006 299.745 15.0746C299.942 15.2485 300.099 15.4566 300.207 15.6867C300.316 15.9168 300.374 16.1644 300.377 16.4151C300.38 16.6657 300.33 16.9146 300.227 17.1471C300.124 17.3811 299.971 17.594 299.777 17.7737C299.584 17.9534 299.353 18.0964 299.099 18.1944C298.846 18.2924 298.573 18.3435 298.298 18.3448C298.022 18.3461 297.749 18.2976 297.494 18.2021C297.066 18.0494 296.628 17.8833 296.199 17.7352C296.414 18.1161 296.736 18.4377 297.131 18.6669C297.526 18.8962 297.981 19.0247 298.449 19.0394C298.916 19.054 299.38 18.9543 299.791 18.7504C300.203 18.5465 300.548 18.2458 300.79 17.8793C301.033 17.5127 301.165 17.0934 301.173 16.6646C301.18 16.2358 301.063 15.8129 300.833 15.4394C300.603 15.0658 300.269 14.7552 299.865 14.5393C299.461 14.3234 299.001 14.21 298.533 14.2109Z" fill="#3A3731"/>
<path d="M306.707 6.58789C304.919 6.58789 303.477 7.89885 303.477 9.5107C303.477 11.1314 304.924 12.4335 306.707 12.4335C308.475 12.438 309.928 11.1316 309.922 9.5107C309.923 7.89885 308.475 6.58789 306.707 6.58789ZM306.7 11.2658C306.322 11.2621 305.954 11.156 305.641 10.9609C305.329 10.7658 305.087 10.4904 304.945 10.1693C304.803 9.84822 304.768 9.49587 304.845 9.1566C304.921 8.81733 305.105 8.50631 305.373 8.26269C305.642 8.01907 305.983 7.85375 306.354 7.78753C306.725 7.72132 307.109 7.75718 307.457 7.89059C307.806 8.024 308.104 8.249 308.313 8.53726C308.523 8.82553 308.635 9.16417 308.635 9.51055C308.634 9.74241 308.583 9.97182 308.485 10.1856C308.387 10.3994 308.244 10.5934 308.065 10.7565C307.885 10.9196 307.672 11.0485 307.437 11.1359C307.203 11.2233 306.952 11.2675 306.7 11.2658H306.7Z" fill="#3A3731"/>
<path d="M366.03 0C358.493 0 352.383 5.60184 352.383 12.512C352.383 19.4222 358.493 25.0241 366.03 25.0241C373.567 25.0241 379.677 19.4222 379.677 12.512C379.677 5.60184 373.567 0 366.03 0ZM370.686 13.8701L366.072 16.9274C365.904 18.5796 364.363 19.8726 362.507 19.8726C361.691 19.8731 360.899 19.6191 360.262 19.1523C359.625 18.6856 359.18 18.034 359 17.3045L356.573 16.4201V12.3077L360.675 13.8117C361.315 13.4614 362.034 13.3044 362.871 13.3718L365.865 9.47491C365.885 7.08647 368.037 5.15151 370.676 5.15151C373.33 5.15151 375.482 7.10894 375.487 9.50634C375.487 11.9215 373.33 13.8701 370.686 13.8701Z" fill="#3A3731"/>
<path d="M362.506 14.2109C362.314 14.2104 362.122 14.23 361.935 14.2693L363.033 14.6733C363.288 14.7642 363.52 14.9006 363.717 15.0746C363.914 15.2485 364.072 15.4566 364.18 15.6867C364.289 15.9168 364.346 16.1644 364.35 16.4151C364.353 16.6657 364.302 16.9146 364.2 17.1471C364.096 17.3811 363.943 17.594 363.75 17.7737C363.556 17.9534 363.326 18.0964 363.072 18.1944C362.818 18.2924 362.546 18.3435 362.27 18.3448C361.995 18.3461 361.722 18.2976 361.467 18.2021C361.039 18.0494 360.6 17.8833 360.172 17.7352C360.387 18.1161 360.708 18.4377 361.104 18.6669C361.499 18.8962 361.954 19.0247 362.421 19.0394C362.889 19.054 363.352 18.9543 363.764 18.7504C364.175 18.5465 364.52 18.2458 364.763 17.8793C365.006 17.5127 365.138 17.0934 365.145 16.6646C365.153 16.2358 365.035 15.8129 364.806 15.4394C364.576 15.0658 364.242 14.7552 363.837 14.5393C363.433 14.3234 362.974 14.21 362.506 14.2109Z" fill="#3A3731"/>
<path d="M370.68 6.58789C368.892 6.58789 367.449 7.89885 367.449 9.5107C367.449 11.1314 368.897 12.4335 370.68 12.4335C372.447 12.438 373.9 11.1316 373.895 9.5107C373.895 7.89885 372.447 6.58789 370.68 6.58789ZM370.672 11.2658C370.294 11.2621 369.926 11.156 369.614 10.9609C369.302 10.7658 369.06 10.4904 368.918 10.1693C368.776 9.84822 368.741 9.49587 368.817 9.1566C368.894 8.81733 369.077 8.50631 369.346 8.26269C369.615 8.01907 369.956 7.85375 370.327 7.78753C370.697 7.72132 371.081 7.75718 371.43 7.89059C371.779 8.024 372.077 8.249 372.286 8.53726C372.495 8.82553 372.607 9.16417 372.607 9.51055C372.606 9.74241 372.556 9.97182 372.458 10.1856C372.36 10.3994 372.217 10.5934 372.037 10.7565C371.857 10.9196 371.644 11.0485 371.41 11.1359C371.176 11.2233 370.925 11.2675 370.672 11.2658H370.672Z" fill="#3A3731"/>
</svg>
