<svg width="24" height="24" viewBox="0 0 24 24" fill="none" xmlns="http://www.w3.org/2000/svg">
<g id="Group">
<path id="Vector" d="M8.71771 0H1.82723C0.819634 0 0 0.819634 0 1.82723V8.71771C0 9.7253 0.819634 10.5449 1.82723 10.5449H8.71771C9.7253 10.5449 10.5449 9.7253 10.5449 8.71771V1.82723C10.5448 0.819634 9.7253 0 8.71771 0Z" fill="#847F7D"/>
<path id="Vector_2" d="M22.1708 0H15.2804C14.2728 0 13.4531 0.819634 13.4531 1.82723V8.71771C13.4531 9.7253 14.2728 10.5449 15.2804 10.5449H22.1708C23.1784 10.5449 23.9981 9.7253 23.9981 8.71771V1.82723C23.9981 0.819634 23.1784 0 22.1708 0Z" fill="#847F7D"/>
<path id="Vector_3" d="M8.71771 13.4551H1.82723C0.819634 13.4551 0 14.2746 0 15.2822V22.1727C0 23.1803 0.819634 23.9999 1.82723 23.9999H8.71771C9.7253 23.9999 10.5449 23.1803 10.5449 22.1727V15.2822C10.5448 14.2746 9.7253 13.4551 8.71771 13.4551Z" fill="#847F7D"/>
<path id="Vector_4" d="M22.1708 13.4551H15.2804C14.2728 13.4551 13.4531 14.2747 13.4531 15.2823V22.1728C13.4531 23.1804 14.2728 24 15.2804 24H22.1708C23.1784 23.9999 23.9981 23.1803 23.9981 22.1727V15.2822C23.9981 14.2746 23.1784 13.4551 22.1708 13.4551Z" fill="#847F7D"/>
</g>
</svg>
