<svg width="94" height="62" viewBox="0 0 94 62" fill="none" xmlns="http://www.w3.org/2000/svg">
<g clip-path="url(#clip0_402_17679)">
<path d="M1.69739 7.71605C1.69739 3.88074 4.80652 0.771605 8.64183 0.771605H85.8023C89.6376 0.771605 92.7468 3.88074 92.7468 7.71605V54.0123C92.7468 57.8477 89.6376 60.9568 85.8023 60.9568H8.64183C4.80652 60.9568 1.69739 57.8477 1.69739 54.0123V7.71605Z" fill="#121110" stroke="#272423" stroke-width="1.54321"/>
<path d="M60.1686 36.8263C60.9375 37.1558 61.2671 38.2543 61.2671 38.8036C61.3769 39.6824 61.1572 40.1218 60.8277 40.1218C60.4981 40.1218 60.0587 39.7922 59.6193 39.0233C59.1799 38.2543 58.9602 37.4854 59.1799 37.046C59.5095 36.8263 59.839 36.7164 60.1686 36.8263Z" fill="#F28A1A"/>
<path d="M55.6665 40.2317C56.1059 40.2317 56.6552 40.4514 57.2044 40.8908C58.0832 41.6597 58.4127 42.5385 57.9733 43.1976C57.7537 43.5272 57.2044 43.7469 56.765 43.7469C56.2158 43.7469 55.6665 43.5272 55.337 43.1976C54.4582 42.4287 54.2385 41.3302 54.7877 40.6711C54.8976 40.4514 55.2271 40.2317 55.6665 40.2317Z" fill="#F28A1A"/>
<path d="M45.2298 48.9095C33.8054 48.9095 24.5781 39.6822 24.5781 28.3677C24.5781 17.0532 33.8054 7.71606 45.2298 7.71606C56.6541 7.71606 65.8814 16.9434 65.8814 28.3677C65.8814 32.2124 64.7829 35.8374 63.0253 38.9132C62.9155 39.0231 62.8056 39.0231 62.8056 38.8034C62.0367 33.7503 58.9609 31.0041 54.5669 30.1253C54.1275 30.0154 54.1275 29.7957 54.6768 29.7957C56.1048 29.6859 57.9723 29.6859 59.0707 29.9056C59.1806 29.3563 59.1806 28.8071 59.1806 28.3677C59.1806 20.898 53.029 14.7464 45.5593 14.7464C38.0896 14.7464 31.938 20.898 31.938 28.3677C31.938 35.8374 38.0896 41.989 45.5593 41.989H46.2184C45.9987 40.7806 45.8889 39.5723 45.9987 38.2541C45.9987 37.3753 46.2184 37.2655 46.5479 37.9246C48.4154 41.22 51.1616 44.0761 56.4344 45.2845C60.7185 46.2731 65.0026 47.3716 69.7261 53.1936C70.1655 53.7428 69.5064 54.2921 69.067 53.8527C64.3435 49.6784 60.0594 48.2504 56.1048 48.2504C51.1616 48.3602 48.1957 48.9095 45.2298 48.9095Z" fill="#F28A1A"/>
</g>
<defs>
<clipPath id="clip0_402_17679">
<rect width="92.5926" height="61.7284" fill="white" transform="translate(0.925781)"/>
</clipPath>
</defs>
</svg>
