<svg width="93" height="62" viewBox="0 0 93 62" fill="none" xmlns="http://www.w3.org/2000/svg">
<g clip-path="url(#clip0_402_17684)">
<path d="M1.17785 7.71605C1.17785 3.88074 4.28699 0.771605 8.1223 0.771605H85.2828C89.1181 0.771605 92.2272 3.88074 92.2272 7.71605V54.0123C92.2272 57.8477 89.1181 60.9568 85.2828 60.9568H8.1223C4.28699 60.9568 1.17785 57.8477 1.17785 54.0123V7.71605Z" fill="#121110" stroke="#272423" stroke-width="1.54321"/>
<path fill-rule="evenodd" clip-rule="evenodd" d="M77.5682 32.5619C77.5682 28.1723 75.442 24.7087 71.3783 24.7087C67.2973 24.7087 64.8282 28.1723 64.8282 32.5276C64.8282 37.6888 67.7431 40.2951 71.927 40.2951C73.9674 40.2951 75.5106 39.8321 76.6766 39.1805V35.7512C75.5106 36.3342 74.1732 36.6943 72.4756 36.6943C70.8124 36.6943 69.3378 36.1113 69.1492 34.088H77.5339C77.5339 33.865 77.5682 32.9734 77.5682 32.5619ZM69.0977 30.9329C69.0977 28.9954 70.2809 28.1895 71.3611 28.1895C72.4071 28.1895 73.5216 28.9954 73.5216 30.9329H69.0977ZM58.2095 24.7087C56.5291 24.7087 55.4489 25.4974 54.8488 26.0461L54.6259 24.983H50.8536V44.9762L55.1403 44.0674L55.1574 39.2148C55.7747 39.6607 56.6835 40.2951 58.1924 40.2951C61.2617 40.2951 64.0566 37.826 64.0566 32.3904C64.0394 27.4179 61.2102 24.7087 58.2095 24.7087ZM57.1807 36.5228C56.1691 36.5228 55.5689 36.1627 55.1574 35.7169L55.1403 29.3554C55.5861 28.8582 56.2034 28.5153 57.1807 28.5153C58.7411 28.5153 59.8213 30.2642 59.8213 32.5104C59.8213 34.8081 58.7582 36.5228 57.1807 36.5228ZM44.9551 23.697L49.2589 22.7711V19.2903L44.9551 20.1991V23.697ZM44.9551 25.0002H49.2589V40.0036H44.9551V25.0002ZM40.3426 26.269L40.0682 25.0002H36.3645V40.0036H40.6512V29.8356C41.6629 28.5153 43.3776 28.7553 43.9091 28.9439V25.0002C43.3604 24.7944 41.3542 24.4172 40.3426 26.269ZM31.7692 21.2793L27.5854 22.1709L27.5682 35.9055C27.5682 38.4432 29.4715 40.3122 32.0093 40.3122C33.4153 40.3122 34.4441 40.055 35.0099 39.7464V36.2656C34.4612 36.4885 31.7521 37.2773 31.7521 34.7395V28.6524H35.0099V25.0002H31.7521L31.7692 21.2793ZM20.178 29.3554C20.178 28.6867 20.7267 28.4295 21.6355 28.4295C22.9386 28.4295 24.5847 28.8239 25.8879 29.5269V25.4974C24.4647 24.9316 23.0586 24.7087 21.6355 24.7087C18.1547 24.7087 15.8398 26.5262 15.8398 29.5612C15.8398 34.2937 22.3556 33.5393 22.3556 35.5797C22.3556 36.3685 21.6697 36.6257 20.7095 36.6257C19.2863 36.6257 17.4688 36.0427 16.0285 35.2539V39.3349C17.6231 40.0207 19.2349 40.3122 20.7095 40.3122C24.2761 40.3122 26.728 38.5461 26.728 35.4768C26.7109 30.3671 20.178 31.2759 20.178 29.3554Z" fill="#635BFF"/>
</g>
<defs>
<clipPath id="clip0_402_17684">
<rect width="92.5926" height="61.7284" fill="white" transform="translate(0.40625)"/>
</clipPath>
</defs>
</svg>
