<svg width="63" height="63" viewBox="0 0 63 63" fill="none" xmlns="http://www.w3.org/2000/svg">
<g clip-path="url(#clip0_337_88441)">
<path d="M54.4252 2.84021C53.9532 2.64122 53.4096 2.86232 53.2106 3.33288C53.0101 3.80488 53.2312 4.3485 53.7023 4.54749C57.9897 6.35714 61.1673 10.6426 61.1673 15.8169C61.1673 27.0285 47.2068 32.3715 39.773 23.9245C35.5702 19.1881 35.6182 11.8318 40.283 7.16704C43.0395 4.40906 46.767 3.24011 50.3834 3.66886C50.8914 3.72701 51.3524 3.36652 51.4129 2.85751C51.4735 2.34947 51.1101 1.88852 50.6021 1.82796C38.4603 0.385041 30.4325 14.063 37.4115 23.9245C36.668 23.9245 18.8021 23.9245 17.9903 23.9245C17.1242 23.9245 16.4215 24.6286 16.4215 25.4933V37.4827L14.6806 40.904C14.3508 41.5529 13.801 42.0369 13.1487 42.2844C13.1487 40.8545 12.0274 39.8624 10.7738 39.8624H7.19921C5.96633 39.8624 4.82334 40.8189 4.82334 42.3325H2.52535C1.1329 42.3325 0 43.4654 0 44.8588V45.9811C0 46.4925 0.413841 46.9073 0.926697 46.9073C1.43811 46.9073 1.85339 46.4925 1.85339 45.9811V44.8588C1.85339 44.4873 2.15476 44.1859 2.52535 44.1859H4.82334V57.014H2.52535C2.15476 57.014 1.85339 56.7127 1.85339 56.3421V49.6874C1.85339 49.1746 1.43811 48.7607 0.926697 48.7607C0.413841 48.7607 0 49.1746 0 49.6874V56.3421C0 57.7345 1.1329 58.8674 2.52535 58.8674H4.82334C4.82334 60.3819 5.96826 61.3384 7.19921 61.3384H10.7738C11.8625 61.3384 12.7815 60.6021 13.0608 59.6014C14.2004 59.9061 11.0612 59.7855 52.5396 59.7855C53.4946 59.7855 54.2719 59.0082 54.2719 58.0532V28.8603C65.7965 24.1437 65.97 7.7294 54.4252 2.84021ZM11.2953 50.5464C11.2953 51.5322 11.2953 51.8537 11.2953 51.8456V58.9626C11.2953 59.2457 11.0569 59.4855 10.7738 59.4855H7.19921C6.91658 59.4855 6.67674 59.2457 6.67674 58.9626C6.67674 58.1729 6.67674 43.0174 6.67674 42.2388C6.67674 41.9542 6.91658 41.7158 7.19921 41.7158H10.7738C11.0569 41.7158 11.2953 41.9542 11.2953 42.2388V50.5464ZM28.2287 25.7774H35.2952V33.0487L32.5483 30.8997C32.0854 30.5378 31.4346 30.5397 30.9751 30.8997L28.2287 33.0487V25.7774ZM28.0158 57.9273C13.303 57.9325 14.0192 58.0248 13.1487 57.6826V44.2152C14.5171 43.9134 15.651 43.0785 16.4215 41.5687C16.6262 41.1664 18.1533 38.1657 18.5243 37.4371C18.8315 36.8233 20.5666 38.3748 19.7485 39.9812L18.8541 41.7394C18.2513 42.9247 19.1107 44.3267 20.4407 44.3267L32.0494 44.3229C32.6238 44.3229 33.1145 44.7939 33.1083 45.3423C33.102 45.8864 32.6531 46.331 32.1071 46.3339H24.8632C24.3513 46.3339 23.9365 46.7487 23.9365 47.2606C23.9365 47.7725 24.3513 48.1873 24.8632 48.1873C24.868 48.1873 35.6774 48.1864 35.6798 48.1864C36.1465 48.1864 36.6334 48.6151 36.7088 49.0313C36.8434 49.7033 36.4493 50.1955 35.7552 50.1955C35.7523 50.1955 34.3181 50.1964 24.7853 50.1964C24.2734 50.1964 23.8586 50.6113 23.8586 51.1231C23.8586 51.6346 24.2734 52.0494 24.7853 52.0494C24.7906 52.0494 34.072 52.0494 34.0773 52.0498C34.967 52.0825 35.3601 53.1577 34.7483 53.7658C34.5589 53.9561 34.307 54.0599 34.0388 54.0599C26.9353 54.0643 28.9059 54.0638 23.8951 54.0638C23.3832 54.0638 22.9684 54.4786 22.9684 54.9905C22.9684 55.5024 23.3832 55.9172 23.8951 55.9172C28.308 55.9172 28.3325 55.8186 28.7271 56.2108C29.3549 56.8405 28.9088 57.9273 28.0158 57.9273ZM52.4185 57.9321H47.1034V40.1157C47.1034 39.6043 46.6881 39.189 46.1767 39.189C45.6639 39.189 45.25 39.6043 45.25 40.1157V57.9321H30.6858C30.9425 57.2587 30.9386 56.5507 30.6978 55.9157L34.0388 55.9133C36.0965 55.9133 37.4779 53.8018 36.6593 51.9153C38.7189 51.2779 39.2198 48.7088 37.7317 47.215C36.7309 46.2142 35.7326 46.333 34.7776 46.333C35.4937 44.4464 34.0484 42.4695 32.0494 42.4695L20.5604 42.4733L21.4005 40.8228C22.8098 38.0513 20.3748 34.9953 18.2749 35.4947V25.7774H26.3753V34.2321C26.3753 34.9362 26.9487 35.5092 27.6534 35.5092C28.2244 35.5092 28.1085 35.4952 31.762 32.6378C35.3654 35.4568 35.2866 35.5092 35.8701 35.5092C36.5752 35.5092 37.1486 34.9362 37.1486 34.2321V25.7774H38.9746C40.7429 27.5457 42.8987 28.7863 45.25 29.4174V36.4094C45.25 36.9208 45.6639 37.3361 46.1767 37.3361C46.6881 37.3361 47.1034 36.9208 47.1034 36.4094V29.7856C48.8669 30.0139 50.6848 29.9101 52.4185 29.4707V57.9321Z" fill="#9D604D"/>
<path d="M42.8156 15.6485C42.4763 15.265 41.8903 15.2299 41.5077 15.5692C41.1242 15.9086 41.0891 16.494 41.4284 16.8771L45.1607 21.091C45.8798 21.9023 47.1453 21.9009 47.8634 21.0948L56.4344 11.4755C56.7752 11.0939 56.7411 10.508 56.3589 10.1677C55.9768 9.82737 55.3914 9.86054 55.0506 10.2427L46.5137 19.823L42.8156 15.6485Z" fill="#9D604D"/>
</g>
<defs>
<clipPath id="clip0_337_88441">
<rect width="63" height="63" fill="white"/>
</clipPath>
</defs>
</svg>
