<svg width="51" height="52" viewBox="0 0 51 52" fill="none" xmlns="http://www.w3.org/2000/svg">
<g clip-path="url(#clip0_337_88446)">
<path d="M34.666 15.7573C34.1151 15.7573 33.668 16.2112 33.668 16.7726C33.668 17.3335 34.1151 17.7882 34.666 17.7882C35.2181 17.7882 35.6641 17.3335 35.6641 16.7726C35.6641 16.2112 35.2181 15.7573 34.666 15.7573Z" fill="#9D604D"/>
<path d="M16.5332 34.2103C15.9812 34.2103 15.5352 34.6654 15.5352 35.226C15.5352 35.7877 15.9812 36.2416 16.5332 36.2416C17.0841 36.2416 17.5312 35.7877 17.5312 35.226C17.5312 34.6654 17.0841 34.2103 16.5332 34.2103Z" fill="#9D604D"/>
<path d="M49.9089 6.24806C49.572 6.16831 49.218 6.27186 48.9748 6.5218L44.8372 10.7656H42.8536L40.67 8.46339V6.41667L44.7483 2.2046C44.9896 1.95545 45.0879 1.5972 45.0079 1.25641C44.9284 0.916021 44.682 0.641485 44.3561 0.529607C43.3315 0.178106 42.2594 -2.57162e-05 41.169 -2.57162e-05C37.9183 -2.57162e-05 34.9651 1.54246 33.0665 4.23188C31.2895 6.74952 30.7418 9.83488 31.5266 12.7877L24.175 20.2688L11.9271 7.77665V5.32487C11.9271 4.96821 11.7431 4.63734 11.4425 4.45405L4.38564 0.14478C3.99266 -0.0952406 3.49013 -0.0321607 3.16655 0.297521L0.343956 3.16944C0.0203721 3.49912 -0.0416157 4.01051 0.19386 4.41041L4.42775 11.5916C4.60786 11.8975 4.93262 12.0843 5.2831 12.0847L7.69166 12.0855L19.9407 24.5777L12.6172 32.0303C9.71542 31.232 6.68192 31.7902 4.2067 33.5997C1.56539 35.5306 0.0507812 38.535 0.0507812 41.843C0.0507812 42.9522 0.225829 44.0436 0.571245 45.0858C0.681576 45.4195 0.954088 45.6714 1.29093 45.7507C1.62816 45.8305 1.98176 45.7269 2.22542 45.477L6.36262 41.2336H8.35715L10.6296 43.5461V45.5758L6.4597 49.7859C6.21409 50.0338 6.11233 50.3937 6.1907 50.7368C6.26867 51.0796 6.51623 51.3569 6.8441 51.4692C7.86827 51.8207 8.94077 51.9988 10.0308 51.9988C13.2815 51.9988 16.2335 50.4571 18.1313 47.7693C19.9095 45.2505 20.458 42.1639 19.6736 39.2111L25.5555 33.2256L26.9028 34.7149L26.2845 35.3437C25.8946 35.7405 25.8946 36.3836 26.2845 36.7803C26.6744 37.1766 27.3059 37.1766 27.6962 36.7803L28.256 36.2106L40.8976 50.1842C40.907 50.1945 40.9167 50.2044 40.9265 50.2143C43.2657 52.5947 47.0555 52.5955 49.3958 50.2139C51.7295 47.8379 51.7295 43.9718 49.3958 41.5958C49.3857 41.5855 49.3752 41.5756 49.3646 41.5656L35.6115 28.7259L36.1651 28.1626C36.555 27.7662 36.555 27.1231 36.1651 26.7264C35.7753 26.3297 35.1437 26.3297 34.7534 26.7264L34.1394 27.3516L32.6731 25.9821L38.5834 19.9677C39.4236 20.1962 40.2906 20.3121 41.169 20.3121C46.6723 20.3121 51.149 15.7561 51.149 10.1562C51.149 9.04658 50.974 7.95558 50.6286 6.91297C50.5182 6.57932 50.2457 6.3274 49.9089 6.24806ZM8.81212 10.3526C8.62498 10.1618 8.37119 10.0646 8.10608 10.0646L5.84879 10.0638L2.30651 4.04542L4.02697 2.29465L9.93102 5.90012V8.19718C9.93102 8.46617 10.0359 8.72404 10.2226 8.91447L22.7637 21.7054L21.352 23.1416L8.81212 10.3526ZM34.1987 30.1637L47.9986 43.0466C49.5401 44.632 49.5354 47.1988 47.9841 48.7782C46.4294 50.3603 43.9124 50.3651 42.3514 48.7921L29.6685 34.7729L34.1987 30.1637ZM32.7266 28.789L28.3153 33.2772L26.9679 31.7879L31.2603 27.4195L32.7266 28.789ZM41.169 18.2808C40.2961 18.2808 39.4376 18.1384 38.6181 17.8575C38.2591 17.7349 37.8622 17.8294 37.594 18.1019C32.5905 23.1935 21.8093 34.1643 17.8393 38.2046C17.5711 38.4775 17.4779 38.8814 17.5992 39.2472C18.4288 41.7541 18.0319 44.428 16.5099 46.5843C14.9922 48.7341 12.6304 49.9676 10.0308 49.9676C9.73882 49.9676 9.44837 49.9513 9.16065 49.92L12.3306 46.7191C12.5193 46.5287 12.6257 46.2693 12.6257 45.9983V43.1252C12.6257 42.8558 12.5205 42.5975 12.3333 42.4071L9.47605 39.4995C9.28892 39.309 9.03512 39.2019 8.7704 39.2019H5.94703C5.68076 39.2019 5.42579 39.3102 5.23827 39.5023L2.09326 42.7281C2.06207 42.4353 2.04648 42.1397 2.04648 41.8426C2.04648 39.1968 3.25816 36.7938 5.37121 35.2493C7.48971 33.7005 10.1178 33.2962 12.5817 34.1409C12.9407 34.2642 13.3376 34.1694 13.6058 33.8965C13.6608 33.8409 33.3464 13.8081 33.3605 13.7938C33.6287 13.5209 33.7215 13.1174 33.6006 12.7516C32.7706 10.2447 33.1667 7.57154 34.6876 5.41691C36.2065 3.26505 38.5686 2.03123 41.1686 2.03123C41.4696 2.03123 41.7686 2.04828 42.0649 2.08161L38.9608 5.28758C38.7768 5.47761 38.6739 5.7335 38.6739 6.0001V8.87321C38.6739 9.13664 38.7741 9.38935 38.9538 9.57859L41.7113 12.4862C41.8992 12.6846 42.1585 12.7965 42.4294 12.7965H45.2528C45.5187 12.7965 45.7736 12.6885 45.9612 12.4961L49.1062 9.27073C49.1373 9.56352 49.1529 9.85908 49.1529 10.1562C49.1529 14.6361 45.5713 18.2808 41.169 18.2808Z" fill="#9D604D"/>
<path d="M31.1368 18.9267L18.6476 31.6359C18.2581 32.0322 18.2581 32.6753 18.6476 33.0721C19.0374 33.4688 19.6694 33.4688 20.0593 33.0721L32.5484 20.3629C32.9383 19.9665 32.9383 19.3234 32.5484 18.9267C32.1586 18.53 31.5266 18.53 31.1368 18.9267Z" fill="#9D604D"/>
<path d="M43.7503 45.9063C44.1402 46.3018 44.7722 46.3018 45.162 45.9039C45.5511 45.5068 45.5499 44.8637 45.1597 44.4678L36.1637 35.3426C35.7734 34.9467 35.1411 34.9479 34.7524 35.345C34.3629 35.7425 34.3641 36.3852 34.7543 36.7811L43.7503 45.9063Z" fill="#9D604D"/>
</g>
<defs>
<clipPath id="clip0_337_88446">
<rect width="51" height="52" fill="white"/>
</clipPath>
</defs>
</svg>
