<svg width="57" height="57" viewBox="0 0 57 57" fill="none" xmlns="http://www.w3.org/2000/svg">
<mask id="mask0_337_88557" style="mask-type:luminance" maskUnits="userSpaceOnUse" x="4" y="8" width="49" height="49">
<path d="M4 8H53V57H4V8Z" fill="white"/>
</mask>
<g mask="url(#mask0_337_88557)">
<path d="M18.0948 31.8711H7.44665C6.07169 31.8711 4.95703 30.7564 4.95703 29.3815V11.4466C4.95703 10.0716 6.07169 8.95699 7.44665 8.95699H42.7824L47.9504 14.1251" stroke="#9D604D" stroke-width="2.5" stroke-miterlimit="10" stroke-linecap="round" stroke-linejoin="round"/>
<path d="M36.5551 45.816L27.0569 55.3143C26.0846 56.2865 24.5083 56.2865 23.5361 55.3143L10.8543 42.6324C9.88191 41.6601 9.88191 40.0838 10.8543 39.1115L35.8403 14.1255H49.4L52.043 16.7685V30.3282L42.6456 39.7256" stroke="#9D604D" stroke-width="2.5" stroke-miterlimit="10" stroke-linecap="round" stroke-linejoin="round"/>
<path d="M30.418 29.9414L35.8318 35.3552L37.9973 33.1897" stroke="#9D604D" stroke-width="2.5" stroke-miterlimit="10" stroke-linecap="round" stroke-linejoin="round"/>
<path d="M42.5977 28.588L40.7029 30.4828L35.2891 25.069L37.1839 23.1741" stroke="#9D604D" stroke-width="2.5" stroke-miterlimit="10" stroke-linecap="round" stroke-linejoin="round"/>
<path d="M37.9961 27.7758L39.8909 25.8809" stroke="#9D604D" stroke-width="2.5" stroke-miterlimit="10" stroke-linecap="round" stroke-linejoin="round"/>
<path d="M33.1225 38.0619L25.9492 34.4076L29.6035 41.5809" stroke="#9D604D" stroke-width="2.5" stroke-miterlimit="10" stroke-linecap="round" stroke-linejoin="round"/>
<path d="M29.0703 40.3129L31.8696 37.5135" stroke="#9D604D" stroke-width="2.5" stroke-miterlimit="10" stroke-linecap="round" stroke-linejoin="round"/>
<path d="M22.9088 42.8634L22.8378 42.9344C22.0904 43.6819 20.8784 43.6819 20.131 42.9344C19.3834 42.1869 19.3834 40.975 20.131 40.2275L21.4844 38.874" stroke="#9D604D" stroke-width="2.5" stroke-miterlimit="10" stroke-linecap="round" stroke-linejoin="round"/>
<path d="M24.1894 46.9949L25.5428 45.6414C26.2903 44.8939 26.2903 43.682 25.5428 42.9346C24.7954 42.187 23.5834 42.187 22.8359 42.9346" stroke="#9D604D" stroke-width="2.5" stroke-miterlimit="10" stroke-linecap="round" stroke-linejoin="round"/>
<path d="M47.832 20.2505C47.832 21.3076 46.9751 22.1646 45.918 22.1646C44.8608 22.1646 44.0039 21.3076 44.0039 20.2505C44.0039 19.1934 44.8608 18.3364 45.918 18.3364C46.9751 18.3364 47.832 19.1934 47.832 20.2505Z" stroke="#9D604D" stroke-width="2.5" stroke-miterlimit="10" stroke-linecap="round" stroke-linejoin="round"/>
<path d="M13.7539 25.946L19.9269 15.0116" stroke="#9D604D" stroke-width="2.5" stroke-miterlimit="10" stroke-linecap="round" stroke-linejoin="round"/>
<path d="M23.1022 24.2149C23.1022 23.1576 22.2451 22.3006 21.1879 22.3006C20.1306 22.3006 19.2734 23.1576 19.2734 24.2149C19.2734 25.2723 20.1306 26.1293 21.1879 26.1293C22.2451 26.1293 23.1022 25.2723 23.1022 24.2149Z" stroke="#9D604D" stroke-width="2.5" stroke-miterlimit="10" stroke-linecap="round" stroke-linejoin="round"/>
<path d="M15.0241 16.6129C15.0241 15.5555 14.167 14.6985 13.1098 14.6985C12.0524 14.6985 11.1953 15.5555 11.1953 16.6129C11.1953 17.6702 12.0524 18.5272 13.1098 18.5272C14.167 18.5272 15.0241 17.6702 15.0241 16.6129Z" stroke="#9D604D" stroke-width="2.5" stroke-miterlimit="10" stroke-linecap="round" stroke-linejoin="round"/>
<path d="M47.2578 18.9104L52.0432 14.1251" stroke="#9D604D" stroke-width="2.5" stroke-miterlimit="10" stroke-linecap="round" stroke-linejoin="round"/>
</g>
</svg>
