<svg width="93" height="62" viewBox="0 0 93 62" fill="none" xmlns="http://www.w3.org/2000/svg">
<path d="M0.15625 7.71605C0.15625 3.45459 3.61084 0 7.8723 0H85.0328C89.2943 0 92.7488 3.45459 92.7488 7.71605V54.0123C92.7488 58.2738 89.2943 61.7284 85.0328 61.7284H7.8723C3.61084 61.7284 0.15625 58.2738 0.15625 54.0123V7.71605Z" fill="#252422"/>
<path d="M72.118 46.4732C75.6743 46.4732 77.3481 45.1163 78.8101 41.0031L85.2152 23.0382H81.5067L77.2116 36.937H77.1363L72.8412 23.0571H69.0276L75.2068 40.156L74.8758 41.1961C74.6421 42.6848 73.3055 43.7468 71.8011 43.637C71.514 43.637 70.9571 43.6072 70.7313 43.5774V46.4011C71.1909 46.4638 71.6552 46.4936 72.118 46.4921V46.4732ZM59.7597 37.4767C57.8145 37.4767 56.5799 36.5354 56.5799 35.111C56.5799 33.6349 57.7705 32.7752 60.0467 32.6388L64.1003 32.3831V33.7102C64.0109 35.897 62.1645 37.599 59.9777 37.5096C59.904 37.5065 59.8318 37.5002 59.7597 37.4939V37.4767ZM58.7808 40.2643C60.988 40.3239 63.0524 39.174 64.1615 37.2649H64.2368V40.0886H67.6127V28.3938C67.6127 25.0023 64.9003 22.817 60.7244 22.817C56.8513 22.817 53.9868 25.0321 53.8817 28.0769H57.1682C57.5603 26.5286 59.0318 25.5074 60.6193 25.6799C62.85 25.6799 64.1003 26.72 64.1003 28.6338V29.9296L59.551 30.201C55.3155 30.4567 53.0252 32.1901 53.0252 35.2052C53.0221 38.2626 55.3877 40.2815 58.7792 40.2815L58.7808 40.2643ZM39.2174 19.6624H43.4215C46.5872 19.6624 48.3959 21.3503 48.3959 24.3199C48.3959 27.2894 46.5872 28.9915 43.4074 28.9915H39.2174V19.6624ZM35.5701 16.5877V40.0839H39.2174V32.074H44.2671C48.3802 32.2952 51.8926 29.1405 52.1138 25.0274C52.1263 24.7936 52.1279 24.5615 52.1185 24.3277C52.313 20.26 49.174 16.8057 45.1063 16.6097C44.8663 16.5987 44.6279 16.6002 44.3879 16.6112L35.5701 16.5877ZM23.4644 20.9722C21.3686 20.8515 19.5755 22.1629 18.581 22.1629C17.5864 22.1629 16.0491 21.0334 14.3909 21.0648C12.1947 21.1213 10.1931 22.337 9.13103 24.2603C6.87052 28.1491 8.54277 33.9063 10.728 37.0704C11.7978 38.6391 13.0811 40.3568 14.7674 40.2956C16.3644 40.236 16.9981 39.2556 18.9276 39.2556C20.8572 39.2556 21.4297 40.2956 23.1177 40.2643C24.8652 40.2345 25.9665 38.6956 27.0395 37.1268C27.7956 36.0162 28.3838 34.8004 28.787 33.5188C26.7273 32.6184 25.3923 30.59 25.3813 28.3421C25.4127 26.3592 26.4512 24.5301 28.1391 23.49C27.063 21.9621 25.3358 21.024 23.4675 20.9581L23.4644 20.9722ZM22.1561 18.8968C21.2384 20.053 19.8344 20.7165 18.3582 20.6899C18.2641 19.2498 18.7535 17.8332 19.7151 16.7571C20.6721 15.6465 22.0211 14.95 23.4801 14.8135C23.5836 16.2943 23.1083 17.7564 22.1529 18.8921" fill="white"/>
</svg>
