<svg width="94" height="62" viewBox="0 0 94 62" fill="none" xmlns="http://www.w3.org/2000/svg">
<g clip-path="url(#clip0_402_17681)">
<path d="M1.43957 7.71605C1.43957 3.88074 4.54871 0.771605 8.38402 0.771605H85.5445C89.3798 0.771605 92.489 3.88074 92.489 7.71605V54.0123C92.489 57.8477 89.3798 60.9568 85.5445 60.9568H8.38402C4.54871 60.9568 1.43957 57.8477 1.43957 54.0123V7.71605Z" fill="#121110" stroke="#272423" stroke-width="1.54321"/>
<path d="M70.1127 30.874C70.1078 43.659 59.7385 54.0185 46.9548 54.0124C34.171 54.0075 23.8115 43.6394 23.8164 30.8544C23.8213 18.0743 34.182 7.71729 46.9621 7.71606C59.7471 7.71484 70.1115 18.0792 70.1127 30.8642V30.874Z" fill="#F7931A"/>
<path d="M51.1834 26.374C51.1834 29.3321 46.5393 28.9868 45.0615 28.9868V23.7587C46.5393 23.7563 51.1773 23.2861 51.1773 26.3716L51.1834 26.374ZM52.4004 34.5064C52.4004 37.7571 46.8356 37.3873 45.0603 37.3885V31.6242C46.8356 31.6229 52.4017 31.1124 52.4017 34.5039L52.4004 34.5064ZM56.0638 25.2011C55.7663 22.0997 53.0885 21.0602 49.7093 20.7639V16.4626H47.0915V20.6513C46.4034 20.6513 45.6994 20.6647 45.0003 20.6794V16.4639H42.3838V20.7639C41.8169 20.7749 41.2598 20.7859 40.7174 20.7859V20.7725H37.1055V23.5726C37.1055 23.5726 39.0388 23.5359 39.0069 23.5726C39.7379 23.4784 40.4101 23.9901 40.5129 24.7199V29.6174C40.6048 29.6174 40.6978 29.6235 40.7896 29.6358H40.5129V36.5009C40.4823 37.0114 40.0452 37.3996 39.5359 37.369H39.5334C39.5665 37.3983 37.6307 37.369 37.6307 37.369L37.1104 40.496H40.5178C41.152 40.496 41.7753 40.507 42.3874 40.5119V44.8622H45.0027V40.5572C45.7202 40.5719 46.4157 40.5781 47.094 40.5781V44.8634H49.708V40.5205C54.1158 40.2683 57.1914 39.159 57.5735 35.0255C57.882 31.6964 56.316 30.2112 53.8183 29.6113C55.4822 28.8228 56.4042 27.0107 56.0638 25.2011Z" fill="white"/>
</g>
<defs>
<clipPath id="clip0_402_17681">
<rect width="92.5926" height="61.7284" fill="white" transform="translate(0.667969)"/>
</clipPath>
</defs>
</svg>
