<svg width="93" height="62" viewBox="0 0 93 62" fill="none" xmlns="http://www.w3.org/2000/svg">
<path d="M0.34375 7.71605C0.34375 3.45459 3.79834 0 8.0598 0H85.2203C89.4818 0 92.9363 3.45459 92.9363 7.71605V54.0123C92.9363 58.2738 89.4818 61.7284 85.2203 61.7284H8.0598C3.79834 61.7284 0.34375 58.2738 0.34375 54.0123V7.71605Z" fill="#252422"/>
<path d="M69.4565 30.8738C69.4516 43.6587 59.0823 54.0182 46.2985 54.0121C33.5147 54.0072 23.1553 43.6392 23.1602 30.8542C23.1651 18.0741 33.5258 7.71704 46.3059 7.71582C59.0908 7.7146 69.4552 18.079 69.4565 30.864V30.8738Z" fill="#F7931A"/>
<path d="M50.5272 26.3743C50.5272 29.3324 45.8831 28.9871 44.4052 28.9871V23.759C45.8831 23.7565 50.521 23.2864 50.521 26.3718L50.5272 26.3743ZM51.7442 34.5066C51.7442 37.7573 46.1794 37.3876 44.404 37.3888V31.6244C46.1794 31.6232 51.7454 31.1126 51.7454 34.5041L51.7442 34.5066ZM55.4075 25.2013C55.11 22.0999 52.4323 21.0604 49.053 20.7641V16.4629H46.4353V20.6515C45.7472 20.6515 45.0432 20.665 44.344 20.6797V16.4641H41.7275V20.7641C41.1606 20.7752 40.6035 20.7862 40.0611 20.7862V20.7727H36.4492V23.5729C36.4492 23.5729 38.3825 23.5361 38.3507 23.5729C39.0816 23.4786 39.7538 23.9904 39.8567 24.7201V29.6176C39.9485 29.6176 40.0416 29.6238 40.1334 29.636H39.8567V36.5011C39.8261 37.0117 39.389 37.3998 38.8796 37.3692H38.8772C38.9102 37.3986 36.9745 37.3692 36.9745 37.3692L36.4541 40.4963H39.8616C40.4958 40.4963 41.119 40.5073 41.7312 40.5122V44.8624H44.3465V40.5575C45.064 40.5722 45.7594 40.5783 46.4377 40.5783V44.8636H49.0518V40.5208C53.4595 40.2685 56.5352 39.1592 56.9172 35.0257C57.2257 31.6966 55.6598 30.2115 53.162 29.6115C54.826 28.823 55.7479 27.0109 55.4075 25.2013Z" fill="white"/>
</svg>
