<svg width="94" height="62" viewBox="0 0 94 62" fill="none" xmlns="http://www.w3.org/2000/svg">
<path d="M0.96875 7.71605C0.96875 3.45459 4.42334 0 8.6848 0H85.8453C90.1068 0 93.5613 3.45459 93.5613 7.71605V54.0123C93.5613 58.2738 90.1068 61.7284 85.8453 61.7284H8.6848C4.42334 61.7284 0.96875 58.2738 0.96875 54.0123V7.71605Z" fill="#252422"/>
<path d="M45.8766 30.938V39.8573H43.0273V17.8306H50.5842C51.4862 17.8119 52.383 17.9707 53.2229 18.298C54.0628 18.6253 54.829 19.1145 55.4775 19.7375C56.1326 20.3226 56.6539 21.0401 57.0064 21.842C57.359 22.6438 57.5347 23.5112 57.5216 24.3861C57.5403 25.2656 57.3674 26.1387 57.0146 26.9456C56.6618 27.7525 56.1374 28.4742 55.4775 29.061C54.1561 30.3124 52.525 30.9374 50.5842 30.9363H45.8766V30.938ZM45.8766 20.5424V28.2315H50.655C51.1788 28.2469 51.7001 28.1536 52.1856 27.9575C52.671 27.7614 53.1099 27.4668 53.4742 27.0926C53.8365 26.7428 54.1246 26.3243 54.3212 25.862C54.5179 25.3997 54.6193 24.9029 54.6193 24.401C54.6193 23.8991 54.5179 23.4023 54.3212 22.94C54.1246 22.4777 53.8365 22.0592 53.4742 21.7094C53.1145 21.3273 52.6771 21.0255 52.1911 20.824C51.705 20.6226 51.1814 20.526 50.655 20.5406H45.8766V20.5424Z" fill="#E4E5E7"/>
<path d="M64.0894 24.2949C66.1954 24.2949 67.8578 24.8538 69.0766 25.9716C70.2953 27.0893 70.9041 28.6219 70.903 30.5692V39.8576H68.1775V37.7662H68.0537C66.8738 39.4885 65.3046 40.3497 63.3461 40.3497C61.6743 40.3497 60.2756 39.8576 59.1501 38.8734C58.6099 38.4217 58.178 37.856 57.886 37.2175C57.5939 36.579 57.4489 35.8838 57.4617 35.1826C57.4617 33.6232 58.0552 32.3829 59.2421 31.462C60.429 30.5411 62.0135 30.0794 63.9956 30.0771C65.6875 30.0771 67.0809 30.3847 68.1758 30.9998V30.353C68.179 29.875 68.0751 29.4023 67.8715 28.9691C67.6679 28.5359 67.3699 28.1532 66.9989 27.8486C66.2454 27.1735 65.2634 26.8051 64.2487 26.8169C62.6571 26.8169 61.3976 27.4836 60.4703 28.817L57.9608 27.2475C59.3412 25.2791 61.3841 24.2949 64.0894 24.2949ZM60.403 35.2442C60.4011 35.6043 60.4859 35.9596 60.6503 36.2806C60.8147 36.6016 61.0539 36.879 61.3481 37.0895C61.9782 37.5818 62.7604 37.8426 63.562 37.8277C64.7644 37.8257 65.9169 37.3504 66.7671 36.506C67.7109 35.6238 68.1829 34.5886 68.1829 33.4005C67.2944 32.6975 66.0556 32.346 64.4664 32.346C63.309 32.346 62.3439 32.6231 61.5711 33.1773C60.7906 33.7397 60.403 34.4234 60.403 35.2442Z" fill="#E4E5E7"/>
<path d="M86.5481 24.7861L77.0339 46.5H74.0926L77.6233 38.9024L71.3672 24.7861H74.4642L78.986 35.6123H79.0479L83.4457 24.7861H86.5481Z" fill="#E4E5E7"/>
<path d="M34.3649 29.0154C34.366 28.153 34.2926 27.2922 34.1455 26.4424H22.1289V31.3159H29.0115C28.8706 32.0943 28.5725 32.8363 28.1351 33.4972C27.6978 34.1581 27.1302 34.7242 26.4666 35.1613V38.3248H30.5741C32.9792 36.1227 34.3649 32.866 34.3649 29.0154Z" fill="#4285F4"/>
<path d="M22.127 41.3816C25.5656 41.3816 28.4609 40.2603 30.5722 38.327L26.4646 35.1635C25.3214 35.9333 23.8489 36.3727 22.127 36.3727C18.8034 36.3727 15.9824 34.1477 14.9737 31.1494H10.7422V34.4096C11.8027 36.5054 13.429 38.2672 15.4394 39.4983C17.4497 40.7295 19.7651 41.3815 22.127 41.3816Z" fill="#34A853"/>
<path d="M14.975 31.1488C14.4417 29.5776 14.4417 27.8762 14.975 26.3051V23.0449H10.7435C9.85136 24.808 9.38672 26.7538 9.38672 28.7269C9.38672 30.7001 9.85136 32.6459 10.7435 34.4089L14.975 31.1488Z" fill="#FBBC04"/>
<path d="M22.127 21.082C23.9441 21.0525 25.7 21.7343 27.015 22.9801L30.6519 19.3684C28.3457 17.2174 25.2906 16.0364 22.127 16.0731C19.7651 16.0732 17.4497 16.7252 15.4394 17.9564C13.429 19.1875 11.8027 20.9493 10.7422 23.0451L14.9737 26.3053C15.9824 23.307 18.8034 21.082 22.127 21.082Z" fill="#EA4335"/>
</svg>
