<svg width="93" height="62" viewBox="0 0 93 62" fill="none" xmlns="http://www.w3.org/2000/svg">
<path d="M0.375 7.71605C0.375 3.45459 3.82959 0 8.09105 0H85.2515C89.513 0 92.9676 3.45459 92.9676 7.71605V54.0123C92.9676 58.2738 89.513 61.7284 85.2515 61.7284H8.09105C3.82959 61.7284 0.375 58.2738 0.375 54.0123V7.71605Z" fill="#252422"/>
<path d="M62.5617 19.3525C62.5617 19.6001 62.5616 19.8477 62.3141 20.0953C60.3335 29.9982 53.8966 33.2167 45.4791 33.2167H41.2703C40.28 33.2167 39.2897 33.9594 39.2897 34.9497L37.0615 48.8138L36.5664 52.775C36.5664 53.5177 37.0615 54.0129 37.5567 54.0129H45.2315C46.2218 54.0129 46.9645 53.2702 46.9645 52.5274V52.0323L48.45 43.1196V42.6245C48.6975 41.6342 49.4402 41.139 50.183 41.139H51.4208C58.8481 41.139 64.5422 38.1682 66.0277 29.5031C66.7704 25.7895 66.2753 22.8186 64.5423 20.838C64.0471 20.3428 63.3044 19.8477 62.5617 19.3525Z" fill="#2199D6"/>
<path d="M60.5804 18.6099C60.3328 18.6099 60.0853 18.3623 59.5901 18.3623C59.3425 18.3623 58.8474 18.1148 58.5998 18.1148C57.3619 17.8672 56.1241 17.8672 54.8862 17.8672H43.4978C43.2502 17.8672 43.0027 17.8672 42.7551 18.1148C42.2599 18.3623 41.7648 18.8575 41.7648 19.3526L39.2891 34.7022V35.1974C39.5366 34.2071 40.2793 33.4643 41.2696 33.4643H45.4784C53.8959 33.4643 60.3328 29.9983 62.3134 20.3429C62.3134 20.0954 62.3134 19.8478 62.561 19.6002C62.0658 19.3526 61.5707 19.1051 61.0755 18.8575C60.828 18.6099 60.5804 18.6099 60.5804 18.6099Z" fill="#252C5E"/>
<path d="M41.7646 19.3518C41.7646 18.8566 42.2597 18.3615 42.7549 18.1139C43.0024 18.1139 43.25 17.8663 43.4976 17.8663H54.886C56.1238 17.8663 57.6093 17.8663 58.5996 18.1139C58.8472 18.1139 59.3423 18.1139 59.5899 18.3615C59.8375 18.3615 60.085 18.6091 60.5802 18.6091C60.8277 18.6091 60.8277 18.6091 61.0753 18.8566C61.5705 19.1042 62.0656 19.3518 62.5608 19.5994C63.0559 15.8858 62.5608 13.41 60.5802 11.1818C58.352 8.70611 54.3908 7.71582 49.4394 7.71582H34.8325C33.8422 7.71582 32.8519 8.45853 32.8519 9.44883L26.9102 47.5752C26.9102 48.3179 27.4053 49.0606 28.148 49.0606H37.0607L39.2888 34.7014L41.7646 19.3518Z" fill="#2C3E8B"/>
</svg>
