<svg width="94" height="62" viewBox="0 0 94 62" fill="none" xmlns="http://www.w3.org/2000/svg">
<path d="M0.75 7.71605C0.75 3.45459 4.20459 0 8.46605 0H85.6265C89.888 0 93.3426 3.45459 93.3426 7.71605V54.0123C93.3426 58.2738 89.888 61.7284 85.6265 61.7284H8.46605C4.20459 61.7284 0.75 58.2738 0.75 54.0123V7.71605Z" fill="#252422"/>
<path d="M59.9186 36.8263C60.6875 37.1558 61.0171 38.2543 61.0171 38.8036C61.1269 39.6824 60.9072 40.1218 60.5777 40.1218C60.2481 40.1218 59.8087 39.7922 59.3693 39.0233C58.9299 38.2543 58.7102 37.4854 58.9299 37.046C59.2595 36.8263 59.589 36.7164 59.9186 36.8263Z" fill="#F28A1A"/>
<path d="M55.4165 40.2314C55.8559 40.2314 56.4052 40.4511 56.9544 40.8905C57.8332 41.6595 58.1627 42.5383 57.7233 43.1974C57.5037 43.5269 56.9544 43.7466 56.515 43.7466C55.9658 43.7466 55.4165 43.5269 55.087 43.1974C54.2082 42.4284 53.9885 41.3299 54.5377 40.6708C54.6476 40.4511 54.9771 40.2314 55.4165 40.2314Z" fill="#F28A1A"/>
<path d="M44.9798 48.9092C33.5554 48.9092 24.3281 39.6819 24.3281 28.3675C24.3281 17.053 33.5554 7.71582 44.9798 7.71582C56.4041 7.71582 65.6314 16.9431 65.6314 28.3675C65.6314 32.2122 64.5329 35.8372 62.7753 38.913C62.6655 39.0228 62.5556 39.0228 62.5556 38.8031C61.7867 33.7501 58.7109 31.0038 54.3169 30.125C53.8775 30.0152 53.8775 29.7955 54.4268 29.7955C55.8548 29.6856 57.7223 29.6856 58.8207 29.9053C58.9306 29.3561 58.9306 28.8068 58.9306 28.3675C58.9306 20.8977 52.779 14.7462 45.3093 14.7462C37.8396 14.7462 31.688 20.8977 31.688 28.3675C31.688 35.8372 37.8396 41.9887 45.3093 41.9887H45.9684C45.7487 40.7804 45.6389 39.5721 45.7487 38.2539C45.7487 37.3751 45.9684 37.2652 46.2979 37.9243C48.1654 41.2198 50.9116 44.0759 56.1844 45.2842C60.4685 46.2729 64.7526 47.3713 69.4761 53.1934C69.9155 53.7426 69.2564 54.2918 68.817 53.8524C64.0935 49.6782 59.8094 48.2501 55.8548 48.2501C50.9116 48.36 47.9457 48.9092 44.9798 48.9092Z" fill="#F28A1A"/>
</svg>
