<svg width="93" height="62" viewBox="0 0 93 62" fill="none" xmlns="http://www.w3.org/2000/svg">
<g clip-path="url(#clip0_402_17680)">
<path d="M0.994261 7.71605C0.994261 3.88074 4.10339 0.771605 7.93871 0.771605H85.0992C88.9345 0.771605 92.0436 3.88074 92.0436 7.71605V54.0123C92.0436 57.8477 88.9345 60.9568 85.0992 60.9568H7.9387C4.10339 60.9568 0.994261 57.8477 0.994261 54.0123V7.71605Z" fill="#121110" stroke="#272423" stroke-width="1.54321"/>
<path d="M9.44258 12.8581C8.84055 13.1592 8.33887 13.6609 8.13819 14.1626C8.03785 14.4636 7.9375 17.1727 7.9375 22.0893V29.5144H11.4494V24.7985H16.0649L17.269 27.1062L18.4731 29.414H20.4798C21.5836 29.414 22.4866 29.414 22.4866 29.3137C22.4866 29.2134 21.8846 28.0093 21.0819 26.6046L19.6771 23.9957L20.0785 23.7951C22.0853 22.4907 22.9883 19.7815 22.4866 16.7714C22.1856 14.9653 21.2825 13.6609 19.8778 13.0588C19.0751 12.7578 18.9748 12.6575 14.4595 12.6575C10.9477 12.6575 9.84394 12.6575 9.44258 12.8581ZM18.1721 16.2697C18.3727 16.37 18.6738 16.671 18.7741 16.972C19.0751 17.6744 19.0751 19.3802 18.8744 19.8819C18.2724 21.0859 17.4697 21.3869 14.0582 21.3869H11.5497V16.069H14.6602C16.366 16.069 17.9714 16.1693 18.1721 16.2697ZM27.6039 12.7578C26.0988 13.2595 24.9951 14.2629 24.5937 15.768C24.1924 16.972 23.791 19.6812 23.791 21.0859C23.791 22.3903 24.1924 24.9991 24.4934 26.1029C25.0954 27.909 25.9985 28.9123 27.7042 29.3137C28.507 29.5144 29.2093 29.5144 31.8181 29.5144C34.728 29.5144 35.029 29.414 35.8317 29.113C37.9388 28.21 38.8418 25.7015 38.8418 21.0859C38.8418 16.1693 37.8384 13.7612 35.631 12.9585C34.8283 12.6575 34.5273 12.6575 31.3164 12.6575C29.6107 12.6575 27.9049 12.7578 27.6039 12.7578ZM34.6276 16.4703C35.631 17.8751 35.631 24.6981 34.6276 25.7015C34.3266 26.0025 28.507 26.0025 28.3063 25.7015C27.6039 24.7985 27.3029 19.8819 27.9049 17.5741C28.1056 16.671 28.2059 16.37 28.5069 16.2697C28.7076 16.1693 30.1124 16.1693 31.7178 16.1693C34.1259 16.1693 34.5273 16.1693 34.6276 16.4703ZM42.2534 12.9585C41.9523 13.1592 41.551 13.5605 41.3503 13.8615C41.0493 14.3632 41.0493 14.6642 40.9489 20.6846C40.9489 24.8988 40.9489 27.2066 41.0493 27.6079C41.3503 28.511 41.9524 29.2134 42.8554 29.414C43.7584 29.6147 50.4811 29.6147 51.6852 29.414C53.993 29.0127 55.1971 27.7083 55.3977 25.1998C55.4981 23.7951 55.2974 22.7917 54.6954 21.7883L54.294 21.0859L54.896 19.9822C55.3977 18.9788 55.4981 18.8785 55.4981 17.3734C55.4981 16.1693 55.3977 15.6676 55.197 15.0656C54.7957 14.1625 54.1937 13.5605 53.2906 13.0588L52.4879 12.6575H47.772C42.8554 12.6575 42.8554 12.6575 42.2534 12.9585ZM51.5849 16.2697C51.7855 16.4703 51.8859 17.4737 51.7855 17.9754C51.6852 18.2764 51.4845 18.5775 51.2838 18.8785C50.8825 19.2798 50.8825 19.2798 47.772 19.2798H44.6615V16.069H48.073C49.8791 16.1693 51.4845 16.2697 51.5849 16.2697ZM50.8825 22.9924C51.4845 23.193 51.7855 23.8954 51.7855 24.6981C51.7855 25.1998 51.6852 25.5008 51.4845 25.6012C51.2838 25.8018 50.3808 25.8018 47.8723 25.8018H44.4608V22.591L47.471 22.6913C49.1767 22.7917 50.6818 22.892 50.8825 22.9924ZM60.4147 12.9585C58.9096 13.5605 58.2072 14.5639 57.6052 16.7714C57.3042 17.8751 57.3042 18.4771 57.3042 21.0859C57.3042 23.7951 57.3042 24.0961 57.7055 25.5008C58.2072 27.2066 58.6086 27.909 59.5116 28.6113C60.6153 29.414 60.9164 29.414 64.7292 29.414C68.5421 29.414 68.9435 29.3137 69.9469 28.6113C70.8499 28.0093 71.2512 27.2066 71.7529 25.5008C72.1543 24.0961 72.1543 23.7951 72.1543 21.0859C72.1543 18.5775 72.1543 17.9754 71.8533 16.7714C71.2513 14.4636 70.5489 13.4602 69.0438 12.9585C68.2411 12.6575 67.9401 12.6575 64.7292 12.6575C61.5184 12.6575 61.117 12.6575 60.4147 12.9585ZM67.639 16.2697C68.0404 16.4703 68.2411 16.8717 68.5421 18.5775C68.9434 20.6846 68.5421 24.5978 67.9401 25.5008C67.7394 25.9022 67.7394 25.9022 64.7292 25.9022C61.2174 25.9022 61.418 26.0025 61.0167 23.9957C60.4146 21.1863 60.9164 16.5707 61.7191 16.2697C62.2208 16.069 67.2377 16.069 67.639 16.2697Z" fill="#2F69B1"/>
<path d="M8.43919 32.7158L7.9375 33.2175V48.168L8.33888 48.5693C8.74023 48.9707 8.9409 48.9707 9.64327 48.9707C10.3456 48.9707 10.5463 48.8703 10.8473 48.6696C11.349 48.0676 11.4494 47.4656 11.4494 44.8568V42.3483H13.6568L14.7606 43.3517C16.968 45.2581 17.7707 46.2615 17.7707 47.3653C17.7707 47.9673 17.8711 48.168 18.2724 48.5693C18.7741 49.071 18.8744 49.071 19.5768 49.071C20.1788 49.071 20.3795 48.9707 20.7809 48.6696C21.2826 48.2683 21.2826 48.168 21.2826 47.0642C21.2826 46.1612 21.1822 45.7598 20.7809 44.9571C20.2792 43.8534 18.6738 42.0473 17.7707 41.2446L17.1687 40.7429L18.1721 39.8398C19.3761 38.7361 20.4798 37.3314 20.9815 36.2277C21.2825 35.6256 21.3829 35.1239 21.3829 34.3212C21.3829 33.2175 21.3829 33.2175 20.8812 32.7158C20.4799 32.3144 20.2792 32.3144 19.4765 32.3144C18.5734 32.3144 18.4731 32.3144 18.1721 32.7158C17.9714 33.0168 17.8711 33.3178 17.8711 33.8195C17.8711 34.2209 17.7707 34.7226 17.6704 34.9233C17.3694 35.5253 16.2656 36.8297 14.8609 38.0337L13.7572 38.9368H11.5497V36.4283C11.5497 35.1239 11.4494 33.7192 11.349 33.4182C11.1484 32.6155 10.5463 32.2141 9.64327 32.2141C8.9409 32.3144 8.84055 32.3144 8.43919 32.7158ZM27.6039 32.5151C25.5971 33.1172 24.4934 34.6222 23.6907 37.5321C23.2893 38.8365 23.2893 39.3382 23.189 43.151C23.0887 47.6663 23.189 48.168 23.8914 48.6696C24.3931 49.071 25.6975 49.071 26.0988 48.6696C26.6005 48.2683 26.8012 47.7666 26.8012 46.2615V44.7564H34.6276V46.4622C34.6276 48.0676 34.6276 48.168 35.029 48.5693C35.4303 48.9707 35.631 48.9707 36.3334 48.9707C37.1361 48.9707 37.2364 48.9707 37.6378 48.469L38.0391 47.9673V43.151C37.9388 38.6358 37.9388 38.2344 37.6378 37.231C36.9354 34.8229 35.8317 33.3178 34.4269 32.7158C33.6242 32.3144 33.4236 32.3144 30.9151 32.3144C29.0087 32.3144 28.0052 32.3144 27.6039 32.5151ZM32.8215 35.9266C33.6242 36.2277 34.3266 38.0338 34.5273 40.3415L34.6276 41.3449H26.8012L26.9015 40.1409C27.1022 38.0337 27.9049 36.027 28.7076 35.8263C29.41 35.726 32.3198 35.8263 32.8215 35.9266ZM42.8554 32.5151C41.3503 33.0168 40.5476 33.7192 40.0459 35.0236C39.7449 35.726 39.7449 36.1273 39.7449 37.3314C39.7449 39.7395 40.4472 41.1443 42.153 41.947C42.8554 42.248 43.056 42.3483 46.0662 42.3483C49.1767 42.4487 49.2771 42.4487 49.5781 42.7497C49.9794 43.151 50.0798 44.4554 49.6784 45.0575L49.3774 45.4588H45.3639C41.551 45.4588 41.25 45.4588 40.949 45.7598C40.1463 46.4622 40.0459 47.8669 40.8486 48.5693L41.3503 48.9707H45.7652C48.1733 48.9707 50.3808 48.8703 50.6818 48.77C51.4845 48.5693 52.3876 47.6663 52.9896 46.5625C53.4913 45.6595 53.4913 45.4588 53.4913 43.8534C53.4913 42.3483 53.4913 42.1476 53.0899 41.3449C52.5882 40.2412 51.8859 39.5388 51.1835 39.1375C50.6818 38.9368 50.1801 38.8365 47.1699 38.7361C43.1564 38.6358 43.2567 38.7361 43.2567 37.1307C43.2567 35.5253 43.0561 35.6256 47.8723 35.5253L51.9862 35.4249L52.3876 35.0236C52.7889 34.6222 52.7889 34.5219 52.8893 33.3178L52.9896 32.0134H48.2737C44.8622 32.3144 43.2567 32.4148 42.8554 32.5151ZM57.8059 32.5151C57.5048 32.6155 57.0031 32.8161 56.7021 32.9165C54.7957 33.9199 53.8926 37.4317 55.0967 39.8398C55.5984 40.8432 56.1001 41.4453 57.0032 41.947C57.7055 42.3483 57.8059 42.3483 60.816 42.4487C62.5218 42.4487 64.0268 42.549 64.2275 42.6493C64.7292 42.85 65.0302 43.6527 64.8296 44.5558C64.6289 45.6595 64.8296 45.6595 60.214 45.6595H56.1001L55.6987 46.0608C55.2974 46.4622 55.2974 46.6629 55.2974 47.3653C55.2974 48.0676 55.3977 48.2683 55.6987 48.6696L56.1001 49.071H60.6153C65.7326 49.071 65.8329 49.071 66.8363 48.0676C67.7394 47.1646 68.1407 46.1612 68.2411 44.3551C68.3414 42.3483 67.9401 41.1442 66.8363 40.0405C66.3346 39.5388 65.833 39.2378 65.4316 39.1375C65.1306 39.0371 63.6255 38.9368 62.0201 38.9368C60.4147 38.9368 59.0099 38.9368 58.7089 38.8365C58.2072 38.7361 57.9062 38.2344 57.9062 37.3314C57.9062 36.4283 58.1069 35.9266 58.7089 35.8263C59.0099 35.8263 60.816 35.726 62.8228 35.726C67.5387 35.726 67.639 35.6256 67.639 33.4182V32.3144H62.9231C59.8126 32.3144 58.2072 32.4148 57.8059 32.5151ZM74.3617 32.6155C73.9604 32.8161 73.3584 33.1172 73.0574 33.3178C71.8533 34.2209 70.7495 36.629 70.4485 39.1375C70.2479 40.8432 70.2479 47.5659 70.4485 48.168C70.6492 48.77 71.2512 49.071 72.1543 49.071C72.656 49.071 72.957 48.9707 73.3584 48.6696L73.86 48.2683V46.5625L73.9604 44.8568H81.5861L81.6865 46.5625V48.2683L82.1881 48.6696C82.5895 49.071 82.7902 49.071 83.3922 49.071C83.9943 49.071 84.1949 48.9707 84.5963 48.6696L85.098 48.2683V43.5524C85.098 39.2378 85.098 38.7361 84.797 37.6324C84.0946 35.1239 83.0912 33.6188 81.6865 32.9165C80.7834 32.5151 80.7834 32.5151 77.9739 32.4148C75.4655 32.3144 75.0641 32.3144 74.3617 32.6155ZM80.3821 36.328C80.9841 37.0304 81.4858 38.5354 81.4858 40.0405L81.5861 41.2446H73.86V40.3415C73.86 38.4351 74.6628 36.2277 75.5658 35.8263C75.7665 35.726 76.7699 35.726 77.9739 35.726H79.9807L80.3821 36.328Z" fill="#D31223"/>
</g>
<defs>
<clipPath id="clip0_402_17680">
<rect width="92.5926" height="61.7284" fill="white" transform="translate(0.222656)"/>
</clipPath>
</defs>
</svg>
