<svg width="94" height="62" viewBox="0 0 94 62" fill="none" xmlns="http://www.w3.org/2000/svg">
<path d="M0.78125 7.71605C0.78125 3.45459 4.23584 0 8.4973 0H85.6578C89.9193 0 93.3738 3.45459 93.3738 7.71605V54.0123C93.3738 58.2738 89.9193 61.7284 85.6578 61.7284H8.4973C4.23584 61.7284 0.78125 58.2738 0.78125 54.0123V7.71605Z" fill="#252422"/>
<path d="M9.22383 12.8579C8.6218 13.1589 8.12012 13.6606 7.91944 14.1623C7.8191 14.4633 7.71875 17.1725 7.71875 22.0891V29.5141H11.2306V24.7982H15.8462L17.0503 27.106L18.2543 29.4138H20.2611C21.3648 29.4138 22.2679 29.4138 22.2679 29.3134C22.2679 29.2131 21.6658 28.0091 20.8631 26.6043L19.4584 23.9955L19.8597 23.7948C21.8665 22.4904 22.7696 19.7813 22.2679 16.7711C21.9669 14.965 21.0638 13.6606 19.6591 13.0586C18.8563 12.7576 18.756 12.6572 14.2408 12.6572C10.7289 12.6572 9.62519 12.6572 9.22383 12.8579ZM17.9533 16.2694C18.154 16.3698 18.455 16.6708 18.5554 16.9718C18.8564 17.6742 18.8563 19.3799 18.6557 19.8816C18.0536 21.0857 17.2509 21.3867 13.8394 21.3867H11.331V16.0687H14.4415C16.1472 16.0687 17.7526 16.1691 17.9533 16.2694ZM27.3851 12.7576C25.8801 13.2593 24.7763 14.2626 24.375 15.7677C23.9736 16.9718 23.5723 19.6809 23.5723 21.0857C23.5723 22.3901 23.9736 24.9989 24.2746 26.1026C24.8767 27.9087 25.7797 28.9121 27.4855 29.3134C28.2882 29.5141 28.9906 29.5141 31.5994 29.5141C34.5092 29.5141 34.8102 29.4138 35.6129 29.1128C37.72 28.2097 38.6231 25.7013 38.6231 21.0857C38.6231 16.1691 37.6197 13.761 35.4122 12.9582C34.6095 12.6572 34.3085 12.6572 31.0977 12.6572C29.3919 12.6572 27.6862 12.7576 27.3851 12.7576ZM34.4089 16.4701C35.4122 17.8748 35.4122 24.6979 34.4089 25.7013C34.1078 26.0023 28.2882 26.0023 28.0875 25.7013C27.3852 24.7982 27.0841 19.8816 27.6862 17.5738C27.8868 16.6708 27.9872 16.3698 28.2882 16.2694C28.4889 16.1691 29.8936 16.1691 31.499 16.1691C33.9072 16.1691 34.3085 16.1691 34.4089 16.4701ZM42.0346 12.9582C41.7336 13.1589 41.3322 13.5603 41.1316 13.8613C40.8306 14.363 40.8305 14.664 40.7302 20.6843C40.7302 24.8985 40.7302 27.2063 40.8305 27.6077C41.1315 28.5107 41.7336 29.2131 42.6366 29.4138C43.5397 29.6145 50.2624 29.6145 51.4664 29.4138C53.7742 29.0124 54.9783 27.708 55.179 25.1996C55.2793 23.7948 55.0786 22.7914 54.4766 21.788L54.0753 21.0857L54.6773 19.9819C55.179 18.9786 55.2793 18.8782 55.2793 17.3731C55.2793 16.1691 55.179 15.6674 54.9783 15.0654C54.5769 14.1623 53.9749 13.5603 53.0719 13.0586L52.2691 12.6572H47.5532C42.6366 12.6572 42.6366 12.6572 42.0346 12.9582ZM51.3661 16.2694C51.5668 16.4701 51.6671 17.4735 51.5668 17.9752C51.4664 18.2762 51.2658 18.5772 51.0651 18.8782C50.6637 19.2796 50.6637 19.2796 47.5532 19.2796H44.4427V16.0687H47.8542C49.6603 16.1691 51.2658 16.2694 51.3661 16.2694ZM50.6637 22.9921C51.2658 23.1928 51.5668 23.8952 51.5668 24.6979C51.5668 25.1996 51.4664 25.5006 51.2658 25.6009C51.0651 25.8016 50.1621 25.8016 47.6536 25.8016H44.242V22.5908L47.2522 22.6911C48.958 22.7914 50.4631 22.8918 50.6637 22.9921ZM60.1959 12.9582C58.6908 13.5603 57.9885 14.5637 57.3864 16.7711C57.0854 17.8748 57.0854 18.4769 57.0854 21.0857C57.0854 23.7948 57.0854 24.0958 57.4868 25.5006C57.9885 27.2063 58.3898 27.9087 59.2929 28.6111C60.3966 29.4138 60.6976 29.4138 64.5105 29.4138C68.3234 29.4138 68.7247 29.3135 69.7281 28.6111C70.6312 28.0091 71.0325 27.2063 71.5342 25.5006C71.9355 24.0958 71.9355 23.7948 71.9355 21.0857C71.9355 18.5772 71.9356 17.9752 71.6345 16.7711C71.0325 14.4633 70.3301 13.4599 68.825 12.9582C68.0223 12.6572 67.7213 12.6572 64.5105 12.6572C61.2996 12.6572 60.8983 12.6572 60.1959 12.9582ZM67.4203 16.2694C67.8217 16.4701 68.0223 16.8715 68.3233 18.5772C68.7247 20.6843 68.3234 24.5975 67.7213 25.5006C67.5207 25.9019 67.5206 25.9019 64.5105 25.9019C60.9986 25.9019 61.1993 26.0023 60.7979 23.9955C60.1959 21.186 60.6976 16.5704 61.5003 16.2694C62.002 16.0687 67.0189 16.0687 67.4203 16.2694Z" fill="#2F69B1"/>
<path d="M8.22044 32.716L7.71875 33.2177V48.1682L8.12013 48.5696C8.52148 48.9709 8.72215 48.9709 9.42452 48.9709C10.1269 48.9709 10.3276 48.8706 10.6286 48.6699C11.1303 48.0679 11.2306 47.4658 11.2306 44.857V42.3486H13.4381L14.5418 43.3519C16.7493 45.2584 17.552 46.2618 17.552 47.3655C17.552 47.9675 17.6523 48.1682 18.0537 48.5696C18.5553 49.0713 18.6557 49.0713 19.358 49.0713C19.9601 49.0713 20.1608 48.9709 20.5621 48.6699C21.0638 48.2685 21.0638 48.1682 21.0638 47.0645C21.0638 46.1614 20.9635 45.7601 20.5621 44.9574C20.0604 43.8536 18.455 42.0475 17.552 41.2448L16.9499 40.7431L17.9533 39.8401C19.1574 38.7364 20.2611 37.3316 20.7628 36.2279C21.0638 35.6259 21.1642 35.1242 21.1642 34.3215C21.1642 33.2177 21.1642 33.2177 20.6625 32.716C20.2611 32.3147 20.0604 32.3147 19.2577 32.3147C18.3547 32.3147 18.2543 32.3147 17.9533 32.716C17.7526 33.0171 17.6523 33.3181 17.6523 33.8198C17.6523 34.2211 17.552 34.7228 17.4516 34.9235C17.1506 35.5255 16.0469 36.8299 14.6421 38.034L13.5384 38.937H11.3309V36.4286C11.3309 35.1242 11.2306 33.7194 11.1303 33.4184C10.9296 32.6157 10.3276 32.2144 9.42452 32.2144C8.72215 32.3147 8.6218 32.3147 8.22044 32.716ZM27.3851 32.5154C25.3784 33.1174 24.2746 34.6225 23.4719 37.5323C23.0706 38.8367 23.0706 39.3384 22.9702 43.1513C22.8699 47.6665 22.9703 48.1682 23.6726 48.6699C24.1743 49.0712 25.4787 49.0712 25.8801 48.6699C26.3818 48.2685 26.5824 47.7669 26.5824 46.2618V44.7567H34.4089V46.4624C34.4089 48.0679 34.4088 48.1682 34.8102 48.5696C35.2116 48.9709 35.4123 48.9709 36.1146 48.9709C36.9173 48.9709 37.0177 48.9709 37.419 48.4692L37.8204 47.9675V43.1513C37.72 38.636 37.72 38.2347 37.419 37.2313C36.7166 34.8232 35.6129 33.3181 34.2082 32.716C33.4055 32.3147 33.2048 32.3147 30.6963 32.3147C28.7899 32.3147 27.7865 32.3147 27.3851 32.5154ZM32.6028 35.9269C33.4055 36.2279 34.1078 38.034 34.3085 40.3418L34.4089 41.3452H26.5824L26.6828 40.1411C26.8835 38.034 27.6862 36.0272 28.4889 35.8265C29.1912 35.7262 32.1011 35.8265 32.6028 35.9269ZM42.6366 32.5154C41.1316 33.0171 40.3288 33.7194 39.8271 35.0238C39.5261 35.7262 39.5261 36.1276 39.5261 37.3316C39.5261 39.7398 40.2285 41.1445 41.9343 41.9472C42.6366 42.2482 42.8373 42.3486 45.8475 42.3486C48.958 42.4489 49.0583 42.4489 49.3593 42.7499C49.7607 43.1513 49.861 44.4557 49.4597 45.0577L49.1587 45.4591H45.1451C41.3322 45.4591 41.0312 45.4591 40.7302 45.7601C39.9275 46.4624 39.8272 47.8672 40.6299 48.5696L41.1316 48.9709H45.5465C47.9546 48.9709 50.162 48.8706 50.463 48.7702C51.2658 48.5696 52.1688 47.6665 52.7709 46.5628C53.2725 45.6597 53.2725 45.4591 53.2725 43.8536C53.2725 42.3486 53.2725 42.1479 52.8712 41.3452C52.3695 40.2414 51.6671 39.5391 50.9647 39.1377C50.463 38.937 49.9614 38.8367 46.9512 38.7364C42.9376 38.636 43.038 38.7364 43.038 37.1309C43.038 35.5255 42.8373 35.6259 47.6536 35.5255L51.7675 35.4252L52.1688 35.0238C52.5702 34.6225 52.5702 34.5221 52.6705 33.3181L52.7709 32.0137H48.0549C44.6434 32.3147 43.038 32.415 42.6366 32.5154ZM57.5871 32.5154C57.2861 32.6157 56.7844 32.8164 56.4834 32.9167C54.5769 33.9201 53.6739 37.432 54.8779 39.8401C55.3796 40.8435 55.8814 41.4455 56.7844 41.9472C57.4868 42.3486 57.5871 42.3486 60.5973 42.4489C62.303 42.4489 63.8081 42.5492 64.0088 42.6496C64.5105 42.8502 64.8115 43.653 64.6108 44.556C64.4101 45.6597 64.6108 45.6597 59.9952 45.6597H55.8813L55.48 46.0611C55.0786 46.4624 55.0786 46.6631 55.0786 47.3655C55.0786 48.0679 55.179 48.2685 55.48 48.6699L55.8813 49.0713H60.3966C65.5138 49.0713 65.6142 49.0713 66.6176 48.0679C67.5206 47.1648 67.922 46.1614 68.0223 44.3553C68.1227 42.3486 67.7213 41.1445 66.6176 40.0408C66.1159 39.5391 65.6142 39.2381 65.2128 39.1377C64.9118 39.0374 63.4068 38.937 61.8013 38.937C60.1959 38.937 58.7912 38.937 58.4901 38.8367C57.9884 38.7364 57.6874 38.2347 57.6874 37.3316C57.6874 36.4286 57.8881 35.9269 58.4901 35.8265C58.7912 35.8265 60.5973 35.7262 62.604 35.7262C67.32 35.7262 67.4203 35.6259 67.4203 33.4184V32.3147H62.7044C59.5939 32.3147 57.9885 32.415 57.5871 32.5154ZM74.143 32.6157C73.7416 32.8164 73.1396 33.1174 72.8386 33.3181C71.6345 34.2211 70.5308 36.6293 70.2298 39.1377C70.0291 40.8435 70.0291 47.5662 70.2298 48.1682C70.4305 48.7702 71.0325 49.0713 71.9355 49.0713C72.4372 49.0713 72.7382 48.9709 73.1396 48.6699L73.6413 48.2685V46.5628L73.7416 44.857H81.3674L81.4677 46.5628V48.2685L81.9694 48.6699C82.3708 49.0712 82.5714 49.0713 83.1735 49.0713C83.7755 49.0713 83.9762 48.9709 84.3775 48.6699L84.8792 48.2685V43.5526C84.8792 39.2381 84.8792 38.7364 84.5782 37.6326C83.8758 35.1242 82.8724 33.6191 81.4677 32.9167C80.5647 32.5154 80.5647 32.5154 77.7552 32.415C75.2467 32.3147 74.8454 32.3147 74.143 32.6157ZM80.1633 36.3282C80.7653 37.0306 81.267 38.5357 81.267 40.0408L81.3674 41.2448H73.6413V40.3418C73.6413 38.4354 74.444 36.2279 75.3471 35.8265C75.5477 35.7262 76.5511 35.7262 77.7552 35.7262H79.762L80.1633 36.3282Z" fill="#D31223"/>
</svg>
