<svg width="94" height="62" viewBox="0 0 94 62" fill="none" xmlns="http://www.w3.org/2000/svg">
<path d="M0.9375 7.71605C0.9375 3.45459 4.39209 0 8.65355 0H85.814C90.0755 0 93.5301 3.45459 93.5301 7.71605V54.0123C93.5301 58.2738 90.0755 61.7284 85.814 61.7284H8.65355C4.39209 61.7284 0.9375 58.2738 0.9375 54.0123V7.71605Z" fill="#252422"/>
<path fill-rule="evenodd" clip-rule="evenodd" d="M77.5057 31.5616C77.5057 27.1721 75.3795 23.7084 71.3158 23.7084C67.2348 23.7084 64.7657 27.1721 64.7657 31.5274C64.7657 36.6885 67.6806 39.2948 71.8645 39.2948C73.9049 39.2948 75.4481 38.8319 76.6141 38.1803V34.7509C75.4481 35.3339 74.1107 35.694 72.4131 35.694C70.7499 35.694 69.2753 35.111 69.0867 33.0877H77.4714C77.4714 32.8648 77.5057 31.9732 77.5057 31.5616ZM69.0352 29.9327C69.0352 27.9951 70.2184 27.1892 71.2986 27.1892C72.3446 27.1892 73.4591 27.9951 73.4591 29.9327H69.0352ZM58.147 23.7084C56.4666 23.7084 55.3864 24.4972 54.7863 25.0459L54.5634 23.9828H50.7911V43.9759L55.0778 43.0671L55.0949 38.2146C55.7122 38.6604 56.621 39.2948 58.1299 39.2948C61.1992 39.2948 63.9941 36.8257 63.9941 31.3902C63.9769 26.4176 61.1477 23.7084 58.147 23.7084ZM57.1182 35.5226C56.1066 35.5226 55.5064 35.1625 55.0949 34.7167L55.0778 28.3552C55.5236 27.8579 56.1409 27.515 57.1182 27.515C58.6786 27.515 59.7588 29.264 59.7588 31.5102C59.7588 33.8079 58.6957 35.5226 57.1182 35.5226ZM44.8926 22.6968L49.1964 21.7708V18.29L44.8926 19.1988V22.6968ZM44.8926 23.9999H49.1964V39.0033H44.8926V23.9999ZM40.2801 25.2688L40.0057 23.9999H36.302V39.0033H40.5887V28.8353C41.6004 27.515 43.3151 27.7551 43.8466 27.9437V23.9999C43.2979 23.7942 41.2917 23.4169 40.2801 25.2688ZM31.7067 20.2791L27.5229 21.1707L27.5057 34.9053C27.5057 37.443 29.409 39.312 31.9468 39.312C33.3528 39.312 34.3816 39.0548 34.9474 38.7461V35.2654C34.3987 35.4883 31.6896 36.277 31.6896 33.7393V27.6522H34.9474V23.9999H31.6896L31.7067 20.2791ZM20.1155 28.3552C20.1155 27.6865 20.6642 27.4293 21.573 27.4293C22.8761 27.4293 24.5222 27.8236 25.8254 28.5267V24.4972C24.4022 23.9313 22.9961 23.7084 21.573 23.7084C18.0922 23.7084 15.7773 25.526 15.7773 28.561C15.7773 33.2935 22.2931 32.539 22.2931 34.5795C22.2931 35.3682 21.6072 35.6254 20.647 35.6254C19.2238 35.6254 17.4063 35.0424 15.966 34.2537V38.3346C17.5606 39.0205 19.1724 39.312 20.647 39.312C24.2136 39.312 26.6655 37.5459 26.6655 34.4766C26.6484 29.3669 20.1155 30.2756 20.1155 28.3552Z" fill="#635BFF"/>
</svg>
