<svg width="93" height="62" viewBox="0 0 93 62" fill="none" xmlns="http://www.w3.org/2000/svg">
<path d="M0 7.71605C0 3.45459 3.45459 0 7.71605 0H84.8765C89.138 0 92.5926 3.45459 92.5926 7.71605V54.0123C92.5926 58.2738 89.138 61.7284 84.8765 61.7284H7.71605C3.45459 61.7284 0 58.2738 0 54.0123V7.71605Z" fill="#252422"/>
<path d="M79.6927 19.3564H74.842C73.3755 19.3564 72.2474 19.8077 71.5705 21.2742L62.3203 42.3692H68.8632C68.8632 42.3692 69.9912 39.549 70.2169 38.8722C70.8937 38.8722 77.3237 38.8722 78.2262 38.8722C78.4518 39.6618 79.0159 42.2564 79.0159 42.2564H84.8819L79.6927 19.3564ZM72.0218 34.1343C72.5858 32.7806 74.5035 27.7042 74.5035 27.7042C74.5035 27.817 75.0676 26.3505 75.2932 25.5609L75.7444 27.5914C75.7444 27.5914 76.9853 33.119 77.2109 34.2471H72.0218V34.1343Z" fill="#3362AB"/>
<path d="M62.7685 34.8116C62.7685 39.5496 58.4818 42.7082 51.8261 42.7082C49.0059 42.7082 46.2985 42.1441 44.832 41.4673L45.7345 36.2781L46.5241 36.6166C48.5547 37.519 49.9084 37.8574 52.3901 37.8574C54.1951 37.8574 56.1128 37.1806 56.1128 35.6013C56.1128 34.586 55.3231 33.9092 52.8414 32.7811C50.4724 31.653 47.3138 29.8481 47.3138 26.5767C47.3138 22.0644 51.7133 19.0186 57.9177 19.0186C60.2867 19.0186 62.3172 19.4698 63.5581 20.0338L62.6557 24.9974L62.2044 24.5461C61.0763 24.0949 59.6098 23.6437 57.4665 23.6437C55.0975 23.7565 53.9695 24.7717 53.9695 25.6742C53.9695 26.6895 55.3231 27.4791 57.4665 28.4944C61.0763 30.1865 62.7685 32.1043 62.7685 34.8116Z" fill="#3362AB"/>
<path d="M7.71875 19.5831L7.83156 19.1318H17.533C18.8867 19.1318 19.902 19.5831 20.2404 21.0496L22.3838 31.2023C20.2404 25.7875 15.2769 21.388 7.71875 19.5831Z" fill="#F9B50B"/>
<path d="M36.0322 19.3569L26.2179 42.2569H19.5623L13.9219 23.0796C17.983 25.6742 21.3672 29.7353 22.6081 32.5555L23.2849 34.9244L29.3765 19.2441H36.0322V19.3569Z" fill="#3362AB"/>
<path d="M38.628 19.2441H44.8324L40.8841 42.2569H34.6797L38.628 19.2441Z" fill="#3362AB"/>
</svg>
