<svg width="93" height="62" viewBox="0 0 93 62" fill="none" xmlns="http://www.w3.org/2000/svg">
<g clip-path="url(#clip0_402_17674)">
<path d="M0.771605 7.71605C0.771605 3.88074 3.88074 0.771605 7.71605 0.771605H84.8765C88.7119 0.771605 91.821 3.88074 91.821 7.71605V54.0123C91.821 57.8477 88.7119 60.9568 84.8765 60.9568H7.71605C3.88074 60.9568 0.771605 57.8477 0.771605 54.0123V7.71605Z" fill="#121110" stroke="#272423" stroke-width="1.54321"/>
<path d="M79.6849 19.3569H74.8342C73.3677 19.3569 72.2396 19.8082 71.5627 21.2747L62.3125 42.3697H68.8553C68.8553 42.3697 69.9834 39.5495 70.209 38.8727C70.8859 38.8727 77.3159 38.8727 78.2184 38.8727C78.444 39.6623 79.008 42.2569 79.008 42.2569H84.874L79.6849 19.3569ZM72.014 34.1347C72.578 32.7811 74.4957 27.7047 74.4957 27.7047C74.4957 27.8175 75.0598 26.351 75.2854 25.5614L75.7366 27.5919C75.7366 27.5919 76.9775 33.1195 77.2031 34.2476H72.014V34.1347Z" fill="#3362AB"/>
<path d="M62.7646 34.8121C62.7646 39.5501 58.4779 42.7087 51.8222 42.7087C49.002 42.7087 46.2946 42.1446 44.8281 41.4678L45.7306 36.2786L46.5202 36.6171C48.5508 37.5195 49.9045 37.8579 52.3862 37.8579C54.1912 37.8579 56.1089 37.1811 56.1089 35.6018C56.1089 34.5865 55.3192 33.9097 52.8375 32.7816C50.4685 31.6535 47.3099 29.8486 47.3099 26.5772C47.3099 22.0649 51.7094 19.019 57.9138 19.019C60.2828 19.019 62.3133 19.4703 63.5542 20.0343L62.6517 24.9979L62.2005 24.5466C61.0724 24.0954 59.6059 23.6442 57.4626 23.6442C55.0936 23.757 53.9656 24.7722 53.9656 25.6747C53.9656 26.69 55.3192 27.4796 57.4626 28.4949C61.0724 30.187 62.7646 32.1047 62.7646 34.8121Z" fill="#3362AB"/>
<path d="M7.71484 19.5838L7.82765 19.1326H17.5291C18.8828 19.1326 19.8981 19.5838 20.2365 21.0503L22.3798 31.203C20.2365 25.7882 15.273 21.3887 7.71484 19.5838Z" fill="#F9B50B"/>
<path d="M36.0283 19.3579L26.214 42.2579H19.5584L13.918 23.0806C17.979 25.6752 21.3633 29.7362 22.6042 32.5564L23.281 34.9254L29.3726 19.2451H36.0283V19.3579Z" fill="#3362AB"/>
<path d="M38.6241 19.2451H44.8285L40.8802 42.2579H34.6758L38.6241 19.2451Z" fill="#3362AB"/>
</g>
<defs>
<clipPath id="clip0_402_17674">
<rect width="92.5926" height="61.7284" fill="white"/>
</clipPath>
</defs>
</svg>
