<svg width="94" height="62" viewBox="0 0 94 62" fill="none" xmlns="http://www.w3.org/2000/svg">
<g clip-path="url(#clip0_402_17678)">
<path d="M1.25207 7.71605C1.25207 3.88074 4.36121 0.771605 8.19652 0.771605H85.357C89.1923 0.771605 92.3015 3.88074 92.3015 7.71605V54.0123C92.3015 57.8477 89.1923 60.9568 85.357 60.9568H8.19652C4.36121 60.9568 1.25207 57.8477 1.25207 54.0123V7.71605Z" fill="#121110" stroke="#272423" stroke-width="1.54321"/>
<path d="M53.0389 29.9696L48.0067 24.4901L42.4154 29.4105L47.4476 35.0018L53.0389 29.9696Z" fill="#137ABE"/>
<path d="M38.3896 20.017L43.4218 25.4965L49.0131 20.5761L43.9809 15.0966L38.3896 20.017Z" fill="#137ABE"/>
<path d="M56.9528 39.4749L51.9206 33.9954L46.3293 39.0276L51.3615 44.5071L56.9528 39.4749Z" fill="#137ABE"/>
<path d="M51.1378 48.6447L41.968 38.4684L44.5401 36.2319L38.0541 29.075L40.6261 26.8384L34.1402 19.6815L44.3164 10.6236L47.5594 14.0902L53.1507 9.28164L56.3937 12.6364L58.5184 10.7354C58.0711 10.5117 57.512 10.1763 57.0647 9.9526C53.8217 8.61068 50.3551 7.71606 46.6648 7.71606C33.8047 7.71606 23.293 18.116 23.293 30.8642C23.293 43.6125 33.8047 54.0124 46.7766 54.0124C51.026 54.0124 54.94 52.8941 58.2948 50.993C59.413 50.3221 60.4195 49.6511 61.4259 48.9802L56.7292 43.7243L51.1378 48.6447Z" fill="#137ABE"/>
<path d="M48.6777 17.3332L52.3679 21.4708L56.6174 17.7805L52.8152 13.6429L48.6777 17.3332Z" fill="#137ABE"/>
<path d="M60.4195 26.0557L56.6174 21.9181L52.4798 25.7202L56.2819 29.7459L60.4195 26.0557Z" fill="#137ABE"/>
<path d="M63.9979 34.7782L60.1958 30.6406L56.0582 34.3308L59.8603 38.5803L63.9979 34.7782Z" fill="#137ABE"/>
<path d="M64.2216 21.1353L61.4259 23.5955L63.9979 26.3911L66.6818 23.931L64.2216 21.1353Z" fill="#137ABE"/>
<path d="M65.0044 31.7588L67.4646 34.5545L70.2602 32.0943L67.6882 29.2986L65.0044 31.7588Z" fill="#137ABE"/>
<path d="M57.8475 15.4321L60.4195 18.2278L63.1033 15.7676L60.6431 12.9719L57.8475 15.4321Z" fill="#137ABE"/>
<path d="M59.7485 42.7179L63.5506 46.8554L67.6882 43.1652L63.8861 39.0276L59.7485 42.7179Z" fill="#137ABE"/>
</g>
<defs>
<clipPath id="clip0_402_17678">
<rect width="92.5926" height="61.7284" fill="white" transform="translate(0.480469)"/>
</clipPath>
</defs>
</svg>
