<svg width="46" height="47" viewBox="0 0 46 47" fill="none" xmlns="http://www.w3.org/2000/svg">
<g id="Group 144313">
<rect id="Rectangle 374" y="0.980469" width="46" height="46" rx="2" fill="#3E3C38"/>
<g id="Vector">
<path d="M31.5047 27.3862C30.7182 29.2655 29.3199 30.824 27.5365 31.8089C25.7532 32.7938 23.6894 33.1474 21.6799 32.8123C19.6704 32.4773 17.833 31.4732 16.4657 29.9629C15.0984 28.4527 14.2814 26.5248 14.1472 24.492C14.0129 22.4592 14.5693 20.4406 15.7262 18.7637C16.883 17.0867 18.5724 15.8498 20.5204 15.2534C22.4684 14.657 24.5608 14.7361 26.4581 15.478C28.3555 16.2199 29.9466 17.581 30.9734 19.3405L23.1665 23.8964L31.5047 27.3862Z" fill="#888276"/>
<path d="M35.6431 17.9678C34.1517 14.8318 31.5481 12.362 28.3379 11.038C25.1276 9.71401 21.5399 9.63032 18.2714 10.8032C15.0029 11.9761 12.287 14.3218 10.651 17.3849C9.01504 20.4479 8.57582 24.0096 9.41863 27.3783C10.2614 30.7471 12.3261 33.6823 15.2118 35.6141C18.0974 37.5459 21.598 38.3364 25.0337 37.8319C28.4694 37.3275 31.595 35.5642 33.8036 32.8845C36.0122 30.2048 37.146 26.6505 36.9849 23.1817H34.1764C33.5525 23.1817 27.5826 23.1817 27.5826 23.1817C27.5826 23.1817 33.3063 25.9564 33.9134 26.2507C33.5307 28.0268 32.7558 29.7352 31.634 31.0963C29.869 33.2379 27.371 34.6471 24.6253 35.0502C21.8795 35.4534 19.0819 34.8217 16.7758 33.2778C14.4697 31.734 12.8197 29.3882 12.1461 26.696C11.4725 24.0038 11.8236 21.1573 13.131 18.7094C14.4384 16.2615 16.6089 14.3868 19.221 13.4495C21.8331 12.5122 24.7004 12.5791 27.2659 13.6372C29.8315 14.6953 31.9823 16.8496 33.1742 19.3558L35.6431 17.9678Z" fill="#888276"/>
</g>
</g>
</svg>
