<svg width="155" height="44" viewBox="0 0 155 44" fill="none" xmlns="http://www.w3.org/2000/svg">
<g id="Group 1383">
<path id="path16926" d="M67.5403 17.4415C64.2258 17.4417 61.047 18.7586 58.7034 21.1024C56.3597 23.4462 55.043 26.625 55.043 29.9395V44.0004H90.1141L95.0886 34.6265H64.8515V30.8685C64.8515 29.7929 65.2788 28.7613 66.0393 28.0007C66.7999 27.24 67.8314 26.8127 68.9071 26.8126L88.6321 26.8108C90.3801 26.8172 92.1121 26.4784 93.7288 25.8139C95.3455 25.1494 96.8151 24.1723 98.0534 22.9385C99.2916 21.7048 100.274 20.2387 100.945 18.6244C101.615 17.0101 101.96 15.2794 101.96 13.5314C101.96 11.7835 101.615 10.0527 100.945 8.43841C100.274 6.82412 99.2916 5.35806 98.0534 4.12432C96.8151 2.89058 95.3455 1.91344 93.7288 1.24894C92.1121 0.584446 90.3801 0.245669 88.6321 0.252041L65.1586 0.256278C63.9276 0.256255 62.7087 0.498697 61.5714 0.969762C60.4341 1.44083 59.4007 2.13129 58.5302 3.00173C57.6598 3.87216 56.9693 4.90552 56.4982 6.04281C56.0271 7.1801 55.7847 8.39904 55.7847 9.63004L87.9486 9.62915C88.9775 9.62066 89.9694 10.0127 90.7145 10.7224C91.4595 11.432 91.8993 12.4037 91.9409 13.4318C91.9551 13.9527 91.8649 14.4712 91.6755 14.9567C91.4861 15.4422 91.2015 15.8848 90.8382 16.2584C90.475 16.6321 90.0406 16.9292 89.5607 17.1323C89.0808 17.3354 88.5651 17.4403 88.044 17.4408L67.5403 17.4415Z" fill="#555E63"/>
<path id="path16928" d="M22.3598 34.6024C19.0508 34.6024 15.8773 33.2879 13.5375 30.9481C11.1977 28.6083 9.88316 25.4348 9.88316 22.1258C9.88316 18.8168 11.1977 15.6433 13.5375 13.3035C15.8773 10.9637 19.0508 9.64921 22.3598 9.64921L47.6866 9.62962V0.255859L21.7638 0.274217C15.9837 0.29745 10.4482 2.6099 6.36919 6.70533C2.29018 10.8008 0 16.3455 0 22.1257C0 27.9059 2.29018 33.4507 6.36919 37.5461C10.4482 41.6415 15.9837 43.954 21.7638 43.9772L47.6866 43.9993V17.4402L19.5648 17.4409V26.815L37.8783 26.8146V34.6257L22.3598 34.6024Z" fill="#F05F00"/>
<path id="path16930" d="M126.22 38.6798H124.712C124.361 38.6769 124.012 38.7436 123.687 38.876C123.362 39.0083 123.066 39.2038 122.817 39.4511C122.568 39.6983 122.37 39.9925 122.235 40.3166C122.1 40.6407 122.03 40.9883 122.03 41.3394C122.03 41.6905 122.1 42.0381 122.235 42.3622C122.37 42.6863 122.568 42.9805 122.817 43.2277C123.066 43.475 123.362 43.6704 123.687 43.8028C124.012 43.9352 124.361 44.0019 124.712 43.999H126.22C126.922 43.9933 127.593 43.7106 128.087 43.2124C128.581 42.7143 128.859 42.041 128.859 41.3394C128.859 40.6378 128.581 39.9645 128.087 39.4664C127.593 38.9682 126.922 38.6855 126.22 38.6798ZM126.166 42.8872H124.766C124.358 42.8828 123.969 42.7178 123.682 42.4281C123.395 42.1383 123.235 41.7472 123.235 41.3396C123.235 40.932 123.395 40.5408 123.682 40.2511C123.969 39.9613 124.358 39.7963 124.766 39.792H126.166C126.574 39.7963 126.963 39.9613 127.25 40.2511C127.537 40.5408 127.698 40.932 127.698 41.3396C127.698 41.7472 127.537 42.1383 127.25 42.4281C126.963 42.7178 126.574 42.8828 126.166 42.8872Z" fill="#0084C1"/>
<path id="path16932" d="M115.613 41.339C115.613 42.0442 115.894 42.7203 116.392 43.219C116.891 43.7176 117.567 43.9981 118.272 43.9989H121.313V42.8869H118.327C117.92 42.8808 117.533 42.715 117.247 42.4255C116.962 42.1359 116.802 41.7458 116.802 41.3394C116.802 40.933 116.962 40.5429 117.247 40.2533C117.533 39.9638 117.92 39.798 118.327 39.7919H121.313V38.6797H118.272C117.567 38.6803 116.891 38.9607 116.392 39.4593C115.894 39.9578 115.614 40.6339 115.613 41.339Z" fill="#0084C1"/>
<path id="polygon16934" d="M132.447 38.6797H130.978L129.007 43.998H130.258L131.713 39.9135L133.008 43.4738H134.205L135.501 39.9135L136.955 43.998H138.205L136.235 38.6797H134.766L133.607 41.8658L132.447 38.6797Z" fill="#0084C1"/>
<path id="circle16936" d="M114.242 43.999C114.643 43.999 114.969 43.6737 114.969 43.2724C114.969 42.8712 114.643 42.5459 114.242 42.5459C113.841 42.5459 113.516 42.8712 113.516 43.2724C113.516 43.6737 113.841 43.999 114.242 43.999Z" fill="#0084C1"/>
<path id="path16938" d="M134.012 5.29586C133.29 3.87552 132.262 2.63235 131.004 1.65526C129.53 0.55956 127.737 -0.0217676 125.9 0.000623409C124.105 -0.0217757 122.356 0.561125 120.933 1.65526C119.674 2.63233 118.647 3.8755 117.925 5.29586C109.732 20.9032 97.4639 44 97.4639 44H108.659L125.9 10.9695L134.002 26.4927H121.528L125.925 34.8907H138.386L143.141 44H154.336C154.336 44 142.205 20.9032 134.012 5.29586Z" fill="#0084C1"/>
</g>
</svg>
