<svg width="202" height="44" viewBox="0 0 202 44" fill="none" xmlns="http://www.w3.org/2000/svg">
<path id="Vector" d="M23.5304 33.637C28.754 32.9747 32.9737 28.7549 33.6402 23.5271C33.8729 21.7428 33.6926 19.9289 33.1131 18.2254C32.5337 16.5218 31.5706 14.9741 30.2983 13.7017C29.0259 12.4294 27.4782 11.4663 25.7746 10.8868C24.0711 10.3074 22.2572 10.1271 20.4729 10.3598C15.2451 11.0263 11.0253 15.246 10.363 20.4696C10.1303 22.2539 10.3106 24.0678 10.8901 25.7714C11.4695 27.475 12.4326 29.0227 13.705 30.295C14.9773 31.5674 16.525 32.5305 18.2286 33.1099C19.9322 33.6894 21.7461 33.8697 23.5304 33.637ZM24.2427 0.11247C29.2718 0.641893 33.9667 2.88174 37.5425 6.4575C41.1183 10.0333 43.3581 14.7282 43.8875 19.7573C45.2663 33.6703 33.6694 45.2673 19.7522 43.8885C14.7238 43.3581 10.0299 41.1179 6.45496 37.5422C2.88004 33.9665 0.64079 29.2721 0.111537 24.2436C-1.26727 10.3306 10.3297 -1.26633 24.2427 0.11247ZM55.6928 0.983075H87.8968C89.1215 0.983075 89.813 2.38271 89.0756 3.35745L66.794 32.7539H84.2519C87.4344 32.7539 89.9379 35.649 89.2798 38.9481C88.7965 41.3683 86.5263 43.0179 84.0603 43.0179H49.0862C47.874 43.0179 47.1867 41.6307 47.9156 40.6685L70.2139 11.247H55.8844C53.4184 11.247 51.1481 9.59331 50.6649 7.17728C50.0026 3.87815 52.5103 0.983075 55.6928 0.983075ZM195.452 1.09971C198.776 0.399895 201.7 2.9159 201.7 6.11506V41.5349C201.7 42.7721 200.271 43.4594 199.305 42.6929L171.525 20.6529V37.8942C171.525 41.0934 168.601 43.6094 165.276 42.9096C162.894 42.4097 161.261 40.1894 161.261 37.7567V2.46185C161.261 1.22468 162.69 0.537359 163.656 1.30382L191.44 23.3439V6.25252C191.44 3.81983 193.077 1.60375 195.456 1.09971H195.452ZM123.117 0C140.125 0 153.913 9.84741 153.913 21.9942C153.913 34.141 140.125 43.9884 123.117 43.9884C106.109 43.9884 92.3206 34.141 92.3206 21.9942C92.3206 9.84741 106.109 0 123.117 0ZM123.117 10.264C111.366 10.264 102.585 16.4582 102.585 21.9942C102.585 27.5303 111.366 33.7245 123.117 33.7245C134.868 33.7245 143.649 27.5344 143.649 21.9942C143.649 16.454 134.868 10.264 123.117 10.264Z" fill="#005BFF"/>
</svg>
