<svg width="76" height="48" viewBox="0 0 76 48" fill="none" xmlns="http://www.w3.org/2000/svg">
<g id="g13">
<g id="XMLID_328_">
<path id="rect19" d="M47.6983 5.5914L27.7734 5.65991L28.3772 42.1372L48.302 42.0687L47.6983 5.5914Z" fill="#FF5F00"/>
<path id="XMLID_330_" d="M29.0858 23.9726C28.9625 16.5534 32.2861 9.9612 37.4918 5.68516C33.5624 2.60174 28.6363 0.747567 23.2962 0.765856C10.6453 0.809184 0.582765 11.2311 0.796115 24.0695C1.00946 36.908 11.4172 47.2598 24.0681 47.2164C29.4082 47.1981 34.2722 45.3105 38.0986 42.2005C32.7524 38.0251 29.2091 31.3918 29.0858 23.9726Z" fill="#EB001B"/>
<path id="path22" d="M75.2796 23.6603C75.493 36.4988 65.4304 46.9207 52.7795 46.964C47.4394 46.9823 42.5133 45.1281 38.5839 42.0447C43.8532 37.7685 47.1132 31.1764 46.9899 23.7572C46.8666 16.338 43.3243 9.7693 37.9771 5.52941C41.8035 2.41942 46.6675 0.531721 52.0076 0.513432C64.6585 0.470104 75.0673 10.8864 75.2796 23.6603Z" fill="#F79E1B"/>
</g>
</g>
</svg>
