<svg width="40" height="48" viewBox="0 0 40 48" fill="none" xmlns="http://www.w3.org/2000/svg">
<g id="Group 11">
<path id="XMLID 8" d="M36.1867 12.3523C36.1867 12.5999 36.1866 12.8475 35.9391 13.095C33.9585 22.998 27.5216 26.2164 19.1041 26.2164H14.8953C13.905 26.2164 12.9147 26.9592 12.9147 27.9495L10.6865 41.8136L10.1914 45.7748C10.1914 46.5175 10.6865 47.0126 11.1817 47.0126H18.8565C19.8468 47.0126 20.5895 46.2699 20.5895 45.5272V45.032L22.075 36.1194V35.6242C22.3225 34.6339 23.0652 34.1388 23.808 34.1388H25.0458C32.4731 34.1388 38.1672 31.1679 39.6527 22.5028C40.3954 18.7892 39.9003 15.8183 38.1673 13.8377C37.6721 13.3426 36.9294 12.8474 36.1867 12.3523Z" fill="#2199D6"/>
<path id="XMLID 6" d="M34.2054 11.6099C33.9578 11.6099 33.7103 11.3623 33.2151 11.3623C32.9675 11.3623 32.4724 11.1148 32.2248 11.1148C30.9869 10.8672 29.7491 10.8672 28.5112 10.8672H17.1228C16.8752 10.8672 16.6277 10.8672 16.3801 11.1148C15.8849 11.3623 15.3898 11.8575 15.3898 12.3526L12.9141 27.7022V28.1974C13.1616 27.2071 13.9043 26.4643 14.8946 26.4643H19.1034C27.5209 26.4643 33.9578 22.9983 35.9384 13.3429C35.9384 13.0954 35.9384 12.8478 36.186 12.6002C35.6908 12.3526 35.1957 12.1051 34.7005 11.8575C34.453 11.6099 34.2054 11.6099 34.2054 11.6099Z" fill="#252C5E"/>
<path id="XMLID 5" d="M15.3896 12.352C15.3896 11.8569 15.8847 11.3617 16.3799 11.1142C16.6274 11.1142 16.875 10.8666 17.1226 10.8666H28.511C29.7488 10.8666 31.2343 10.8666 32.2246 11.1142C32.4722 11.1142 32.9673 11.1142 33.2149 11.3617C33.4625 11.3617 33.71 11.6093 34.2052 11.6093C34.4527 11.6093 34.4527 11.6093 34.7003 11.8569C35.1955 12.1045 35.6906 12.352 36.1858 12.5996C36.6809 8.886 36.1858 6.41026 34.2052 4.18209C31.977 1.70635 28.0158 0.716064 23.0644 0.716064H8.45751C7.46722 0.716064 6.47691 1.45878 6.47691 2.44907L0.535156 40.5754C0.535156 41.3182 1.0303 42.0609 1.77303 42.0609H10.6857L12.9138 27.7016L15.3896 12.352Z" fill="#2C3E8B"/>
</g>
</svg>
