<svg width="48" height="48" viewBox="0 0 48 48" fill="none" xmlns="http://www.w3.org/2000/svg">
<g id="webmoney">
<g id="Vector">
<path d="M30.0389 22.9696L25.0067 17.4901L19.4154 22.4105L24.4476 28.0018L30.0389 22.9696Z" fill="#137ABE"/>
<path d="M15.3896 13.017L20.4218 18.4965L26.0131 13.5761L20.9809 8.09663L15.3896 13.017Z" fill="#137ABE"/>
<path d="M33.9528 32.4749L28.9206 26.9954L23.3293 32.0276L28.3615 37.5071L33.9528 32.4749Z" fill="#137ABE"/>
<path d="M28.1378 41.6447L18.968 31.4684L21.5401 29.2319L15.0541 22.075L17.6261 19.8384L11.1402 12.6815L21.3164 3.62356L24.5594 7.09019L30.1507 2.28164L33.3937 5.63644L35.5184 3.73539C35.0711 3.51173 34.512 3.17625 34.0647 2.9526C30.8217 1.61068 27.3551 0.716064 23.6648 0.716064C10.8047 0.716064 0.292969 11.116 0.292969 23.8642C0.292969 36.6125 10.8047 47.0124 23.7766 47.0124C28.026 47.0124 31.94 45.8941 35.2948 43.993C36.413 43.3221 37.4195 42.6511 38.4259 41.9802L33.7292 36.7243L28.1378 41.6447Z" fill="#137ABE"/>
<path d="M25.6777 10.3332L29.3679 14.4708L33.6174 10.7805L29.8152 6.64289L25.6777 10.3332Z" fill="#137ABE"/>
<path d="M37.4195 19.0557L33.6174 14.9181L29.4798 18.7202L33.2819 22.7459L37.4195 19.0557Z" fill="#137ABE"/>
<path d="M40.9979 27.7782L37.1958 23.6406L33.0582 27.3308L36.8603 31.5803L40.9979 27.7782Z" fill="#137ABE"/>
<path d="M41.2216 14.1353L38.4259 16.5955L40.9979 19.3911L43.6818 16.931L41.2216 14.1353Z" fill="#137ABE"/>
<path d="M42.0044 24.7588L44.4646 27.5545L47.2602 25.0943L44.6882 22.2986L42.0044 24.7588Z" fill="#137ABE"/>
<path d="M34.8475 8.43211L37.4195 11.2278L40.1033 8.76759L37.6431 5.97192L34.8475 8.43211Z" fill="#137ABE"/>
<path d="M36.7485 35.7179L40.5506 39.8554L44.6882 36.1652L40.8861 32.0276L36.7485 35.7179Z" fill="#137ABE"/>
</g>
</g>
</svg>
