<svg width="32" height="29" viewBox="0 0 32 29" fill="none" xmlns="http://www.w3.org/2000/svg">
<path d="M11.1757 8.92281C17.1339 8.92281 21.586 6.56743 21.586 4.46135C21.586 2.35547 17.1338 0 11.1757 0C5.21766 0 0.765625 2.35547 0.765625 4.46135C0.765625 6.56743 5.21756 8.92281 11.1757 8.92281Z" fill="#847F7D"/>
<path d="M11.1757 26.7691C12.0454 26.7691 12.8824 26.7186 13.6786 26.6264C13.0074 25.7639 12.4524 24.8068 12.0367 23.7789C11.751 23.7885 11.4643 23.7952 11.1756 23.7952C7.77115 23.7952 4.54703 23.1206 2.09746 21.8958C1.61514 21.6546 1.17129 21.3955 0.765625 21.1212V22.3078C0.765625 24.4137 5.21756 26.7691 11.1757 26.7691Z" fill="#847F7D"/>
<path d="M11.1758 20.8202C11.2064 20.8202 11.2364 20.8197 11.2669 20.8196C11.2059 20.3321 11.1741 19.8356 11.1741 19.3318C11.1741 18.8283 11.2058 18.3321 11.2669 17.845C11.2364 17.845 11.2063 17.8461 11.1758 17.8461C7.77135 17.8461 4.54733 17.1715 2.09766 15.9467C1.61524 15.7055 1.17129 15.4464 0.765625 15.1722V16.3587C0.765724 18.4647 5.21766 20.8202 11.1758 20.8202Z" fill="#847F7D"/>
<path d="M11.1758 14.8712C11.471 14.8712 11.7621 14.8653 12.0496 14.8539C12.5112 13.7212 13.1422 12.675 13.9115 11.7471C13.0208 11.8453 12.1055 11.8974 11.1758 11.8974C7.77135 11.8974 4.54733 11.2228 2.09766 9.99794C1.61524 9.75668 1.17129 9.49767 0.765625 9.22339V10.4099C0.765724 12.5159 5.21766 14.8712 11.1758 14.8712Z" fill="#847F7D"/>
<path d="M15.6375 14.4022C14.994 15.3697 14.5342 16.4693 14.308 17.6509C14.2036 18.1956 14.1484 18.7576 14.1484 19.3322C14.1484 19.7643 14.18 20.1891 14.2396 20.6048C14.386 21.6263 14.706 22.5921 15.1687 23.472C15.6542 24.3953 16.2965 25.2238 17.0603 25.9214C18.6477 27.3712 20.7588 28.2567 23.0729 28.2567C27.9939 28.2567 31.9974 24.2532 31.9974 19.3322C31.9974 14.4111 27.9939 10.4077 23.0729 10.4077C22.5643 10.4077 22.0657 10.4511 21.58 10.5333C19.1061 10.9516 16.9753 12.3913 15.6375 14.4022Z" fill="#847F7D"/>
</svg>
