<svg width="28" height="28" viewBox="0 0 28 28" fill="none" xmlns="http://www.w3.org/2000/svg">
<path d="M6.28906 0C2.82127 0 0 2.82127 0 6.28906V21.7109C0 25.1787 2.82127 28 6.28906 28H13.1797V0H6.28906ZM6.58984 11.5391C4.76552 11.5391 3.28125 10.0548 3.28125 8.23047C3.28125 6.40615 4.76552 4.92188 6.58984 4.92188C8.41416 4.92188 9.89844 6.40615 9.89844 8.23047C9.89844 10.0548 8.41416 11.5391 6.58984 11.5391Z" fill="#847F7D"/>
<path d="M21.7109 0H14.8203V28H21.7109C25.1787 28 28 25.1787 28 21.7109V6.28906C28 2.82127 25.1787 0 21.7109 0ZM21.4102 19.0312C19.5858 19.0312 18.1016 17.547 18.1016 15.7227C18.1016 13.8983 19.5858 12.4141 21.4102 12.4141C23.2345 12.4141 24.7188 13.8983 24.7188 15.7227C24.7188 17.547 23.2345 19.0312 21.4102 19.0312Z" fill="#847F7D"/>
</svg>
