<svg width="37" height="29" viewBox="0 0 37 29" fill="none" xmlns="http://www.w3.org/2000/svg">
<path d="M3.9757 18.855L2.75268 19.3306C0.918146 20.112 -0.0330937 20.9273 0.000879132 21.6408C0.102798 22.6939 1.29185 23.4753 3.46611 24.0528C6.28586 24.8002 9.13958 24.9701 12.0952 24.5284V21.5728L9.75109 22.4561C7.30504 23.3054 6.04805 22.592 6.04805 22.592C5.67435 22.3542 5.50448 21.7766 6.52367 21.4029L7.81464 20.9273L12.0952 19.3985V15.9673L11.0081 16.341L3.9757 18.855Z" fill="#847F7D"/>
<path d="M21.8442 6.93046V15.7294C23.6787 16.6127 25.3094 16.6807 26.5324 15.7634C27.7894 14.8801 28.4689 13.3513 28.4689 11.0412C28.4689 8.6291 27.9933 6.79457 26.9401 5.57155C25.9889 4.28058 24.2902 3.19345 21.7762 2.34413C18.6507 1.32494 16.0008 0.441647 13.8945 0V26.329L19.568 28.0616V6.18306C19.534 4.85812 21.8442 4.96004 21.8442 6.93046Z" fill="#847F7D"/>
<path d="M36.2499 20.5199C36.2159 19.6026 35.1288 18.8892 33.1923 18.2437C31.0181 17.5303 29.1496 17.1906 27.1112 17.2585C25.2427 17.2925 23.0005 17.904 20.9961 18.5495V21.9128L26.4997 19.9763C26.4997 19.9763 28.1644 19.3648 29.5912 19.7385C30.6784 20.0103 30.6104 20.6218 29.5233 20.9955L28.2663 21.5051L20.9961 24.121V27.5523L24.3934 26.3293L32.5469 23.4416L33.4981 22.9999C35.4685 22.2865 36.3518 21.5051 36.2499 20.5199Z" fill="#847F7D"/>
</svg>
