<svg width="93" height="62" viewBox="0 0 93 62" fill="none" xmlns="http://www.w3.org/2000/svg">
<g clip-path="url(#clip0_402_17677)">
<path d="M0.955199 7.71605C0.955199 3.88074 4.06433 0.771605 7.89964 0.771605H85.0601C88.8954 0.771605 92.0046 3.88074 92.0046 7.71605V54.0123C92.0046 57.8477 88.8954 60.9568 85.0601 60.9568H7.89964C4.06433 60.9568 0.955199 57.8477 0.955199 54.0123V7.71605Z" fill="#121110" stroke="#272423" stroke-width="1.54321"/>
<path d="M71.9617 48.4735C75.518 48.4735 77.1918 47.1165 78.6539 43.0034L85.0589 25.0385H81.3505L77.0554 38.9373H76.9801L72.6849 25.0573H68.8714L75.0505 42.1563L74.7195 43.1963C74.4858 44.685 73.1493 45.7471 71.6449 45.6372C71.3578 45.6372 70.8009 45.6074 70.575 45.5776V48.4013C71.0346 48.4641 71.499 48.4939 71.9617 48.4923V48.4735ZM59.6034 39.4769C57.6582 39.4769 56.4236 38.5357 56.4236 37.1113C56.4236 35.6351 57.6143 34.7755 59.8905 34.639L63.9441 34.3833V35.7104C63.8546 37.8972 62.0083 39.5993 59.8215 39.5099C59.7477 39.5067 59.6756 39.5004 59.6034 39.4942V39.4769ZM58.6245 42.2645C60.8317 42.3241 62.8961 41.1743 64.0052 39.2651H64.0805V42.0888H67.4564V30.3941C67.4564 27.0025 64.7441 24.8173 60.5682 24.8173C56.695 24.8173 53.8306 27.0323 53.7255 30.0772H57.0119C57.4041 28.5289 58.8755 27.5076 60.4631 27.6802C62.6938 27.6802 63.9441 28.7202 63.9441 30.6341V31.9298L59.3948 32.2012C55.1593 32.4569 52.8689 34.1903 52.8689 37.2054C52.8658 40.2628 55.2314 42.2818 58.623 42.2818L58.6245 42.2645ZM39.0611 21.6626H43.2653C46.4309 21.6626 48.2397 23.3505 48.2397 26.3201C48.2397 29.2897 46.4309 30.9917 43.2512 30.9917H39.0611V21.6626ZM35.4139 18.5879V42.0841H39.0611V34.0743H44.1108C48.224 34.2955 51.7363 31.1408 51.9575 27.0276C51.9701 26.7939 51.9716 26.5617 51.9622 26.328C52.1567 22.2603 49.0177 18.806 44.9501 18.6099C44.7101 18.5989 44.4716 18.6005 44.2316 18.6115L35.4139 18.5879ZM23.3081 22.9725C21.2123 22.8517 19.4193 24.1631 18.4247 24.1631C17.4302 24.1631 15.8928 23.0337 14.2347 23.065C12.0385 23.1215 10.0368 24.3373 8.97478 26.2605C6.71427 30.1493 8.38652 35.9065 10.5717 39.0706C11.6416 40.6393 12.9248 42.3571 14.6112 42.2959C16.2081 42.2363 16.8419 41.2558 18.7714 41.2558C20.7009 41.2558 21.2735 42.2959 22.9614 42.2645C24.709 42.2347 25.8102 40.6958 26.8832 39.1271C27.6393 38.0164 28.2276 36.8007 28.6308 35.519C26.571 34.6186 25.2361 32.5903 25.2251 30.3423C25.2565 28.3594 26.2949 26.5303 27.9829 25.4903C26.9067 23.9623 25.1796 23.0243 23.3113 22.9584L23.3081 22.9725ZM21.9998 20.8971C21.0821 22.0532 19.6781 22.7168 18.202 22.6901C18.1078 21.25 18.5973 19.8335 19.5589 18.7574C20.5158 17.6467 21.8649 16.9502 23.3238 16.8137C23.4273 18.2946 22.952 19.7566 21.9967 20.8924" fill="white"/>
</g>
<defs>
<clipPath id="clip0_402_17677">
<rect width="92.5926" height="61.7284" fill="white" transform="translate(0.183594)"/>
</clipPath>
</defs>
</svg>
