<svg width="94" height="62" viewBox="0 0 94 62" fill="none" xmlns="http://www.w3.org/2000/svg">
<g clip-path="url(#clip0_402_17676)">
<path d="M1.47473 7.71605C1.47473 3.88074 4.58386 0.771605 8.41917 0.771605H85.5797C89.415 0.771605 92.5241 3.88074 92.5241 7.71605V54.0123C92.5241 57.8477 89.415 60.9568 85.5797 60.9568H8.41917C4.58386 60.9568 1.47473 57.8477 1.47473 54.0123V7.71605Z" fill="#121110" stroke="#272423" stroke-width="1.54321"/>
<path d="M44.9079 32.938V41.8573H42.0586V19.8306H49.6154C50.5174 19.8119 51.4143 19.9707 52.2541 20.298C53.094 20.6253 53.8603 21.1145 54.5088 21.7375C55.1638 22.3226 55.6851 23.0401 56.0377 23.842C56.3903 24.6438 56.5659 25.5112 56.5528 26.3861C56.5716 27.2656 56.3986 28.1387 56.0458 28.9456C55.693 29.7525 55.1687 30.4742 54.5088 31.061C53.1874 32.3124 51.5562 32.9374 49.6154 32.9363H44.9079V32.938ZM44.9079 22.5424V30.2315H49.6862C50.2101 30.2469 50.7314 30.1536 51.2168 29.9575C51.7023 29.7614 52.1412 29.4668 52.5054 29.0926C52.8678 28.7428 53.1558 28.3243 53.3525 27.862C53.5492 27.3997 53.6505 26.9029 53.6505 26.401C53.6505 25.8991 53.5492 25.4023 53.3525 24.94C53.1558 24.4777 52.8678 24.0592 52.5054 23.7094C52.1457 23.3273 51.7084 23.0255 51.2223 22.824C50.7363 22.6226 50.2127 22.526 49.6862 22.5406H44.9079V22.5424Z" fill="#E4E5E7"/>
<path d="M63.1207 26.2949C65.2267 26.2949 66.8891 26.8538 68.1078 27.9716C69.3266 29.0893 69.9354 30.6219 69.9342 32.5692V41.8576H67.2088V39.7662H67.0849C65.9051 41.4885 64.3359 42.3497 62.3774 42.3497C60.7056 42.3497 59.3069 41.8576 58.1813 40.8734C57.6411 40.4217 57.2093 39.856 56.9172 39.2175C56.6251 38.579 56.4802 37.8838 56.493 37.1826C56.493 35.6232 57.0864 34.3829 58.2733 33.462C59.4602 32.5411 61.0448 32.0794 63.0269 32.0771C64.7188 32.0771 66.1121 32.3847 67.207 32.9998V32.353C67.2102 31.875 67.1063 31.4023 66.9028 30.9691C66.6992 30.5359 66.4011 30.1532 66.0301 29.8486C65.2767 29.1735 64.2947 28.8051 63.28 28.8169C61.6884 28.8169 60.4289 29.4836 59.5015 30.817L56.992 29.2475C58.3724 27.2791 60.4153 26.2949 63.1207 26.2949ZM59.4343 37.2442C59.4324 37.6043 59.5171 37.9596 59.6815 38.2806C59.8459 38.6016 60.0852 38.879 60.3793 39.0895C61.0095 39.5818 61.7917 39.8426 62.5933 39.8277C63.7956 39.8257 64.9482 39.3504 65.7983 38.506C66.7422 37.6238 67.2141 36.5886 67.2141 35.4005C66.3257 34.6975 65.0869 34.346 63.4976 34.346C62.3402 34.346 61.3751 34.6231 60.6023 35.1773C59.8219 35.7397 59.4343 36.4234 59.4343 37.2442Z" fill="#E4E5E7"/>
<path d="M85.5793 26.7866L76.0652 48.5005H73.1239L76.6545 40.9029L70.3984 26.7866H73.4955L78.0172 37.6128H78.0791L82.477 26.7866H85.5793Z" fill="#E4E5E7"/>
<path d="M33.3962 31.0159C33.3973 30.1535 33.3238 29.2927 33.1767 28.4429H21.1602V33.3164H28.0427C27.9019 34.0948 27.6038 34.8368 27.1664 35.4977C26.729 36.1586 26.1614 36.7247 25.4978 37.1618V40.3253H29.6054C32.0105 38.1232 33.3962 34.8665 33.3962 31.0159Z" fill="#4285F4"/>
<path d="M21.1582 43.3816C24.5969 43.3816 27.4922 42.2603 29.6035 40.327L25.4959 37.1635C24.3526 37.9333 22.8802 38.3727 21.1582 38.3727C17.8346 38.3727 15.0137 36.1477 14.0049 33.1494H9.77344V36.4096C10.834 38.5054 12.4602 40.2672 14.4706 41.4983C16.481 42.7295 18.7963 43.3815 21.1582 43.3816Z" fill="#34A853"/>
<path d="M14.0063 33.149C13.473 31.5779 13.473 29.8765 14.0063 28.3053V25.0452H9.77479C8.88261 26.8082 8.41797 28.754 8.41797 30.7272C8.41797 32.7003 8.88261 34.6461 9.77479 36.4092L14.0063 33.149Z" fill="#FBBC04"/>
<path d="M21.1582 23.0822C22.9754 23.0527 24.7312 23.7346 26.0463 24.9803L29.6831 21.3687C27.377 19.2176 24.3219 18.0366 21.1582 18.0733C18.7963 18.0734 16.481 18.7255 14.4706 19.9566C12.4602 21.1878 10.834 22.9496 9.77344 25.0453L14.0049 28.3055C15.0137 25.3072 17.8346 23.0822 21.1582 23.0822Z" fill="#EA4335"/>
</g>
<defs>
<clipPath id="clip0_402_17676">
<rect width="92.5926" height="61.7284" fill="white" transform="translate(0.703125)"/>
</clipPath>
</defs>
</svg>
