<svg width="94" height="62" viewBox="0 0 94 62" fill="none" xmlns="http://www.w3.org/2000/svg">
<g clip-path="url(#clip0_402_17682)">
<path d="M1.51379 7.71605C1.51379 3.88074 4.62293 0.771605 8.45824 0.771605H85.6187C89.454 0.771605 92.5632 3.88074 92.5632 7.71605V54.0123C92.5632 57.8477 89.454 60.9568 85.6187 60.9568H8.45823C4.62292 60.9568 1.51379 57.8477 1.51379 54.0123V7.71605Z" fill="#121110" stroke="#272423" stroke-width="1.54321"/>
<path d="M56.6983 12.5914L36.7734 12.6599L37.3772 49.1372L57.302 49.0687L56.6983 12.5914Z" fill="#FF5F00"/>
<path d="M38.0858 30.9726C37.9625 23.5534 41.2861 16.9612 46.4918 12.6852C42.5624 9.60174 37.6363 7.74757 32.2962 7.76586C19.6453 7.80918 9.58277 18.2311 9.79611 31.0695C10.0095 43.908 20.4172 54.2598 33.0681 54.2164C38.4082 54.1981 43.2722 52.3105 47.0986 49.2005C41.7524 45.0251 38.2091 38.3918 38.0858 30.9726Z" fill="#EB001B"/>
<path d="M84.2796 30.6603C84.493 43.4988 74.4304 53.9207 61.7795 53.964C56.4394 53.9823 51.5133 52.1281 47.5839 49.0447C52.8532 44.7685 56.1132 38.1764 55.9899 30.7572C55.8666 23.338 52.3243 16.7693 46.9771 12.5294C50.8035 9.41942 55.6675 7.53172 61.0076 7.51343C73.6585 7.4701 84.0673 17.8864 84.2796 30.6603Z" fill="#F79E1B"/>
</g>
<defs>
<clipPath id="clip0_402_17682">
<rect width="92.5926" height="61.7284" fill="white" transform="translate(0.742188)"/>
</clipPath>
</defs>
</svg>
