<svg width="94" height="62" viewBox="0 0 94 62" fill="none" xmlns="http://www.w3.org/2000/svg">
<path d="M0.59375 7.71605C0.59375 3.45459 4.04834 0 8.3098 0H85.4703C89.7318 0 93.1863 3.45459 93.1863 7.71605V54.0123C93.1863 58.2738 89.7318 61.7284 85.4703 61.7284H8.3098C4.04834 61.7284 0.59375 58.2738 0.59375 54.0123V7.71605Z" fill="#252422"/>
<path d="M57.292 11.5916L37.3672 11.6602L37.971 48.1374L57.8958 48.0689L57.292 11.5916Z" fill="#FF5F00"/>
<path d="M38.6796 29.9731C38.5563 22.5539 41.8798 15.9617 47.0856 11.6856C43.1562 8.60222 38.23 6.74805 32.89 6.76634C20.2391 6.80967 10.1765 17.2316 10.3899 30.07C10.6032 42.9084 21.011 53.2602 33.6619 53.2169C39.002 53.1986 43.8659 51.311 47.6924 48.201C42.3462 44.0256 38.8029 37.3923 38.6796 29.9731Z" fill="#EB001B"/>
<path d="M84.8734 29.6601C85.0867 42.4985 75.0242 52.9204 62.3733 52.9638C57.0332 52.9821 52.107 51.1279 48.1776 48.0445C53.447 43.7682 56.707 37.1762 56.5837 29.757C56.4604 22.3378 52.9181 15.7691 47.5708 11.5292C51.3973 8.41918 56.2613 6.53148 61.6014 6.51319C74.2523 6.46986 84.6611 16.8862 84.8734 29.6601Z" fill="#F79E1B"/>
</svg>
