<svg width="93" height="62" viewBox="0 0 93 62" fill="none" xmlns="http://www.w3.org/2000/svg">
<path d="M0.1875 7.71605C0.1875 3.45459 3.64209 0 7.90355 0H85.064C89.3255 0 92.7801 3.45459 92.7801 7.71605V54.0123C92.7801 58.2738 89.3255 61.7284 85.064 61.7284H7.90355C3.64209 61.7284 0.1875 58.2738 0.1875 54.0123V7.71605Z" fill="#252422"/>
<path d="M53.2264 29.9694L48.1942 24.4898L42.6029 29.4102L47.6351 35.0016L53.2264 29.9694Z" fill="#137ABE"/>
<path d="M38.5771 20.0168L43.6093 25.4963L49.2006 20.5759L44.1684 15.0964L38.5771 20.0168Z" fill="#137ABE"/>
<path d="M57.1403 39.4746L52.1081 33.9951L46.5168 39.0273L51.549 44.5068L57.1403 39.4746Z" fill="#137ABE"/>
<path d="M51.3253 48.6444L42.1555 38.4682L44.7276 36.2317L38.2416 29.0747L40.8136 26.8382L34.3277 19.6813L44.5039 10.6233L47.7469 14.0899L53.3382 9.2814L56.5812 12.6362L58.7059 10.7351C58.2586 10.5115 57.6995 10.176 57.2522 9.95236C54.0092 8.61043 50.5426 7.71582 46.8523 7.71582C33.9922 7.71582 23.4805 18.1157 23.4805 30.864C23.4805 43.6122 33.9922 54.0121 46.9641 54.0121C51.2135 54.0121 55.1275 52.8938 58.4823 50.9928C59.6005 50.3218 60.607 49.6509 61.6134 48.9799L56.9167 43.7241L51.3253 48.6444Z" fill="#137ABE"/>
<path d="M48.8652 17.3329L52.5554 21.4705L56.8049 17.7802L53.0027 13.6426L48.8652 17.3329Z" fill="#137ABE"/>
<path d="M60.607 26.0554L56.8049 21.9178L52.6673 25.7199L56.4694 29.7457L60.607 26.0554Z" fill="#137ABE"/>
<path d="M64.1854 34.7779L60.3833 30.6403L56.2457 34.3306L60.0478 38.58L64.1854 34.7779Z" fill="#137ABE"/>
<path d="M64.4091 21.135L61.6134 23.5952L64.1854 26.3909L66.8693 23.9307L64.4091 21.135Z" fill="#137ABE"/>
<path d="M65.1919 31.7586L67.6521 34.5543L70.4477 32.0941L67.8757 29.2984L65.1919 31.7586Z" fill="#137ABE"/>
<path d="M58.035 15.4319L60.607 18.2275L63.2908 15.7674L60.8306 12.9717L58.035 15.4319Z" fill="#137ABE"/>
<path d="M59.936 42.7176L63.7381 46.8552L67.8757 43.1649L64.0736 39.0273L59.936 42.7176Z" fill="#137ABE"/>
</svg>
