<svg width="94" height="62" viewBox="0 0 94 62" fill="none" xmlns="http://www.w3.org/2000/svg">
<path d="M0.5625 7.71605C0.5625 3.45459 4.01709 0 8.27855 0H85.439C89.7005 0 93.1551 3.45459 93.1551 7.71605V54.0123C93.1551 58.2738 89.7005 61.7284 85.439 61.7284H8.27855C4.01709 61.7284 0.5625 58.2738 0.5625 54.0123V7.71605Z" fill="#252422"/>
<path d="M67.7796 27.4248C67.5649 26.1363 66.3838 25.2773 64.7731 25.2773C64.2362 25.2773 63.8067 25.2773 63.2698 25.2773C62.3034 25.1699 62.0887 25.492 62.0887 26.2437C62.0887 30.0019 62.0887 33.6527 62.0887 37.4108C62.0887 39.3436 60.1559 41.3838 57.901 41.8133C50.8141 43.424 43.7272 44.9272 36.6404 46.5379C35.8887 46.7526 35.0297 46.7526 34.1707 46.7526C33.8486 46.7526 33.3117 46.5379 33.2043 46.2157C33.097 46.001 33.4191 45.5715 33.6338 45.3567C33.956 45.142 34.3855 44.9272 34.815 44.7125C36.1035 44.283 37.4994 43.8535 38.7879 43.424C44.0494 41.7059 49.3108 39.9879 54.5723 38.1625C56.9346 37.4108 58.2231 35.8002 58.2231 33.76C58.3305 27.3174 58.2231 20.7674 58.2231 14.3248C58.2231 13.2511 57.6862 12.3921 56.5051 11.9625C55.1092 11.4257 53.8206 11.8552 52.6395 12.392C45.1231 15.9355 37.7141 19.4789 30.1978 23.0224C28.0502 24.0961 26.7617 25.5994 26.7617 27.7469C26.7617 33.8674 26.7617 39.9879 26.7617 46.1084C26.7617 46.4305 26.7617 46.7526 26.8691 46.9674C27.6207 49.0076 29.5535 50.2961 32.1306 50.2961C37.392 50.2961 42.6535 50.2961 47.9149 50.2961C53.1764 50.2961 58.3305 50.2961 63.5919 50.2961C64.7731 50.2961 65.7395 50.0813 66.5985 49.3297C67.6723 48.4707 67.6723 47.2895 67.6723 46.2157C67.6723 40.933 67.7796 27.4248 67.7796 27.4248ZM45.8748 25.492C46.4117 24.0961 47.5928 23.2371 49.3108 23.0224C50.492 22.915 51.4584 23.5592 51.6731 24.633C51.8879 26.2437 49.9551 28.1765 47.9149 28.1765C46.3043 28.1765 45.3379 26.9953 45.8748 25.492Z" fill="#E47418"/>
</svg>
