<svg width="94" height="62" viewBox="0 0 94 62" fill="none" xmlns="http://www.w3.org/2000/svg">
<g clip-path="url(#clip0_402_17675)">
<path d="M1.21692 7.71605C1.21692 3.88074 4.32605 0.771605 8.16136 0.771605H85.3219C89.1572 0.771605 92.2663 3.88074 92.2663 7.71605V54.0123C92.2663 57.8477 89.1572 60.9568 85.3219 60.9568H8.16136C4.32605 60.9568 1.21692 57.8477 1.21692 54.0123V7.71605Z" fill="#121110" stroke="#272423" stroke-width="1.54321"/>
<path d="M67.2171 23.425C67.0024 22.1365 65.8213 21.2775 64.2106 21.2775C63.6737 21.2775 63.2442 21.2775 62.7073 21.2775C61.7409 21.1701 61.5262 21.4923 61.5262 22.2439C61.5262 26.0021 61.5262 29.6529 61.5262 33.4111C61.5262 35.3439 59.5934 37.384 57.3385 37.8135C50.2516 39.4242 43.1647 40.9275 36.0779 42.5381C35.3262 42.7529 34.4672 42.7529 33.6082 42.7529C33.2861 42.7529 32.7492 42.5381 32.6418 42.216C32.5345 42.0012 32.8566 41.5717 33.0713 41.357C33.3935 41.1422 33.823 40.9275 34.2525 40.7127C35.541 40.2832 36.9369 39.8537 38.2254 39.4242C43.4869 37.7062 48.7483 35.9881 54.0098 34.1627C56.3721 33.4111 57.6606 31.8004 57.6606 29.7603C57.768 23.3177 57.6606 16.7677 57.6606 10.3251C57.6606 9.25131 57.1237 8.3923 55.9426 7.96279C54.5467 7.42591 53.2581 7.85541 52.077 8.39229C44.5606 11.9357 37.1516 15.4792 29.6353 19.0226C27.4877 20.0964 26.1992 21.5996 26.1992 23.7472C26.1992 29.8677 26.1992 35.9881 26.1992 42.1086C26.1992 42.4308 26.1992 42.7529 26.3066 42.9676C27.0582 45.0078 28.991 46.2963 31.5681 46.2963C36.8295 46.2963 42.091 46.2963 47.3524 46.2963C52.6139 46.2963 57.768 46.2963 63.0294 46.2963C64.2106 46.2963 65.177 46.0816 66.036 45.3299C67.1098 44.4709 67.1098 43.2898 67.1098 42.216C67.1098 36.9333 67.2171 23.425 67.2171 23.425ZM45.3123 21.4923C45.8492 20.0964 47.0303 19.2374 48.7483 19.0226C49.9295 18.9152 50.8959 19.5595 51.1106 20.6333C51.3254 22.2439 49.3926 24.1767 47.3524 24.1767C45.7418 24.1767 44.7754 22.9956 45.3123 21.4923Z" fill="#E47418"/>
</g>
<defs>
<clipPath id="clip0_402_17675">
<rect width="92.5926" height="61.7284" fill="white" transform="translate(0.445312)"/>
</clipPath>
</defs>
</svg>
