<svg width="156" height="44" viewBox="0 0 156 44" fill="none" xmlns="http://www.w3.org/2000/svg">
<g id="Group">
<g id="Group 1399">
<path id="Vector" d="M32.1134 44.0003C38.6784 44.0003 44.0003 38.6784 44.0003 32.1134C44.0003 25.5485 38.6784 20.2266 32.1134 20.2266C25.5485 20.2266 20.2266 25.5485 20.2266 32.1134C20.2266 38.6784 25.5485 44.0003 32.1134 44.0003Z" fill="#97CF26"/>
<path id="Vector_2" d="M9.76942 37.6463C12.8253 37.6463 15.3025 35.169 15.3025 32.1132C15.3025 29.0573 12.8253 26.5801 9.76942 26.5801C6.71358 26.5801 4.23633 29.0573 4.23633 32.1132C4.23633 35.169 6.71358 37.6463 9.76942 37.6463Z" fill="#A169F7"/>
<path id="Vector_3" d="M32.112 17.4202C36.3375 17.4202 39.763 13.9947 39.763 9.76919C39.763 5.54364 36.3375 2.11816 32.112 2.11816C27.8864 2.11816 24.4609 5.54364 24.4609 9.76919C24.4609 13.9947 27.8864 17.4202 32.112 17.4202Z" fill="#FF6163"/>
<path id="Vector_4" d="M9.76895 19.5379C15.1642 19.5379 19.5379 15.1642 19.5379 9.76895C19.5379 4.37371 15.1642 0 9.76895 0C4.37371 0 0 4.37371 0 9.76895C0 15.1642 4.37371 19.5379 9.76895 19.5379Z" fill="#00AAFF"/>
</g>
<path id="Vector_5" d="M74.9031 37.5815H81.0737L69.6459 6.46484H65.1702L53.7402 37.5825H59.9114L62.0939 31.6428H72.7206L74.9031 37.5825L63.8126 26.9601L67.4078 17.1752L71.0008 26.9601H63.8126L74.9031 37.5815ZM96.3705 16.3376L90.6918 31.7953L85.0157 16.3376H79.2179L87.0235 37.5815H94.3611L102.166 16.3376H96.3694M104.592 16.3376H110.39V37.5815H104.592V16.3376Z" fill="#C7C7C7"/>
<path id="Vector_6" d="M107.511 13.9257C109.573 13.9257 111.244 12.2544 111.244 10.1928C111.244 8.13122 109.573 6.45996 107.511 6.45996C105.45 6.45996 103.778 8.13122 103.778 10.1928C103.778 12.2544 105.45 13.9257 107.511 13.9257Z" fill="#C7C7C7"/>
<path id="Vector_7" d="M130.861 21.0195V16.3379H123.916V10.4775H118.122V16.3379H113.537V21.0195H118.122V30.1595C118.122 34.874 120.479 38.0207 126.498 38.0207C128.823 38.0207 130.861 37.1672 130.861 37.1672L130.157 32.5803C130.157 32.5803 129.016 32.9212 127.613 32.9212C125.893 32.9212 123.916 32.18 123.916 29.8026V21.019L130.861 21.0195ZM144.157 32.7259C140.924 32.7259 138.305 30.1632 138.305 27.0022C138.305 23.8438 140.924 21.2806 144.156 21.2806C147.389 21.2806 150.007 23.8443 150.007 27.0027C150.007 30.1637 147.389 32.7259 144.157 32.7259ZM144.157 15.7957C137.873 15.7957 132.776 20.7807 132.776 26.9254C132.776 33.0727 137.873 38.0551 144.156 38.0551C150.437 38.0551 155.533 33.0727 155.533 26.9254C155.533 20.7807 150.437 15.7957 144.156 15.7957" fill="#C7C7C7"/>
</g>
</svg>
