<svg width="200" height="44" viewBox="0 0 200 44" fill="none" xmlns="http://www.w3.org/2000/svg">
<g id="g-logo 1" clip-path="url(#clip0_201_17394)">
<g id="Group">
<path id="Vector" d="M152.4 2.10059L143.5 25.6006L142.8 27.4006L142.2 25.6006L133.3 2.10059H124.7L124.9 12.4006L136 41.9006H149.6L164.6 2.10059H152.4Z" fill="#F47B25"/>
<g id="Group_2">
<g id="Group_3">
<path id="Vector_2" d="M157.8 6.8C153.6 11 151.5 16.1 151.5 22C151.5 27.9 153.6 33 157.8 37.2C162 41.3 166.8 43.4 172.6 43.5C172.5 43 172.5 42.5 172.5 42C172.5 37.5 174.6 33.3 178.3 30.6C176.7 31.6 174.9 32.1 173.1 32.1C170.4 32.1 167.9 31.1 166 29.2C164.1 27.3 163.1 24.7 163.1 22.1C163.1 19.4 164.1 16.9 166 15C169.9 11.1 176.2 11.1 180.2 15C182.2 16.8 183.3 19.4 183.2 22.1C183.2 24.8 182.1 27.4 180.2 29.2C179.9 29.5 179.5 29.8 179.2 30.1C183.5 27.3 188.9 27.1 193.5 29.5C194.4 27.1 194.8 24.6 194.8 22.1C194.8 16.2 192.7 11.1 188.4 6.9C184.1 2.6 179.1 0.5 173.2 0.5C167.1 0.5 162.1 2.5 157.8 6.8Z" fill="#F47B25"/>
</g>
</g>
<path id="Vector_3" d="M23.4 26.5004H31.2L30.5 27.6004C30.1 28.2004 29.7 28.7004 29.2 29.2004C27.3 31.1004 24.8 32.1004 22.1 32.1004C16.6 32.2004 12.2 27.8004 12.1 22.3004C12.1 22.2004 12.1 22.1004 12.1 22.0004C12.1 19.3004 13.1 16.8004 15 14.9004C16.9 13.0004 19.4 11.9004 22.1 12.0004C24.8 12.0004 26.6 12.6004 28.3 14.1004L36.8 6.30039C32.6 2.30039 27.8 0.400391 22.1 0.400391C16.2 0.400391 11.1 2.50039 6.9 6.80039C2.6 10.9004 0.5 16.1004 0.5 22.0004C0.5 27.9004 2.6 33.0004 6.8 37.2004C11 41.4004 16.2 43.5004 22 43.5004C27.9 43.5004 32.9 41.4004 37.2 37.2004C41.2 33.2004 43.1 28.2004 43.1 22.0004V19.7004H23.4V26.5004Z" fill="#F47B25"/>
<g id="Group_4">
<g id="Group_5">
<path id="Vector_4" d="M47.8002 26.4006L50.7002 18.0006L51.4002 16.1006L52.0002 18.0006L54.9002 26.4006L55.2002 27.3006H47.4002L47.8002 26.4006ZM44.1002 2.10059L30.2002 41.9006L42.4002 42.0006L44.1002 37.0006L44.3002 36.5006H58.5002L58.7002 37.0006L60.4002 42.0006H72.5002L58.6002 2.10059H44.1002Z" fill="#F47B25"/>
</g>
</g>
<path id="Vector_5" d="M87.6996 13.3006L87.1996 14.0006L86.5996 13.3006L78.0996 2.10059H66.0996V41.9006H77.5996V22.4006V20.3006L78.7996 22.0006L87.1996 33.1006L95.4996 22.1006L96.6996 20.5006V22.6006V41.9006H108.2V2.10059H96.2996L87.6996 13.3006Z" fill="#F47B25"/>
<path id="Vector_6" d="M113.4 2.10059H124.7L124.9 12.4006H113.4V2.10059Z" fill="#F47B25"/>
<g id="Group_6">
<g id="Group_7">
<path id="Vector_7" d="M124.9 17.7002H113.4V41.9002H124.9V17.7002Z" fill="#F47B25"/>
</g>
</g>
<path id="Vector_8" d="M157.8 6.8C153.6 11 151.5 16.1 151.5 22C151.5 25.2 152.2 28.4 153.6 31.3L164.6 2C162.1 3.2 159.7 4.8 157.8 6.8Z" fill="#DD3B10"/>
<path id="Vector_9" d="M177.3 41.5C176.8 41.5 176.3 41.1 176.3 40.5C176.3 40 176.7 39.5 177.3 39.5C177.9 39.5 178.3 39.9 178.3 40.5C178.3 41.1 177.8 41.5 177.3 41.5Z" fill="#F47B25"/>
<g id="Group_8">
<g id="Group_9">
<path id="Vector_10" d="M187.4 38.9006C187.1 38.6006 186.9 38.1006 186.9 37.7006C186.9 37.2006 187.1 36.8006 187.4 36.5006C187.7 36.2006 188.2 36.0006 188.6 36.0006C189.1 36.0006 189.5 36.2006 189.8 36.5006C190.1 36.8006 190.3 37.3006 190.3 37.7006C190.3 38.2006 190.1 38.6006 189.8 38.9006C189.5 39.2006 189 39.4006 188.6 39.4006C188.1 39.4006 187.7 39.2006 187.4 38.9006ZM185.7 34.8006C184.1 36.4006 184.1 39.0006 185.7 40.6006C187.3 42.2006 189.9 42.2006 191.5 40.6006C192.3 39.8006 192.7 38.8006 192.7 37.7006C192.7 35.4006 190.9 33.6006 188.6 33.6006C187.5 33.6006 186.5 34.0006 185.7 34.8006Z" fill="#F47B25"/>
</g>
</g>
<path id="Vector_11" d="M183.9 39.0006C183.5 39.3006 183.1 39.4006 182.6 39.4006C182.1 39.4006 181.7 39.3006 181.3 38.9006C181 38.6006 180.8 38.2006 180.9 37.7006C180.9 37.2006 181.1 36.8006 181.4 36.5006C181.7 36.2006 182.2 36.0006 182.6 36.0006C183.1 36.0006 183.5 36.2006 183.8 36.5006L183.9 36.4006C184.1 35.6006 184.5 35.0006 185 34.4006C184.3 33.9006 183.4 33.6006 182.6 33.6006C180.3 33.7006 178.5 35.5006 178.6 37.8006C178.7 40.0006 180.4 41.7006 182.6 41.8006C183.7 41.8006 184.3 41.7006 185.1 41.0006C184.5 40.5006 184.1 39.8006 183.9 39.0006Z" fill="#F47B25"/>
<path id="Vector_12" d="M197.1 33.9004L195.5 36.0004L193.9 33.9004H191.6C191.8 34.0004 191.9 34.2004 192.1 34.3004C194 36.2004 194 39.2004 192.2 41.1004C192.2 41.1004 192.2 41.1004 192.1 41.2004C192 41.3004 191.8 41.5004 191.7 41.6004H194V37.9004L195.7 40.1004L197.3 38.0004V41.7004H199.7V34.1004L197.1 33.9004Z" fill="#F47B25"/>
<path id="Vector_13" d="M66.0996 41.9002H72.4996L66.0996 23.7002V41.9002Z" fill="#DD3B10"/>
<path id="Vector_14" d="M124.9 12.4006V2.10059H121.1L124.9 12.4006Z" fill="#DD3B10"/>
<path id="Vector_15" d="M30.2998 41.9002C32.8998 40.8002 35.1998 39.2002 37.1998 37.2002C41.1998 33.2002 43.0998 28.2002 43.0998 22.0002V19.7002H37.9998L30.2998 42.0002V41.9002Z" fill="#DD3B10"/>
</g>
</g>
<defs>
<clipPath id="clip0_201_17394">
<rect width="200" height="44" fill="white"/>
</clipPath>
</defs>
</svg>
