<svg width="258" height="44" viewBox="0 0 258 44" fill="none" xmlns="http://www.w3.org/2000/svg">
<path d="M76.2716 8.83116C76.2716 6.98812 74.7888 5.54269 72.8949 5.54269C71.448 5.54269 70.6349 6.36182 70.1207 7.04044L58.8098 19.6622L52.5991 19.577V8.78931C52.5991 6.92235 51.1357 5.45898 49.2673 5.45898C47.3988 5.45898 45.8906 6.92235 45.8906 8.78931V35.0672C45.8906 36.9356 47.3749 38.4005 49.2673 38.4005C51.1596 38.4005 52.5991 36.9356 52.5991 35.0672V25.571L57.5707 25.6562C57.6529 25.6562 59.6215 25.6382 59.7007 25.6322L69.8157 37.2645C70.6035 38.109 71.442 38.4857 72.5377 38.4857C74.306 38.4857 75.6901 37.1 75.6901 35.3332C75.6901 34.3736 75.3164 33.5799 74.5541 32.8759L65.1745 22.2915L75.3852 11.166C75.8127 10.6099 76.2701 9.92383 76.2701 8.83266L76.2716 8.83116Z" fill="white"/>
<path d="M87.0407 5.54199C85.1469 5.54199 83.6641 7.00536 83.6641 8.87231V35.1502C83.6641 37.0186 85.1469 38.4835 87.0407 38.4835C88.9346 38.4835 90.3725 37.0186 90.3725 35.1502V8.87231C90.3725 7.00536 88.9092 5.54199 87.0407 5.54199Z" fill="white"/>
<path d="M162.894 19.4525H158.184C156.495 19.4525 155.121 20.8068 155.121 22.4704C155.121 24.1341 156.495 25.445 158.184 25.445H159.742V30.3837C157.846 31.7036 155.332 32.4569 152.794 32.4569C146.888 32.4569 142.764 28.3852 142.764 22.0743C142.764 16.3225 147.044 11.6409 152.302 11.6409C155.177 11.6409 157.274 12.3195 159.553 13.9907C160.072 14.3524 160.722 14.7246 161.598 14.7246C163.435 14.7246 164.93 13.2313 164.93 11.3943C164.93 9.86065 163.979 8.98173 163.561 8.66634C160.356 6.36441 157.056 5.38086 152.526 5.38086C143.141 5.38086 135.788 12.753 135.788 22.2522C135.788 31.7514 142.866 38.6721 152.616 38.6721C157.755 38.6721 161.686 36.7693 164.063 35.1849C165.549 34.2641 166.271 32.9547 166.271 31.1849V22.8277C166.271 20.9338 164.788 19.451 162.894 19.451V19.4525Z" fill="white"/>
<path d="M199.334 5.54205C197.44 5.54205 195.957 7.00542 195.957 8.87237V24.1503C195.957 29.3506 193.379 32.2145 188.697 32.2145C184.015 32.2145 181.392 29.2713 181.392 23.9261V8.87088C181.392 7.00392 179.929 5.54055 178.06 5.54055C176.192 5.54055 174.684 7.00392 174.684 8.87088V24.1488C174.684 33.2803 179.758 38.5179 188.607 38.5179C197.456 38.5179 202.664 33.1831 202.664 23.8797V8.86938C202.664 7.00243 201.201 5.53906 199.332 5.53906L199.334 5.54205Z" fill="white"/>
<path d="M233.016 38.5153C234.91 38.5153 236.393 37.052 236.393 35.185V19.9116C236.393 14.7113 238.971 11.8473 243.653 11.8473C248.334 11.8473 250.957 14.7905 250.957 20.1358V35.1865C250.957 37.0535 252.421 38.5168 254.289 38.5168C256.158 38.5168 257.666 37.0535 257.666 35.1865V19.9131C257.666 10.7816 252.591 5.54395 243.742 5.54395C234.893 5.54395 229.686 10.8787 229.686 20.1821V35.188C229.686 37.055 231.149 38.5183 233.017 38.5183L233.016 38.5153Z" fill="white"/>
<path d="M103.77 38.455C105.664 38.455 107.146 36.9917 107.146 35.1247V19.9125C107.146 14.7123 109.725 11.8483 114.406 11.8483C119.088 11.8483 121.71 14.7915 121.71 20.1368V35.1875C121.71 37.0544 123.173 38.5178 125.042 38.5178C126.91 38.5178 128.418 37.0544 128.418 35.1875V19.914C128.418 10.7826 123.344 5.54492 114.496 5.54492C105.649 5.54492 100.439 10.8797 100.439 20.1831V35.1277C100.439 36.9946 101.903 38.458 103.771 38.458L103.77 38.455Z" fill="white"/>
<path d="M216.383 5.54199C214.489 5.54199 213.008 7.00536 213.008 8.87231V35.1502C213.008 37.0186 214.491 38.4835 216.383 38.4835C218.275 38.4835 219.715 37.0201 219.715 35.1502V8.87231C219.715 7.00536 218.251 5.54199 216.383 5.54199Z" fill="white"/>
<path d="M35.1011 37.9934C35.1011 37.8223 35.0441 37.6837 34.9292 37.5785C34.8144 37.4733 34.6484 37.4199 34.4313 37.4199H33.8534C33.7674 37.4199 33.7029 37.4429 33.6585 37.4888C33.614 37.534 33.5918 37.5992 33.5918 37.6815V39.1582C33.5918 39.3116 33.6652 39.3879 33.8119 39.3879C33.9586 39.3879 34.0319 39.3116 34.0319 39.1582V38.6188L34.2335 38.6166C34.295 38.6166 34.3483 38.6284 34.3943 38.6514C34.4402 38.6744 34.4735 38.7196 34.495 38.7863L34.6284 39.2131C34.644 39.2649 34.6684 39.3072 34.7018 39.339C34.7351 39.3709 34.7781 39.3872 34.8299 39.3872C34.9092 39.3872 34.9722 39.3642 35.0182 39.3183C35.0641 39.2723 35.0715 39.2049 35.0411 39.116L34.9404 38.8085C34.8974 38.6736 34.8463 38.5869 34.787 38.5469C34.7625 38.5306 34.7344 38.5188 34.704 38.5091C34.7936 38.4862 34.87 38.4491 34.9315 38.398C35.0448 38.3046 35.1011 38.169 35.1011 37.9919V37.9934ZM34.372 38.2869H34.0282V37.7504H34.372C34.4758 37.7504 34.5536 37.7719 34.6062 37.8149C34.658 37.8578 34.684 37.9253 34.684 38.0171C34.684 38.109 34.658 38.1809 34.6062 38.2239C34.5543 38.2661 34.4765 38.2883 34.372 38.2883V38.2869Z" fill="white"/>
<path d="M35.8382 37.7362C35.7537 37.5339 35.6374 37.359 35.4869 37.2086C35.3373 37.059 35.1617 36.9419 34.9594 36.8574C34.7578 36.7737 34.5385 36.7314 34.3036 36.7314C34.0687 36.7314 33.8494 36.7737 33.6479 36.8574C33.4463 36.9411 33.2692 37.059 33.1181 37.2086C32.9669 37.359 32.8491 37.5339 32.7646 37.7362C32.6802 37.9385 32.6387 38.1571 32.6387 38.3919C32.6387 38.6268 32.6809 38.8462 32.7646 39.0484C32.8484 39.25 32.9662 39.4263 33.1181 39.5782C33.2692 39.7294 33.4463 39.8472 33.6479 39.9317C33.8494 40.0154 34.068 40.0576 34.3036 40.0576C34.5392 40.0576 34.7578 40.0154 34.9594 39.9317C35.1609 39.8479 35.3373 39.7294 35.4869 39.5782C35.6366 39.4263 35.7537 39.25 35.8382 39.0484C35.9219 38.8462 35.9641 38.6276 35.9641 38.3919C35.9641 38.1563 35.9219 37.9377 35.8382 37.7362ZM35.6025 38.9543C35.5321 39.127 35.4343 39.2774 35.3091 39.4063C35.1839 39.5345 35.0357 39.6345 34.8645 39.7072C34.6934 39.779 34.5066 39.8153 34.3051 39.8153C34.1036 39.8153 33.9168 39.779 33.7457 39.7072C33.5745 39.6353 33.4256 39.5353 33.2981 39.4063C33.1714 39.2781 33.0729 39.1277 33.0025 38.9543C32.9321 38.7817 32.8973 38.5942 32.8973 38.3919C32.8973 38.1897 32.9321 38.0029 33.0025 37.8303C33.0729 37.6577 33.1714 37.508 33.2981 37.3805C33.4248 37.2538 33.5738 37.1545 33.7457 37.0819C33.9168 37.01 34.1036 36.9737 34.3051 36.9737C34.5066 36.9737 34.6934 37.01 34.8645 37.0819C35.0357 37.1538 35.1839 37.2531 35.3091 37.3805C35.4343 37.5072 35.5321 37.6569 35.6025 37.8303C35.6729 38.0029 35.7078 38.1904 35.7078 38.3919C35.7078 38.5935 35.6729 38.781 35.6025 38.9543Z" fill="white"/>
<path d="M3.56986 20.5228C4.17449 19.7233 5.12663 18.1428 6.70341 13.7741C6.70341 13.7741 7.85042 10.8332 10.1089 8.58069C10.1096 8.57772 10.1111 8.57328 10.1118 8.57031C6.07803 11.7883 5.66383 16.4497 2.7711 20.525C-1.63986 26.738 -0.284636 34.1403 3.34313 38.1378C-1.12267 31.6425 0.61786 24.4255 3.57061 20.5228H3.56986Z" fill="white"/>
<path d="M25.9299 13.7738C27.5059 18.1417 28.4588 19.723 29.0634 20.5225C32.0154 24.4251 33.7567 31.6421 29.2909 38.1374C32.9187 34.1399 34.2731 26.7384 29.8629 20.5254C26.9702 16.4501 26.556 11.7887 22.5222 8.5707C22.5229 8.57366 22.5244 8.57737 22.5251 8.58107C22.4896 8.54551 22.4562 8.50846 22.4199 8.47363C24.7495 10.7388 25.9306 13.7752 25.9306 13.7752L25.9299 13.7738Z" fill="white"/>
<path d="M21.1033 14.6598C20.4765 14.3678 19.7311 14.5827 19.2583 15.1362C19.0998 15.3222 19.1761 15.6082 19.3895 15.6667C19.6673 15.7423 20.0556 15.866 20.4535 16.052C20.8507 16.2373 21.1952 16.4544 21.4316 16.6189C21.6242 16.7522 21.891 16.6011 21.9288 16.3455C22.034 15.6393 21.7191 14.948 21.1026 14.6605L21.1033 14.6598Z" fill="black"/>
<path d="M11.5261 14.6598C12.153 14.3678 12.8984 14.5827 13.3711 15.1362C13.5297 15.3222 13.4534 15.6082 13.24 15.6667C12.9621 15.7423 12.5738 15.866 12.1759 16.052C11.7788 16.2373 11.4342 16.4544 11.1979 16.6189C11.0052 16.7522 10.7385 16.6011 10.7007 16.3455C10.5954 15.6393 10.9104 14.948 11.5268 14.6605L11.5261 14.6598Z" fill="black"/>
<path d="M29.0619 20.523C28.4573 19.7235 27.5044 18.143 25.9284 13.7743C25.9284 13.7743 24.7473 10.7378 22.4177 8.47266V8.47784C22.4177 8.47784 20.2785 9.43665 16.3151 9.43665C12.3517 9.43665 10.2133 8.47784 10.2133 8.47784V8.47266C7.88292 10.7378 6.70182 13.7743 6.70182 13.7743C5.12579 18.1423 4.17291 19.7235 3.56828 20.523C0.393247 24.7205 -1.38507 32.7519 4.4567 39.5947C5.35327 40.6446 5.8223 39.7384 5.35327 38.5447C2.81768 32.0902 6.83001 24.3701 8.22154 22.2302C8.90768 21.175 9.09811 19.6775 8.85877 18.4423C7.60802 11.9893 11.6426 11.4847 11.6426 11.4847C14.5123 11.2239 15.3111 13.8484 15.5334 15.3303C15.7601 15.1443 16.0365 15.048 16.3151 15.048C16.5937 15.048 16.8701 15.1443 17.0968 15.3303C17.3191 13.8484 18.1179 11.2231 20.9876 11.4839C20.9876 11.4839 25.0222 11.9885 23.7707 18.4416C23.5314 19.6768 23.7218 21.1743 24.4079 22.2294C25.7995 24.3693 29.8118 32.0902 27.2762 38.544C26.8072 39.7384 27.2762 40.6439 28.1728 39.5939C34.0145 32.7511 32.2362 24.7191 29.0612 20.5222L29.0619 20.523Z" fill="black"/>
<path d="M18.1677 17.9658C17.7972 17.9235 17.1667 17.8213 16.3153 17.8213C15.4639 17.8213 14.8326 17.9235 14.4629 17.9658L15.5314 19.2825C15.7336 19.5314 16.0248 19.6559 16.316 19.6559C16.6072 19.6559 16.8984 19.5314 17.1007 19.2825L18.1692 17.9658H18.1677Z" fill="#D94726"/>
<path d="M18.6547 17.2043L17.2758 15.506C17.0283 15.2015 16.6719 15.0488 16.3155 15.0488C15.9591 15.0488 15.6027 15.2015 15.3552 15.506L13.9763 17.2043C13.7377 17.4985 13.9126 18.0282 14.4623 17.966C14.8328 17.9238 15.4634 17.8215 16.3148 17.8215C17.1661 17.8215 17.7974 17.9238 18.1672 17.966C18.717 18.029 18.8918 17.4985 18.6532 17.2043H18.6547Z" fill="#F26621"/>
<path d="M24.4134 22.2304C23.7272 21.1752 23.5368 19.6777 23.7761 18.4426C25.0269 11.9895 20.9923 11.4849 20.9923 11.4849C18.1241 11.2241 17.3253 13.8456 17.1023 15.3283C17.166 15.3801 17.226 15.4387 17.2801 15.5054L18.659 17.2037C18.8976 17.4978 18.7228 18.0276 18.173 17.9654L17.1045 19.2821C16.9022 19.531 16.611 19.6555 16.3198 19.6555C16.3183 19.6555 16.3168 19.6555 16.3154 19.6555C16.3154 19.6555 16.3124 19.6555 16.3109 19.6555C16.0197 19.6555 15.7285 19.531 15.5262 19.2821L14.4578 17.9654C13.908 18.0284 13.7331 17.4978 13.9717 17.2037L15.3506 15.5054C15.4047 15.4387 15.4655 15.3801 15.5285 15.3283C15.3054 13.8456 14.5059 11.2241 11.6384 11.4849C11.6384 11.4849 7.60384 11.9895 8.85459 18.4426C9.09392 19.6777 8.90349 21.1752 8.21736 22.2304C6.8725 24.2984 3.08247 31.5776 5.1179 37.8899C5.16384 37.9981 5.21274 38.1041 5.26239 38.2093C5.68844 39.2155 6.38717 40.1402 7.30004 40.9397C7.96543 41.5347 8.72047 42.0319 9.52812 42.4402C11.5324 43.4812 13.9235 44.0014 16.3146 44.0007C18.7057 44.0014 21.0968 43.4812 23.1011 42.4402C23.9088 42.0319 24.6631 41.534 25.3292 40.9397C26.2421 40.1395 26.9408 39.2155 27.3669 38.2093C27.4172 38.1041 27.4654 37.9981 27.5113 37.8899C29.5468 31.5776 25.7567 24.2984 24.4119 22.2304H24.4134ZM13.2411 15.6669C12.9632 15.7425 12.575 15.8662 12.1771 16.0522C11.7799 16.2374 11.4354 16.4545 11.199 16.619C11.0063 16.7524 10.7396 16.6013 10.7018 16.3456C10.5966 15.6395 10.9115 14.9482 11.528 14.6607C12.1548 14.3687 12.9003 14.5836 13.373 15.1371C13.5316 15.3231 13.4552 15.6091 13.2418 15.6676L13.2411 15.6669ZM21.9311 16.3456C21.8933 16.602 21.6266 16.7532 21.4339 16.619C21.1976 16.4545 20.853 16.2374 20.4559 16.0522C20.058 15.8662 19.6697 15.7425 19.3918 15.6669C19.1785 15.6091 19.1021 15.3223 19.2607 15.1364C19.7334 14.5829 20.4788 14.368 21.1057 14.6599C21.7222 14.9474 22.0364 15.6387 21.9319 16.3449L21.9311 16.3456Z" fill="white"/>
<path d="M16.3165 0L13.3282 5.04375L9.5752 1.75905L10.0931 7.2007C13.9699 10.1935 19.3048 5.04375 19.3048 5.04375L16.3165 0Z" fill="#FFDE00"/>
<path d="M19.3055 5.0436L20.8275 3.71135L19.8961 1.66406L18.5342 3.74173L19.3055 5.0436Z" fill="#F26621"/>
<path d="M13.3283 5.0436L14.0997 3.74173L12.7378 1.66406L11.8057 3.71135L13.3283 5.0436Z" fill="#F26621"/>
<path d="M19.3054 5.04325C19.3054 5.04325 13.9705 10.193 10.0938 7.2002L10.2153 8.47688C10.2153 8.47688 12.3544 9.43569 16.3171 9.43569C20.2798 9.43569 22.419 8.47688 22.419 8.47688L23.0577 1.75781L19.3047 5.04251" fill="#FFC20D"/>
</svg>
