<svg width="44" height="44" viewBox="0 0 44 44" fill="none" xmlns="http://www.w3.org/2000/svg">
<path d="M32.1134 43.9998C38.6784 43.9998 44.0003 38.6779 44.0003 32.113C44.0003 25.548 38.6784 20.2261 32.1134 20.2261C25.5485 20.2261 20.2266 25.548 20.2266 32.113C20.2266 38.6779 25.5485 43.9998 32.1134 43.9998Z" fill="#97CF26"/>
<path d="M9.76747 37.6463C12.8233 37.6463 15.3006 35.169 15.3006 32.1132C15.3006 29.0573 12.8233 26.5801 9.76747 26.5801C6.71163 26.5801 4.23438 29.0573 4.23438 32.1132C4.23438 35.169 6.71163 37.6463 9.76747 37.6463Z" fill="#A169F7"/>
<path d="M32.112 17.42C36.3375 17.42 39.763 13.9945 39.763 9.76894C39.763 5.5434 36.3375 2.11792 32.112 2.11792C27.8864 2.11792 24.4609 5.5434 24.4609 9.76894C24.4609 13.9945 27.8864 17.42 32.112 17.42Z" fill="#FF6163"/>
<path d="M9.76895 19.5379C15.1642 19.5379 19.5379 15.1642 19.5379 9.76895C19.5379 4.37371 15.1642 0 9.76895 0C4.37371 0 0 4.37371 0 9.76895C0 15.1642 4.37371 19.5379 9.76895 19.5379Z" fill="#00AAFF"/>
</svg>
