<svg width="378" height="44" viewBox="0 0 378 44" fill="none" xmlns="http://www.w3.org/2000/svg">
<path d="M11.4823 43.147L0 0.708984H7.60316L16.4476 33.2939L25.9128 0.708984H32.9729L42.438 33.4491L51.2825 0.708984H58.8081L47.3257 43.147H38.5588L29.3265 11.493L20.1716 43.147H11.4823Z" fill="#BE11A5"/>
<path d="M64.083 0.708984H71.2982V43.147H64.083V0.708984Z" fill="#BE11A5"/>
<path d="M86.5825 36.4744H104.039V43.1466H79.5225V0.786133H86.5825V36.4744Z" fill="#BE11A5"/>
<path d="M126.229 0.785849C131.737 0.630683 137.09 2.8806 140.892 6.91493C148.728 15.3715 148.728 28.5606 140.892 37.0172C137.09 41.0515 131.737 43.3014 126.229 43.1463H109.315V0.785849H126.229ZM126.229 36.4741C130.263 36.4741 133.599 35.0776 136.082 32.3622C138.719 29.5692 140.116 25.7676 139.961 21.9661C140.116 18.0869 138.719 14.3629 136.082 11.5699C133.521 8.85451 129.953 7.30284 126.229 7.45801H116.376V36.4741H126.229Z" fill="#BE11A5"/>
<path d="M184.648 31.0431C184.725 34.3016 183.329 37.4825 180.924 39.6548C178.441 41.9823 175.183 43.2237 171.769 43.1461H153.382V0.785659H170.45C173.709 0.708076 176.89 1.94941 179.372 4.12174C181.777 6.21649 183.096 9.31982 183.019 12.5007C183.174 15.9144 181.467 19.1729 178.674 21.1125C182.398 22.9745 184.725 26.8536 184.648 31.0431ZM160.442 7.30265V18.4746H170.45C173.553 18.4746 176.036 15.992 176.036 12.8886C176.036 9.78531 173.553 7.30265 170.45 7.30265H160.442ZM171.769 36.5515C175.028 36.3964 177.588 33.6809 177.433 30.4225C177.355 27.3191 174.795 24.8365 171.769 24.7589H160.442V36.6291L171.769 36.5515Z" fill="#BE11A5"/>
<path d="M198.458 36.4744H217.465V43.1466H191.397V0.786133H217.155V7.45829H198.458V18.4751H215.681V25.0697H198.458V36.4744Z" fill="#BE11A5"/>
<path d="M248.266 43.147L239.111 27.7079H230.81V43.147H223.75V0.70897H240.973C244.62 0.631387 248.189 2.10547 250.749 4.74329C253.387 7.22596 254.861 10.7172 254.783 14.3636C254.706 19.7944 251.37 24.6822 246.249 26.6218L256.025 43.147H248.266ZM230.81 7.30354V21.5013H240.896C244.775 21.3461 247.801 18.01 247.646 14.0533C247.49 10.4069 244.542 7.45871 240.896 7.30354H230.81Z" fill="#BE11A5"/>
<path d="M285.894 43.147L276.817 27.7079H268.516V43.147H261.456V0.70897H278.679C282.325 0.631387 285.894 2.10547 288.455 4.74329C291.092 7.22596 292.566 10.7172 292.489 14.3636C292.411 19.7944 289.075 24.6822 283.955 26.6218L293.73 43.147H285.894ZM268.516 7.30354V21.5013H278.601C282.558 21.2685 285.506 17.9324 285.274 13.9757C285.041 10.4069 282.17 7.45871 278.601 7.30354H268.516Z" fill="#BE11A5"/>
<path d="M298.85 0.708984H305.91V43.147H298.85V0.708984Z" fill="#BE11A5"/>
<path d="M321.272 36.4744H340.28V43.1466H314.212V0.786133H339.97V7.45829H321.272V18.4751H338.495V25.0697H321.272V36.4744Z" fill="#BE11A5"/>
<path d="M345.245 33.5263L351.374 30.035C353.081 34.8452 356.65 37.1727 362.003 37.1727C367.356 37.1727 369.994 34.9228 369.994 31.5867C370.072 30.035 369.218 28.4834 367.822 27.7075C366.425 26.7765 363.865 25.7679 360.219 24.6818C356.107 23.4404 354.09 22.6646 351.219 20.8026C348.348 18.9406 347.03 16.07 347.03 12.2685C346.874 8.8548 348.426 5.51873 351.064 3.3464C353.779 1.09648 357.27 -0.067267 360.839 0.0103162C367.279 -0.222433 373.175 3.50156 375.813 9.3203L369.917 12.6564C368.132 8.77722 365.106 6.76006 360.917 6.76006C356.727 6.76006 354.167 8.77722 354.167 12.0357C354.167 15.2942 356.262 16.6131 362.857 18.6303C364.486 19.1734 365.649 19.5613 366.425 19.8716C367.201 20.182 368.287 20.5699 369.606 21.113C370.692 21.5009 371.779 22.1215 372.71 22.8198C374.96 24.6042 377.442 27.4748 377.132 31.5091C377.287 35.0779 375.735 38.414 372.942 40.6639C370.149 42.9138 366.503 44 361.926 44C353.469 43.9224 347.417 39.9657 345.245 33.5263Z" fill="#BE11A5"/>
</svg>
