<svg width="13" height="13" viewBox="0 0 13 13" fill="none" xmlns="http://www.w3.org/2000/svg">
<path d="M2.89568 1.10287C2.88911 1.10792 2.88406 1.11348 2.878 1.11853C2.91488 1.07963 2.96794 1.0377 3.0028 1.01496C4.02041 0.353645 5.19616 0 6.50076 0C7.72098 0 8.86389 0.336973 9.83956 0.923014C9.9103 0.964946 10.1033 1.09731 10.2028 1.21755C9.26153 0.179854 6.49469 2.40681 6.49469 2.40681C5.53772 1.66921 4.65755 1.16652 4.00222 0.987681C3.45451 0.837634 3.07556 0.962926 2.89568 1.10287ZM11.269 2.08398C11.2402 2.05215 11.2088 2.02235 11.18 1.98951C10.942 1.72831 10.6495 1.66516 10.3858 1.68234C10.1457 1.75762 9.03669 2.15724 7.66994 3.44754C7.66994 3.44754 9.20848 4.94346 10.1508 6.47272C11.0921 8.00198 11.655 9.20387 11.3089 10.8721C12.3593 9.71767 13 8.18386 13 6.4995C13 4.79492 12.3437 3.24343 11.269 2.08398ZM8.92048 7.12595C8.50313 6.65762 7.88216 5.98671 7.06211 5.1713C6.88274 4.99297 6.69326 4.80705 6.49419 4.61457C6.49419 4.61457 6.19457 4.91415 5.8045 5.30822V5.30771C5.3053 5.81191 4.65805 6.46969 4.29881 6.85365C3.65914 7.53618 1.82654 9.67978 1.72346 10.8817C1.72346 10.8817 1.31571 9.92834 2.21054 7.72968C2.79513 6.29236 4.56155 4.13411 5.29923 3.43086C5.29923 3.43086 4.62521 2.68922 3.77939 2.17694L3.77434 2.17542C3.77434 2.17542 3.76474 2.16785 3.74958 2.15825C3.34284 1.91575 2.89871 1.72882 2.47126 1.70406C2.03471 1.73488 1.75833 2.05417 1.75833 2.05417C0.667457 3.21716 0 4.78027 0 6.5C0 10.0895 2.91033 13 6.50076 13C8.40612 13 10.1205 12.1785 11.3099 10.8726C11.3094 10.8706 11.173 10.0137 10.2983 8.78455C10.0927 8.49658 9.34136 7.59782 8.92048 7.12595Z" fill="white"/>
</svg>
