<svg width="282" height="52" viewBox="0 0 282 52" fill="none" xmlns="http://www.w3.org/2000/svg">
<path d="M80.0478 50.7966C94.1087 50.7966 105.446 39.4592 105.446 25.3983C105.446 11.3374 94.1087 0 80.0478 0C65.9869 0 54.6495 11.3374 54.6495 25.3983C54.5228 39.4592 66.0502 50.7966 80.0478 50.7966Z" fill="#FED42B"/>
<path d="M132.489 44.0196H138.063L145.853 15.0744V44.0196H152.124V5.76382H143.51L135.719 33.8223L127.929 5.76382H119.125V44.0196H124.509V15.0744L132.489 44.0196ZM178.345 25.0817C178.345 18.3046 174.989 15.7711 168.021 15.7711C163.651 15.7711 160.231 17.1012 158.204 18.3046V23.6883C159.914 22.3582 163.778 20.9648 167.198 20.9648C170.428 20.9648 171.758 22.1682 171.758 25.0184V26.5385H170.745C160.738 26.5385 156.177 29.8954 156.177 35.5324C156.177 41.1694 159.534 44.3363 164.665 44.3363C168.528 44.3363 170.238 43.1329 171.442 41.8028H171.758C171.758 42.4995 172.075 43.5129 172.265 44.0196H178.725C178.535 41.8028 178.409 39.4593 178.409 37.2425C178.345 37.2425 178.345 25.0817 178.345 25.0817ZM171.758 37.4325C170.935 38.6359 169.415 39.6493 167.008 39.6493C164.285 39.6493 162.954 37.9392 162.954 35.5957C162.954 32.3655 165.171 31.2254 170.935 31.2254H171.948V37.4958H171.758V37.4325ZM189.683 16.2778H183.602V52.0001H190.19V40.8527C191.9 43.3862 194.243 44.5896 197.157 44.5896C203.617 44.5896 207.987 39.5226 207.987 30.2121C207.987 20.9015 203.744 15.8345 197.473 15.8345C194.433 15.8345 191.9 17.1646 190 19.8881C190.063 19.8247 189.683 16.2778 189.683 16.2778ZM195.32 39.4593C191.963 39.4593 190.063 36.6091 190.063 30.3387C190.063 23.8783 191.9 21.0281 195.637 21.0281C199.183 21.0281 201.02 23.8783 201.02 30.1487C201.02 36.6091 199.183 39.4593 195.32 39.4593ZM228.445 44.0196H235.919L225.405 29.1353L234.716 16.2778H228.129L218.818 29.1353V16.2778H212.231V44.0196H218.818V30.4654L228.445 44.0196ZM257.897 42.1828V36.7991C255.87 38.1292 252.514 39.3326 249.283 39.3326C244.533 39.3326 242.696 37.1158 242.316 32.3655H258.024V28.8186C258.024 19.1914 253.78 15.6445 247.193 15.6445C239.213 15.6445 235.349 21.7248 235.349 30.2121C235.349 39.8393 240.099 44.5896 248.397 44.5896C253.02 44.5263 256.06 43.5129 257.897 42.1828ZM247.256 21.0281C250.487 21.0281 251.5 23.7516 251.5 27.1085V27.6152H242.316C242.506 23.2449 244.216 21.0281 247.256 21.0281ZM281.585 21.5348V16.2778H259.607V21.5348H267.398V44.0196H273.985V21.5348H281.585Z" fill="#C7C7C7"/>
<path d="M25.7655 50.7966C39.7926 50.7966 51.1638 39.4254 51.1638 25.3983C51.1638 11.3712 39.7926 0 25.7655 0C11.7384 0 0.367188 11.3712 0.367188 25.3983C0.367188 39.4254 11.7384 50.7966 25.7655 50.7966Z" fill="#FC3F1D"/>
<path d="M29.4376 14.251H26.9041C22.5338 14.251 20.317 16.4678 20.317 19.8246C20.317 23.5615 21.8371 25.3983 25.0673 27.6151L27.6008 29.4519L20.317 40.7893H14.3633L21.3304 30.4653C17.2768 27.6151 15.06 24.8916 15.06 20.1413C15.06 14.1876 19.1136 10.134 26.9041 10.134H34.6946V40.5993H29.6276V14.1876H29.4376V14.251Z" fill="white"/>
<mask id="mask0_700_9673" style="mask-type:luminance" maskUnits="userSpaceOnUse" x="54" y="0" width="52" height="51">
<path d="M80.0399 50.7966C94.1008 50.7966 105.438 39.4592 105.438 25.3983C105.438 11.3374 94.1008 0 80.0399 0C65.9791 0 54.6417 11.3374 54.6417 25.3983C54.515 39.4592 66.0424 50.7966 80.0399 50.7966Z" fill="white"/>
</mask>
<g mask="url(#mask0_700_9673)">
<path d="M67.5651 13.9342L45.207 43.1961L51.1607 49.9732L67.7551 27.9951L66.045 40.0292L75.3556 43.2594L86.693 25.1449C86.1863 28.5018 85.3629 36.2923 92.7734 38.6991C104.427 42.246 114.625 21.2813 119.312 10.6407L112.535 7.09378C107.278 18.1145 99.1705 30.2753 95.9403 29.4519C92.71 28.6285 95.6236 18.3045 97.4604 11.6541V11.4641L87.1364 7.91717L74.7856 28.0584L76.4957 17.0377L67.5651 13.9342Z" fill="black"/>
</g>
</svg>
