<svg width="40" height="29" viewBox="0 0 40 29" fill="none" xmlns="http://www.w3.org/2000/svg">
<path fill-rule="evenodd" clip-rule="evenodd" d="M40 13.0233H24.893C24.5674 14.0205 23.8865 14.9526 22.8744 15.6279C21.9423 16.253 20.4949 16.5805 19.0698 16.6902L21.8567 19.4791C22.4019 20.0223 22.4019 20.9079 21.8567 21.4512C21.3116 21.9963 20.4279 21.9963 19.8828 21.4512L16.8037 18.3721V28.8372H34.8837C36.24 28.8372 37.5423 28.2977 38.5023 27.3395C39.4605 26.3795 40 25.0772 40 23.7209V13.0233ZM5.80465 13.0233H0V23.7209C0 25.0772 0.539535 26.3795 1.49767 27.3395C2.45767 28.2977 3.76 28.8372 5.11628 28.8372H14.013V18.253L10.8149 21.4512C10.2698 21.9963 9.38605 21.9963 8.84093 21.4512C8.29581 20.9079 8.29581 20.0223 8.84093 19.4791L11.6279 16.6902C10.2028 16.5805 8.75535 16.253 7.82326 15.6279C6.81116 14.9526 6.13023 14.0205 5.80465 13.0233ZM8.36837 11.5386C8.38884 11.3023 8.46884 11.0716 8.6214 10.8651C9.21861 10.0484 10.4967 10.0298 11.4567 10.6735C12.0558 11.0735 12.5079 11.8921 12.8856 12.6902C13.0902 13.1219 13.267 13.5553 13.4121 13.9516C12.947 13.9591 12.4242 13.9498 11.8921 13.9126C10.96 13.8437 9.98512 13.7172 9.37302 13.3079C8.78326 12.9135 8.40372 12.3181 8.36837 11.7395C8.37023 11.7023 8.37209 11.6651 8.37209 11.6279C8.37209 11.5981 8.37023 11.5684 8.36837 11.5386ZM22.3293 11.7395C22.294 12.3181 21.9144 12.9135 21.3247 13.3079C20.7126 13.7172 19.7377 13.8437 18.8056 13.9126C18.2735 13.9498 17.7507 13.9591 17.2856 13.9516C17.4307 13.5553 17.6074 13.1219 17.8121 12.6902C18.1898 11.8921 18.6419 11.0735 19.2409 10.6735C20.2009 10.0298 21.4791 10.0484 22.0763 10.8651C22.2288 11.0716 22.3088 11.3023 22.3293 11.5386C22.3274 11.5684 22.3256 11.5981 22.3256 11.6279C22.3256 11.6651 22.3274 11.7023 22.3293 11.7395ZM16.8037 0V9.13674C17.0847 8.82791 17.3805 8.56 17.6893 8.35349C19.9516 6.84093 22.9191 7.29302 24.3274 9.21302C24.56 9.53302 24.7405 9.87535 24.8707 10.2326H40V5.11628C40 3.76 39.4605 2.45767 38.5023 1.49767C37.5423 0.539535 36.24 0 34.8837 0H16.8037ZM14.013 0H5.11628C3.76 0 2.45767 0.539535 1.49767 1.49767C0.539535 2.45767 0 3.76 0 5.11628V10.2326H5.82698C5.95721 9.87535 6.13767 9.53302 6.37023 9.21302C7.7786 7.29302 10.746 6.84093 13.0084 8.35349C13.3619 8.58977 13.6986 8.90605 14.013 9.27442V0Z" fill="#847F7D"/>
</svg>
