<svg width="30" height="28" viewBox="0 0 30 28" fill="none" xmlns="http://www.w3.org/2000/svg">
<path d="M28.2422 0.464844H1.75781C0.788672 0.464844 0 1.25352 0 2.22266V19.6836C0 20.6527 0.788672 21.4414 1.75781 21.4414H28.2422C29.2113 21.4414 30 20.6527 30 19.6836V2.22266C30 1.25352 29.2113 0.464844 28.2422 0.464844Z" fill="#847F7D"/>
<path d="M24.375 25.7773H19.6289V23.1992H10.3711V25.7773H5.625C5.13984 25.7773 4.74609 26.1711 4.74609 26.6562C4.74609 27.1414 5.13984 27.5352 5.625 27.5352H24.375C24.8602 27.5352 25.2539 27.1414 25.2539 26.6562C25.2539 26.1711 24.8602 25.7773 24.375 25.7773Z" fill="#847F7D"/>
</svg>
