<svg width="29" height="31" viewBox="0 0 29 31" fill="none" xmlns="http://www.w3.org/2000/svg">
<path fill-rule="evenodd" clip-rule="evenodd" d="M12.9826 7.00806C12.9826 4.51992 13.8623 2.39614 15.6216 0.636772C15.7689 0.489493 15.9187 0.34839 16.0711 0.213435C15.3943 0.0711417 14.6988 0 13.9846 0H13.9828C11.4004 0 9.15146 0.865915 7.23592 2.59774C5.32034 4.32956 4.2328 6.48011 3.97327 9.0494L3.12445 17.4529C1.68732 18.1181 0.96875 19.3082 0.96875 21.0232V21.0252C0.96875 23.6942 2.30328 25.0288 4.97235 25.0288H22.9951C25.6641 25.0288 26.9987 23.6942 26.9987 21.0252V21.0232C26.9987 19.3082 26.2801 18.1181 24.843 17.4529L24.66 15.6408C23.8231 15.8926 22.9341 16.0184 21.9929 16.0184C19.5048 16.0184 17.381 15.1387 15.6216 13.3794C13.8623 11.62 12.9826 9.49622 12.9826 7.00806ZM17.0375 2.05261C15.6691 3.42101 14.9849 5.07283 14.9849 7.00806C14.9849 8.94328 15.6691 10.5951 17.0375 11.9635C18.4059 13.3319 20.0577 14.0161 21.9929 14.0161C23.9281 14.0161 25.5799 13.3319 26.9483 11.9635C28.3168 10.5951 29.001 8.94328 29.001 7.00806C29.001 5.07283 28.3168 3.42101 26.9483 2.05261C25.5799 0.684207 23.9281 0 21.9929 0C20.0577 0 18.4059 0.684207 17.0375 2.05261ZM21.0525 6.15352L20.6985 5.79956C20.503 5.60407 20.267 5.50633 19.9906 5.50633C19.7142 5.50633 19.4782 5.60407 19.2827 5.79956C19.1888 5.89344 19.1165 6.0017 19.0657 6.12436C19.0149 6.24701 18.9895 6.37472 18.9895 6.50748C18.9895 6.64024 19.0149 6.76795 19.0657 6.8906C19.1165 7.01326 19.1888 7.12153 19.2827 7.21541L20.7844 8.71713C20.98 8.91262 21.2159 9.01036 21.4923 9.01036C21.7688 9.01036 22.0047 8.91262 22.2003 8.71713L25.2037 5.71368C25.2976 5.6198 25.3699 5.51154 25.4208 5.38888C25.4715 5.26622 25.4969 5.13852 25.4969 5.00575C25.4969 4.87299 25.4715 4.74529 25.4208 4.62263C25.3699 4.49997 25.2976 4.39171 25.2037 4.29783C25.0082 4.10235 24.7722 4.0046 24.4958 4.0046C24.2194 4.0046 23.9834 4.10235 23.7879 4.29783L22.3721 5.71368L21.4923 6.59337L21.0525 6.15352ZM9.73623 28.2752C9.34808 27.8871 9.02421 27.4724 8.76451 27.0311H19.2029C18.9432 27.4724 18.6193 27.8871 18.2312 28.2752C17.0583 29.4481 15.6425 30.0345 13.9837 30.0345C12.325 30.0345 10.9091 29.4481 9.73623 28.2752Z" fill="#847F7D"/>
</svg>
