<svg width="14" height="14" viewBox="0 0 14 14" fill="none" xmlns="http://www.w3.org/2000/svg">
<path d="M6.9987 0.583374C5.7296 0.583374 4.48901 0.959705 3.43379 1.66478C2.37858 2.36985 1.55614 3.372 1.07047 4.54449C0.584812 5.71698 0.45774 7.00716 0.705329 8.25187C0.952917 9.49658 1.56405 10.6399 2.46143 11.5373C3.35882 12.4347 4.50216 13.0458 5.74687 13.2934C6.99158 13.541 8.28176 13.4139 9.45425 12.9283C10.6267 12.4426 11.6289 11.6202 12.334 10.565C13.039 9.50974 13.4154 8.26914 13.4154 7.00004C13.4134 5.29885 12.7367 3.66791 11.5338 2.46499C10.3308 1.26207 8.69989 0.585381 6.9987 0.583374ZM9.16112 9.16246C9.05173 9.27182 8.90338 9.33325 8.7487 9.33325C8.59402 9.33325 8.44567 9.27182 8.33628 9.16246L6.58628 7.41246C6.47688 7.30309 6.4154 7.15474 6.41537 7.00004V3.50004C6.41537 3.34533 6.47683 3.19696 6.58622 3.08756C6.69562 2.97817 6.84399 2.91671 6.9987 2.91671C7.15341 2.91671 7.30178 2.97817 7.41118 3.08756C7.52058 3.19696 7.58203 3.34533 7.58203 3.50004V6.75854L9.16112 8.33762C9.27048 8.44702 9.33191 8.59536 9.33191 8.75004C9.33191 8.90472 9.27048 9.05307 9.16112 9.16246Z" fill="#847F7D"/>
</svg>
