<svg width="28" height="28" viewBox="0 0 28 28" fill="none" xmlns="http://www.w3.org/2000/svg">
<path d="M6.23642 2.37552C6.22227 2.3864 6.21139 2.39837 6.19833 2.40925C6.27777 2.32546 6.39203 2.23514 6.46711 2.18617C8.65873 0.761733 11.1909 0 14.0007 0C16.6286 0 19.0901 0.725823 21.1914 1.98812C21.3438 2.07844 21.7594 2.36355 21.9738 2.62254C19.9465 0.387396 13.9876 5.18414 13.9876 5.18414C11.9266 3.59538 10.0309 2.51263 8.61955 2.12741C7.43996 1.80422 6.62381 2.07409 6.23642 2.37552ZM24.2699 4.48878C24.2079 4.42023 24.1404 4.35603 24.0784 4.28529C23.5658 3.7227 22.9358 3.58667 22.3677 3.62367C21.8509 3.78581 19.4623 4.64657 16.5187 7.42581C16.5187 7.42581 19.8323 10.6479 21.8617 13.9419C23.889 17.2358 25.1013 19.8246 24.3559 23.4179C26.6182 20.9313 27.998 17.6276 27.998 13.9996C27.998 10.328 26.5845 6.98618 24.2699 4.48878ZM19.212 15.3489C18.3132 14.3402 16.9758 12.8951 15.2096 11.1387C14.8233 10.7546 14.4153 10.3541 13.9865 9.93953C13.9865 9.93953 13.3412 10.5848 12.5011 11.4336V11.4325C11.426 12.5185 10.032 13.9354 9.25832 14.7624C7.88067 16.2325 3.93381 20.8497 3.71182 23.4385C3.71182 23.4385 2.83365 21.3851 4.76083 16.6493C6.01987 13.5534 9.82418 8.90466 11.4129 7.3899C11.4129 7.3899 9.96129 5.79244 8.13966 4.68901L8.12878 4.68575C8.12878 4.68575 8.10811 4.66942 8.07546 4.64875C7.19947 4.12642 6.24295 3.72379 5.32234 3.67047C4.38214 3.73685 3.7869 4.42458 3.7869 4.42458C1.4375 6.9296 0 10.2965 0 14.0007C0 21.7322 6.26798 28.0013 14.0007 28.0013C18.1042 28.0013 21.7964 26.2319 24.358 23.4189C24.357 23.4146 24.0631 21.569 22.1795 18.9215C21.7366 18.3012 20.1185 16.3653 19.212 15.3489Z" fill="#847F7D"/>
</svg>
